<svg id="Layer_1" data-name="Layer 1" xmlns="http://www.w3.org/2000/svg" viewBox="0 0 1280 1024"><defs><style>.cls-1{fill:#1a1a1a;}.cls-2{fill:#cf8145;}</style></defs><title>partArtboard 4</title><rect x="634.68" y="231.08" width="6" height="244.92" rx="3"/><path class="cls-1" d="M612.71,501.26v41.11l3-3h-332a3,3,0,0,0-3,3V693.12l3-3H165.32a3,3,0,0,0-3,3V797.78c0,3.86,6,3.86,6,0V693.12l-3,3H283.68a3,3,0,0,0,3-3V542.37l-3,3h332a3,3,0,0,0,3-3V501.26c0-3.86-6-3.87-6,0Z"/><path class="cls-1" d="M656.93,501.26v34.26a3,3,0,0,0,3,3H865.5l-3-3V708.7l3-3H754.62a3,3,0,0,0-3,3v82.22a3,3,0,0,0,3,3h252.29a3,3,0,0,0,3-3V724.27l-3,3h107.77l-3-3V827.05c0,3.86,6,3.87,6,0V724.27a3,3,0,0,0-3-3H1006.91a3,3,0,0,0-3,3v66.65l3-3H754.62l3,3V708.7l-3,3H865.5a3,3,0,0,0,3-3V535.52a3,3,0,0,0-3-3H659.93l3,3V501.26c0-3.86-6-3.87-6,0Z"/><path class="cls-1" d="M597.76,501.26V607.78l3-3H471.18a3,3,0,0,0-3,3V728.63a3,3,0,0,0,3,3H572.1l-3-3v127.7a3,3,0,0,0,3,3h124l-3-3V912.4c0,3.86,6,3.86,6,0V856.33a3,3,0,0,0-3-3h-124l3,3V728.63a3,3,0,0,0-3-3H471.18l3,3V607.78l-3,3H600.76a3,3,0,0,0,3-3V501.26c0-3.86-6-3.87-6,0Z"/><path class="cls-1" d="M580.94,501.26v74.13l3-3H367.78a3,3,0,0,0-3,3V739.84l3-3H237a3,3,0,0,0-3,3V853.22a3,3,0,0,0,3,3H421.35a3,3,0,0,0,3-3V771l-3,3h85.34l-3-3V933l3-3H417.61c-3.86,0-3.86,6,0,6h89.08a3,3,0,0,0,3-3V771a3,3,0,0,0-3-3H421.35a3,3,0,0,0-3,3v82.23l3-3H237l3,3V739.84l-3,3H367.78a3,3,0,0,0,3-3V575.39l-3,3H583.94a3,3,0,0,0,3-3V501.26c0-3.86-6-3.87-6,0Z"/><path class="cls-1" d="M673.13,501.26v96.55a3,3,0,0,0,3,3h289l-3-3V670.7a3,3,0,0,0,3,3h74.13l-3-3V833.91l3-3H901.63a3,3,0,0,0-3,3v74.75c0,3.86,6,3.87,6,0V833.91l-3,3H1039.3a3,3,0,0,0,3-3V670.7a3,3,0,0,0-3-3H965.17l3,3V597.81a3,3,0,0,0-3-3h-289l3,3V501.26c0-3.86-6-3.87-6,0Z"/><path class="cls-1" d="M688.7,501.26V663.84a3,3,0,0,0,3,3H809.44l-3-3V827.05l3-3H729.7a3,3,0,0,0-3,3v122.1c0,3.86,6,3.87,6,0V827.05l-3,3h79.74a3,3,0,0,0,3-3V663.84a3,3,0,0,0-3-3H691.7l3,3V501.26c0-3.86-6-3.87-6,0Z"/><path class="cls-1" d="M626.41,501.26V643.91l3-3H534.1a3,3,0,0,0-3,3V912.4a3,3,0,0,0,3,3h95.31a3,3,0,0,0,3-3V753.55c0-3.86-6-3.87-6,0V912.4l3-3H534.1l3,3V643.91l-3,3h95.31a3,3,0,0,0,3-3V501.26c0-3.86-6-3.87-6,0Z"/><path class="cls-1" d="M642.61,501.26V657.62a3,3,0,0,0,3,3h29.27l-3-3v233a3,3,0,0,0,3,3h152l-3-3V933c0,3.86,6,3.87,6,0V890.59a3,3,0,0,0-3-3h-152l3,3v-233a3,3,0,0,0-3-3H645.61l3,3V501.26c0-3.86-6-3.87-6,0Z"/><path class="cls-2" d="M252.22,478.72h777.56c10.5,0,21,.24,31.52,0,.45,0,.91,0,1.36,0,3.86,0,3.87-6,0-6H285.1c-10.49,0-21-.25-31.52,0h-1.36c-3.86,0-3.86,6,0,6Z"/><path class="cls-2" d="M504.35,417.33a140.62,140.62,0,0,1-35.57-60.2,157.89,157.89,0,0,1-4-70,157.93,157.93,0,0,1,70,4,140.42,140.42,0,0,1,95.77,95.77,158,158,0,0,1,3.95,70,157.88,157.88,0,0,1-70-4A140.72,140.72,0,0,1,504.35,417.33Z"/><path class="cls-1" d="M506.47,415.21c-33.15-33.55-46.05-81.08-38.75-127.27l-2.1,2.1c36-5.69,73.68.6,104.58,20.45a138.53,138.53,0,0,1,58.47,80.71,157,157,0,0,1,3,64.86l2.09-2.1c-46.18,7.29-93.71-5.61-127.26-38.75-2.75-2.72-7,1.52-4.24,4.24,35.17,34.75,84.75,47.93,133.1,40.3a2.89,2.89,0,0,0,2.09-2.1c5.94-37.61-.27-76.9-21-109.2A144.86,144.86,0,0,0,531.18,287c-22-5.72-44.8-6.27-67.15-2.74a2.9,2.9,0,0,0-2.1,2.1c-7.64,48.35,5.54,97.92,40.3,133.1C505,422.2,509.19,418,506.47,415.21Z"/><path class="cls-2" d="M683.47,209.79C717,176.65,764.6,163.71,810.73,171l-2.09-2.1c5.6,35.28-.32,72.21-19.29,102.74-19.25,31-50.51,52.94-85.92,61.33A157.19,157.19,0,0,1,642.62,335l2.1,2.1c-7.33-46.14,5.61-93.74,38.75-127.27,2.72-2.74-1.52-7-4.24-4.24-34.76,35.16-48,84.8-40.3,133.1a2.9,2.9,0,0,0,2.1,2.1c37.15,5.89,75.92-.13,108-20.32a145.07,145.07,0,0,0,63.6-89.85,165.1,165.1,0,0,0,1.76-63.23,2.89,2.89,0,0,0-2.09-2.1c-48.31-7.67-97.94,5.55-133.1,40.3C676.48,208.27,680.72,212.51,683.47,209.79Z"/></svg>