<svg id="Layer_1" data-name="Layer 1" xmlns="http://www.w3.org/2000/svg" viewBox="0 0 635 635"><defs><style>.cls-1{fill:#aeffda;}</style></defs><title>Artboard 1 copy 2</title><rect class="cls-1" y="1" width="635" height="635"/><path d="M329.69,329A89.45,89.45,0,0,1,346,326.59c2.57-.08,6.43-.45,8.45,1.4,1.57,1.45,2.61,4.59,3.43,6.48a101.59,101.59,0,0,1,3.68,10.15c1.89,6.06,3.72,12.49,4.06,18.86.27,5-2.43,7.59-5.83,11.2-5,5.31-10.42,10.2-15.48,15.44-4,4.11-7,7.89-8,13.67-2.34,13.85,3.16,30.3,16,37.44,8.2,4.55,15,1,22.44-3.17,5.12-2.87,10.51-5.67,15.2-9.2,6.88-5.16,13.44-10.82,20-16.38,8.66-7.34,18.38-14.8,25.16-24,7.54-10.25,8.59-25.64,10.6-37.79s4.83-23.77,5.75-36.06c.79-10.59,1.26-21.22,1.52-31.83l-3.3,4.33,62.8-22.52,100.68-36.13,23.08-8.28c5.41-1.94,3.07-10.64-2.4-8.67L571,234,470.33,270.17l-23.08,8.28a4.68,4.68,0,0,0-3.31,4.34q-.33,13.13-1.14,26.24c-.36,5.76-.72,11.56-1.51,17.28-.57,4.11-1.83,8.05-2.6,12.12-2.56,13.41-3.32,28-8.66,40.74-3.73,8.86-13.5,15.71-20.51,21.82-8,7-16.17,13.69-24.45,20.3-.51.41-1,.85-1.55,1.23,1.86-1.31.09-.15-.37.1-1.55.86-3,1.87-4.55,2.78q-5.78,3.45-11.66,6.67c-4,2.17-7.06,3.48-11.12.79-10-6.64-16-24.51-7.29-34.15,4.48-5,9.5-9.47,14.23-14.22,3.79-3.81,8.4-8,10.66-13,2.37-5.22.95-11.82-.12-17.19a117.61,117.61,0,0,0-6.63-21.87c-2.09-5.07-4.43-11.28-9.91-13.46-8.9-3.54-20.54-.66-29.46,1.3-5.65,1.24-3.26,9.92,2.39,8.68Z"/><ellipse class="cls-1" cx="362.76" cy="446.5" rx="32.36" ry="46.54" transform="translate(-123.86 139.65) rotate(-18.67)"/><path d="M378.46,493.48c17.23-6.32,22.74-26.11,21.1-42.88-1.82-18.6-11.56-38.5-28.35-47.93-14.08-7.9-30.8-4.66-39.38,9.47-10.2,16.8-6.85,39.69,2,56.26,8.34,15.59,25.72,31,44.62,25.08,3.67-1.14,2.1-6.93-1.6-5.78C363,492,349.94,482,342.49,471.09c-9.32-13.64-13.82-32.21-8.86-48.3,4.18-13.51,16.4-22.19,30.39-16.9,14.73,5.57,24.22,21.32,27.94,35.91,3.94,15.45,2.62,39.4-15.1,45.9C373.27,489,374.82,494.82,378.46,493.48Z"/><path d="M353.82,465,347.89,432l6.63-4.11,27,20-7.93,4.92-16-12.43,4.05,19.81Z"/><path class="cls-1" d="M635,39.8l-406.5,129S101,228.56,62.82,255.48C57.32,259.36,43.42,267,43,273.74c-.6,10.33,16.95,21.6,37.45,17.65S183.26,237.6,183.26,237.6,73,307.62,43.35,339c-2.77,2.93-8.92,9.55-8.7,13.58.52,9.43,16,19.83,34.29,15.91S196.4,295.05,196.4,295.05s-87.2,72.77-116.29,97c-5.5,4.58-20.62,11.28-22,18.3-2.81,14.05,17.16,32.78,55.3,15.08S247,320.51,247,320.51s-20.48,53.61-22.43,69.3,8.13,28.47,15.81,32.36,75,37.52,94.6,36.26-1.08-34.42-5.64-38.81-51.15-33-51.15-33,6.34-43.95,22.29-52.3c5.34-2.8,20.48-7.58,28.31-9.78"/><path d="M633.8,35.46l-29,9.19L532.07,67.74,436.75,98l-96.64,30.66L263.67,152.9c-11.92,3.78-24.06,7.15-35.83,11.36-4.34,1.56-8.49,3.87-12.65,5.86q-20.7,9.87-41.29,20c-34.51,17-69.4,34-102.18,54.19-6.51,4-12.9,8.29-19.2,12.62-7.82,5.38-17.36,12.84-12.62,23.4,8.2,18.22,34.68,18.88,50.63,12.54s31-14.75,46-23q21.27-11.76,42.15-24.25,3.44-2,6.85-4.11L181,233.71c-16.64,10.57-33.08,21.47-49.41,32.52-26.87,18.19-54,36.64-78.65,57.74a168.85,168.85,0,0,0-12.77,11.89c-5.51,5.81-12.23,13-9,21.51,5.88,15.45,28.57,19.61,42.45,14.4,10-3.74,19.35-9.2,28.6-14.38,13-7.29,25.86-14.91,38.64-22.63q29.1-17.56,57.79-35.82l-5.45-7.07L141,335.41,100,369.6l-16.8,14A199.5,199.5,0,0,1,65.83,396c-6.39,4.27-12.81,9.27-12.49,17.67.24,6.28,3.65,12,8.42,16,15.47,12.77,38.51,7,54.79-.8,12.39-6,23.73-14.29,34.74-22.45,14.16-10.49,27.9-21.55,41.46-32.81q29.24-24.32,57.4-49.92l-7.52-4.38C234.92,339.52,227,360,221.75,381c-3.72,14.8-1.18,30.46,10.73,41,6.4,5.68,15.52,8.94,23.16,12.56,12.75,6.06,25.64,11.87,38.75,17.13,11.24,4.51,23,9.3,35.11,10.86,4.87.63,10.41.58,14.28-2.91s4.42-9,3.58-14c-1.65-9.87-7.54-21.77-14.62-29-2.78-2.83-6.55-5-9.83-7.15-5.71-3.79-11.49-7.47-17.28-11.13q-12.56-7.94-25.2-15.72l2.07,5.08a144.8,144.8,0,0,1,8.67-33.21c2.42-6,5.68-13.13,11.55-16.39,8.15-4.54,18.31-6.8,27.24-9.33,5.56-1.58,3.19-10.27-2.4-8.68-9.72,2.76-20.46,5.36-29.38,10.23-6.75,3.69-10.95,11-14,17.75a142.32,142.32,0,0,0-10.37,37.24,4.72,4.72,0,0,0,2.07,5.08c15.35,9.45,30.8,18.84,45.68,29,5.84,4,9.46,9.49,13,16.64,2,4.11,4.77,9.62,4.19,14.36-.47,3.86-4.07,3.69-7.32,3.38-10.35-1-20.76-5.36-30.36-9.08-12.19-4.73-24.13-10.06-36-15.59-7.37-3.45-14.81-6.86-22-10.67-12.4-6.55-16-21.24-13-33.89,5.15-21.42,13.33-42.35,21.18-62.91,1.71-4.49-4.49-7.16-7.52-4.38-14.35,13.1-29,25.88-43.81,38.47-24.09,20.5-48.58,41.35-75.42,58.21-13.6,8.54-30.7,17.09-47.16,13.35-5.7-1.29-11.78-4.42-14.19-10.1-2.87-6.79,2.45-10.37,7.7-13.82A187.5,187.5,0,0,0,88.35,391L104,378l38-31.65,57.65-48.09c3.93-3.28-1.17-9.8-5.45-7.07q-21.82,13.9-43.92,27.38c-22.93,14.05-45.94,28.4-70,40.44-10.52,5.26-21.68,8.86-33.35,2.39-2.76-1.53-6.33-4.06-7.32-7.29-1.18-3.85,3.26-7.8,5.64-10.41a148.69,148.69,0,0,1,12.09-11.59c23.16-20.18,48.84-37.65,74.2-54.92,17.85-12.15,35.85-24.11,54.08-35.69,4.87-3.09.44-10.79-4.54-7.77-23.56,14.27-47.48,28.12-72,40.66-13.71,7-28.84,16-44.84,12.5C59,285.73,53.51,283.5,50,279.44c-3.29-3.76-2.69-6.48.8-9.8,6-5.77,13.94-10.2,21-14.72,30.91-19.83,64.37-36,97.22-52.33q22.13-11,44.41-21.65,6.58-3.16,13.19-6.29c1.13-.53,2.28-1,3.4-1.6s1-.33-.21,0q14.72-4.69,29.46-9.35l71-22.52L423,111.8l94.36-29.94,77.22-24.5c13.28-4.21,26.62-8.29,39.85-12.64l1.82-.58c5.5-1.74,3.15-10.44-2.4-8.68Z"/><polygon points="325.26 321 328.26 320 335.53 318.54 339.26 320 338.26 322 331.26 323 325.26 321"/></svg>