<svg id="Layer_1" data-name="Layer 1" xmlns="http://www.w3.org/2000/svg" xmlns:xlink="http://www.w3.org/1999/xlink" viewBox="0 0 635 635"><defs><style>.cls-1{fill:none;}.cls-2{fill:#fff;}.cls-3{clip-path:url(#clip-path);}</style><clipPath id="clip-path"><rect class="cls-1" y="1" width="635" height="635"/></clipPath></defs><title>Artboard 1 copy 12</title><rect class="cls-2" y="1" width="635" height="635"/><g class="cls-3"><path d="M165.85,338.08l-34.93.33,4.5,4.5v-86l-4.5,4.5H509.21c4.81,0,10.62.89,15.38,0a4.09,4.09,0,0,1,.7,0l-4.5-4.5v86l4.5-4.5-31.3-.33a4.6,4.6,0,0,0-4.34,3.3l-24.34,78.24L426.83,543.28l-8.92,28.66,4.34-3.31H237.51l4.33,3.31L217.53,493.7,179.09,370l-8.9-28.66c-1.72-5.51-10.41-3.16-8.68,2.39L185.82,422l38.44,123.66,8.91,28.66a4.6,4.6,0,0,0,4.34,3.3H422.25a4.6,4.6,0,0,0,4.34-3.3l24.35-78.24,38.47-123.66,8.92-28.66L494,347.08l31.3.33a4.57,4.57,0,0,0,4.5-4.5v-86a4.57,4.57,0,0,0-4.5-4.5H147c-5.08,0-10.31-.35-15.38,0-.23,0-.47,0-.7,0a4.57,4.57,0,0,0-4.5,4.5v86a4.57,4.57,0,0,0,4.5,4.5l34.93-.33C171.63,347,171.65,338,165.85,338.08Z"/><rect x="323.23" y="-230.61" width="4.88" height="489.62" rx="2.44" transform="translate(651.33 28.41) rotate(180)"/><path d="M225,197.48C200,172,190.21,136.21,195.67,101.19l-2.09,2.09c34.8-5.43,71.09,4.15,96.29,29.35s34.78,61.49,29.35,96.29l2.09-2.09c-35,5.47-70.82-4.28-96.29-29.35-2.75-2.71-7,1.52-4.24,4.24,27.1,26.68,64.94,36.7,102.13,30.89a2.88,2.88,0,0,0,2.09-2.09c4.54-29.06-.23-59.3-16.39-84.2a111.18,111.18,0,0,0-64.35-46.55c-17.09-4.57-34.85-5-52.28-2.27a2.88,2.88,0,0,0-2.09,2.09c-5.81,37.19,4.21,75,30.89,102.13C223.49,204.48,227.74,200.23,225,197.48Z"/><path d="M359.91,42C385.38,16.88,421.18,7.13,456.2,12.6l-2.09-2.1c5.43,34.8-4.15,71.09-29.35,96.29s-61.49,34.78-96.29,29.35l2.09,2.09c-5.47-35,4.28-70.82,29.35-96.28,2.71-2.76-1.53-7-4.24-4.25C329,64.8,319,102.64,324.78,139.83a2.89,2.89,0,0,0,2.09,2.1c29.06,4.53,59.3-.23,84.2-16.4a111.15,111.15,0,0,0,46.55-64.35c4.57-17.09,5-34.85,2.27-52.27a2.88,2.88,0,0,0-2.09-2.1C420.61,1,382.77,11,355.67,37.7,352.91,40.42,357.16,44.66,359.91,42Z"/><rect x="212.83" y="-213.99" width="4.51" height="310.42" rx="1.81" transform="translate(325.62 -252.43) rotate(135)"/><path d="M235.58,32.57c-17.8-.28-33.55-9.2-44-23.42v3c10.37-14,26.33-23.42,44-23.42s33.67,9.37,44,23.42v-3c-10.49,14.22-26.24,23.14-44,23.42-3.85.06-3.87,6.06,0,6,20.07-.32,37.44-10.42,49.22-26.39a2.9,2.9,0,0,0,0-3c-11.64-15.78-29.25-26.39-49.22-26.39S198-6.63,186.36,9.15a2.9,2.9,0,0,0,0,3c11.79,16,29.15,26.07,49.22,26.39C239.45,38.63,239.45,32.63,235.58,32.57Z"/></g></svg>