<svg id="Layer_1" data-name="Layer 1" xmlns="http://www.w3.org/2000/svg" viewBox="0 0 635 635"><defs><style>.cls-1{fill:#fff;}</style></defs><path class="cls-1" d="M284.23,522.93a3,3,0,0,1-2.86-2.09l-26.88-84.68H243.94a3,3,0,0,1-3-3V400.45a3,3,0,0,1,3-3H392a3,3,0,0,1,3,3v32.71a3,3,0,0,1-3,3H381.46l-26.88,84.68a3,3,0,0,1-2.86,2.09Z"/><path d="M392,400.45v32.71H379.26l-27.54,86.77H284.23l-27.55-86.77H243.94V400.45H392m0-6H243.94a6,6,0,0,0-6,6v32.71a6,6,0,0,0,6,6h8.35l26.22,82.58a6,6,0,0,0,5.72,4.19h67.49a6,6,0,0,0,5.72-4.19l26.21-82.58H392a6,6,0,0,0,6-6V400.45a6,6,0,0,0-6-6Z"/><path class="cls-1" d="M330.42,383.83a74,74,0,0,1-9.51-.62,3,3,0,0,1-2.59-2.59c-2.75-21.24,3.82-41.75,18-56.27a66.43,66.43,0,0,1,46.83-18.66,73.75,73.75,0,0,1,9.49.61,3,3,0,0,1,2.59,2.59c2.79,21.54-3.78,42.06-18,56.3C365.19,377.21,348.57,383.83,330.42,383.83Z"/><path d="M383.15,308.69a69.78,69.78,0,0,1,9.11.59c2.52,19.54-3,39.66-17.17,53.79-11.94,11.94-28.16,17.76-44.67,17.76a71.76,71.76,0,0,1-9.13-.59c-2.54-19.68,3.16-39.45,17.18-53.79,12.13-11.86,28.13-17.76,44.68-17.76m0-6h0a69.36,69.36,0,0,0-48.87,19.46l-.1.1c-14.84,15.18-21.7,36.6-18.84,58.76a6,6,0,0,0,5.19,5.18,78,78,0,0,0,9.89.64c18.95,0,36.33-6.93,48.91-19.52,14.9-14.9,21.78-36.33,18.88-58.8a6,6,0,0,0-5.18-5.18,76.34,76.34,0,0,0-9.88-.64Z"/><path class="cls-1" d="M303.86,324.84A67.25,67.25,0,0,1,256.48,306c-14.42-14.76-21.06-35.52-18.27-57a3,3,0,0,1,2.59-2.59,75.94,75.94,0,0,1,9.63-.62c18.38,0,35.2,6.7,47.37,18.87,14.41,14.41,21.06,35.18,18.24,57a3,3,0,0,1-2.59,2.59A75.43,75.43,0,0,1,303.86,324.84Z"/><path d="M250.43,248.77c16.74,0,33.16,5.9,45.25,18,14.31,14.31,19.94,34.7,17.39,54.49a71.42,71.42,0,0,1-9.21.59c-16.77,0-33-6-45.28-18-14.2-14.53-20-34.55-17.4-54.48a71.83,71.83,0,0,1,9.25-.6m0-6h0a78.52,78.52,0,0,0-10,.65,6,6,0,0,0-5.18,5.18c-2.9,22.41,4,44.08,19.05,59.44l.1.1c13,12.71,30.58,19.7,49.48,19.7a77.88,77.88,0,0,0,10-.64A6,6,0,0,0,319,322c2.93-22.74-4-44.43-19.1-59.5-12.73-12.74-30.31-19.75-49.49-19.75Z"/><path d="M317.29,403.45a3,3,0,0,1-3-3V151.05a3,3,0,0,1,6,0v249.4A3,3,0,0,1,317.29,403.45Z"/><path class="cls-1" d="M379.63,249c-13.36,0-26.06-6.54-34.85-17.93a3,3,0,0,1,0-3.67c8.66-11.23,21.35-17.77,34.82-17.93,13.54.16,26.23,6.7,34.88,17.93a3,3,0,0,1,0,3.66C405.7,242.5,393,249,379.63,249Z"/><path d="M379.63,212.52c13,.15,24.64,6.58,32.48,16.75-7.79,10.1-19.54,16.77-32.48,16.77s-24.69-6.67-32.48-16.77c7.85-10.17,19.5-16.6,32.48-16.75m0-6h-.06c-14.39.16-27.94,7.12-37.17,19.09a6,6,0,0,0,0,7.33c9.36,12.14,22.93,19.1,37.23,19.1s27.87-7,37.23-19.1a6,6,0,0,0,0-7.33c-9.22-12-22.77-18.93-37.16-19.09Z"/><path d="M319.66,254.5a3,3,0,0,1-2.12-5.12l67.51-67.51a3,3,0,0,1,4.24,4.24l-67.5,67.51A3,3,0,0,1,319.66,254.5Z"/><path class="cls-1" d="M324.73,153a39.65,39.65,0,0,1-5-.32,3,3,0,0,1-2.59-2.6,35.44,35.44,0,0,1,9.48-29.58,35,35,0,0,1,24.66-9.85,39.49,39.49,0,0,1,5,.32,3,3,0,0,1,2.59,2.59c1.47,11.31-2,22.11-9.5,29.61A34.44,34.44,0,0,1,324.73,153Z"/><path d="M351.3,113.64a37.34,37.34,0,0,1,4.59.29c1.27,9.85-1.53,20-8.65,27.11a31.6,31.6,0,0,1-22.51,9,35.53,35.53,0,0,1-4.6-.3,32.41,32.41,0,0,1,8.66-27.1,31.85,31.85,0,0,1,22.51-9m0-6h0a37.93,37.93,0,0,0-26.71,10.65l-.09.1a38.43,38.43,0,0,0-10.32,32.07,6,6,0,0,0,5.18,5.18,42.1,42.1,0,0,0,5.37.35,37.43,37.43,0,0,0,26.75-10.71c8.17-8.16,11.94-19.87,10.36-32.11a6,6,0,0,0-5.18-5.19,41.93,41.93,0,0,0-5.36-.34Z"/><path class="cls-1" d="M282.08,190.73a3,3,0,0,1-1.84-.62,28.07,28.07,0,0,1,0-45.63,3,3,0,0,1,3.66,0c7.44,5.74,11.72,14.05,11.72,22.81s-4.28,17.07-11.72,22.82A3,3,0,0,1,282.08,190.73Z"/><path d="M282.08,146.85a25.09,25.09,0,0,1,0,40.88,25.08,25.08,0,0,1,0-40.88m0-6a6,6,0,0,0-3.67,1.25,32.2,32.2,0,0,0-12.88,25.12v.14a32.2,32.2,0,0,0,12.88,25.12,6,6,0,0,0,7.33,0c8.19-6.31,12.88-15.5,12.88-25.19s-4.69-18.88-12.88-25.19a6,6,0,0,0-3.66-1.25Z"/><path d="M314.75,228.07a3,3,0,0,1-2.12-.88l-67.51-67.51a3,3,0,0,1,4.24-4.25l67.51,67.51a3,3,0,0,1-2.12,5.13Z"/><path d="M317.5,320.5a3,3,0,0,1-1.5-5.6L551.76,178.78a3,3,0,0,1,3,5.2L319,320.1A3,3,0,0,1,317.5,320.5Z"/><path d="M317.5,320.5a3,3,0,0,1-1.51-.41L81.38,184a3,3,0,0,1,3-5.19L319,314.91a3,3,0,0,1-1.51,5.59Z"/><path d="M317.5,592.74a3,3,0,0,1-3-3V317.5a3,3,0,0,1,6,0V589.74A3,3,0,0,1,317.5,592.74Z"/><path d="M317.5,592.74a3,3,0,0,1-1.5-.41L80.24,456.22a3,3,0,0,1-1.5-2.6V181.38a3,3,0,0,1,1.5-2.6L316,42.67a3,3,0,0,1,3,0L554.76,178.78a3,3,0,0,1,1.5,2.6V453.62a3,3,0,0,1-1.5,2.6L319,592.33A3,3,0,0,1,317.5,592.74ZM84.74,451.89,317.5,586.27,550.26,451.89V183.11L317.5,48.73,84.74,183.11Zm468.52,1.73h0Z"/></svg>