<svg width="635" height="636" viewBox="0 0 635 636" fill="none" xmlns="http://www.w3.org/2000/svg">
<g clip-path="url(#clip0_1_450)">
<path d="M637.3 -2.5H-2V636.8H637.3V-2.5Z" fill="white"/>
<mask id="mask0_1_450" style="mask-type:luminance" maskUnits="userSpaceOnUse" x="0" y="1" width="635" height="636">
<path d="M635 1.5H0V636.5H635V1.5Z" fill="white"/>
</mask>
<g mask="url(#mask0_1_450)">
<path d="M409.2 252.5C409.7 296.8 414.8 341.8 427.9 384.3C432.9 400.6 439.2 416.7 447.5 431.6C449.9 435.8 453.4 444.7 458.7 445.3C460.9 445.5 463.3 445.3 465.5 445.3C488.4 445.3 511.3 445.3 534.2 445.3C537.9 445.3 541.7 445.3 545.4 445.3C549.1 445.3 550.9 444.2 553.2 440.8C562.3 427.1 568.9 411.9 574.4 396.5C590.7 350.6 596.5 301 597.1 252.5C597.1 250.1 595 248 592.6 248C572.4 248 552.3 248 532.1 248C500 248 467.9 248 435.8 248C428.5 248 421.1 248 413.8 248C408 248 408 257 413.8 257C434 257 454.1 257 474.3 257C506.4 257 538.5 257 570.6 257C577.9 257 585.3 257 592.6 257C591.1 255.5 589.6 254 588.1 252.5C587.7 289.1 584 325.9 575.3 361.5C568.8 388.4 559.6 415.5 543.9 438.5C545.2 437.8 546.5 437 547.8 436.3C521.7 436.3 495.7 436.3 469.6 436.3C465.9 436.3 462.2 436.3 458.5 436.3C459.8 437 461.1 437.8 462.4 438.5C446.6 415.5 437.5 388.4 431 361.5C422.4 325.9 418.7 289.1 418.2 252.5C418.2 246.7 409.2 246.7 409.2 252.5Z" fill="black"/>
</g>
<mask id="mask1_1_450" style="mask-type:luminance" maskUnits="userSpaceOnUse" x="0" y="1" width="635" height="636">
<path d="M635 1.5H0V636.5H635V1.5Z" fill="white"/>
</mask>
<g mask="url(#mask1_1_450)">
<path d="M392.2 494.9C384.2 495 376.3 495.1 368.3 495.1C369.8 496.6 371.3 498.1 372.8 499.6C372.8 480 372.8 460.4 372.8 440.8C371.3 442.3 369.8 443.8 368.3 445.3C398.7 445.3 429 445.3 459.4 445.3C507.8 445.3 556.2 445.3 604.6 445.3C615.7 445.3 626.8 445.3 638 445.3C636.5 443.8 635 442.3 633.5 440.8C633.5 460.4 633.5 480 633.5 499.6C635 498.1 636.5 496.6 638 495.1C630.9 495 623.7 494.9 616.6 494.9C614.6 494.9 612.8 496.3 612.3 498.2C598 544.2 583.7 590.1 569.4 636.1C567.3 642.7 565.3 649.3 563.2 655.9C564.6 654.8 566.1 653.7 567.5 652.6C530.6 652.6 493.8 652.6 456.9 652.6C451.6 652.6 446.4 652.6 441.1 652.6C442.5 653.7 444 654.8 445.4 655.9C431.1 609.9 416.8 564 402.6 518C400.5 511.4 398.5 504.8 396.4 498.2C394.7 492.7 386 495 387.7 500.6C402 546.6 416.3 592.5 430.5 638.5C432.6 645.1 434.6 651.7 436.7 658.3C437.3 660.2 439 661.6 441 661.6C477.9 661.6 514.7 661.6 551.6 661.6C556.9 661.6 562.1 661.6 567.4 661.6C569.4 661.6 571.1 660.2 571.7 658.3C586 612.3 600.3 566.4 614.6 520.4C616.7 513.8 618.7 507.2 620.8 500.6C619.4 501.7 617.9 502.8 616.5 503.9C623.6 504 630.8 504.1 637.9 504.1C640.3 504.1 642.4 502 642.4 499.6C642.4 480 642.4 460.4 642.4 440.8C642.4 438.4 640.3 436.3 637.9 436.3C607.5 436.3 577.2 436.3 546.8 436.3C498.4 436.3 450 436.3 401.6 436.3C390.5 436.3 379.4 436.3 368.2 436.3C365.8 436.3 363.7 438.4 363.7 440.8C363.7 460.4 363.7 480 363.7 499.6C363.7 502 365.8 504.1 368.2 504.1C376.2 504 384.1 503.9 392.1 503.9C398 503.9 398 494.9 392.2 494.9Z" fill="black"/>
</g>
<mask id="mask2_1_450" style="mask-type:luminance" maskUnits="userSpaceOnUse" x="0" y="1" width="635" height="636">
<path d="M635 1.5H0V636.5H635V1.5Z" fill="white"/>
</mask>
<g mask="url(#mask2_1_450)">
<path d="M69.6 134.6C59.9 134.7 50.2 134.8 40.6 134.9C42.1 136.4 43.6 137.9 45.1 139.4C45.1 115.6 45.1 91.8 45.1 67.9C43.6 69.4 42.1 70.9 40.6 72.4C77.5 72.4 114.5 72.4 151.4 72.4C210.2 72.4 269.1 72.4 327.9 72.4C341.4 72.4 354.9 72.4 368.3 72.4C366.8 70.9 365.3 69.4 363.8 67.9C363.8 91.7 363.8 115.5 363.8 139.4C365.3 137.9 366.8 136.4 368.3 134.9C359.6 134.8 351 134.7 342.3 134.6C340.3 134.6 338.5 136 338 137.9C331.3 159.5 324.5 181.2 317.8 202.8C307.1 237.1 296.4 271.4 285.8 305.7C283.3 313.6 280.9 321.6 278.4 329.5C279.8 328.4 281.3 327.3 282.7 326.2C237.9 326.2 193.1 326.2 148.3 326.2C141.9 326.2 135.5 326.2 129.2 326.2C130.6 327.3 132.1 328.4 133.5 329.5C126.8 307.9 120.1 286.2 113.3 264.6C102.6 230.3 92 196 81.3 161.7C78.8 153.8 76.4 145.8 73.9 137.9C72.2 132.4 63.5 134.7 65.2 140.3C71.9 161.9 78.6 183.6 85.4 205.2C96.1 239.5 106.7 273.8 117.4 308.1C119.9 316 122.3 324 124.8 331.9C125.4 333.8 127.1 335.2 129.1 335.2C173.9 335.2 218.7 335.2 263.5 335.2C269.9 335.2 276.3 335.2 282.6 335.2C284.6 335.2 286.3 333.8 286.9 331.9C293.6 310.3 300.4 288.6 307.1 267C317.8 232.7 328.5 198.4 339.1 164.1C341.6 156.2 344 148.2 346.5 140.3C345.1 141.4 343.6 142.5 342.2 143.6C350.9 143.7 359.5 143.8 368.2 143.9C370.6 143.9 372.7 141.8 372.7 139.4C372.7 115.6 372.7 91.8 372.7 67.9C372.7 65.5 370.6 63.4 368.2 63.4C331.3 63.4 294.3 63.4 257.4 63.4C198.6 63.4 139.7 63.4 80.9 63.4C67.4 63.4 53.9 63.4 40.5 63.4C38.1 63.4 36 65.5 36 67.9C36 91.7 36 115.5 36 139.4C36 141.8 38.1 143.9 40.5 143.9C50.2 143.8 59.9 143.7 69.5 143.6C75.4 143.6 75.4 134.6 69.6 134.6Z" fill="black"/>
</g>
<mask id="mask3_1_450" style="mask-type:luminance" maskUnits="userSpaceOnUse" x="0" y="1" width="635" height="636">
<path d="M635 1.5H0V636.5H635V1.5Z" fill="white"/>
</mask>
<g mask="url(#mask3_1_450)">
<g filter="url(#filter0_d_1_450)">
<path d="M36.1001 331.3C37.0001 407 45.6001 483.6 67.6001 556.2C76.2001 584.6 86.9001 612.6 101.4 638.6C104.5 644.1 107.7 649.5 111.2 654.8C113.2 657.9 114.7 661.3 118.7 661.6C122.7 661.9 126.9 661.6 130.9 661.6C170.2 661.6 209.5 661.6 248.8 661.6C255.2 661.6 261.6 661.6 267.9 661.6C269.3 661.6 270.7 661.7 272 661.6C275.9 661.2 277.4 657.9 279.4 654.8C294.8 631.3 306.3 605.3 315.6 578.8C340 509.6 350.6 435.4 353.7 362.3C354.1 352 354.4 341.6 354.5 331.3C354.5 328.9 352.4 326.8 350 326.8C315 326.8 279.9 326.8 244.9 326.8C189.5 326.8 134.1 326.8 78.7001 326.8C66.0001 326.8 53.3001 326.8 40.6001 326.8C34.8001 326.8 34.8001 335.8 40.6001 335.8C42.1191 335.8 43.6383 335.8 45.1577 335.8C78.6466 335.8 112.219 335.8 145.7 335.8C201.1 335.8 256.5 335.8 311.9 335.8C323.079 335.8 334.258 335.8 345.437 335.8C346.958 335.8 348.479 335.8 350 335.8C348.5 334.3 347 332.8 345.5 331.3C345.482 332.8 345.461 334.3 345.437 335.8C344.642 385.099 340.328 434.376 331.4 482.9C323.7 524.3 312.9 565.7 296 604.4C288.754 621.086 280.325 637.408 270.108 652.5C269.61 653.236 269.107 653.97 268.6 654.7C269.9 654 271.2 653.2 272.5 652.5C271.703 652.5 270.906 652.5 270.108 652.5C225.806 652.5 181.503 652.5 137.2 652.5C131.604 652.5 126.084 652.5 120.507 652.5C119.706 652.5 118.904 652.5 118.1 652.5C119.4 653.2 120.7 654 122 654.7C121.498 653.969 121 653.236 120.507 652.5C100.725 623.029 87.2419 589.557 76.9001 555.8C63.3001 511.4 54.9001 465.5 50.1001 419.4C47.1617 391.628 45.571 363.676 45.1577 335.8C45.1349 334.266 45.1157 332.733 45.1001 331.2C45.1001 325.5 36.1001 325.5 36.1001 331.3Z" fill="black"/>
<path d="M145.7 335.8H45.1577C45.571 363.676 47.1617 391.628 50.1001 419.4C54.9001 465.5 63.3001 511.4 76.9001 555.8C87.2419 589.557 100.725 623.029 120.507 652.5H137.2H270.108C280.325 637.408 288.754 621.086 296 604.4C312.9 565.7 323.7 524.3 331.4 482.9C340.328 434.376 344.642 385.099 345.437 335.8H311.9H145.7Z" fill="#706BE4"/>
</g>
<path d="M45.5 336.5L319 538L313 558L307.5 575L47 388.5L45.5 336.5Z" fill="#7B76EF"/>
<g filter="url(#filter1_d_1_450)">
<path d="M36.1001 330.3C37.0001 406 45.6001 482.6 67.6001 555.2C76.2001 583.6 86.9001 611.6 101.4 637.6C104.5 643.1 107.7 648.5 111.2 653.8C113.2 656.9 114.7 660.3 118.7 660.6C122.7 660.9 126.9 660.6 130.9 660.6C170.2 660.6 209.5 660.6 248.8 660.6C255.2 660.6 261.6 660.6 267.9 660.6C269.3 660.6 270.7 660.7 272 660.6C275.9 660.2 277.4 656.9 279.4 653.8C294.8 630.3 306.3 604.3 315.6 577.8C340 508.6 350.6 434.4 353.7 361.3C354.1 351 354.4 340.6 354.5 330.3C354.5 327.9 352.4 325.8 350 325.8C315 325.8 279.9 325.8 244.9 325.8C189.5 325.8 134.1 325.8 78.7001 325.8C66.0001 325.8 53.3001 325.8 40.6001 325.8C34.8001 325.8 34.8001 334.8 40.6001 334.8C75.6001 334.8 110.7 334.8 145.7 334.8C201.1 334.8 256.5 334.8 311.9 334.8C324.6 334.8 337.3 334.8 350 334.8C348.5 333.3 347 331.8 345.5 330.3C344.9 381.1 340.6 431.9 331.4 481.9C323.7 523.3 312.9 564.7 296 603.4C288.4 620.9 279.5 638 268.6 653.7C269.9 653 271.2 652.2 272.5 651.5C227.4 651.5 182.3 651.5 137.2 651.5C130.8 651.5 124.5 651.5 118.1 651.5C119.4 652.2 120.7 653 122 653.7C101.4 623.7 87.5001 589.4 76.9001 554.8C63.3001 510.4 54.9001 464.5 50.1001 418.4C47.0001 389.1 45.4001 359.6 45.1001 330.2C45.1001 324.5 36.1001 324.5 36.1001 330.3Z" fill="black"/>
</g>
</g>
<g filter="url(#filter2_d_1_450)">
<path d="M70.7641 133.565L42.0451 133.836L45.7449 137.536L336.792 147.887L340.557 133.565L42.0451 70.5276H353.071C357.026 70.5276 361.803 71.2593 365.716 70.5276C365.908 70.5112 366.1 70.5112 366.292 70.5276L362.592 66.8277V137.536L366.292 133.836L340.557 133.565C339.751 133.578 337.631 133.125 336.989 133.613C336.347 134.101 337.217 135.504 336.989 136.278H158.862L209.838 298.348L278.005 325.842L281.574 323.121H129.682L133.242 325.842H278.005L81.6499 159.809L164.617 323.121L305.162 138.235C303.748 133.705 65.7734 133.647 67.1958 138.21L87.1833 202.563L118.788 304.235L126.114 327.799C126.342 328.572 126.811 329.253 127.453 329.741C128.095 330.229 128.876 330.499 129.682 330.512H281.574C282.38 330.499 283.161 330.229 283.803 329.741C284.445 329.253 284.914 328.572 285.142 327.799L305.162 263.471L336.792 161.799L344.126 138.235L340.566 140.965L366.3 141.236C367.277 141.221 368.209 140.826 368.9 140.136C369.591 139.445 369.985 138.513 370 137.536V66.8277C369.985 65.8511 369.591 64.9186 368.9 64.228C368.209 63.5373 367.277 63.1427 366.3 63.1279H55.2659C51.0892 63.1279 46.7891 62.8401 42.6206 63.1279C42.4315 63.1279 42.2342 63.1279 42.0451 63.1279C41.0684 63.1427 40.136 63.5373 39.4453 64.228C38.7546 64.9186 38.3601 65.8511 38.3452 66.8277V137.536C38.3601 138.513 38.7546 139.445 39.4453 140.136C40.136 140.826 41.0684 141.221 42.0451 141.236L70.7641 140.965C75.5164 140.899 75.5328 133.499 70.7641 133.565Z" fill="#B2704E"/>
<path d="M70.4189 133.767L41.6999 134.038L45.3997 137.738V67.0296L41.6999 70.7295H352.726C356.681 70.7295 361.458 71.4612 365.371 70.7295C365.563 70.713 365.755 70.713 365.947 70.7295L362.247 67.0296V137.738L365.947 134.038L340.212 133.767C339.406 133.779 338.625 134.05 337.983 134.538C337.341 135.026 336.872 135.706 336.644 136.48L316.632 200.808L284.994 302.48L277.66 326.044L281.228 323.322H129.337L132.897 326.044L112.91 261.716L81.3047 160.011L73.9872 136.447C72.5731 131.917 65.4282 133.849 66.8506 138.412L86.8381 202.765L118.443 304.437L125.769 328.001C125.997 328.774 126.466 329.455 127.108 329.943C127.75 330.431 128.531 330.701 129.337 330.714H281.228C282.035 330.701 282.816 330.431 283.458 329.943C284.1 329.455 284.569 328.774 284.797 328.001L304.817 263.673L336.447 162.001L343.78 138.437L340.22 141.166L365.955 141.438C366.932 141.423 367.864 141.028 368.555 140.338C369.245 139.647 369.64 138.715 369.655 137.738V67.0296C369.64 66.053 369.245 65.1205 368.555 64.4298C367.864 63.7392 366.932 63.3446 365.955 63.3298H54.9207C50.7439 63.3298 46.4439 63.042 42.2754 63.3298C42.0863 63.3298 41.889 63.3298 41.6999 63.3298C40.7232 63.3446 39.7908 63.7392 39.1001 64.4298C38.4094 65.1205 38.0148 66.053 38 67.0296V137.738C38.0148 138.715 38.4094 139.647 39.1001 140.338C39.7908 141.028 40.7232 141.423 41.6999 141.438L70.4189 141.166C75.1712 141.101 75.1876 133.701 70.4189 133.767Z" fill="black"/>
<path d="M362.765 134.732V70.6016H40.4666L340.279 134.732H362.765Z" fill="#A56848"/>
</g>
<g filter="url(#filter3_d_1_450)">
<path d="M408.157 249.291C408.695 294.585 413.841 340.417 427.004 383.856C432.15 400.849 438.552 417.602 447.228 433.159C449.083 436.449 450.997 439.68 453.091 442.852C454.288 444.706 455.186 446.741 457.579 446.92C459.972 447.1 462.485 446.92 464.879 446.92C488.393 446.92 511.908 446.92 535.422 446.92C539.251 446.92 543.081 446.92 546.85 446.92C547.688 446.92 548.526 446.98 549.303 446.92C551.637 446.681 552.534 444.706 553.731 442.852C562.945 428.791 569.826 413.234 575.391 397.378C589.99 355.974 596.332 311.577 598.187 267.839C598.427 261.676 598.606 255.454 598.666 249.291C598.666 247.855 597.409 246.598 595.973 246.598C575.032 246.598 554.03 246.598 533.089 246.598C499.941 246.598 466.793 246.598 433.646 246.598C426.047 246.598 418.448 246.598 410.849 246.598C407.379 246.598 407.379 251.983 410.849 251.983C411.758 251.983 412.667 251.983 413.576 251.983C433.614 251.983 453.701 251.983 473.734 251.983C506.882 251.983 540.029 251.983 573.177 251.983C579.866 251.983 586.554 251.983 593.243 251.983C594.153 251.983 595.063 251.983 595.973 251.983C595.076 251.086 594.178 250.188 593.281 249.291C593.27 250.188 593.258 251.086 593.243 251.983C592.767 281.481 590.186 310.965 584.844 339.998C580.237 364.769 573.775 389.54 563.663 412.696C559.328 422.679 554.285 432.445 548.171 441.475C547.873 441.916 547.572 442.355 547.269 442.792C548.047 442.373 548.825 441.894 549.603 441.475C549.126 441.475 548.648 441.475 548.171 441.475C521.664 441.475 495.156 441.475 468.648 441.475C465.3 441.475 461.997 441.475 458.66 441.475C458.181 441.475 457.701 441.475 457.22 441.475C457.998 441.894 458.776 442.373 459.553 442.792C459.253 442.354 458.955 441.916 458.66 441.475C446.824 423.842 438.756 403.815 432.569 383.617C424.431 357.051 419.405 329.587 416.533 302.004C414.775 285.387 413.823 268.662 413.576 251.983C413.562 251.066 413.551 250.148 413.542 249.231C413.542 245.821 408.157 245.82 408.157 249.291Z" fill="black"/>
<path d="M473.734 251.983H413.576C413.823 268.662 414.775 285.387 416.533 302.004C419.405 329.587 424.431 357.051 432.569 383.617C438.756 403.815 446.824 423.842 458.66 441.475H468.648H548.171C554.285 432.445 559.328 422.679 563.663 412.696C573.775 389.54 580.237 364.769 584.844 339.998C590.186 310.965 592.767 281.481 593.243 251.983H573.177H473.734Z" fill="#77AA93"/>
<path d="M413.781 252.402L577.425 372.966L573.835 384.933L570.544 395.105L414.678 283.515L413.781 252.402Z" fill="#80BA9F"/>
<path d="M408.157 248.692C408.695 293.986 413.841 339.819 427.004 383.258C432.15 400.25 438.552 417.004 447.228 432.56C449.083 435.851 450.997 439.082 453.091 442.253C454.288 444.108 455.186 446.142 457.579 446.322C459.972 446.501 462.485 446.322 464.879 446.322C488.393 446.322 511.908 446.322 535.422 446.322C539.251 446.322 543.081 446.322 546.85 446.322C547.688 446.322 548.526 446.382 549.303 446.322C551.637 446.083 552.534 444.108 553.731 442.253C562.945 428.192 569.826 412.636 575.391 396.78C589.99 355.375 596.332 310.979 598.187 267.241C598.427 261.078 598.606 254.855 598.666 248.692C598.666 247.256 597.409 246 595.973 246C575.032 246 554.03 246 533.089 246C499.941 246 466.793 246 433.646 246C426.047 246 418.448 246 410.849 246C407.379 246 407.379 251.385 410.849 251.385C431.791 251.385 452.792 251.385 473.734 251.385C506.882 251.385 540.029 251.385 573.177 251.385C580.776 251.385 588.375 251.385 595.973 251.385C595.076 250.487 594.178 249.59 593.281 248.692C592.922 279.088 590.349 309.483 584.844 339.4C580.237 364.171 573.775 388.942 563.663 412.097C559.116 422.568 553.791 432.8 547.269 442.193C548.047 441.775 548.825 441.296 549.603 440.877C522.618 440.877 495.633 440.877 468.648 440.877C464.819 440.877 461.049 440.877 457.22 440.877C457.998 441.296 458.776 441.775 459.553 442.193C447.228 424.243 438.911 403.721 432.569 383.018C424.431 356.452 419.405 328.989 416.533 301.406C414.678 283.874 413.721 266.224 413.542 248.633C413.542 245.222 408.157 245.222 408.157 248.692Z" fill="black"/>
</g>
<g filter="url(#filter4_d_1_450)">
<path d="M391.027 496.363L366.46 496.595L369.625 499.76L618.593 508.614L621.814 496.363L366.46 442.439H632.519C635.902 442.439 639.988 443.065 643.336 442.439C643.499 442.425 643.664 442.425 643.828 442.439L640.663 439.274V499.76L643.828 496.595L621.814 496.363C621.124 496.374 619.311 495.986 618.762 496.404C618.213 496.821 618.957 498.022 618.762 498.684H466.388L509.994 637.322L568.306 660.841L571.358 658.513H441.427L444.472 660.841H568.306L400.339 518.813L471.311 658.513L591.536 500.358C590.327 496.482 386.758 496.433 387.975 500.336L405.072 555.385L432.108 642.358L438.375 662.515C438.569 663.176 438.971 663.759 439.52 664.176C440.069 664.594 440.737 664.825 441.427 664.836H571.358C572.048 664.825 572.716 664.594 573.265 664.176C573.814 663.759 574.216 663.176 574.41 662.515L591.536 607.487L618.593 520.515L624.866 500.358L621.821 502.693L643.835 502.925C644.67 502.912 645.468 502.574 646.059 501.984C646.65 501.393 646.987 500.595 647 499.76V439.274C646.987 438.439 646.65 437.641 646.059 437.05C645.468 436.46 644.67 436.122 643.835 436.109H377.77C374.197 436.109 370.518 435.863 366.953 436.109C366.791 436.109 366.622 436.109 366.46 436.109C365.625 436.122 364.827 436.46 364.236 437.05C363.646 437.641 363.308 438.439 363.295 439.274V499.76C363.308 500.595 363.646 501.393 364.236 501.984C364.827 502.574 365.625 502.912 366.46 502.925L391.027 502.693C395.092 502.636 395.106 496.306 391.027 496.363Z" fill="#EB8755"/>
<path d="M390.732 496.535L366.165 496.768L369.33 499.932V439.447L366.165 442.612H632.223C635.606 442.612 639.693 443.238 643.04 442.612C643.204 442.598 643.369 442.598 643.533 442.612L640.368 439.447V499.932L643.533 496.768L621.519 496.535C620.829 496.546 620.161 496.777 619.612 497.195C619.063 497.612 618.661 498.195 618.466 498.856L601.348 553.884L574.284 640.856L568.01 661.013L571.063 658.686H441.132L444.177 661.013L427.079 605.986L400.044 518.985L393.784 498.828C392.575 494.953 386.463 496.606 387.679 500.509L404.777 555.558L431.813 642.53L438.079 662.687C438.274 663.349 438.675 663.931 439.225 664.349C439.774 664.766 440.442 664.997 441.132 665.008H571.063C571.753 664.997 572.421 664.766 572.97 664.349C573.519 663.931 573.92 663.349 574.115 662.687L591.241 607.66L618.298 520.687L624.571 500.53L621.526 502.865L643.54 503.097C644.375 503.085 645.173 502.747 645.764 502.156C646.354 501.566 646.692 500.768 646.705 499.932V439.447C646.692 438.612 646.354 437.814 645.764 437.223C645.173 436.632 644.375 436.295 643.54 436.282H377.474C373.901 436.282 370.223 436.036 366.657 436.282C366.495 436.282 366.327 436.282 366.165 436.282C365.329 436.295 364.532 436.632 363.941 437.223C363.35 437.814 363.013 438.612 363 439.447V499.932C363.013 500.768 363.35 501.566 363.941 502.156C364.532 502.747 365.329 503.085 366.165 503.097L390.732 502.865C394.797 502.809 394.811 496.479 390.732 496.535Z" fill="black"/>
<path d="M640.811 497.361V442.503H365.11L621.576 497.361H640.811Z" fill="#D87747"/>
</g>
</g>
<defs>
<filter id="filter0_d_1_450" x="32.1001" y="326.8" width="326.4" height="342.933" filterUnits="userSpaceOnUse" color-interpolation-filters="sRGB">
<feFlood flood-opacity="0" result="BackgroundImageFix"/>
<feColorMatrix in="SourceAlpha" type="matrix" values="0 0 0 0 0 0 0 0 0 0 0 0 0 0 0 0 0 0 127 0" result="hardAlpha"/>
<feOffset dy="4"/>
<feGaussianBlur stdDeviation="2"/>
<feComposite in2="hardAlpha" operator="out"/>
<feColorMatrix type="matrix" values="0 0 0 0 0 0 0 0 0 0 0 0 0 0 0 0 0 0 0.25 0"/>
<feBlend mode="normal" in2="BackgroundImageFix" result="effect1_dropShadow_1_450"/>
<feBlend mode="normal" in="SourceGraphic" in2="effect1_dropShadow_1_450" result="shape"/>
</filter>
<filter id="filter1_d_1_450" x="32.1001" y="325.8" width="326.4" height="342.933" filterUnits="userSpaceOnUse" color-interpolation-filters="sRGB">
<feFlood flood-opacity="0" result="BackgroundImageFix"/>
<feColorMatrix in="SourceAlpha" type="matrix" values="0 0 0 0 0 0 0 0 0 0 0 0 0 0 0 0 0 0 127 0" result="hardAlpha"/>
<feOffset dy="4"/>
<feGaussianBlur stdDeviation="2"/>
<feComposite in2="hardAlpha" operator="out"/>
<feColorMatrix type="matrix" values="0 0 0 0 0 0 0 0 0 0 0 0 0 0 0 0 0 0 0.25 0"/>
<feBlend mode="normal" in2="BackgroundImageFix" result="effect1_dropShadow_1_450"/>
<feBlend mode="normal" in="SourceGraphic" in2="effect1_dropShadow_1_450" result="shape"/>
</filter>
<filter id="filter2_d_1_450" x="34" y="63" width="340" height="275.714" filterUnits="userSpaceOnUse" color-interpolation-filters="sRGB">
<feFlood flood-opacity="0" result="BackgroundImageFix"/>
<feColorMatrix in="SourceAlpha" type="matrix" values="0 0 0 0 0 0 0 0 0 0 0 0 0 0 0 0 0 0 127 0" result="hardAlpha"/>
<feOffset dy="4"/>
<feGaussianBlur stdDeviation="2"/>
<feComposite in2="hardAlpha" operator="out"/>
<feColorMatrix type="matrix" values="0 0 0 0 0 0 0 0 0 0 0 0 0 0 0 0 0 0 0.25 0"/>
<feBlend mode="normal" in2="BackgroundImageFix" result="effect1_dropShadow_1_450"/>
<feBlend mode="normal" in="SourceGraphic" in2="effect1_dropShadow_1_450" result="shape"/>
</filter>
<filter id="filter3_d_1_450" x="404.157" y="246" width="198.509" height="209" filterUnits="userSpaceOnUse" color-interpolation-filters="sRGB">
<feFlood flood-opacity="0" result="BackgroundImageFix"/>
<feColorMatrix in="SourceAlpha" type="matrix" values="0 0 0 0 0 0 0 0 0 0 0 0 0 0 0 0 0 0 127 0" result="hardAlpha"/>
<feOffset dy="4"/>
<feGaussianBlur stdDeviation="2"/>
<feComposite in2="hardAlpha" operator="out"/>
<feColorMatrix type="matrix" values="0 0 0 0 0 0 0 0 0 0 0 0 0 0 0 0 0 0 0.25 0"/>
<feBlend mode="normal" in2="BackgroundImageFix" result="effect1_dropShadow_1_450"/>
<feBlend mode="normal" in="SourceGraphic" in2="effect1_dropShadow_1_450" result="shape"/>
</filter>
<filter id="filter4_d_1_450" x="359" y="436" width="292" height="237.008" filterUnits="userSpaceOnUse" color-interpolation-filters="sRGB">
<feFlood flood-opacity="0" result="BackgroundImageFix"/>
<feColorMatrix in="SourceAlpha" type="matrix" values="0 0 0 0 0 0 0 0 0 0 0 0 0 0 0 0 0 0 127 0" result="hardAlpha"/>
<feOffset dy="4"/>
<feGaussianBlur stdDeviation="2"/>
<feComposite in2="hardAlpha" operator="out"/>
<feColorMatrix type="matrix" values="0 0 0 0 0 0 0 0 0 0 0 0 0 0 0 0 0 0 0.25 0"/>
<feBlend mode="normal" in2="BackgroundImageFix" result="effect1_dropShadow_1_450"/>
<feBlend mode="normal" in="SourceGraphic" in2="effect1_dropShadow_1_450" result="shape"/>
</filter>
<clipPath id="clip0_1_450">
<rect width="635" height="635" fill="white" transform="translate(0 0.5)"/>
</clipPath>
</defs>
</svg>
