<svg id="Layer_1" data-name="Layer 1" xmlns="http://www.w3.org/2000/svg" xmlns:xlink="http://www.w3.org/1999/xlink" viewBox="0 0 635 635"><defs><style>.cls-1,.cls-4,.cls-5,.cls-6,.cls-7,.cls-8,.cls-9{fill:none;}.cls-2{fill:#fff;}.cls-3{clip-path:url(#clip-path);}.cls-4,.cls-5,.cls-6,.cls-7,.cls-8,.cls-9{stroke:#000;stroke-linecap:round;stroke-miterlimit:10;stroke-width:2px;}.cls-5{stroke-dasharray:20.61 30.92;}.cls-6{stroke-dasharray:20.46 30.69;}.cls-7{stroke-dasharray:20.86 31.29;}.cls-8{stroke-dasharray:19.17 28.76;}.cls-9{stroke-dasharray:20.31 30.46;}</style><clipPath id="clip-path"><rect class="cls-1" y="1" width="635" height="635"/></clipPath></defs><title>Artboard 1 copy 13</title><rect class="cls-2" y="1" width="635" height="635"/><g class="cls-3"><path class="cls-2" d="M583.05,231.82c11.5,1.15,21.56-1.57,28.12-8.62,15.39-16.54,5.72-50.57-21.61-76s-62-32.65-77.36-16.11c-7.48,8-9,20.19-5.53,33.49l-61.92-54.52a156.67,156.67,0,0,1-25.58,17.81,156.07,156.07,0,0,1-28.55,12.53L413.3,270.22,266.69,298.54c-4.43-23.68-17.26-40.82-30.77-39.63-15.2,1.34-25.51,25.35-23,53.63s16.82,50.13,32,48.79c11.17-1,19.7-14.24,22.44-32.43l155.13-6,35.75,204.58s63-4,154-55.08c100.35-56.25,127.36-102.66,127.36-102.66Zm-21.82-29.61-23.66-20.84c-6.1-10.14-7.07-20.62-1.54-26.56,7.66-8.23,24.89-4.64,38.49,8s18.41,29.59,10.75,37.82C580.18,206.1,570.89,206.35,561.23,202.21Z"/><path d="M583.05,236.32c16.63,1.41,33.36-5.51,38.41-22.52,4.53-15.27-1.25-32.2-9-45.4A111,111,0,0,0,570,127.55c-13.79-7.44-31.08-12.82-46.68-8.24-20.69,6.07-25.73,27.46-21,46.45l7.52-4.37-61.92-54.52a4.62,4.62,0,0,0-6.36,0,155.54,155.54,0,0,1-52.14,29.18,4.65,4.65,0,0,0-3.15,5.54L406.1,255,409,271.42l3.14-5.54L283.47,290.73l-18,3.48,5.54,3.14c-3.07-15.56-10.58-36.06-27.09-41.84-14.52-5.09-25.79,7.27-30.76,19.51-7.21,17.77-6.6,39.22-1.05,57.35,4.06,13.27,12.68,30.44,27.9,33.17,19.78,3.55,29.18-20,31.68-35.44l-4.34,3.3,136.09-5.29,19-.74-4.34-3.31,12.13,69.38,19.21,110,4.41,25.25a4.51,4.51,0,0,0,4.34,3.31c10.15-.67,20.34-2.82,30.23-5.09,27.34-6.25,53.88-15.83,79.48-27.2a591,591,0,0,0,100.76-57.35c20.1-14.2,39.51-29.76,56.47-47.66,6.57-6.93,13.49-14.37,18.34-22.67a4.57,4.57,0,0,0-.7-5.46L690,320l-84.29-74.22-19.48-17.15c-4.33-3.81-10.72,2.53-6.36,6.36l52.83,46.52L717,355.74l19.48,17.15-.71-5.45c-3.75,6.41-8,11.11-13.19,16.8C707.8,400.6,690.8,415,673.11,428.08c-53.3,39.45-114.69,71.82-179.2,88.21-11.86,3-24.41,5.92-35.66,6.66l4.34,3.3-12.12-69.38L431.26,346.93l-4.42-25.26a4.5,4.5,0,0,0-4.34-3.3l-136.08,5.29-19.05.74c-1.8.07-4,1.34-4.34,3.31-1.6,9.91-6.12,28.62-19,29.17-11.66.5-19.09-15-22.24-24-5.17-14.81-6.42-31.7-2.65-47,2.16-8.76,8-23.92,19.54-22.49,6.08.74,10.95,6.18,14.11,11,5,7.65,7.83,16.42,9.59,25.34.49,2.51,3.29,3.58,5.53,3.14L396.52,278l18-3.47c2.55-.49,3.54-3.3,3.14-5.54L397.82,155.58,395,139.2l-3.14,5.53a166.68,166.68,0,0,0,56.11-31.5h-6.36l61.92,54.52c3.33,2.93,8.64.13,7.52-4.38-3.43-13.84-1.21-30.39,14.23-35.23,12.61-3.95,26.89.35,38.23,6.12a102.49,102.49,0,0,1,37.14,32.3c7.67,11,14,24.37,13.33,38.07-.3,5.86-2.28,11.64-6.44,15.88-6.4,6.54-15.77,7.55-24.45,6.81C577.28,226.83,577.31,235.84,583.05,236.32Z"/><path d="M564.42,199l-17.54-15.44c-2.19-1.93-4.72-3.77-6.35-6.1-3.92-5.6-6.28-17.26,1-21.27,5.75-3.2,13.72-.53,19.09,2.21a48.42,48.42,0,0,1,19.14,17.71c3.17,5.21,6.5,12.9,3.84,19-3.59,8.25-14.82,5.26-21.13,2.72-5.37-2.17-7.7,6.53-2.39,8.68,7.59,3.06,16.94,4.69,24.43.38,5.55-3.19,8.51-9,8.89-15.26.95-15.76-11.79-30.76-24.27-38.72-10.56-6.73-28.37-11.81-37.41.11-7.43,9.79-3.33,26.18,5.36,33.83l21,18.5C562.38,209.2,568.77,202.86,564.42,199Z"/><circle cx="248.06" cy="302.3" r="5.93"/><circle cx="231.15" cy="321.54" r="5.93"/><circle cx="229.2" cy="304.45" r="5.93"/><circle cx="250" cy="319.39" r="5.93"/><circle cx="242.71" cy="335.13" r="5.93"/><circle cx="237.02" cy="288.05" r="5.93"/><line class="cls-4" x1="188.57" y1="292.06" x2="179.12" y2="295.32"/><line class="cls-5" x1="149.89" y1="305.4" x2="-127.75" y2="401.17"/><line class="cls-4" x1="193.31" y1="319.33" x2="184.46" y2="323.98"/><line class="cls-6" x1="157.28" y1="338.23" x2="-100.91" y2="473.61"/><line class="cls-4" x1="201.62" y1="344.24" x2="193.86" y2="350.56"/><line class="cls-7" x1="169.61" y1="370.33" x2="-60.78" y2="558.12"/><line class="cls-4" x1="212.29" y1="366.77" x2="206.3" y2="374.78"/><line class="cls-8" x1="189.06" y1="397.8" x2="25.28" y2="616.49"/><line class="cls-4" x1="16.66" y1="628" x2="10.67" y2="636"/><line class="cls-4" x1="236.01" y1="384.56" x2="232.13" y2="393.78"/><line class="cls-9" x1="220.3" y1="421.85" x2="147.37" y2="594.96"/><line class="cls-4" x1="141.45" y1="608.99" x2="137.57" y2="618.21"/></g></svg>