<svg width="635" height="636" viewBox="0 0 635 636" fill="none" xmlns="http://www.w3.org/2000/svg">
<g clip-path="url(#clip0_1_536)">
<path d="M635 0.5H0V635.5H635V0.5Z" fill="#AFF4FE"/>
<mask id="mask0_1_536" style="mask-type:luminance" maskUnits="userSpaceOnUse" x="0" y="0" width="635" height="636">
<path d="M635 0.5H0V635.5H635V0.5Z" fill="white"/>
</mask>
<g mask="url(#mask0_1_536)">
<g filter="url(#filter0_d_1_536)">
<path d="M473.449 548.106C473.445 548.214 473.44 548.321 473.434 548.428C472.944 557.045 466.196 562.614 457.778 562.693C455.114 562.693 452.449 562.693 449.824 562.693H199.837C191.883 562.693 183.848 562.743 175.864 562.693C166.06 562.633 159.706 555.971 159.656 546.306C159.577 530.586 159.656 514.865 159.656 499.145V29.2112C159.656 19.775 165.533 12.5561 175.466 12.4765C183.192 12.4169 190.918 12.4765 198.644 12.4765H449.018C458.395 12.4765 469.661 11.4822 472.882 23.2054C473.926 26.9541 473.419 31.4386 473.419 35.2767V548.106C473.419 548.216 473.424 548.324 473.434 548.428C473.758 551.942 479.385 551.843 479.385 548.106V31.4684C479.385 21.7835 476.79 12.4567 466.857 8.18101C460.682 5.52613 452.638 6.51052 446.055 6.51052H234.063C214.176 6.51052 194.17 5.89403 174.283 6.51052C161.207 6.9182 153.69 17.3488 153.69 29.5791V535.697C153.69 539.744 153.581 543.82 153.69 547.867C154.048 561.152 164.459 568.699 176.908 568.699H454.089C455.661 568.699 457.251 568.749 458.822 568.699C464.246 568.6 469.421 566.404 473.26 562.572C477.1 558.74 479.306 553.569 479.415 548.146C479.535 544.268 473.569 544.268 473.449 548.106Z" fill="black"/>
<path d="M457.778 562.693C466.196 562.614 472.944 557.045 473.434 548.428C473.424 548.324 473.419 548.216 473.419 548.106V35.2767C473.419 31.4386 473.926 26.9541 472.882 23.2054C469.661 11.4822 458.395 12.4765 449.018 12.4765H198.644C190.918 12.4765 183.192 12.4169 175.466 12.4765C165.533 12.5561 159.656 19.775 159.656 29.2112V499.145C159.656 514.865 159.577 530.586 159.656 546.306C159.706 555.971 166.06 562.633 175.864 562.693C183.848 562.743 191.883 562.693 199.837 562.693H449.824H457.778Z" fill="#C8E7EC"/>
<path d="M316.921 682.923H318.979C321.582 682.923 323.692 681.241 323.692 679.166L323.692 -11.1628C323.692 -13.238 321.582 -14.9202 318.979 -14.9202H316.921C314.318 -14.9202 312.207 -13.238 312.207 -11.1628L312.207 679.166C312.207 681.241 314.318 682.923 316.921 682.923Z" fill="#7D4529"/>
<g filter="url(#filter1_d_1_536)">
<path d="M279.22 641.823C245.261 607.535 271.708 637.632 279.22 590.392L255.981 569.248L232.742 548.104C269.582 542.229 179.056 529.764 210.646 550.009C240.4 569.057 234.769 591.352 243.79 625.441C249.467 646.935 288.432 615.33 284.935 637.251L313.157 617.06L304.745 614.012C257.505 621.54 239.965 562.253 205.693 528.293C202.554 525.185 172.937 606.339 176.076 609.448C212.2 645.259 263.448 658.86 313.157 650.935C313.736 650.791 314.264 650.493 314.685 650.071C315.107 649.65 315.406 649.121 315.55 648.543C321.744 609.684 315.192 569.019 293.636 535.707C273.153 504.301 241.6 481.754 205.251 472.55C182.903 466.881 159.672 466.355 136.958 469.974C136.38 470.12 135.851 470.419 135.429 470.84C135.006 471.261 134.705 471.789 134.558 472.367C126.649 522.076 140.265 573.324 176.069 609.44C179.178 612.587 282.329 644.962 279.22 641.823Z" fill="#77AA93"/>
</g>
<path d="M181.089 605.023C147.129 570.735 133.849 521.842 141.361 474.609L138.938 477.009C175.778 471.135 218.295 531.288 249.886 551.533C224.651 524.484 249.886 511.531 249.886 551.533C259.482 561.819 312.585 625.222 309.087 647.143L311.48 644.743C264.24 652.278 215.346 638.983 181.074 605.023C177.934 601.907 173.081 606.76 176.228 609.869C212.351 645.68 263.6 659.281 313.309 651.357C313.886 651.211 314.414 650.912 314.835 650.49C315.256 650.069 315.555 649.542 315.701 648.964C321.896 610.105 315.343 569.44 293.788 536.121C273.304 504.716 241.75 482.172 205.402 472.971C183.055 467.294 159.823 466.776 137.11 470.395C136.531 470.54 136.002 470.839 135.579 471.26C135.156 471.681 134.856 472.209 134.71 472.788C126.823 522.489 140.462 573.745 176.273 609.869C179.321 613.008 184.198 608.177 181.089 605.023Z" fill="#406152"/>
<path d="M181.089 604.261C147.129 569.974 133.849 521.08 141.361 473.847L138.938 476.247C175.778 470.373 214.37 476.872 245.961 497.117C275.714 516.165 297.133 546.27 306.154 580.366C311.838 601.861 312.585 624.46 309.087 646.381L311.48 643.981C264.24 651.516 215.346 638.221 181.074 604.261C177.934 601.145 173.081 605.998 176.228 609.107C212.351 644.918 263.6 658.519 313.309 650.595C313.886 650.449 314.414 650.15 314.835 649.728C315.256 649.307 315.555 648.78 315.701 648.202C321.896 609.343 315.343 568.678 293.788 535.359C273.304 503.954 241.75 481.41 205.402 472.209C183.055 466.532 159.823 466.014 137.11 469.633C136.531 469.778 136.002 470.077 135.579 470.498C135.156 470.919 134.856 471.447 134.71 472.026C126.823 521.727 140.462 572.983 176.273 609.107C179.321 612.246 184.198 607.415 181.089 604.261Z" fill="#1A1A1A"/>
<g filter="url(#filter2_d_1_536)">
<path d="M478.303 390.197C446.96 421.241 474.472 397.065 431.288 390.197L411.96 411.441L392.632 432.685C387.262 399.008 375.867 481.761 394.373 452.883C411.786 425.685 432.166 430.832 463.328 422.585C482.976 417.396 454.085 381.777 474.124 384.974L455.666 359.175L452.88 366.864C459.762 410.048 405.566 426.082 374.522 457.411C371.681 460.28 445.866 487.354 448.708 484.484C481.444 451.463 493.877 404.615 486.633 359.175C486.501 358.646 486.228 358.163 485.843 357.778C485.457 357.393 484.975 357.119 484.446 356.988C448.924 351.325 411.751 357.315 381.299 377.019C352.59 395.744 331.98 424.588 323.566 457.815C318.384 478.243 317.903 499.48 321.211 520.243C321.344 520.772 321.617 521.255 322.002 521.642C322.388 522.028 322.87 522.303 323.398 522.437C368.839 529.667 415.686 517.22 448.701 484.491C451.578 481.649 481.172 387.356 478.303 390.197Z" fill="#77AA93"/>
</g>
<path d="M444.663 479.902C413.32 510.946 368.625 523.086 325.448 516.218L327.642 518.433C322.272 484.757 377.26 445.891 395.766 417.013C371.04 440.081 359.199 417.013 395.766 417.013C405.169 408.241 463.127 359.698 483.166 362.895L480.972 360.708C487.861 403.892 475.706 448.587 444.663 479.916C441.814 482.786 446.251 487.223 449.093 484.346C481.829 451.324 494.262 404.477 487.018 359.036C486.885 358.508 486.611 358.026 486.226 357.641C485.841 357.256 485.359 356.983 484.831 356.849C449.309 351.187 412.136 357.177 381.677 376.881C352.97 395.606 332.362 424.45 323.95 457.677C318.761 478.105 318.288 499.342 321.596 520.105C321.728 520.634 322.001 521.118 322.387 521.504C322.772 521.891 323.254 522.165 323.783 522.299C369.217 529.508 416.071 517.04 449.093 484.304C451.962 481.518 447.546 477.06 444.663 479.902Z" fill="#406152"/>
<path d="M443.966 479.902C412.623 510.946 367.928 523.086 324.751 516.218L326.945 518.433C321.575 484.757 327.517 449.479 346.023 420.601C363.436 393.402 390.955 373.823 422.124 365.577C441.772 360.381 462.431 359.698 482.47 362.895L480.276 360.708C487.164 403.892 475.01 448.587 443.966 479.916C441.118 482.786 445.554 487.223 448.396 484.346C481.132 451.324 493.565 404.477 486.321 359.036C486.188 358.508 485.915 358.026 485.53 357.641C485.144 357.256 484.662 356.983 484.134 356.849C448.612 351.187 411.439 357.177 380.981 376.881C352.273 395.606 331.665 424.45 323.254 457.677C318.065 478.105 317.591 499.342 320.9 520.105C321.032 520.634 321.305 521.118 321.69 521.504C322.075 521.891 322.558 522.165 323.087 522.299C368.52 529.508 415.375 517.04 448.396 484.304C451.266 481.518 446.85 477.06 443.966 479.902Z" fill="#1A1A1A"/>
<g filter="url(#filter3_d_1_536)">
<path d="M435.158 191.749C411.507 215.174 432.268 196.932 399.682 191.749L385.097 207.779L370.512 223.809C366.46 198.398 357.862 260.842 371.826 239.051C384.966 218.527 400.344 222.411 423.858 216.189C438.685 212.273 416.884 185.395 432.005 187.808L418.077 168.34L415.975 174.143C421.167 206.728 380.272 218.827 356.847 242.467C354.703 244.633 410.682 265.062 412.827 262.896C437.529 237.979 446.91 202.629 441.444 168.34C441.345 167.941 441.139 167.577 440.848 167.286C440.557 166.995 440.193 166.789 439.794 166.69C412.989 162.417 384.939 166.937 361.961 181.805C340.298 195.935 324.745 217.7 318.396 242.772C314.486 258.187 314.123 274.212 316.62 289.88C316.72 290.279 316.926 290.643 317.217 290.935C317.507 291.226 317.871 291.434 318.27 291.535C352.559 296.991 387.909 287.599 412.821 262.902C414.992 260.757 437.324 189.605 435.158 191.749Z" fill="#77AA93"/>
</g>
<path d="M409.774 259.439C386.123 282.864 352.397 292.025 319.817 286.843L321.472 288.514C317.42 263.102 358.913 233.775 372.878 211.984C354.22 229.391 345.285 211.984 372.878 211.984C379.973 205.365 423.707 168.735 438.828 171.148L437.172 169.497C442.37 202.083 433.199 235.809 409.774 259.45C407.625 261.615 410.973 264.963 413.117 262.792C437.819 237.875 447.2 202.524 441.734 168.236C441.634 167.837 441.428 167.474 441.137 167.183C440.846 166.893 440.483 166.686 440.084 166.586C413.28 162.313 385.23 166.833 362.246 181.701C340.584 195.831 325.034 217.596 318.687 242.668C314.771 258.083 314.414 274.108 316.91 289.775C317.01 290.175 317.216 290.54 317.507 290.831C317.797 291.123 318.162 291.33 318.561 291.431C352.844 296.87 388.199 287.463 413.117 262.761C415.282 260.658 411.95 257.295 409.774 259.439Z" fill="#406152"/>
<path d="M409.249 259.439C385.598 282.864 351.872 292.025 319.291 286.843L320.947 288.514C316.895 263.102 321.378 236.482 335.342 214.692C348.482 194.168 369.247 179.394 392.767 173.171C407.593 169.25 423.182 168.735 438.302 171.148L436.647 169.497C441.845 202.083 432.674 235.809 409.249 259.45C407.099 261.615 410.447 264.963 412.591 262.792C437.293 237.875 446.675 202.524 441.209 168.236C441.108 167.837 440.902 167.474 440.611 167.183C440.321 166.893 439.957 166.686 439.559 166.586C412.754 162.313 384.704 166.833 361.721 181.701C340.059 195.831 324.508 217.596 318.161 242.668C314.246 258.083 313.888 274.108 316.385 289.775C316.484 290.175 316.691 290.54 316.981 290.831C317.272 291.123 317.636 291.33 318.035 291.431C352.318 296.87 387.674 287.463 412.591 262.761C414.757 260.658 411.425 257.295 409.249 259.439Z" fill="#1A1A1A"/>
<g filter="url(#filter4_d_1_536)">
<path d="M410.835 -23.6805C391.482 -4.51309 408.469 -19.4402 381.806 -23.6805L369.872 -10.5639L357.938 2.55266C354.623 -18.2404 347.587 32.8541 359.014 15.0242C369.765 -1.76936 382.348 1.40872 401.589 -3.68309C413.72 -6.88698 395.882 -28.8798 408.254 -26.9059L396.858 -42.835L395.138 -38.0873C399.387 -11.424 365.924 -1.52423 346.757 17.8195C345.002 19.5913 390.807 36.3074 392.562 34.5356C412.774 14.1469 420.451 -14.7784 415.978 -42.835C415.897 -43.1615 415.728 -43.4596 415.49 -43.6975C415.252 -43.9354 414.954 -44.1041 414.628 -44.1854C392.695 -47.6817 369.743 -43.9833 350.941 -31.8171C333.215 -20.2557 320.49 -2.44666 315.294 18.0689C312.095 30.6824 311.798 43.7946 313.841 56.6145C313.923 56.9411 314.092 57.2395 314.329 57.478C314.567 57.7164 314.865 57.8862 315.191 57.9692C343.248 62.4331 372.173 54.7481 392.558 34.5399C394.334 32.7853 412.607 -25.4351 410.835 -23.6805Z" fill="#77AA93"/>
</g>
<path d="M390.064 31.7065C370.712 50.8739 343.116 58.3698 316.457 54.1294L317.811 55.497C314.496 34.704 348.447 10.7066 359.874 -7.12339C344.607 7.1194 337.296 -7.12339 359.874 -7.12339C365.679 -12.5397 401.465 -42.5118 413.838 -40.5379L412.483 -41.8883C416.736 -15.225 409.232 12.3714 390.064 31.7151C388.305 33.4869 391.045 36.2264 392.799 34.4503C413.012 14.0615 420.688 -14.8638 416.216 -42.9204C416.134 -43.2464 415.965 -43.5441 415.727 -43.7819C415.489 -44.0196 415.191 -44.1885 414.865 -44.2707C392.933 -47.7671 369.981 -44.0686 351.175 -31.9025C333.45 -20.3409 320.725 -2.53169 315.532 17.9836C312.328 30.597 312.036 43.7093 314.078 56.5291C314.16 56.8559 314.329 57.1545 314.566 57.3931C314.804 57.6317 315.102 57.8012 315.429 57.8838C343.481 62.3348 372.411 54.6369 392.799 34.4245C394.571 32.7043 391.845 29.9519 390.064 31.7065Z" fill="#406152"/>
<path d="M389.634 31.7065C370.282 50.8739 342.686 58.3698 316.027 54.1294L317.381 55.497C314.066 34.704 317.734 12.9219 329.16 -4.90809C339.912 -21.7016 356.903 -33.7904 376.148 -38.8822C388.28 -42.0904 401.035 -42.5118 413.408 -40.5379L412.053 -41.8883C416.306 -15.225 408.802 12.3714 389.634 31.7151C387.875 33.4869 390.615 36.2264 392.369 34.4503C412.582 14.0615 420.258 -14.8638 415.786 -42.9204C415.704 -43.2464 415.535 -43.5441 415.297 -43.7819C415.059 -44.0196 414.761 -44.1885 414.435 -44.2707C392.503 -47.7671 369.551 -44.0686 350.745 -31.9025C333.02 -20.3409 320.295 -2.53169 315.102 17.9836C311.898 30.597 311.606 43.7093 313.648 56.5291C313.73 56.8559 313.899 57.1545 314.136 57.3931C314.374 57.6317 314.672 57.8012 314.999 57.8838C343.051 62.3348 371.981 54.6369 392.369 34.4245C394.141 32.7043 391.415 29.9519 389.634 31.7065Z" fill="#1A1A1A"/>
<g filter="url(#filter5_d_1_536)">
<path d="M291.938 400.555C268.062 376.448 286.656 397.609 291.938 364.395L275.599 349.529L259.26 334.664C285.161 330.533 221.514 321.769 243.725 336.003C264.644 349.396 260.685 365.07 267.028 389.037C271.019 404.15 298.414 381.929 295.956 397.341L315.798 383.145L309.884 381.002C276.67 386.295 264.338 344.612 240.243 320.735C238.036 318.55 217.213 375.607 219.42 377.793C244.818 402.971 280.849 412.533 315.798 406.962C316.205 406.861 316.576 406.651 316.872 406.354C317.169 406.058 317.379 405.687 317.48 405.28C321.835 377.959 317.228 349.369 302.073 325.948C287.672 303.867 265.488 288.015 239.932 281.544C224.22 277.558 207.886 277.188 191.917 279.733C191.51 279.835 191.138 280.045 190.841 280.341C190.544 280.637 190.333 281.008 190.23 281.415C184.669 316.364 194.242 352.395 219.415 377.788C221.6 380 294.123 402.762 291.938 400.555Z" fill="#77AA93"/>
</g>
<path d="M222.944 374.682C199.068 350.575 189.731 316.199 195.013 282.991L193.309 284.679C219.21 280.549 249.103 322.841 271.313 337.074C253.571 318.057 271.313 308.95 271.313 337.074C278.06 344.306 315.395 388.883 312.937 404.296L314.619 402.608C281.405 407.906 247.029 398.558 222.933 374.682C220.726 372.491 217.314 375.903 219.526 378.089C244.924 403.267 280.955 412.829 315.904 407.258C316.31 407.156 316.681 406.945 316.977 406.649C317.274 406.353 317.484 405.982 317.586 405.576C321.942 378.255 317.335 349.665 302.18 326.238C287.778 304.159 265.593 288.309 240.038 281.84C224.326 277.849 207.993 277.484 192.023 280.029C191.616 280.13 191.244 280.34 190.947 280.637C190.65 280.933 190.439 281.304 190.336 281.711C184.791 316.655 194.38 352.691 219.558 378.089C221.701 380.296 225.13 376.9 222.944 374.682Z" fill="#406152"/>
<path d="M222.944 374.146C199.068 350.04 189.731 315.664 195.013 282.456L193.309 284.143C219.21 280.013 246.343 284.582 268.554 298.816C289.473 312.208 304.531 333.374 310.874 357.347C314.87 372.459 315.395 388.348 312.937 403.76L314.619 402.072C281.405 407.37 247.029 398.022 222.933 374.146C220.726 371.955 217.314 375.368 219.526 377.553C244.924 402.731 280.955 412.294 315.904 406.722C316.31 406.62 316.681 406.409 316.977 406.113C317.274 405.817 317.484 405.446 317.586 405.04C321.942 377.719 317.335 349.129 302.18 325.703C287.778 303.623 265.593 287.773 240.038 281.304C224.326 277.313 207.993 276.949 192.023 279.493C191.616 279.595 191.244 279.805 190.947 280.101C190.65 280.397 190.439 280.769 190.336 281.175C184.791 316.119 194.38 352.156 219.558 377.553C221.701 379.76 225.13 376.364 222.944 374.146Z" fill="#1A1A1A"/>
<g filter="url(#filter6_d_1_536)">
<path d="M295.822 159.497C276.427 139.916 291.531 157.104 295.822 130.125L282.549 118.049L269.277 105.974C290.317 102.619 238.617 95.4999 256.658 107.062C273.651 117.941 270.435 130.673 275.587 150.142C278.829 162.417 301.083 144.367 299.085 156.887L315.203 145.355L310.399 143.614C283.42 147.914 273.403 114.055 253.83 94.66C252.037 92.8846 235.122 139.233 236.915 141.008C257.546 161.46 286.814 169.227 315.203 164.702C315.533 164.62 315.835 164.449 316.076 164.208C316.317 163.967 316.487 163.666 316.57 163.335C320.107 141.143 316.365 117.919 304.055 98.894C292.356 80.9578 274.336 68.0812 253.577 62.8244C240.814 59.5869 227.546 59.2866 214.575 61.3536C214.244 61.4365 213.942 61.6073 213.701 61.8479C213.46 62.0884 213.288 62.3898 213.204 62.72C208.687 91.1092 216.463 120.377 236.911 141.004C238.686 142.801 297.597 161.29 295.822 159.497Z" fill="#77AA93"/>
</g>
<path d="M239.778 138.481C220.383 118.899 212.799 90.9754 217.089 64.0005L215.705 65.3712C236.745 62.0162 261.027 96.3702 279.068 107.932C264.656 92.4843 279.068 85.0868 279.068 107.932C284.549 113.807 314.876 150.017 312.879 162.536L314.245 161.165C287.266 165.469 259.342 157.875 239.769 138.481C237.976 136.701 235.204 139.473 237.002 141.248C257.632 161.7 286.9 169.468 315.29 164.942C315.619 164.859 315.921 164.688 316.161 164.448C316.402 164.207 316.573 163.906 316.656 163.576C320.194 141.383 316.451 118.159 304.141 99.1302C292.442 81.195 274.422 68.3198 253.664 63.0649C240.901 59.823 227.633 59.5271 214.661 61.5941C214.33 61.6766 214.028 61.8472 213.787 62.0878C213.545 62.3284 213.374 62.63 213.29 62.9605C208.786 91.3453 216.576 120.618 237.028 141.248C238.768 143.041 241.553 140.282 239.778 138.481Z" fill="#406152"/>
<path d="M239.778 138.046C220.383 118.464 212.799 90.5403 217.089 63.5653L215.705 64.936C236.745 61.581 258.785 65.2928 276.827 76.8548C293.819 87.7335 306.051 104.926 311.203 124.399C314.45 136.675 314.876 149.581 312.879 162.101L314.245 160.73C287.266 165.034 259.342 157.44 239.769 138.046C237.976 136.266 235.204 139.038 237.002 140.813C257.632 161.265 286.9 169.033 315.29 164.507C315.619 164.424 315.921 164.253 316.161 164.012C316.402 163.772 316.573 163.471 316.656 163.141C320.194 140.948 316.451 117.724 304.141 98.695C292.442 80.7598 274.422 67.8846 253.664 62.6297C240.901 59.3878 227.633 59.0919 214.661 61.1589C214.33 61.2414 214.028 61.412 213.787 61.6526C213.545 61.8933 213.374 62.1948 213.29 62.5253C208.786 90.9101 216.576 120.183 237.028 140.813C238.768 142.606 241.553 139.847 239.778 138.046Z" fill="#1A1A1A"/>
<path fill-rule="evenodd" clip-rule="evenodd" d="M473.434 548.428C473.44 548.321 473.445 548.214 473.449 548.106C473.562 544.469 478.924 544.279 479.385 547.567V548.106C479.385 551.843 473.758 551.942 473.434 548.428ZM457.778 562.693C466.196 562.614 472.944 557.045 473.434 548.428C473.424 548.324 473.419 548.216 473.419 548.106V35.2767C473.419 34.3489 473.449 33.3834 473.479 32.3996C473.574 29.3135 473.674 26.048 472.882 23.2054C469.892 12.3248 459.973 12.3993 451.066 12.4662C450.376 12.4714 449.692 12.4765 449.018 12.4765H198.644C196.069 12.4765 193.494 12.4699 190.918 12.4633C185.768 12.45 180.617 12.4368 175.466 12.4765C165.533 12.5561 159.656 19.775 159.656 29.2112V499.145C159.656 504.385 159.647 509.625 159.639 514.865C159.621 525.346 159.603 535.826 159.656 546.306C159.706 555.971 166.06 562.633 175.864 562.693C181.191 562.726 186.54 562.715 191.873 562.704C194.534 562.698 197.19 562.693 199.837 562.693H449.824H457.778ZM479.385 31.4684V547.567C479.411 547.749 479.421 547.942 479.415 548.146C479.306 553.569 477.1 558.74 473.26 562.572C469.421 566.404 464.246 568.6 458.822 568.699C457.774 568.732 456.717 568.721 455.663 568.71C455.138 568.704 454.612 568.699 454.089 568.699H176.908C164.459 568.699 154.048 561.152 153.69 547.867C153.617 545.168 153.642 542.456 153.666 539.748C153.678 538.396 153.69 537.045 153.69 535.697V29.5791C153.69 17.3488 161.207 6.9182 174.283 6.51052C187.545 6.09939 200.861 6.23662 214.158 6.37366C220.8 6.44211 227.438 6.51052 234.063 6.51052H446.055C447.424 6.51052 448.856 6.46795 450.322 6.42439C455.903 6.25848 461.966 6.07824 466.857 8.18101C476.79 12.4567 479.385 21.7835 479.385 31.4684Z" fill="black"/>
<path d="M473.434 548.428C473.758 551.942 479.385 551.843 479.385 548.106V547.567C478.924 544.279 473.562 544.469 473.449 548.106C473.445 548.214 473.44 548.321 473.434 548.428Z" fill="black"/>
<path d="M512.159 -45.9109H123.751C119.097 -45.8978 114.637 -44.0439 111.345 -40.7539C108.053 -37.4638 106.197 -33.005 106.181 -28.3509V663.708C106.194 668.364 108.049 672.825 111.341 676.117C114.634 679.409 119.095 681.265 123.751 681.278H512.159C516.815 681.265 521.276 679.409 524.568 676.117C527.86 672.825 529.716 668.364 529.729 663.708V-28.3509C529.713 -33.005 527.856 -37.4638 524.565 -40.7539C521.273 -44.0439 516.813 -45.8978 512.159 -45.9109ZM476.432 548.106C476.419 552.762 474.564 557.223 471.272 560.515C467.979 563.808 463.518 565.663 458.862 565.676H174.273C169.617 565.663 165.156 563.808 161.864 560.515C158.572 557.223 156.716 552.762 156.703 548.106V27.0734C156.716 22.4167 158.571 17.9543 161.863 14.6605C165.155 11.3668 169.616 9.50927 174.273 9.49353H458.862C463.519 9.50927 467.98 11.3668 471.272 14.6605C474.564 17.9543 476.419 22.4167 476.432 27.0734V548.106Z" fill="#B49D9D"/>
<path d="M512.159 -48.8939H149.464C141.022 -48.8939 132.561 -49.1326 124.089 -48.8939C112.535 -48.5757 103.566 -39.9449 103.208 -28.3112C103.208 -27.0782 103.208 -25.8353 103.208 -24.6023V610.908C103.208 628.399 102.74 645.959 103.208 663.449C103.233 668.925 105.397 674.174 109.239 678.075C113.081 681.976 118.296 684.221 123.771 684.33C125.759 684.4 127.748 684.33 129.737 684.33H504.154C506.73 684.33 509.315 684.41 511.88 684.33C517.364 684.305 522.62 682.134 526.523 678.281C530.426 674.428 532.665 669.201 532.761 663.718C533.298 647.44 532.761 631.064 532.761 614.786V-23.2699C532.761 -24.8509 532.761 -26.4418 532.761 -28.0228C532.734 -33.4959 530.57 -38.7418 526.731 -42.6425C522.891 -46.5431 517.68 -48.7899 512.208 -48.9039C508.37 -49.053 508.37 -43.087 512.208 -42.9379C521.157 -42.5898 526.726 -35.6195 526.795 -27.0881C526.795 -24.8608 526.795 -22.6434 526.795 -20.4161V650.155C526.795 654.649 526.994 659.183 526.795 663.678C526.408 672.627 519.537 678.265 510.886 678.334C507.475 678.334 504.065 678.334 500.654 678.334H128.772C126.361 678.454 123.944 678.384 121.543 678.126C113.589 676.853 109.303 669.932 109.253 662.385C109.253 655.952 109.253 649.528 109.253 643.095V-24.6023C109.253 -25.8353 109.253 -27.0782 109.253 -28.3112C109.651 -37.3994 116.641 -42.8683 125.302 -42.9279C154.804 -43.1168 184.316 -42.9279 213.798 -42.9279H512.159C515.997 -42.9279 515.997 -48.8939 512.159 -48.8939Z" fill="black"/>
<path d="M347.874 615.194C347.874 615.191 347.874 615.187 347.875 615.184C347.874 615.181 347.874 615.177 347.874 615.174C347.803 608.183 345.317 601.432 340.837 596.064C336.357 590.696 330.16 587.043 323.294 585.722C296.397 580.83 277.316 613.504 295.045 634.444C298.994 639.145 304.293 642.517 310.224 644.104C316.155 645.69 322.43 645.413 328.198 643.312C333.966 641.21 338.948 637.384 342.468 632.354C345.988 627.324 347.876 621.333 347.874 615.194Z" fill="#947D7D"/>
<path fill-rule="evenodd" clip-rule="evenodd" d="M347.353 594.597C351.578 600.634 353.843 607.825 353.84 615.194C351.351 617.635 349.733 615.763 348.818 614.704C348.208 613.998 347.91 613.654 347.875 615.184L347.874 615.174C347.803 608.183 345.317 601.432 340.837 596.064C336.357 590.696 330.16 587.043 323.294 585.722C296.397 580.83 277.316 613.504 295.045 634.444C298.994 639.145 304.293 642.517 310.224 644.104C316.155 645.69 322.43 645.413 328.198 643.312C333.966 641.21 338.948 637.384 342.468 632.354C345.988 627.324 347.876 621.333 347.874 615.194L347.875 615.184C347.959 618.792 353.198 619.023 353.787 615.87C353.808 615.757 353.824 615.64 353.832 615.518C353.34 632.537 341.293 647.559 324.219 650.523C316.964 651.811 309.488 650.835 302.806 647.727C296.125 644.619 290.562 639.53 286.872 633.152C283.183 626.773 281.546 619.413 282.184 612.072C282.822 604.731 285.704 597.764 290.438 592.117C295.173 586.47 301.53 582.418 308.648 580.509C315.765 578.601 323.298 578.929 330.222 581.449C337.146 583.969 343.127 588.56 347.353 594.597ZM353.832 615.518C353.84 615.413 353.843 615.305 353.84 615.194C353.839 615.28 353.837 615.366 353.834 615.451C353.834 615.474 353.833 615.496 353.832 615.518Z" fill="black"/>
<path d="M353.84 615.194C351.351 617.635 349.733 615.763 348.818 614.704C348.208 613.998 347.91 613.654 347.875 615.184C347.959 618.792 353.198 619.023 353.787 615.87C353.808 615.757 353.824 615.64 353.832 615.518L353.834 615.451C353.837 615.366 353.839 615.28 353.84 615.194Z" fill="black"/>
</g>
</g>
</g>
<defs>
<filter id="filter0_d_1_536" x="99" y="-49" width="438" height="741.366" filterUnits="userSpaceOnUse" color-interpolation-filters="sRGB">
<feFlood flood-opacity="0" result="BackgroundImageFix"/>
<feColorMatrix in="SourceAlpha" type="matrix" values="0 0 0 0 0 0 0 0 0 0 0 0 0 0 0 0 0 0 127 0" result="hardAlpha"/>
<feOffset dy="4"/>
<feGaussianBlur stdDeviation="2"/>
<feComposite in2="hardAlpha" operator="out"/>
<feColorMatrix type="matrix" values="0 0 0 0 0 0 0 0 0 0 0 0 0 0 0 0 0 0 0.25 0"/>
<feBlend mode="normal" in2="BackgroundImageFix" result="effect1_dropShadow_1_536"/>
<feBlend mode="normal" in="SourceGraphic" in2="effect1_dropShadow_1_536" result="shape"/>
</filter>
<filter id="filter1_d_1_536" x="128.383" y="467.681" width="193.393" height="193.438" filterUnits="userSpaceOnUse" color-interpolation-filters="sRGB">
<feFlood flood-opacity="0" result="BackgroundImageFix"/>
<feColorMatrix in="SourceAlpha" type="matrix" values="0 0 0 0 0 0 0 0 0 0 0 0 0 0 0 0 0 0 127 0" result="hardAlpha"/>
<feOffset dy="4"/>
<feGaussianBlur stdDeviation="2"/>
<feComposite in2="hardAlpha" operator="out"/>
<feColorMatrix type="matrix" values="0 0 0 0 0 0 0 0 0 0 0 0 0 0 0 0 0 0 0.25 0"/>
<feBlend mode="normal" in2="BackgroundImageFix" result="effect1_dropShadow_1_536"/>
<feBlend mode="normal" in="SourceGraphic" in2="effect1_dropShadow_1_536" result="shape"/>
</filter>
<filter id="filter2_d_1_536" x="315.115" y="354.952" width="177.514" height="177.473" filterUnits="userSpaceOnUse" color-interpolation-filters="sRGB">
<feFlood flood-opacity="0" result="BackgroundImageFix"/>
<feColorMatrix in="SourceAlpha" type="matrix" values="0 0 0 0 0 0 0 0 0 0 0 0 0 0 0 0 0 0 127 0" result="hardAlpha"/>
<feOffset dy="4"/>
<feGaussianBlur stdDeviation="2"/>
<feComposite in2="hardAlpha" operator="out"/>
<feColorMatrix type="matrix" values="0 0 0 0 0 0 0 0 0 0 0 0 0 0 0 0 0 0 0.25 0"/>
<feBlend mode="normal" in2="BackgroundImageFix" result="effect1_dropShadow_1_536"/>
<feBlend mode="normal" in="SourceGraphic" in2="effect1_dropShadow_1_536" result="shape"/>
</filter>
<filter id="filter3_d_1_536" x="311.038" y="165.154" width="135.912" height="135.881" filterUnits="userSpaceOnUse" color-interpolation-filters="sRGB">
<feFlood flood-opacity="0" result="BackgroundImageFix"/>
<feColorMatrix in="SourceAlpha" type="matrix" values="0 0 0 0 0 0 0 0 0 0 0 0 0 0 0 0 0 0 127 0" result="hardAlpha"/>
<feOffset dy="4"/>
<feGaussianBlur stdDeviation="2"/>
<feComposite in2="hardAlpha" operator="out"/>
<feColorMatrix type="matrix" values="0 0 0 0 0 0 0 0 0 0 0 0 0 0 0 0 0 0 0.25 0"/>
<feBlend mode="normal" in2="BackgroundImageFix" result="effect1_dropShadow_1_536"/>
<feBlend mode="normal" in="SourceGraphic" in2="effect1_dropShadow_1_536" result="shape"/>
</filter>
<filter id="filter4_d_1_536" x="308.547" y="-45.442" width="112.664" height="112.639" filterUnits="userSpaceOnUse" color-interpolation-filters="sRGB">
<feFlood flood-opacity="0" result="BackgroundImageFix"/>
<feColorMatrix in="SourceAlpha" type="matrix" values="0 0 0 0 0 0 0 0 0 0 0 0 0 0 0 0 0 0 127 0" result="hardAlpha"/>
<feOffset dy="4"/>
<feGaussianBlur stdDeviation="2"/>
<feComposite in2="hardAlpha" operator="out"/>
<feColorMatrix type="matrix" values="0 0 0 0 0 0 0 0 0 0 0 0 0 0 0 0 0 0 0.25 0"/>
<feBlend mode="normal" in2="BackgroundImageFix" result="effect1_dropShadow_1_536"/>
<feBlend mode="normal" in="SourceGraphic" in2="effect1_dropShadow_1_536" result="shape"/>
</filter>
<filter id="filter5_d_1_536" x="184.7" y="278.121" width="138.345" height="138.377" filterUnits="userSpaceOnUse" color-interpolation-filters="sRGB">
<feFlood flood-opacity="0" result="BackgroundImageFix"/>
<feColorMatrix in="SourceAlpha" type="matrix" values="0 0 0 0 0 0 0 0 0 0 0 0 0 0 0 0 0 0 127 0" result="hardAlpha"/>
<feOffset dy="4"/>
<feGaussianBlur stdDeviation="2"/>
<feComposite in2="hardAlpha" operator="out"/>
<feColorMatrix type="matrix" values="0 0 0 0 0 0 0 0 0 0 0 0 0 0 0 0 0 0 0.25 0"/>
<feBlend mode="normal" in2="BackgroundImageFix" result="effect1_dropShadow_1_536"/>
<feBlend mode="normal" in="SourceGraphic" in2="effect1_dropShadow_1_536" result="shape"/>
</filter>
<filter id="filter6_d_1_536" x="207.961" y="60.0441" width="113.88" height="113.905" filterUnits="userSpaceOnUse" color-interpolation-filters="sRGB">
<feFlood flood-opacity="0" result="BackgroundImageFix"/>
<feColorMatrix in="SourceAlpha" type="matrix" values="0 0 0 0 0 0 0 0 0 0 0 0 0 0 0 0 0 0 127 0" result="hardAlpha"/>
<feOffset dy="4"/>
<feGaussianBlur stdDeviation="2"/>
<feComposite in2="hardAlpha" operator="out"/>
<feColorMatrix type="matrix" values="0 0 0 0 0 0 0 0 0 0 0 0 0 0 0 0 0 0 0.25 0"/>
<feBlend mode="normal" in2="BackgroundImageFix" result="effect1_dropShadow_1_536"/>
<feBlend mode="normal" in="SourceGraphic" in2="effect1_dropShadow_1_536" result="shape"/>
</filter>
<clipPath id="clip0_1_536">
<rect width="635" height="635" fill="white" transform="translate(0 0.5)"/>
</clipPath>
</defs>
</svg>
