<svg width="635" height="636" viewBox="0 0 635 636" fill="none" xmlns="http://www.w3.org/2000/svg">
<g clip-path="url(#clip0_1_45)">
<path d="M639.3 1.5H0V640.8H639.3V1.5Z" fill="white"/>
<g filter="url(#filter0_d_1_45)">
<path d="M635 216.35L448.44 283.29C448.44 283.29 447.44 324.46 444.44 333.9C441.44 343.34 439 375.16 432 385.57C425 395.98 386.68 426.22 386.68 426.22C386.68 426.22 376.51 432.67 365.88 438.22C355.25 443.77 346.1 430.61 343.27 425.22C338.64 416.36 339.94 403.51 342.36 399.75C346.7 392.96 366.53 376.93 369.53 369.75C372.53 362.57 363.47 332.29 357.53 325.24C354.19 321.24 341.67 322.15 328.53 325.14L286.5 159.5L635 40.3V216.35Z" fill="#F4CA97"/>
</g>
<g filter="url(#filter1_d_1_45)">
<path d="M329.69 329.5C335.041 328.196 340.501 327.39 346 327.09C348.57 327.01 352.43 326.64 354.45 328.49C356.02 329.94 357.06 333.08 357.88 334.97C359.286 338.286 360.514 341.674 361.56 345.12C363.45 351.18 365.28 357.61 365.62 363.98C365.89 368.98 363.19 371.57 359.79 375.18C354.79 380.49 349.37 385.38 344.31 390.62C340.31 394.73 337.31 398.51 336.31 404.29C333.97 418.14 339.47 434.59 352.31 441.73C360.51 446.28 367.31 442.73 374.75 438.56C379.87 435.69 385.26 432.89 389.95 429.36C396.83 424.2 403.39 418.54 409.95 412.98C418.61 405.64 428.33 398.18 435.11 388.98C442.65 378.73 443.7 363.34 445.71 351.19C447.72 339.04 450.54 327.42 451.46 315.13C452.25 304.54 452.72 293.91 452.98 283.3L449.68 287.63L512.48 265.11L613.16 228.98L636.24 220.7C641.65 218.76 639.31 210.06 633.84 212.03L571 234.5L470.33 270.67L447.25 278.95C446.314 279.236 445.491 279.809 444.897 280.588C444.303 281.366 443.968 282.311 443.94 283.29C443.72 292.043 443.34 300.79 442.8 309.53C442.44 315.29 442.08 321.09 441.29 326.81C440.72 330.92 439.46 334.86 438.69 338.93C436.13 352.34 435.37 366.93 430.03 379.67C426.3 388.53 416.53 395.38 409.52 401.49C401.52 408.49 393.35 415.18 385.07 421.79C384.56 422.2 384.07 422.64 383.52 423.02C385.38 421.71 383.61 422.87 383.15 423.12C381.6 423.98 380.15 424.99 378.6 425.9C374.747 428.2 370.86 430.423 366.94 432.57C362.94 434.74 359.88 436.05 355.82 433.36C345.82 426.72 339.82 408.85 348.53 399.21C353.01 394.21 358.03 389.74 362.76 384.99C366.55 381.18 371.16 376.99 373.42 371.99C375.79 366.77 374.37 360.17 373.3 354.8C371.805 347.312 369.585 339.988 366.67 332.93C364.58 327.86 362.24 321.65 356.76 319.47C347.86 315.93 336.22 318.81 327.3 320.77C321.65 322.01 324.04 330.69 329.69 329.45V329.5Z" fill="black"/>
</g>
<g filter="url(#filter2_d_1_45)">
<path d="M377.641 491.12C394.573 485.398 401.628 461.02 393.4 436.67C385.172 412.319 364.776 397.217 347.845 402.938C330.913 408.659 323.858 433.037 332.086 457.388C340.314 481.738 360.71 496.841 377.641 491.12Z" fill="#554E4E"/>
</g>
<g filter="url(#filter3_d_1_45)">
<path d="M378.46 493.98C395.69 487.66 401.2 467.87 399.56 451.1C397.74 432.5 388 412.6 371.21 403.17C357.13 395.27 340.41 398.51 331.83 412.64C321.63 429.44 324.98 452.33 333.83 468.9C342.17 484.49 359.55 499.9 378.45 493.98C382.12 492.84 380.55 487.05 376.85 488.2C363 492.5 349.94 482.5 342.49 471.59C333.17 457.95 328.67 439.38 333.63 423.29C337.81 409.78 350.03 401.1 364.02 406.39C378.75 411.96 388.24 427.71 391.96 442.3C395.9 457.75 394.58 481.7 376.86 488.2C373.27 489.5 374.82 495.32 378.46 493.98Z" fill="black"/>
</g>
<g filter="url(#filter4_d_1_45)">
<path d="M353.82 465.5L347.89 432.5L354.52 428.39L381.52 448.39L373.59 453.31L357.59 440.88L361.64 460.69L353.82 465.5Z" fill="white"/>
</g>
<g filter="url(#filter5_i_1_45)">
<path d="M635 40.3L228.5 169.3C228.5 169.3 101 229.06 62.82 255.98C57.32 259.86 43.42 267.5 43 274.24C42.4 284.57 59.95 295.84 80.45 291.89C100.95 287.94 183.26 238.1 183.26 238.1C183.26 238.1 73 308.12 43.35 339.5C40.58 342.43 34.43 349.05 34.65 353.08C35.17 362.51 50.65 372.91 68.94 368.99C87.23 365.07 196.4 295.55 196.4 295.55C196.4 295.55 109.2 368.32 80.11 392.55C74.61 397.13 59.49 403.83 58.11 410.85C55.3 424.9 75.27 443.63 113.41 425.93C151.55 408.23 247 321.01 247 321.01C247 321.01 226.52 374.62 224.57 390.31C222.62 406 232.7 418.78 240.38 422.67C248.06 426.56 315.38 460.19 334.98 458.93C354.58 457.67 333.9 424.51 329.34 420.12C324.78 415.73 278.19 387.12 278.19 387.12C278.19 387.12 284.53 343.17 300.48 334.82C305.82 332.02 405.17 284.2 413 282" fill="#F4CA97"/>
</g>
<g filter="url(#filter6_d_1_45)">
<path d="M633.8 35.9599L604.8 45.1499L532.07 68.2399L436.75 98.4999L340.11 129.16L263.67 153.4C251.75 157.18 239.61 160.55 227.84 164.76C223.5 166.32 219.35 168.63 215.19 170.62C201.39 177.2 187.627 183.867 173.9 190.62C139.39 207.62 104.5 224.62 71.72 244.81C65.21 248.81 58.82 253.1 52.52 257.43C44.7 262.81 35.16 270.27 39.9 280.83C48.1 299.05 74.58 299.71 90.53 293.37C106.48 287.03 121.53 278.62 136.53 270.37C150.71 262.53 164.76 254.447 178.68 246.12C180.973 244.787 183.257 243.417 185.53 242.01L181 234.21C164.36 244.78 147.92 255.68 131.59 266.73C104.72 284.92 77.59 303.37 52.94 324.47C48.4812 328.211 44.2189 332.179 40.17 336.36C34.66 342.17 27.94 349.36 31.17 357.87C37.05 373.32 59.74 377.48 73.62 372.27C83.62 368.53 92.97 363.07 102.22 357.89C115.22 350.6 128.08 342.98 140.86 335.26C160.26 323.553 179.523 311.613 198.65 299.44L193.2 292.37L141 335.91L100 370.1L83.2 384.1C77.6354 388.54 71.8371 392.679 65.83 396.5C59.44 400.77 53.02 405.77 53.34 414.17C53.58 420.45 56.99 426.17 61.76 430.17C77.23 442.94 100.27 437.17 116.55 429.37C128.94 423.37 140.28 415.08 151.29 406.92C165.45 396.43 179.19 385.37 192.75 374.11C212.243 357.897 231.377 341.257 250.15 324.19L242.63 319.81C234.92 340.02 227 360.5 221.75 381.5C218.03 396.3 220.57 411.96 232.48 422.5C238.88 428.18 248 431.44 255.64 435.06C268.39 441.12 281.28 446.93 294.39 452.19C305.63 456.7 317.39 461.49 329.5 463.05C334.37 463.68 339.91 463.63 343.78 460.14C347.65 456.65 348.2 451.14 347.36 446.14C345.71 436.27 339.82 424.37 332.74 417.14C329.96 414.31 326.19 412.14 322.91 409.99C317.2 406.2 311.42 402.52 305.63 398.86C297.257 393.567 288.857 388.327 280.43 383.14L282.5 388.22C284.063 376.845 286.974 365.697 291.17 355.01C293.59 349.01 296.85 341.88 302.72 338.62C310.87 334.08 321.03 331.82 329.96 329.29C335.52 327.71 333.15 319.02 327.56 320.61C317.84 323.37 307.1 325.97 298.18 330.84C291.43 334.53 287.23 341.84 284.18 348.59C279.046 360.474 275.557 373.003 273.81 385.83C273.583 386.787 273.66 387.791 274.031 388.702C274.402 389.612 275.049 390.384 275.88 390.91C291.23 400.36 306.68 409.75 321.56 419.91C327.4 423.91 331.02 429.4 334.56 436.55C336.56 440.66 339.33 446.17 338.75 450.91C338.28 454.77 334.68 454.6 331.43 454.29C321.08 453.29 310.67 448.93 301.07 445.21C288.88 440.48 276.94 435.15 265.07 429.62C257.7 426.17 250.26 422.76 243.07 418.95C230.67 412.4 227.07 397.71 230.07 385.06C235.22 363.64 243.4 342.71 251.25 322.15C252.96 317.66 246.76 314.99 243.73 317.77C229.38 330.87 214.73 343.65 199.92 356.24C175.83 376.74 151.34 397.59 124.5 414.45C110.9 422.99 93.8 431.54 77.34 427.8C71.64 426.51 65.56 423.38 63.15 417.7C60.28 410.91 65.6 407.33 70.85 403.88C76.9146 400.09 82.7575 395.957 88.35 391.5L104 378.5L142 346.85L199.65 298.76C203.58 295.48 198.48 288.96 194.2 291.69C179.653 300.957 165.013 310.083 150.28 319.07C127.35 333.12 104.34 347.47 80.28 359.51C69.76 364.77 58.6 368.37 46.93 361.9C44.17 360.37 40.6 357.84 39.61 354.61C38.43 350.76 42.87 346.81 45.25 344.2C49.059 340.113 53.0954 336.243 57.34 332.61C80.5 312.43 106.18 294.96 131.54 277.69C149.39 265.54 167.39 253.58 185.62 242C190.49 238.91 186.06 231.21 181.08 234.23C157.52 248.5 133.6 262.35 109.08 274.89C95.37 281.89 80.24 290.89 64.24 287.39C59 286.23 53.51 284 50 279.94C46.71 276.18 47.31 273.46 50.8 270.14C56.8 264.37 64.74 259.94 71.8 255.42C102.71 235.59 136.17 219.42 169.02 203.09C183.773 195.757 198.577 188.54 213.43 181.44C217.817 179.333 222.213 177.237 226.62 175.15C227.75 174.62 228.9 174.15 230.02 173.55C231.14 172.95 231.02 173.22 229.81 173.55C239.623 170.423 249.443 167.307 259.27 164.2L330.27 141.68L423 112.3L517.36 82.3599L594.58 57.8599C607.86 53.6499 621.2 49.5699 634.43 45.2199L636.25 44.6399C641.75 42.8999 639.4 34.1999 633.85 35.9599H633.8Z" fill="black"/>
</g>
<g filter="url(#filter7_d_1_45)">
<path d="M325.26 321.5L328.26 320.5L335.53 319.04L339.26 320.5L338.26 322.5L331.26 323.5L325.26 321.5Z" fill="black"/>
</g>
</g>
<defs>
<filter id="filter0_d_1_45" x="282.5" y="40.3" width="356.5" height="407.259" filterUnits="userSpaceOnUse" color-interpolation-filters="sRGB">
<feFlood flood-opacity="0" result="BackgroundImageFix"/>
<feColorMatrix in="SourceAlpha" type="matrix" values="0 0 0 0 0 0 0 0 0 0 0 0 0 0 0 0 0 0 127 0" result="hardAlpha"/>
<feOffset dy="4"/>
<feGaussianBlur stdDeviation="2"/>
<feComposite in2="hardAlpha" operator="out"/>
<feColorMatrix type="matrix" values="0 0 0 0 0 0 0 0 0 0 0 0 0 0 0 0 0 0 0.25 0"/>
<feBlend mode="normal" in2="BackgroundImageFix" result="effect1_dropShadow_1_45"/>
<feBlend mode="normal" in="SourceGraphic" in2="effect1_dropShadow_1_45" result="shape"/>
</filter>
<filter id="filter1_d_1_45" x="320.073" y="211.742" width="323.235" height="240.115" filterUnits="userSpaceOnUse" color-interpolation-filters="sRGB">
<feFlood flood-opacity="0" result="BackgroundImageFix"/>
<feColorMatrix in="SourceAlpha" type="matrix" values="0 0 0 0 0 0 0 0 0 0 0 0 0 0 0 0 0 0 127 0" result="hardAlpha"/>
<feOffset dy="4"/>
<feGaussianBlur stdDeviation="2"/>
<feComposite in2="hardAlpha" operator="out"/>
<feColorMatrix type="matrix" values="0 0 0 0 0 0 0 0 0 0 0 0 0 0 0 0 0 0 0.25 0"/>
<feBlend mode="normal" in2="BackgroundImageFix" result="effect1_dropShadow_1_45"/>
<feBlend mode="normal" in="SourceGraphic" in2="effect1_dropShadow_1_45" result="shape"/>
</filter>
<filter id="filter2_d_1_45" x="324.65" y="401.727" width="76.1865" height="98.6034" filterUnits="userSpaceOnUse" color-interpolation-filters="sRGB">
<feFlood flood-opacity="0" result="BackgroundImageFix"/>
<feColorMatrix in="SourceAlpha" type="matrix" values="0 0 0 0 0 0 0 0 0 0 0 0 0 0 0 0 0 0 127 0" result="hardAlpha"/>
<feOffset dy="4"/>
<feGaussianBlur stdDeviation="2"/>
<feComposite in2="hardAlpha" operator="out"/>
<feColorMatrix type="matrix" values="0 0 0 0 0 0 0 0 0 0 0 0 0 0 0 0 0 0 0.25 0"/>
<feBlend mode="normal" in2="BackgroundImageFix" result="effect1_dropShadow_1_45"/>
<feBlend mode="normal" in="SourceGraphic" in2="effect1_dropShadow_1_45" result="shape"/>
</filter>
<filter id="filter3_d_1_45" x="321.548" y="398.957" width="82.2875" height="104.319" filterUnits="userSpaceOnUse" color-interpolation-filters="sRGB">
<feFlood flood-opacity="0" result="BackgroundImageFix"/>
<feColorMatrix in="SourceAlpha" type="matrix" values="0 0 0 0 0 0 0 0 0 0 0 0 0 0 0 0 0 0 127 0" result="hardAlpha"/>
<feOffset dy="4"/>
<feGaussianBlur stdDeviation="2"/>
<feComposite in2="hardAlpha" operator="out"/>
<feColorMatrix type="matrix" values="0 0 0 0 0 0 0 0 0 0 0 0 0 0 0 0 0 0 0.25 0"/>
<feBlend mode="normal" in2="BackgroundImageFix" result="effect1_dropShadow_1_45"/>
<feBlend mode="normal" in="SourceGraphic" in2="effect1_dropShadow_1_45" result="shape"/>
</filter>
<filter id="filter4_d_1_45" x="343.89" y="428.39" width="41.63" height="45.11" filterUnits="userSpaceOnUse" color-interpolation-filters="sRGB">
<feFlood flood-opacity="0" result="BackgroundImageFix"/>
<feColorMatrix in="SourceAlpha" type="matrix" values="0 0 0 0 0 0 0 0 0 0 0 0 0 0 0 0 0 0 127 0" result="hardAlpha"/>
<feOffset dy="4"/>
<feGaussianBlur stdDeviation="2"/>
<feComposite in2="hardAlpha" operator="out"/>
<feColorMatrix type="matrix" values="0 0 0 0 0 0 0 0 0 0 0 0 0 0 0 0 0 0 0.25 0"/>
<feBlend mode="normal" in2="BackgroundImageFix" result="effect1_dropShadow_1_45"/>
<feBlend mode="normal" in="SourceGraphic" in2="effect1_dropShadow_1_45" result="shape"/>
</filter>
<filter id="filter5_i_1_45" x="34.6442" y="40.3" width="600.356" height="422.665" filterUnits="userSpaceOnUse" color-interpolation-filters="sRGB">
<feFlood flood-opacity="0" result="BackgroundImageFix"/>
<feBlend mode="normal" in="SourceGraphic" in2="BackgroundImageFix" result="shape"/>
<feColorMatrix in="SourceAlpha" type="matrix" values="0 0 0 0 0 0 0 0 0 0 0 0 0 0 0 0 0 0 127 0" result="hardAlpha"/>
<feOffset dy="4"/>
<feGaussianBlur stdDeviation="2"/>
<feComposite in2="hardAlpha" operator="arithmetic" k2="-1" k3="1"/>
<feColorMatrix type="matrix" values="0 0 0 0 0 0 0 0 0 0 0 0 0 0 0 0 0 0 0.25 0"/>
<feBlend mode="normal" in2="shape" result="effect1_innerShadow_1_45"/>
</filter>
<filter id="filter6_d_1_45" x="26.3278" y="35.7262" width="617.052" height="435.633" filterUnits="userSpaceOnUse" color-interpolation-filters="sRGB">
<feFlood flood-opacity="0" result="BackgroundImageFix"/>
<feColorMatrix in="SourceAlpha" type="matrix" values="0 0 0 0 0 0 0 0 0 0 0 0 0 0 0 0 0 0 127 0" result="hardAlpha"/>
<feOffset dy="4"/>
<feGaussianBlur stdDeviation="2"/>
<feComposite in2="hardAlpha" operator="out"/>
<feColorMatrix type="matrix" values="0 0 0 0 0 0 0 0 0 0 0 0 0 0 0 0 0 0 0.25 0"/>
<feBlend mode="normal" in2="BackgroundImageFix" result="effect1_dropShadow_1_45"/>
<feBlend mode="normal" in="SourceGraphic" in2="effect1_dropShadow_1_45" result="shape"/>
</filter>
<filter id="filter7_d_1_45" x="321.26" y="319.04" width="22" height="12.46" filterUnits="userSpaceOnUse" color-interpolation-filters="sRGB">
<feFlood flood-opacity="0" result="BackgroundImageFix"/>
<feColorMatrix in="SourceAlpha" type="matrix" values="0 0 0 0 0 0 0 0 0 0 0 0 0 0 0 0 0 0 127 0" result="hardAlpha"/>
<feOffset dy="4"/>
<feGaussianBlur stdDeviation="2"/>
<feComposite in2="hardAlpha" operator="out"/>
<feColorMatrix type="matrix" values="0 0 0 0 0 0 0 0 0 0 0 0 0 0 0 0 0 0 0.25 0"/>
<feBlend mode="normal" in2="BackgroundImageFix" result="effect1_dropShadow_1_45"/>
<feBlend mode="normal" in="SourceGraphic" in2="effect1_dropShadow_1_45" result="shape"/>
</filter>
<clipPath id="clip0_1_45">
<rect width="635" height="635" fill="white" transform="translate(0 0.5)"/>
</clipPath>
</defs>
</svg>
