<svg width="635" height="636" viewBox="0 0 635 636" fill="none" xmlns="http://www.w3.org/2000/svg">
<g clip-path="url(#clip0_1_2)">
<path d="M635 1.5H0V636.5H635V1.5Z" fill="white"/>
<mask id="mask0_1_2" style="mask-type:luminance" maskUnits="userSpaceOnUse" x="0" y="1" width="635" height="636">
<path d="M635 1.5H0V636.5H635V1.5Z" fill="white"/>
</mask>
<g mask="url(#mask0_1_2)">
<g filter="url(#filter0_d_1_2)">
<path d="M155.146 -87.9636L103.504 -53.6914L225.121 129.565L276.763 95.2928L155.146 -87.9636Z" fill="#554E4E"/>
<path d="M274.52 91.44L222.87 125.72L228.96 127.31L187.77 65.25L122.41 -33.22L107.34 -55.94L105.74 -49.85L157.39 -84.13L151.3 -85.72L192.49 -23.66L257.84 74.81L272.92 97.5C276.07 102.25 283.78 97.8 280.6 93.01L239.41 30.97L174.06 -67.5L159 -90.21C157.73 -92.13 155 -93.21 152.92 -91.81L101.25 -57.5C99.3401 -56.22 98.2501 -53.5 99.6601 -51.41L140.85 10.66L206.2 109.12L221.28 131.84C222.55 133.76 225.28 134.84 227.36 133.44L279 99.12C283.75 95.97 279.3 88.27 274.52 91.44Z" fill="black"/>
<path d="M336.78 47.8099L148.46 160.25C148.46 160.25 211.08 205.85 258.6 227.8C289.85 242.24 336.89 254.26 336.89 254.26L385.8 217.83L336.78 47.8099Z" fill="#C26D8F"/>
<path d="M334.54 43.97L270.84 81.97L169.39 142.57L146.21 156.41C143.13 158.25 143.57 162.17 146.21 164.09C179.08 188 213.71 210.83 250.21 228.73C273.34 240.06 298.07 248.01 322.8 255.03C326.8 256.16 334.96 260.16 339.12 258.09C343.12 256.09 346.85 252.33 350.4 249.68L388.01 221.68C388.824 221.16 389.455 220.398 389.814 219.502C390.173 218.605 390.241 217.618 390.01 216.68L373.44 159.19L347.04 67.61L341.04 46.66C339.46 41.17 330.87 43.51 332.46 49.03L349.07 106.5L375.47 198.08L381.47 219.08L383.47 214.08L334.56 250.51L337.99 250.06C311.39 243.25 284.45 235.13 259.55 223.49C228.44 208.94 199.25 190.02 170.92 170.71C164.1 166.05 157.3 161.36 150.62 156.5V164.18L214.32 126.18L315.84 65.5L339 51.65C343.94 48.72 339.47 41.03 334.54 43.97Z" fill="black"/>
<path d="M396.8 262.08L348.32 298.96L336.89 254.26L385.8 217.83L396.8 262.08Z" fill="white"/>
<path d="M394.55 258.25L346.08 295.12L352.61 297.78L341.17 253.08L339.17 258.08L388 221.67L381.47 219.02L392.47 263.27C393.85 268.82 402.47 266.47 401.05 260.9L390.05 216.65C389.42 214.1 385.83 212.27 383.52 213.99L334.61 250.42C333.799 250.943 333.171 251.705 332.813 252.601C332.454 253.497 332.383 254.482 332.61 255.42L344 300.14C344.65 302.66 348.23 304.56 350.54 302.8L399 265.93C403.54 262.5 399.11 254.78 394.55 258.25Z" fill="black"/>
<path d="M348.32 298.96C211.86 269.71 150.45 161.25 150.45 161.25L348.32 298.96Z" fill="#FF96DD"/>
<path d="M349.5 294.67C304 284.828 261.319 264.811 224.66 236.12C201.218 217.915 180.49 196.463 163.1 172.41C159.939 168.095 156.999 163.622 154.29 159.01C151.47 154.01 143.78 158.51 146.61 163.5C154.67 177.69 165.4 190.73 176.22 202.85C202.035 231.845 232.818 256 267.12 274.18C292.349 287.444 319.261 297.223 347.12 303.25C352.7 304.46 355.12 295.89 349.48 294.67H349.5Z" fill="black"/>
<path d="M578.9 279.01C579.582 279.018 580.253 279.181 580.863 279.487C581.472 279.794 582.004 280.235 582.416 280.778C582.829 281.321 583.113 281.952 583.245 282.621C583.377 283.29 583.355 283.981 583.18 284.64C583.12 284.86 583.02 285.09 582.97 285.32C581.86 290.42 579.83 295.48 578.28 300.46C575 311.06 571.716 321.66 568.43 332.26L538.43 429.17L503.81 540.78C494.243 571.64 484.68 602.503 475.12 633.37C471.16 646.15 467.197 658.93 463.23 671.71C463.06 672.273 462.785 672.799 462.42 673.26C464.22 670.68 463.06 666.08 458.94 666.08H455.53C456.68 661.86 458.27 657.67 459.53 653.53L469.38 621.72C479.38 589.42 489.38 557.117 499.38 524.81C510.9 487.61 522.427 450.41 533.96 413.21C543.533 382.337 553.097 351.473 562.65 320.62C565.983 309.86 569.317 299.1 572.65 288.34C574.424 288.315 576.195 288.171 577.95 287.91C578.239 287.885 578.53 287.885 578.82 287.91L574.53 282.28C573.9 284.28 573.28 286.28 572.65 288.34C567.86 288.43 562.82 287.91 558.27 287.91H82.2698C81.7582 286.185 81.0887 284.512 80.2698 282.91C80.1759 282.695 80.1054 282.47 80.0598 282.24L75.7698 287.87H82.2299C83.2299 291.27 84.0198 294.87 84.9999 298.05C88.3332 308.65 91.6465 319.253 94.9399 329.86C105.033 362.16 115.127 394.463 125.22 426.77C136.853 463.97 148.48 501.17 160.1 538.37C169.74 569.237 179.383 600.1 189.03 630.96C192.69 642.653 196.357 654.347 200.03 666.04H196.77L201.05 669.31L200.05 666.04H455.45C455.2 666.9 454.98 667.77 454.79 668.63C454.73 668.86 454.65 669.08 454.58 669.31C453.09 674.11 459.49 676.5 462.24 673.31C461.844 673.826 461.331 674.239 460.743 674.516C460.155 674.792 459.509 674.924 458.86 674.9H196.87C195.9 674.884 194.96 674.558 194.188 673.969C193.416 673.381 192.853 672.561 192.58 671.63C192.51 671.41 192.45 671.17 192.37 670.95C186.52 655.76 182.55 639.54 177.69 624.01C167.603 591.697 157.51 559.393 147.41 527.1C135.803 489.953 124.177 452.777 112.53 415.57C102.89 384.71 93.2465 353.847 83.5998 322.98C79.5998 310.2 75.5998 297.42 71.5998 284.64C71.4266 283.98 71.406 283.289 71.5396 282.62C71.6733 281.951 71.9577 281.321 72.3713 280.778C72.7849 280.236 73.3167 279.794 73.9264 279.488C74.536 279.181 75.2075 279.018 75.8898 279.01H76.7599C97.0499 278.24 117.52 279.01 137.82 279.01H578.9Z" fill="black"/>
<path d="M574.61 282.28L578.9 287.91C578.611 287.885 578.319 287.885 578.03 287.91C576.275 288.172 574.504 288.315 572.73 288.34C573.36 286.32 574 284.3 574.61 282.28Z" fill="black"/>
<path d="M572.73 288.34C569.397 299.1 566.063 309.86 562.73 320.62C553.163 351.48 543.587 382.343 534 413.21C522.473 450.41 510.947 487.61 499.42 524.81C489.42 557.123 479.42 589.427 469.42 621.72L459.56 653.5C458.27 657.64 456.68 661.83 455.56 666.05H200.13C196.477 654.35 192.81 642.657 189.13 630.97C179.49 600.11 169.847 569.247 160.2 538.38C148.573 501.18 136.947 463.98 125.32 426.78C115.227 394.473 105.133 362.17 95.0401 329.87C91.7067 319.27 88.3934 308.667 85.1001 298.06C84.1001 294.92 83.3801 291.28 82.3301 287.88H558.33C562.9 287.91 567.94 288.43 572.73 288.34Z" fill="#B3704E"/>
<path d="M82.3699 287.91H75.9099L80.1999 282.28C80.2455 282.51 80.3159 282.735 80.4099 282.95C81.2128 284.54 81.8688 286.201 82.3699 287.91Z" fill="black"/>
<path d="M143.48 343.94H45.6699V221.97H605.1V343.94H506.96" fill="#B3704E"/>
<path d="M93.48 339.5H45.67L50.11 343.95V221.95L45.67 226.4H582.45C589.4 226.4 597.29 227.45 604.19 226.4C604.493 226.375 604.797 226.375 605.1 226.4L600.66 221.95V343.95L605.1 339.5L561 338C555.28 338 552.27 348.39 558 348.39H605.1C606.274 348.377 607.397 347.905 608.229 347.076C609.06 346.246 609.534 345.124 609.55 343.95V221.95C609.532 220.775 609.057 219.654 608.227 218.823C607.396 217.993 606.275 217.518 605.1 217.5H114.31C91.79 217.5 69.09 216.68 46.58 217.5H45.67C44.4946 217.515 43.3717 217.989 42.5405 218.82C41.7093 219.652 41.2355 220.775 41.22 221.95V343.95C41.2381 345.124 41.713 346.244 42.544 347.073C43.3749 347.902 44.4963 348.374 45.67 348.39H95.48C101.2 348.39 101.21 339.5 95.48 339.5H93.48Z" fill="black"/>
<path d="M387.13 437.38C385.13 436.69 383.06 436.05 381.01 435.45C381.35 434.07 381.66 432.67 381.95 431.28C386.59 408.77 383.56 390.63 373.2 384.66C363.28 378.94 347.04 384.91 330.65 399.18C329.03 400.587 327.45 402.037 325.91 403.53C324.91 402.53 323.83 401.53 322.76 400.61C305.57 385.36 288.35 378.93 278.01 384.91C268.09 390.65 265.15 407.7 269.33 429.03C269.743 431.15 270.21 433.253 270.73 435.34C268.29 436.007 265.957 436.743 263.73 437.55C243.58 444.55 230.73 455.55 230.73 467C230.73 478.79 244.54 490.62 265.52 497.79C267.22 498.37 268.937 498.907 270.67 499.4C270.11 501.653 269.61 503.92 269.17 506.2C265.17 527.2 268.3 543.8 278.17 549.51C288.39 555.4 305.53 549.34 322.23 534.75C323.55 533.59 324.88 532.37 326.23 531.09C327.897 532.703 329.613 534.267 331.38 535.78C347.55 549.7 363.52 555.32 373.38 549.6C383.59 543.69 386.91 525.81 382.6 504.05C382.273 502.39 381.893 500.697 381.46 498.97C382.66 498.61 383.84 498.24 385 497.86C406.81 490.64 421 478.95 421 467C421 455.54 407.72 444.46 387.17 437.38H387.13Z" fill="black"/>
<path d="M382.4 490.15C381.4 490.49 380.29 490.82 379.2 491.15C376.542 482.904 373.325 474.848 369.57 467.04C373.18 459.337 376.273 451.403 378.83 443.29C380.783 443.85 382.67 444.443 384.49 445.07C402.1 451.13 412.84 460.07 412.84 467C412.84 474.36 401.24 483.91 382.4 490.15ZM374.58 505.63C376.49 515.25 376.76 523.95 375.5 530.75C374.37 536.86 372.09 540.93 369.27 542.56C363.27 546.03 350.45 541.56 336.62 529.62C335.027 528.253 333.43 526.8 331.83 525.26C337.594 518.872 342.923 512.103 347.78 505C356.452 504.262 365.062 502.925 373.55 501C373.94 502.57 374.29 504.1 374.55 505.6L374.58 505.63ZM295.58 541.96C289.72 544.03 285.05 544.09 282.23 542.46C276.23 539 273.74 525.64 277.14 507.71C277.55 505.59 278.01 503.49 278.53 501.39C286.982 503.211 295.549 504.454 304.17 505.11C309.173 512.184 314.631 518.925 320.51 525.29C319.33 526.43 318.12 527.543 316.88 528.63C309.5 535.08 302.1 539.63 295.58 541.96ZM268.1 490.1C258.82 486.93 251.16 482.81 245.91 478.31C241.19 474.31 238.81 470.26 238.81 467C238.81 460.07 249.14 451.23 266.37 445.23C268.53 444.483 270.71 443.797 272.91 443.17C275.476 451.364 278.576 459.381 282.19 467.17C278.525 475.077 275.388 483.218 272.8 491.54C271.22 491.12 269.66 490.63 268.1 490.1ZM277.3 427.5C273.73 409.22 276.1 395.44 282.08 391.98C288.44 388.29 302.52 393.55 317.36 406.72C318.31 407.56 319.26 408.45 320.21 409.36C314.371 415.672 308.955 422.363 304 429.39C295.461 430.157 286.98 431.473 278.61 433.33C278.13 431.39 277.693 429.437 277.3 427.47V427.5ZM359.38 447.77C357.52 444.557 355.593 441.383 353.6 438.25C359.67 439.02 365.49 440.04 370.95 441.25C369.31 446.5 367.26 452 364.86 457.63C363.1 454.297 361.273 450.997 359.38 447.73V447.77ZM325.91 415.17C329.87 419.48 333.608 423.989 337.11 428.68C329.62 428.33 322.11 428.33 314.62 428.68C318.32 423.8 322.1 419.28 325.91 415.17ZM292.22 447.82C290.36 451.06 288.57 454.343 286.85 457.67C284.49 452.05 282.46 446.53 280.85 441.2C286.28 439.98 292.07 438.99 298.1 438.2C296.033 441.36 294.073 444.557 292.22 447.79V447.82ZM298.22 496.4C292.329 495.762 286.474 494.821 280.68 493.58C282.36 488.16 284.43 482.52 286.85 476.78C288.57 480.113 290.37 483.397 292.25 486.63C294.13 489.863 296.123 493.11 298.23 496.37L298.22 496.4ZM326.13 519.47C322.27 515.31 318.43 510.71 314.68 505.77C318.32 505.91 322.04 505.98 325.81 505.98C329.58 505.98 333.52 505.89 337.3 505.73C333.812 510.484 330.088 515.06 326.14 519.44L326.13 519.47ZM364.93 476.47C367.343 481.938 369.476 487.525 371.32 493.21C365.459 494.515 359.534 495.516 353.57 496.21C355.57 493.023 357.517 489.793 359.41 486.52C361.303 483.247 363.147 479.907 364.94 476.5L364.93 476.47ZM352.37 482.47C349.483 487.477 346.44 492.387 343.24 497.2C337.59 497.6 331.76 497.81 325.81 497.81C319.86 497.81 314.13 497.63 308.58 497.27C305.3 492.47 302.2 487.553 299.28 482.52C296.36 477.487 293.653 472.377 291.16 467.19C293.667 461.97 296.367 456.853 299.26 451.84C302.153 446.833 305.227 441.937 308.48 437.15C314.14 436.72 319.95 436.5 325.81 436.5C331.67 436.5 337.51 436.72 343.17 437.15C346.403 441.917 349.46 446.797 352.34 451.79C355.22 456.783 357.953 461.873 360.54 467.06C358 472.293 355.277 477.427 352.37 482.46V482.47ZM369.13 391.7C375.51 395.37 377.98 410.19 373.98 429.62C373.72 430.89 373.43 432.15 373.13 433.41C364.744 431.516 356.242 430.18 347.68 429.41C342.778 422.362 337.406 415.653 331.6 409.33C333.02 407.957 334.477 406.623 335.97 405.33C349.97 393.1 363.15 388.28 369.13 391.73V391.7Z" fill="#B3704E"/>
<path d="M325.82 450.01C329.182 450.01 332.469 451.007 335.265 452.875C338.06 454.743 340.239 457.398 341.526 460.504C342.813 463.611 343.149 467.029 342.493 470.327C341.837 473.624 340.218 476.653 337.841 479.031C335.463 481.408 332.434 483.027 329.136 483.683C325.839 484.339 322.421 484.003 319.314 482.716C316.208 481.429 313.553 479.25 311.685 476.455C309.817 473.659 308.82 470.372 308.82 467.01C308.82 462.501 310.611 458.177 313.799 454.989C316.987 451.801 321.311 450.01 325.82 450.01Z" fill="black"/>
</g>
</g>
<path d="M601 339.5L601.5 226H50.5L555 345.5L557.5 339.5H601Z" fill="#A56848"/>
</g>
<defs>
<filter id="filter0_d_1_2" x="37.22" y="-92.446" width="576.33" height="775.349" filterUnits="userSpaceOnUse" color-interpolation-filters="sRGB">
<feFlood flood-opacity="0" result="BackgroundImageFix"/>
<feColorMatrix in="SourceAlpha" type="matrix" values="0 0 0 0 0 0 0 0 0 0 0 0 0 0 0 0 0 0 127 0" result="hardAlpha"/>
<feOffset dy="4"/>
<feGaussianBlur stdDeviation="2"/>
<feComposite in2="hardAlpha" operator="out"/>
<feColorMatrix type="matrix" values="0 0 0 0 0 0 0 0 0 0 0 0 0 0 0 0 0 0 0.25 0"/>
<feBlend mode="normal" in2="BackgroundImageFix" result="effect1_dropShadow_1_2"/>
<feBlend mode="normal" in="SourceGraphic" in2="effect1_dropShadow_1_2" result="shape"/>
</filter>
<clipPath id="clip0_1_2">
<rect width="635" height="635" fill="white" transform="translate(0 0.5)"/>
</clipPath>
</defs>
</svg>
