<svg width="635" height="636" viewBox="0 0 635 636" fill="none" xmlns="http://www.w3.org/2000/svg">
<g clip-path="url(#clip0_1_375)">
<path d="M635 0.5H0V635.5H635V0.5Z" fill="#82D2F7"/>
<mask id="mask0_1_375" style="mask-type:luminance" maskUnits="userSpaceOnUse" x="0" y="1" width="635" height="636">
<path d="M635 1.5H0V636.5H635V1.5Z" fill="white"/>
</mask>
<g mask="url(#mask0_1_375)">
<g filter="url(#filter0_d_1_375)">
<path d="M583.05 232.32C594.55 233.47 604.61 230.75 611.17 223.7C626.56 207.16 616.89 173.13 589.56 147.7C562.23 122.27 527.56 115.05 512.2 131.59C504.72 139.59 503.2 151.78 506.67 165.08L444.75 110.56C436.837 117.332 428.268 123.298 419.17 128.37C410.095 133.489 400.531 137.687 390.62 140.9L413.3 270.72L266.69 299.04C262.26 275.36 249.43 258.22 235.92 259.41C220.72 260.75 210.41 284.76 212.92 313.04C215.43 341.32 229.74 363.17 244.92 361.83C256.09 360.83 264.62 347.59 267.36 329.4L422.49 323.4L458.24 527.98C458.24 527.98 521.24 523.98 612.24 472.9C712.59 416.65 739.6 370.24 739.6 370.24L583.05 232.32ZM561.23 202.71L537.57 181.87C531.47 171.73 530.5 161.25 536.03 155.31C543.69 147.08 560.92 150.67 574.52 163.31C588.12 175.95 592.93 192.9 585.27 201.13C580.18 206.6 570.89 206.85 561.23 202.71Z" fill="#5BA0C0"/>
</g>
<g filter="url(#filter1_d_1_375)">
<path d="M583.05 236.82C599.68 238.23 616.41 231.31 621.46 214.3C625.99 199.03 620.21 182.1 612.46 168.9C602.245 151.707 587.575 137.593 570 128.05C556.21 120.61 538.92 115.23 523.32 119.81C502.63 125.88 497.59 147.27 502.32 166.26L509.84 161.89L447.92 107.37C447.062 106.556 445.923 106.101 444.74 106.101C443.557 106.101 442.418 106.556 441.56 107.37C426.229 120.375 408.522 130.284 389.42 136.55C388.288 136.899 387.332 137.666 386.747 138.696C386.161 139.725 385.991 140.939 386.27 142.09L406.1 255.5L409 271.92L412.14 266.38L283.47 291.23L265.47 294.71L271.01 297.85C267.94 282.29 260.43 261.79 243.92 256.01C229.4 250.92 218.13 263.28 213.16 275.52C205.95 293.29 206.56 314.74 212.11 332.87C216.17 346.14 224.79 363.31 240.01 366.04C259.79 369.59 269.19 346.04 271.69 330.6L267.35 333.9L403.44 328.61L422.44 327.87L418.1 324.56L430.23 393.94L449.44 503.94L453.85 529.19C454.112 530.14 454.679 530.978 455.462 531.576C456.246 532.174 457.204 532.498 458.19 532.5C468.34 531.83 478.53 529.68 488.42 527.41C515.76 521.16 542.3 511.58 567.9 500.21C603.285 484.442 637.034 465.233 668.66 442.86C688.76 428.66 708.17 413.1 725.13 395.2C731.7 388.27 738.62 380.83 743.47 372.53C743.962 371.668 744.161 370.668 744.034 369.683C743.908 368.698 743.464 367.78 742.77 367.07L690 320.5L605.71 246.28L586.23 229.13C581.9 225.32 575.51 231.66 579.87 235.49L632.7 282.01L717 356.24L736.48 373.39L735.77 367.94C732.02 374.35 727.77 379.05 722.58 384.74C707.8 401.1 690.8 415.5 673.11 428.58C619.81 468.03 558.42 500.4 493.91 516.79C482.05 519.79 469.5 522.71 458.25 523.45L462.59 526.75L450.47 457.37L431.26 347.43L426.84 322.17C426.577 321.221 426.011 320.384 425.227 319.788C424.443 319.192 423.485 318.869 422.5 318.87L286.42 324.16L267.37 324.9C265.57 324.97 263.37 326.24 263.03 328.21C261.43 338.12 256.91 356.83 244.03 357.38C232.37 357.88 224.94 342.38 221.79 333.38C216.62 318.57 215.37 301.68 219.14 286.38C221.3 277.62 227.14 262.46 238.68 263.89C244.76 264.63 249.63 270.07 252.79 274.89C257.79 282.54 260.62 291.31 262.38 300.23C262.87 302.74 265.67 303.81 267.91 303.37L396.52 278.5L414.52 275.03C417.07 274.54 418.06 271.73 417.66 269.49L397.82 156.08L395 139.7L391.86 145.23C412.432 138.474 431.49 127.775 447.97 113.73H441.61L503.53 168.25C506.86 171.18 512.17 168.38 511.05 163.87C507.62 150.03 509.84 133.48 525.28 128.64C537.89 124.69 552.17 128.99 563.51 134.76C578.33 142.35 591.078 153.436 600.65 167.06C608.32 178.06 614.65 191.43 613.98 205.13C613.68 210.99 611.7 216.77 607.54 221.01C601.14 227.55 591.77 228.56 583.09 227.82C577.28 227.33 577.31 236.34 583.05 236.82Z" fill="black"/>
</g>
<g filter="url(#filter2_d_1_375)">
<path d="M564.42 199.5L546.88 184.06C544.69 182.13 542.16 180.29 540.53 177.96C536.61 172.36 534.25 160.7 541.53 156.69C547.28 153.49 555.25 156.16 560.62 158.9C568.499 162.942 575.12 169.067 579.76 176.61C582.93 181.82 586.26 189.51 583.6 195.61C580.01 203.86 568.78 200.87 562.47 198.33C557.1 196.16 554.77 204.86 560.08 207.01C567.67 210.07 577.02 211.7 584.51 207.39C590.06 204.2 593.02 198.39 593.4 192.13C594.35 176.37 581.61 161.37 569.13 153.41C558.57 146.68 540.76 141.6 531.72 153.52C524.29 163.31 528.39 179.7 537.08 187.35L558.08 205.85C562.38 209.7 568.77 203.36 564.42 199.5Z" fill="black"/>
</g>
<g filter="url(#filter3_d_1_375)">
<path d="M248.06 308.73C251.335 308.73 253.99 306.075 253.99 302.8C253.99 299.525 251.335 296.87 248.06 296.87C244.785 296.87 242.13 299.525 242.13 302.8C242.13 306.075 244.785 308.73 248.06 308.73Z" fill="black"/>
</g>
<g filter="url(#filter4_d_1_375)">
<path d="M231.15 327.97C234.425 327.97 237.08 325.315 237.08 322.04C237.08 318.765 234.425 316.11 231.15 316.11C227.875 316.11 225.22 318.765 225.22 322.04C225.22 325.315 227.875 327.97 231.15 327.97Z" fill="black"/>
</g>
<g filter="url(#filter5_d_1_375)">
<path d="M229.2 310.88C232.475 310.88 235.13 308.225 235.13 304.95C235.13 301.675 232.475 299.02 229.2 299.02C225.925 299.02 223.27 301.675 223.27 304.95C223.27 308.225 225.925 310.88 229.2 310.88Z" fill="black"/>
</g>
<g filter="url(#filter6_d_1_375)">
<path d="M250 325.82C253.275 325.82 255.93 323.165 255.93 319.89C255.93 316.615 253.275 313.96 250 313.96C246.725 313.96 244.07 316.615 244.07 319.89C244.07 323.165 246.725 325.82 250 325.82Z" fill="black"/>
</g>
<g filter="url(#filter7_d_1_375)">
<path d="M242.71 341.56C245.985 341.56 248.64 338.905 248.64 335.63C248.64 332.355 245.985 329.7 242.71 329.7C239.435 329.7 236.78 332.355 236.78 335.63C236.78 338.905 239.435 341.56 242.71 341.56Z" fill="black"/>
</g>
<g filter="url(#filter8_d_1_375)">
<path d="M237.02 294.48C240.295 294.48 242.95 291.825 242.95 288.55C242.95 285.275 240.295 282.62 237.02 282.62C233.745 282.62 231.09 285.275 231.09 288.55C231.09 291.825 233.745 294.48 237.02 294.48Z" fill="black"/>
</g>
<g filter="url(#filter9_d_1_375)">
<path d="M188.57 292.56L179.12 295.82" stroke="#706BE4" stroke-width="3" stroke-miterlimit="10" stroke-linecap="round"/>
</g>
<g filter="url(#filter10_d_1_375)">
<path d="M149.89 305.9L-127.75 401.67" stroke="#706BE4" stroke-width="3" stroke-miterlimit="10" stroke-linecap="round" stroke-dasharray="20.61 30.92"/>
</g>
<g filter="url(#filter11_d_1_375)">
<path d="M193.31 319.83L184.46 324.48" stroke="#706BE4" stroke-width="3" stroke-miterlimit="10" stroke-linecap="round"/>
</g>
<g filter="url(#filter12_d_1_375)">
<path d="M157.28 338.73L-100.91 474.11" stroke="#706BE4" stroke-width="3" stroke-miterlimit="10" stroke-linecap="round" stroke-dasharray="20.46 30.69"/>
</g>
<g filter="url(#filter13_d_1_375)">
<path d="M201.62 344.74L193.86 351.06" stroke="#706BE4" stroke-width="3" stroke-miterlimit="10" stroke-linecap="round"/>
</g>
<g filter="url(#filter14_d_1_375)">
<path d="M169.61 370.83L-60.78 558.62" stroke="#706BE4" stroke-width="3" stroke-miterlimit="10" stroke-linecap="round" stroke-dasharray="20.86 31.29"/>
</g>
<g filter="url(#filter15_d_1_375)">
<path d="M212.29 367.27L206.3 375.28" stroke="#706BE4" stroke-width="3" stroke-miterlimit="10" stroke-linecap="round"/>
</g>
<g filter="url(#filter16_d_1_375)">
<path d="M189.06 398.3L25.28 616.99" stroke="#706BE4" stroke-width="3" stroke-miterlimit="10" stroke-linecap="round" stroke-dasharray="19.17 28.76"/>
</g>
<path d="M16.66 628.5L10.67 636.5" stroke="#706BE4" stroke-width="3" stroke-miterlimit="10" stroke-linecap="round"/>
<g filter="url(#filter17_d_1_375)">
<path d="M236.01 385.06L232.13 394.28" stroke="#706BE4" stroke-width="3" stroke-miterlimit="10" stroke-linecap="round"/>
</g>
<g filter="url(#filter18_d_1_375)">
<path d="M220.3 422.35L147.37 595.46" stroke="#706BE4" stroke-width="3" stroke-miterlimit="10" stroke-linecap="round" stroke-dasharray="20.31 30.46"/>
</g>
<g filter="url(#filter19_d_1_375)">
<path d="M141.45 609.49L137.57 618.71" stroke="#706BE4" stroke-width="3" stroke-miterlimit="10" stroke-linecap="round"/>
</g>
</g>
</g>
<defs>
<filter id="filter0_d_1_375" x="208.544" y="110.56" width="535.056" height="425.42" filterUnits="userSpaceOnUse" color-interpolation-filters="sRGB">
<feFlood flood-opacity="0" result="BackgroundImageFix"/>
<feColorMatrix in="SourceAlpha" type="matrix" values="0 0 0 0 0 0 0 0 0 0 0 0 0 0 0 0 0 0 127 0" result="hardAlpha"/>
<feOffset dy="4"/>
<feGaussianBlur stdDeviation="2"/>
<feComposite in2="hardAlpha" operator="out"/>
<feColorMatrix type="matrix" values="0 0 0 0 0 0 0 0 0 0 0 0 0 0 0 0 0 0 0.25 0"/>
<feBlend mode="normal" in2="BackgroundImageFix" result="effect1_dropShadow_1_375"/>
<feBlend mode="normal" in="SourceGraphic" in2="effect1_dropShadow_1_375" result="shape"/>
</filter>
<filter id="filter1_d_1_375" x="203.849" y="106.101" width="544.223" height="434.399" filterUnits="userSpaceOnUse" color-interpolation-filters="sRGB">
<feFlood flood-opacity="0" result="BackgroundImageFix"/>
<feColorMatrix in="SourceAlpha" type="matrix" values="0 0 0 0 0 0 0 0 0 0 0 0 0 0 0 0 0 0 127 0" result="hardAlpha"/>
<feOffset dy="4"/>
<feGaussianBlur stdDeviation="2"/>
<feComposite in2="hardAlpha" operator="out"/>
<feColorMatrix type="matrix" values="0 0 0 0 0 0 0 0 0 0 0 0 0 0 0 0 0 0 0.25 0"/>
<feBlend mode="normal" in2="BackgroundImageFix" result="effect1_dropShadow_1_375"/>
<feBlend mode="normal" in="SourceGraphic" in2="effect1_dropShadow_1_375" result="shape"/>
</filter>
<filter id="filter2_d_1_375" x="523.855" y="146.351" width="73.5955" height="71.6625" filterUnits="userSpaceOnUse" color-interpolation-filters="sRGB">
<feFlood flood-opacity="0" result="BackgroundImageFix"/>
<feColorMatrix in="SourceAlpha" type="matrix" values="0 0 0 0 0 0 0 0 0 0 0 0 0 0 0 0 0 0 127 0" result="hardAlpha"/>
<feOffset dy="4"/>
<feGaussianBlur stdDeviation="2"/>
<feComposite in2="hardAlpha" operator="out"/>
<feColorMatrix type="matrix" values="0 0 0 0 0 0 0 0 0 0 0 0 0 0 0 0 0 0 0.25 0"/>
<feBlend mode="normal" in2="BackgroundImageFix" result="effect1_dropShadow_1_375"/>
<feBlend mode="normal" in="SourceGraphic" in2="effect1_dropShadow_1_375" result="shape"/>
</filter>
<filter id="filter3_d_1_375" x="238.13" y="296.87" width="19.86" height="19.86" filterUnits="userSpaceOnUse" color-interpolation-filters="sRGB">
<feFlood flood-opacity="0" result="BackgroundImageFix"/>
<feColorMatrix in="SourceAlpha" type="matrix" values="0 0 0 0 0 0 0 0 0 0 0 0 0 0 0 0 0 0 127 0" result="hardAlpha"/>
<feOffset dy="4"/>
<feGaussianBlur stdDeviation="2"/>
<feComposite in2="hardAlpha" operator="out"/>
<feColorMatrix type="matrix" values="0 0 0 0 0 0 0 0 0 0 0 0 0 0 0 0 0 0 0.25 0"/>
<feBlend mode="normal" in2="BackgroundImageFix" result="effect1_dropShadow_1_375"/>
<feBlend mode="normal" in="SourceGraphic" in2="effect1_dropShadow_1_375" result="shape"/>
</filter>
<filter id="filter4_d_1_375" x="221.22" y="316.11" width="19.86" height="19.86" filterUnits="userSpaceOnUse" color-interpolation-filters="sRGB">
<feFlood flood-opacity="0" result="BackgroundImageFix"/>
<feColorMatrix in="SourceAlpha" type="matrix" values="0 0 0 0 0 0 0 0 0 0 0 0 0 0 0 0 0 0 127 0" result="hardAlpha"/>
<feOffset dy="4"/>
<feGaussianBlur stdDeviation="2"/>
<feComposite in2="hardAlpha" operator="out"/>
<feColorMatrix type="matrix" values="0 0 0 0 0 0 0 0 0 0 0 0 0 0 0 0 0 0 0.25 0"/>
<feBlend mode="normal" in2="BackgroundImageFix" result="effect1_dropShadow_1_375"/>
<feBlend mode="normal" in="SourceGraphic" in2="effect1_dropShadow_1_375" result="shape"/>
</filter>
<filter id="filter5_d_1_375" x="219.27" y="299.02" width="19.86" height="19.86" filterUnits="userSpaceOnUse" color-interpolation-filters="sRGB">
<feFlood flood-opacity="0" result="BackgroundImageFix"/>
<feColorMatrix in="SourceAlpha" type="matrix" values="0 0 0 0 0 0 0 0 0 0 0 0 0 0 0 0 0 0 127 0" result="hardAlpha"/>
<feOffset dy="4"/>
<feGaussianBlur stdDeviation="2"/>
<feComposite in2="hardAlpha" operator="out"/>
<feColorMatrix type="matrix" values="0 0 0 0 0 0 0 0 0 0 0 0 0 0 0 0 0 0 0.25 0"/>
<feBlend mode="normal" in2="BackgroundImageFix" result="effect1_dropShadow_1_375"/>
<feBlend mode="normal" in="SourceGraphic" in2="effect1_dropShadow_1_375" result="shape"/>
</filter>
<filter id="filter6_d_1_375" x="240.07" y="313.96" width="19.86" height="19.86" filterUnits="userSpaceOnUse" color-interpolation-filters="sRGB">
<feFlood flood-opacity="0" result="BackgroundImageFix"/>
<feColorMatrix in="SourceAlpha" type="matrix" values="0 0 0 0 0 0 0 0 0 0 0 0 0 0 0 0 0 0 127 0" result="hardAlpha"/>
<feOffset dy="4"/>
<feGaussianBlur stdDeviation="2"/>
<feComposite in2="hardAlpha" operator="out"/>
<feColorMatrix type="matrix" values="0 0 0 0 0 0 0 0 0 0 0 0 0 0 0 0 0 0 0.25 0"/>
<feBlend mode="normal" in2="BackgroundImageFix" result="effect1_dropShadow_1_375"/>
<feBlend mode="normal" in="SourceGraphic" in2="effect1_dropShadow_1_375" result="shape"/>
</filter>
<filter id="filter7_d_1_375" x="232.78" y="329.7" width="19.86" height="19.86" filterUnits="userSpaceOnUse" color-interpolation-filters="sRGB">
<feFlood flood-opacity="0" result="BackgroundImageFix"/>
<feColorMatrix in="SourceAlpha" type="matrix" values="0 0 0 0 0 0 0 0 0 0 0 0 0 0 0 0 0 0 127 0" result="hardAlpha"/>
<feOffset dy="4"/>
<feGaussianBlur stdDeviation="2"/>
<feComposite in2="hardAlpha" operator="out"/>
<feColorMatrix type="matrix" values="0 0 0 0 0 0 0 0 0 0 0 0 0 0 0 0 0 0 0.25 0"/>
<feBlend mode="normal" in2="BackgroundImageFix" result="effect1_dropShadow_1_375"/>
<feBlend mode="normal" in="SourceGraphic" in2="effect1_dropShadow_1_375" result="shape"/>
</filter>
<filter id="filter8_d_1_375" x="227.09" y="282.62" width="19.86" height="19.86" filterUnits="userSpaceOnUse" color-interpolation-filters="sRGB">
<feFlood flood-opacity="0" result="BackgroundImageFix"/>
<feColorMatrix in="SourceAlpha" type="matrix" values="0 0 0 0 0 0 0 0 0 0 0 0 0 0 0 0 0 0 127 0" result="hardAlpha"/>
<feOffset dy="4"/>
<feGaussianBlur stdDeviation="2"/>
<feComposite in2="hardAlpha" operator="out"/>
<feColorMatrix type="matrix" values="0 0 0 0 0 0 0 0 0 0 0 0 0 0 0 0 0 0 0.25 0"/>
<feBlend mode="normal" in2="BackgroundImageFix" result="effect1_dropShadow_1_375"/>
<feBlend mode="normal" in="SourceGraphic" in2="effect1_dropShadow_1_375" result="shape"/>
</filter>
<filter id="filter9_d_1_375" x="173.62" y="291.06" width="20.4508" height="14.2608" filterUnits="userSpaceOnUse" color-interpolation-filters="sRGB">
<feFlood flood-opacity="0" result="BackgroundImageFix"/>
<feColorMatrix in="SourceAlpha" type="matrix" values="0 0 0 0 0 0 0 0 0 0 0 0 0 0 0 0 0 0 127 0" result="hardAlpha"/>
<feOffset dy="4"/>
<feGaussianBlur stdDeviation="2"/>
<feComposite in2="hardAlpha" operator="out"/>
<feColorMatrix type="matrix" values="0 0 0 0 0 0 0 0 0 0 0 0 0 0 0 0 0 0 0.25 0"/>
<feBlend mode="normal" in2="BackgroundImageFix" result="effect1_dropShadow_1_375"/>
<feBlend mode="normal" in="SourceGraphic" in2="effect1_dropShadow_1_375" result="shape"/>
</filter>
<filter id="filter10_d_1_375" x="-133.25" y="304.4" width="288.641" height="106.771" filterUnits="userSpaceOnUse" color-interpolation-filters="sRGB">
<feFlood flood-opacity="0" result="BackgroundImageFix"/>
<feColorMatrix in="SourceAlpha" type="matrix" values="0 0 0 0 0 0 0 0 0 0 0 0 0 0 0 0 0 0 127 0" result="hardAlpha"/>
<feOffset dy="4"/>
<feGaussianBlur stdDeviation="2"/>
<feComposite in2="hardAlpha" operator="out"/>
<feColorMatrix type="matrix" values="0 0 0 0 0 0 0 0 0 0 0 0 0 0 0 0 0 0 0.25 0"/>
<feBlend mode="normal" in2="BackgroundImageFix" result="effect1_dropShadow_1_375"/>
<feBlend mode="normal" in="SourceGraphic" in2="effect1_dropShadow_1_375" result="shape"/>
</filter>
<filter id="filter11_d_1_375" x="178.96" y="318.33" width="19.8506" height="15.6506" filterUnits="userSpaceOnUse" color-interpolation-filters="sRGB">
<feFlood flood-opacity="0" result="BackgroundImageFix"/>
<feColorMatrix in="SourceAlpha" type="matrix" values="0 0 0 0 0 0 0 0 0 0 0 0 0 0 0 0 0 0 127 0" result="hardAlpha"/>
<feOffset dy="4"/>
<feGaussianBlur stdDeviation="2"/>
<feComposite in2="hardAlpha" operator="out"/>
<feColorMatrix type="matrix" values="0 0 0 0 0 0 0 0 0 0 0 0 0 0 0 0 0 0 0.25 0"/>
<feBlend mode="normal" in2="BackgroundImageFix" result="effect1_dropShadow_1_375"/>
<feBlend mode="normal" in="SourceGraphic" in2="effect1_dropShadow_1_375" result="shape"/>
</filter>
<filter id="filter12_d_1_375" x="-106.41" y="337.23" width="269.191" height="146.381" filterUnits="userSpaceOnUse" color-interpolation-filters="sRGB">
<feFlood flood-opacity="0" result="BackgroundImageFix"/>
<feColorMatrix in="SourceAlpha" type="matrix" values="0 0 0 0 0 0 0 0 0 0 0 0 0 0 0 0 0 0 127 0" result="hardAlpha"/>
<feOffset dy="4"/>
<feGaussianBlur stdDeviation="2"/>
<feComposite in2="hardAlpha" operator="out"/>
<feColorMatrix type="matrix" values="0 0 0 0 0 0 0 0 0 0 0 0 0 0 0 0 0 0 0.25 0"/>
<feBlend mode="normal" in2="BackgroundImageFix" result="effect1_dropShadow_1_375"/>
<feBlend mode="normal" in="SourceGraphic" in2="effect1_dropShadow_1_375" result="shape"/>
</filter>
<filter id="filter13_d_1_375" x="188.36" y="343.24" width="18.7601" height="17.3201" filterUnits="userSpaceOnUse" color-interpolation-filters="sRGB">
<feFlood flood-opacity="0" result="BackgroundImageFix"/>
<feColorMatrix in="SourceAlpha" type="matrix" values="0 0 0 0 0 0 0 0 0 0 0 0 0 0 0 0 0 0 127 0" result="hardAlpha"/>
<feOffset dy="4"/>
<feGaussianBlur stdDeviation="2"/>
<feComposite in2="hardAlpha" operator="out"/>
<feColorMatrix type="matrix" values="0 0 0 0 0 0 0 0 0 0 0 0 0 0 0 0 0 0 0.25 0"/>
<feBlend mode="normal" in2="BackgroundImageFix" result="effect1_dropShadow_1_375"/>
<feBlend mode="normal" in="SourceGraphic" in2="effect1_dropShadow_1_375" result="shape"/>
</filter>
<filter id="filter14_d_1_375" x="-66.2801" y="369.33" width="241.39" height="198.79" filterUnits="userSpaceOnUse" color-interpolation-filters="sRGB">
<feFlood flood-opacity="0" result="BackgroundImageFix"/>
<feColorMatrix in="SourceAlpha" type="matrix" values="0 0 0 0 0 0 0 0 0 0 0 0 0 0 0 0 0 0 127 0" result="hardAlpha"/>
<feOffset dy="4"/>
<feGaussianBlur stdDeviation="2"/>
<feComposite in2="hardAlpha" operator="out"/>
<feColorMatrix type="matrix" values="0 0 0 0 0 0 0 0 0 0 0 0 0 0 0 0 0 0 0.25 0"/>
<feBlend mode="normal" in2="BackgroundImageFix" result="effect1_dropShadow_1_375"/>
<feBlend mode="normal" in="SourceGraphic" in2="effect1_dropShadow_1_375" result="shape"/>
</filter>
<filter id="filter15_d_1_375" x="200.8" y="365.77" width="16.9902" height="19.0102" filterUnits="userSpaceOnUse" color-interpolation-filters="sRGB">
<feFlood flood-opacity="0" result="BackgroundImageFix"/>
<feColorMatrix in="SourceAlpha" type="matrix" values="0 0 0 0 0 0 0 0 0 0 0 0 0 0 0 0 0 0 127 0" result="hardAlpha"/>
<feOffset dy="4"/>
<feGaussianBlur stdDeviation="2"/>
<feComposite in2="hardAlpha" operator="out"/>
<feColorMatrix type="matrix" values="0 0 0 0 0 0 0 0 0 0 0 0 0 0 0 0 0 0 0.25 0"/>
<feBlend mode="normal" in2="BackgroundImageFix" result="effect1_dropShadow_1_375"/>
<feBlend mode="normal" in="SourceGraphic" in2="effect1_dropShadow_1_375" result="shape"/>
</filter>
<filter id="filter16_d_1_375" x="19.7799" y="396.8" width="174.78" height="229.69" filterUnits="userSpaceOnUse" color-interpolation-filters="sRGB">
<feFlood flood-opacity="0" result="BackgroundImageFix"/>
<feColorMatrix in="SourceAlpha" type="matrix" values="0 0 0 0 0 0 0 0 0 0 0 0 0 0 0 0 0 0 127 0" result="hardAlpha"/>
<feOffset dy="4"/>
<feGaussianBlur stdDeviation="2"/>
<feComposite in2="hardAlpha" operator="out"/>
<feColorMatrix type="matrix" values="0 0 0 0 0 0 0 0 0 0 0 0 0 0 0 0 0 0 0.25 0"/>
<feBlend mode="normal" in2="BackgroundImageFix" result="effect1_dropShadow_1_375"/>
<feBlend mode="normal" in="SourceGraphic" in2="effect1_dropShadow_1_375" result="shape"/>
</filter>
<filter id="filter17_d_1_375" x="226.63" y="383.56" width="14.8808" height="20.2208" filterUnits="userSpaceOnUse" color-interpolation-filters="sRGB">
<feFlood flood-opacity="0" result="BackgroundImageFix"/>
<feColorMatrix in="SourceAlpha" type="matrix" values="0 0 0 0 0 0 0 0 0 0 0 0 0 0 0 0 0 0 127 0" result="hardAlpha"/>
<feOffset dy="4"/>
<feGaussianBlur stdDeviation="2"/>
<feComposite in2="hardAlpha" operator="out"/>
<feColorMatrix type="matrix" values="0 0 0 0 0 0 0 0 0 0 0 0 0 0 0 0 0 0 0.25 0"/>
<feBlend mode="normal" in2="BackgroundImageFix" result="effect1_dropShadow_1_375"/>
<feBlend mode="normal" in="SourceGraphic" in2="effect1_dropShadow_1_375" result="shape"/>
</filter>
<filter id="filter18_d_1_375" x="141.87" y="420.85" width="83.9308" height="184.111" filterUnits="userSpaceOnUse" color-interpolation-filters="sRGB">
<feFlood flood-opacity="0" result="BackgroundImageFix"/>
<feColorMatrix in="SourceAlpha" type="matrix" values="0 0 0 0 0 0 0 0 0 0 0 0 0 0 0 0 0 0 127 0" result="hardAlpha"/>
<feOffset dy="4"/>
<feGaussianBlur stdDeviation="2"/>
<feComposite in2="hardAlpha" operator="out"/>
<feColorMatrix type="matrix" values="0 0 0 0 0 0 0 0 0 0 0 0 0 0 0 0 0 0 0.25 0"/>
<feBlend mode="normal" in2="BackgroundImageFix" result="effect1_dropShadow_1_375"/>
<feBlend mode="normal" in="SourceGraphic" in2="effect1_dropShadow_1_375" result="shape"/>
</filter>
<filter id="filter19_d_1_375" x="132.07" y="607.99" width="14.8808" height="20.2208" filterUnits="userSpaceOnUse" color-interpolation-filters="sRGB">
<feFlood flood-opacity="0" result="BackgroundImageFix"/>
<feColorMatrix in="SourceAlpha" type="matrix" values="0 0 0 0 0 0 0 0 0 0 0 0 0 0 0 0 0 0 127 0" result="hardAlpha"/>
<feOffset dy="4"/>
<feGaussianBlur stdDeviation="2"/>
<feComposite in2="hardAlpha" operator="out"/>
<feColorMatrix type="matrix" values="0 0 0 0 0 0 0 0 0 0 0 0 0 0 0 0 0 0 0.25 0"/>
<feBlend mode="normal" in2="BackgroundImageFix" result="effect1_dropShadow_1_375"/>
<feBlend mode="normal" in="SourceGraphic" in2="effect1_dropShadow_1_375" result="shape"/>
</filter>
<clipPath id="clip0_1_375">
<rect width="635" height="635" fill="white" transform="translate(0 0.5)"/>
</clipPath>
</defs>
</svg>
