<svg width="635" height="636" viewBox="0 0 635 636" fill="none" xmlns="http://www.w3.org/2000/svg">
<g clip-path="url(#clip0_1_25)">
<path d="M635 1.5H0V636.5H635V1.5Z" fill="#706BE4"/>
<g filter="url(#filter0_d_1_25)">
<path d="M155.146 -88.9636L103.504 -54.6914L225.121 128.565L276.763 94.2928L155.146 -88.9636Z" fill="#554E4E"/>
<path d="M274.52 90.44L222.87 124.72L228.96 126.31L187.77 64.25L122.41 -34.22L107.34 -56.94L105.74 -50.85L157.39 -85.13L151.3 -86.72L192.49 -24.66L257.84 73.81L272.92 96.5C276.07 101.25 283.78 96.8 280.6 92.01L239.41 29.97L174.06 -68.5L159 -91.21C157.73 -93.13 155 -94.21 152.92 -92.81L101.25 -58.5C99.3399 -57.22 98.2499 -54.5 99.6599 -52.41L140.85 9.65998L206.2 108.12L221.28 130.84C222.55 132.76 225.28 133.84 227.36 132.44L279 98.12C283.75 94.97 279.3 87.27 274.52 90.44Z" fill="black"/>
<path d="M336.78 46.8099L148.46 159.25C148.46 159.25 211.08 204.85 258.6 226.8C289.85 241.24 336.89 253.26 336.89 253.26L385.8 216.83L336.78 46.8099Z" fill="#C26D8F"/>
<path d="M334.54 42.97L270.84 80.97L169.39 141.57L146.21 155.41C143.13 157.25 143.57 161.17 146.21 163.09C179.08 187 213.71 209.83 250.21 227.73C273.34 239.06 298.07 247.01 322.8 254.03C326.8 255.16 334.96 259.16 339.12 257.09C343.12 255.09 346.85 251.33 350.4 248.68L388.01 220.68C388.824 220.16 389.455 219.398 389.814 218.502C390.173 217.605 390.241 216.618 390.01 215.68L373.44 158.19L347.04 66.61L341.04 45.66C339.46 40.17 330.87 42.51 332.46 48.03L349.07 105.5L375.47 197.08L381.47 218.08L383.47 213.08L334.56 249.51L337.99 249.06C311.39 242.25 284.45 234.13 259.55 222.49C228.44 207.94 199.25 189.02 170.92 169.71C164.1 165.05 157.3 160.36 150.62 155.5V163.18L214.32 125.18L315.84 64.5L339 50.65C343.94 47.72 339.47 40.03 334.54 42.97Z" fill="black"/>
<path d="M396.8 261.08L348.32 297.96L336.89 253.26L385.8 216.83L396.8 261.08Z" fill="white"/>
<path d="M394.55 257.25L346.08 294.12L352.61 296.78L341.17 252.08L339.17 257.08L388 220.67L381.47 218.02L392.47 262.27C393.85 267.82 402.47 265.47 401.05 259.9L390.05 215.65C389.42 213.1 385.83 211.27 383.52 212.99L334.61 249.42C333.799 249.943 333.171 250.705 332.813 251.601C332.454 252.497 332.383 253.482 332.61 254.42L344 299.14C344.65 301.66 348.23 303.56 350.54 301.8L399 264.93C403.54 261.5 399.11 253.78 394.55 257.25Z" fill="black"/>
<path d="M348.32 297.96C211.86 268.71 150.45 160.25 150.45 160.25L348.32 297.96Z" fill="#FF96DD"/>
<path d="M349.5 293.67C304 283.828 261.319 263.811 224.66 235.12C201.218 216.915 180.49 195.463 163.1 171.41C159.939 167.095 156.999 162.622 154.29 158.01C151.47 153.01 143.78 157.51 146.61 162.5C154.67 176.69 165.4 189.73 176.22 201.85C202.035 230.845 232.818 255 267.12 273.18C292.349 286.444 319.261 296.223 347.12 302.25C352.7 303.46 355.12 294.89 349.48 293.67H349.5Z" fill="black"/>
<path d="M578.9 278.01C579.582 278.018 580.253 278.181 580.863 278.487C581.472 278.794 582.004 279.235 582.417 279.778C582.829 280.321 583.113 280.952 583.245 281.621C583.377 282.29 583.355 282.981 583.18 283.64C583.12 283.86 583.02 284.09 582.97 284.32C581.86 289.42 579.83 294.48 578.28 299.46C575 310.06 571.717 320.66 568.43 331.26L538.43 428.17L503.81 539.78C494.243 570.64 484.68 601.503 475.12 632.37C471.16 645.15 467.197 657.93 463.23 670.71C463.06 671.273 462.786 671.799 462.42 672.26C464.22 669.68 463.06 665.08 458.94 665.08H455.53C456.68 660.86 458.27 656.67 459.53 652.53L469.38 620.72C479.38 588.42 489.38 556.117 499.38 523.81C510.9 486.61 522.427 449.41 533.96 412.21C543.533 381.337 553.097 350.473 562.65 319.62C565.983 308.86 569.317 298.1 572.65 287.34C574.424 287.315 576.195 287.171 577.95 286.91C578.239 286.885 578.531 286.885 578.82 286.91L574.53 281.28C573.9 283.28 573.28 285.28 572.65 287.34C567.86 287.43 562.82 286.91 558.27 286.91H82.27C81.7583 285.185 81.0888 283.512 80.27 281.91C80.176 281.695 80.1056 281.47 80.06 281.24L75.77 286.87H82.23C83.23 290.27 84.02 293.87 85 297.05C88.3333 307.65 91.6466 318.253 94.94 328.86C105.033 361.16 115.127 393.463 125.22 425.77C136.853 462.97 148.48 500.17 160.1 537.37C169.74 568.237 179.383 599.1 189.03 629.96C192.69 641.653 196.357 653.347 200.03 665.04H196.77L201.05 668.31L200.05 665.04H455.45C455.2 665.9 454.98 666.77 454.79 667.63C454.73 667.86 454.65 668.08 454.58 668.31C453.09 673.11 459.49 675.5 462.24 672.31C461.844 672.826 461.331 673.239 460.743 673.516C460.155 673.792 459.509 673.924 458.86 673.9H196.87C195.9 673.884 194.96 673.558 194.188 672.969C193.416 672.381 192.853 671.561 192.58 670.63C192.51 670.41 192.45 670.17 192.37 669.95C186.52 654.76 182.55 638.54 177.69 623.01C167.603 590.697 157.51 558.393 147.41 526.1C135.803 488.953 124.177 451.777 112.53 414.57C102.89 383.71 93.2466 352.847 83.6 321.98C79.6 309.2 75.6 296.42 71.6 283.64C71.4267 282.98 71.4061 282.289 71.5398 281.62C71.6734 280.951 71.9579 280.321 72.3714 279.778C72.785 279.236 73.3168 278.794 73.9265 278.488C74.5362 278.181 75.2077 278.018 75.89 278.01H76.76C97.05 277.24 117.52 278.01 137.82 278.01H578.9Z" fill="black"/>
<path d="M574.61 281.28L578.9 286.91C578.611 286.885 578.319 286.885 578.03 286.91C576.275 287.172 574.504 287.315 572.73 287.34C573.36 285.32 574 283.3 574.61 281.28Z" fill="black"/>
<path d="M572.73 287.34C569.397 298.1 566.063 308.86 562.73 319.62C553.163 350.48 543.587 381.343 534 412.21C522.473 449.41 510.947 486.61 499.42 523.81C489.42 556.123 479.42 588.427 469.42 620.72L459.56 652.5C458.27 656.64 456.68 660.83 455.56 665.05H200.13C196.477 653.35 192.81 641.657 189.13 629.97C179.49 599.11 169.847 568.247 160.2 537.38C148.573 500.18 136.947 462.98 125.32 425.78C115.227 393.473 105.133 361.17 95.04 328.87C91.7066 318.27 88.3933 307.667 85.1 297.06C84.1 293.92 83.38 290.28 82.33 286.88H558.33C562.9 286.91 567.94 287.43 572.73 287.34Z" fill="#B3704E"/>
<path d="M82.3699 286.91H75.9099L80.1999 281.28C80.2455 281.51 80.3159 281.735 80.4099 281.95C81.2128 283.54 81.8688 285.201 82.3699 286.91Z" fill="black"/>
<path d="M143.48 342.94H45.6699V220.97H605.1V342.94H506.96" fill="#B3704E"/>
<path d="M93.48 338.5H45.67L50.11 342.95V220.95L45.67 225.4H582.45C589.4 225.4 597.29 226.45 604.19 225.4C604.493 225.375 604.797 225.375 605.1 225.4L600.66 220.95V342.95L605.1 338.5H558C552.28 338.5 552.27 347.39 558 347.39H605.1C606.274 347.377 607.397 346.905 608.229 346.076C609.06 345.246 609.534 344.124 609.55 342.95V220.95C609.532 219.775 609.057 218.654 608.227 217.823C607.396 216.993 606.275 216.518 605.1 216.5H114.31C91.79 216.5 69.09 215.68 46.58 216.5H45.67C44.4946 216.515 43.3717 216.989 42.5405 217.82C41.7093 218.652 41.2355 219.775 41.22 220.95V342.95C41.2381 344.124 41.713 345.244 42.544 346.073C43.3749 346.902 44.4963 347.374 45.67 347.39H95.48C101.2 347.39 101.21 338.5 95.48 338.5H93.48Z" fill="black"/>
<path d="M387.13 436.38C385.13 435.69 383.06 435.05 381.01 434.45C381.35 433.07 381.66 431.67 381.95 430.28C386.59 407.77 383.56 389.63 373.2 383.66C363.28 377.94 347.04 383.91 330.65 398.18C329.03 399.587 327.45 401.037 325.91 402.53C324.91 401.53 323.83 400.53 322.76 399.61C305.57 384.36 288.35 377.93 278.01 383.91C268.09 389.65 265.15 406.7 269.33 428.03C269.743 430.15 270.21 432.253 270.73 434.34C268.29 435.007 265.957 435.743 263.73 436.55C243.58 443.55 230.73 454.55 230.73 466C230.73 477.79 244.54 489.62 265.52 496.79C267.22 497.37 268.937 497.907 270.67 498.4C270.11 500.653 269.61 502.92 269.17 505.2C265.17 526.2 268.3 542.8 278.17 548.51C288.39 554.4 305.53 548.34 322.23 533.75C323.55 532.59 324.88 531.37 326.23 530.09C327.897 531.703 329.613 533.267 331.38 534.78C347.55 548.7 363.52 554.32 373.38 548.6C383.59 542.69 386.91 524.81 382.6 503.05C382.273 501.39 381.893 499.697 381.46 497.97C382.66 497.61 383.84 497.24 385 496.86C406.81 489.64 421 477.95 421 466C421 454.54 407.72 443.46 387.17 436.38H387.13Z" fill="black"/>
<path d="M382.4 489.15C381.4 489.49 380.29 489.82 379.2 490.15C376.542 481.904 373.325 473.848 369.57 466.04C373.18 458.337 376.273 450.403 378.83 442.29C380.783 442.85 382.67 443.443 384.49 444.07C402.1 450.13 412.84 459.07 412.84 466C412.84 473.36 401.24 482.91 382.4 489.15ZM374.58 504.63C376.49 514.25 376.76 522.95 375.5 529.75C374.37 535.86 372.09 539.93 369.27 541.56C363.27 545.03 350.45 540.56 336.62 528.62C335.027 527.253 333.43 525.8 331.83 524.26C337.594 517.872 342.923 511.103 347.78 504C356.452 503.262 365.062 501.925 373.55 500C373.94 501.57 374.29 503.1 374.55 504.6L374.58 504.63ZM295.58 540.96C289.72 543.03 285.05 543.09 282.23 541.46C276.23 538 273.74 524.64 277.14 506.71C277.55 504.59 278.01 502.49 278.53 500.39C286.982 502.211 295.549 503.454 304.17 504.11C309.173 511.184 314.631 517.925 320.51 524.29C319.33 525.43 318.12 526.543 316.88 527.63C309.5 534.08 302.1 538.63 295.58 540.96ZM268.1 489.1C258.82 485.93 251.16 481.81 245.91 477.31C241.19 473.31 238.81 469.26 238.81 466C238.81 459.07 249.14 450.23 266.37 444.23C268.53 443.483 270.71 442.797 272.91 442.17C275.476 450.364 278.576 458.381 282.19 466.17C278.525 474.077 275.388 482.218 272.8 490.54C271.22 490.12 269.66 489.63 268.1 489.1ZM277.3 426.5C273.73 408.22 276.1 394.44 282.08 390.98C288.44 387.29 302.52 392.55 317.36 405.72C318.31 406.56 319.26 407.45 320.21 408.36C314.371 414.672 308.955 421.363 304 428.39C295.461 429.157 286.98 430.473 278.61 432.33C278.13 430.39 277.693 428.437 277.3 426.47V426.5ZM359.38 446.77C357.52 443.557 355.593 440.383 353.6 437.25C359.67 438.02 365.49 439.04 370.95 440.25C369.31 445.5 367.26 451 364.86 456.63C363.1 453.297 361.273 449.997 359.38 446.73V446.77ZM325.91 414.17C329.87 418.48 333.608 422.989 337.11 427.68C329.62 427.33 322.11 427.33 314.62 427.68C318.32 422.8 322.1 418.28 325.91 414.17ZM292.22 446.82C290.36 450.06 288.57 453.343 286.85 456.67C284.49 451.05 282.46 445.53 280.85 440.2C286.28 438.98 292.07 437.99 298.1 437.2C296.033 440.36 294.073 443.557 292.22 446.79V446.82ZM298.22 495.4C292.329 494.762 286.474 493.821 280.68 492.58C282.36 487.16 284.43 481.52 286.85 475.78C288.57 479.113 290.37 482.397 292.25 485.63C294.13 488.863 296.123 492.11 298.23 495.37L298.22 495.4ZM326.13 518.47C322.27 514.31 318.43 509.71 314.68 504.77C318.32 504.91 322.04 504.98 325.81 504.98C329.58 504.98 333.52 504.89 337.3 504.73C333.812 509.484 330.088 514.06 326.14 518.44L326.13 518.47ZM364.93 475.47C367.343 480.938 369.476 486.525 371.32 492.21C365.459 493.515 359.534 494.516 353.57 495.21C355.57 492.023 357.517 488.793 359.41 485.52C361.303 482.247 363.147 478.907 364.94 475.5L364.93 475.47ZM352.37 481.47C349.483 486.477 346.44 491.387 343.24 496.2C337.59 496.6 331.76 496.81 325.81 496.81C319.86 496.81 314.13 496.63 308.58 496.27C305.3 491.47 302.2 486.553 299.28 481.52C296.36 476.487 293.653 471.377 291.16 466.19C293.667 460.97 296.367 455.853 299.26 450.84C302.153 445.833 305.227 440.937 308.48 436.15C314.14 435.72 319.95 435.5 325.81 435.5C331.67 435.5 337.51 435.72 343.17 436.15C346.403 440.917 349.46 445.797 352.34 450.79C355.22 455.783 357.953 460.873 360.54 466.06C358 471.293 355.277 476.427 352.37 481.46V481.47ZM369.13 390.7C375.51 394.37 377.98 409.19 373.98 428.62C373.72 429.89 373.43 431.15 373.13 432.41C364.744 430.516 356.242 429.18 347.68 428.41C342.778 421.362 337.406 414.653 331.6 408.33C333.02 406.957 334.477 405.623 335.97 404.33C349.97 392.1 363.15 387.28 369.13 390.73V390.7Z" fill="#706BE4"/>
<path d="M325.82 449.01C329.182 449.01 332.469 450.007 335.265 451.875C338.06 453.743 340.239 456.398 341.526 459.504C342.813 462.611 343.149 466.029 342.493 469.327C341.837 472.624 340.218 475.653 337.841 478.031C335.463 480.408 332.434 482.027 329.136 482.683C325.839 483.339 322.421 483.003 319.314 481.716C316.208 480.429 313.553 478.25 311.685 475.455C309.817 472.659 308.82 469.372 308.82 466.01C308.82 461.501 310.611 457.177 313.799 453.989C316.987 450.801 321.311 449.01 325.82 449.01Z" fill="black"/>
</g>
<path d="M601 339.5L601.5 226H50.5L555 345.5L557.5 339.5H601Z" fill="#A56848"/>
</g>
<defs>
<filter id="filter0_d_1_25" x="37.22" y="-93.446" width="576.33" height="775.349" filterUnits="userSpaceOnUse" color-interpolation-filters="sRGB">
<feFlood flood-opacity="0" result="BackgroundImageFix"/>
<feColorMatrix in="SourceAlpha" type="matrix" values="0 0 0 0 0 0 0 0 0 0 0 0 0 0 0 0 0 0 127 0" result="hardAlpha"/>
<feOffset dy="4"/>
<feGaussianBlur stdDeviation="2"/>
<feComposite in2="hardAlpha" operator="out"/>
<feColorMatrix type="matrix" values="0 0 0 0 0 0 0 0 0 0 0 0 0 0 0 0 0 0 0.25 0"/>
<feBlend mode="normal" in2="BackgroundImageFix" result="effect1_dropShadow_1_25"/>
<feBlend mode="normal" in="SourceGraphic" in2="effect1_dropShadow_1_25" result="shape"/>
</filter>
<clipPath id="clip0_1_25">
<rect width="635" height="635" fill="white" transform="translate(0 0.5)"/>
</clipPath>
</defs>
</svg>
