<?xml version="1.0" encoding="utf-8"?>
<!-- Generator: Adobe Illustrator 23.0.1, SVG Export Plug-In . SVG Version: 6.00 Build 0)  -->
<svg version="1.1" id="Layer_1" xmlns="http://www.w3.org/2000/svg" xmlns:xlink="http://www.w3.org/1999/xlink" x="0px" y="0px"
	 viewBox="0 0 635 635" style="enable-background:new 0 0 635 635;" xml:space="preserve">
<style type="text/css">
	.st0{fill:none;}
	.st1{clip-path:url(#SVGID_2_);}
	.st2{fill:none;stroke:#000000;stroke-width:5;stroke-miterlimit:10;}
	.st3{fill:none;stroke:#000000;stroke-width:5;stroke-miterlimit:10;stroke-dasharray:18.14,27.21;}
	.st4{fill:none;stroke:#000000;stroke-width:5;stroke-miterlimit:10;stroke-dasharray:18.56,27.83;}
	.st5{fill:none;stroke:#000000;stroke-width:5;stroke-miterlimit:10;stroke-dasharray:18.53,27.8;}
	.st6{fill:none;stroke:#000000;stroke-width:5;stroke-miterlimit:10;stroke-dasharray:20.97,31.46;}
	.st7{fill:none;stroke:#000000;stroke-width:5;stroke-miterlimit:10;stroke-dasharray:17.98,26.96;}
	.st8{fill:none;stroke:#000000;stroke-width:5;stroke-miterlimit:10;stroke-dasharray:21.1,31.64;}
	.st9{fill:#82F7EB;}
	.st10{clip-path:url(#SVGID_4_);}
</style>
<title>part</title>
<rect class="st0" width="635" height="635"/>
<g>
	<defs>
		<rect id="SVGID_1_" width="635" height="635"/>
	</defs>
	<clipPath id="SVGID_2_">
		<use xlink:href="#SVGID_1_"  style="overflow:visible;"/>
	</clipPath>
	<g class="st1">
		<path d="M547.7,273c-0.3,59.4-37.9,114.1-93.9,134.4c-56.6,20.6-121.1,2.9-159.5-43.4c-38.2-46.1-43-113.4-12.2-164.7
			s92.3-78.5,151-66.5c58,11.8,103.6,59.5,113,117.9C547.1,258.1,547.7,265.6,547.7,273c0,5.8,9,5.8,9,0
			c-0.3-63.4-40.4-120.9-99.9-142.9s-129-3-169.3,46c-40.5,49.2-46.1,120.4-13.2,175.1s98,83.2,160.5,70.8
			c61.5-12.2,110.8-63.6,120.1-125.7c1.2-7.7,1.7-15.6,1.8-23.4C556.7,267.2,547.7,267.2,547.7,273z"/>
		<line class="st2" x1="269" y1="112.7" x2="262" y2="105.6"/>
		<line class="st3" x1="242.7" y1="86.4" x2="92" y2="-64.3"/>
		<line class="st2" x1="217.2" y1="189.3" x2="207.8" y2="186"/>
		<line class="st4" x1="181.4" y1="177" x2="-68.7" y2="91.2"/>
		<line class="st2" x1="215" y1="301.9" x2="205" y2="301.9"/>
		<line class="st5" x1="177.2" y1="301.9" x2="-86.9" y2="301.9"/>
		<line class="st2" x1="317.2" y1="456.4" x2="311.2" y2="464.4"/>
		<line class="st6" x1="292" y1="489.4" x2="142.2" y2="685"/>
		<line class="st2" x1="242.8" y1="386.3" x2="234" y2="391.1"/>
		<line class="st7" x1="210.4" y1="404" x2="64.4" y2="483.7"/>
		<line class="st2" x1="52.6" y1="490.1" x2="43.8" y2="494.9"/>
		<line class="st2" x1="415.5" y1="477.7" x2="415.5" y2="487.7"/>
		<line class="st8" x1="415.5" y1="519.4" x2="415.5" y2="767.3"/>
		<line class="st2" x1="519.8" y1="456.4" x2="525.9" y2="464.4"/>
		<line class="st6" x1="545" y1="489.4" x2="694.9" y2="685"/>
	</g>
</g>
<rect y="-699" class="st9" width="635" height="635"/>
<g>
	<defs>
		<rect id="SVGID_3_" y="-699" width="635" height="635"/>
	</defs>
	<clipPath id="SVGID_4_">
		<use xlink:href="#SVGID_3_"  style="overflow:visible;"/>
	</clipPath>
	<g class="st10">
		<line class="st2" x1="132.6" y1="-1.5" x2="126.5" y2="6.4"/>
		<line class="st8" x1="415.5" y1="-179.6" x2="415.5" y2="68.3"/>
		<line class="st2" x1="415.5" y1="84.1" x2="415.5" y2="94.1"/>
	</g>
</g>
</svg>
