<svg id="Layer_1" data-name="Layer 1" xmlns="http://www.w3.org/2000/svg" xmlns:xlink="http://www.w3.org/1999/xlink" viewBox="0 0 635 635"><defs><style>.cls-1{fill:#eeac5d;}.cls-2{fill:#eb8755;}.cls-3{clip-path:url(#clip-path);}.cls-4{fill:#1a1a1a;}</style><clipPath id="clip-path"><rect class="cls-1" x="721" y="1" width="635" height="635"/></clipPath></defs><title>part</title><rect class="cls-2" y="1" width="635" height="635"/><path d="M2.77,527.39c24.7-18.11,50.35-35,76.34-51.2C121.22,450,165,424.67,213.17,411.67a695.83,695.83,0,0,1,155.07-23,206.31,206.31,0,0,1,56.51,5.53c21,5,41.61,11.82,61.9,19.23,18.47,6.75,36.73,14.09,54.8,21.86,9.94,4.28,19.74,9.67,29.9,13.38a14.44,14.44,0,0,1,1.38.65l2.27-8.39q-41.44,5.19-83,9.73c-21.08,2.33-42.18,4.55-63.31,6.39-8.43.74-16.87,1.42-25.32,1.9-8.25.46-16.53.27-24.75,1a246.94,246.94,0,0,0-88.37,25.25c-33.13,16.71-66.06,34.35-97,54.9-13.44,8.93-27.89,18.52-38.24,31.1-5.86,7.12-8,15.22-10.82,24-3.61,11.46-6.9,23-9.55,34.77-.36,1.61-.73,3.23-1,4.86-1.09,5.66,7.59,8.09,8.68,2.4,1.16-6,2.7-12,4.27-17.94q2.79-10.49,6.06-20.86c1.62-5.17,3.32-12,5.53-16.07,6.59-12,20.09-20.87,31-28.53,31-21.8,64.69-39.89,98.36-57.13q7.44-3.81,14.94-7.53c1.33-.66,2.67-1.3,4-2,.62-.31,2.52-1.09.36-.23A290.47,290.47,0,0,1,363.41,471c18.09-3.22,36.61-2.69,54.9-4.12,20.09-1.58,40.15-3.64,60.19-5.79q47.46-5.08,94.83-11l1.67-.21c3.88-.48,6.8-6.23,2.27-8.38-23.82-11.34-48.25-21.54-72.86-31-20.49-7.89-41.25-15.21-62.41-21.13-18.32-5.13-37.44-9.74-56.56-10-25-.35-50.14,2-74.9,5a781.38,781.38,0,0,0-80,13.68c-22.62,5.17-44.79,11.67-66,21.15-24.53,11-48.13,24-71.2,37.75-32,19.07-63.42,39.53-93.56,61.49l-1.57,1.14c-4.62,3.39-.14,11.21,4.54,7.78Z"/><circle class="cls-2" cx="310.03" cy="358.18" r="51.06"/><path d="M365.58,358.78a56.27,56.27,0,0,0-35.78-52.5c-21.59-8.41-47.34-1.76-62.18,16s-17.39,43.77-5.53,64a56.19,56.19,0,0,0,58.17,26.52c26-4.65,44.67-28,45.32-54,.15-5.79-8.85-5.79-9,0C356.1,378,344,395.64,325.67,402.06a46.58,46.58,0,1,1,30.91-43.28C356.59,364.57,365.59,364.58,365.58,358.78Z"/><ellipse class="cls-2" cx="286.47" cy="312.63" rx="23.12" ry="16.38" transform="translate(-29.48 595.42) rotate(-89.33)"/><path d="M304.35,312.82c-.12-10.17-5.25-24.74-17.6-24.81-12.19-.08-18,14.15-18.15,24.42s5.42,24.74,17.6,24.82c12.37.07,17.79-14.19,18.15-24.43.07-1.93-2.93-1.93-3,0-.3,8.48-4.57,21.59-15.15,21.43s-14.7-13.3-14.6-21.82,4.48-21,14.58-21.4c10.91-.46,15.07,13.19,15.17,21.79A1.5,1.5,0,0,0,304.35,312.82Z"/><ellipse class="cls-2" cx="333.68" cy="313.18" rx="23.12" ry="16.38" transform="translate(16.61 643.17) rotate(-89.33)"/><path d="M351.55,313.37c-.12-10.17-5.25-24.73-17.6-24.81-12.19-.08-18,14.15-18.15,24.43s5.42,24.73,17.61,24.81c12.36.08,17.78-14.19,18.14-24.43.07-1.93-2.93-1.93-3,0-.3,8.48-4.57,21.59-15.14,21.43S318.7,321.51,318.8,313s4.48-21,14.59-21.41c10.9-.46,15.06,13.2,15.16,21.79C348.58,315.3,351.58,315.3,351.55,313.37Z"/><path d="M263.38,335.42c-12.3-7.61-27.55-11.67-41.84-12.68-17.79-1.27-35.77,4.42-50.39,14.54-4.74,3.28-.24,11.08,4.54,7.77,13.44-9.3,29.48-14.46,45.85-13.31,12.72.89,26.36,4.68,37.3,11.45,4.94,3.06,9.47-4.73,4.54-7.77Z"/><path d="M263,369.14c-15.9-8.3-36-10.78-53.48-7.79C193.44,364.1,178.64,375.16,169,388c-3.49,4.63,4.32,9.12,7.77,4.54-.12.16-.59.71.21-.25s1.39-1.65,2.12-2.45a79.62,79.62,0,0,1,7.14-7c7.34-6.35,16.05-11.26,25.7-12.87,15-2.5,32.88-.25,46.55,6.88,5.13,2.67,9.68-5.09,4.54-7.77Z"/><path d="M280.88,394.92c-32.59-8.3-67.26,18-78.32,47.57-2,5.43,6.67,7.78,8.68,2.39a21.87,21.87,0,0,1,1.18-2.61,76,76,0,0,1,4.64-8.2A74.45,74.45,0,0,1,238,412.5c11.24-7.49,27-12.36,40.52-8.9,5.62,1.43,8-7.25,2.4-8.68Z"/><path d="M362.68,344.35c12-6.65,26.62-10,40.16-10.51,17-.68,33.7,4.83,47.67,14.49,4.78,3.3,9.28-4.5,4.54-7.78-28.28-19.53-66.89-20.67-96.91-4-5.06,2.82-.53,10.6,4.54,7.77Z"/><path d="M362.29,378.07c13.69-6.38,34.18-8.66,50.13-5.53,9.76,1.91,18.62,6.93,26.11,13.37a83.39,83.39,0,0,1,7.39,7.17c.72.79,1.41,1.61,2.11,2.43.32.37,1.44,1.85.29.33,3.45,4.57,11.26.09,7.77-4.54-9.89-13.11-25-24.25-41.27-27.44-18.53-3.64-39.82-1.61-57.07,6.44-5.25,2.45-.68,10.21,4.54,7.77Z"/><path d="M340.6,404.3c13.47-2.94,30.2,1.87,42,9.5s23.65,21.38,28.1,33.52c2,5.39,10.68,3.06,8.68-2.39C408,414,371.75,388.31,338.21,395.62c-5.66,1.23-3.26,9.91,2.39,8.68Z"/><ellipse cx="286.35" cy="323.22" rx="12.24" ry="8.67" transform="translate(-40.2 605.77) rotate(-89.33)"/><ellipse cx="333.58" cy="321.85" rx="12.24" ry="8.67" transform="translate(7.84 651.63) rotate(-89.33)"/><rect class="cls-1" x="721" y="1" width="635" height="635"/><g class="cls-3"><path class="cls-4" d="M994.92,42.26v66.13l4.5-4.5H531.24c-21.6,0-43.39-.82-65,0-.3,0-.59,0-.89,0a4.57,4.57,0,0,0-4.5,4.5V350.87l4.5-4.5H275a4.57,4.57,0,0,0-4.5,4.5V519.2c0,5.79,9,5.8,9,0V350.87l-4.5,4.5H465.37a4.56,4.56,0,0,0,4.5-4.5V108.39l-4.5,4.5H933.55c21.61,0,43.4.83,65,0,.29,0,.59,0,.88,0a4.56,4.56,0,0,0,4.5-4.5V42.26c0-5.79-9-5.8-9,0Z"/><path class="cls-4" d="M943.82,42.26V161.5l4.5-4.5H643.49c-14,0-28.34-1-42.26,0h-.59a4.57,4.57,0,0,0-4.5,4.5V426l4.5-4.5H390.23a4.56,4.56,0,0,0-4.5,4.5V608.38a4.57,4.57,0,0,0,4.5,4.5H686.81a4.57,4.57,0,0,0,4.5-4.5V476.12l-4.5,4.5H824.08l-4.5-4.5V736.63l4.5-4.5H680.8c-5.79,0-5.8,9,0,9H824.08a4.57,4.57,0,0,0,4.5-4.5V476.12a4.56,4.56,0,0,0-4.5-4.5H686.81a4.57,4.57,0,0,0-4.5,4.5V608.38l4.5-4.5H390.23l4.5,4.5V426l-4.5,4.5H600.64a4.57,4.57,0,0,0,4.5-4.5V161.5l-4.5,4.5H905.48c13.94,0,28.34,1,42.25,0a5.8,5.8,0,0,1,.59,0,4.56,4.56,0,0,0,4.5-4.5V42.26c0-5.79-9-5.8-9,0Z"/></g></svg>