<svg width="635" height="636" viewBox="0 0 635 636" fill="none" xmlns="http://www.w3.org/2000/svg">
<g clip-path="url(#clip0_1_336)">
<path d="M634 1.5H0V635.5H634V1.5Z" fill="#B795F3"/>
<g filter="url(#filter0_d_1_336)">
<path d="M324.531 51.7865L325.16 51.1572C325.867 50.4503 326.329 49.7666 326.193 49.6299L284.261 7.69829C284.125 7.56167 283.441 8.02393 282.734 8.73077L282.105 9.3601C281.398 10.0669 280.935 10.7507 281.072 10.8873L323.004 52.819C323.14 52.9556 323.824 52.4934 324.531 51.7865Z" fill="#6F2E0E"/>
<path d="M165.85 338.58L130.92 338.91L135.42 343.41L489.41 356L493.99 338.58L130.92 261.91H509.21C514.02 261.91 519.83 262.8 524.59 261.91C524.823 261.89 525.057 261.89 525.29 261.91L520.79 257.41V343.41L525.29 338.91L493.99 338.58C493.009 338.596 490.431 338.045 489.65 338.638C488.869 339.232 489.927 340.939 489.65 341.88H273L335 539L417.91 572.44L422.25 569.13H237.51L241.84 572.44H417.91L179.09 370.5L280 569.13L450.94 344.26C449.22 338.75 159.78 338.68 161.51 344.23L185.82 422.5L224.26 546.16L233.17 574.82C233.447 575.761 234.018 576.589 234.798 577.182C235.579 577.776 236.529 578.105 237.51 578.12H422.25C423.231 578.105 424.181 577.776 424.961 577.182C425.742 576.589 426.313 575.761 426.59 574.82L450.94 496.58L489.41 372.92L498.33 344.26L494 347.58L525.3 347.91C526.488 347.892 527.622 347.412 528.462 346.572C529.302 345.732 529.782 344.598 529.8 343.41V257.41C529.782 256.222 529.302 255.088 528.462 254.248C527.622 253.408 526.488 252.928 525.3 252.91H147C141.92 252.91 136.69 252.56 131.62 252.91C131.39 252.91 131.15 252.91 130.92 252.91C129.732 252.928 128.598 253.408 127.758 254.248C126.918 255.088 126.438 256.222 126.42 257.41V343.41C126.438 344.598 126.918 345.732 127.758 346.572C128.598 347.412 129.732 347.892 130.92 347.91L165.85 347.58C171.63 347.5 171.65 338.5 165.85 338.58Z" fill="#8167AF"/>
<path d="M323.22 257.08C323.22 258.428 324.312 259.52 325.66 259.52C327.007 259.52 328.1 258.428 328.1 257.08L328.1 -227.66C328.1 -229.008 327.007 -230.1 325.66 -230.1C324.312 -230.1 323.22 -229.008 323.22 -227.66L323.22 257.08Z" fill="#6E2E0E"/>
<g filter="url(#filter1_d_1_336)">
<path d="M296.98 228.064C271.082 201.916 291.251 224.868 296.98 188.842L279.257 172.718L261.535 156.593C289.629 152.113 220.593 142.607 244.684 158.046C267.375 172.572 263.081 189.574 269.96 215.571C274.289 231.963 304.005 207.86 301.338 224.578L322.861 209.179L316.446 206.855C280.42 212.596 267.043 167.383 240.907 141.485C238.513 139.115 215.927 201.004 218.321 203.375C245.869 230.685 284.952 241.057 322.861 235.014C323.302 234.904 323.705 234.676 324.026 234.354C324.347 234.033 324.575 233.63 324.685 233.189C329.409 203.555 324.412 172.543 307.974 147.139C292.353 123.188 268.29 105.994 240.57 98.9745C223.527 94.6513 205.811 94.2504 188.489 97.0104C188.048 97.1212 187.645 97.3492 187.322 97.6704C187 97.9917 186.771 98.3941 186.659 98.835C180.627 136.744 191.011 175.826 218.315 203.369C220.686 205.769 299.351 230.458 296.98 228.064Z" fill="#77AA93"/>
</g>
<path d="M222.144 200C196.246 173.852 186.118 136.565 191.847 100.545L189.999 102.375C218.094 97.8952 250.518 143.769 274.609 159.208C255.365 138.58 274.609 128.702 274.609 159.208C281.927 167.052 322.424 215.404 319.757 232.121L321.581 230.291C285.555 236.038 248.268 225.898 222.132 200C219.738 197.624 216.037 201.325 218.436 203.696C245.985 231.006 285.067 241.378 322.976 235.335C323.417 235.224 323.819 234.995 324.14 234.674C324.461 234.353 324.689 233.951 324.801 233.51C329.525 203.876 324.527 172.864 308.089 147.454C292.468 123.505 268.405 106.312 240.685 99.2955C223.643 94.9666 205.926 94.5715 188.605 97.3315C188.163 97.4417 187.759 97.6695 187.437 97.9908C187.115 98.3121 186.886 98.7148 186.774 99.1561C180.76 137.059 191.161 176.147 218.471 203.696C220.796 206.09 224.514 202.406 222.144 200Z" fill="#406152"/>
<path d="M222.144 199.419C196.246 173.271 186.118 135.984 191.847 99.9638L189.999 101.794C218.094 97.3141 247.525 102.271 271.616 117.71C294.306 132.236 310.64 155.194 317.52 181.197C321.855 197.589 322.424 214.823 319.757 231.54L321.581 229.71C285.555 235.457 248.268 225.317 222.132 199.419C219.738 197.042 216.037 200.744 218.436 203.115C245.985 230.425 285.067 240.797 322.976 234.754C323.417 234.643 323.819 234.414 324.14 234.093C324.461 233.772 324.689 233.37 324.801 232.929C329.525 203.295 324.527 172.283 308.089 146.873C292.468 122.924 268.405 105.731 240.685 98.7145C223.643 94.3855 205.926 93.9904 188.605 96.7505C188.163 96.8606 187.759 97.0885 187.437 97.4098C187.115 97.7311 186.886 98.1338 186.774 98.575C180.76 136.478 191.161 175.566 218.471 203.115C220.796 205.509 224.514 201.825 222.144 199.419Z" fill="#1A1A1A"/>
<g filter="url(#filter2_d_1_336)">
<path d="M273.833 16.3257C255.138 17.8709 270.708 17.5157 258.518 3.47491L246.415 5.11191L234.313 6.74891C241.768 -5.68898 215.437 18.153 229.359 13.8046C242.465 9.70418 247.697 16.9515 260.102 22.7828C267.921 26.4631 268.246 6.96303 273.9 13.4817L274.939 0.0326692L271.929 1.77599C262.367 17.724 240.331 8.1334 221.655 9.85351C219.945 10.0115 236.711 39.1082 238.421 38.9502C258.11 37.1414 274.965 25.2792 285.026 8.49705C285.128 8.28881 285.171 8.05685 285.151 7.82603C285.13 7.59522 285.048 7.37425 284.912 7.18682C274.888 -4.36725 261.142 -12.5767 245.836 -14.4815C231.366 -16.2291 216.768 -12.467 204.945 -3.94323C197.673 1.29496 191.712 8.08142 187.115 15.7493C187.013 15.9579 186.97 16.19 186.99 16.4211C187.01 16.6521 187.092 16.8735 187.227 17.0618C200.053 31.8374 218.716 40.588 238.416 38.9506C240.13 38.8112 275.545 16.1844 273.833 16.3257Z" fill="#77AA93"/>
</g>
<path d="M238.355 36.352C219.66 37.8972 201.782 29.6351 189.595 15.5962L189.704 16.9174C197.16 4.47952 225.696 6.84904 239.617 2.5007C225.257 3.25641 227.706 -7.49434 239.617 2.5007C245.078 2.21332 277.226 2.24265 282.88 8.76135L282.763 7.44921C273.203 23.3992 257.027 34.6364 238.352 36.3565C236.639 36.5127 236.872 39.1707 238.584 39.0104C258.274 37.2015 275.129 25.3394 285.19 8.5572C285.29 8.3488 285.333 8.11695 285.313 7.88627C285.293 7.65558 285.211 7.43468 285.075 7.24697C275.051 -4.3071 261.305 -12.5165 245.997 -14.4233C231.528 -16.1704 216.93 -12.4075 205.109 -3.88308C197.834 1.35321 191.875 8.14157 187.278 15.8094C187.176 16.0179 187.133 16.2501 187.153 16.4812C187.173 16.7124 187.255 16.9338 187.391 17.1219C200.22 31.8888 218.891 40.6345 238.595 38.9968C240.292 38.8736 240.072 36.2145 238.355 36.352Z" fill="#406152"/>
<path d="M238.129 36.1616C219.433 37.7069 201.556 29.4447 189.368 15.4058L189.477 16.727C196.933 4.28915 208.511 -5.57879 222.433 -9.92713C235.539 -14.0276 249.855 -12.8834 262.263 -7.05018C270.083 -3.37209 276.999 2.05228 282.653 8.57098L282.536 7.25884C272.977 23.2088 256.801 34.446 238.125 36.1662C236.412 36.3223 236.645 38.9803 238.357 38.82C258.047 37.0112 274.902 25.149 284.963 8.36683C285.064 8.15843 285.106 7.92658 285.086 7.6959C285.066 7.46521 284.984 7.24431 284.848 7.0566C274.824 -4.49747 261.078 -12.7069 245.77 -14.6136C231.301 -16.3607 216.704 -12.5979 204.882 -4.07344C197.607 1.16284 191.648 7.9512 187.051 15.6191C186.949 15.8276 186.906 16.0598 186.926 16.2909C186.946 16.522 187.028 16.7434 187.164 16.9316C199.993 31.6985 218.664 40.4441 238.368 38.8064C240.065 38.6832 239.845 36.0241 238.129 36.1616Z" fill="#1A1A1A"/>
<g filter="url(#filter3_d_1_336)">
<path d="M459.064 32.5185C432.916 58.4166 455.868 38.2478 419.842 32.5185L403.717 50.241L387.593 67.9635C383.113 39.869 373.607 108.905 389.045 84.8145C403.572 62.1238 420.574 66.4179 446.571 59.5381C462.963 55.2092 438.86 25.4934 455.578 28.1605L440.179 6.63782L437.855 13.0528C443.596 49.0789 398.383 62.455 372.485 88.5914C370.114 90.9854 432.004 113.571 434.374 111.177C461.685 83.6291 472.057 44.5466 466.013 6.63782C465.904 6.19675 465.676 5.79391 465.354 5.4725C465.033 5.15108 464.63 4.92319 464.189 4.81328C434.555 0.0892181 403.543 5.08638 378.139 21.5247C354.188 37.146 336.994 61.2087 329.974 88.9284C325.651 105.971 325.25 123.688 328.01 141.009C328.121 141.451 328.349 141.854 328.67 142.176C328.991 142.498 329.394 142.728 329.835 142.84C367.744 148.871 406.826 138.488 434.369 111.183C436.768 108.812 461.458 30.1478 459.064 32.5185Z" fill="#77AA93"/>
</g>
<path d="M431 107.355C404.852 133.253 367.565 143.381 331.545 137.652L333.375 139.499C328.895 111.405 374.769 78.9806 390.208 54.8896C369.58 74.1338 359.702 54.8896 390.208 54.8896C398.052 47.5714 446.404 7.07443 463.121 9.74152L461.291 7.91696C467.038 43.9431 456.898 81.2301 431 107.366C428.623 109.76 432.325 113.462 434.695 111.062C462.006 83.5137 472.378 44.4312 466.334 6.52242C466.223 6.08189 465.995 5.67967 465.674 5.35843C465.353 5.0372 464.95 4.80894 464.51 4.69788C434.876 -0.0261993 403.864 4.97096 378.454 21.4093C354.505 37.0308 337.312 61.0937 330.295 88.813C325.966 105.856 325.571 123.572 328.331 140.894C328.441 141.336 328.669 141.739 328.991 142.061C329.312 142.384 329.715 142.613 330.156 142.724C368.059 148.738 407.147 138.337 434.695 111.027C437.089 108.703 433.405 104.984 431 107.355Z" fill="#406152"/>
<path d="M430.419 107.355C404.271 133.253 366.984 143.381 330.964 137.652L332.794 139.499C328.314 111.405 333.27 81.9738 348.709 57.8829C363.236 35.1922 386.194 18.8585 412.197 11.9786C428.588 7.64388 445.823 7.07443 462.54 9.74152L460.71 7.91696C466.456 43.9431 456.317 81.2301 430.419 107.366C428.042 109.76 431.744 113.462 434.114 111.062C461.424 83.5137 471.797 44.4312 465.753 6.52242C465.642 6.08189 465.414 5.67967 465.093 5.35843C464.772 5.0372 464.369 4.80894 463.929 4.69788C434.294 -0.0261993 403.283 4.97096 377.873 21.4093C353.924 37.0308 336.731 61.0937 329.714 88.813C325.385 105.856 324.99 123.572 327.75 140.894C327.86 141.336 328.088 141.739 328.41 142.061C328.731 142.384 329.134 142.613 329.575 142.724C367.478 148.738 406.566 138.337 434.114 111.027C436.508 108.703 432.824 104.984 430.419 107.355Z" fill="#1A1A1A"/>
</g>
<path d="M165.43 338.826L130.5 339.156L135 343.656V257.656L130.5 262.156H508.79C513.6 262.156 519.41 263.046 524.17 262.156C524.403 262.136 524.637 262.136 524.87 262.156L520.37 257.656V343.656L524.87 339.156L493.57 338.826C492.589 338.841 491.639 339.17 490.858 339.763C490.078 340.357 489.507 341.185 489.23 342.126L464.89 420.366L426.41 544.026L417.49 572.686L421.83 569.376H237.09L241.42 572.686L217.11 494.446L178.67 370.746L169.77 342.086C168.05 336.576 159.36 338.926 161.09 344.476L185.4 422.746L223.84 546.406L232.75 575.066C233.027 576.006 233.598 576.834 234.378 577.428C235.159 578.021 236.109 578.35 237.09 578.366H421.83C422.811 578.35 423.761 578.021 424.542 577.428C425.322 576.834 425.893 576.006 426.17 575.066L450.52 496.826L488.99 373.166L497.91 344.506L493.58 347.826L524.88 348.156C526.068 348.137 527.202 347.658 528.042 346.818C528.882 345.978 529.362 344.843 529.38 343.656V257.656C529.362 256.468 528.882 255.334 528.042 254.494C527.202 253.654 526.068 253.174 524.88 253.156H146.58C141.5 253.156 136.27 252.806 131.2 253.156C130.97 253.156 130.73 253.156 130.5 253.156C129.312 253.174 128.178 253.654 127.338 254.494C126.498 255.334 126.018 256.468 126 257.656V343.656C126.018 344.843 126.498 345.978 127.338 346.818C128.178 347.658 129.312 348.137 130.5 348.156L165.43 347.826C171.21 347.746 171.23 338.746 165.43 338.826Z" fill="black"/>
<path d="M521 340V262H129L493.651 340H521Z" fill="#795EA8"/>
</g>
<defs>
<filter id="filter0_d_1_336" x="122.42" y="-230.1" width="411.38" height="816.22" filterUnits="userSpaceOnUse" color-interpolation-filters="sRGB">
<feFlood flood-opacity="0" result="BackgroundImageFix"/>
<feColorMatrix in="SourceAlpha" type="matrix" values="0 0 0 0 0 0 0 0 0 0 0 0 0 0 0 0 0 0 127 0" result="hardAlpha"/>
<feOffset dy="4"/>
<feGaussianBlur stdDeviation="2"/>
<feComposite in2="hardAlpha" operator="out"/>
<feColorMatrix type="matrix" values="0 0 0 0 0 0 0 0 0 0 0 0 0 0 0 0 0 0 0.25 0"/>
<feBlend mode="normal" in2="BackgroundImageFix" result="effect1_dropShadow_1_336"/>
<feBlend mode="normal" in="SourceGraphic" in2="effect1_dropShadow_1_336" result="shape"/>
</filter>
<filter id="filter1_d_1_336" x="181" y="95.2618" width="149.383" height="149.417" filterUnits="userSpaceOnUse" color-interpolation-filters="sRGB">
<feFlood flood-opacity="0" result="BackgroundImageFix"/>
<feColorMatrix in="SourceAlpha" type="matrix" values="0 0 0 0 0 0 0 0 0 0 0 0 0 0 0 0 0 0 127 0" result="hardAlpha"/>
<feOffset dy="4"/>
<feGaussianBlur stdDeviation="2"/>
<feComposite in2="hardAlpha" operator="out"/>
<feColorMatrix type="matrix" values="0 0 0 0 0 0 0 0 0 0 0 0 0 0 0 0 0 0 0.25 0"/>
<feBlend mode="normal" in2="BackgroundImageFix" result="effect1_dropShadow_1_336"/>
<feBlend mode="normal" in="SourceGraphic" in2="effect1_dropShadow_1_336" result="shape"/>
</filter>
<filter id="filter2_d_1_336" x="182.985" y="-14.9003" width="106.17" height="62.0466" filterUnits="userSpaceOnUse" color-interpolation-filters="sRGB">
<feFlood flood-opacity="0" result="BackgroundImageFix"/>
<feColorMatrix in="SourceAlpha" type="matrix" values="0 0 0 0 0 0 0 0 0 0 0 0 0 0 0 0 0 0 127 0" result="hardAlpha"/>
<feOffset dy="4"/>
<feGaussianBlur stdDeviation="2"/>
<feComposite in2="hardAlpha" operator="out"/>
<feColorMatrix type="matrix" values="0 0 0 0 0 0 0 0 0 0 0 0 0 0 0 0 0 0 0.25 0"/>
<feBlend mode="normal" in2="BackgroundImageFix" result="effect1_dropShadow_1_336"/>
<feBlend mode="normal" in="SourceGraphic" in2="effect1_dropShadow_1_336" result="shape"/>
</filter>
<filter id="filter3_d_1_336" x="322.262" y="3.11542" width="149.417" height="149.383" filterUnits="userSpaceOnUse" color-interpolation-filters="sRGB">
<feFlood flood-opacity="0" result="BackgroundImageFix"/>
<feColorMatrix in="SourceAlpha" type="matrix" values="0 0 0 0 0 0 0 0 0 0 0 0 0 0 0 0 0 0 127 0" result="hardAlpha"/>
<feOffset dy="4"/>
<feGaussianBlur stdDeviation="2"/>
<feComposite in2="hardAlpha" operator="out"/>
<feColorMatrix type="matrix" values="0 0 0 0 0 0 0 0 0 0 0 0 0 0 0 0 0 0 0.25 0"/>
<feBlend mode="normal" in2="BackgroundImageFix" result="effect1_dropShadow_1_336"/>
<feBlend mode="normal" in="SourceGraphic" in2="effect1_dropShadow_1_336" result="shape"/>
</filter>
<clipPath id="clip0_1_336">
<rect width="635" height="635" fill="white" transform="translate(0 0.5)"/>
</clipPath>
</defs>
</svg>
