<svg width="635" height="636" viewBox="0 0 635 636" fill="none" xmlns="http://www.w3.org/2000/svg">
<g clip-path="url(#clip0_1_520)">
<mask id="mask0_1_520" style="mask-type:luminance" maskUnits="userSpaceOnUse" x="0" y="0" width="635" height="636">
<path d="M635 0.5H0V635.5H635V0.5Z" fill="white"/>
</mask>
<g mask="url(#mask0_1_520)">
<g filter="url(#filter0_d_1_520)">
<path d="M474.584 507.881C474.58 507.969 474.576 508.057 474.571 508.144C474.171 515.182 468.659 519.732 461.784 519.796C459.607 519.796 457.431 519.796 455.286 519.796H251.097C244.6 519.796 238.037 519.836 231.515 519.796C223.507 519.747 218.318 514.306 218.277 506.411C218.212 493.571 218.277 480.73 218.277 467.89V84.0467C218.277 76.3391 223.077 70.4427 231.191 70.3777C237.501 70.329 243.812 70.3777 250.122 70.3777H454.629C462.287 70.3777 471.489 69.5655 474.121 79.1411C474.974 82.203 474.559 85.8659 474.559 89.0009V507.881C474.559 507.971 474.563 508.059 474.571 508.144C474.836 511.014 479.433 510.934 479.433 507.881V85.8903C479.433 77.9797 477.313 70.3615 469.199 66.8691C464.155 64.7006 457.585 65.5047 452.208 65.5047H279.052C262.809 65.5047 246.468 65.0011 230.224 65.5047C219.544 65.8376 213.404 74.3574 213.404 84.3472V497.745C213.404 501.051 213.315 504.381 213.404 507.686C213.696 518.537 222.2 524.701 232.368 524.701H458.771C460.054 524.701 461.353 524.742 462.637 524.701C467.067 524.62 471.293 522.827 474.429 519.697C477.565 516.567 479.367 512.344 479.457 507.914C479.554 504.746 474.681 504.746 474.584 507.881Z" fill="black"/>
<path d="M461.784 519.796C468.659 519.732 474.171 515.182 474.571 508.144C474.563 508.059 474.559 507.971 474.559 507.881V89.0009C474.559 85.8659 474.974 82.203 474.121 79.1411C471.489 69.5655 462.287 70.3777 454.629 70.3777H250.122C243.812 70.3777 237.501 70.329 231.191 70.3777C223.077 70.4427 218.277 76.3391 218.277 84.0467V467.89C218.277 480.73 218.212 493.571 218.277 506.411C218.318 514.306 223.507 519.747 231.515 519.796C238.037 519.836 244.6 519.796 251.097 519.796H455.286H461.784Z" fill="#EDF5F2"/>
<path d="M346.731 618H348.412C350.538 618 352.262 616.626 352.262 614.931L352.262 51.069C352.262 49.374 350.538 48 348.412 48H346.731C344.605 48 342.881 49.374 342.881 51.069L342.881 614.931C342.881 616.626 344.605 618 346.731 618Z" fill="#7D4529"/>
<g filter="url(#filter1_d_1_520)">
<path d="M315.937 584.429C288.199 556.423 309.801 581.006 315.937 542.42L296.955 525.15L277.974 507.879C308.065 503.081 234.122 492.899 259.925 509.435C284.228 524.994 279.629 543.204 286.998 571.049C291.634 588.605 323.462 562.79 320.605 580.695L343.657 564.203L336.786 561.713C298.2 567.862 283.874 519.437 255.88 491.698C253.316 489.159 229.125 555.446 231.689 557.985C261.195 587.236 303.055 598.345 343.657 591.873C344.129 591.755 344.561 591.511 344.905 591.166C345.249 590.822 345.494 590.391 345.611 589.918C350.671 558.178 345.319 524.963 327.712 497.754C310.981 472.101 285.208 453.685 255.519 446.167C237.265 441.536 218.29 441.107 199.737 444.063C199.265 444.182 198.833 444.426 198.488 444.77C198.143 445.114 197.897 445.545 197.777 446.017C191.317 486.62 202.438 528.479 231.683 557.979C234.222 560.549 318.477 586.993 315.937 584.429Z" fill="#77AA93"/>
</g>
<path d="M235.783 554.371C208.045 526.365 197.197 486.428 203.334 447.849L201.355 449.809C231.445 445.011 266.174 494.144 291.976 510.68C271.365 488.586 291.976 478.006 291.976 510.68C299.815 519.082 343.189 570.87 340.333 588.775L342.287 586.814C303.701 592.969 263.764 582.109 235.771 554.371C233.207 551.826 229.242 555.79 231.813 558.329C261.318 587.58 303.178 598.689 343.781 592.216C344.252 592.097 344.683 591.853 345.027 591.509C345.371 591.165 345.616 590.734 345.735 590.262C350.795 558.522 345.442 525.307 327.836 498.091C311.104 472.44 285.332 454.026 255.643 446.511C237.389 441.874 218.413 441.451 199.861 444.407C199.388 444.525 198.956 444.769 198.611 445.113C198.265 445.457 198.02 445.889 197.9 446.361C191.459 486.957 202.599 528.823 231.85 558.329C234.339 560.893 238.322 556.948 235.783 554.371Z" fill="#406152"/>
<path d="M235.783 553.749C208.045 525.743 197.197 485.806 203.334 447.226L201.355 449.187C231.445 444.388 262.968 449.697 288.771 466.233C313.074 481.792 330.568 506.381 337.937 534.232C342.579 551.788 343.189 570.247 340.333 588.152L342.287 586.192C303.701 592.347 263.764 581.487 235.771 553.749C233.207 551.203 229.242 555.168 231.813 557.707C261.318 586.958 303.178 598.067 343.781 591.594C344.252 591.475 344.683 591.231 345.027 590.887C345.371 590.542 345.616 590.112 345.735 589.64C350.795 557.9 345.442 524.685 327.836 497.469C311.104 471.818 285.332 453.404 255.643 445.888C237.389 441.252 218.413 440.828 199.861 443.785C199.388 443.903 198.956 444.147 198.611 444.491C198.265 444.835 198.02 445.266 197.9 445.739C191.459 486.335 202.599 528.201 231.85 557.707C234.339 560.271 238.322 556.325 235.783 553.749Z" fill="#1A1A1A"/>
<g filter="url(#filter2_d_1_520)">
<path d="M478.281 378.901C452.68 404.257 475.152 384.511 439.879 378.901L424.092 396.253L408.305 413.605C403.918 386.098 394.611 453.69 409.727 430.103C423.95 407.887 440.596 412.091 466.049 405.355C482.098 401.117 458.5 372.023 474.867 374.634L459.791 353.562L457.516 359.842C463.136 395.115 418.869 408.211 393.513 433.801C391.192 436.145 451.787 458.259 454.108 455.915C480.847 428.943 491.002 390.678 485.085 353.562C484.977 353.13 484.754 352.735 484.44 352.421C484.125 352.106 483.731 351.883 483.299 351.775C454.284 347.15 423.921 352.043 399.048 368.137C375.599 383.432 358.764 406.991 351.891 434.131C347.659 450.817 347.266 468.163 349.968 485.123C350.077 485.555 350.3 485.95 350.615 486.265C350.929 486.581 351.323 486.805 351.755 486.915C388.871 492.82 427.136 482.654 454.102 455.92C456.452 453.599 480.625 376.58 478.281 378.901Z" fill="#77AA93"/>
</g>
<path d="M450.804 452.172C425.203 477.529 388.696 487.445 353.429 481.835L355.221 483.644C350.835 456.137 395.749 424.391 410.865 400.804C390.668 419.646 380.997 400.804 410.865 400.804C418.545 393.639 465.886 353.989 482.253 356.6L480.461 354.814C486.088 390.087 476.16 426.594 450.804 452.184C448.477 454.527 452.101 458.151 454.422 455.802C481.161 428.83 491.316 390.565 485.4 353.449C485.291 353.017 485.067 352.624 484.753 352.309C484.438 351.995 484.044 351.771 483.613 351.662C454.599 347.037 424.236 351.93 399.357 368.024C375.909 383.319 359.076 406.879 352.206 434.018C347.967 450.704 347.58 468.05 350.283 485.01C350.391 485.442 350.614 485.837 350.928 486.153C351.243 486.468 351.637 486.693 352.069 486.802C389.179 492.69 427.45 482.507 454.422 455.768C456.766 453.492 453.159 449.851 450.804 452.172Z" fill="#406152"/>
<path d="M450.235 452.172C424.634 477.529 388.127 487.445 352.86 481.835L354.652 483.644C350.266 456.137 355.119 427.322 370.235 403.735C384.457 381.519 406.935 365.527 432.394 358.791C448.443 354.547 465.317 353.989 481.685 356.6L479.892 354.814C485.519 390.087 475.591 426.594 450.235 452.184C447.908 454.527 451.532 458.151 453.853 455.802C480.592 428.83 490.747 390.565 484.831 353.449C484.722 353.017 484.498 352.624 484.184 352.309C483.869 351.995 483.476 351.771 483.044 351.662C454.03 347.037 423.667 351.93 398.788 368.024C375.34 383.319 358.507 406.879 351.637 434.018C347.398 450.704 347.012 468.05 349.714 485.01C349.822 485.442 350.045 485.837 350.359 486.153C350.674 486.468 351.068 486.693 351.5 486.802C388.61 492.69 426.881 482.507 453.853 455.768C456.197 453.492 452.59 449.851 450.235 452.172Z" fill="#1A1A1A"/>
<g filter="url(#filter3_d_1_520)">
<path d="M443.308 216.808C423.99 235.942 440.947 221.041 414.33 216.808L402.418 229.902L390.505 242.995C387.195 222.239 380.172 273.243 391.578 255.444C402.31 238.681 414.871 241.853 434.078 236.77C446.188 233.572 428.381 211.618 440.732 213.588L429.356 197.688L427.639 202.427C431.88 229.043 398.477 238.925 379.343 258.235C377.592 260.003 423.316 276.69 425.067 274.921C445.244 254.569 452.907 225.694 448.442 197.688C448.361 197.362 448.192 197.064 447.955 196.827C447.717 196.589 447.42 196.421 447.094 196.34C425.2 192.849 402.289 196.541 383.52 208.686C365.826 220.227 353.122 238.004 347.936 258.484C344.742 271.075 344.446 284.164 346.485 296.961C346.567 297.287 346.736 297.585 346.973 297.823C347.21 298.061 347.507 298.231 347.833 298.313C375.84 302.769 404.714 295.098 425.063 274.926C426.836 273.174 445.076 215.057 443.308 216.808Z" fill="#77AA93"/>
</g>
<path d="M422.574 272.097C403.256 291.231 375.708 298.713 349.096 294.481L350.449 295.846C347.139 275.089 381.03 251.134 392.437 233.336C377.197 247.554 369.899 233.336 392.437 233.336C398.232 227.929 433.954 198.01 446.305 199.981L444.953 198.633C449.199 225.249 441.707 252.796 422.574 272.106C420.818 273.875 423.553 276.609 425.304 274.836C445.481 254.483 453.144 225.609 448.679 197.602C448.597 197.277 448.428 196.98 448.191 196.742C447.954 196.505 447.657 196.336 447.331 196.254C425.437 192.764 402.526 196.456 383.753 208.601C366.059 220.142 353.358 237.92 348.173 258.399C344.975 270.99 344.683 284.079 346.722 296.876C346.804 297.202 346.972 297.5 347.21 297.738C347.447 297.977 347.744 298.146 348.07 298.228C376.073 302.671 404.952 294.987 425.304 274.81C427.073 273.093 424.351 270.346 422.574 272.097Z" fill="#406152"/>
<path d="M422.145 272.097C402.827 291.231 375.279 298.713 348.667 294.481L350.019 295.846C346.71 275.089 350.371 253.346 361.778 235.547C372.51 218.784 389.471 206.716 408.682 201.633C420.792 198.431 433.525 198.01 445.876 199.981L444.524 198.633C448.769 225.249 441.278 252.796 422.145 272.106C420.389 273.875 423.123 276.609 424.875 274.836C445.052 254.483 452.715 225.609 448.25 197.602C448.168 197.277 447.999 196.98 447.762 196.742C447.525 196.505 447.227 196.336 446.902 196.254C425.008 192.764 402.097 196.456 383.324 208.601C365.63 220.142 352.928 237.92 347.744 258.399C344.546 270.99 344.254 284.079 346.293 296.876C346.375 297.202 346.543 297.5 346.78 297.738C347.018 297.977 347.315 298.146 347.641 298.228C375.644 302.671 404.522 294.987 424.875 274.81C426.644 273.093 423.922 270.346 422.145 272.097Z" fill="#1A1A1A"/>
<g filter="url(#filter4_d_1_520)">
<path d="M423.44 40.8445C407.633 56.5005 421.508 44.308 399.73 40.8445L389.982 51.5582L380.234 62.2719C377.526 45.2881 371.779 87.0222 381.112 72.4586C389.894 58.7416 400.172 61.3375 415.888 57.1785C425.797 54.5615 411.227 36.5977 421.333 38.21L412.024 25.1991L410.619 29.0771C414.089 50.8557 386.757 58.9418 371.101 74.7419C369.668 76.1891 407.082 89.8428 408.515 88.3956C425.024 71.742 431.295 48.1158 427.641 25.1991C427.575 24.9324 427.437 24.6889 427.243 24.4946C427.049 24.3003 426.805 24.1625 426.538 24.0961C408.624 21.2403 389.877 24.2612 374.519 34.1986C360.04 43.6419 349.646 58.1884 345.403 74.9456C342.789 85.2483 342.547 95.9584 344.215 106.43C344.282 106.696 344.42 106.94 344.614 107.135C344.808 107.33 345.052 107.468 345.318 107.536C368.235 111.182 391.861 104.905 408.511 88.3991C409.962 86.966 424.887 39.4114 423.44 40.8445Z" fill="#77AA93"/>
</g>
<path d="M406.475 86.0848C390.668 101.741 368.127 107.863 346.352 104.4L347.458 105.517C344.75 88.5331 372.482 68.932 381.815 54.3684C369.345 66.002 363.373 54.3684 381.815 54.3684C386.557 49.9444 415.787 25.4631 425.893 27.0754L424.786 25.9724C428.26 47.751 422.131 70.2918 406.475 86.0918C405.038 87.5391 407.276 89.7766 408.709 88.3259C425.219 71.6723 431.489 48.046 427.835 25.1294C427.768 24.8631 427.63 24.6199 427.436 24.4257C427.242 24.2315 426.999 24.0935 426.732 24.0264C408.818 21.1706 390.071 24.1915 374.71 34.1288C360.232 43.5723 349.839 58.1189 345.597 74.8759C342.98 85.1785 342.741 95.8887 344.409 106.36C344.476 106.627 344.614 106.871 344.808 107.066C345.002 107.261 345.246 107.399 345.512 107.466C368.426 111.102 392.055 104.814 408.709 88.3048C410.156 86.8997 407.929 84.6516 406.475 86.0848Z" fill="#406152"/>
<path d="M406.124 86.0848C390.317 101.741 367.776 107.863 346.001 104.4L347.107 105.517C344.399 88.5331 347.395 70.7414 356.728 56.1779C365.51 42.4609 379.389 32.5868 395.108 28.4278C405.017 25.8073 415.436 25.4631 425.542 27.0754L424.435 25.9724C427.909 47.751 421.78 70.2918 406.124 86.0918C404.687 87.5391 406.925 89.7766 408.358 88.3259C424.867 71.6723 431.137 48.046 427.484 25.1294C427.417 24.8631 427.279 24.6199 427.085 24.4257C426.891 24.2315 426.648 24.0935 426.381 24.0264C408.467 21.1706 389.719 24.1915 374.359 34.1288C359.881 43.5723 349.487 58.1189 345.245 74.8759C342.629 85.1785 342.39 95.8887 344.058 106.36C344.125 106.627 344.262 106.871 344.457 107.066C344.651 107.261 344.894 107.399 345.161 107.466C368.074 111.102 391.704 104.814 408.358 88.3048C409.805 86.8997 407.578 84.6516 406.124 86.0848Z" fill="#1A1A1A"/>
<g filter="url(#filter5_d_1_520)">
<path d="M326.325 387.361C306.823 367.671 322.011 384.955 326.325 357.826L312.979 345.683L299.634 333.541C320.79 330.167 268.803 323.009 286.944 334.635C304.031 345.574 300.797 358.377 305.978 377.954C309.238 390.297 331.615 372.147 329.607 384.736L345.814 373.14L340.983 371.39C313.854 375.713 303.782 341.667 284.1 322.164C282.297 320.379 265.289 366.984 267.092 368.769C287.837 389.335 317.267 397.145 345.814 392.594C346.146 392.512 346.449 392.34 346.691 392.098C346.933 391.856 347.105 391.553 347.188 391.22C350.745 368.905 346.982 345.552 334.604 326.422C322.84 308.386 304.72 295.438 283.846 290.152C271.013 286.897 257.671 286.595 244.628 288.673C244.295 288.757 243.992 288.928 243.749 289.17C243.506 289.412 243.334 289.715 243.249 290.047C238.707 318.594 246.527 348.024 267.088 368.765C268.873 370.572 328.11 389.164 326.325 387.361Z" fill="#77AA93"/>
</g>
<path d="M269.971 366.228C250.468 346.538 242.842 318.459 247.156 291.335L245.765 292.713C266.921 289.34 291.337 323.884 309.479 335.51C294.987 319.977 309.479 312.538 309.479 335.51C314.989 341.417 345.485 377.828 343.477 390.416L344.851 389.038C317.722 393.366 289.643 385.73 269.962 366.228C268.159 364.438 265.372 367.226 267.179 369.011C287.924 389.576 317.354 397.387 345.901 392.836C346.232 392.753 346.535 392.581 346.777 392.339C347.019 392.097 347.191 391.794 347.275 391.462C350.832 369.147 347.069 345.794 334.69 326.659C322.927 308.625 304.807 295.678 283.933 290.394C271.099 287.134 257.758 286.837 244.714 288.915C244.382 288.998 244.078 289.17 243.835 289.412C243.593 289.654 243.42 289.957 243.336 290.289C238.807 318.831 246.64 348.266 267.205 369.011C268.955 370.814 271.756 368.04 269.971 366.228Z" fill="#406152"/>
<path d="M269.971 365.79C250.468 346.1 242.842 318.022 247.156 290.897L245.765 292.276C266.921 288.902 289.083 292.634 307.225 304.26C324.311 315.199 336.611 332.488 341.792 352.068C345.056 364.412 345.485 377.39 343.477 389.979L344.851 388.601C317.722 392.928 289.643 385.293 269.962 365.79C268.159 364.001 265.372 366.788 267.179 368.573C287.924 389.139 317.354 396.949 345.901 392.399C346.232 392.315 346.535 392.143 346.777 391.901C347.019 391.659 347.191 391.356 347.275 391.025C350.832 368.709 347.069 345.356 334.69 326.222C322.927 308.187 304.807 295.241 283.933 289.957C271.099 286.697 257.758 286.399 244.714 288.478C244.382 288.56 244.078 288.732 243.835 288.974C243.593 289.216 243.42 289.519 243.336 289.851C238.807 318.394 246.64 347.829 267.205 368.573C268.955 370.376 271.756 367.602 269.971 365.79Z" fill="#1A1A1A"/>
<g filter="url(#filter6_d_1_520)">
<path d="M329.497 190.465C313.656 174.47 325.993 188.51 329.497 166.473L318.656 156.61L307.816 146.747C325.001 144.006 282.772 138.191 297.508 147.635C311.388 156.521 308.761 166.921 312.97 182.823C315.618 192.85 333.794 178.106 332.163 188.332L345.328 178.913L341.404 177.492C319.367 181.003 311.185 153.347 295.198 137.505C293.734 136.055 279.918 173.912 281.382 175.362C298.233 192.068 322.14 198.412 345.328 194.716C345.598 194.649 345.844 194.509 346.041 194.312C346.238 194.116 346.377 193.869 346.444 193.6C349.334 175.473 346.277 156.503 336.222 140.964C326.667 126.313 311.948 115.796 294.992 111.502C284.567 108.858 273.73 108.612 263.134 110.301C262.864 110.368 262.618 110.508 262.421 110.704C262.224 110.901 262.083 111.147 262.015 111.417C258.325 134.605 264.677 158.511 281.379 175.359C282.829 176.827 330.947 191.929 329.497 190.465Z" fill="#77AA93"/>
</g>
<path d="M283.72 173.298C267.879 157.304 261.684 134.496 265.188 112.463L264.058 113.582C281.243 110.842 301.077 138.902 315.813 148.346C304.041 135.728 315.813 129.686 315.813 148.346C320.289 153.144 345.061 182.721 343.43 192.947L344.546 191.827C322.509 195.342 299.701 189.14 283.713 173.298C282.249 171.845 279.985 174.109 281.453 175.559C298.304 192.264 322.21 198.609 345.399 194.912C345.668 194.844 345.914 194.705 346.111 194.508C346.307 194.312 346.447 194.066 346.515 193.796C349.404 175.669 346.348 156.7 336.292 141.157C326.737 126.507 312.018 115.991 295.062 111.698C284.638 109.05 273.8 108.809 263.205 110.497C262.935 110.564 262.688 110.704 262.491 110.9C262.294 111.097 262.154 111.343 262.085 111.613C258.407 134.798 264.769 158.708 281.474 175.559C282.896 177.023 285.171 174.77 283.72 173.298Z" fill="#406152"/>
<path d="M283.72 172.943C267.879 156.948 261.684 134.14 265.188 112.107L264.058 113.227C281.243 110.486 299.246 113.518 313.982 122.962C327.862 131.848 337.853 145.891 342.061 161.797C344.713 171.823 345.061 182.365 343.43 192.591L344.546 191.472C322.509 194.987 299.701 188.784 283.713 172.943C282.249 171.489 279.985 173.753 281.453 175.203C298.304 191.909 322.21 198.253 345.399 194.557C345.668 194.489 345.914 194.349 346.111 194.153C346.307 193.956 346.447 193.71 346.515 193.441C349.404 175.314 346.348 156.344 336.292 140.801C326.737 126.152 312.018 115.635 295.062 111.343C284.638 108.695 273.8 108.453 263.205 110.142C262.935 110.209 262.688 110.348 262.491 110.545C262.294 110.741 262.154 110.988 262.085 111.258C258.407 134.442 264.769 158.352 281.474 175.203C282.896 176.668 285.171 174.414 283.72 172.943Z" fill="#1A1A1A"/>
<path fill-rule="evenodd" clip-rule="evenodd" d="M474.571 508.144C474.576 508.057 474.58 507.969 474.584 507.881C474.676 504.911 479.056 504.755 479.433 507.441V507.881C479.433 510.934 474.836 511.014 474.571 508.144ZM461.784 519.796C468.659 519.732 474.171 515.182 474.571 508.144C474.563 508.059 474.559 507.971 474.559 507.881V89.0009C474.559 88.2431 474.584 87.4545 474.608 86.6509C474.686 84.1302 474.768 81.4629 474.121 79.1411C471.679 70.2538 463.576 70.3146 456.301 70.3693C455.738 70.3735 455.179 70.3777 454.629 70.3777H250.122C248.019 70.3777 245.915 70.3723 243.812 70.3669C239.605 70.3561 235.398 70.3452 231.191 70.3777C223.077 70.4427 218.277 76.3391 218.277 84.0467V467.89C218.277 472.17 218.27 476.45 218.263 480.73C218.248 489.29 218.234 497.851 218.277 506.411C218.318 514.306 223.507 519.747 231.515 519.796C235.867 519.823 240.236 519.814 244.592 519.805C246.765 519.8 248.935 519.796 251.097 519.796H455.286H461.784ZM479.433 85.8903V507.441C479.453 507.59 479.462 507.747 479.457 507.914C479.367 512.344 477.565 516.567 474.429 519.697C471.293 522.827 467.067 524.62 462.637 524.701C461.781 524.729 460.917 524.719 460.056 524.71C459.627 524.706 459.198 524.701 458.771 524.701H232.368C222.2 524.701 213.696 518.537 213.404 507.686C213.344 505.482 213.364 503.266 213.384 501.054C213.394 499.95 213.404 498.846 213.404 497.745V84.3472C213.404 74.3574 219.544 65.8376 230.224 65.5047C241.057 65.1688 251.933 65.2809 262.794 65.3929C268.22 65.4488 273.641 65.5047 279.052 65.5047H452.208C453.326 65.5047 454.496 65.4699 455.693 65.4343C460.252 65.2988 465.204 65.1516 469.199 66.8691C477.313 70.3615 479.433 77.9797 479.433 85.8903Z" fill="black"/>
<path d="M474.571 508.144C474.836 511.014 479.433 510.934 479.433 507.881V507.441C479.056 504.755 474.676 504.911 474.584 507.881C474.58 507.969 474.576 508.057 474.571 508.144Z" fill="black"/>
<path d="M506.202 22.6867H188.949C185.148 22.6974 181.505 24.2117 178.816 26.899C176.127 29.5863 174.611 33.2283 174.598 37.0297V602.305C174.609 606.108 176.124 609.752 178.813 612.441C181.502 615.13 185.146 616.645 188.949 616.656H506.202C510.005 616.645 513.649 615.13 516.338 612.441C519.027 609.752 520.542 606.108 520.553 602.305V37.0297C520.54 33.2283 519.024 29.5863 516.335 26.899C513.646 24.2117 510.003 22.6974 506.202 22.6867ZM477.02 507.881C477.01 511.684 475.494 515.328 472.805 518.017C470.116 520.706 466.472 522.222 462.669 522.232H230.216C226.413 522.222 222.769 520.706 220.08 518.017C217.391 515.328 215.876 511.684 215.865 507.881V82.3005C215.876 78.4968 217.391 74.852 220.08 72.1616C222.768 69.4713 226.412 67.954 230.216 67.9412H462.669C466.473 67.954 470.117 69.4713 472.806 72.1616C475.495 74.852 477.01 78.4968 477.02 82.3005V507.881Z" fill="#B49D9D"/>
<path d="M506.202 20.2502H209.952C203.057 20.2502 196.145 20.0552 189.225 20.2502C179.788 20.51 172.462 27.5597 172.17 37.0622C172.17 38.0693 172.17 39.0845 172.17 40.0916V559.178C172.17 573.465 171.788 587.808 172.17 602.094C172.19 606.566 173.958 610.853 177.096 614.04C180.234 617.227 184.494 619.06 188.965 619.149C190.59 619.206 192.214 619.149 193.839 619.149H499.664C501.767 619.149 503.879 619.214 505.974 619.149C510.454 619.129 514.747 617.355 517.935 614.208C521.123 611.062 522.952 606.792 523.03 602.313C523.469 589.018 523.03 575.641 523.03 562.346V41.18C523.03 39.8886 523.03 38.5891 523.03 37.2977C523.008 32.8273 521.24 28.5424 518.104 25.3564C514.968 22.1703 510.712 20.3352 506.242 20.242C503.107 20.1202 503.107 24.9933 506.242 25.1151C513.552 25.3994 518.1 31.0927 518.157 38.0612C518.157 39.8805 518.157 41.6916 518.157 43.5109V591.235C518.157 594.906 518.32 598.609 518.157 602.281C517.84 609.59 512.228 614.195 505.162 614.252C502.376 614.252 499.591 614.252 496.805 614.252H193.051C191.081 614.35 189.107 614.293 187.146 614.081C180.649 613.042 177.148 607.389 177.108 601.225C177.108 595.97 177.108 590.723 177.108 585.469V40.0916C177.108 39.0845 177.108 38.0693 177.108 37.0622C177.433 29.6389 183.142 25.1719 190.216 25.1232C214.314 24.9689 238.419 25.1232 262.5 25.1232H506.202C509.337 25.1232 509.337 20.2502 506.202 20.2502Z" fill="black"/>
<path d="M372.014 562.679C372.014 562.676 372.014 562.673 372.014 562.671C372.014 562.668 372.014 562.665 372.014 562.663C371.956 556.952 369.925 551.438 366.266 547.053C362.607 542.669 357.545 539.685 351.937 538.606C329.968 534.61 314.382 561.298 328.863 578.403C332.088 582.242 336.417 584.997 341.261 586.292C346.105 587.588 351.231 587.362 355.942 585.645C360.654 583.929 364.723 580.804 367.598 576.695C370.473 572.587 372.015 567.693 372.014 562.679Z" fill="#947D7D"/>
<path fill-rule="evenodd" clip-rule="evenodd" d="M371.588 545.855C375.039 550.786 376.889 556.66 376.887 562.679C374.854 564.672 373.532 563.143 372.785 562.278C372.287 561.702 372.043 561.421 372.014 562.671L372.014 562.663C371.956 556.952 369.925 551.438 366.266 547.053C362.607 542.669 357.545 539.685 351.937 538.606C329.968 534.61 314.382 561.298 328.863 578.403C332.088 582.242 336.417 584.997 341.261 586.292C346.105 587.588 351.231 587.362 355.942 585.645C360.654 583.929 364.723 580.804 367.598 576.695C370.473 572.587 372.015 567.693 372.014 562.679L372.014 562.671C372.083 565.617 376.363 565.806 376.844 563.231C376.861 563.139 376.873 563.043 376.88 562.944C376.478 576.845 366.638 589.114 352.692 591.535C346.766 592.587 340.66 591.79 335.202 589.252C329.745 586.713 325.201 582.557 322.187 577.347C319.174 572.136 317.837 566.125 318.358 560.129C318.879 554.132 321.233 548.442 325.1 543.83C328.967 539.217 334.16 535.907 339.974 534.348C345.787 532.789 351.94 533.057 357.595 535.116C363.251 537.174 368.137 540.924 371.588 545.855ZM376.88 562.944C376.887 562.858 376.889 562.77 376.887 562.679C376.886 562.749 376.884 562.819 376.882 562.889C376.882 562.907 376.881 562.925 376.88 562.944Z" fill="black"/>
<path d="M376.887 562.679C374.854 564.672 373.532 563.143 372.785 562.278C372.287 561.702 372.043 561.421 372.014 562.671C372.083 565.617 376.363 565.806 376.844 563.231C376.861 563.139 376.873 563.043 376.88 562.944L376.882 562.889C376.884 562.819 376.886 562.749 376.887 562.679Z" fill="black"/>
</g>
</g>
</g>
<defs>
<filter id="filter0_d_1_520" x="168" y="20.1635" width="359.225" height="607.015" filterUnits="userSpaceOnUse" color-interpolation-filters="sRGB">
<feFlood flood-opacity="0" result="BackgroundImageFix"/>
<feColorMatrix in="SourceAlpha" type="matrix" values="0 0 0 0 0 0 0 0 0 0 0 0 0 0 0 0 0 0 127 0" result="hardAlpha"/>
<feOffset dy="4"/>
<feGaussianBlur stdDeviation="2"/>
<feComposite in2="hardAlpha" operator="out"/>
<feColorMatrix type="matrix" values="0 0 0 0 0 0 0 0 0 0 0 0 0 0 0 0 0 0 0.25 0"/>
<feBlend mode="normal" in2="BackgroundImageFix" result="effect1_dropShadow_1_520"/>
<feBlend mode="normal" in="SourceGraphic" in2="effect1_dropShadow_1_520" result="shape"/>
</filter>
<filter id="filter1_d_1_520" x="192" y="442.19" width="159.43" height="159.466" filterUnits="userSpaceOnUse" color-interpolation-filters="sRGB">
<feFlood flood-opacity="0" result="BackgroundImageFix"/>
<feColorMatrix in="SourceAlpha" type="matrix" values="0 0 0 0 0 0 0 0 0 0 0 0 0 0 0 0 0 0 127 0" result="hardAlpha"/>
<feOffset dy="4"/>
<feGaussianBlur stdDeviation="2"/>
<feComposite in2="hardAlpha" operator="out"/>
<feColorMatrix type="matrix" values="0 0 0 0 0 0 0 0 0 0 0 0 0 0 0 0 0 0 0.25 0"/>
<feBlend mode="normal" in2="BackgroundImageFix" result="effect1_dropShadow_1_520"/>
<feBlend mode="normal" in="SourceGraphic" in2="effect1_dropShadow_1_520" result="shape"/>
</filter>
<filter id="filter2_d_1_520" x="344.256" y="350.113" width="146.459" height="146.426" filterUnits="userSpaceOnUse" color-interpolation-filters="sRGB">
<feFlood flood-opacity="0" result="BackgroundImageFix"/>
<feColorMatrix in="SourceAlpha" type="matrix" values="0 0 0 0 0 0 0 0 0 0 0 0 0 0 0 0 0 0 127 0" result="hardAlpha"/>
<feOffset dy="4"/>
<feGaussianBlur stdDeviation="2"/>
<feComposite in2="hardAlpha" operator="out"/>
<feColorMatrix type="matrix" values="0 0 0 0 0 0 0 0 0 0 0 0 0 0 0 0 0 0 0.25 0"/>
<feBlend mode="normal" in2="BackgroundImageFix" result="effect1_dropShadow_1_520"/>
<feBlend mode="normal" in="SourceGraphic" in2="effect1_dropShadow_1_520" result="shape"/>
</filter>
<filter id="filter3_d_1_520" x="341.193" y="195.085" width="112.479" height="112.454" filterUnits="userSpaceOnUse" color-interpolation-filters="sRGB">
<feFlood flood-opacity="0" result="BackgroundImageFix"/>
<feColorMatrix in="SourceAlpha" type="matrix" values="0 0 0 0 0 0 0 0 0 0 0 0 0 0 0 0 0 0 127 0" result="hardAlpha"/>
<feOffset dy="4"/>
<feGaussianBlur stdDeviation="2"/>
<feComposite in2="hardAlpha" operator="out"/>
<feColorMatrix type="matrix" values="0 0 0 0 0 0 0 0 0 0 0 0 0 0 0 0 0 0 0.25 0"/>
<feBlend mode="normal" in2="BackgroundImageFix" result="effect1_dropShadow_1_520"/>
<feBlend mode="normal" in="SourceGraphic" in2="effect1_dropShadow_1_520" result="shape"/>
</filter>
<filter id="filter4_d_1_520" x="339.158" y="23.0697" width="93.4898" height="93.4694" filterUnits="userSpaceOnUse" color-interpolation-filters="sRGB">
<feFlood flood-opacity="0" result="BackgroundImageFix"/>
<feColorMatrix in="SourceAlpha" type="matrix" values="0 0 0 0 0 0 0 0 0 0 0 0 0 0 0 0 0 0 127 0" result="hardAlpha"/>
<feOffset dy="4"/>
<feGaussianBlur stdDeviation="2"/>
<feComposite in2="hardAlpha" operator="out"/>
<feColorMatrix type="matrix" values="0 0 0 0 0 0 0 0 0 0 0 0 0 0 0 0 0 0 0.25 0"/>
<feBlend mode="normal" in2="BackgroundImageFix" result="effect1_dropShadow_1_520"/>
<feBlend mode="normal" in="SourceGraphic" in2="effect1_dropShadow_1_520" result="shape"/>
</filter>
<filter id="filter5_d_1_520" x="238" y="287.357" width="114.466" height="114.492" filterUnits="userSpaceOnUse" color-interpolation-filters="sRGB">
<feFlood flood-opacity="0" result="BackgroundImageFix"/>
<feColorMatrix in="SourceAlpha" type="matrix" values="0 0 0 0 0 0 0 0 0 0 0 0 0 0 0 0 0 0 127 0" result="hardAlpha"/>
<feOffset dy="4"/>
<feGaussianBlur stdDeviation="2"/>
<feComposite in2="hardAlpha" operator="out"/>
<feColorMatrix type="matrix" values="0 0 0 0 0 0 0 0 0 0 0 0 0 0 0 0 0 0 0.25 0"/>
<feBlend mode="normal" in2="BackgroundImageFix" result="effect1_dropShadow_1_520"/>
<feBlend mode="normal" in="SourceGraphic" in2="effect1_dropShadow_1_520" result="shape"/>
</filter>
<filter id="filter6_d_1_520" x="257" y="109.231" width="94.4827" height="94.5034" filterUnits="userSpaceOnUse" color-interpolation-filters="sRGB">
<feFlood flood-opacity="0" result="BackgroundImageFix"/>
<feColorMatrix in="SourceAlpha" type="matrix" values="0 0 0 0 0 0 0 0 0 0 0 0 0 0 0 0 0 0 127 0" result="hardAlpha"/>
<feOffset dy="4"/>
<feGaussianBlur stdDeviation="2"/>
<feComposite in2="hardAlpha" operator="out"/>
<feColorMatrix type="matrix" values="0 0 0 0 0 0 0 0 0 0 0 0 0 0 0 0 0 0 0.25 0"/>
<feBlend mode="normal" in2="BackgroundImageFix" result="effect1_dropShadow_1_520"/>
<feBlend mode="normal" in="SourceGraphic" in2="effect1_dropShadow_1_520" result="shape"/>
</filter>
<clipPath id="clip0_1_520">
<rect width="635" height="635" fill="white" transform="translate(0 0.5)"/>
</clipPath>
</defs>
</svg>
