<svg id="Layer_1" data-name="Layer 1" xmlns="http://www.w3.org/2000/svg" viewBox="0 0 635 635"><defs><style>.cls-1{fill:#d4a8e2;stroke:#000;stroke-miterlimit:10;stroke-width:2px;}</style></defs><title>Artboard 1-over</title><rect class="cls-1" width="635" height="635"/><path d="M74.13,282.37h459.5c6.18,0,12.6.51,18.76,0,.26,0,.53,0,.79,0,3.86,0,3.87-6,0-6H93.69c-6.18,0-12.61-.5-18.77,0a6.94,6.94,0,0,1-.79,0c-3.86,0-3.87,6,0,6Z"/><path d="M258.55,175.63c-15.74-16.13-21.87-38.44-18.5-60.56L238,117.16c21.91-3.33,44.68,2.63,60.56,18.51s21.84,38.64,18.5,60.56l2.1-2.1c-22.12,3.37-44.43-2.76-60.57-18.5-2.76-2.7-7,1.54-4.24,4.24,17.79,17.36,42.09,23.75,66.4,20a2.89,2.89,0,0,0,2.1-2.1c3.66-24.09-2.56-48.87-20.05-66.4s-42.34-23.71-66.4-20a2.86,2.86,0,0,0-2.09,2.09c-3.7,24.32,2.68,48.61,20,66.4C257,182.64,261.25,178.4,258.55,175.63Z"/><path d="M325.69,378.64c-.42-30.6-30.14-49.8-56.86-56.6-32.34-8.24-71.33-3.69-97.62,18.15-10.18,8.47-18,20.12-19.61,33.47-1.55,13.15,3.36,25.78,11.81,35.73,21.59,25.48,60.28,32.7,91.88,28.44,30.85-4.16,69.9-23.31,70.4-59.19.06-3.87-5.94-3.87-6,0-.39,28.37-29.47,45.28-53.91,51.17-29.6,7.13-65.6,3.12-89.84-16.58-9.31-7.57-16.94-18-18.4-30.17s3.53-23.87,11.69-32.72c20.72-22.51,55.7-28.85,84.86-25,27.83,3.63,65.14,20.56,65.6,53.35C319.75,382.49,325.75,382.5,325.69,378.64Z"/><path d="M278,375.64H195.5c-3.86,0-3.86,6,0,6H278c3.86,0,3.87-6,0-6H195.5c-3.86,0-3.86,6,0,6H278C281.87,381.64,281.88,375.64,278,375.64Z"/><rect x="319.19" y="126.63" width="6" height="244.92" rx="3"/><path d="M344.87,77.64C361,61.9,383.34,55.74,405.43,59.13L403.34,57c3.36,21.89-2.64,44.69-18.51,60.56s-38.67,21.87-60.56,18.5l2.09,2.1c-3.39-22.09,2.77-44.45,18.51-60.56,2.7-2.77-1.54-7-4.24-4.25-17.36,17.76-23.78,42.13-20.05,66.4a2.88,2.88,0,0,0,2.09,2.1c24.08,3.7,48.89-2.57,66.41-20s23.74-42.36,20-66.4A2.88,2.88,0,0,0,407,53.35c-24.28-3.74-48.64,2.69-66.4,20C337.86,76.1,342.1,80.34,344.87,77.64Z"/><path d="M151.29,378.64v93.57a3,3,0,0,0,3,3H207l-3-3v37.57c0,3.86,6,3.87,6,0V472.21a3,3,0,0,0-3-3h-52.7l3,3V378.64c0-3.86-6-3.87-6,0Z"/><path d="M92.36,482v-37.8l-3,3h64.93c3.86,0,3.86-6,0-6H89.36a3,3,0,0,0-3,3V482c0,3.86,6,3.87,6,0Z"/><path d="M124.82,509.78V444.21c0-3.86-6-3.87-6,0v65.57c0,3.86,6,3.87,6,0Z"/><path d="M556.18,544.17A37.39,37.39,0,1,0,525.7,580.9c17.72-3.18,30.13-19,30.48-36.73.08-3.86-5.92-3.86-6,0-.26,13.16-8.33,25.22-20.94,29.6a31.39,31.39,0,1,1-4.47-60.43c14.8,2.85,25.12,16,25.41,30.83C550.26,548,556.26,548,556.18,544.17Z"/><path d="M494.76,548.09l13,12a3.09,3.09,0,0,0,4.24,0l30.85-27.7c2.88-2.58-1.37-6.82-4.24-4.24l-30.85,27.69H512l-13-12c-2.83-2.62-7.08,1.61-4.24,4.25Z"/></svg>
