<svg width="635" height="636" viewBox="0 0 635 636" fill="none" xmlns="http://www.w3.org/2000/svg">
<g clip-path="url(#clip0_1_487)">
<path d="M635 1.5H0V636.5H635V1.5Z" fill="#B9F789"/>
<g filter="url(#filter0_d_1_487)">
<path d="M130.26 133.426L105.253 119.302L106.607 124.356L353.486 278.844L363.908 268.323L136.908 64.4751L406.264 219.988C409.689 221.965 413.46 224.988 417.215 226.311C417.389 226.392 417.556 226.489 417.714 226.599L416.359 221.544L381.005 282.78L386.059 281.425L363.908 268.323C363.203 267.931 361.594 266.479 360.794 266.581C359.994 266.682 360.045 268.333 359.461 268.889L205.199 179.825L168.31 345.67L213.598 403.564L218.049 402.991L86.507 327.046L88.2294 331.183L213.598 403.564L126.566 161.598L116.762 344.513L330.92 254.67C331.96 250.039 125.897 131.002 124.847 135.665L109.981 201.39L86.5154 305.243L81.0777 329.313C80.8882 330.097 80.9542 330.921 81.2661 331.664C81.5779 332.408 82.1194 333.033 82.8113 333.447L214.353 409.392C215.058 409.785 215.869 409.941 216.669 409.839C217.469 409.738 218.216 409.383 218.8 408.827L268.302 363.127L346.53 290.892L364.663 274.152L360.215 274.736L382.366 287.838C383.22 288.313 384.225 288.438 385.168 288.185C386.112 287.932 386.919 287.322 387.421 286.484L422.775 225.248C423.25 224.395 423.375 223.39 423.122 222.447C422.869 221.503 422.259 220.695 421.42 220.194L152.057 64.6772C148.44 62.5888 144.86 60.1896 141.106 58.3545C140.942 58.26 140.771 58.1613 140.607 58.0668C139.754 57.5913 138.749 57.4668 137.806 57.7196C136.862 57.9724 136.054 58.5826 135.553 59.421L100.199 120.656C99.7237 121.509 99.5992 122.514 99.852 123.458C100.105 124.401 100.715 125.209 101.553 125.71L126.561 139.835C130.709 142.154 134.423 135.754 130.26 133.426Z" fill="#B2704E"/>
<path d="M129.86 133.429L104.853 119.304L106.208 124.358L141.562 63.123L136.508 64.4773L405.864 219.99C409.289 221.968 413.06 224.99 416.815 226.313C416.989 226.394 417.156 226.491 417.314 226.601L415.959 221.547L380.605 282.782L385.659 281.428L363.508 268.325C362.804 267.933 361.992 267.777 361.192 267.878C360.392 267.98 359.645 268.335 359.061 268.891L309.566 314.595L231.331 386.826L213.198 403.566L217.649 402.993L86.1071 327.048L87.8295 331.185L102.684 265.481L126.166 161.6L131.611 137.534C132.651 132.904 125.497 131.005 124.448 135.668L109.581 201.392L86.1155 305.245L80.6778 329.315C80.4883 330.099 80.5543 330.923 80.8662 331.667C81.178 332.41 81.7195 333.035 82.4114 333.449L213.953 409.395C214.658 409.787 215.469 409.943 216.269 409.842C217.069 409.74 217.816 409.385 218.4 408.829L267.902 363.129L346.13 290.894L364.263 274.154L359.816 274.738L381.967 287.84C382.82 288.315 383.825 288.44 384.768 288.187C385.712 287.934 386.52 287.324 387.021 286.486L422.375 225.251C422.85 224.397 422.975 223.393 422.722 222.449C422.469 221.506 421.859 220.698 421.021 220.196L151.657 64.6793C148.04 62.591 144.46 60.1917 140.706 58.3567C140.542 58.2622 140.371 58.1635 140.207 58.0689C139.354 57.5935 138.349 57.469 137.406 57.7218C136.463 57.9746 135.655 58.5848 135.153 59.4232L99.7992 120.658C99.3238 121.512 99.1993 122.516 99.4521 123.46C99.7049 124.403 100.315 125.211 101.153 125.712L126.161 139.837C130.309 142.156 134.023 135.756 129.86 133.429Z" fill="black"/>
<path d="M382.557 280.438L414.622 224.899L135.504 63.7499L363.083 269.195L382.557 280.438Z" fill="#A56848"/>
</g>
<g filter="url(#filter1_d_1_487)">
<path d="M36.1001 331.3C37.0001 407 45.6001 483.6 67.6001 556.2C76.2001 584.6 86.9001 612.6 101.4 638.6C104.5 644.1 107.7 649.5 111.2 654.8C113.2 657.9 114.7 661.3 118.7 661.6C122.7 661.9 126.9 661.6 130.9 661.6C170.2 661.6 209.5 661.6 248.8 661.6C255.2 661.6 261.6 661.6 267.9 661.6C269.3 661.6 270.7 661.7 272 661.6C275.9 661.2 277.4 657.9 279.4 654.8C294.8 631.3 306.3 605.3 315.6 578.8C340 509.6 350.6 435.4 353.7 362.3C354.1 352 354.4 341.6 354.5 331.3C354.5 328.9 352.4 326.8 350 326.8C315 326.8 279.9 326.8 244.9 326.8C189.5 326.8 134.1 326.8 78.7001 326.8C66.0001 326.8 53.3001 326.8 40.6001 326.8C34.8001 326.8 34.8001 335.8 40.6001 335.8C42.1191 335.8 43.6383 335.8 45.1577 335.8C78.6466 335.8 112.219 335.8 145.7 335.8C201.1 335.8 256.5 335.8 311.9 335.8C323.079 335.8 334.258 335.8 345.437 335.8C346.958 335.8 348.479 335.8 350 335.8C348.5 334.3 347 332.8 345.5 331.3C345.482 332.8 345.461 334.3 345.437 335.8C344.642 385.099 340.328 434.376 331.4 482.9C323.7 524.3 312.9 565.7 296 604.4C288.754 621.086 280.325 637.408 270.108 652.5C269.61 653.236 269.107 653.97 268.6 654.7C269.9 654 271.2 653.2 272.5 652.5C271.703 652.5 270.906 652.5 270.108 652.5C225.806 652.5 181.503 652.5 137.2 652.5C131.604 652.5 126.084 652.5 120.507 652.5C119.706 652.5 118.904 652.5 118.1 652.5C119.4 653.2 120.7 654 122 654.7C121.498 653.969 121 653.236 120.507 652.5C100.725 623.029 87.2419 589.557 76.9001 555.8C63.3001 511.4 54.9001 465.5 50.1001 419.4C47.1617 391.628 45.571 363.676 45.1577 335.8C45.1349 334.266 45.1157 332.733 45.1001 331.2C45.1001 325.5 36.1001 325.5 36.1001 331.3Z" fill="black"/>
<path d="M145.7 335.8H45.1577C45.571 363.676 47.1617 391.628 50.1001 419.4C54.9001 465.5 63.3001 511.4 76.9001 555.8C87.2419 589.557 100.725 623.029 120.507 652.5H137.2H270.108C280.325 637.408 288.754 621.086 296 604.4C312.9 565.7 323.7 524.3 331.4 482.9C340.328 434.376 344.642 385.099 345.437 335.8H311.9H145.7Z" fill="#706BE4"/>
</g>
<g filter="url(#filter2_d_1_487)">
<path d="M36.1001 330.3C37.0001 406 45.6001 482.6 67.6001 555.2C76.2001 583.6 86.9001 611.6 101.4 637.6C104.5 643.1 107.7 648.5 111.2 653.8C113.2 656.9 114.7 660.3 118.7 660.6C122.7 660.9 126.9 660.6 130.9 660.6C170.2 660.6 209.5 660.6 248.8 660.6C255.2 660.6 261.6 660.6 267.9 660.6C269.3 660.6 270.7 660.7 272 660.6C275.9 660.2 277.4 656.9 279.4 653.8C294.8 630.3 306.3 604.3 315.6 577.8C340 508.6 350.6 434.4 353.7 361.3C354.1 351 354.4 340.6 354.5 330.3C354.5 327.9 352.4 325.8 350 325.8C315 325.8 279.9 325.8 244.9 325.8C189.5 325.8 134.1 325.8 78.7001 325.8C66.0001 325.8 53.3001 325.8 40.6001 325.8C34.8001 325.8 34.8001 334.8 40.6001 334.8C75.6001 334.8 110.7 334.8 145.7 334.8C201.1 334.8 256.5 334.8 311.9 334.8C324.6 334.8 337.3 334.8 350 334.8C348.5 333.3 347 331.8 345.5 330.3C344.9 381.1 340.6 431.9 331.4 481.9C323.7 523.3 312.9 564.7 296 603.4C288.4 620.9 279.5 638 268.6 653.7C269.9 653 271.2 652.2 272.5 651.5C227.4 651.5 182.3 651.5 137.2 651.5C130.8 651.5 124.5 651.5 118.1 651.5C119.4 652.2 120.7 653 122 653.7C101.4 623.7 87.5001 589.4 76.9001 554.8C63.3001 510.4 54.9001 464.5 50.1001 418.4C47.0001 389.1 45.4001 359.6 45.1001 330.2C45.1001 324.5 36.1001 324.5 36.1001 330.3Z" fill="black"/>
</g>
<g filter="url(#filter3_d_1_487)">
<path d="M408.157 249.291C408.695 294.585 413.841 340.417 427.004 383.856C432.15 400.849 438.552 417.602 447.228 433.159C449.083 436.449 450.997 439.68 453.091 442.852C454.288 444.706 455.186 446.741 457.579 446.92C459.972 447.1 462.485 446.92 464.879 446.92C488.393 446.92 511.908 446.92 535.422 446.92C539.251 446.92 543.081 446.92 546.85 446.92C547.688 446.92 548.526 446.98 549.303 446.92C551.637 446.681 552.534 444.706 553.731 442.852C562.945 428.791 569.826 413.234 575.391 397.378C589.99 355.974 596.332 311.577 598.187 267.839C598.427 261.676 598.606 255.454 598.666 249.291C598.666 247.855 597.409 246.598 595.973 246.598C575.032 246.598 554.03 246.598 533.089 246.598C499.941 246.598 466.793 246.598 433.646 246.598C426.047 246.598 418.448 246.598 410.849 246.598C407.379 246.598 407.379 251.983 410.849 251.983C411.758 251.983 412.667 251.983 413.576 251.983C433.614 251.983 453.701 251.983 473.734 251.983C506.882 251.983 540.029 251.983 573.177 251.983C579.866 251.983 586.554 251.983 593.243 251.983C594.153 251.983 595.063 251.983 595.973 251.983C595.076 251.086 594.178 250.188 593.281 249.291C593.27 250.188 593.258 251.086 593.243 251.983C592.767 281.481 590.186 310.965 584.844 339.998C580.237 364.769 573.775 389.54 563.663 412.696C559.328 422.679 554.285 432.445 548.171 441.475C547.873 441.916 547.572 442.355 547.269 442.792C548.047 442.373 548.825 441.894 549.603 441.475C549.126 441.475 548.648 441.475 548.171 441.475C521.664 441.475 495.156 441.475 468.648 441.475C465.3 441.475 461.997 441.475 458.66 441.475C458.181 441.475 457.701 441.475 457.22 441.475C457.998 441.894 458.776 442.373 459.553 442.792C459.253 442.354 458.955 441.916 458.66 441.475C446.824 423.842 438.756 403.815 432.569 383.617C424.431 357.051 419.405 329.587 416.533 302.004C414.775 285.387 413.823 268.662 413.576 251.983C413.562 251.066 413.551 250.148 413.542 249.231C413.542 245.821 408.157 245.82 408.157 249.291Z" fill="black"/>
<path d="M473.734 251.983H413.576C413.823 268.662 414.775 285.387 416.533 302.004C419.405 329.587 424.431 357.051 432.569 383.617C438.756 403.815 446.824 423.842 458.66 441.475H468.648H548.171C554.285 432.445 559.328 422.679 563.663 412.696C573.775 389.54 580.237 364.769 584.844 339.998C590.186 310.965 592.767 281.481 593.243 251.983H573.177H473.734Z" fill="#77AA93"/>
<path d="M413.781 252.402L577.425 372.966L573.835 384.933L570.544 395.105L414.678 283.515L413.781 252.402Z" fill="#80BA9F"/>
<path d="M408.157 248.692C408.695 293.986 413.841 339.819 427.004 383.258C432.15 400.25 438.552 417.004 447.228 432.56C449.083 435.851 450.997 439.082 453.091 442.253C454.288 444.108 455.186 446.142 457.579 446.322C459.972 446.501 462.485 446.322 464.879 446.322C488.393 446.322 511.908 446.322 535.422 446.322C539.251 446.322 543.081 446.322 546.85 446.322C547.688 446.322 548.526 446.382 549.303 446.322C551.637 446.083 552.534 444.108 553.731 442.253C562.945 428.192 569.826 412.636 575.391 396.78C589.99 355.375 596.332 310.979 598.187 267.241C598.427 261.078 598.606 254.855 598.666 248.692C598.666 247.256 597.409 246 595.973 246C575.032 246 554.03 246 533.089 246C499.941 246 466.793 246 433.646 246C426.047 246 418.448 246 410.849 246C407.379 246 407.379 251.385 410.849 251.385C431.791 251.385 452.792 251.385 473.734 251.385C506.882 251.385 540.029 251.385 573.177 251.385C580.776 251.385 588.375 251.385 595.973 251.385C595.076 250.487 594.178 249.59 593.281 248.692C592.922 279.088 590.349 309.483 584.844 339.4C580.237 364.171 573.775 388.942 563.663 412.097C559.116 422.568 553.791 432.8 547.269 442.193C548.047 441.775 548.825 441.296 549.603 440.877C522.618 440.877 495.633 440.877 468.648 440.877C464.819 440.877 461.049 440.877 457.22 440.877C457.998 441.296 458.776 441.775 459.553 442.193C447.228 424.243 438.911 403.721 432.569 383.018C424.431 356.452 419.405 328.989 416.533 301.406C414.678 283.874 413.721 266.224 413.542 248.633C413.542 245.222 408.157 245.222 408.157 248.692Z" fill="black"/>
</g>
<g filter="url(#filter4_d_1_487)">
<path d="M391.027 496.363L366.46 496.595L369.625 499.76L618.593 508.614L621.814 496.363L366.46 442.439H632.519C635.902 442.439 639.988 443.065 643.336 442.439C643.499 442.425 643.664 442.425 643.828 442.439L640.663 439.274V499.76L643.828 496.595L621.814 496.363C621.124 496.374 619.311 495.986 618.762 496.404C618.213 496.821 618.957 498.022 618.762 498.684H466.388L509.994 637.322L568.306 660.841L571.358 658.513H441.427L444.472 660.841H568.306L400.339 518.813L471.311 658.513L591.536 500.358C590.327 496.482 386.758 496.433 387.975 500.336L405.072 555.385L432.108 642.358L438.375 662.515C438.569 663.176 438.971 663.759 439.52 664.176C440.069 664.594 440.737 664.825 441.427 664.836H571.358C572.048 664.825 572.716 664.594 573.265 664.176C573.814 663.759 574.216 663.176 574.41 662.515L591.536 607.487L618.593 520.515L624.866 500.358L621.821 502.693L643.835 502.925C644.67 502.912 645.468 502.574 646.059 501.984C646.65 501.393 646.987 500.595 647 499.76V439.274C646.987 438.439 646.65 437.641 646.059 437.05C645.468 436.46 644.67 436.122 643.835 436.109H377.77C374.197 436.109 370.518 435.863 366.953 436.109C366.791 436.109 366.622 436.109 366.46 436.109C365.625 436.122 364.827 436.46 364.236 437.05C363.646 437.641 363.308 438.439 363.295 439.274V499.76C363.308 500.595 363.646 501.393 364.236 501.984C364.827 502.574 365.625 502.912 366.46 502.925L391.027 502.693C395.092 502.636 395.106 496.306 391.027 496.363Z" fill="#EB8755"/>
<path d="M390.732 496.535L366.165 496.768L369.33 499.932V439.447L366.165 442.612H632.223C635.606 442.612 639.693 443.238 643.04 442.612C643.204 442.598 643.369 442.598 643.533 442.612L640.368 439.447V499.932L643.533 496.768L621.519 496.535C620.829 496.546 620.161 496.777 619.612 497.195C619.063 497.612 618.661 498.195 618.466 498.856L601.348 553.884L574.284 640.856L568.01 661.013L571.063 658.686H441.132L444.177 661.013L427.079 605.986L400.044 518.985L393.784 498.828C392.575 494.953 386.463 496.606 387.679 500.509L404.777 555.558L431.813 642.53L438.079 662.687C438.274 663.349 438.675 663.931 439.225 664.349C439.774 664.766 440.442 664.997 441.132 665.008H571.063C571.753 664.997 572.421 664.766 572.97 664.349C573.519 663.931 573.92 663.349 574.115 662.687L591.241 607.66L618.298 520.687L624.571 500.53L621.526 502.865L643.54 503.097C644.375 503.085 645.173 502.747 645.764 502.156C646.354 501.566 646.692 500.768 646.705 499.932V439.447C646.692 438.612 646.354 437.814 645.764 437.223C645.173 436.632 644.375 436.295 643.54 436.282H377.474C373.901 436.282 370.223 436.036 366.657 436.282C366.495 436.282 366.327 436.282 366.165 436.282C365.329 436.295 364.532 436.632 363.941 437.223C363.35 437.814 363.013 438.612 363 439.447V499.932C363.013 500.768 363.35 501.566 363.941 502.156C364.532 502.747 365.329 503.085 366.165 503.097L390.732 502.865C394.797 502.809 394.811 496.479 390.732 496.535Z" fill="black"/>
<path d="M640.811 497.361V442.503H365.11L621.576 497.361H640.811Z" fill="#D87747"/>
</g>
</g>
<defs>
<filter id="filter0_d_1_487" x="76.5719" y="57.5915" width="350.678" height="360.28" filterUnits="userSpaceOnUse" color-interpolation-filters="sRGB">
<feFlood flood-opacity="0" result="BackgroundImageFix"/>
<feColorMatrix in="SourceAlpha" type="matrix" values="0 0 0 0 0 0 0 0 0 0 0 0 0 0 0 0 0 0 127 0" result="hardAlpha"/>
<feOffset dy="4"/>
<feGaussianBlur stdDeviation="2"/>
<feComposite in2="hardAlpha" operator="out"/>
<feColorMatrix type="matrix" values="0 0 0 0 0 0 0 0 0 0 0 0 0 0 0 0 0 0 0.25 0"/>
<feBlend mode="normal" in2="BackgroundImageFix" result="effect1_dropShadow_1_487"/>
<feBlend mode="normal" in="SourceGraphic" in2="effect1_dropShadow_1_487" result="shape"/>
</filter>
<filter id="filter1_d_1_487" x="32.1001" y="326.8" width="326.4" height="342.933" filterUnits="userSpaceOnUse" color-interpolation-filters="sRGB">
<feFlood flood-opacity="0" result="BackgroundImageFix"/>
<feColorMatrix in="SourceAlpha" type="matrix" values="0 0 0 0 0 0 0 0 0 0 0 0 0 0 0 0 0 0 127 0" result="hardAlpha"/>
<feOffset dy="4"/>
<feGaussianBlur stdDeviation="2"/>
<feComposite in2="hardAlpha" operator="out"/>
<feColorMatrix type="matrix" values="0 0 0 0 0 0 0 0 0 0 0 0 0 0 0 0 0 0 0.25 0"/>
<feBlend mode="normal" in2="BackgroundImageFix" result="effect1_dropShadow_1_487"/>
<feBlend mode="normal" in="SourceGraphic" in2="effect1_dropShadow_1_487" result="shape"/>
</filter>
<filter id="filter2_d_1_487" x="32.1001" y="325.8" width="326.4" height="342.933" filterUnits="userSpaceOnUse" color-interpolation-filters="sRGB">
<feFlood flood-opacity="0" result="BackgroundImageFix"/>
<feColorMatrix in="SourceAlpha" type="matrix" values="0 0 0 0 0 0 0 0 0 0 0 0 0 0 0 0 0 0 127 0" result="hardAlpha"/>
<feOffset dy="4"/>
<feGaussianBlur stdDeviation="2"/>
<feComposite in2="hardAlpha" operator="out"/>
<feColorMatrix type="matrix" values="0 0 0 0 0 0 0 0 0 0 0 0 0 0 0 0 0 0 0.25 0"/>
<feBlend mode="normal" in2="BackgroundImageFix" result="effect1_dropShadow_1_487"/>
<feBlend mode="normal" in="SourceGraphic" in2="effect1_dropShadow_1_487" result="shape"/>
</filter>
<filter id="filter3_d_1_487" x="404.157" y="246" width="198.509" height="209" filterUnits="userSpaceOnUse" color-interpolation-filters="sRGB">
<feFlood flood-opacity="0" result="BackgroundImageFix"/>
<feColorMatrix in="SourceAlpha" type="matrix" values="0 0 0 0 0 0 0 0 0 0 0 0 0 0 0 0 0 0 127 0" result="hardAlpha"/>
<feOffset dy="4"/>
<feGaussianBlur stdDeviation="2"/>
<feComposite in2="hardAlpha" operator="out"/>
<feColorMatrix type="matrix" values="0 0 0 0 0 0 0 0 0 0 0 0 0 0 0 0 0 0 0.25 0"/>
<feBlend mode="normal" in2="BackgroundImageFix" result="effect1_dropShadow_1_487"/>
<feBlend mode="normal" in="SourceGraphic" in2="effect1_dropShadow_1_487" result="shape"/>
</filter>
<filter id="filter4_d_1_487" x="359" y="436" width="292" height="237.008" filterUnits="userSpaceOnUse" color-interpolation-filters="sRGB">
<feFlood flood-opacity="0" result="BackgroundImageFix"/>
<feColorMatrix in="SourceAlpha" type="matrix" values="0 0 0 0 0 0 0 0 0 0 0 0 0 0 0 0 0 0 127 0" result="hardAlpha"/>
<feOffset dy="4"/>
<feGaussianBlur stdDeviation="2"/>
<feComposite in2="hardAlpha" operator="out"/>
<feColorMatrix type="matrix" values="0 0 0 0 0 0 0 0 0 0 0 0 0 0 0 0 0 0 0.25 0"/>
<feBlend mode="normal" in2="BackgroundImageFix" result="effect1_dropShadow_1_487"/>
<feBlend mode="normal" in="SourceGraphic" in2="effect1_dropShadow_1_487" result="shape"/>
</filter>
<clipPath id="clip0_1_487">
<rect width="635" height="635" fill="white" transform="translate(0 0.5)"/>
</clipPath>
</defs>
</svg>
