<svg width="635" height="636" viewBox="0 0 635 636" fill="none" xmlns="http://www.w3.org/2000/svg">
<g clip-path="url(#clip0_1_642)">
<path d="M635 0.5H0V635.5H635V0.5Z" fill="#82F7EB"/>
<g filter="url(#filter0_d_1_642)">
<mask id="mask0_1_642" style="mask-type:luminance" maskUnits="userSpaceOnUse" x="0" y="0" width="635" height="636">
<path d="M635 0.5H0V635.5H635V0.5Z" fill="white"/>
</mask>
<g mask="url(#mask0_1_642)">
<path d="M404.63 421.07C486.114 421.07 552.17 355.014 552.17 273.53C552.17 192.046 486.114 125.99 404.63 125.99C323.146 125.99 257.09 192.046 257.09 273.53C257.09 355.014 323.146 421.07 404.63 421.07Z" fill="#F7FC10"/>
<path d="M547.66 273.5C547.38 332.86 509.78 387.58 453.73 407.9C397.13 428.5 332.62 410.79 294.22 364.5C256 318.44 251.19 251.05 282 199.83C312.81 148.61 374.28 121.36 433 133.3C491 145.1 536.57 192.78 546 251.2C547.141 258.589 547.709 266.054 547.7 273.53C547.7 279.32 556.7 279.34 556.7 273.53C556.41 210.18 516.31 152.6 456.79 130.68C397.27 108.76 327.79 127.68 287.48 176.68C247.02 225.85 241.37 297.08 274.28 351.77C307.19 406.46 372.28 434.99 434.76 422.57C496.28 410.35 545.53 358.94 554.89 296.89C556.045 289.146 556.637 281.329 556.66 273.5C556.69 267.74 547.69 267.73 547.66 273.5Z" fill="#FCFF72"/>
<path d="M269.04 113.19L261.97 106.12" stroke="#FDFEC9" stroke-width="8" stroke-miterlimit="10"/>
<path d="M242.73 86.88L92.02 -63.84" stroke="#FDFEC9" stroke-width="8" stroke-miterlimit="10" stroke-dasharray="18.14 27.21"/>
<path d="M217.23 189.77L207.77 186.53" stroke="#FDFEC9" stroke-width="8" stroke-miterlimit="10"/>
<path d="M181.45 177.49L-68.65 91.67" stroke="#FDFEC9" stroke-width="8" stroke-miterlimit="10" stroke-dasharray="18.56 27.83"/>
<path d="M214.98 302.39H204.98" stroke="#FDFEC9" stroke-width="8" stroke-miterlimit="10"/>
<path d="M177.18 302.39H-86.87" stroke="#FDFEC9" stroke-width="8" stroke-miterlimit="10" stroke-dasharray="18.53 27.8"/>
<path d="M317.25 456.93L311.17 464.87" stroke="#FDFEC9" stroke-width="8" stroke-miterlimit="10"/>
<path d="M292.04 489.85L142.16 685.49" stroke="#FDFEC9" stroke-width="8" stroke-miterlimit="10" stroke-dasharray="20.97 31.46"/>
<path d="M242.79 386.81L234.01 391.6" stroke="#FDFEC9" stroke-width="8" stroke-miterlimit="10"/>
<path d="M210.35 404.52L64.4 484.19" stroke="#FDFEC9" stroke-width="8" stroke-miterlimit="10" stroke-dasharray="17.98 26.96"/>
<path d="M52.56 490.65L43.79 495.44" stroke="#FDFEC9" stroke-width="8" stroke-miterlimit="10"/>
<path d="M415.45 478.24V488.24" stroke="#FDFEC9" stroke-width="8" stroke-miterlimit="10"/>
<path d="M415.45 519.88V767.76" stroke="#FDFEC9" stroke-width="8" stroke-miterlimit="10" stroke-dasharray="21.1 31.64"/>
<path d="M519.79 456.93L525.87 464.87" stroke="#FDFEC9" stroke-width="8" stroke-miterlimit="10"/>
<path d="M545 489.85L694.88 685.49" stroke="#FDFEC9" stroke-width="8" stroke-miterlimit="10" stroke-dasharray="20.97 31.46"/>
</g>
</g>
</g>
<defs>
<filter id="filter0_d_1_642" x="-4" y="0.5" width="643" height="643" filterUnits="userSpaceOnUse" color-interpolation-filters="sRGB">
<feFlood flood-opacity="0" result="BackgroundImageFix"/>
<feColorMatrix in="SourceAlpha" type="matrix" values="0 0 0 0 0 0 0 0 0 0 0 0 0 0 0 0 0 0 127 0" result="hardAlpha"/>
<feOffset dy="4"/>
<feGaussianBlur stdDeviation="2"/>
<feComposite in2="hardAlpha" operator="out"/>
<feColorMatrix type="matrix" values="0 0 0 0 0 0 0 0 0 0 0 0 0 0 0 0 0 0 0.25 0"/>
<feBlend mode="normal" in2="BackgroundImageFix" result="effect1_dropShadow_1_642"/>
<feBlend mode="normal" in="SourceGraphic" in2="effect1_dropShadow_1_642" result="shape"/>
</filter>
<clipPath id="clip0_1_642">
<rect width="635" height="635" fill="white" transform="translate(0 0.5)"/>
</clipPath>
</defs>
</svg>
