<svg id="Layer_1" data-name="Layer 1" xmlns="http://www.w3.org/2000/svg" xmlns:xlink="http://www.w3.org/1999/xlink" viewBox="0 0 635 635"><defs><style>.cls-1{fill:#b795f3;}.cls-10,.cls-2,.cls-8,.cls-9{fill:none;}.cls-3{fill:#82d2f7;}.cls-4{clip-path:url(#clip-path);}.cls-5{fill:#c2f395;}.cls-6{clip-path:url(#clip-path-2);}.cls-7{clip-path:url(#clip-path-3);}.cls-10,.cls-8,.cls-9{stroke:#000;stroke-linecap:round;stroke-miterlimit:10;stroke-width:2px;}.cls-8{stroke-dasharray:20.61 30.92;}.cls-10{stroke-dasharray:20.46 30.69;}</style><clipPath id="clip-path"><rect class="cls-1" y="1" width="635" height="635"/></clipPath><clipPath id="clip-path-2"><rect class="cls-2" y="699" width="635" height="635"/></clipPath><clipPath id="clip-path-3"><rect class="cls-3" x="731" width="635" height="635"/></clipPath></defs><title>part</title><rect class="cls-1" y="1" width="635" height="635"/><g class="cls-4"><path d="M470,304.17l-21.5,69L414.2,483.18l-7.93,25.43,2.9-2.2H245.27l2.9,2.2-21.62-69-34.49-110-8-25.44c-1.15-3.67-6.94-2.1-5.78,1.6l21.61,69,34.5,110,8,25.44a3.08,3.08,0,0,0,2.89,2.2h163.9a3.07,3.07,0,0,0,2.89-2.2l21.5-69,34.3-110,7.93-25.43c1.15-3.7-4.64-5.28-5.78-1.6Z"/><path d="M211.89,302.17H150.72l3,3V228.9l-3,3H495.2c1.37,0,3.41.39,4.74,0a2.65,2.65,0,0,1,.63,0l-3-3v76.27l3-3H439.19c-3.86,0-3.86,6,0,6h61.38a3,3,0,0,0,3-3V228.9a3,3,0,0,0-3-3H165.05c-4.5,0-9.21-.4-13.7,0-.21,0-.42,0-.63,0a3,3,0,0,0-3,3v76.27a3,3,0,0,0,3,3h61.17c3.86,0,3.86-6,0-6Z"/><path d="M256.41,23c-10.22-9.26-21.56-17.94-33.69-24.52-9-4.88-17.6-6.59-27.66-8s-20.72-3.16-30.59-.2c-7.31,2.19-12.7,7.44-18,12.71C139.61,9.85,133.14,17.13,126,23.78c-11.1,10.36-25.74,15.14-39.27,21.64Q68,54.44,49.46,63.73a3,3,0,0,0,0,5.18,374,374,0,0,0,36,17.49c16.58,7,35.3,14.93,52.68,6.2,9.09-4.57,16.88-11.82,23.52-19.43,4-4.6,8.72-9.8,10.86-15.64,2.72-7.41,3.91-15.23,8.42-21.93,5.35-7.93,13.54-8.18,22.27-8.52,17-.65,34.08,0,51,1,3.86.23,3.85-5.78,0-6-14.18-.83-28.41-1.32-42.62-1.21-7.78.06-17-.53-24.48,2.15-8.07,2.9-12.72,10.57-15.72,18.16-2.21,5.61-2.89,12.19-6.09,17.33A92.41,92.41,0,0,1,148.54,78c-7.57,6.78-17.13,13.25-27.73,12.72-8.71-.43-17.46-3.75-25.52-6.83a336.84,336.84,0,0,1-42.8-20.19v5.18q15-7.48,30-14.8c7.25-3.52,14.51-7,21.83-10.41,5.25-2.43,11.07-4.32,15.91-7.51,14.61-9.62,24.36-24.93,37.86-35.84,7.21-5.82,16.32-6.06,25.2-5.31,10.24.87,21.54,1.7,31,5.94,13.86,6.2,26.6,16.09,37.8,26.25C255,29.82,259.27,25.59,256.41,23Z"/><path d="M127.06,96.4a368.67,368.67,0,0,0,50.23-17.1c11.21-4.73,22-10.16,31.86-17.3q13.48-9.75,27.06-19.37l20.17-14.35c3.13-2.21.13-7.42-3-5.18Q231.54,38.6,209.78,54.18c-19.69,14.17-41.66,23.17-64.67,30.6-6.49,2.09-13,4.1-19.64,5.83-3.73,1-2.15,6.77,1.59,5.79Z"/><path d="M307,65.44l4.66-140.83a58.54,58.54,0,0,0-1.1-12.5q-3.87-22.81-7.89-45.6C296-171,291.54-210.32,274.19-244.66c-14-27.72-34.71-54.84-59.43-74-1.57-1.21-4.6-1.17-5,1.32A340.63,340.63,0,0,0,206-235c1.31,16.43,4.09,32.13,11.44,47,7.46,15,17.29,28.84,27.2,42.33,10,13.65,20.53,27,30.32,40.78,7.56,10.67,16.08,22.25,19.61,35,2.63,9.55,3,19.9,3.65,29.73,1,14,1.48,28.09,1.88,42.15q.9,31.74.9,63.5c0,3.87,6,3.87,6,0q0-26.16-.62-52.33c-.58-25.69-.66-51.93-4.57-77.38-1.63-10.63-6.27-20-11.88-29.09-8.61-14-18.73-26.94-28.59-40-18.94-25.12-41.58-51.79-47.12-83.65-5.57-32.06-4-66.67,1.34-98.72l-5,1.32c20.47,15.87,37.86,37.36,51.1,59.41a192.65,192.65,0,0,1,23.57,60.55c3.51,16.88,6.55,33.86,9.58,50.82q4.47,25,8.73,50c.73,4.28,1.42,8.56,2.18,12.83.12.65.14,2.14.12.65,0,.63,0,1.26-.06,1.88-1.34,24.09-1.6,48.28-2.4,72.39L301,65.44C300.84,69.31,306.85,69.3,307,65.44Z"/><path d="M306.09,68c-10.87-11.64-22.51-22.63-34.38-33.23C250.63,16,227.88-2.76,202.19-14.91c-21.28-10.07-45.92-12.31-69-15.7C105.55-34.67,77.79-38.14,50-41.4c-16.66-2-33.33-3.85-50-5.59l2.59,4.52c-.84,1.1.56-.7.82-1,1.12-1.37,2.25-2.74,3.4-4.08Q12.27-54,18.23-59.92c9.45-9.4,20.46-19.19,33.33-23.47C67.29-88.62,85.27-80,99.45-73.62c6.12,2.76,12.38,6,19,7.32,5.27,1.07,10.36.24,15.54-.94,16.16-3.7,31.93-9.56,48.62-10.47,18.26-1,33,7.74,46.22,19.67a159.67,159.67,0,0,1,15.58,16.27c2.84,3.41,5.19,7.28,8.2,10.54,9,9.8,20.17,17.64,29.65,27C287.35.78,293,6.32,296,12.93c3,6.78,3.5,15,4.1,22.32A332.58,332.58,0,0,1,301,70.12c-.09,3.86,5.91,3.86,6,0,.26-10.79,0-21.63-.73-32.4-1-13.37-2.33-25.92-10.95-36.64-9.53-11.87-21.8-21.24-33-31.39-8.4-7.57-14.41-17.28-22.32-25.38-11.5-11.78-25.93-24-42.56-27.16-17.35-3.32-35.53,2-52.18,6.49-6.52,1.77-13.32,4.15-20.11,4.59-6.47.42-12.79-2.64-18.55-5.21C91.61-83.64,74-92.89,57.14-90.8c-15.31,1.89-28.78,13-39.61,23.21A185.49,185.49,0,0,0-2.59-45.5C-4.13-43.49-2-41.19,0-41c40.4,4.22,80.77,9,121,14.64,12.83,1.81,25.65,3.72,38.42,5.92C170-18.61,180.87-17,191-13.22c26.07,9.74,49.1,28.46,69.92,46.45a533.17,533.17,0,0,1,41,39C304.49,75.07,308.73,70.82,306.09,68Z"/><path d="M41.26-79.27A392.15,392.15,0,0,1,91.5-104.55c13.6-5.69,27.7-10.74,42.24-13.38,16.15-2.93,32.32-.76,47.52,5.26,12.68,5,24.21,12.47,35.3,20.32,4.64,3.28,9.22,7,14.38,9.48,6.85,3.25,14.33,4.1,21.78,4.73,6.78.58,15.54.81,20.31,6.49a29.49,29.49,0,0,1,4.14,7.8c3.88,9.43,6.48,19.44,9,29.3,4.33,17,8,34.27,11.19,51.57.69,3.79,6.48,2.18,5.79-1.6q-4.27-23.29-9.89-46.33a285.51,285.51,0,0,0-9.15-31.57c-3.05-8.21-6.38-15.47-15.1-18.85-7.15-2.77-15.08-2.45-22.58-3.44-8.07-1.06-14.56-4.07-21.14-8.71-10.76-7.59-21.47-15.21-33.36-21-14.27-6.94-29.88-11.29-45.85-10.81-15.18.46-30.18,5-44.32,10.27A381.73,381.73,0,0,0,38.24-84.46c-3.31,2-.3,7.18,3,5.19Z"/><path d="M433.55-387a411.66,411.66,0,0,1-2.11,41.25,214.6,214.6,0,0,1-5.12,31.17c-2.36,9.33-6.22,17.27-11.2,25.46-20.83,34.27-46,65.52-68.86,98.38-6.81,9.79-13.5,19.69-19.71,29.87-3.46,5.68-7.48,11.55-9.46,18-3.19,10.27-3.87,21.58-4.86,32.22C309-76,308-41.09,307-6.29q-.63,23-1,46c-.14,8.16-.68,16.45-.33,24.6,0,.38,0,.77,0,1.15,0,3.9,5.73,3.82,6,0,1.79-25.86,6.23-53,16-77.09,3.91-9.59,9.9-18,14.62-27.14,5.25-10.19,9.37-20.86,13.84-31.4,3.42-8,7.12-16.47,13.14-22.94,5.88-6.3,12.59-11.65,18.25-18.23a190.35,190.35,0,0,0,19-26.2c4.79-8,9.41-16.8,10.89-26.11l-5,1.33c8.33,10.74,23.19-1.52,29-8.24,12.75-14.83,21.31-33.61,27.46-52,7.68-23,11.54-48,8.18-72.14-2.9-20.86-10.5-40.93-19.44-59.89a287.38,287.38,0,0,0-18.48-33.91c-2.09-3.23-7.29-.23-5.18,3,14.8,22.83,26.92,48.71,33.81,75,10.84,41.44.51,87.37-21.83,123.4-4.85,7.82-10.95,17.29-19.46,21.43-3.12,1.52-7.41,2.12-9.79-1-1.32-1.71-4.68-.78-5,1.33-2.86,18-16.06,35.08-27.49,48.59C378.52-110,372-104.43,365.87-98.23S355.61-83.87,352.1-75.86C347.6-65.6,343.68-55.1,338.74-45c-4.65,9.45-10.85,18.05-15.11,27.69-7.08,16-11,33.36-13.95,50.57-1.8,10.66-3.28,21.44-4,32.22h6c.16-19.64.54-39.29,1-58.93.86-35.34,1.92-70.74,4.63-106,.95-12.42,1.82-25,4.43-37.25a38.23,38.23,0,0,1,4.67-12c5.48-9.92,11.73-19.43,18.07-28.83,22.47-33.3,47.67-64.64,69.47-98.42,5.34-8.27,11.1-16.68,14.69-25.89s5.45-18.92,6.91-28.58a389.52,389.52,0,0,0,4-52.52c0-1.35,0-2.71,0-4.06C439.55-390.87,433.55-390.87,433.55-387Z"/><path d="M501.18-15.84a136.52,136.52,0,0,1,24.59-7c8.38-1.55,17-1.3,25.47-2,18.42-1.46,36.79-3.63,55.14-5.8q7.13-.86,14.25-1.73c2.59-.33,4.53-4.16,1.51-5.59a417.27,417.27,0,0,0-52.77-21c-11.31-3.59-23.18-6.91-35.13-6.84a305.47,305.47,0,0,0-46.17,4.27c-15,2.39-30.25,5.35-44.44,10.84-8.78,3.39-17.08,8-25.23,12.66-21.89,12.52-43,26.42-63.93,40.47q-20.31,13.62-40.32,27.68c-3.13,2.21-.13,7.41,3,5.18,30.55-21.59,61.63-42.68,93.7-62,8.81-5.29,17.71-10.5,27-15,11.17-5.42,23.28-8.54,35.38-11.08,27.33-5.74,57.19-10.72,84.61-3.37,21,5.63,41.62,14,61.29,23.35l1.51-5.59q-19.17,2.38-38.39,4.49c-9.54,1-19.09,2.05-28.65,2.85-8,.67-16.19.51-24.16,1.55a129.54,129.54,0,0,0-29.84,7.81c-3.56,1.39-2,7.19,1.59,5.79Z"/><path d="M360.86,33.51c-.24.18-.95.73-.92.67.11-.26,1.16,1,1.55.91a6.29,6.29,0,0,1-.09-1.91c.1-3.48,1.18-7,2.12-10.37A192,192,0,0,1,375.24-7.46c4.05-8.44,8.54-17.91,15.36-24.51,10.32-10,27-11,40.57-10.13,13.17.86,30.34,3,39.6,13.33,3.23,3.61,6.1,7.19,10.48,9.5,5.21,2.75,11.17,3.55,16.9,4.55,6.65,1.16,13.61,2.31,19.59,5.61,4.35,2.4,7,6.07,10.42,9.51C533.57,5.94,539.51,11,545,16.46c22.19,22.4,36,50.11,42.56,80.88l2.09-3.69a128,128,0,0,1-40.58,6c-9.11-.24-18.25-1.94-25.69-7.48-6.79-5-12.56-11.58-18.13-17.89-12.84-14.52-24.45-30.21-38.13-44-4.62-4.65-9.68-9.56-15.69-12.37-6.8-3.19-15.34-3.6-22.7-3.77-23.39-.53-48.95,5-67.83,19.37-3,2.31-.05,7.52,3,5.18,17.51-13.32,40.63-18.6,62.33-18.57,7.37,0,16.33.06,23.07,3.42,6.43,3.2,11.76,9,16.62,14.15,13.28,14.06,24.86,29.62,37.86,43.93C509,87.43,514.55,93.25,521,97.81c6.94,4.92,15.32,6.9,23.68,7.58,15.39,1.25,31.82-1.39,46.55-6a3.08,3.08,0,0,0,2.09-3.69c-6.44-30.28-19.87-58.08-41.25-80.59-6.15-6.48-13-12.26-19.26-18.6C529.23-7,526.29-11,521.88-13.65,515.56-17.49,508.17-19,501-20.29c-6.36-1.13-13.53-1.7-19-5.51-4.43-3.1-7.12-8.07-11.42-11.36-6.16-4.71-13.91-6.79-21.36-8.4a118.67,118.67,0,0,0-24.56-2.77c-13.65,0-29.46,2.65-39.24,13.07-7.55,8.06-12.65,18.7-17.18,28.64-5.07,11.14-10.08,23-12.26,35.1-.51,2.87-1.36,6.85.26,9.54,1.79,3,5.2,2.48,7.63.67C367,36.41,364,31.2,360.86,33.51Z"/><path d="M547.15,99.86A461.06,461.06,0,0,1,471.76,87.6C454.94,83.51,437.46,79,422,71.08c-12.2-6.22-23.92-13.43-35.57-20.61Q373.91,42.76,361.6,34.8c-3.24-2.12-6.25,3.08-3,5.18,18.74,12.18,37.72,24.32,57.48,34.78,15,7.93,31.46,12.79,47.8,17a495.28,495.28,0,0,0,54.4,10.74c9.59,1.37,19.23,2.62,28.89,3.32,3.85.28,3.84-5.73,0-6Z"/><path class="cls-5" d="M299.3,84.15S304,170.67,304,175.34s-2.34,53.78-2.34,53.78h7v-145h14s-9.35,72.49-9.35,84.18,2.33,60.79,2.33,60.79"/><path d="M296.3,84.15c2,37.11,5.52,74.37,3.88,111.53q-.75,16.73-1.55,33.44a3,3,0,0,0,3,3h7a3,3,0,0,0,3-3v-145l-3,3h14l-3-3q-3.6,27.87-6.78,55.79c-1,9.11-2.33,18.32-2.56,27.49-.27,10.56.55,21.21,1,31.75q.62,15,1.33,29.94c.19,3.85,6.19,3.87,6,0-.94-19.89-2.27-39.85-2.33-59.76,0-8.29,1.17-16.64,2.07-24.87,1.36-12.51,2.87-25,4.41-37.51q1.41-11.42,2.87-22.83c.21-1.61-1.54-3-3-3h-14a3,3,0,0,0-3,3v145l3-3h-7l3,3c.87-18.21,2.73-36.7,2.31-54.93-.5-22-2.18-44-3.35-65.92L302.3,84.15c-.21-3.84-6.21-3.86-6,0Z"/><path class="cls-1" d="M337.64,129.51c3.2,11.21,11,27.48,33,33s65.94,2.75,79.68,8.24,44,13.74,49.45,27.48c0,0,8.25-65.94-13.73-87.92s-65.94-68.69-96.17-68.69S329.4,82.81,329.4,82.81,334.39,118.11,337.64,129.51Z"/><path d="M334.75,130.31c3,10.37,8.47,19.89,17.12,26.57,10.64,8.19,23.88,10.15,36.88,11.3,13.95,1.22,28,1.32,41.93,2.34,5.36.4,10.84.79,16,2.2,4.87,1.32,9.62,3.44,14.37,5.16a169,169,0,0,1,21.31,8.89c5.77,3,12,6.74,14.75,12.94,1.35,3.08,5.28,1,5.59-1.51a208.29,208.29,0,0,0,0-52.39c-1.5-11.44-4.11-23.68-11-33.24-3.15-4.41-7.32-8.08-11.13-11.92-5-5.06-10.09-10.11-15.24-15.05C454.24,74.85,442.62,64.43,430,55.43,419.61,48.07,407.81,40.85,395,39c-25.18-3.62-48.26,18.32-63.17,36-1.52,1.79-4.11,4.11-5,6.31-1.14,2.72.43,7.33.84,10.07,2,13,3.59,26.29,7.1,39,1,3.72,6.82,2.14,5.79-1.59-3-10.63-4.43-21.73-6.13-32.6-.65-4.12-1-8.39-1.88-12.46-.7-3.24.05.78-.48.58a16.44,16.44,0,0,0,1.23-1.6,150.79,150.79,0,0,1,20.31-21.12c9.84-8.38,22.28-16.71,35.67-16.92,12-.18,23.57,6.55,33.28,13,12.29,8.15,23.46,17.94,34.2,28,9.25,8.69,18.38,17.61,27.14,26.79,7.41,7.76,10.39,18.71,12.19,29,3.24,18.47,3,38.18.67,56.78l5.59-1.52C497.78,186.31,485,181,475.28,176.91c-5.78-2.4-11.68-4.48-17.57-6.6-4.39-1.58-8.6-3.37-13.21-4.2-12.45-2.25-25.32-2.23-37.93-2.82-13.07-.62-27.17-.66-39.66-5-13.67-4.79-22.41-15.95-26.37-29.53C339.46,125,333.67,126.59,334.75,130.31Z"/><path class="cls-1" d="M254.87,23.36s-49.1,26.48-62.84,43S172.8,102,178.29,124s65.94,52.2,74.18,60.44,24.73,16.49,30.22,33c0,0,5.5-41.21,19.24-63.19s44-38.46,57.69-41.21,41.21-27.48,38.47-41.21-38.47-30.23-38.47-30.23l-51,30.87Z"/><path d="M253.36,20.77c-12.26,6.62-24.28,13.78-35.91,21.45C199.63,54,183.36,66.86,176.34,87.92c-3.93,11.78-4.44,25.61-.76,37.54,2.18,7.1,7.64,12.93,13,17.88,14.11,13.16,31,23.17,47.3,33.37a137.61,137.61,0,0,1,17.22,12.35c10.14,8.76,22,15.89,26.74,29.17.88,2.45,5.35,3.22,5.79,0,1.05-7.85,2.64-15.65,4.46-23.35,3.28-13.82,7.33-28.3,15.21-40.28,8.64-13.15,22-23.27,35.63-30.76a80.56,80.56,0,0,1,16.82-7.26c4.91-1.37,9.3-2.76,13.72-5.43,10.55-6.38,21.07-15.83,26.83-26.89,5.1-9.8,2.62-17.77-5.22-25.08-8-7.48-17.86-13.11-27.57-18-1.78-.91-4.54-2.85-6.64-2.43-1.7.34-3.56,2-5,2.88L307.14,69.87l3.63.47L257,21.23c-2.85-2.59-7.1,1.64-4.24,4.25l53.78,49.1a3.07,3.07,0,0,0,3.63.47l51-30.86h-3c11.3,5.23,23.35,11.68,32.13,20.63,5.76,5.87,6,11.2,1.8,18.25-4.7,7.92-11.88,14.74-19.33,20.06a50.87,50.87,0,0,1-9.91,5.77c-3.12,1.29-6.52,1.75-9.72,2.85a109.28,109.28,0,0,0-24.4,12.46c-17.38,11.54-30.22,26.26-37.53,45.86a216.71,216.71,0,0,0-11.35,46.56h5.79c-3.85-10.77-11.6-18.5-20.39-25.48-5.4-4.29-10.42-9.15-16.12-13.05-14.45-9.91-29.82-18.38-43.92-28.83-7.06-5.24-14.37-11-19.72-18-6-7.92-6.82-18.67-6.08-28.3,1-13.15,7-26,15.83-35.7,6-6.58,13.46-11.82,20.75-16.8A451.53,451.53,0,0,1,256.38,26C259.78,24.11,256.76,18.93,253.36,20.77Z"/><path d="M283.48,209.62a162.68,162.68,0,0,1,3-70.12c4.66-16.9,13.62-34.91,28.67-44.85C329.19,85.37,347,81.72,363.35,79a269.86,269.86,0,0,1,34.15-3.57c3.85-.14,3.87-6.14,0-6a283.88,283.88,0,0,0-30.8,3c-17.51,2.57-36.05,6.25-51.57,15.15-31.59,18.1-39.91,60.61-39.78,94a171.27,171.27,0,0,0,2.35,29.57c.68,3.8,6.47,2.19,5.78-1.59Z"/></g><g class="cls-6"><path d="M307,763.44l4.66-140.83a58.54,58.54,0,0,0-1.1-12.5q-3.87-22.82-7.89-45.6C296,527,291.54,487.68,274.19,453.34c-14-27.72-34.71-54.84-59.43-74-1.57-1.21-4.6-1.17-5,1.32A340.63,340.63,0,0,0,206,463c1.31,16.43,4.09,32.13,11.44,47,7.46,15,17.29,28.84,27.2,42.33,10,13.65,20.53,27,30.32,40.78,7.56,10.67,16.08,22.25,19.61,35,2.63,9.55,3,19.9,3.65,29.73,1,14,1.48,28.09,1.88,42.15q.9,31.74.9,63.5c0,3.87,6,3.87,6,0q0-26.16-.62-52.33c-.58-25.69-.66-51.93-4.57-77.38-1.63-10.63-6.27-20-11.88-29.09-8.61-13.95-18.73-26.94-28.59-40-18.94-25.12-41.58-51.79-47.12-83.65-5.57-32.06-4-66.67,1.34-98.72l-5,1.32c20.47,15.87,37.86,37.36,51.1,59.41a192.65,192.65,0,0,1,23.57,60.55c3.51,16.88,6.55,33.86,9.58,50.82q4.47,25,8.73,50c.73,4.28,1.42,8.56,2.18,12.83.12.65.14,2.14.12.65,0,.63,0,1.26-.06,1.88-1.34,24.09-1.6,48.28-2.4,72.39L301,763.44C300.84,767.31,306.85,767.3,307,763.44Z"/><path d="M306.09,766c-10.87-11.64-22.51-22.63-34.38-33.23-21.08-18.81-43.83-37.53-69.52-49.68-21.28-10.07-45.92-12.31-69-15.7-27.67-4.06-55.43-7.53-83.2-10.79-16.66-2-33.33-3.85-50-5.59l2.59,4.52c-.84,1.1.56-.7.82-1,1.12-1.37,2.25-2.74,3.4-4.08q5.46-6.4,11.42-12.34c9.45-9.4,20.46-19.19,33.33-23.47,15.73-5.23,33.71,3.36,47.89,9.77,6.12,2.76,12.38,6,19,7.32,5.27,1.07,10.36.24,15.54-.94,16.16-3.7,31.93-9.56,48.62-10.47,18.26-1,33,7.74,46.22,19.67a159.67,159.67,0,0,1,15.58,16.27c2.84,3.41,5.19,7.28,8.2,10.54,9,9.8,20.17,17.64,29.65,27,5.08,5,10.72,10.55,13.68,17.16,3,6.78,3.5,15,4.1,22.32a332.58,332.58,0,0,1,.92,34.87c-.09,3.86,5.91,3.86,6,0,.26-10.79,0-21.63-.73-32.4-1-13.37-2.33-25.92-10.95-36.64-9.53-11.87-21.8-21.24-33-31.39-8.4-7.57-14.41-17.28-22.32-25.38-11.5-11.78-25.93-24-42.56-27.16-17.35-3.32-35.53,2-52.18,6.49-6.52,1.77-13.32,4.15-20.11,4.59-6.47.42-12.79-2.64-18.55-5.21C91.61,614.36,74,605.11,57.14,607.2c-15.31,1.89-28.78,13-39.61,23.21A185.49,185.49,0,0,0-2.59,652.5c-1.54,2,.63,4.31,2.59,4.51,40.4,4.22,80.77,9,121,14.64,12.83,1.81,25.65,3.72,38.42,5.92C170,679.39,180.87,681,191,684.78c26.07,9.74,49.1,28.46,69.92,46.45a533.17,533.17,0,0,1,41,39C304.49,773.07,308.73,768.82,306.09,766Z"/><path d="M41.26,618.73A392.15,392.15,0,0,1,91.5,593.45c13.6-5.69,27.7-10.74,42.24-13.38,16.15-2.93,32.32-.76,47.52,5.26,12.68,5,24.21,12.47,35.3,20.32,4.64,3.28,9.22,7,14.38,9.48,6.85,3.25,14.33,4.1,21.78,4.73,6.78.58,15.54.81,20.31,6.49a29.49,29.49,0,0,1,4.14,7.8c3.88,9.43,6.48,19.44,9,29.3,4.33,17,8,34.27,11.19,51.57.69,3.79,6.48,2.18,5.79-1.6q-4.27-23.29-9.89-46.33a285.51,285.51,0,0,0-9.15-31.57c-3.05-8.21-6.38-15.47-15.1-18.85-7.15-2.77-15.08-2.45-22.58-3.44-8.07-1.06-14.56-4.07-21.14-8.71-10.76-7.59-21.47-15.21-33.36-21-14.27-6.94-29.88-11.29-45.85-10.81-15.18.46-30.18,5-44.32,10.27a381.73,381.73,0,0,0-63.52,30.55c-3.31,2-.3,7.18,3,5.19Z"/><path d="M433.55,311a411.66,411.66,0,0,1-2.11,41.25,214.6,214.6,0,0,1-5.12,31.17c-2.36,9.33-6.22,17.27-11.2,25.46-20.83,34.27-46,65.52-68.86,98.38-6.81,9.79-13.5,19.69-19.71,29.87-3.46,5.68-7.48,11.55-9.46,18-3.19,10.27-3.87,21.58-4.86,32.22C309,622,308,656.91,307,691.71q-.63,23-1,46c-.14,8.16-.68,16.45-.33,24.6,0,.38,0,.77,0,1.15,0,3.9,5.73,3.82,6,0,1.79-25.86,6.23-53,16-77.09,3.91-9.59,9.9-18,14.62-27.14,5.25-10.19,9.37-20.86,13.84-31.4,3.42-8,7.12-16.47,13.14-22.94,5.88-6.3,12.59-11.65,18.25-18.23a190.35,190.35,0,0,0,19-26.2c4.79-8,9.41-16.8,10.89-26.11l-5,1.33c8.33,10.74,23.19-1.52,29-8.24,12.75-14.83,21.31-33.61,27.46-52,7.68-23,11.54-48,8.18-72.14-2.9-20.86-10.5-40.93-19.44-59.89a287.38,287.38,0,0,0-18.48-33.91c-2.09-3.23-7.29-.23-5.18,3,14.8,22.83,26.92,48.71,33.81,75,10.84,41.44.51,87.37-21.83,123.4-4.85,7.82-10.95,17.29-19.46,21.43-3.12,1.52-7.41,2.12-9.79-1-1.32-1.71-4.68-.78-5,1.33-2.86,18-16.06,35.08-27.49,48.59-5.67,6.71-12.19,12.24-18.32,18.44s-10.26,14.36-13.77,22.37c-4.5,10.26-8.42,20.76-13.36,30.82-4.65,9.45-10.85,18-15.11,27.69-7.08,16-11,33.36-13.95,50.57-1.8,10.66-3.28,21.44-4,32.22h6c.16-19.64.54-39.29,1-58.93.86-35.34,1.92-70.74,4.63-106,.95-12.42,1.82-25,4.43-37.25a38.23,38.23,0,0,1,4.67-12c5.48-9.92,11.73-19.43,18.07-28.83,22.47-33.3,47.67-64.64,69.47-98.42,5.34-8.27,11.1-16.68,14.69-25.89s5.45-18.92,6.91-28.58a389.52,389.52,0,0,0,4-52.52c0-1.35,0-2.71,0-4.06C439.55,307.13,433.55,307.13,433.55,311Z"/><path d="M501.18,682.16a136.52,136.52,0,0,1,24.59-7c8.38-1.55,17-1.3,25.47-2,18.42-1.46,36.79-3.63,55.14-5.8q7.13-.85,14.25-1.73c2.59-.33,4.53-4.16,1.51-5.59a417.27,417.27,0,0,0-52.77-21c-11.31-3.59-23.18-6.91-35.13-6.84a305.47,305.47,0,0,0-46.17,4.27c-15,2.39-30.25,5.35-44.44,10.84-8.78,3.39-17.08,8-25.23,12.66-21.89,12.52-43,26.42-63.93,40.47q-20.31,13.62-40.32,27.68c-3.13,2.21-.13,7.41,3,5.18,30.55-21.59,61.63-42.68,93.7-62,8.81-5.29,17.71-10.5,27-15,11.17-5.42,23.28-8.54,35.38-11.08,27.33-5.74,57.19-10.72,84.61-3.37,21,5.63,41.62,14,61.29,23.35l1.51-5.59q-19.17,2.39-38.39,4.49c-9.54,1-19.09,2.05-28.65,2.85-8,.67-16.19.51-24.16,1.55a129.54,129.54,0,0,0-29.84,7.81c-3.56,1.39-2,7.19,1.59,5.79Z"/><path d="M339,665q14.72-11.37,29.24-23c7.31-5.83,14.6-11.7,21.76-17.71,4.32-3.63,9.07-7.22,12.75-11.54,12.83-15.08,14.22-39.31,14.6-58.15a189.27,189.27,0,0,0-1.61-28.77l-5.91-45.37c-.5-3.78-6.5-3.83-6,0,2.83,21.7,7.17,43.64,7.54,65.57.32,19.26-.25,42.11-10.53,59-3,4.91-7.47,8.48-11.78,12.17C382.51,623,375.77,628.4,369,633.82q-17,13.65-34.23,27c-3.05,2.36,1.22,6.58,4.24,4.24Z"/><path d="M369.12,603.93c-.12-19.57-3.45-39.39-6.14-58.74-.52-3.81-6.31-2.19-5.78,1.59,2.61,18.83,5.8,38.11,5.92,57.15,0,3.86,6,3.87,6,0Z"/></g><rect class="cls-3" x="731" width="635" height="635"/><g class="cls-7"><line class="cls-8" x1="880.89" y1="304.4" x2="603.25" y2="400.17"/><line class="cls-9" x1="588.64" y1="405.21" x2="579.18" y2="408.47"/><line class="cls-10" x1="888.28" y1="337.23" x2="630.09" y2="472.61"/><line class="cls-9" x1="616.5" y1="479.73" x2="607.65" y2="484.38"/></g></svg>