<svg width="635" height="636" viewBox="0 0 635 636" fill="none" xmlns="http://www.w3.org/2000/svg">
<g clip-path="url(#clip0_1_110)">
<path d="M635 1.5H0V636.5H635V1.5Z" fill="white"/>
<mask id="mask0_1_110" style="mask-type:luminance" maskUnits="userSpaceOnUse" x="0" y="1" width="635" height="636">
<path d="M635 1.5H0V636.5H635V1.5Z" fill="white"/>
</mask>
<g mask="url(#mask0_1_110)">
<g filter="url(#filter0_d_1_110)">
<path d="M273.92 42.7599V108.89L278.42 104.39H-189.76C-211.36 104.39 -233.15 103.57 -254.76 104.39C-255.06 104.39 -255.35 104.39 -255.65 104.39C-256.838 104.408 -257.972 104.888 -258.812 105.728C-259.652 106.568 -260.132 107.702 -260.15 108.89V351.37L-255.65 346.87H-446C-447.188 346.888 -448.322 347.368 -449.162 348.208C-450.002 349.048 -450.482 350.182 -450.5 351.37V519.7C-450.5 525.49 -441.5 525.5 -441.5 519.7V351.37L-446 355.87H-255.63C-254.441 355.854 -253.306 355.375 -252.465 354.535C-251.625 353.694 -251.146 352.559 -251.13 351.37V108.89L-255.63 113.39H212.55C234.16 113.39 255.95 114.22 277.55 113.39C277.84 113.39 278.14 113.39 278.43 113.39C279.619 113.374 280.754 112.895 281.595 112.055C282.435 111.214 282.914 110.079 282.93 108.89V42.7599C282.93 36.9699 273.93 36.9599 273.93 42.7599H273.92Z" fill="#1A1A1A"/>
<path d="M345.06 42.7599V97.87C345.078 99.0578 345.558 100.192 346.398 101.032C347.238 101.872 348.372 102.352 349.56 102.37H680.21L675.71 97.87V376.42L680.21 371.92H501.86C500.672 371.938 499.538 372.418 498.698 373.258C497.858 374.098 497.378 375.232 497.36 376.42V508.68C497.378 509.868 497.858 511.002 498.698 511.842C499.538 512.682 500.672 513.162 501.86 513.18H891.14C896.36 513.18 901.72 513.53 906.93 513.18C907.17 513.18 907.42 513.18 907.66 513.18C908.848 513.162 909.982 512.682 910.822 511.842C911.662 511.002 912.142 509.868 912.16 508.68V401.5L907.66 406H1081L1076.5 401.5V566.79C1076.5 572.58 1085.5 572.59 1085.5 566.79V401.5C1085.48 400.312 1085 399.178 1084.16 398.338C1083.32 397.498 1082.19 397.018 1081 397H907.66C906.472 397.018 905.338 397.498 904.498 398.338C903.658 399.178 903.178 400.312 903.16 401.5V508.68L907.66 504.18H518.38C513.38 504.18 507.49 503.28 502.59 504.18C502.347 504.2 502.103 504.2 501.86 504.18L506.36 508.68V376.42L501.86 380.92H680.21C681.399 380.904 682.534 380.425 683.375 379.585C684.215 378.744 684.695 377.609 684.71 376.42V97.87C684.692 96.6821 684.212 95.548 683.372 94.7079C682.532 93.8679 681.398 93.388 680.21 93.37H349.56L354.06 97.87V42.7599C354.06 36.9699 345.06 36.9599 345.06 42.7599Z" fill="#1A1A1A"/>
<path d="M249.88 42.7599V214.1L254.38 209.6H46C44.8114 209.615 43.6758 210.095 42.8352 210.935C41.9946 211.776 41.5155 212.911 41.5 214.1V408.5C41.5181 409.688 41.998 410.822 42.838 411.662C43.678 412.502 44.8122 412.982 46 413H208.29L203.79 408.5V613.89C203.808 615.078 204.288 616.212 205.128 617.052C205.968 617.892 207.102 618.372 208.29 618.39H407.68L403.18 613.89V704.06C403.18 709.85 412.18 709.86 412.18 704.06V613.89C412.164 612.701 411.685 611.566 410.845 610.725C410.004 609.885 408.869 609.406 407.68 609.39H208.29L212.79 613.89V408.5C212.772 407.312 212.292 406.178 211.452 405.338C210.612 404.498 209.478 404.018 208.29 404H46L50.5 408.5V214.1L46 218.6H254.38C255.568 218.582 256.702 218.102 257.542 217.262C258.382 216.422 258.862 215.288 258.88 214.1V42.7599C258.88 36.9699 249.88 36.9599 249.88 42.7599Z" fill="#1A1A1A"/>
<path d="M222.82 42.7599V162L227.32 157.5H-77.51C-91.46 157.5 -105.85 156.5 -119.77 157.5H-120.36C-121.548 157.518 -122.682 157.998 -123.522 158.838C-124.362 159.678 -124.842 160.812 -124.86 162V426.5L-120.36 422H-330.77C-331.959 422.015 -333.094 422.495 -333.935 423.335C-334.775 424.176 -335.254 425.311 -335.27 426.5V608.88C-335.252 610.068 -334.772 611.202 -333.932 612.042C-333.092 612.882 -331.958 613.362 -330.77 613.38H-34.19C-33.0022 613.362 -31.868 612.882 -31.028 612.042C-30.188 611.202 -29.7081 610.068 -29.69 608.88V476.62L-34.19 481.12H103.08L98.58 476.62V737.13L103.08 732.63H-40.2C-45.9901 732.63 -46 741.63 -40.2 741.63H103.08C104.268 741.612 105.402 741.132 106.242 740.292C107.082 739.452 107.562 738.318 107.58 737.13V476.62C107.564 475.431 107.085 474.296 106.245 473.455C105.404 472.615 104.269 472.135 103.08 472.12H-34.19C-35.3779 472.138 -36.512 472.618 -37.3521 473.458C-38.1921 474.298 -38.672 475.432 -38.69 476.62V608.88L-34.19 604.38H-330.77L-326.27 608.88V426.5L-330.77 431H-120.36C-119.172 430.982 -118.038 430.502 -117.198 429.662C-116.358 428.822 -115.878 427.688 -115.86 426.5V162L-120.36 166.5H184.48C198.42 166.5 212.82 167.5 226.73 166.5C226.927 166.49 227.123 166.49 227.32 166.5C228.509 166.484 229.644 166.005 230.485 165.165C231.325 164.324 231.804 163.189 231.82 162V42.7599C231.82 36.9699 222.82 36.9599 222.82 42.7599Z" fill="#1A1A1A"/>
<path d="M371.11 42.7599V198.07C371.128 199.258 371.608 200.392 372.448 201.232C373.288 202.072 374.422 202.552 375.61 202.57H821.52C827.29 202.57 834 203.57 839.71 202.57C839.983 202.55 840.257 202.55 840.53 202.57L836.03 198.07V315.3C836.048 316.488 836.528 317.622 837.368 318.462C838.208 319.302 839.342 319.782 840.53 319.8H959.76L955.26 315.3V577.81L959.76 573.31H738.33C737.142 573.328 736.008 573.808 735.168 574.648C734.328 575.488 733.848 576.622 733.83 577.81V698.05C733.83 703.84 742.83 703.85 742.83 698.05V577.81L738.33 582.31H959.76C960.948 582.292 962.082 581.812 962.922 580.972C963.762 580.132 964.242 578.998 964.26 577.81V315.3C964.242 314.112 963.762 312.978 962.922 312.138C962.082 311.298 960.948 310.818 959.76 310.8H840.53L845.03 315.3V198.07C845.012 196.882 844.532 195.748 843.692 194.908C842.852 194.068 841.718 193.588 840.53 193.57H394.62C388.85 193.57 382.14 192.57 376.43 193.57C376.157 193.59 375.883 193.59 375.61 193.57L380.11 198.07V42.7599C380.11 36.9699 371.11 36.9599 371.11 42.7599Z" fill="#1A1A1A"/>
<path d="M396.16 42.7599V304.28C396.178 305.468 396.658 306.602 397.498 307.442C398.338 308.282 399.472 308.762 400.66 308.78H590L585.5 304.28V566.79L590 562.29H461.78C460.592 562.308 459.458 562.788 458.618 563.628C457.778 564.468 457.298 565.602 457.28 566.79V763.18C457.28 768.97 466.28 768.98 466.28 763.18V566.79L461.78 571.29H590C591.188 571.272 592.322 570.792 593.162 569.952C594.002 569.112 594.482 567.978 594.5 566.79V304.28C594.482 303.092 594.002 301.958 593.162 301.118C592.322 300.278 591.188 299.798 590 299.78H400.66L405.16 304.28V42.7599C405.16 36.9699 396.16 36.9599 396.16 42.7599Z" fill="#1A1A1A"/>
<path d="M296 42.7599V272.21L300.5 267.71H147.17C145.982 267.728 144.848 268.208 144.008 269.048C143.168 269.888 142.688 271.022 142.67 272.21V686.37C142.67 691.98 142.27 697.74 142.67 703.37C142.67 703.61 142.67 703.86 142.67 704.1C142.686 705.289 143.165 706.424 144.005 707.265C144.846 708.105 145.981 708.584 147.17 708.6H300.47C301.658 708.582 302.792 708.102 303.632 707.262C304.472 706.422 304.952 705.288 304.97 704.1V448.56C304.97 442.77 295.97 442.76 295.97 448.56V704.06L300.47 699.56H147.17L151.67 704.06V289.91C151.67 284.62 152.67 278.16 151.67 272.91C151.645 272.667 151.645 272.423 151.67 272.18L147.17 276.68H300.47C301.658 276.662 302.792 276.182 303.632 275.342C304.472 274.502 304.952 273.368 304.97 272.18V42.7599C304.97 36.9699 295.97 36.9599 295.97 42.7599H296Z" fill="#1A1A1A"/>
<path d="M322 42.7599V294.26C322.018 295.448 322.498 296.582 323.338 297.422C324.178 298.262 325.312 298.742 326.5 298.76H373.59L369.09 294.26V653.7C369.09 658.54 368.74 663.53 369.09 668.36C369.09 668.57 369.09 668.78 369.09 668.99C369.106 670.179 369.585 671.314 370.425 672.155C371.266 672.995 372.401 673.474 373.59 673.49H618.09L613.59 668.99V737.13C613.59 742.92 622.59 742.93 622.59 737.13V668.99C622.572 667.802 622.092 666.668 621.252 665.828C620.412 664.988 619.278 664.508 618.09 664.49H373.61L378.11 668.99V309.55C378.11 304.71 378.46 299.72 378.11 294.89C378.11 294.68 378.11 294.47 378.11 294.26C378.092 293.072 377.612 291.938 376.772 291.098C375.932 290.258 374.798 289.778 373.61 289.76H326.52L331.02 294.26V42.7599C331.02 36.9699 322.02 36.9599 322.02 42.7599H322Z" fill="#1A1A1A"/>
</g>
</g>
</g>
<defs>
<filter id="filter0_d_1_110" x="-454.5" y="38.4137" width="1544" height="737.112" filterUnits="userSpaceOnUse" color-interpolation-filters="sRGB">
<feFlood flood-opacity="0" result="BackgroundImageFix"/>
<feColorMatrix in="SourceAlpha" type="matrix" values="0 0 0 0 0 0 0 0 0 0 0 0 0 0 0 0 0 0 127 0" result="hardAlpha"/>
<feOffset dy="4"/>
<feGaussianBlur stdDeviation="2"/>
<feComposite in2="hardAlpha" operator="out"/>
<feColorMatrix type="matrix" values="0 0 0 0 0 0 0 0 0 0 0 0 0 0 0 0 0 0 0.25 0"/>
<feBlend mode="normal" in2="BackgroundImageFix" result="effect1_dropShadow_1_110"/>
<feBlend mode="normal" in="SourceGraphic" in2="effect1_dropShadow_1_110" result="shape"/>
</filter>
<clipPath id="clip0_1_110">
<rect width="635" height="635" fill="white" transform="translate(0 0.5)"/>
</clipPath>
</defs>
</svg>
