<svg id="Layer_1" data-name="Layer 1" xmlns="http://www.w3.org/2000/svg" xmlns:xlink="http://www.w3.org/1999/xlink" viewBox="0 0 635 635"><defs><style>.cls-1{fill:#b795f3;}.cls-10,.cls-2,.cls-8,.cls-9{fill:none;}.cls-3{clip-path:url(#clip-path);}.cls-4{fill:#c2f395;}.cls-5{clip-path:url(#clip-path-2);}.cls-6{fill:#fff;}.cls-7{clip-path:url(#clip-path-3);}.cls-10,.cls-8,.cls-9{stroke:#000;stroke-linecap:round;stroke-miterlimit:10;stroke-width:2px;}.cls-8{stroke-dasharray:20.61 30.92;}.cls-10{stroke-dasharray:20.46 30.69;}</style><clipPath id="clip-path"><rect class="cls-1" y="-698" width="635" height="635"/></clipPath><clipPath id="clip-path-2"><rect class="cls-2" width="635" height="635"/></clipPath><clipPath id="clip-path-3"><rect class="cls-2" x="731" y="1" width="635" height="635"/></clipPath></defs><title>part-0</title><rect class="cls-1" y="-698" width="635" height="635"/><g class="cls-3"><path class="cls-4" d="M309.31-59s6.31,116.6,6.31,122.9-3.16,72.49-3.16,72.49h9.46V-59h18.91S328.22,38.7,328.22,54.46s3.15,81.94,3.15,81.94"/><path d="M306.31-59q2.13,39.39,4.18,78.8c.7,13.47,1.45,27,2,40.43.43,10.27-.48,20.63-.94,30.89q-1,22.64-2.09,45.27a3,3,0,0,0,3,3h9.46a3,3,0,0,0,3-3V-59l-3,3h18.91l-3-3c-3.24,25.08-6.34,50.19-9.15,75.32-1.37,12.28-3.16,24.71-3.44,37.07-.33,14.08.74,28.28,1.32,42.34q.84,20.33,1.81,40.66c.19,3.84,6.19,3.86,6,0-1.27-26.76-2.95-53.6-3.14-80.39-.08-11.2,1.57-22.49,2.78-33.6,1.82-16.73,3.83-33.44,5.89-50.14q1.92-15.64,3.93-31.26c.2-1.61-1.55-3-3-3H321.92a3,3,0,0,0-3,3V136.4l3-3h-9.46l3,3q.92-19,1.77-38.05c.53-11.88,1.65-23.93,1.35-35.83-.74-29.65-2.94-59.32-4.52-88.94Q313.19-42.7,312.31-59c-.2-3.84-6.21-3.87-6,0Z"/></g><g class="cls-5"><path class="cls-6" d="M547.15,101.86s-65.47-4.68-118.84-25.55c-17.17-6.71-68.22-39.92-68.22-39.92L370.51,7.11,504,1l46.74,72Z"/><path d="M547.15,98.86A461.06,461.06,0,0,1,471.76,86.6C454.94,82.51,437.46,78,422,70.08c-12.2-6.22-23.92-13.43-35.57-20.61Q373.91,41.76,361.6,33.8L363,37.18,373.4,7.91l-2.89,2.2L487.58,4.75,504,4l-2.59-1.49L526.1,40.6l16.18,24.92,4.7,7.24a10.51,10.51,0,0,0,1,1.55c-.57-.6,0-1.92-.45.15-2,8.82-2.27,18.41-3.38,27.4-.47,3.82,5.53,3.79,6,0,1.1-9,2.46-17.92,3.32-26.9.44-4.65-3.37-8.4-5.82-12.18l-36-55.43c-1.91-2.93-4.25-8.91-8.11-9.33-5-.54-10.65.49-15.64.72L420.47,1.82l-50,2.29a3.12,3.12,0,0,0-2.89,2.2L357.2,35.59A3,3,0,0,0,358.58,39c18.74,12.18,37.72,24.32,57.48,34.78,15,7.93,31.46,12.79,47.8,17a495.28,495.28,0,0,0,54.4,10.74c9.59,1.37,19.23,2.62,28.89,3.32C551,105.14,551,99.13,547.15,98.86Z"/><path class="cls-6" d="M254.87,24.69s-36.15,25.66-49.1,35.08c-25.72,18.7-79.5,32.73-79.5,32.73l31.94-71.31,63.63-10.7,33,14.2"/><path d="M253.36,22.1Q231.54,37.6,209.78,53.18c-19.69,14.17-41.66,23.17-64.67,30.6-6.49,2.09-13,4.1-19.64,5.83L128.86,94l30.7-68.54a19.34,19.34,0,0,0,1.24-2.76c.9.87-3.16,1-1,1.22a9.14,9.14,0,0,0,2.3-.38l19.47-3.27,24.84-4.18c4.78-.81,11-.82,15.5-2.61,1.66-.65-1.27.09-1.4-.33.1.34,2.51,1.08,2.77,1.19l11.25,4.84,18.8,8.08c3.5,1.51,6.56-3.65,3-5.18L239.87,15c-5.38-2.31-10.88-5.39-16.49-7.09-3.45-1-8.28.69-11.73,1.27l-23.89,4-23.35,3.92c-2.79.47-7.13.28-8.9,2.8-2.29,3.26-3.57,8-5.19,11.59L140.26,54,123.68,91c-1,2.31.67,5.12,3.38,4.41a368.67,368.67,0,0,0,50.23-17.1c11.21-4.73,22-10.16,31.86-17.3q13.48-9.75,27.06-19.37l20.17-14.35c3.13-2.21.13-7.42-3-5.18Z"/><polyline class="cls-6" points="472.9 303.97 409.17 508.41 245.27 508.41 181.19 303.97"/><path d="M470,303.17l-21.5,69L414.2,482.18l-7.93,25.43,2.9-2.2H245.27l2.9,2.2-21.62-69-34.49-110-8-25.44c-1.15-3.67-6.94-2.1-5.78,1.6l21.61,69,34.5,110,8,25.44a3.08,3.08,0,0,0,2.89,2.2h163.9a3.07,3.07,0,0,0,2.89-2.2l21.5-69,34.3-110,7.93-25.43c1.15-3.7-4.64-5.28-5.78-1.6Z"/><polyline class="cls-6" points="211.88 304.17 150.72 304.17 150.72 227.9 500.57 227.9 500.57 304.17 439.19 304.17"/><path d="M211.89,301.17H150.72l3,3V227.9l-3,3H495.2c1.37,0,3.41.39,4.74,0a2.65,2.65,0,0,1,.63,0l-3-3v76.27l3-3H439.19c-3.86,0-3.86,6,0,6h61.38a3,3,0,0,0,3-3V227.9a3,3,0,0,0-3-3H165.05c-4.5,0-9.21-.4-13.7,0-.21,0-.42,0-.63,0a3,3,0,0,0-3,3v76.27a3,3,0,0,0,3,3h61.17c3.86,0,3.86-6,0-6Z"/><path class="cls-6" d="M254.28,24.11S224.06-3.36,204.83-6.11s-33-5.5-44,0-33,35.71-46.7,41.21S51,65.32,51,65.32,100.43,92.8,122.41,92.8s44-30.23,46.7-35.72,5.5-30.22,22-33S254.28,24.11,254.28,24.11Z"/><path d="M256.41,22c-10.22-9.26-21.56-17.94-33.69-24.52-9-4.88-17.6-6.59-27.66-8s-20.72-3.16-30.59-.2c-7.31,2.19-12.7,7.44-18,12.71C139.61,8.85,133.14,16.13,126,22.78c-11.1,10.36-25.74,15.14-39.27,21.64Q68,53.44,49.46,62.73a3,3,0,0,0,0,5.18,374,374,0,0,0,36,17.49c16.58,7,35.3,14.93,52.68,6.2,9.09-4.57,16.88-11.82,23.52-19.43,4-4.6,8.72-9.8,10.86-15.64,2.72-7.41,3.91-15.23,8.42-21.93,5.35-7.93,13.54-8.18,22.27-8.52,17-.65,34.08,0,51,1,3.86.23,3.85-5.78,0-6-14.18-.83-28.41-1.32-42.62-1.21-7.78.06-17-.53-24.48,2.15-8.07,2.9-12.72,10.57-15.72,18.16-2.21,5.61-2.89,12.19-6.09,17.33A92.41,92.41,0,0,1,148.54,77c-7.57,6.78-17.13,13.25-27.73,12.72-8.71-.43-17.46-3.75-25.52-6.83a336.84,336.84,0,0,1-42.8-20.19v5.18q15-7.48,30-14.8c7.25-3.52,14.51-7,21.83-10.41,5.25-2.43,11.07-4.32,15.91-7.51,14.61-9.62,24.36-24.93,37.86-35.84,7.21-5.82,16.32-6.06,25.2-5.31,10.24.87,21.54,1.7,31,5.94,13.86,6.2,26.6,16.09,37.8,26.25C255,28.82,259.27,24.59,256.41,22Z"/><path d="M307,64.44l4.66-140.83a58.54,58.54,0,0,0-1.1-12.5q-3.87-22.81-7.89-45.6C296-172,291.54-211.32,274.19-245.66c-14-27.72-34.71-54.84-59.43-74-1.57-1.21-4.6-1.17-5,1.32A340.63,340.63,0,0,0,206-236c1.31,16.43,4.09,32.13,11.44,47,7.46,15,17.29,28.84,27.2,42.33,10,13.65,20.53,27,30.32,40.78,7.56,10.67,16.08,22.25,19.61,35,2.63,9.55,3,19.9,3.65,29.73,1,14,1.48,28.09,1.88,42.15q.9,31.74.9,63.5c0,3.87,6,3.87,6,0q0-26.16-.62-52.33c-.58-25.69-.66-51.93-4.57-77.38-1.63-10.63-6.27-20-11.88-29.09-8.61-14-18.73-26.94-28.59-40-18.94-25.12-41.58-51.79-47.12-83.65-5.57-32.06-4-66.67,1.34-98.72l-5,1.32c20.47,15.87,37.86,37.36,51.1,59.41a192.65,192.65,0,0,1,23.57,60.55c3.51,16.88,6.55,33.86,9.58,50.82q4.47,25,8.73,50c.73,4.28,1.42,8.56,2.18,12.83.12.65.14,2.14.12.65,0,.63,0,1.26-.06,1.88-1.34,24.09-1.6,48.28-2.4,72.39L301,64.44C300.84,68.31,306.85,68.3,307,64.44Z"/><path d="M306.09,67c-10.87-11.64-22.51-22.63-34.38-33.23C250.63,15,227.88-3.76,202.19-15.91c-21.28-10.07-45.92-12.31-69-15.7C105.55-35.67,77.79-39.14,50-42.4c-16.66-2-33.33-3.85-50-5.59l2.59,4.52c-.84,1.1.56-.7.82-1,1.12-1.37,2.25-2.74,3.4-4.08Q12.27-55,18.23-60.92c9.45-9.4,20.46-19.19,33.33-23.47C67.29-89.62,85.27-81,99.45-74.62c6.12,2.76,12.38,6,19,7.32,5.27,1.07,10.36.24,15.54-.94,16.16-3.7,31.93-9.56,48.62-10.47,18.26-1,33,7.74,46.22,19.67a159.67,159.67,0,0,1,15.58,16.27c2.84,3.41,5.19,7.28,8.2,10.54,9,9.8,20.17,17.64,29.65,27C287.35-.22,293,5.32,296,11.93c3,6.78,3.5,15,4.1,22.32A332.58,332.58,0,0,1,301,69.12c-.09,3.86,5.91,3.86,6,0,.26-10.79,0-21.63-.73-32.4-1-13.37-2.33-25.92-10.95-36.64-9.53-11.87-21.8-21.24-33-31.39-8.4-7.57-14.41-17.28-22.32-25.38-11.5-11.78-25.93-24-42.56-27.16-17.35-3.32-35.53,2-52.18,6.49-6.52,1.77-13.32,4.15-20.11,4.59-6.47.42-12.79-2.64-18.55-5.21C91.61-84.64,74-93.89,57.14-91.8c-15.31,1.89-28.78,13-39.61,23.21A185.49,185.49,0,0,0-2.59-46.5C-4.13-44.49-2-42.19,0-42c40.4,4.22,80.77,9,121,14.64,12.83,1.81,25.65,3.72,38.42,5.92C170-19.61,180.87-18,191-14.22c26.07,9.74,49.1,28.46,69.92,46.45a533.17,533.17,0,0,1,41,39C304.49,74.07,308.73,69.82,306.09,67Z"/><path d="M41.26-80.27A392.15,392.15,0,0,1,91.5-105.55c13.6-5.69,27.7-10.74,42.24-13.38,16.15-2.93,32.32-.76,47.52,5.26,12.68,5,24.21,12.47,35.3,20.32,4.64,3.28,9.22,7,14.38,9.48,6.85,3.25,14.33,4.1,21.78,4.73,6.78.58,15.54.81,20.31,6.49a29.49,29.49,0,0,1,4.14,7.8c3.88,9.43,6.48,19.44,9,29.3,4.33,17,8,34.27,11.19,51.57.69,3.79,6.48,2.18,5.79-1.6q-4.27-23.29-9.89-46.33a285.51,285.51,0,0,0-9.15-31.57c-3.05-8.21-6.38-15.47-15.1-18.85-7.15-2.77-15.08-2.45-22.58-3.44-8.07-1.06-14.56-4.07-21.14-8.71-10.76-7.59-21.47-15.21-33.36-21-14.27-6.94-29.88-11.29-45.85-10.81-15.18.46-30.18,5-44.32,10.27A381.73,381.73,0,0,0,38.24-85.46c-3.31,2-.3,7.18,3,5.19Z"/><path d="M433.55-388a411.66,411.66,0,0,1-2.11,41.25,214.6,214.6,0,0,1-5.12,31.17c-2.36,9.33-6.22,17.27-11.2,25.46-20.83,34.27-46,65.52-68.86,98.38-6.81,9.79-13.5,19.69-19.71,29.87-3.46,5.68-7.48,11.55-9.46,18-3.19,10.27-3.87,21.58-4.86,32.22C309-77,308-42.09,307-7.29q-.63,23-1,46c-.14,8.16-.68,16.45-.33,24.6,0,.38,0,.77,0,1.15,0,3.9,5.73,3.82,6,0,1.79-25.86,6.23-53,16-77.09,3.91-9.59,9.9-18,14.62-27.14,5.25-10.19,9.37-20.86,13.84-31.4,3.42-8,7.12-16.47,13.14-22.94,5.88-6.3,12.59-11.65,18.25-18.23a190.35,190.35,0,0,0,19-26.2c4.79-8,9.41-16.8,10.89-26.11l-5,1.33c8.33,10.74,23.19-1.52,29-8.24,12.75-14.83,21.31-33.61,27.46-52,7.68-23,11.54-48,8.18-72.14-2.9-20.86-10.5-40.93-19.44-59.89a287.38,287.38,0,0,0-18.48-33.91c-2.09-3.23-7.29-.23-5.18,3,14.8,22.83,26.92,48.71,33.81,75,10.84,41.44.51,87.37-21.83,123.4-4.85,7.82-10.95,17.29-19.46,21.43-3.12,1.52-7.41,2.12-9.79-1-1.32-1.71-4.68-.78-5,1.33-2.86,18-16.06,35.08-27.49,48.59C378.52-111,372-105.43,365.87-99.23S355.61-84.87,352.1-76.86C347.6-66.6,343.68-56.1,338.74-46c-4.65,9.45-10.85,18.05-15.11,27.69-7.08,16-11,33.36-13.95,50.57-1.8,10.66-3.28,21.44-4,32.22h6c.16-19.64.54-39.29,1-58.93.86-35.34,1.92-70.74,4.63-106,.95-12.42,1.82-25,4.43-37.25a38.23,38.23,0,0,1,4.67-12c5.48-9.92,11.73-19.43,18.07-28.83,22.47-33.3,47.67-64.64,69.47-98.42,5.34-8.27,11.1-16.68,14.69-25.89s5.45-18.92,6.91-28.58a389.52,389.52,0,0,0,4-52.52c0-1.35,0-2.71,0-4.06C439.55-391.87,433.55-391.87,433.55-388Z"/><path class="cls-6" d="M500.39-19.73s21.33-8.36,37.82-8.36,82.42-8.24,82.42-8.24-57.7-27.48-85.17-27.48-71.68,6.78-93.53,16c-34.36,14.52-126.27,79.5-126.27,79.5"/><path d="M501.18-16.84a136.52,136.52,0,0,1,24.59-7c8.38-1.55,17-1.3,25.47-2,18.42-1.46,36.79-3.63,55.14-5.8q7.13-.85,14.25-1.73c2.59-.33,4.53-4.16,1.51-5.59a417.27,417.27,0,0,0-52.77-21c-11.31-3.59-23.18-6.91-35.13-6.84a305.47,305.47,0,0,0-46.17,4.27c-15,2.39-30.25,5.35-44.44,10.84-8.78,3.39-17.08,8-25.23,12.66-21.89,12.52-43,26.42-63.93,40.47q-20.31,13.62-40.32,27.68c-3.13,2.21-.13,7.41,3,5.18,30.55-21.59,61.63-42.68,93.7-62,8.81-5.29,17.71-10.5,27-15,11.17-5.42,23.28-8.54,35.38-11.08,27.33-5.74,57.19-10.72,84.61-3.37,21,5.63,41.62,14,61.29,23.35l1.51-5.59q-19.17,2.38-38.39,4.49c-9.54,1-19.09,2.05-28.65,2.85-8,.67-16.19.51-24.16,1.55a129.54,129.54,0,0,0-29.84,7.81c-3.56,1.39-2,7.19,1.59,5.79Z"/><path class="cls-6" d="M362.37,35.1c-13.72,10.67,11-57.7,27.47-71.43s46.71-11,65.94-5.5,16.49,13.74,27.48,19.23,33,2.75,44,16.49S576.67,29.6,590.41,95.54c0,0-44,13.74-65.94,0s-57.7-71.43-76.93-76.92S387.1,15.87,362.37,35.1Z"/><path d="M360.86,32.51c-.24.18-.95.73-.92.67.11-.26,1.16,1,1.55.91a6.29,6.29,0,0,1-.09-1.91c.1-3.48,1.18-7,2.12-10.37A192,192,0,0,1,375.24-8.46c4.05-8.44,8.54-17.91,15.36-24.51,10.32-10,27-11,40.57-10.13,13.17.86,30.34,3,39.6,13.33,3.23,3.61,6.1,7.19,10.48,9.5,5.21,2.75,11.17,3.55,16.9,4.55,6.65,1.16,13.61,2.31,19.59,5.61,4.35,2.4,7,6.07,10.42,9.51C533.57,4.94,539.51,10,545,15.46c22.19,22.4,36,50.11,42.56,80.88l2.09-3.69a128,128,0,0,1-40.58,6c-9.11-.24-18.25-1.94-25.69-7.48-6.79-5-12.56-11.58-18.13-17.89-12.84-14.52-24.45-30.21-38.13-44-4.62-4.65-9.68-9.56-15.69-12.37-6.8-3.19-15.34-3.6-22.7-3.77-23.39-.53-48.95,5-67.83,19.37-3,2.31-.05,7.52,3,5.18,17.51-13.32,40.63-18.6,62.33-18.57,7.37,0,16.33.06,23.07,3.42,6.43,3.2,11.76,9,16.62,14.15,13.28,14.06,24.86,29.62,37.86,43.93C509,86.43,514.55,92.25,521,96.81c6.94,4.92,15.32,6.9,23.68,7.58,15.39,1.25,31.82-1.39,46.55-6a3.08,3.08,0,0,0,2.09-3.69c-6.44-30.28-19.87-58.08-41.25-80.59-6.15-6.48-13-12.26-19.26-18.6C529.23-8,526.29-12,521.88-14.65,515.56-18.49,508.17-20,501-21.29c-6.36-1.13-13.53-1.7-19-5.51-4.43-3.1-7.12-8.07-11.42-11.36-6.16-4.71-13.91-6.79-21.36-8.4a118.67,118.67,0,0,0-24.56-2.77c-13.65,0-29.46,2.65-39.24,13.07-7.55,8.06-12.65,18.7-17.18,28.64-5.07,11.14-10.08,23-12.26,35.1-.51,2.87-1.36,6.85.26,9.54,1.79,3,5.2,2.48,7.63.67C367,35.41,364,30.2,360.86,32.51Z"/><path class="cls-4" d="M299.3,83.15S304,169.67,304,174.34s-2.34,53.78-2.34,53.78h7v-145h14s-9.35,72.49-9.35,84.18,2.33,60.79,2.33,60.79"/><path d="M296.3,83.15c2,37.11,5.52,74.37,3.88,111.53q-.75,16.73-1.55,33.44a3,3,0,0,0,3,3h7a3,3,0,0,0,3-3v-145l-3,3h14l-3-3q-3.6,27.87-6.78,55.79c-1,9.11-2.33,18.32-2.56,27.49-.27,10.56.55,21.21,1,31.75q.62,15,1.33,29.94c.19,3.85,6.19,3.87,6,0-.94-19.89-2.27-39.85-2.33-59.76,0-8.29,1.17-16.64,2.07-24.87,1.36-12.51,2.87-25,4.41-37.51q1.41-11.42,2.87-22.83c.21-1.61-1.54-3-3-3h-14a3,3,0,0,0-3,3v145l3-3h-7l3,3c.87-18.21,2.73-36.7,2.31-54.93-.5-22-2.18-44-3.35-65.92L302.3,83.15c-.21-3.84-6.21-3.86-6,0Z"/><path class="cls-6" d="M337.64,128.51c3.2,11.21,11,27.48,33,33s65.94,2.75,79.68,8.24,44,13.74,49.45,27.48c0,0,8.25-65.94-13.73-87.92s-65.94-68.69-96.17-68.69S329.4,81.81,329.4,81.81,334.39,117.11,337.64,128.51Z"/><path d="M334.75,129.31c3,10.37,8.47,19.89,17.12,26.57,10.64,8.19,23.88,10.15,36.88,11.3,13.95,1.22,28,1.32,41.93,2.34,5.36.4,10.84.79,16,2.2,4.87,1.32,9.62,3.44,14.37,5.16a169,169,0,0,1,21.31,8.89c5.77,3,12,6.74,14.75,12.94,1.35,3.08,5.28,1,5.59-1.51a208.29,208.29,0,0,0,0-52.39c-1.5-11.44-4.11-23.68-11-33.24-3.15-4.41-7.32-8.08-11.13-11.92-5-5.06-10.09-10.11-15.24-15.05C454.24,73.85,442.62,63.43,430,54.43,419.61,47.07,407.81,39.85,395,38c-25.18-3.62-48.26,18.32-63.17,36-1.52,1.79-4.11,4.11-5,6.31-1.14,2.72.43,7.33.84,10.07,2,13,3.59,26.29,7.1,39,1,3.72,6.82,2.14,5.79-1.59-3-10.63-4.43-21.73-6.13-32.6-.65-4.12-1-8.39-1.88-12.46-.7-3.24.05.78-.48.58a16.44,16.44,0,0,0,1.23-1.6,150.79,150.79,0,0,1,20.31-21.12c9.84-8.38,22.28-16.71,35.67-16.92,12-.18,23.57,6.55,33.28,13,12.29,8.15,23.46,17.94,34.2,28,9.25,8.69,18.38,17.61,27.14,26.79,7.41,7.76,10.39,18.71,12.19,29,3.24,18.47,3,38.18.67,56.78l5.59-1.52C497.78,185.31,485,180,475.28,175.91c-5.78-2.4-11.68-4.48-17.57-6.6-4.39-1.58-8.6-3.37-13.21-4.2-12.45-2.25-25.32-2.23-37.93-2.82-13.07-.62-27.17-.66-39.66-5-13.67-4.79-22.41-15.95-26.37-29.53C339.46,124,333.67,125.59,334.75,129.31Z"/><path class="cls-6" d="M254.87,22.36s-49.1,26.48-62.84,43S172.8,101,178.29,123s65.94,52.2,74.18,60.44,24.73,16.49,30.22,33c0,0,5.5-41.21,19.24-63.19s44-38.46,57.69-41.21,41.21-27.48,38.47-41.21-38.47-30.23-38.47-30.23l-51,30.87Z"/><path d="M253.36,19.77c-12.26,6.62-24.28,13.78-35.91,21.45C199.63,53,183.36,65.86,176.34,86.92c-3.93,11.78-4.44,25.61-.76,37.54,2.18,7.1,7.64,12.93,13,17.88,14.11,13.16,31,23.17,47.3,33.37a137.61,137.61,0,0,1,17.22,12.35c10.14,8.76,22,15.89,26.74,29.17.88,2.45,5.35,3.22,5.79,0,1.05-7.85,2.64-15.65,4.46-23.35,3.28-13.82,7.33-28.3,15.21-40.28,8.64-13.15,22-23.27,35.63-30.76a80.56,80.56,0,0,1,16.82-7.26c4.91-1.37,9.3-2.76,13.72-5.43,10.55-6.38,21.07-15.83,26.83-26.89,5.1-9.8,2.62-17.77-5.22-25.08-8-7.48-17.86-13.11-27.57-18-1.78-.91-4.54-2.85-6.64-2.43-1.7.34-3.56,2-5,2.88L307.14,68.87l3.63.47L257,20.23c-2.85-2.59-7.1,1.64-4.24,4.25l53.78,49.1a3.07,3.07,0,0,0,3.63.47l51-30.86h-3c11.3,5.23,23.35,11.68,32.13,20.63,5.76,5.87,6,11.2,1.8,18.25-4.7,7.92-11.88,14.74-19.33,20.06a50.87,50.87,0,0,1-9.91,5.77c-3.12,1.29-6.52,1.75-9.72,2.85a109.28,109.28,0,0,0-24.4,12.46c-17.38,11.54-30.22,26.26-37.53,45.86a216.71,216.71,0,0,0-11.35,46.56h5.79c-3.85-10.77-11.6-18.5-20.39-25.48-5.4-4.29-10.42-9.15-16.12-13.05-14.45-9.91-29.82-18.38-43.92-28.83-7.06-5.24-14.37-11-19.72-18-6-7.92-6.82-18.67-6.08-28.3,1-13.15,7-26,15.83-35.7,6-6.58,13.46-11.82,20.75-16.8A451.53,451.53,0,0,1,256.38,25C259.78,23.11,256.76,17.93,253.36,19.77Z"/><path d="M283.48,208.62a162.68,162.68,0,0,1,3-70.12c4.66-16.9,13.62-34.91,28.67-44.85C329.19,84.37,347,80.72,363.35,78a269.86,269.86,0,0,1,34.15-3.57c3.85-.14,3.87-6.14,0-6a283.88,283.88,0,0,0-30.8,3c-17.51,2.57-36.05,6.25-51.57,15.15-31.59,18.1-39.91,60.61-39.78,94a171.27,171.27,0,0,0,2.35,29.57c.68,3.8,6.47,2.19,5.78-1.59Z"/></g><g class="cls-7"><line class="cls-8" x1="880.89" y1="305.4" x2="603.25" y2="401.17"/><line class="cls-9" x1="588.64" y1="406.21" x2="579.18" y2="409.47"/><line class="cls-10" x1="888.28" y1="338.23" x2="630.09" y2="473.61"/><line class="cls-9" x1="616.5" y1="480.73" x2="607.65" y2="485.38"/></g></svg>