<svg width="635" height="636" viewBox="0 0 635 636" fill="none" xmlns="http://www.w3.org/2000/svg">
<g clip-path="url(#clip0_1_598)">
<path d="M635 0.5H0V635.5H635V0.5Z" fill="#F9B9D3"/>
<path d="M314 47L85 181L318.5 317.5L547 181.5L314 47Z" fill="#AEA6AA" fill-opacity="0.34"/>
<g filter="url(#filter0_d_1_598)">
<path d="M253.032 429.529L238.979 429.662L240.79 431.473L383.207 436.538L385.05 429.529L238.979 398.683H391.173C393.108 398.683 395.446 399.042 397.361 398.683C397.455 398.675 397.549 398.675 397.643 398.683L395.832 396.873V431.473L397.643 429.662L385.05 429.529C384.655 429.536 383.618 429.314 383.304 429.553C382.99 429.792 383.415 430.479 383.304 430.857H296.141L321.085 510.162L354.441 523.616L356.187 522.284H281.863L283.605 523.616H354.441L258.359 442.371L298.957 522.284L367.73 431.815C367.038 429.598 250.59 429.57 251.286 431.803L261.067 463.292L276.532 513.043L280.117 524.574C280.228 524.952 280.458 525.285 280.772 525.524C281.086 525.763 281.468 525.895 281.863 525.901H356.187C356.582 525.895 356.964 525.763 357.278 525.524C357.592 525.285 357.822 524.952 357.933 524.574L367.73 493.096L383.207 443.345L386.796 431.815L385.054 433.15L397.647 433.283C398.124 433.276 398.581 433.083 398.919 432.745C399.257 432.407 399.45 431.95 399.457 431.473V396.873C399.45 396.395 399.257 395.939 398.919 395.601C398.581 395.263 398.124 395.07 397.647 395.063H245.449C243.405 395.063 241.301 394.922 239.261 395.063C239.168 395.063 239.072 395.063 238.979 395.063C238.501 395.07 238.045 395.263 237.707 395.601C237.369 395.939 237.176 396.395 237.169 396.873V431.473C237.176 431.95 237.369 432.407 237.707 432.745C238.045 433.083 238.501 433.276 238.979 433.283L253.032 433.15C255.358 433.118 255.366 429.497 253.032 429.529Z" fill="#B2704E"/>
<path d="M252.864 429.628L238.81 429.761L240.621 431.571V396.972L238.81 398.782H391.004C392.939 398.782 395.277 399.14 397.192 398.782C397.286 398.774 397.38 398.774 397.474 398.782L395.663 396.972V431.571L397.474 429.761L384.881 429.628C384.486 429.634 384.104 429.767 383.79 430.006C383.476 430.244 383.246 430.577 383.135 430.956L373.342 462.433L357.861 512.184L354.272 523.715L356.018 522.383H281.694L283.436 523.715L273.655 492.237L258.19 442.47L254.61 430.94C253.918 428.723 250.421 429.668 251.117 431.901L260.898 463.391L276.363 513.142L279.948 524.672C280.059 525.051 280.289 525.384 280.603 525.623C280.917 525.862 281.299 525.994 281.694 526H356.018C356.413 525.994 356.795 525.862 357.109 525.623C357.424 525.384 357.653 525.051 357.765 524.672L367.561 493.195L383.038 443.444L386.627 431.913L384.885 433.249L397.478 433.382C397.956 433.375 398.412 433.182 398.75 432.844C399.088 432.506 399.281 432.049 399.288 431.571V396.972C399.281 396.494 399.088 396.038 398.75 395.7C398.412 395.362 397.956 395.169 397.478 395.161H245.28C243.236 395.161 241.132 395.021 239.092 395.161C239 395.161 238.903 395.161 238.81 395.161C238.333 395.169 237.876 395.362 237.538 395.7C237.2 396.038 237.007 396.494 237 396.972V431.571C237.007 432.049 237.2 432.506 237.538 432.844C237.876 433.182 238.333 433.375 238.81 433.382L252.864 433.249C255.189 433.217 255.197 429.596 252.864 429.628Z" fill="black"/>
<path d="M395.917 430.101V398.72H238.207L384.914 430.101H395.917Z" fill="#A56848"/>
</g>
<g filter="url(#filter1_d_1_598)">
<path d="M393.84 322.099C378.74 337.054 391.994 325.407 371.191 322.099L361.879 332.333L352.568 342.567C349.981 326.343 344.491 366.209 353.407 352.298C361.795 339.195 371.613 341.674 386.626 337.701C396.091 335.202 382.173 318.042 391.827 319.582L382.935 307.153L381.592 310.858C384.908 331.662 358.799 339.386 343.844 354.479C342.475 355.861 378.213 368.904 379.582 367.521C395.353 351.613 401.343 329.044 397.853 307.153C397.789 306.899 397.658 306.666 397.472 306.48C397.287 306.295 397.054 306.163 396.799 306.1C379.687 303.372 361.778 306.257 347.108 315.75C333.278 324.771 323.349 338.666 319.295 354.673C316.799 364.515 316.567 374.746 318.161 384.748C318.225 385.003 318.357 385.236 318.542 385.422C318.728 385.608 318.96 385.74 319.215 385.805C341.106 389.288 363.674 383.292 379.579 367.525C380.965 366.156 395.222 320.73 393.84 322.099Z" fill="#77AA93"/>
</g>
<path d="M377.634 365.314C362.534 380.269 341.002 386.118 320.202 382.809L321.259 383.876C318.672 367.653 345.162 348.929 354.078 335.017C342.166 346.13 336.462 335.017 354.078 335.017C358.608 330.791 386.529 307.406 396.183 308.946L395.126 307.892C398.444 328.696 392.589 350.228 377.634 365.321C376.261 366.703 378.399 368.841 379.768 367.455C395.539 351.547 401.528 328.978 398.038 307.087C397.974 306.832 397.842 306.6 397.657 306.415C397.471 306.229 397.239 306.097 396.985 306.033C379.872 303.305 361.964 306.191 347.29 315.683C333.461 324.704 323.533 338.6 319.481 354.607C316.981 364.448 316.753 374.679 318.346 384.682C318.41 384.937 318.542 385.17 318.727 385.356C318.913 385.542 319.145 385.674 319.4 385.739C341.288 389.212 363.86 383.205 379.768 367.435C381.15 366.092 379.023 363.945 377.634 365.314Z" fill="#406152"/>
<path d="M377.298 365.314C362.199 380.269 340.667 386.118 319.866 382.809L320.923 383.876C318.336 367.653 321.198 350.657 330.114 336.746C338.503 323.643 351.76 314.21 366.776 310.238C376.241 307.734 386.194 307.406 395.847 308.946L394.79 307.892C398.109 328.696 392.254 350.228 377.298 365.321C375.926 366.703 378.063 368.841 379.432 367.455C395.203 351.547 401.192 328.978 397.703 307.087C397.639 306.832 397.507 306.6 397.321 306.415C397.136 306.229 396.904 306.097 396.649 306.033C379.536 303.305 361.628 306.191 346.955 315.683C333.125 324.704 323.197 338.6 319.145 354.607C316.645 364.448 316.417 374.679 318.011 384.682C318.074 384.937 318.206 385.17 318.392 385.356C318.577 385.542 318.81 385.674 319.064 385.739C340.952 389.212 363.524 383.205 379.432 367.435C380.815 366.092 378.687 363.945 377.298 365.314Z" fill="#1A1A1A"/>
<path d="M317.29 403.95C316.494 403.95 315.731 403.634 315.169 403.071C314.606 402.509 314.29 401.746 314.29 400.95V151.55C314.29 150.754 314.606 149.991 315.169 149.429C315.731 148.866 316.494 148.55 317.29 148.55C318.086 148.55 318.849 148.866 319.411 149.429C319.974 149.991 320.29 150.754 320.29 151.55V400.95C320.29 401.746 319.974 402.509 319.411 403.071C318.849 403.634 318.086 403.95 317.29 403.95Z" fill="#7C4429"/>
<g filter="url(#filter2_d_1_598)">
<path d="M302.809 319.695C287.854 304.596 299.501 317.85 302.809 297.046L292.575 287.734L282.341 278.423C298.565 275.836 258.699 270.346 272.61 279.262C285.713 287.651 283.234 297.469 287.207 312.481C289.706 321.947 306.866 308.028 305.326 317.682L317.755 308.79L314.05 307.448C293.246 310.763 285.522 284.654 270.429 269.699C269.047 268.33 256.004 304.069 257.387 305.438C273.295 321.208 295.864 327.198 317.755 323.708C318.009 323.645 318.242 323.513 318.428 323.328C318.613 323.142 318.745 322.909 318.808 322.655C321.536 305.542 318.651 287.634 309.158 272.964C300.137 259.133 286.242 249.204 270.235 245.15C260.393 242.654 250.162 242.422 240.16 244.016C239.905 244.08 239.672 244.212 239.486 244.397C239.3 244.583 239.168 244.815 239.103 245.07C235.62 266.961 241.616 289.53 257.383 305.434C258.752 306.82 304.178 321.078 302.809 319.695Z" fill="#77AA93"/>
</g>
<path d="M259.594 303.489C244.639 288.39 238.79 266.858 242.099 246.057L241.032 247.114C257.255 244.527 275.979 271.018 289.891 279.933C278.778 268.021 289.891 262.317 289.891 279.933C294.117 284.463 317.502 312.384 315.962 322.038L317.016 320.981C296.212 324.3 274.68 318.444 259.587 303.489C258.205 302.117 256.067 304.254 257.453 305.623C273.361 321.394 295.93 327.383 317.821 323.894C318.076 323.829 318.308 323.698 318.493 323.512C318.679 323.327 318.811 323.094 318.875 322.84C321.603 305.727 318.717 287.819 309.224 273.146C300.204 259.316 286.308 249.388 270.301 245.336C260.46 242.836 250.229 242.608 240.226 244.202C239.971 244.265 239.738 244.397 239.552 244.582C239.366 244.768 239.234 245 239.169 245.255C235.696 267.143 241.703 289.715 257.473 305.623C258.816 307.006 260.963 304.878 259.594 303.489Z" fill="#406152"/>
<path d="M259.594 303.153C244.639 288.054 238.79 266.522 242.099 245.722L241.032 246.779C257.255 244.192 274.251 247.054 288.162 255.969C301.265 264.358 310.698 277.615 314.67 292.631C317.174 302.097 317.502 312.049 315.962 321.702L317.016 320.645C296.212 323.964 274.68 318.109 259.587 303.153C258.205 301.781 256.067 303.919 257.453 305.288C273.361 321.058 295.93 327.048 317.821 323.558C318.076 323.494 318.308 323.362 318.493 323.177C318.679 322.991 318.811 322.759 318.875 322.504C321.603 305.392 318.717 287.484 309.224 272.81C300.204 258.98 286.308 249.052 270.301 245C260.46 242.5 250.229 242.272 240.226 243.866C239.971 243.93 239.738 244.061 239.552 244.247C239.366 244.432 239.234 244.665 239.169 244.92C235.696 266.807 241.703 289.379 257.473 305.288C258.816 306.67 260.963 304.543 259.594 303.153Z" fill="#1A1A1A"/>
<path d="M318.66 256C318.067 255.999 317.487 255.823 316.995 255.494C316.502 255.164 316.118 254.696 315.891 254.148C315.664 253.6 315.605 252.997 315.72 252.415C315.836 251.834 316.121 251.3 316.54 250.88L384.05 183.37C384.619 182.84 385.371 182.552 386.148 182.565C386.925 182.579 387.667 182.894 388.216 183.443C388.766 183.993 389.081 184.735 389.095 185.512C389.108 186.289 388.82 187.041 388.29 187.61L320.79 255.12C320.51 255.4 320.178 255.622 319.813 255.773C319.447 255.924 319.055 256.001 318.66 256Z" fill="#7C4429"/>
<g filter="url(#filter3_d_1_598)">
<path d="M410.218 234.734C395.517 234.663 407.697 235.449 399.139 223.654L389.578 224.106L380.017 224.557C386.688 215.356 364.502 232.171 375.668 229.727C386.181 227.421 389.77 233.437 399.057 238.837C404.91 242.244 406.496 227.042 410.464 232.518L412.194 222.089L409.726 223.244C401.171 235.042 384.621 226.049 369.923 226.116C368.577 226.123 379.679 249.985 381.025 249.978C396.521 249.911 410.491 241.801 419.492 229.386C419.585 229.23 419.635 229.052 419.635 228.871C419.635 228.689 419.585 228.511 419.492 228.355C412.455 218.65 402.284 211.302 390.465 208.769C379.287 206.416 367.633 208.356 357.82 214.204C351.785 217.796 346.667 222.688 342.554 228.36C342.46 228.516 342.411 228.694 342.41 228.876C342.41 229.058 342.459 229.236 342.552 229.393C351.556 241.804 365.529 249.911 381.022 249.978C382.369 249.987 411.564 234.74 410.218 234.734Z" fill="#77AA93"/>
</g>
<path d="M381.152 247.945C366.45 247.875 353.057 240.203 344.5 228.41L344.495 229.449C351.166 220.248 373.283 224.047 384.449 221.603C373.186 221.212 375.832 212.986 384.449 221.603C388.732 221.751 413.829 223.97 417.798 229.446L417.796 228.413C409.243 240.213 395.847 247.881 381.148 247.949C379.801 247.954 379.801 250.045 381.148 250.037C396.644 249.969 410.614 241.859 419.615 229.444C419.708 229.288 419.757 229.11 419.757 228.929C419.757 228.747 419.708 228.569 419.615 228.413C412.579 218.708 402.407 211.36 390.586 208.826C379.409 206.473 367.755 208.414 357.943 214.262C351.906 217.853 346.79 222.746 342.677 228.418C342.583 228.574 342.534 228.753 342.533 228.934C342.533 229.116 342.582 229.295 342.675 229.451C351.683 241.856 365.662 249.959 381.158 250.027C382.491 250.046 382.501 247.955 381.152 247.945Z" fill="#406152"/>
<path d="M380.987 247.781C366.286 247.711 352.892 240.039 344.336 228.246L344.331 229.285C351.002 220.084 360.715 213.17 371.881 210.726C382.394 208.42 393.493 210.291 402.781 215.693C408.636 219.099 413.665 223.806 417.634 229.282L417.632 228.249C409.079 240.049 395.682 247.717 380.984 247.785C379.637 247.79 379.637 249.881 380.984 249.872C396.48 249.805 410.45 241.695 419.451 229.28C419.544 229.124 419.593 228.946 419.593 228.765C419.593 228.583 419.544 228.405 419.451 228.249C412.414 218.544 402.243 211.196 390.422 208.661C379.244 206.309 367.591 208.25 357.779 214.098C351.742 217.689 346.626 222.582 342.513 228.254C342.419 228.41 342.369 228.588 342.369 228.77C342.369 228.952 342.418 229.131 342.511 229.287C351.519 241.692 365.498 249.795 380.994 249.863C382.327 249.882 382.337 247.791 380.987 247.781Z" fill="#1A1A1A"/>
<g filter="url(#filter4_d_1_598)">
<path d="M358.812 119.497C350.399 127.829 357.783 121.34 346.192 119.497L341.005 125.199L335.817 130.901C334.375 121.862 331.317 144.074 336.284 136.323C340.958 129.022 346.428 130.404 354.792 128.19C360.066 126.798 352.311 117.237 357.69 118.095L352.736 111.17L351.988 113.234C353.835 124.825 339.288 129.129 330.956 137.538C330.193 138.308 350.105 145.575 350.868 144.805C359.655 135.941 362.992 123.367 361.047 111.17C361.012 111.028 360.939 110.899 360.835 110.795C360.732 110.692 360.602 110.619 360.46 110.583C350.926 109.063 340.948 110.671 332.775 115.96C325.069 120.986 319.537 128.728 317.279 137.646C315.888 143.129 315.759 148.83 316.647 154.403C316.682 154.545 316.756 154.674 316.859 154.778C316.963 154.882 317.092 154.955 317.234 154.991C329.43 156.932 342.005 153.591 350.866 144.806C351.638 144.044 359.582 118.734 358.812 119.497Z" fill="#77AA93"/>
</g>
<path d="M349.782 143.575C341.37 151.907 329.373 155.166 317.784 153.322L318.373 153.917C316.932 144.878 331.691 134.446 336.658 126.695C330.021 132.886 326.843 126.695 336.658 126.695C339.182 124.34 354.738 111.311 360.117 112.169L359.528 111.582C361.377 123.173 358.115 135.169 349.782 143.578C349.018 144.349 350.209 145.54 350.971 144.767C359.758 135.904 363.095 123.33 361.151 111.133C361.115 110.992 361.042 110.862 360.938 110.759C360.835 110.655 360.706 110.582 360.564 110.546C351.029 109.026 341.052 110.634 332.877 115.923C325.171 120.949 319.64 128.691 317.382 137.609C315.989 143.092 315.862 148.793 316.75 154.366C316.786 154.508 316.859 154.637 316.962 154.741C317.066 154.845 317.195 154.919 317.337 154.954C329.532 156.889 342.108 153.543 350.971 144.756C351.742 144.008 350.556 142.812 349.782 143.575Z" fill="#406152"/>
<path d="M349.595 143.575C341.183 151.907 329.186 155.166 317.597 153.322L318.186 153.917C316.745 144.878 318.339 135.409 323.306 127.658C327.98 120.357 335.367 115.102 343.733 112.889C349.007 111.494 354.551 111.311 359.93 112.169L359.341 111.582C361.19 123.173 357.928 135.169 349.595 143.578C348.831 144.349 350.022 145.54 350.784 144.767C359.571 135.904 362.908 123.33 360.964 111.133C360.928 110.992 360.855 110.862 360.751 110.759C360.648 110.655 360.519 110.582 360.377 110.546C350.842 109.026 340.865 110.634 332.69 115.923C324.984 120.949 319.453 128.691 317.195 137.609C315.802 143.092 315.675 148.793 316.563 154.366C316.599 154.508 316.672 154.637 316.775 154.741C316.879 154.845 317.008 154.919 317.15 154.954C329.345 156.889 341.921 153.543 350.784 144.756C351.555 144.008 350.369 142.812 349.595 143.575Z" fill="#1A1A1A"/>
<path d="M315.75 229.57C314.955 229.569 314.192 229.253 313.63 228.69L246.12 161.18C245.556 160.618 245.239 159.855 245.238 159.059C245.237 158.262 245.553 157.499 246.115 156.935C246.677 156.371 247.44 156.054 248.236 156.053C249.033 156.052 249.796 156.368 250.36 156.93L317.87 224.44C318.292 224.859 318.581 225.394 318.698 225.978C318.816 226.561 318.757 227.166 318.53 227.716C318.303 228.266 317.917 228.736 317.422 229.066C316.927 229.396 316.345 229.571 315.75 229.57Z" fill="#7C4429"/>
<g filter="url(#filter5_d_1_598)">
<path d="M287.57 148.453C286.744 157.392 287.871 150.025 280.241 154.603L280.006 160.443L279.772 166.283C274.53 161.735 283.578 176.126 282.686 169.204C281.842 162.686 285.693 160.823 289.472 155.461C291.856 152.082 282.693 150.308 286.235 148.186L279.983 146.578L280.554 148.141C287.276 153.973 280.925 163.561 280.183 172.506C280.116 173.325 295.222 167.842 295.289 167.022C296.073 157.593 291.883 148.664 284.81 142.528C284.721 142.462 284.615 142.423 284.504 142.413C284.394 142.404 284.283 142.424 284.183 142.473C277.905 146.236 272.894 152.033 270.724 159.087C268.698 165.762 269.258 172.954 272.293 179.234C274.157 183.097 276.86 186.47 280.092 189.274C280.182 189.339 280.287 189.379 280.398 189.388C280.508 189.398 280.62 189.378 280.72 189.33C288.749 184.513 294.424 176.445 295.289 167.024C295.366 166.205 287.645 147.635 287.57 148.453Z" fill="#77AA93"/>
</g>
<path d="M294.059 166.837C293.234 175.776 287.855 183.515 280.226 188.092L280.857 188.151C275.615 183.603 279.103 170.352 278.211 163.43C277.374 170.26 272.511 168.213 278.211 163.43C278.529 160.832 281.214 145.684 284.756 143.561L284.128 143.507C290.851 149.338 294.802 157.895 294.061 166.839C293.992 167.659 295.264 167.771 295.331 166.951C296.115 157.521 291.925 148.592 284.852 142.456C284.762 142.391 284.657 142.351 284.546 142.342C284.436 142.332 284.325 142.353 284.225 142.401C277.947 146.165 272.936 151.961 270.765 159.016C268.739 165.69 269.3 172.883 272.335 179.162C274.198 183.026 276.902 186.398 280.134 189.202C280.223 189.267 280.329 189.307 280.44 189.317C280.55 189.327 280.662 189.306 280.761 189.258C288.787 184.439 294.46 176.367 295.326 166.944C295.409 166.134 294.137 166.017 294.059 166.837Z" fill="#406152"/>
<path d="M293.951 166.928C293.125 175.867 287.746 183.606 280.117 188.183L280.749 188.242C275.507 183.694 271.818 177.418 270.926 170.496C270.083 163.978 271.811 157.326 275.592 151.964C277.975 148.584 281.106 145.775 284.648 143.652L284.02 143.598C290.742 149.429 294.694 157.986 293.953 166.931C293.884 167.751 295.156 167.862 295.223 167.042C296.006 157.612 291.817 148.683 284.744 142.547C284.654 142.482 284.548 142.443 284.438 142.433C284.327 142.423 284.216 142.444 284.117 142.492C277.838 146.256 272.827 152.052 270.657 159.108C268.631 165.782 269.191 172.974 272.226 179.253C274.089 183.117 276.793 186.489 280.025 189.293C280.115 189.358 280.221 189.398 280.331 189.408C280.442 189.418 280.553 189.397 280.653 189.349C288.678 184.53 294.352 176.458 295.217 167.035C295.3 166.225 294.029 166.108 293.951 166.928Z" fill="#1A1A1A"/>
<path d="M83 184L85 455L316 588.5V317L83 184Z" fill="#1B638B" fill-opacity="0.22"/>
<path d="M319 318L551.5 186.5V452L319 586.5V318Z" fill="#1B638B" fill-opacity="0.22"/>
<path d="M317.5 321C316.839 321.001 316.196 320.783 315.672 320.381C315.147 319.979 314.77 319.415 314.599 318.776C314.428 318.138 314.472 317.461 314.726 316.85C314.979 316.239 315.427 315.73 316 315.4L551.76 179.28C552.449 178.882 553.269 178.775 554.038 178.981C554.807 179.187 555.462 179.69 555.86 180.38C556.258 181.07 556.365 181.889 556.159 182.658C555.953 183.427 555.449 184.082 554.76 184.48L319 320.6C318.544 320.863 318.026 321.001 317.5 321Z" fill="#1B638B"/>
<path d="M317.5 321C316.969 320.999 316.448 320.858 315.99 320.59L81.3801 184.5C80.7271 184.085 80.2597 183.434 80.0756 182.682C79.8916 181.93 80.005 181.137 80.3922 180.467C80.7794 179.797 81.4105 179.303 82.1536 179.087C82.8968 178.871 83.6945 178.951 84.3801 179.31L319 315.41C319.569 315.742 320.012 316.253 320.262 316.862C320.512 317.472 320.554 318.146 320.382 318.782C320.211 319.418 319.834 319.98 319.312 320.381C318.789 320.782 318.149 320.999 317.49 321H317.5Z" fill="#1B638B"/>
<path d="M317.5 593.24C316.704 593.24 315.941 592.924 315.379 592.361C314.816 591.799 314.5 591.036 314.5 590.24V318C314.5 317.204 314.816 316.441 315.379 315.879C315.941 315.316 316.704 315 317.5 315C318.296 315 319.059 315.316 319.621 315.879C320.184 316.441 320.5 317.204 320.5 318V590.24C320.5 591.036 320.184 591.799 319.621 592.361C319.059 592.924 318.296 593.24 317.5 593.24Z" fill="#1B638B"/>
<path d="M317.5 593.24C316.973 593.238 316.455 593.096 316 592.83L80.24 456.72C79.7837 456.457 79.4048 456.078 79.1414 455.621C78.8781 455.165 78.7397 454.647 78.74 454.12V181.88C78.7397 181.353 78.8781 180.835 79.1414 180.379C79.4048 179.922 79.7837 179.543 80.24 179.28L198.12 111.225L316 43.17C316.456 42.9067 316.973 42.7681 317.5 42.7681C318.027 42.7681 318.544 42.9067 319 43.17L554.76 179.28C555.216 179.543 555.595 179.922 555.859 180.379C556.122 180.835 556.26 181.353 556.26 181.88V454.12C556.26 454.647 556.122 455.165 555.859 455.621C555.595 456.078 555.216 456.457 554.76 456.72L319 592.83C318.545 593.096 318.027 593.238 317.5 593.24ZM84.74 452.39L317.5 586.77L550.26 452.39V183.61L317.5 49.23L201.12 116.42L84.74 183.61V452.39Z" fill="#1B638B"/>
<path d="M81.9827 -90L-149 45.2523L82.487 180L317 45.757L81.9827 -90Z" fill="#1B638B" fill-opacity="0.35" stroke="#1B638B" stroke-width="6"/>
</g>
<defs>
<filter id="filter0_d_1_598" x="233" y="395" width="170.457" height="139" filterUnits="userSpaceOnUse" color-interpolation-filters="sRGB">
<feFlood flood-opacity="0" result="BackgroundImageFix"/>
<feColorMatrix in="SourceAlpha" type="matrix" values="0 0 0 0 0 0 0 0 0 0 0 0 0 0 0 0 0 0 127 0" result="hardAlpha"/>
<feOffset dy="4"/>
<feGaussianBlur stdDeviation="2"/>
<feComposite in2="hardAlpha" operator="out"/>
<feColorMatrix type="matrix" values="0 0 0 0 0 0 0 0 0 0 0 0 0 0 0 0 0 0 0.25 0"/>
<feBlend mode="normal" in2="BackgroundImageFix" result="effect1_dropShadow_1_598"/>
<feBlend mode="normal" in="SourceGraphic" in2="effect1_dropShadow_1_598" result="shape"/>
</filter>
<filter id="filter1_d_1_598" x="313.151" y="305.119" width="89.6635" height="89.6439" filterUnits="userSpaceOnUse" color-interpolation-filters="sRGB">
<feFlood flood-opacity="0" result="BackgroundImageFix"/>
<feColorMatrix in="SourceAlpha" type="matrix" values="0 0 0 0 0 0 0 0 0 0 0 0 0 0 0 0 0 0 127 0" result="hardAlpha"/>
<feOffset dy="4"/>
<feGaussianBlur stdDeviation="2"/>
<feComposite in2="hardAlpha" operator="out"/>
<feColorMatrix type="matrix" values="0 0 0 0 0 0 0 0 0 0 0 0 0 0 0 0 0 0 0.25 0"/>
<feBlend mode="normal" in2="BackgroundImageFix" result="effect1_dropShadow_1_598"/>
<feBlend mode="normal" in="SourceGraphic" in2="effect1_dropShadow_1_598" result="shape"/>
</filter>
<filter id="filter2_d_1_598" x="234.145" y="243.006" width="89.6439" height="89.6634" filterUnits="userSpaceOnUse" color-interpolation-filters="sRGB">
<feFlood flood-opacity="0" result="BackgroundImageFix"/>
<feColorMatrix in="SourceAlpha" type="matrix" values="0 0 0 0 0 0 0 0 0 0 0 0 0 0 0 0 0 0 127 0" result="hardAlpha"/>
<feOffset dy="4"/>
<feGaussianBlur stdDeviation="2"/>
<feComposite in2="hardAlpha" operator="out"/>
<feColorMatrix type="matrix" values="0 0 0 0 0 0 0 0 0 0 0 0 0 0 0 0 0 0 0.25 0"/>
<feBlend mode="normal" in2="BackgroundImageFix" result="effect1_dropShadow_1_598"/>
<feBlend mode="normal" in="SourceGraphic" in2="effect1_dropShadow_1_598" result="shape"/>
</filter>
<filter id="filter3_d_1_598" x="338.41" y="207.794" width="85.2244" height="50.1846" filterUnits="userSpaceOnUse" color-interpolation-filters="sRGB">
<feFlood flood-opacity="0" result="BackgroundImageFix"/>
<feColorMatrix in="SourceAlpha" type="matrix" values="0 0 0 0 0 0 0 0 0 0 0 0 0 0 0 0 0 0 127 0" result="hardAlpha"/>
<feOffset dy="4"/>
<feGaussianBlur stdDeviation="2"/>
<feComposite in2="hardAlpha" operator="out"/>
<feColorMatrix type="matrix" values="0 0 0 0 0 0 0 0 0 0 0 0 0 0 0 0 0 0 0.25 0"/>
<feBlend mode="normal" in2="BackgroundImageFix" result="effect1_dropShadow_1_598"/>
<feBlend mode="normal" in="SourceGraphic" in2="effect1_dropShadow_1_598" result="shape"/>
</filter>
<filter id="filter4_d_1_598" x="312.084" y="110.037" width="53.499" height="53.4882" filterUnits="userSpaceOnUse" color-interpolation-filters="sRGB">
<feFlood flood-opacity="0" result="BackgroundImageFix"/>
<feColorMatrix in="SourceAlpha" type="matrix" values="0 0 0 0 0 0 0 0 0 0 0 0 0 0 0 0 0 0 127 0" result="hardAlpha"/>
<feOffset dy="4"/>
<feGaussianBlur stdDeviation="2"/>
<feComposite in2="hardAlpha" operator="out"/>
<feColorMatrix type="matrix" values="0 0 0 0 0 0 0 0 0 0 0 0 0 0 0 0 0 0 0.25 0"/>
<feBlend mode="normal" in2="BackgroundImageFix" result="effect1_dropShadow_1_598"/>
<feBlend mode="normal" in="SourceGraphic" in2="effect1_dropShadow_1_598" result="shape"/>
</filter>
<filter id="filter5_d_1_598" x="265.527" y="142.411" width="33.856" height="54.9799" filterUnits="userSpaceOnUse" color-interpolation-filters="sRGB">
<feFlood flood-opacity="0" result="BackgroundImageFix"/>
<feColorMatrix in="SourceAlpha" type="matrix" values="0 0 0 0 0 0 0 0 0 0 0 0 0 0 0 0 0 0 127 0" result="hardAlpha"/>
<feOffset dy="4"/>
<feGaussianBlur stdDeviation="2"/>
<feComposite in2="hardAlpha" operator="out"/>
<feColorMatrix type="matrix" values="0 0 0 0 0 0 0 0 0 0 0 0 0 0 0 0 0 0 0.25 0"/>
<feBlend mode="normal" in2="BackgroundImageFix" result="effect1_dropShadow_1_598"/>
<feBlend mode="normal" in="SourceGraphic" in2="effect1_dropShadow_1_598" result="shape"/>
</filter>
<clipPath id="clip0_1_598">
<rect width="635" height="635" fill="white" transform="translate(0 0.5)"/>
</clipPath>
</defs>
</svg>
