<svg width="635" height="636" viewBox="0 0 635 636" fill="none" xmlns="http://www.w3.org/2000/svg">
<g clip-path="url(#clip0_1_89)">
<path d="M635 1.5H0V636.5H635V1.5Z" fill="#EB8755"/>
<g filter="url(#filter0_d_1_89)">
<path d="M276.08 657.93H278.89C280.547 657.93 281.89 656.587 281.89 654.93L281.89 -1.30005C281.89 -2.95691 280.547 -4.30005 278.89 -4.30005H276.08C274.423 -4.30005 273.08 -2.95691 273.08 -1.30005L273.08 654.93C273.08 656.587 274.423 657.93 276.08 657.93Z" fill="#6F2E0E"/>
</g>
<g filter="url(#filter1_d_1_89)">
<path d="M229.5 537C184.93 492 219.64 531.5 229.5 469.5L199 441.75L168.5 414C216.85 406.29 98.04 389.93 139.5 416.5C178.55 441.5 171.16 470.76 183 515.5C190.45 543.71 241.59 502.23 237 531L274.04 504.5L263 500.5C201 510.38 177.98 432.57 133 388C128.88 383.92 90.01 490.43 94.13 494.51C141.54 541.51 208.8 559.36 274.04 548.96C274.799 548.771 275.492 548.379 276.046 547.825C276.599 547.272 276.991 546.579 277.18 545.82C285.31 494.82 276.71 441.45 248.42 397.73C221.536 356.512 180.125 326.92 132.42 314.84C103.09 307.4 72.6 306.71 42.79 311.46C42.0305 311.651 41.3368 312.043 40.7822 312.596C40.2276 313.149 39.833 313.841 39.64 314.6C29.26 379.84 47.13 447.1 94.12 494.5C98.2 498.63 233.58 541.12 229.5 537Z" fill="#77AA93"/>
</g>
<path d="M100.709 488.702C56.1388 443.702 38.7088 379.533 48.5688 317.542L45.3888 320.692C93.7388 312.982 149.54 391.93 191 418.5C157.881 383 191 366 191 418.5C203.594 432 273.289 515.213 268.699 543.983L271.839 540.832C209.839 550.722 145.669 533.272 100.689 488.702C96.5688 484.612 90.1988 490.982 94.3288 495.062C141.739 542.062 208.999 559.913 274.239 549.513C274.997 549.321 275.689 548.929 276.242 548.376C276.795 547.823 277.188 547.131 277.379 546.372C285.509 495.372 276.909 442.002 248.619 398.272C221.735 357.056 180.323 327.468 132.619 315.392C103.289 307.942 72.7988 307.262 42.9888 312.012C42.2288 312.202 41.5345 312.594 40.9798 313.147C40.4251 313.7 40.0307 314.393 39.8388 315.152C29.4888 380.382 47.3888 447.652 94.3888 495.062C98.3888 499.182 104.789 492.842 100.709 488.702Z" fill="#406152"/>
<path d="M100.709 487.702C56.1388 442.702 38.7088 378.533 48.5688 316.542L45.3888 319.692C93.7388 311.982 144.389 320.512 185.849 347.082C224.899 372.082 253.009 411.592 264.849 456.342C272.309 484.552 273.289 514.213 268.699 542.983L271.839 539.832C209.839 549.722 145.669 532.272 100.689 487.702C96.5688 483.612 90.1988 489.982 94.3288 494.062C141.739 541.062 208.999 558.913 274.239 548.513C274.997 548.321 275.689 547.929 276.242 547.376C276.795 546.823 277.188 546.131 277.379 545.372C285.509 494.372 276.909 441.002 248.619 397.272C221.735 356.056 180.323 326.468 132.619 314.392C103.289 306.942 72.7988 306.262 42.9888 311.012C42.2288 311.202 41.5345 311.594 40.9798 312.147C40.4251 312.7 40.0307 313.393 39.8388 314.152C29.4888 379.382 47.3888 446.652 94.3888 494.062C98.3888 498.182 104.789 491.842 100.709 487.702Z" fill="#1A1A1A"/>
<g filter="url(#filter2_d_1_89)">
<path d="M506.305 187.082C461.305 231.652 500.805 196.942 438.805 187.082L411.055 217.582L383.305 248.082C375.595 199.732 359.235 318.542 385.805 277.082C410.805 238.032 440.065 245.422 484.805 233.582C513.015 226.132 471.535 174.992 500.305 179.582L473.805 142.542L469.805 153.582C479.685 215.582 401.875 238.602 357.305 283.582C353.225 287.702 459.735 326.572 463.815 322.452C510.815 275.042 528.665 207.782 518.265 142.542C518.076 141.783 517.684 141.089 517.131 140.536C516.577 139.983 515.884 139.591 515.125 139.402C464.125 131.272 410.755 139.872 367.035 168.162C325.817 195.045 296.225 236.457 284.145 284.162C276.705 313.492 276.015 343.982 280.765 373.792C280.956 374.551 281.348 375.245 281.901 375.799C282.454 376.354 283.146 376.749 283.905 376.942C349.145 387.322 416.405 369.452 463.805 322.462C467.935 318.382 510.425 183.002 506.305 187.082Z" fill="#77AA93"/>
</g>
<path d="M341.637 200.748C386.637 156.178 450.807 138.748 512.797 148.608L509.647 145.428C517.357 193.778 438.41 249.579 411.84 291.039C447.34 257.92 464.34 291.039 411.84 291.039C398.34 303.633 315.127 373.328 286.357 368.738L289.507 371.878C279.617 309.878 297.067 245.708 341.637 200.728C345.727 196.608 339.357 190.238 335.277 194.368C288.277 241.778 270.427 309.038 280.827 374.278C281.018 375.036 281.411 375.728 281.964 376.281C282.517 376.834 283.209 377.226 283.967 377.418C334.967 385.548 388.337 376.948 432.067 348.658C473.283 321.773 502.871 280.362 514.947 232.658C522.397 203.328 523.077 172.838 518.327 143.028C518.138 142.268 517.745 141.573 517.192 141.019C516.64 140.464 515.946 140.07 515.187 139.878C449.957 129.528 382.687 147.428 335.277 194.428C331.157 198.428 337.497 204.828 341.637 200.748Z" fill="#406152"/>
<path d="M341.637 199.748C386.637 155.178 450.807 137.748 512.797 147.608L509.647 144.428C517.357 192.778 508.827 243.428 482.257 284.888C457.257 323.938 417.747 352.048 372.997 363.888C344.787 371.348 315.127 372.328 286.357 367.738L289.507 370.878C279.617 308.878 297.067 244.708 341.637 199.728C345.727 195.608 339.357 189.238 335.277 193.368C288.277 240.778 270.427 308.038 280.827 373.278C281.018 374.036 281.411 374.728 281.964 375.281C282.517 375.834 283.209 376.226 283.967 376.418C334.967 384.548 388.337 375.948 432.067 347.658C473.283 320.773 502.871 279.362 514.947 231.658C522.397 202.328 523.077 171.838 518.327 142.028C518.138 141.268 517.745 140.573 517.192 140.019C516.64 139.464 515.946 139.07 515.187 138.878C449.957 128.528 382.687 146.428 335.277 193.428C331.157 197.428 337.497 203.828 341.637 199.748Z" fill="#1A1A1A"/>
<path d="M493.31 294.16C515.595 294.16 533.66 276.095 533.66 253.81C533.66 231.525 515.595 213.46 493.31 213.46C471.025 213.46 452.96 231.525 452.96 253.81C452.96 276.095 471.025 294.16 493.31 294.16Z" fill="#746A6A"/>
<path d="M536.66 254.28C536.761 245.349 534.101 236.604 529.044 229.242C523.988 221.88 516.781 216.259 508.409 213.147C500.037 210.035 490.908 209.585 482.27 211.858C473.632 214.13 465.907 219.015 460.151 225.844C454.394 232.673 450.886 241.113 450.108 250.011C449.329 258.908 451.317 267.829 455.801 275.554C460.284 283.279 467.043 289.432 475.155 293.17C483.266 296.908 492.335 298.05 501.12 296.44C521.55 292.86 536.12 274.69 536.66 254.28C536.77 250.42 530.77 250.42 530.66 254.28C530.562 261.981 528.087 269.464 523.572 275.703C519.056 281.943 512.723 286.634 505.438 289.134C498.154 291.634 490.274 291.822 482.879 289.67C475.484 287.518 468.935 283.133 464.128 277.115C459.322 271.097 456.494 263.741 456.031 256.053C455.568 248.365 457.492 240.722 461.542 234.17C465.591 227.619 471.566 222.48 478.65 219.456C485.733 216.432 493.578 215.672 501.11 217.28C518.55 221 530.57 236.67 530.66 254.28C530.68 258.14 536.68 258.15 536.66 254.28Z" fill="black"/>
<path d="M487.635 217.955C487.753 207.865 482.056 199.618 474.91 199.535C467.764 199.451 461.875 207.563 461.757 217.652C461.639 227.742 467.336 235.989 474.482 236.072C481.628 236.156 487.517 228.044 487.635 217.955Z" fill="#EB8755"/>
<path d="M489.14 217.96C488.99 209.75 484.89 198.09 474.91 198.04C465.12 198.04 460.33 209.36 460.26 217.66C460.19 225.96 464.67 237.48 474.49 237.58C484.49 237.68 488.8 226.21 489.14 217.96C489.22 216.03 486.22 216.03 486.14 217.96C485.87 224.52 482.69 234.64 474.49 234.58C466.49 234.51 463.13 224.18 463.26 217.66C463.39 211.14 466.81 200.92 474.91 201.04C483.01 201.16 486.02 211.43 486.14 217.96C486.18 219.89 489.18 219.89 489.14 217.96Z" fill="black"/>
<path d="M524.921 218.392C525.039 208.303 519.342 200.056 512.196 199.972C505.05 199.889 499.161 208 499.043 218.09C498.925 228.179 504.622 236.426 511.768 236.51C518.915 236.593 524.803 228.482 524.921 218.392Z" fill="#EB8755"/>
<path d="M526.44 218.4C526.29 210.19 522.19 198.53 512.21 198.48C502.42 198.48 497.63 209.79 497.56 218.09C497.49 226.39 501.97 237.92 511.79 238.01C521.79 238.11 526.1 226.64 526.44 218.4C526.52 216.47 523.52 216.47 523.44 218.4C523.17 224.95 519.99 235.08 511.79 235.01C503.79 234.95 500.43 224.61 500.56 218.09C500.69 211.57 504.11 201.36 512.21 201.48C520.31 201.6 523.32 211.86 523.44 218.4C523.48 220.32 526.48 220.33 526.44 218.4Z" fill="black"/>
<path d="M456.17 236.3C434.09 222.68 405.17 223.05 383.85 237.77C380.69 239.95 383.69 245.15 386.85 242.95C396.583 236.342 408.019 232.689 419.781 232.432C431.542 232.174 443.127 235.324 453.14 241.5C456.44 243.5 459.46 238.35 456.14 236.32L456.17 236.3Z" fill="black"/>
<path d="M455.86 262.94C443.25 256.39 427.17 254.38 413.32 256.94C401.06 259.24 389.74 267.78 382.32 277.63C379.99 280.72 385.2 283.71 387.5 280.63C387.1 281.16 388.9 278.97 389.36 278.46C390.996 276.644 392.735 274.925 394.57 273.31C400.34 268.21 407.27 264.08 414.92 262.69C427.17 260.48 441.67 262.25 452.83 268.05C456.25 269.83 459.29 264.66 455.83 262.87L455.86 262.94Z" fill="black"/>
<path d="M470.13 283.37C444.66 276.93 417.6 297.47 408.93 320.58C407.57 324.2 413.37 325.76 414.71 322.17C422.11 302.47 446.3 283.54 468.53 289.17C472.28 290.11 473.87 284.33 470.13 283.38V283.37Z" fill="black"/>
<path d="M534.64 242.4C556.46 230.29 584.12 231.4 604.64 245.54C607.83 247.73 610.83 242.54 607.64 240.36C585.41 225.04 555.22 224.12 531.64 237.22C528.27 239.09 531.29 244.28 534.64 242.4Z" fill="black"/>
<path d="M534.33 269.04C546 263.62 561.72 262.04 574.52 264.65C582.31 266.21 589.37 270.25 595.34 275.4C597.347 277.133 599.25 278.983 601.04 280.94C601.54 281.48 603.49 283.84 603.04 283.28C605.34 286.33 610.55 283.34 608.22 280.28C600.5 270.07 588.74 261.43 576.09 258.88C561.57 255.96 544.8 257.59 531.27 263.88C527.77 265.51 530.82 270.68 534.27 269.06L534.33 269.04Z" fill="black"/>
<path d="M517.32 289.71C540.16 284.78 565.66 303.09 573.39 324.1C574.72 327.69 580.52 326.1 579.18 322.5C570.28 298.33 541.95 278.26 515.73 283.92C511.96 284.74 513.55 290.52 517.32 289.71Z" fill="black"/>
<path d="M481.444 226.261C481.506 220.921 478.49 216.556 474.707 216.512C470.924 216.468 467.807 220.761 467.745 226.101C467.682 231.442 470.698 235.806 474.481 235.851C478.264 235.895 481.381 231.602 481.444 226.261Z" fill="black"/>
<path d="M517.909 224.744C517.963 219.404 514.939 215.044 511.156 215.006C507.373 214.968 504.263 219.267 504.209 224.607C504.156 229.948 507.179 234.308 510.963 234.346C514.746 234.384 517.856 230.085 517.909 224.744Z" fill="black"/>
<path d="M513 254C513 254 502.066 264 493.5 264C484.934 264 478.161 260.5 473 254" stroke="black" stroke-width="5" stroke-linecap="round"/>
</g>
<defs>
<filter id="filter0_d_1_89" x="269.08" y="-4.30005" width="16.8099" height="670.23" filterUnits="userSpaceOnUse" color-interpolation-filters="sRGB">
<feFlood flood-opacity="0" result="BackgroundImageFix"/>
<feColorMatrix in="SourceAlpha" type="matrix" values="0 0 0 0 0 0 0 0 0 0 0 0 0 0 0 0 0 0 127 0" result="hardAlpha"/>
<feOffset dy="4"/>
<feGaussianBlur stdDeviation="2"/>
<feComposite in2="hardAlpha" operator="out"/>
<feColorMatrix type="matrix" values="0 0 0 0 0 0 0 0 0 0 0 0 0 0 0 0 0 0 0.25 0"/>
<feBlend mode="normal" in2="BackgroundImageFix" result="effect1_dropShadow_1_89"/>
<feBlend mode="normal" in="SourceGraphic" in2="effect1_dropShadow_1_89" result="shape"/>
</filter>
<filter id="filter1_d_1_89" x="32.7849" y="308.451" width="251.317" height="251.375" filterUnits="userSpaceOnUse" color-interpolation-filters="sRGB">
<feFlood flood-opacity="0" result="BackgroundImageFix"/>
<feColorMatrix in="SourceAlpha" type="matrix" values="0 0 0 0 0 0 0 0 0 0 0 0 0 0 0 0 0 0 127 0" result="hardAlpha"/>
<feOffset dy="4"/>
<feGaussianBlur stdDeviation="2"/>
<feComposite in2="hardAlpha" operator="out"/>
<feColorMatrix type="matrix" values="0 0 0 0 0 0 0 0 0 0 0 0 0 0 0 0 0 0 0.25 0"/>
<feBlend mode="normal" in2="BackgroundImageFix" result="effect1_dropShadow_1_89"/>
<feBlend mode="normal" in="SourceGraphic" in2="effect1_dropShadow_1_89" result="shape"/>
</filter>
<filter id="filter2_d_1_89" x="273.756" y="136.48" width="251.375" height="251.317" filterUnits="userSpaceOnUse" color-interpolation-filters="sRGB">
<feFlood flood-opacity="0" result="BackgroundImageFix"/>
<feColorMatrix in="SourceAlpha" type="matrix" values="0 0 0 0 0 0 0 0 0 0 0 0 0 0 0 0 0 0 127 0" result="hardAlpha"/>
<feOffset dy="4"/>
<feGaussianBlur stdDeviation="2"/>
<feComposite in2="hardAlpha" operator="out"/>
<feColorMatrix type="matrix" values="0 0 0 0 0 0 0 0 0 0 0 0 0 0 0 0 0 0 0.25 0"/>
<feBlend mode="normal" in2="BackgroundImageFix" result="effect1_dropShadow_1_89"/>
<feBlend mode="normal" in="SourceGraphic" in2="effect1_dropShadow_1_89" result="shape"/>
</filter>
<clipPath id="clip0_1_89">
<rect width="635" height="635" fill="white" transform="translate(0 0.5)"/>
</clipPath>
</defs>
</svg>
