<svg id="Layer_1" data-name="Layer 1" xmlns="http://www.w3.org/2000/svg" xmlns:xlink="http://www.w3.org/1999/xlink" viewBox="0 0 635 635"><defs><style>.cls-1{fill:#fff;}.cls-2{fill:#eeac5d;}.cls-3{clip-path:url(#clip-path);}.cls-4{fill:#1a1a1a;}.cls-5{clip-path:url(#clip-path-2);}</style><clipPath id="clip-path"><rect class="cls-1" x="-755" y="1" width="635" height="635"/></clipPath><clipPath id="clip-path-2"><rect class="cls-2" x="-755" y="-698" width="635" height="635"/></clipPath></defs><title>part</title><rect class="cls-1" x="-755" y="1" width="635" height="635"/><g class="cls-3"><path class="cls-4" d="M-409.94,42.26V97.37a4.57,4.57,0,0,0,4.5,4.5H-74.79l-4.5-4.5V375.92l4.5-4.5H-253.14a4.57,4.57,0,0,0-4.5,4.5V508.18a4.57,4.57,0,0,0,4.5,4.5H136.14c5.22,0,10.58.35,15.79,0,.24,0,.49,0,.73,0a4.57,4.57,0,0,0,4.5-4.5V401l-4.5,4.5H326l-4.5-4.5V566.29c0,5.79,9,5.8,9,0V401a4.57,4.57,0,0,0-4.5-4.5H152.66a4.57,4.57,0,0,0-4.5,4.5V508.18l4.5-4.5H-236.62c-5,0-10.89-.9-15.79,0a4.45,4.45,0,0,1-.73,0l4.5,4.5V375.92l-4.5,4.5H-74.79a4.56,4.56,0,0,0,4.5-4.5V97.37a4.57,4.57,0,0,0-4.5-4.5H-405.44l4.5,4.5V42.26c0-5.79-9-5.8-9,0Z"/><path class="cls-4" d="M-383.89,42.26V197.57a4.57,4.57,0,0,0,4.5,4.5H66.52c5.77,0,12.48,1,18.19,0a5.61,5.61,0,0,1,.82,0l-4.5-4.5V314.8a4.57,4.57,0,0,0,4.5,4.5H204.76l-4.5-4.5V577.31l4.5-4.5H-16.67a4.57,4.57,0,0,0-4.5,4.5V697.55c0,5.79,9,5.8,9,0V577.31l-4.5,4.5H204.76a4.57,4.57,0,0,0,4.5-4.5V314.8a4.57,4.57,0,0,0-4.5-4.5H85.53l4.5,4.5V197.57a4.57,4.57,0,0,0-4.5-4.5H-360.38c-5.77,0-12.48-1-18.19,0a5.61,5.61,0,0,1-.82,0l4.5,4.5V42.26c0-5.79-9-5.8-9,0Z"/></g><rect class="cls-2" x="-755" y="-698" width="635" height="635"/><g class="cls-5"><path class="cls-4" d="M-383.89-656.74v155.31a4.57,4.57,0,0,0,4.5,4.5H66.52c5.77,0,12.48.95,18.19,0a5.61,5.61,0,0,1,.82,0l-4.5-4.5V-384.2a4.57,4.57,0,0,0,4.5,4.5H204.76l-4.5-4.5v262.51l4.5-4.5H-16.67a4.57,4.57,0,0,0-4.5,4.5V-1.45c0,5.79,9,5.8,9,0V-121.69l-4.5,4.5H204.76a4.57,4.57,0,0,0,4.5-4.5V-384.2a4.57,4.57,0,0,0-4.5-4.5H85.53l4.5,4.5V-501.43a4.57,4.57,0,0,0-4.5-4.5H-360.38c-5.77,0-12.48-1-18.19,0a5.61,5.61,0,0,1-.82,0l4.5,4.5V-656.74c0-5.79-9-5.8-9,0Z"/></g><path d="M162.31,344.66c-5.87-2.15-10.68-4-15.59-5.63-1.09-.36-2.54.27-3.83.44.82,1.06,1.4,2.61,2.5,3.09,3.78,1.68,7.74,3,11.56,5.13-3.88,0-7.76-.16-11.63.08-1.4.09-2.75,1.11-4.12,1.71,1.34.7,2.62,1.87,4,2,3.21.31,6.48.1,9.73.1l.17,1.15c-5.23,2.19-10.52,4.26-15.63,6.66-1.33.63-2.11,2.31-3.15,3.51,1.57,0,3.33.46,4.67-.07,8.26-3.24,16.42-6.69,24.62-10.07l.78.82c-2.44,2.7-4.88,5.39-7.3,8.1a60.56,60.56,0,0,0-4.4,5.11c-.5.71-.27,1.9-.37,2.87,1.13-.14,2.71.13,3.32-.48,3.17-3.14,6.1-6.51,9.8-9.45-1.05,4.22-2.24,8.42-3.08,12.68-.22,1.09.61,2.38,1,3.57,1-.93,2.53-1.7,2.88-2.81,1.38-4.3,2.38-8.71,3.53-13.08l1.4-.13c2.36,9.68,4.65,19.38,7.16,29a4.91,4.91,0,0,0,2.73,3.16,4.68,4.68,0,0,0,4-1.38c.69-1,.52-2.9,0-4.12-1.38-3.2-3.54-6.11-4.7-9.36a141.77,141.77,0,0,1-5.56-20.06c4.45,3.86,8.81,7.82,13.41,11.5,1.14.91,3.08.9,4.65,1.31-.62-1.36-.91-3-1.93-4-3.41-3.29-7.08-6.33-10.17-10.25l13.47,4.11a11.88,11.88,0,0,0,3.32.92,12.47,12.47,0,0,0,3.35-1c-.7-.88-1.21-2.24-2.13-2.57-4.47-1.59-9-2.9-13.58-4.32a3.81,3.81,0,0,1-2.31-1.63c4-.36,8.1-.57,12.1-1.16,1.24-.19,2.31-1.41,3.46-2.16-1.27-.55-2.56-1.63-3.8-1.58-5.05.22-10.08.79-15.56.54,2.17-1.52,4.33-3.06,6.53-4.56,3.3-2.24,6.71-4.34,9.88-6.74.87-.66,1-2.16,1.53-3.27-1.27,0-2.84-.36-3.74.2-5.31,3.3-10.46,6.83-16.35,9.86q3.53-8.07,7-16.13c.45-1,1.26-2,1.32-3a12.22,12.22,0,0,0-.84-3.46c-1,.64-2.36,1.08-2.78,2-2.48,5.13-4.72,10.36-7,15.55-.21.45-.48.88-1.64,1.16l.84-12a12.46,12.46,0,0,0,.15-3.69c-.24-1-1.19-1.85-1.83-2.77-.73.86-2,1.67-2.1,2.59-.52,4.65-.73,9.34-1.07,14a7.33,7.33,0,0,1-1.28,4c-2.19-4.57-4.26-9.2-6.67-13.66-.63-1.16-2.31-1.8-3.51-2.68,0,1.46-.46,3.06,0,4.34,1.35,3.54,3.1,6.95,4.69,10.42l-1.49,1.14c-3.75-3.95-7.4-8-11.33-11.79-1-.95-2.84-1.07-4.29-1.57.53,1.48.64,3.32,1.65,4.39C152.89,335.59,157.31,339.74,162.31,344.66Z"/><path d="M492.25,291.05c-3.18-3.9-6.26-7.88-9.61-11.64-.79-.89-2.49-1.05-3.76-1.54.28,1.19.2,2.64.9,3.54,4.05,5.21,8.29,10.28,12.45,15.41a7.28,7.28,0,0,1,1.82,3.82c-4.49-2.09-8.92-4.28-13.49-6.18-1.13-.47-2.71,0-4.09.09.79,1,1.36,2.31,2.4,2.87,3.19,1.74,6.56,3.18,9.63,5.73a92.78,92.78,0,0,0-9.29.09c-2,.2-3.89,1.18-5.83,1.81a38.55,38.55,0,0,0,6.07,1.46c3.12.24,6.28.06,9.42.06l.54,1.19c-8,4-16,8-24,12.18a6.45,6.45,0,0,0-3.05,3.34c-.22.73,1.44,2.81,2.28,2.82,1.39,0,2.88-1,4.16-1.83.77-.5,1.07-1.69,1.85-2.14a247.52,247.52,0,0,1,22.19-11.78c-2.44,4.4-5,8.76-7.23,13.25-.6,1.21-.26,2.84-.35,4.28,1.18-.93,2.72-1.64,3.48-2.81,2.18-3.35,4-6.89,6.91-10.17-.26,4.56-.66,9.11-.71,13.67,0,1.22,1,2.44,1.57,3.66.66-1.18,1.77-2.32,1.91-3.56.5-4.23.66-8.5,1.87-13.07,1.14,3.07,2.13,6.21,3.48,9.19.53,1.18,1.88,2,2.85,3,.18-1.44.84-3,.46-4.29-1.18-3.94-2.75-7.78-3.62-12.2l10.28,8.27a17.71,17.71,0,0,0,3,2.34,22.91,22.91,0,0,0,4,1.17c-.51-1.22-.68-2.8-1.6-3.61-3.89-3.46-8-6.69-11.82-10.82l16.34,2.2a8.66,8.66,0,0,0,2.56.37,16.79,16.79,0,0,0,3.19-1.23c-.84-.73-1.58-1.95-2.54-2.12-4.69-.86-9.44-1.43-14.16-2.12a4.07,4.07,0,0,1-2.67-1.39c4.47-.78,9-1.46,13.38-2.42,1.17-.26,2.13-1.4,3.19-2.13-1.31-.44-2.7-1.39-3.92-1.22-5.24.71-10.43,1.74-16,1.9,3.54-2.72,7.17-5.34,10.57-8.21,1.1-.94,1.57-2.54,2.33-3.83-1.48.35-3.21.35-4.4,1.11-2.92,1.87-5.6,4.08-9,5.62,2.6-4.22,5.3-8.39,7.72-12.71.59-1.06.23-2.59.31-3.91-1.17.76-2.73,1.28-3.43,2.33-2.93,4.35-5.61,8.87-9.31,13,.53-4.13,1.22-8.26,1.51-12.42.09-1.18-1-2.44-1.48-3.66-.72,1.05-1.86,2-2.08,3.15-.66,3.44-1,7-2.26,10.51-.8-3.28-1.45-6.61-2.5-9.82-.39-1.17-1.74-2.05-2.65-3.07-.29,1.22-1,2.48-.8,3.64.4,2.83,1.19,5.61,1.82,8.41Z"/><path d="M589.87,348.75c4.66-3.22,9.38-6.37,13.93-9.72.88-.65,1.12-2.06,1.66-3.12-1.14.26-2.47.23-3.37.82-4.27,2.78-8.42,5.73-13.12,8.2l9.11-12.07-1.55-1.06c-5.41,3-7.27,9.33-12.6,13.6,1.7-6.29,3.27-11.83,4.63-17.42.27-1.1-.33-2.38-.53-3.57-.81,1-2,1.82-2.37,2.92-1.77,5.06-3.32,10.2-5.62,15.29l-2.55-13.29-2.22.29,1.38,14-.71.22c-2.68-4.49-5.25-9.05-8.1-13.44-.66-1-2.24-1.5-3.4-2.23,0,1.31-.49,2.86.08,3.89,3.42,6.22,7.29,12.23,10.54,18.53a8.23,8.23,0,0,1,.2,6.44c-3.27,7.2-7,14.2-10.68,21.24-.62,1.18-1.85,2.08-2.46,3.26a7,7,0,0,0-1.08,4c.12.68,2.34,1.77,3.05,1.47a7,7,0,0,0,3.4-3.14c4.24-9.09,8.28-18.27,12.67-28.06,6.77,5.12,12.47,9.51,18.28,13.76,1,.73,2.44.89,3.68,1.32-.6-1.18-.9-2.66-1.84-3.47-3.09-2.63-6.4-5-9.22-8.22,4.57,1.57,9.1,3.25,13.73,4.63,1.67.49,3.59.22,5.39.29a28,28,0,0,0-4.56-2.93c-3.81-1.54-7.74-2.8-11.48-4.81l16,.93.13-1.84c-5.74-2.57-12.37-1-18.38-3.23,5.77-1.49,11.57-2.91,17.31-4.55,1.12-.32,2-1.47,3-2.23-1.27-.16-2.64-.67-3.8-.4-6,1.39-12,3-18,4.52Z"/><path d="M377.94,359.06c4.51,3.53,9,7.08,13.56,10.57a9.2,9.2,0,0,0,1.43-1.07L381.1,357.89l.3-.57,13.25,6.06.93-1.77-15-7.68.29-.6,19.51,2.26.28-1.84c-6.27-2.32-13.25-1.59-20.75-3.55l18.87-4.62-.48-2.07-16.57,3.25c3.49-3.66,8.86-4.14,11.12-8.08l-.91-1.3-13.8,7.73-.6-.51,11.61-14.87-1.89-1.35q-5.24,6.25-10.48,12.52l-.57-.29,2.81-8.84-1.91-.67c-1.74,4.07-3.47,8.14-5.69,13.37-.84-6.42-1.43-11.57-2.25-16.68-.19-1.15-1.22-2.17-1.86-3.26-.5,1.21-1.49,2.46-1.39,3.63.52,6.17,1.51,12.31,1.89,18.49a7.41,7.41,0,0,1-2.12,5.29c-5.4,5-11.11,9.66-16.75,14.39-.85.71-2,1.05-2.87,1.75a7.71,7.71,0,0,0-2.51,2.83c-.18.48,1.3,2.16,2,2.14a6.58,6.58,0,0,0,4-1.44c6.76-6.08,13.38-12.32,20.26-18.7,5.87,6.33,7.49,14.18,12.89,19.57l1.71-.92q-3.5-6.07-7-12.16Z"/><path d="M290.5,260.7l1.56,12.81,1.61-.14V261.64l6.91,10.78,1.76-.88c-1.76-3.31-3.52-6.63-5.74-10.83l8.67,5.39c.35-.46.7-.92,1.06-1.37l-9.53-7.62,15,1.38c.11-.58.21-1.17.32-1.76-2.13-.38-4.25-.79-6.38-1.14s-4.49-.64-8.08-1.15l14.77-6.79c-.3-.62-.59-1.24-.89-1.85L299,250.87l-.72-.74,8.85-7.1-1.52-1.63c-1.64,1.18-3.35,2.29-4.91,3.55-1.85,1.5-3.59,3.13-6.2,5.43,1.52-4.81,2.7-8.58,3.89-12.35l-1.83-.6L293,245.89l-.77-.09-.66-12-1.75.07v13l-.92.18q-2.58-4.71-5.14-9.42l-1.71.67,3.7,9.25-7.62-6.24-1.31,1.13,6.21,6.89-13.33-4.25L269,247l17.8,6.36,0,.77-12.26,1.69.09,1.39h10.54c-3.41,2.38-6.13,4.28-8.86,6.17l.82,1.43c1.53-.73,3.11-1.39,4.59-2.22a14.62,14.62,0,0,1,5.44-2.24c-2.85,5.14-5.73,10.26-8.52,15.43a6.67,6.67,0,0,0-.89,3.21,3.3,3.3,0,0,0,2.43.82A7.64,7.64,0,0,0,281.9,277c2.55-5.46,5.06-10.94,7.58-16.41Z"/><path d="M270.46,471.36l-1.56,12.82-1.61-.14V472.3c-2.76,4.3-4.84,7.54-6.91,10.78l-1.77-.87c1.76-3.32,3.52-6.64,5.75-10.83l-8.67,5.38-1.06-1.37,9.53-7.62-15,1.38c-.1-.58-.21-1.17-.31-1.75,2.13-.39,4.25-.8,6.38-1.14s4.48-.65,8.08-1.16l-14.77-6.79c.29-.62.59-1.23.88-1.85l12.48,5.07.71-.74-8.84-7.1,1.51-1.63c1.65,1.18,3.35,2.29,4.92,3.55,1.85,1.5,3.58,3.13,6.2,5.43-1.52-4.81-2.71-8.58-3.89-12.35l1.83-.6q1.78,4.23,3.58,8.46l.77-.09.65-12,1.76.07v13l.92.18,5.14-9.41,1.71.66c-1.13,2.81-2.25,5.63-3.7,9.25L282.8,452l1.32,1.14L277.9,460l13.34-4.25.71,1.94L274.16,464l0,.76,12.26,1.7-.09,1.39H275.8l8.86,6.17-.81,1.42c-1.53-.73-3.11-1.39-4.59-2.21a14.58,14.58,0,0,0-5.45-2.25c2.86,5.14,5.74,10.26,8.53,15.43a6.55,6.55,0,0,1,.88,3.21,3.28,3.28,0,0,1-2.42.82,7.6,7.6,0,0,1-1.74-2.83c-2.55-5.47-5.06-10.95-7.59-16.42Z"/><path d="M584.63,191.5,573.55,198l1,1.66,11.27-5.57c-3,4.16-5.33,7.49-7.7,10.82l1.81,1.21,7.88-10c-.71,4.14-1.23,7.1-1.74,10.07l1.88.35c1-3.43,2-6.87,3.26-11.41l5,13.71,1.95-.56c-1.23-4.14-2.45-8.27-4-13.38l12.51,9.69,1.29-1.35-10.67-9.66,12.06,4c.25-.59.5-1.19.74-1.78l-13.21-5.47,13.11-1.92-.26-1.88-11,.76,12.36-6.67-.78-1.62-13.53,6,7.39-9.46-1.31-1.17-7.39,7.32c1.08-3.56,2-6.52,2.86-9.48l-1.56-.51c-1.16,2.33-2.32,4.65-3.93,7.85l-1.81-12.79-1.65.12c-.92,6,1.36,12,.87,18.83l-7.45-10.34-1.61.91c1.53,2.69,3.07,5.38,5.14,9l-10-5.29-1,1.7,8.82,5.62-.22.93c-6.1-.33-12.2-.69-18.3-.94a6.93,6.93,0,0,0-3.41.57c-.39.21-.34,2.27,0,2.45a8.71,8.71,0,0,0,3.42.42c6.25,0,12.5,0,18.75,0Z"/></svg>