<svg width="635" height="636" viewBox="0 0 635 636" fill="none" xmlns="http://www.w3.org/2000/svg">
<g clip-path="url(#clip0_1_69)">
<path d="M635 1.5H0V636.5H635V1.5Z" fill="white"/>
<g filter="url(#filter0_d_1_69)">
<path d="M276.08 657.93H278.89C280.547 657.93 281.89 656.587 281.89 654.93L281.89 -1.30005C281.89 -2.95691 280.547 -4.30005 278.89 -4.30005H276.08C274.423 -4.30005 273.08 -2.95691 273.08 -1.30005L273.08 654.93C273.08 656.587 274.423 657.93 276.08 657.93Z" fill="#6F2E0E"/>
</g>
<g filter="url(#filter1_d_1_69)">
<path d="M229.5 537C184.93 492 219.64 531.5 229.5 469.5L199 441.75L168.5 414C216.85 406.29 98.04 389.93 139.5 416.5C178.55 441.5 171.16 470.76 183 515.5C190.45 543.71 241.59 502.23 237 531L274.04 504.5L263 500.5C201 510.38 177.98 432.57 133 388C128.88 383.92 90.01 490.43 94.13 494.51C141.54 541.51 208.8 559.36 274.04 548.96C274.799 548.771 275.492 548.379 276.046 547.825C276.599 547.272 276.991 546.579 277.18 545.82C285.31 494.82 276.71 441.45 248.42 397.73C221.536 356.512 180.125 326.92 132.42 314.84C103.09 307.4 72.6 306.71 42.79 311.46C42.0305 311.651 41.3368 312.043 40.7822 312.596C40.2276 313.149 39.833 313.841 39.64 314.6C29.26 379.84 47.13 447.1 94.12 494.5C98.2 498.63 233.58 541.12 229.5 537Z" fill="#77AA93"/>
</g>
<path d="M100.709 488.702C56.1388 443.702 38.7088 379.533 48.5688 317.542L45.3888 320.692C93.7388 312.982 149.54 391.93 191 418.5C157.881 383 191 366 191 418.5C203.594 432 273.289 515.213 268.699 543.983L271.839 540.832C209.839 550.722 145.669 533.272 100.689 488.702C96.5688 484.612 90.1988 490.982 94.3288 495.062C141.739 542.062 208.999 559.913 274.239 549.513C274.997 549.321 275.689 548.929 276.242 548.376C276.795 547.823 277.188 547.131 277.379 546.372C285.509 495.372 276.909 442.002 248.619 398.272C221.735 357.056 180.323 327.468 132.619 315.392C103.289 307.942 72.7988 307.262 42.9888 312.012C42.2288 312.202 41.5345 312.594 40.9798 313.147C40.4251 313.7 40.0307 314.393 39.8388 315.152C29.4888 380.382 47.3888 447.652 94.3888 495.062C98.3888 499.182 104.789 492.842 100.709 488.702Z" fill="#406152"/>
<path d="M100.709 487.702C56.1388 442.702 38.7088 378.533 48.5688 316.542L45.3888 319.692C93.7388 311.982 144.389 320.512 185.849 347.082C224.899 372.082 253.009 411.592 264.849 456.342C272.309 484.552 273.289 514.213 268.699 542.983L271.839 539.832C209.839 549.722 145.669 532.272 100.689 487.702C96.5688 483.612 90.1988 489.982 94.3288 494.062C141.739 541.062 208.999 558.913 274.239 548.513C274.997 548.321 275.689 547.929 276.242 547.376C276.795 546.823 277.188 546.131 277.379 545.372C285.509 494.372 276.909 441.002 248.619 397.272C221.735 356.056 180.323 326.468 132.619 314.392C103.289 306.942 72.7988 306.262 42.9888 311.012C42.2288 311.202 41.5345 311.594 40.9798 312.147C40.4251 312.7 40.0307 313.393 39.8388 314.152C29.4888 379.382 47.3888 446.652 94.3888 494.062C98.3888 498.182 104.789 491.842 100.709 487.702Z" fill="#1A1A1A"/>
<g filter="url(#filter2_d_1_69)">
<path d="M506.305 187.082C461.305 231.652 500.805 196.942 438.805 187.082L411.055 217.582L383.305 248.082C375.595 199.732 359.235 318.542 385.805 277.082C410.805 238.032 440.065 245.422 484.805 233.582C513.015 226.132 471.535 174.992 500.305 179.582L473.805 142.542L469.805 153.582C479.685 215.582 401.875 238.602 357.305 283.582C353.225 287.702 459.735 326.572 463.815 322.452C510.815 275.042 528.665 207.782 518.265 142.542C518.076 141.783 517.684 141.089 517.131 140.536C516.577 139.983 515.884 139.591 515.125 139.402C464.125 131.272 410.755 139.872 367.035 168.162C325.817 195.045 296.225 236.457 284.145 284.162C276.705 313.492 276.015 343.982 280.765 373.792C280.956 374.551 281.348 375.245 281.901 375.799C282.454 376.354 283.146 376.749 283.905 376.942C349.145 387.322 416.405 369.452 463.805 322.462C467.935 318.382 510.425 183.002 506.305 187.082Z" fill="#77AA93"/>
</g>
<path d="M341.637 200.748C386.637 156.178 450.807 138.748 512.797 148.608L509.647 145.428C517.357 193.778 438.41 249.579 411.84 291.039C447.34 257.92 464.34 291.039 411.84 291.039C398.34 303.633 315.127 373.328 286.357 368.738L289.507 371.878C279.617 309.878 297.067 245.708 341.637 200.728C345.727 196.608 339.357 190.238 335.277 194.368C288.277 241.778 270.427 309.038 280.827 374.278C281.018 375.036 281.411 375.728 281.964 376.281C282.517 376.834 283.209 377.226 283.967 377.418C334.967 385.548 388.337 376.948 432.067 348.658C473.283 321.773 502.871 280.362 514.947 232.658C522.397 203.328 523.077 172.838 518.327 143.028C518.138 142.268 517.745 141.573 517.192 141.019C516.64 140.464 515.946 140.07 515.187 139.878C449.957 129.528 382.687 147.428 335.277 194.428C331.157 198.428 337.497 204.828 341.637 200.748Z" fill="#406152"/>
<path d="M341.637 199.748C386.637 155.178 450.807 137.748 512.797 147.608L509.647 144.428C517.357 192.778 508.827 243.428 482.257 284.888C457.257 323.938 417.747 352.048 372.997 363.888C344.787 371.348 315.127 372.328 286.357 367.738L289.507 370.878C279.617 308.878 297.067 244.708 341.637 199.728C345.727 195.608 339.357 189.238 335.277 193.368C288.277 240.778 270.427 308.038 280.827 373.278C281.018 374.036 281.411 374.728 281.964 375.281C282.517 375.834 283.209 376.226 283.967 376.418C334.967 384.548 388.337 375.948 432.067 347.658C473.283 320.773 502.871 279.362 514.947 231.658C522.397 202.328 523.077 171.838 518.327 142.028C518.138 141.268 517.745 140.573 517.192 140.019C516.64 139.464 515.946 139.07 515.187 138.878C449.957 128.528 382.687 146.428 335.277 193.428C331.157 197.428 337.497 203.828 341.637 199.748Z" fill="#1A1A1A"/>
<path d="M148.577 520.16C170.861 520.16 188.926 502.095 188.926 479.81C188.926 457.525 170.861 439.46 148.577 439.46C126.292 439.46 108.227 457.525 108.227 479.81C108.227 502.095 126.292 520.16 148.577 520.16Z" fill="#746A6A"/>
<path d="M191.927 480.28C192.027 471.349 189.368 462.604 184.311 455.242C179.254 447.88 172.047 442.259 163.675 439.147C155.303 436.035 146.174 435.585 137.537 437.858C128.899 440.13 121.174 445.015 115.417 451.844C109.66 458.673 106.153 467.113 105.374 476.011C104.596 484.908 106.584 493.829 111.067 501.554C115.55 509.279 122.31 515.432 130.421 519.17C138.533 522.908 147.601 524.05 156.387 522.44C176.817 518.86 191.387 500.69 191.927 480.28C192.037 476.42 186.037 476.42 185.927 480.28C185.829 487.981 183.353 495.464 178.838 501.703C174.323 507.943 167.989 512.634 160.705 515.134C153.42 517.634 145.541 517.822 138.146 515.67C130.75 513.518 124.201 509.133 119.395 503.115C114.589 497.097 111.76 489.741 111.297 482.053C110.834 474.365 112.759 466.722 116.808 460.17C120.857 453.619 126.833 448.48 133.916 445.456C141 442.432 148.844 441.672 156.377 443.28C173.817 447 185.837 462.67 185.927 480.28C185.947 484.14 191.947 484.15 191.927 480.28Z" fill="black"/>
<path d="M142.902 443.955C143.02 433.865 137.322 425.618 130.176 425.535C123.03 425.451 117.141 433.563 117.023 443.652C116.905 453.742 122.603 461.989 129.749 462.072C136.895 462.156 142.784 454.044 142.902 443.955Z" fill="#E693CB"/>
<path d="M144.407 443.96C144.257 435.75 140.157 424.09 130.177 424.04C120.387 424.04 115.597 435.36 115.527 443.66C115.457 451.96 119.937 463.48 129.757 463.58C139.757 463.68 144.067 452.21 144.407 443.96C144.487 442.03 141.487 442.03 141.407 443.96C141.137 450.52 137.957 460.64 129.757 460.58C121.757 460.51 118.397 450.18 118.527 443.66C118.657 437.14 122.077 426.92 130.177 427.04C138.277 427.16 141.287 437.43 141.407 443.96C141.447 445.89 144.447 445.89 144.407 443.96Z" fill="black"/>
<path d="M176.358 443.571C176.476 433.482 170.779 425.235 163.633 425.151C156.487 425.068 150.598 433.179 150.48 443.269C150.362 453.358 156.06 461.605 163.206 461.689C170.352 461.772 176.24 453.661 176.358 443.571Z" fill="#E693CB"/>
<path d="M179.265 443.149C179.114 435.257 174.998 424.048 164.977 424C155.147 424 150.338 434.872 150.267 442.851C150.197 450.829 154.695 461.913 164.555 461.999C174.596 462.096 178.924 451.07 179.265 443.149C179.345 441.293 176.333 441.293 176.253 443.149C175.982 449.445 172.789 459.183 164.555 459.116C156.523 459.058 153.149 449.118 153.28 442.851C153.41 436.583 156.844 426.768 164.977 426.884C173.11 426.999 176.132 436.862 176.253 443.149C176.293 444.994 179.305 445.004 179.265 443.149Z" fill="black"/>
<path d="M122.267 444C122.267 444 126.447 439 129.767 439C133.086 439 135.767 441.5 137.767 444" stroke="black" stroke-width="3"/>
<path d="M157.267 444C157.267 444 161.447 439 164.767 439C168.086 439 170.767 441.5 172.767 444" stroke="black" stroke-width="3"/>
<path d="M168.267 480C168.267 480 157.333 490 148.767 490C140.2 490 133.428 486.5 128.267 480" stroke="black" stroke-width="5" stroke-linecap="round"/>
<path d="M111.437 462.3C89.3566 448.68 60.4365 449.05 39.1165 463.77C35.9565 465.95 38.9565 471.15 42.1165 468.95C51.8495 462.342 63.2858 458.689 75.0473 458.432C86.8089 458.174 98.3939 461.324 108.407 467.5C111.707 469.5 114.727 464.35 111.407 462.32L111.437 462.3Z" fill="black"/>
<path d="M111.127 488.94C98.5165 482.39 82.4365 480.38 68.5865 482.94C56.3265 485.24 45.0065 493.78 37.5865 503.63C35.2565 506.72 40.4665 509.71 42.7665 506.63C42.3665 507.16 44.1665 504.97 44.6265 504.46C46.2623 502.644 48.0019 500.925 49.8365 499.31C55.6065 494.21 62.5365 490.08 70.1865 488.69C82.4365 486.48 96.9365 488.25 108.097 494.05C111.517 495.83 114.557 490.66 111.097 488.87L111.127 488.94Z" fill="black"/>
<path d="M125.397 509.37C99.9265 502.93 72.8665 523.47 64.1965 546.58C62.8365 550.2 68.6365 551.76 69.9765 548.17C77.3765 528.47 101.567 509.54 123.797 515.17C127.547 516.11 129.137 510.33 125.397 509.38V509.37Z" fill="black"/>
<path d="M189.907 468.4C211.727 456.29 239.387 457.4 259.907 471.54C263.097 473.73 266.097 468.54 262.907 466.36C240.677 451.04 210.487 450.12 186.907 463.22C183.537 465.09 186.557 470.28 189.907 468.4Z" fill="black"/>
<path d="M189.597 495.04C201.267 489.62 216.987 488.04 229.787 490.65C237.577 492.21 244.637 496.25 250.607 501.4C252.613 503.133 254.517 504.983 256.307 506.94C256.807 507.48 258.757 509.84 258.307 509.28C260.607 512.33 265.817 509.34 263.487 506.28C255.767 496.07 244.007 487.43 231.357 484.88C216.837 481.96 200.067 483.59 186.537 489.88C183.037 491.51 186.087 496.68 189.537 495.06L189.597 495.04Z" fill="black"/>
<path d="M172.587 515.71C195.427 510.78 220.927 529.09 228.657 550.1C229.987 553.69 235.787 552.1 234.447 548.5C225.547 524.33 197.217 504.26 170.997 509.92C167.227 510.74 168.817 516.52 172.587 515.71Z" fill="black"/>
</g>
<defs>
<filter id="filter0_d_1_69" x="269.08" y="-4.30005" width="16.81" height="670.23" filterUnits="userSpaceOnUse" color-interpolation-filters="sRGB">
<feFlood flood-opacity="0" result="BackgroundImageFix"/>
<feColorMatrix in="SourceAlpha" type="matrix" values="0 0 0 0 0 0 0 0 0 0 0 0 0 0 0 0 0 0 127 0" result="hardAlpha"/>
<feOffset dy="4"/>
<feGaussianBlur stdDeviation="2"/>
<feComposite in2="hardAlpha" operator="out"/>
<feColorMatrix type="matrix" values="0 0 0 0 0 0 0 0 0 0 0 0 0 0 0 0 0 0 0.25 0"/>
<feBlend mode="normal" in2="BackgroundImageFix" result="effect1_dropShadow_1_69"/>
<feBlend mode="normal" in="SourceGraphic" in2="effect1_dropShadow_1_69" result="shape"/>
</filter>
<filter id="filter1_d_1_69" x="32.7849" y="308.451" width="251.317" height="251.375" filterUnits="userSpaceOnUse" color-interpolation-filters="sRGB">
<feFlood flood-opacity="0" result="BackgroundImageFix"/>
<feColorMatrix in="SourceAlpha" type="matrix" values="0 0 0 0 0 0 0 0 0 0 0 0 0 0 0 0 0 0 127 0" result="hardAlpha"/>
<feOffset dy="4"/>
<feGaussianBlur stdDeviation="2"/>
<feComposite in2="hardAlpha" operator="out"/>
<feColorMatrix type="matrix" values="0 0 0 0 0 0 0 0 0 0 0 0 0 0 0 0 0 0 0.25 0"/>
<feBlend mode="normal" in2="BackgroundImageFix" result="effect1_dropShadow_1_69"/>
<feBlend mode="normal" in="SourceGraphic" in2="effect1_dropShadow_1_69" result="shape"/>
</filter>
<filter id="filter2_d_1_69" x="273.756" y="136.48" width="251.375" height="251.317" filterUnits="userSpaceOnUse" color-interpolation-filters="sRGB">
<feFlood flood-opacity="0" result="BackgroundImageFix"/>
<feColorMatrix in="SourceAlpha" type="matrix" values="0 0 0 0 0 0 0 0 0 0 0 0 0 0 0 0 0 0 127 0" result="hardAlpha"/>
<feOffset dy="4"/>
<feGaussianBlur stdDeviation="2"/>
<feComposite in2="hardAlpha" operator="out"/>
<feColorMatrix type="matrix" values="0 0 0 0 0 0 0 0 0 0 0 0 0 0 0 0 0 0 0.25 0"/>
<feBlend mode="normal" in2="BackgroundImageFix" result="effect1_dropShadow_1_69"/>
<feBlend mode="normal" in="SourceGraphic" in2="effect1_dropShadow_1_69" result="shape"/>
</filter>
<clipPath id="clip0_1_69">
<rect width="635" height="635" fill="white" transform="translate(0 0.5)"/>
</clipPath>
</defs>
</svg>
