<svg id="Layer_1" data-name="Layer 1" xmlns="http://www.w3.org/2000/svg" xmlns:xlink="http://www.w3.org/1999/xlink" viewBox="0 0 635 635"><defs><style>.cls-1{fill:#aff4fe;}.cls-2{clip-path:url(#clip-path);}</style><clipPath id="clip-path"><rect class="cls-1" width="635" height="635"/></clipPath></defs><title>Artboard 1</title><rect class="cls-1" width="635" height="635"/><g class="cls-2"><path d="M188.46,610c-31.86-32.27-44.26-77.93-37.26-122.33l-2.1,2.09c34.73-5.47,71,.6,100.76,19.81a133.17,133.17,0,0,1,55.79,76.73,150.72,150.72,0,0,1,3,63.05l2.1-2.1c-44.41,7-90.07-5.4-122.33-37.25-2.75-2.72-7,1.52-4.25,4.24,33.9,33.47,81.6,46.14,128.17,38.8a2.9,2.9,0,0,0,2.1-2.1c5.72-36.3-.29-74.23-20.41-105.37a139.53,139.53,0,0,0-81.23-58.8c-21.35-5.65-43.57-6.23-65.33-2.8a2.9,2.9,0,0,0-2.1,2.1c-7.34,46.58,5.34,94.28,38.8,128.17C186.93,617,191.17,612.75,188.46,610Z"/><path d="M358.75,412.52c32.27-31.85,77.93-44.25,122.33-37.25l-2.09-2.1c5.47,34.72-.6,71-19.81,100.76a133.25,133.25,0,0,1-76.73,55.79,150.72,150.72,0,0,1-63.05,3l2.1,2.1c-7-44.41,5.4-90.07,37.25-122.34,2.72-2.75-1.52-7-4.24-4.24-33.47,33.89-46.14,81.59-38.8,128.17a2.9,2.9,0,0,0,2.1,2.1c36.3,5.72,74.23-.29,105.37-20.41A139.56,139.56,0,0,0,482,436.91c5.65-21.35,6.23-43.57,2.79-65.33a2.88,2.88,0,0,0-2.09-2.1c-46.58-7.34-94.28,5.33-128.17,38.8C351.76,411,356,415.24,358.75,412.52Z"/><path d="M348.78,211.79c24-23.63,57.75-32.82,90.79-27.68L437.48,182c5.1,32.82-3.92,67-27.68,90.79s-58,32.79-90.8,27.68l2.1,2.1c-5.14-33,4-66.77,27.68-90.8,2.71-2.75-1.53-7-4.24-4.24-25.25,25.67-34.71,61.41-29.23,96.63a2.9,2.9,0,0,0,2.1,2.1c35,5.44,71.24-3.84,96.63-29.23s34.67-61.65,29.22-96.63a2.88,2.88,0,0,0-2.09-2.09c-35.22-5.48-71,4-96.63,29.22C341.78,210.26,346,214.5,348.78,211.79Z"/><path d="M221.78,388.26c-23.63-24-32.83-57.77-27.68-90.79l-2.1,2.1c32.79-5.11,67.05,3.9,90.8,27.68s32.79,58,27.68,90.79l2.09-2.1c-33,5.15-66.75-4.05-90.79-27.68-2.76-2.71-7,1.53-4.24,4.25,25.68,25.24,61.43,34.71,96.63,29.22a2.88,2.88,0,0,0,2.09-2.09c5.45-35-3.83-71.25-29.22-96.63s-61.67-34.68-96.63-29.23a2.89,2.89,0,0,0-2.1,2.1c-5.48,35.19,4,70.95,29.23,96.63C220.25,395.26,224.49,391,221.78,388.26Z"/><path d="M340.92-11.26c19.35-19,46.27-26.31,72.83-22.23l-2.09-2.09c4,26.36-3.16,53.73-22.23,72.83S342.92,63.53,316.6,59.48l2.09,2.09C314.61,35,322,8.09,340.92-11.26c2.71-2.76-1.53-7-4.24-4.24-20.56,21-28.19,49.93-23.77,78.67A2.88,2.88,0,0,0,315,65.26c28.49,4.38,58-3.05,78.67-23.77s28.16-50.14,23.77-78.67a2.88,2.88,0,0,0-2.09-2.09c-28.74-4.42-57.69,3.21-78.67,23.77C333.92-12.79,338.16-8.55,340.92-11.26Z"/><path d="M239.9,148.86c-19-19.35-26.31-46.27-22.23-72.84l-2.1,2.1c26.36-4.05,53.73,3.16,72.84,22.23s26.27,46.5,22.22,72.83l2.1-2.1c-26.56,4.09-53.49-3.27-72.83-22.22-2.76-2.71-7,1.53-4.24,4.24,21,20.56,49.93,28.19,78.66,23.77a2.87,2.87,0,0,0,2.1-2.1c4.38-28.48-3.05-58-23.77-78.66S242.51,68,214,72.33a2.9,2.9,0,0,0-2.1,2.1c-4.41,28.74,3.22,57.68,23.78,78.67C238.36,155.86,242.6,151.62,239.9,148.86Z"/><rect x="311.73" y="-137.69" width="11.55" height="880.35" rx="4.74" transform="translate(635 604.96) rotate(180)"/><path class="cls-1" d="M512.81-34.66H122.19A17.72,17.72,0,0,0,104.52-17V679a17.72,17.72,0,0,0,17.67,17.67H512.81A17.72,17.72,0,0,0,530.48,679V-17A17.72,17.72,0,0,0,512.81-34.66Zm-35.93,597.4a17.72,17.72,0,0,1-17.67,17.67H173a17.72,17.72,0,0,1-17.67-17.67v-524A17.73,17.73,0,0,1,173,21.06H459.21a17.73,17.73,0,0,1,17.67,17.68Z"/><path d="M512.81-37.66H148.05c-8.49,0-17-.24-25.52,0-11.62.32-20.64,9-21,20.7,0,1.24,0,2.49,0,3.73V625.9c0,17.59-.47,35.25,0,52.84a21.1,21.1,0,0,0,20.68,21c2,.07,4,0,6,0H504.76c2.59,0,5.19.08,7.77,0a21.1,21.1,0,0,0,21-20.73c.54-16.37,0-32.84,0-49.21V-11.89c0-1.59,0-3.19,0-4.78a21.11,21.11,0,0,0-20.67-21c-3.86-.15-3.86,5.85,0,6,9,.35,14.6,7.36,14.67,15.94,0,2.24,0,4.47,0,6.71V665.37c0,4.52.2,9.08,0,13.6-.39,9-7.3,14.67-16,14.74-3.43,0-6.86,0-10.29,0h-374a46.42,46.42,0,0,1-7.27-.21c-8-1.28-12.31-8.24-12.36-15.83,0-6.47,0-12.93,0-19.4V-13.23c0-1.24,0-2.49,0-3.73.4-9.14,7.43-14.64,16.14-14.7,29.67-.19,59.35,0,89,0H512.81C516.67-31.66,516.67-37.66,512.81-37.66Z"/><path d="M473.88,562.74c-.34,8.85-7.19,14.59-15.76,14.67-2.68,0-5.36,0-8,0H198.71c-8,0-16.08.05-24.11,0-9.86-.06-16.25-6.76-16.3-16.48-.08-15.81,0-31.62,0-47.43V40.89c0-9.49,5.91-16.75,15.9-16.83,7.77-.06,15.54,0,23.31,0h251.8c9.43,0,20.76-1,24,10.79,1.05,3.77.54,8.28.54,12.14V562.74c0,3.86,6,3.87,6,0V43.16c0-9.74-2.61-19.12-12.6-23.42-6.21-2.67-14.3-1.68-20.92-1.68H233.13c-20,0-40.12-.62-60.12,0-13.15.41-20.71,10.9-20.71,23.2v509c0,4.07-.11,8.17,0,12.24.36,13.36,10.83,20.95,23.35,20.95H454.41c1.58,0,3.18.05,4.76,0a21.1,21.1,0,0,0,20.71-20.67C480,558.88,474,558.88,473.88,562.74Z"/><path d="M353.59,630.21a36.1,36.1,0,1,0-29.79,35.53c17.28-3,29.44-18.28,29.79-35.53.08-3.86-5.92-3.86-6,0a30.09,30.09,0,0,1-53.13,19.36c-17.83-21.06,1.36-53.92,28.41-49a30.48,30.48,0,0,1,24.72,29.62C347.67,634.07,353.67,634.08,353.59,630.21Z"/></g></svg>