<?xml version="1.0" encoding="utf-8"?>
<!-- Generator: Adobe Illustrator 23.0.1, SVG Export Plug-In . SVG Version: 6.00 Build 0)  -->
<svg version="1.1" id="Layer_1" xmlns="http://www.w3.org/2000/svg" xmlns:xlink="http://www.w3.org/1999/xlink" x="0px" y="0px"
	 viewBox="0 0 635 635" style="enable-background:new 0 0 635 635;" xml:space="preserve">
<style type="text/css">
	.st0{fill:#FFFFFF;}
	.st1{clip-path:url(#SVGID_2_);}
	.st2{clip-path:url(#SVGID_4_);}
	.st3{clip-path:url(#SVGID_6_);}
	.st4{clip-path:url(#SVGID_8_);}
</style>
<rect x="-2" y="-3" class="st0" width="639.3" height="639.3"/>
<title>Artboard 1</title>
<g>
	<g>
		<defs>
			<rect id="SVGID_1_" x="0" y="1" width="635" height="635"/>
		</defs>
		<clipPath id="SVGID_2_">
			<use xlink:href="#SVGID_1_"  style="overflow:visible;"/>
		</clipPath>
		<g class="st1">
			<g>
				<g>
					<path d="M409.2,252c0.5,44.3,5.6,89.3,18.7,131.8c5,16.3,11.3,32.4,19.6,47.3c2.4,4.2,5.9,13.1,11.2,13.7c2.2,0.2,4.6,0,6.8,0
						c22.9,0,45.8,0,68.7,0c3.7,0,7.5,0,11.2,0s5.5-1.1,7.8-4.5c9.1-13.7,15.7-28.9,21.2-44.3c16.3-45.9,22.1-95.5,22.7-144
						c0-2.4-2.1-4.5-4.5-4.5c-20.2,0-40.3,0-60.5,0c-32.1,0-64.2,0-96.3,0c-7.3,0-14.7,0-22,0c-5.8,0-5.8,9,0,9
						c20.2,0,40.3,0,60.5,0c32.1,0,64.2,0,96.3,0c7.3,0,14.7,0,22,0c-1.5-1.5-3-3-4.5-4.5c-0.4,36.6-4.1,73.4-12.8,109
						c-6.5,26.9-15.7,54-31.4,77c1.3-0.7,2.6-1.5,3.9-2.2c-26.1,0-52.1,0-78.2,0c-3.7,0-7.4,0-11.1,0c1.3,0.7,2.6,1.5,3.9,2.2
						c-15.8-23-24.9-50.1-31.4-77c-8.6-35.6-12.3-72.4-12.8-109C418.2,246.2,409.2,246.2,409.2,252z"/>
				</g>
			</g>
		</g>
	</g>
	<g>
		<defs>
			<rect id="SVGID_3_" x="0" y="1" width="635" height="635"/>
		</defs>
		<clipPath id="SVGID_4_">
			<use xlink:href="#SVGID_3_"  style="overflow:visible;"/>
		</clipPath>
		<g class="st2">
			<g>
				<path d="M392.2,494.4c-8,0.1-15.9,0.2-23.9,0.2c1.5,1.5,3,3,4.5,4.5c0-19.6,0-39.2,0-58.8c-1.5,1.5-3,3-4.5,4.5
					c30.4,0,60.7,0,91.1,0c48.4,0,96.8,0,145.2,0c11.1,0,22.2,0,33.4,0c-1.5-1.5-3-3-4.5-4.5c0,19.6,0,39.2,0,58.8
					c1.5-1.5,3-3,4.5-4.5c-7.1-0.1-14.3-0.2-21.4-0.2c-2,0-3.8,1.4-4.3,3.3c-14.3,46-28.6,91.9-42.9,137.9
					c-2.1,6.6-4.1,13.2-6.2,19.8c1.4-1.1,2.9-2.2,4.3-3.3c-36.9,0-73.7,0-110.6,0c-5.3,0-10.5,0-15.8,0c1.4,1.1,2.9,2.2,4.3,3.3
					c-14.3-46-28.6-91.9-42.8-137.9c-2.1-6.6-4.1-13.2-6.2-19.8c-1.7-5.5-10.4-3.2-8.7,2.4c14.3,46,28.6,91.9,42.8,137.9
					c2.1,6.6,4.1,13.2,6.2,19.8c0.6,1.9,2.3,3.3,4.3,3.3c36.9,0,73.7,0,110.6,0c5.3,0,10.5,0,15.8,0c2,0,3.7-1.4,4.3-3.3
					c14.3-46,28.6-91.9,42.9-137.9c2.1-6.6,4.1-13.2,6.2-19.8c-1.4,1.1-2.9,2.2-4.3,3.3c7.1,0.1,14.3,0.2,21.4,0.2
					c2.4,0,4.5-2.1,4.5-4.5c0-19.6,0-39.2,0-58.8c0-2.4-2.1-4.5-4.5-4.5c-30.4,0-60.7,0-91.1,0c-48.4,0-96.8,0-145.2,0
					c-11.1,0-22.2,0-33.4,0c-2.4,0-4.5,2.1-4.5,4.5c0,19.6,0,39.2,0,58.8c0,2.4,2.1,4.5,4.5,4.5c8-0.1,15.9-0.2,23.9-0.2
					C398,503.4,398,494.4,392.2,494.4z"/>
			</g>
		</g>
	</g>
	<g>
		<defs>
			<rect id="SVGID_5_" x="0" y="1" width="635" height="635"/>
		</defs>
		<clipPath id="SVGID_6_">
			<use xlink:href="#SVGID_5_"  style="overflow:visible;"/>
		</clipPath>
		<g class="st3">
			<g>
				<path d="M69.6,134.1c-9.7,0.1-19.4,0.2-29,0.3c1.5,1.5,3,3,4.5,4.5c0-23.8,0-47.6,0-71.5c-1.5,1.5-3,3-4.5,4.5
					c36.9,0,73.9,0,110.8,0c58.8,0,117.7,0,176.5,0c13.5,0,27,0,40.4,0c-1.5-1.5-3-3-4.5-4.5c0,23.8,0,47.6,0,71.5
					c1.5-1.5,3-3,4.5-4.5c-8.7-0.1-17.3-0.2-26-0.3c-2,0-3.8,1.4-4.3,3.3c-6.7,21.6-13.5,43.3-20.2,64.9
					c-10.7,34.3-21.4,68.6-32,102.9c-2.5,7.9-4.9,15.9-7.4,23.8c1.4-1.1,2.9-2.2,4.3-3.3c-44.8,0-89.6,0-134.4,0
					c-6.4,0-12.8,0-19.1,0c1.4,1.1,2.9,2.2,4.3,3.3c-6.7-21.6-13.4-43.3-20.2-64.9c-10.7-34.3-21.3-68.6-32-102.9
					c-2.5-7.9-4.9-15.9-7.4-23.8c-1.7-5.5-10.4-3.2-8.7,2.4c6.7,21.6,13.4,43.3,20.2,64.9c10.7,34.3,21.3,68.6,32,102.9
					c2.5,7.9,4.9,15.9,7.4,23.8c0.6,1.9,2.3,3.3,4.3,3.3c44.8,0,89.6,0,134.4,0c6.4,0,12.8,0,19.1,0c2,0,3.7-1.4,4.3-3.3
					c6.7-21.6,13.5-43.3,20.2-64.9c10.7-34.3,21.4-68.6,32-102.9c2.5-7.9,4.9-15.9,7.4-23.8c-1.4,1.1-2.9,2.2-4.3,3.3
					c8.7,0.1,17.3,0.2,26,0.3c2.4,0,4.5-2.1,4.5-4.5c0-23.8,0-47.6,0-71.5c0-2.4-2.1-4.5-4.5-4.5c-36.9,0-73.9,0-110.8,0
					c-58.8,0-117.7,0-176.5,0c-13.5,0-27,0-40.4,0c-2.4,0-4.5,2.1-4.5,4.5c0,23.8,0,47.6,0,71.5c0,2.4,2.1,4.5,4.5,4.5
					c9.7-0.1,19.4-0.2,29-0.3C75.4,143.1,75.4,134.1,69.6,134.1z"/>
			</g>
		</g>
	</g>
	<g>
		<defs>
			<rect id="SVGID_7_" x="0" y="1" width="635" height="635"/>
		</defs>
		<clipPath id="SVGID_8_">
			<use xlink:href="#SVGID_7_"  style="overflow:visible;"/>
		</clipPath>
		<g class="st4">
			<g>
				<g>
					<path d="M36.1,330.8c0.9,75.7,9.5,152.3,31.5,224.9c8.6,28.4,19.3,56.4,33.8,82.4c3.1,5.5,6.3,10.9,9.8,16.2
						c2,3.1,3.5,6.5,7.5,6.8s8.2,0,12.2,0c39.3,0,78.6,0,117.9,0c6.4,0,12.8,0,19.1,0c1.4,0,2.8,0.1,4.1,0c3.9-0.4,5.4-3.7,7.4-6.8
						c15.4-23.5,26.9-49.5,36.2-76c24.4-69.2,35-143.4,38.1-216.5c0.4-10.3,0.7-20.7,0.8-31c0-2.4-2.1-4.5-4.5-4.5
						c-35,0-70.1,0-105.1,0c-55.4,0-110.8,0-166.2,0c-12.7,0-25.4,0-38.1,0c-5.8,0-5.8,9,0,9c35,0,70.1,0,105.1,0
						c55.4,0,110.8,0,166.2,0c12.7,0,25.4,0,38.1,0c-1.5-1.5-3-3-4.5-4.5c-0.6,50.8-4.9,101.6-14.1,151.6
						c-7.7,41.4-18.5,82.8-35.4,121.5c-7.6,17.5-16.5,34.6-27.4,50.3c1.3-0.7,2.6-1.5,3.9-2.2c-45.1,0-90.2,0-135.3,0
						c-6.4,0-12.7,0-19.1,0c1.3,0.7,2.6,1.5,3.9,2.2c-20.6-30-34.5-64.3-45.1-98.9c-13.6-44.4-22-90.3-26.8-136.4
						c-3.1-29.3-4.7-58.8-5-88.2C45.1,325,36.1,325,36.1,330.8z"/>
				</g>
			</g>
		</g>
	</g>
</g>
</svg>
