<svg id="Layer_1" data-name="Layer 1" xmlns="http://www.w3.org/2000/svg" xmlns:xlink="http://www.w3.org/1999/xlink" viewBox="0 0 635 635"><defs><style>.cls-1{fill:#82f7eb;}.cls-2{clip-path:url(#clip-path);}.cls-3,.cls-4,.cls-5,.cls-6,.cls-7,.cls-8,.cls-9{fill:none;stroke:#000;stroke-miterlimit:10;stroke-width:5px;}.cls-4{stroke-dasharray:18.14 27.21;}.cls-5{stroke-dasharray:18.56 27.83;}.cls-6{stroke-dasharray:18.53 27.8;}.cls-7{stroke-dasharray:20.97 31.46;}.cls-8{stroke-dasharray:17.98 26.96;}.cls-9{stroke-dasharray:21.1 31.64;}</style><clipPath id="clip-path"><rect class="cls-1" width="635" height="635"/></clipPath></defs><title>Artboard 1 copy 16</title><rect class="cls-1" width="635" height="635"/><g class="cls-2"><path d="M547.66,273c-.28,59.36-37.88,114.08-93.93,134.4C397.13,428,332.62,410.29,294.22,364,256,317.94,251.19,250.55,282,199.33s92.28-78.47,151-66.53c58,11.8,103.57,59.48,113,117.9a145.24,145.24,0,0,1,1.7,22.33c0,5.79,9,5.81,9,0-.29-63.35-40.39-120.93-99.91-142.85s-129-3-169.31,46c-40.46,49.17-46.11,120.4-13.2,175.09s98,83.22,160.48,70.8c61.52-12.22,110.77-63.63,120.13-125.68A161.78,161.78,0,0,0,556.66,273C556.69,267.24,547.69,267.23,547.66,273Z"/><line class="cls-3" x1="269.04" y1="112.69" x2="261.97" y2="105.62"/><line class="cls-4" x1="242.73" y1="86.38" x2="92.02" y2="-64.34"/><line class="cls-3" x1="217.23" y1="189.27" x2="207.77" y2="186.03"/><line class="cls-5" x1="181.45" y1="176.99" x2="-68.65" y2="91.17"/><line class="cls-3" x1="214.98" y1="301.89" x2="204.98" y2="301.89"/><line class="cls-6" x1="177.18" y1="301.89" x2="-86.87" y2="301.89"/><line class="cls-3" x1="317.25" y1="456.43" x2="311.17" y2="464.37"/><line class="cls-7" x1="292.04" y1="489.35" x2="142.16" y2="684.99"/><line class="cls-3" x1="242.79" y1="386.31" x2="234.01" y2="391.1"/><line class="cls-8" x1="210.35" y1="404.02" x2="64.4" y2="483.69"/><line class="cls-3" x1="52.56" y1="490.15" x2="43.79" y2="494.94"/><line class="cls-3" x1="415.45" y1="477.74" x2="415.45" y2="487.74"/><line class="cls-9" x1="415.45" y1="519.38" x2="415.45" y2="767.26"/><line class="cls-3" x1="519.79" y1="456.43" x2="525.87" y2="464.37"/><line class="cls-7" x1="545" y1="489.35" x2="694.88" y2="684.99"/></g></svg>