<svg id="Layer_1" data-name="Layer 1" xmlns="http://www.w3.org/2000/svg" viewBox="0 0 635 635"><defs><style>.cls-1{fill:#f7f382;}.cls-2{fill:none;stroke:#000;stroke-miterlimit:10;stroke-width:2px;}</style></defs><title>Artboard 1 copy 5</title><rect class="cls-1" y="1" width="635" height="635"/><line class="cls-2" x1="192.89" y1="246.9" x2="159.71" y2="272.49"/><line class="cls-2" x1="174.97" y1="240.91" x2="219.68" y2="246.67"/><line class="cls-2" x1="174.99" y1="246.79" x2="219.66" y2="240.79"/><line class="cls-2" x1="176.53" y1="252.47" x2="218.12" y2="235.11"/><line class="cls-2" x1="179.48" y1="257.55" x2="215.17" y2="230.02"/><line class="cls-2" x1="183.65" y1="261.7" x2="211" y2="225.87"/><line class="cls-2" x1="188.76" y1="264.63" x2="205.9" y2="222.95"/><line class="cls-2" x1="194.44" y1="266.14" x2="200.21" y2="221.44"/><line class="cls-2" x1="200.33" y1="266.12" x2="194.33" y2="221.45"/><line class="cls-2" x1="206" y1="264.59" x2="188.65" y2="222.99"/><line class="cls-2" x1="211.09" y1="261.63" x2="183.56" y2="225.95"/><line class="cls-2" x1="215.24" y1="257.46" x2="179.41" y2="230.12"/><line class="cls-2" x1="218.17" y1="252.36" x2="176.48" y2="235.22"/><line class="cls-2" x1="423.66" y1="281.44" x2="383.95" y2="294.83"/><line class="cls-2" x1="408.67" y1="269.94" x2="449.06" y2="289.96"/><line class="cls-2" x1="406.77" y1="275.51" x2="450.96" y2="284.39"/><line class="cls-2" x1="406.37" y1="281.38" x2="451.36" y2="278.52"/><line class="cls-2" x1="407.51" y1="287.15" x2="450.22" y2="272.75"/><line class="cls-2" x1="410.1" y1="292.44" x2="447.63" y2="267.47"/><line class="cls-2" x1="413.97" y1="296.87" x2="443.76" y2="263.04"/><line class="cls-2" x1="418.86" y1="300.14" x2="438.87" y2="259.76"/><line class="cls-2" x1="424.42" y1="302.05" x2="433.3" y2="257.86"/><line class="cls-2" x1="430.29" y1="302.44" x2="427.43" y2="257.46"/><line class="cls-2" x1="436.07" y1="301.31" x2="421.66" y2="258.6"/><line class="cls-2" x1="441.35" y1="298.71" x2="416.38" y2="261.19"/><line class="cls-2" x1="445.78" y1="294.84" x2="411.95" y2="265.06"/><line class="cls-2" x1="552.04" y1="132.06" x2="546.78" y2="173.63"/><line class="cls-2" x1="535.16" y1="140.53" x2="570.78" y2="112.92"/><line class="cls-2" x1="539.34" y1="144.67" x2="566.6" y2="108.78"/><line class="cls-2" x1="544.45" y1="147.59" x2="561.49" y2="105.86"/><line class="cls-2" x1="550.14" y1="149.08" x2="555.8" y2="104.37"/><line class="cls-2" x1="556.02" y1="149.05" x2="549.91" y2="104.4"/><line class="cls-2" x1="561.7" y1="147.5" x2="544.24" y2="105.95"/><line class="cls-2" x1="566.78" y1="144.54" x2="539.16" y2="108.91"/><line class="cls-2" x1="570.91" y1="140.36" x2="535.02" y2="113.09"/><line class="cls-2" x1="573.83" y1="135.25" x2="532.1" y2="118.2"/><line class="cls-2" x1="575.33" y1="129.56" x2="530.61" y2="123.89"/><line class="cls-2" x1="575.3" y1="123.67" x2="530.64" y2="129.78"/><line class="cls-2" x1="573.75" y1="118" x2="532.19" y2="135.45"/><line class="cls-2" x1="300.99" y1="379.08" x2="321.28" y2="415.74"/><line class="cls-2" x1="292.36" y1="395.88" x2="304.81" y2="352.56"/><line class="cls-2" x1="298.18" y1="396.75" x2="298.99" y2="351.69"/><line class="cls-2" x1="304.02" y1="396.09" x2="293.14" y2="352.35"/><line class="cls-2" x1="309.5" y1="393.94" x2="287.67" y2="354.5"/><line class="cls-2" x1="314.23" y1="390.44" x2="282.94" y2="358"/><line class="cls-2" x1="317.9" y1="385.84" x2="279.27" y2="362.6"/><line class="cls-2" x1="320.24" y1="380.45" x2="276.92" y2="368"/><line class="cls-2" x1="321.12" y1="374.63" x2="276.05" y2="373.82"/><line class="cls-2" x1="320.45" y1="368.78" x2="276.71" y2="379.66"/><line class="cls-2" x1="318.3" y1="363.31" x2="278.87" y2="385.14"/><line class="cls-2" x1="314.8" y1="358.58" x2="282.36" y2="389.87"/><line class="cls-2" x1="310.2" y1="354.91" x2="286.97" y2="393.53"/><line class="cls-2" x1="95.27" y1="345.22" x2="83.19" y2="385.35"/><line class="cls-2" x1="77.21" y1="350.78" x2="116.92" y2="329.45"/><line class="cls-2" x1="80.65" y1="355.56" x2="113.48" y2="324.67"/><line class="cls-2" x1="85.2" y1="359.28" x2="108.93" y2="320.95"/><line class="cls-2" x1="90.57" y1="361.69" x2="103.56" y2="318.53"/><line class="cls-2" x1="96.38" y1="362.64" x2="97.75" y2="317.59"/><line class="cls-2" x1="102.23" y1="362.05" x2="91.9" y2="318.18"/><line class="cls-2" x1="107.73" y1="359.97" x2="86.4" y2="320.26"/><line class="cls-2" x1="112.51" y1="356.53" x2="81.62" y2="323.7"/><line class="cls-2" x1="116.23" y1="351.98" x2="77.9" y2="328.25"/><line class="cls-2" x1="118.64" y1="346.61" x2="75.48" y2="333.62"/><line class="cls-2" x1="119.59" y1="340.8" x2="74.54" y2="339.43"/><line class="cls-2" x1="119" y1="334.95" x2="75.13" y2="345.28"/><line class="cls-2" x1="324.36" y1="177.49" x2="313.07" y2="217.85"/><line class="cls-2" x1="306.41" y1="183.41" x2="345.69" y2="161.29"/><line class="cls-2" x1="309.95" y1="188.11" x2="342.16" y2="156.59"/><line class="cls-2" x1="314.57" y1="191.74" x2="337.53" y2="152.95"/><line class="cls-2" x1="319.98" y1="194.05" x2="332.12" y2="150.64"/><line class="cls-2" x1="325.81" y1="194.88" x2="326.3" y2="149.81"/><line class="cls-2" x1="331.65" y1="194.18" x2="320.46" y2="150.52"/><line class="cls-2" x1="337.11" y1="191.99" x2="315" y2="152.71"/><line class="cls-2" x1="341.82" y1="188.46" x2="310.29" y2="156.24"/><line class="cls-2" x1="345.45" y1="183.83" x2="306.66" y2="160.87"/><line class="cls-2" x1="347.76" y1="178.42" x2="304.35" y2="166.28"/><line class="cls-2" x1="348.59" y1="172.59" x2="303.52" y2="172.11"/><line class="cls-2" x1="347.88" y1="166.75" x2="304.22" y2="177.95"/><line class="cls-2" x1="551.14" y1="309.02" x2="538.87" y2="349.08"/><line class="cls-2" x1="533.06" y1="314.49" x2="572.87" y2="293.35"/><line class="cls-2" x1="536.48" y1="319.28" x2="569.46" y2="288.56"/><line class="cls-2" x1="541.01" y1="323.03" x2="564.92" y2="284.82"/><line class="cls-2" x1="546.36" y1="325.47" x2="559.57" y2="282.37"/><line class="cls-2" x1="552.17" y1="326.44" x2="553.77" y2="281.4"/><line class="cls-2" x1="558.02" y1="325.88" x2="547.91" y2="281.96"/><line class="cls-2" x1="563.53" y1="323.83" x2="542.4" y2="284.02"/><line class="cls-2" x1="568.33" y1="320.41" x2="537.61" y2="287.43"/><line class="cls-2" x1="572.07" y1="315.88" x2="533.86" y2="291.97"/><line class="cls-2" x1="574.51" y1="310.52" x2="531.42" y2="297.32"/><line class="cls-2" x1="575.49" y1="304.72" x2="530.45" y2="303.12"/><line class="cls-2" x1="574.93" y1="298.87" x2="531.01" y2="308.98"/></svg>