<svg id="Layer_1" data-name="Layer 1" xmlns="http://www.w3.org/2000/svg" viewBox="0 0 635 635"><defs><style>.cls-1{fill:#eb8755;}.cls-2{fill:#1a1a1a;}</style></defs><title>Artboard 1 copy 3</title><rect class="cls-1" y="1" width="635" height="635"/><rect x="273.09" y="-4.81" width="8.81" height="662.23" rx="3" transform="translate(554.98 652.62) rotate(-180)"/><path class="cls-1" d="M97.3,490.83a189.74,189.74,0,0,1-48-81.17A213.14,213.14,0,0,1,44,315.3a212.88,212.88,0,0,1,94.37,5.33A189.31,189.31,0,0,1,267.5,449.76a212.88,212.88,0,0,1,5.33,94.37,213,213,0,0,1-94.36-5.34A189.62,189.62,0,0,1,97.3,490.83Z"/><path class="cls-2" d="M100.48,487.65c-44.57-45-62-109.16-52.14-171.16l-3.14,3.15c48.35-7.71,99,.82,140.46,27.39,39.05,25,67.16,64.52,79,109.26,7.45,28.21,8.43,57.87,3.84,86.64l3.14-3.14c-62,9.88-126.17-7.57-171.15-52.14-4.12-4.08-10.48,2.28-6.36,6.36,47.41,47,114.67,64.85,179.91,54.45a4.31,4.31,0,0,0,3.14-3.14c8.13-51-.47-104.37-28.76-148.09a195.91,195.91,0,0,0-116-82.89c-29.33-7.44-59.82-8.13-89.63-3.38a4.34,4.34,0,0,0-3.15,3.14C29.26,379.34,47.13,446.6,94.12,494,98.2,498.13,104.56,491.77,100.48,487.65Z"/><path class="cls-1" d="M336,208.14a189.74,189.74,0,0,1,81.17-48,213.14,213.14,0,0,1,94.36-5.33,212.85,212.85,0,0,1-5.33,94.36A189.3,189.3,0,0,1,377,378.34a213.14,213.14,0,0,1-94.36,5.33A212.85,212.85,0,0,1,288,289.31,189.66,189.66,0,0,1,336,208.14Z"/><path class="cls-2" d="M339.14,211.32c45-44.57,109.17-62,171.16-52.14L507.15,156c7.71,48.35-.82,99-27.39,140.46-25,39.05-64.51,67.16-109.26,79-28.21,7.46-57.87,8.44-86.64,3.85l3.15,3.14c-9.89-62,7.56-126.17,52.13-171.15,4.09-4.12-2.28-10.49-6.36-6.36-47,47.41-64.85,114.67-54.45,179.91a4.33,4.33,0,0,0,3.14,3.14c51,8.13,104.37-.47,148.1-28.76a195.89,195.89,0,0,0,82.88-116c7.45-29.33,8.13-59.82,3.38-89.63a4.33,4.33,0,0,0-3.14-3.15C447.46,140.1,380.19,158,332.78,205,328.66,209,335,215.4,339.14,211.32Z"/><circle class="cls-1" cx="493.31" cy="253.31" r="40.35"/><path d="M536.66,253.78a43.36,43.36,0,1,0-35.54,42.16c20.43-3.58,35-21.75,35.54-42.16.11-3.86-5.89-3.86-6,0a37.35,37.35,0,1,1-29.55-37c17.44,3.72,29.46,19.39,29.55,37C530.68,257.64,536.68,257.65,536.66,253.78Z"/><ellipse class="cls-1" cx="474.7" cy="217.31" rx="18.27" ry="12.94" transform="translate(251.85 689.43) rotate(-89.33)"/><path d="M489.14,217.46c-.15-8.21-4.25-19.87-14.23-19.92-9.79,0-14.58,11.32-14.65,19.62s4.41,19.82,14.23,19.92c10,.1,14.31-11.37,14.65-19.62.08-1.93-2.92-1.93-3,0-.27,6.56-3.45,16.68-11.65,16.62-8-.07-11.36-10.4-11.23-16.92s3.55-16.74,11.65-16.62,11.11,10.39,11.23,16.92C486.18,219.39,489.18,219.39,489.14,217.46Z"/><ellipse class="cls-1" cx="512" cy="217.74" rx="18.27" ry="12.94" transform="translate(288.27 727.16) rotate(-89.33)"/><path d="M526.44,217.9c-.15-8.21-4.25-19.87-14.23-19.92-9.79,0-14.58,11.31-14.65,19.61s4.41,19.83,14.23,19.92c10,.1,14.31-11.37,14.65-19.61.08-1.93-2.92-1.93-3,0-.27,6.55-3.45,16.68-11.65,16.61-8-.06-11.36-10.4-11.23-16.92s3.55-16.73,11.65-16.61,11.11,10.38,11.23,16.92C523.48,219.82,526.48,219.83,526.44,217.9Z"/><path d="M456.17,235.8c-22.08-13.62-51-13.25-72.32,1.47-3.16,2.18-.16,7.38,3,5.18A61,61,0,0,1,453.14,241c3.3,2,6.32-3.15,3-5.18Z"/><path d="M455.86,262.44c-12.61-6.55-28.69-8.56-42.54-6-12.26,2.3-23.58,10.84-31,20.69-2.33,3.09,2.88,6.08,5.18,3-.4.53,1.4-1.66,1.86-2.17a63.28,63.28,0,0,1,5.21-5.15c5.77-5.1,12.7-9.23,20.35-10.62,12.25-2.21,26.75-.44,37.91,5.36,3.42,1.78,6.46-3.39,3-5.18Z"/><path d="M470.13,282.87c-25.47-6.44-52.53,14.1-61.2,37.21-1.36,3.62,4.44,5.18,5.78,1.59,7.4-19.7,31.59-38.63,53.82-33,3.75.94,5.34-4.84,1.6-5.79Z"/><path d="M534.64,241.9c21.82-12.11,49.48-11,70,3.14,3.19,2.19,6.19-3,3-5.18-22.23-15.32-52.42-16.24-76-3.14-3.37,1.87-.35,7.06,3,5.18Z"/><path d="M534.33,268.54c11.67-5.42,27.39-7,40.19-4.39,7.79,1.56,14.85,5.6,20.82,10.75a67.71,67.71,0,0,1,5.7,5.54c.5.54,2.45,2.9,2,2.34,2.3,3.05,7.51.06,5.18-3-7.72-10.21-19.48-18.85-32.13-21.4-14.52-2.92-31.29-1.29-44.82,5-3.5,1.63-.45,6.8,3,5.18Z"/><path d="M517.32,289.21c22.84-4.93,48.34,13.38,56.07,34.39,1.33,3.59,7.13,2,5.79-1.6-8.9-24.17-37.23-44.24-63.45-38.58-3.77.82-2.18,6.6,1.59,5.79Z"/><ellipse cx="474.6" cy="225.68" rx="9.67" ry="6.85" transform="translate(243.38 697.61) rotate(-89.33)"/><ellipse cx="511.92" cy="224.6" rx="9.67" ry="6.85" transform="translate(281.34 733.85) rotate(-89.33)"/></svg>