<svg id="Layer_1" data-name="Layer 1" xmlns="http://www.w3.org/2000/svg" xmlns:xlink="http://www.w3.org/1999/xlink" viewBox="0 0 635 635"><defs><style>.cls-1{fill:none;}.cls-2{fill:#c5ff73;}.cls-3{clip-path:url(#clip-path);}.cls-4{fill:#86c91a;}.cls-5{fill:#fff;}.cls-6{clip-path:url(#clip-path-2);}</style><clipPath id="clip-path"><path class="cls-1" d="M619.63,634.37,0,635.18V0H635V619A15.37,15.37,0,0,1,619.63,634.37Z"/></clipPath><clipPath id="clip-path-2"><path class="cls-1" d="M-25.37,634.37l-619.63.81V18c0-9.27,8.14-18,17.41-18H-10V619A15.37,15.37,0,0,1-25.37,634.37Z"/></clipPath></defs><rect class="cls-2" width="635.18" height="635.18"/><g class="cls-3"><rect class="cls-2" x="235.54" y="437.68" width="146.88" height="146.88"/><path d="M382.41,587.36H235.54a2.8,2.8,0,0,1-2.8-2.8V437.68a2.8,2.8,0,0,1,2.8-2.8H382.41a2.8,2.8,0,0,1,2.8,2.8V584.56A2.8,2.8,0,0,1,382.41,587.36Zm-144.07-5.6H379.61V440.48H238.34Z"/><path d="M310.39,163.25a2.76,2.76,0,0,1-1.95-4.71l71.27-71.26a2.75,2.75,0,0,1,3.9,3.89l-71.27,71.27A2.74,2.74,0,0,1,310.39,163.25Z"/><path d="M411.82,61.81a2.75,2.75,0,0,1-1.94-4.69l70.84-70.84a2.75,2.75,0,0,1,3.88,0,2.76,2.76,0,0,1,0,3.89L413.76,61A2.75,2.75,0,0,1,411.82,61.81Z"/><path d="M309.15,238.24a2.8,2.8,0,0,1-2.8-2.8V88.3a2.8,2.8,0,1,1,5.6,0V235.44A2.81,2.81,0,0,1,309.15,238.24Z"/><path d="M309.11,339.3a2.77,2.77,0,0,1-2-.83L233.56,264.9a2.8,2.8,0,1,1,4-4l73.57,73.57a2.81,2.81,0,0,1-2,4.79Z"/><path d="M206.3,236.49a2.8,2.8,0,0,1-2-.82L59.06,90.41a2.8,2.8,0,0,1,4-4L208.28,231.71a2.81,2.81,0,0,1,0,4A2.84,2.84,0,0,1,206.3,236.49Z"/><path d="M309,412.87a2.81,2.81,0,0,1-2.8-2.81V262.92a2.8,2.8,0,1,1,5.6,0V410.06A2.8,2.8,0,0,1,309,412.87Z"/><path d="M309,63.61a2.8,2.8,0,0,1-2.8-2.8V-86.33a2.8,2.8,0,0,1,2.8-2.8,2.8,2.8,0,0,1,2.8,2.8V60.81A2.8,2.8,0,0,1,309,63.61Z"/><path d="M309,472.85a2.81,2.81,0,0,1-2.8-2.8V437.68a2.8,2.8,0,1,1,5.6,0v32.37A2.8,2.8,0,0,1,309,472.85Z"/><polygon class="cls-4" points="308.98 470.05 258.07 470.05 258.07 492.54 266.83 492.54 285.77 552.2 308.98 552.2 332.18 552.2 351.12 492.54 359.88 492.54 359.88 470.05 308.98 470.05"/><path d="M332.18,555H285.77a2.8,2.8,0,0,1-2.67-2l-18.31-57.7h-6.72a2.81,2.81,0,0,1-2.8-2.8V470.05a2.81,2.81,0,0,1,2.8-2.81H359.88a2.81,2.81,0,0,1,2.8,2.81v22.49a2.81,2.81,0,0,1-2.8,2.8h-6.72L334.84,553A2.78,2.78,0,0,1,332.18,555Zm-44.36-5.61h42.31l18.32-57.7a2.79,2.79,0,0,1,2.67-1.95h5.95V472.85H260.88v16.89h5.95a2.8,2.8,0,0,1,2.67,1.95Z"/><path d="M207.79,413.06H60.91a2.8,2.8,0,0,1-2.8-2.8V263.39a2.8,2.8,0,0,1,2.8-2.8H207.79a2.8,2.8,0,0,1,2.8,2.8V410.26A2.8,2.8,0,0,1,207.79,413.06Zm-144.08-5.6H205V266.19H63.71Z"/><path d="M557,63.41H410.16a2.8,2.8,0,0,1-2.8-2.8V-86.26a2.8,2.8,0,0,1,2.8-2.8H557a2.8,2.8,0,0,1,2.8,2.8V60.61A2.8,2.8,0,0,1,557,63.41ZM413,57.81H554.24V-83.46H413Z"/><path d="M731.67,63.41H584.79a2.8,2.8,0,0,1-2.8-2.8V-86.26a2.8,2.8,0,0,1,2.8-2.8H731.67a2.8,2.8,0,0,1,2.8,2.8V60.61A2.8,2.8,0,0,1,731.67,63.41Zm-144.08-5.6H728.86V-83.46H587.59Z"/><path d="M557,238.37H410.16a2.8,2.8,0,0,1-2.8-2.8V88.7a2.81,2.81,0,0,1,2.8-2.81H557a2.8,2.8,0,0,1,2.8,2.81V235.57A2.8,2.8,0,0,1,557,238.37ZM413,232.77H554.24V91.5H413Z"/><path d="M207.79,238.24H60.91a2.8,2.8,0,0,1-2.8-2.8V88.56a2.8,2.8,0,0,1,2.8-2.8H207.79a2.81,2.81,0,0,1,2.8,2.8V235.44A2.81,2.81,0,0,1,207.79,238.24Zm-144.08-5.6H205V91.36H63.71Z"/><path d="M207.79,63.41H60.91a2.8,2.8,0,0,1-2.8-2.8V-86.26a2.8,2.8,0,0,1,2.8-2.8H207.79a2.8,2.8,0,0,1,2.8,2.8V60.61A2.8,2.8,0,0,1,207.79,63.41ZM63.71,57.81H205V-83.46H63.71Z"/><path d="M382.41,63.48H235.54a2.8,2.8,0,0,1-2.8-2.8V-86.2a2.8,2.8,0,0,1,2.8-2.8H382.41a2.8,2.8,0,0,1,2.8,2.8V60.68A2.8,2.8,0,0,1,382.41,63.48Zm-144.07-5.6H379.61V-83.4H238.34Z"/><path d="M382.41,412.73H235.54a2.8,2.8,0,0,1-2.8-2.8V263.06a2.8,2.8,0,0,1,2.8-2.8H382.41a2.8,2.8,0,0,1,2.8,2.8V409.93A2.8,2.8,0,0,1,382.41,412.73Zm-144.07-5.6H379.61V265.86H238.34Z"/><path d="M382.41,238.11H235.54a2.8,2.8,0,0,1-2.8-2.8V88.43a2.8,2.8,0,0,1,2.8-2.8H382.41a2.8,2.8,0,0,1,2.8,2.8V235.31A2.8,2.8,0,0,1,382.41,238.11ZM238.34,232.5H379.61V91.23H238.34Z"/><path d="M32.9,238.11H-114a2.8,2.8,0,0,1-2.8-2.8V88.43a2.8,2.8,0,0,1,2.8-2.8H32.9a2.8,2.8,0,0,1,2.8,2.8V235.31A2.8,2.8,0,0,1,32.9,238.11Zm-144.07-5.61H30.1V91.23H-111.17Z"/><path class="cls-4" d="M158.76,373c-16.82,0-32.22-6.13-43.36-17.27-13.19-13.19-19.27-32.21-16.7-52.17a2.81,2.81,0,0,1,2.42-2.42,68.2,68.2,0,0,1,8.77-.57,61.54,61.54,0,0,1,43.38,17.26c13.19,13.5,19.27,32.5,16.72,52.18a2.8,2.8,0,0,1-2.42,2.42A68.58,68.58,0,0,1,158.76,373Z"/><path class="cls-5" d="M109.9,303.41a58.66,58.66,0,0,1,41.41,16.46c13,13.29,18.27,31.59,15.9,49.82a64.8,64.8,0,0,1-8.45.55c-15.31,0-30.32-5.4-41.38-16.45-13.09-13.09-18.24-31.74-15.9-49.83a66.25,66.25,0,0,1,8.42-.55m0-5.6v0h0a72,72,0,0,0-9.14.59,5.62,5.62,0,0,0-4.84,4.84c-2.68,20.83,3.69,40.7,17.5,54.51,11.67,11.67,27.77,18.09,45.34,18.09a72.39,72.39,0,0,0,9.17-.59,5.61,5.61,0,0,0,4.84-4.84c2.66-20.53-3.7-40.38-17.45-54.46l-.1-.09a64.31,64.31,0,0,0-45.32-18.05Z"/><path class="cls-4" d="M158.76,24.44c-16.82,0-32.22-6.14-43.36-17.27C102.21-6,96.13-25,98.7-45a2.81,2.81,0,0,1,2.42-2.42A68.24,68.24,0,0,1,109.9-48a61.57,61.57,0,0,1,43.37,17.25C166.46-17.23,172.54,1.77,170,21.45a2.81,2.81,0,0,1-2.42,2.42A70.43,70.43,0,0,1,158.76,24.44Z"/><path d="M109.9-45.19a58.66,58.66,0,0,1,41.41,16.46c13,13.29,18.27,31.59,15.9,49.82a66.6,66.6,0,0,1-8.45.55c-15.31,0-30.32-5.4-41.38-16.45-13.09-13.1-18.24-31.74-15.9-49.83a64.46,64.46,0,0,1,8.42-.55m0-5.6h0a72,72,0,0,0-9.14.59,5.61,5.61,0,0,0-4.84,4.84c-2.68,20.83,3.69,40.7,17.5,54.51,11.67,11.66,27.77,18.09,45.34,18.09a70.6,70.6,0,0,0,9.17-.6,5.59,5.59,0,0,0,4.84-4.83c2.66-20.53-3.7-40.38-17.45-54.46l-.1-.09a64.31,64.31,0,0,0-45.32-18Z"/><path class="cls-4" d="M482.37,186.85c-18.06-.39-35-9.33-46.49-24.53a2.81,2.81,0,0,1,0-3.42c11.81-15,28.75-23.63,46.47-23.63h.53c17.91.18,34.87,9.12,46.53,24.54a2.81,2.81,0,0,1,0,3.42c-11.78,15-28.9,23.58-47,23.62h-.07Z"/><path class="cls-5" d="M482.38,138.07h.5c17.74.17,33.78,9.48,44.32,23.42-10.89,13.85-27,22.52-44.77,22.56-17.8-.38-33.7-9.36-44.31-23.42,10.71-13.62,26.72-22.56,44.26-22.56m0-5.6h0c-18.58,0-36.32,9-48.67,24.7a5.6,5.6,0,0,0-.06,6.84c12,15.89,29.74,25.23,48.66,25.64h.13c18.93,0,36.85-9,49.16-24.69a5.6,5.6,0,0,0,.07-6.84c-12.18-16.12-29.95-25.47-48.73-25.65Z"/><path d="M138.12,170.3H63.74a2.8,2.8,0,1,1,0-5.6h74.38a2.8,2.8,0,0,1,0,5.6Z"/></g><g class="cls-6"><path d="M86.67,63.41H-60.21a2.8,2.8,0,0,1-2.8-2.8V-86.26a2.8,2.8,0,0,1,2.8-2.8H86.67a2.8,2.8,0,0,1,2.8,2.8V60.61A2.8,2.8,0,0,1,86.67,63.41Zm-144.08-5.6H83.86V-83.46H-57.41Z"/></g></svg>