<svg id="Layer_1" data-name="Layer 1" xmlns="http://www.w3.org/2000/svg" xmlns:xlink="http://www.w3.org/1999/xlink" viewBox="0 0 635 635"><defs><style>.cls-1{fill:none;}.cls-2{fill:#fff;}.cls-3{clip-path:url(#clip-path);}.cls-4{fill:#1a1a1a;}</style><clipPath id="clip-path"><rect class="cls-1" y="1" width="635" height="635"/></clipPath></defs><title>Artboard 1 copy 14</title><rect class="cls-2" y="1" width="635" height="635"/><g class="cls-3"><path class="cls-4" d="M273.92,42.26v66.13l4.5-4.5H-189.76c-21.6,0-43.39-.82-65,0-.3,0-.59,0-.89,0a4.57,4.57,0,0,0-4.5,4.5V350.87l4.5-4.5H-446a4.57,4.57,0,0,0-4.5,4.5V519.2c0,5.79,9,5.8,9,0V350.87l-4.5,4.5h190.37a4.56,4.56,0,0,0,4.5-4.5V108.39l-4.5,4.5H212.55c21.61,0,43.4.83,65,0,.29,0,.59,0,.88,0a4.56,4.56,0,0,0,4.5-4.5V42.26c0-5.79-9-5.8-9,0Z"/><path class="cls-4" d="M345.06,42.26V97.37a4.57,4.57,0,0,0,4.5,4.5H680.21l-4.5-4.5V375.92l4.5-4.5H501.86a4.57,4.57,0,0,0-4.5,4.5V508.18a4.57,4.57,0,0,0,4.5,4.5H891.14c5.22,0,10.58.35,15.79,0,.24,0,.49,0,.73,0a4.57,4.57,0,0,0,4.5-4.5V401l-4.5,4.5H1081l-4.5-4.5V566.29c0,5.79,9,5.8,9,0V401a4.57,4.57,0,0,0-4.5-4.5H907.66a4.57,4.57,0,0,0-4.5,4.5V508.18l4.5-4.5H518.38c-5,0-10.89-.9-15.79,0a4.45,4.45,0,0,1-.73,0l4.5,4.5V375.92l-4.5,4.5H680.21a4.56,4.56,0,0,0,4.5-4.5V97.37a4.57,4.57,0,0,0-4.5-4.5H349.56l4.5,4.5V42.26c0-5.79-9-5.8-9,0Z"/><path class="cls-4" d="M249.88,42.26V213.6l4.5-4.5H46a4.56,4.56,0,0,0-4.5,4.5V408a4.57,4.57,0,0,0,4.5,4.5H208.29l-4.5-4.5V613.39a4.57,4.57,0,0,0,4.5,4.5H407.68l-4.5-4.5v90.17c0,5.79,9,5.8,9,0V613.39a4.56,4.56,0,0,0-4.5-4.5H208.29l4.5,4.5V408a4.57,4.57,0,0,0-4.5-4.5H46l4.5,4.5V213.6L46,218.1H254.38a4.57,4.57,0,0,0,4.5-4.5V42.26c0-5.79-9-5.8-9,0Z"/><path class="cls-4" d="M222.82,42.26V161.5l4.5-4.5H-77.51c-13.95,0-28.34-1-42.26,0h-.59a4.57,4.57,0,0,0-4.5,4.5V426l4.5-4.5H-330.77a4.56,4.56,0,0,0-4.5,4.5V608.38a4.57,4.57,0,0,0,4.5,4.5H-34.19a4.57,4.57,0,0,0,4.5-4.5V476.12l-4.5,4.5H103.08l-4.5-4.5V736.63l4.5-4.5H-40.2c-5.79,0-5.8,9,0,9H103.08a4.57,4.57,0,0,0,4.5-4.5V476.12a4.56,4.56,0,0,0-4.5-4.5H-34.19a4.57,4.57,0,0,0-4.5,4.5V608.38l4.5-4.5H-330.77l4.5,4.5V426l-4.5,4.5h210.41a4.57,4.57,0,0,0,4.5-4.5V161.5l-4.5,4.5H184.48c13.94,0,28.34,1,42.25,0a5.8,5.8,0,0,1,.59,0,4.56,4.56,0,0,0,4.5-4.5V42.26c0-5.79-9-5.8-9,0Z"/><path class="cls-4" d="M371.11,42.26V197.57a4.57,4.57,0,0,0,4.5,4.5H821.52c5.77,0,12.48,1,18.19,0a5.61,5.61,0,0,1,.82,0l-4.5-4.5V314.8a4.57,4.57,0,0,0,4.5,4.5H959.76l-4.5-4.5V577.31l4.5-4.5H738.33a4.57,4.57,0,0,0-4.5,4.5V697.55c0,5.79,9,5.8,9,0V577.31l-4.5,4.5H959.76a4.57,4.57,0,0,0,4.5-4.5V314.8a4.57,4.57,0,0,0-4.5-4.5H840.53l4.5,4.5V197.57a4.57,4.57,0,0,0-4.5-4.5H394.62c-5.77,0-12.48-1-18.19,0a5.61,5.61,0,0,1-.82,0l4.5,4.5V42.26c0-5.79-9-5.8-9,0Z"/><path class="cls-4" d="M396.16,42.26V303.78a4.57,4.57,0,0,0,4.5,4.5H590l-4.5-4.5V566.29l4.5-4.5H461.78a4.57,4.57,0,0,0-4.5,4.5V762.68c0,5.79,9,5.8,9,0V566.29l-4.5,4.5H590a4.57,4.57,0,0,0,4.5-4.5V303.78a4.57,4.57,0,0,0-4.5-4.5H400.66l4.5,4.5V42.26c0-5.79-9-5.8-9,0Z"/><path class="cls-4" d="M296,42.26V271.71l4.5-4.5H147.17a4.57,4.57,0,0,0-4.5,4.5V685.87c0,5.61-.4,11.37,0,17,0,.24,0,.49,0,.73a4.56,4.56,0,0,0,4.5,4.5h153.3a4.57,4.57,0,0,0,4.5-4.5V448.06c0-5.79-9-5.8-9,0v255.5l4.5-4.5H147.17l4.5,4.5V289.41c0-5.29,1-11.75,0-17a3.56,3.56,0,0,1,0-.73l-4.5,4.5h153.3a4.57,4.57,0,0,0,4.5-4.5V42.26c0-5.79-9-5.8-9,0Z"/><path class="cls-4" d="M322,42.26v251.5a4.57,4.57,0,0,0,4.5,4.5h47.09l-4.5-4.5V653.2c0,4.84-.35,9.83,0,14.66,0,.21,0,.42,0,.63a4.56,4.56,0,0,0,4.5,4.5H618.09l-4.5-4.5v68.14c0,5.79,9,5.8,9,0V668.49a4.57,4.57,0,0,0-4.5-4.5H373.61l4.5,4.5V309.05c0-4.84.35-9.83,0-14.66,0-.21,0-.42,0-.63a4.57,4.57,0,0,0-4.5-4.5H326.52l4.5,4.5V42.26c0-5.79-9-5.8-9,0Z"/></g></svg>