<svg id="Layer_1" data-name="Layer 1" xmlns="http://www.w3.org/2000/svg" viewBox="0 0 1280 1024"><defs><style>.cls-1{fill:#2c96c8;}.cls-2,.cls-3,.cls-4,.cls-5,.cls-6,.cls-7,.cls-8{fill:none;stroke-miterlimit:10;stroke-width:2px;}.cls-2{stroke:#2c96c8;}.cls-3,.cls-4,.cls-5,.cls-6,.cls-7,.cls-8{stroke:#000;stroke-linecap:round;}.cls-4{stroke-dasharray:20.26 30.39;}.cls-5{stroke-dasharray:20.11 30.16;}.cls-6{stroke-dasharray:20.5 30.76;}.cls-7{stroke-dasharray:18.83 28.24;}.cls-8{stroke-dasharray:21.53 32.3;}</style></defs><title>partArtboard 8</title><path class="cls-1" d="M740.25,739.49V602.84a3,3,0,0,0-1.49-2.59c-17.36-9.62-39.28-5.59-51.43,10.34-6.87,9-8.15,19.17-8.15,30v98.88c0,3.86,6,3.86,6,0V649.87c0-6-.4-12.11.1-18.07,2.05-24.52,29.29-38.1,50.45-26.37l-1.48-2.59V739.49c0,3.86,6,3.86,6,0Z"/><path class="cls-1" d="M833.67,739.49v-79c0-27.94.32-55.9,0-83.83-.27-23.87-17.5-45.26-41.36-49.19-25.6-4.21-51.09,12.51-56.82,38-2.74,12.16-1.24,25.63-1.24,38V739.49c0,3.86,6,3.86,6,0V585.31c0-9.32-.07-18.32,4-27a44.38,44.38,0,0,1,29.69-24.4c27.22-6.51,53.42,14.92,53.78,42.54.33,24.84,0,49.71,0,74.55,0,28.95-.52,57.94,0,86.88,0,.55,0,1.1,0,1.65,0,3.86,6,3.86,6,0Z"/><path class="cls-1" d="M659.54,739.92c.55,45.43,5.74,91.47,19.16,135,5.12,16.63,11.5,33.05,20.07,48.22,2.08,3.67,5.44,12.29,10,13,2.27.34,4.84,0,7.12,0h81.57c3.22,0,4.41-.22,6.45-3.28,9.28-13.87,16.13-29.32,21.73-45,16.82-47.11,22.83-98.11,23.43-147.91a3,3,0,0,0-3-3H662.54c-3.86,0-3.86,6,0,6H846l-3-3c-.66,54.45-7.44,111.55-29.35,161.91a177.86,177.86,0,0,1-16.21,29.76l2.59-1.49H708.52l2.59,1.49c-12.14-17.69-20.34-37.84-26.63-58.26-8.14-26.41-13.13-53.78-16-81.24-1.81-17.33-2.74-34.74-3-52.17C665.5,736.06,659.5,736.05,659.54,739.92Z"/><line class="cls-2" x1="682.18" y1="728.12" x2="669.07" y2="728.12"/><line class="cls-2" x1="682.18" y1="715.88" x2="669.07" y2="715.88"/><line class="cls-2" x1="682.18" y1="703.65" x2="669.07" y2="703.65"/><line class="cls-2" x1="682.18" y1="691.41" x2="669.07" y2="691.41"/><line class="cls-2" x1="682.18" y1="679.17" x2="669.07" y2="679.17"/><line class="cls-2" x1="682.18" y1="666.93" x2="669.07" y2="666.93"/><line class="cls-2" x1="682.18" y1="654.7" x2="669.07" y2="654.7"/><line class="cls-2" x1="682.18" y1="642.46" x2="669.07" y2="642.46"/><line class="cls-2" x1="682.18" y1="630.22" x2="669.07" y2="630.22"/><line class="cls-2" x1="843.02" y1="728.12" x2="829.9" y2="728.12"/><line class="cls-2" x1="843.02" y1="715.88" x2="829.9" y2="715.88"/><line class="cls-2" x1="843.02" y1="703.65" x2="829.9" y2="703.65"/><line class="cls-2" x1="843.02" y1="691.41" x2="829.9" y2="691.41"/><line class="cls-2" x1="843.02" y1="679.17" x2="829.9" y2="679.17"/><line class="cls-2" x1="843.02" y1="666.93" x2="829.9" y2="666.93"/><line class="cls-2" x1="843.02" y1="654.7" x2="829.9" y2="654.7"/><line class="cls-2" x1="843.02" y1="642.46" x2="829.9" y2="642.46"/><line class="cls-2" x1="843.02" y1="630.22" x2="829.9" y2="630.22"/><line class="cls-2" x1="843.02" y1="617.98" x2="829.9" y2="617.98"/><line class="cls-2" x1="843.02" y1="605.74" x2="829.9" y2="605.74"/><line class="cls-2" x1="843.02" y1="593.51" x2="829.9" y2="593.51"/><line class="cls-2" x1="843.02" y1="581.27" x2="829.9" y2="581.27"/><line class="cls-2" x1="843.02" y1="569.03" x2="829.9" y2="569.03"/><line class="cls-2" x1="701.41" y1="600.5" x2="701.41" y2="588.26"/><line class="cls-2" x1="711.02" y1="597.88" x2="711.02" y2="585.64"/><line class="cls-2" x1="720.64" y1="597.88" x2="720.64" y2="585.64"/><line class="cls-2" x1="729.38" y1="599.63" x2="729.38" y2="587.39"/><line class="cls-2" x1="767.84" y1="532.32" x2="767.84" y2="520.08"/><line class="cls-2" x1="758.23" y1="537.56" x2="758.23" y2="525.32"/><line class="cls-2" x1="777.46" y1="529.7" x2="777.46" y2="517.46"/><line class="cls-2" x1="787.07" y1="529.7" x2="787.07" y2="517.46"/><line class="cls-2" x1="796.69" y1="531.44" x2="796.69" y2="519.21"/><line class="cls-2" x1="805.43" y1="535.81" x2="805.43" y2="523.58"/><path class="cls-1" d="M1052.72,152.89c9.69,1,18.17-1.33,23.7-7.27,13-14,4.83-42.64-18.22-64.09S1006,54,993,68c-6.3,6.77-7.61,17-4.66,28.23l-52.2-46a132,132,0,0,1-21.57,15A132.24,132.24,0,0,1,890.47,75.8l19.12,109.46L786,209.14c-3.74-20-14.55-34.42-25.94-33.41-12.82,1.12-21.51,21.37-19.41,45.21s14.18,42.27,27,41.14c9.43-.83,16.61-12,18.93-27.34l130.8-5.09,30.14,172.5s53.11-3.41,129.88-46.44c84.61-47.43,107.38-86.57,107.38-86.57Zm-18.4-25-20-17.58c-5.13-8.54-6-17.38-1.29-22.39,6.46-6.94,21-3.91,32.45,6.76s15.52,24.94,9.06,31.88C1050.3,131.2,1042.46,131.41,1034.32,127.92Z"/><path d="M1052.72,155.89c13.59,1.11,27.31-4.3,31.56-18.23,3.83-12.53-.88-26.48-7.16-37.36a92.43,92.43,0,0,0-35.83-34.68c-11.62-6.24-26.48-10.89-39.56-6.57C985.27,64.5,981.68,81.7,985.42,97l5-2.92-52.2-46a3.09,3.09,0,0,0-4.24,0A132.88,132.88,0,0,1,889.67,72.9a3.1,3.1,0,0,0-2.1,3.69l16.73,95.73,2.4,13.74,2.09-3.69-108,20.87-15.6,3,3.69,2.1c-2.51-12.67-8.48-29.51-21.79-34.53-11.69-4.41-21,5.1-25.19,15.09-6.31,14.91-5.84,33.05-1.2,48.35,3.34,11,10.55,25.65,23.35,27.65,16,2.51,23.38-16.94,25.41-29.37l-2.89,2.2L901,233.29l16.32-.64-2.89-2.2,10.16,58.18,16.22,92.85,3.75,21.46a3,3,0,0,0,2.9,2.21c8.42-.56,16.88-2.35,25.09-4.22,22.86-5.22,45-13.19,66.47-22.66a497.52,497.52,0,0,0,85.12-48.33c17-12,33.34-25.07,47.66-40.15,5.55-5.85,11.41-12.12,15.51-19.13a3,3,0,0,0-.47-3.64l-44.61-39.28-71.1-62.61-16.32-14.37c-2.89-2.54-7.15,1.69-4.25,4.25l44.62,39.28,71.1,62.61,16.32,14.37-.47-3.64c-3,5.14-7.12,9.75-11.08,14.15-12.58,14-27.09,26.22-42.18,37.38-44.94,33.23-96.69,60.49-151.05,74.33-9.88,2.51-20.15,5-30.36,5.66l2.89,2.2-10.17-58.18L924,250.32l-3.75-21.47a3,3,0,0,0-2.89-2.2l-114.48,4.46-16.32.63a3.06,3.06,0,0,0-2.9,2.2C782,244.25,774.42,266.22,760,257c-12.83-8.19-16.52-28.23-16.7-42.1-.15-10.75,2.08-33,15.66-36,14.81-3.29,22.09,20.91,24.1,31a3.05,3.05,0,0,0,3.69,2.1l108-20.87,15.6-3c1.7-.32,2.36-2.19,2.09-3.69L895.76,88.74,893.36,75l-2.1,3.69a140.37,140.37,0,0,0,47-26.36H934l52.2,46a3,3,0,0,0,5-2.92c-3-12.18-.91-26.47,12.63-30.7,10.67-3.33,22.77.25,32.4,5.08,21,10.55,44.24,34.34,43.33,59.69-.53,15-13,21.57-26.85,20.44C1048.87,149.57,1048.89,155.57,1052.72,155.89Z"/><path d="M1036.44,125.79l-14.33-12.62c-1.76-1.54-4.12-3.08-5.59-4.91-4-5-5.79-16.25.85-19.85,5.17-2.8,12.2-.47,17,2a41.69,41.69,0,0,1,16.13,14.94c2.83,4.61,5.68,11.24,3.46,16.66-3.13,7.62-12.91,5.37-18.82,3-3.59-1.43-5.15,4.37-1.6,5.79,10.54,4.21,25.3,3.14,27-10.63,1.57-12.85-8.71-25.31-18.53-32.16-8.35-5.82-22.73-10.89-31-2.19-6.94,7.28-4.15,21.84,2.91,28.06L1032.2,130C1035.09,132.58,1039.35,128.35,1036.44,125.79Z"/><path class="cls-1" d="M551.83,709.05c-9.33-4.2-9.58-17.3-8.84-26a72.31,72.31,0,0,1,1.8-10.74c.56-2.32,2.18-5.41,2.08-7.72-.18-4.33-7.28-11.1-10.3-13.88-6.39-5.88-15.17-10.12-23.82-6.82-7,2.68-11.47,9.35-14.16,16.07-8.54,21.26-4.66,47.95,3.67,68.63,5.57,13.81,17.37,35.19,35.12,34.3,22.58-1.13,24.9-34.45,23.94-50.71a3.06,3.06,0,0,0-3.8-2.9,12.66,12.66,0,0,1-6.41-.52c-3.67-1.21-5.25,4.58-1.59,5.78a19.17,19.17,0,0,0,9.6.53l-3.8-2.89c.58,9.86.14,20-3.1,29.39-2.21,6.45-6.5,14.12-13.94,15.22-6.6,1-12.61-3.58-16.9-8.06-6.43-6.72-10.94-15.33-14.19-24-7.09-18.8-10.55-42.17-3.48-61.5,2.22-6.07,6.31-13.07,13.22-14.38,4.07-.77,8.13.77,11.49,3a33.75,33.75,0,0,1,5.56,4.7c1.73,1.78,5.83,5.48,6.32,8,.46,2.3-1.17,5.52-1.68,7.85-.6,2.73-1,5.48-1.38,8.25a57.46,57.46,0,0,0,0,14.88c1.07,7.47,4.21,15.42,11.52,18.7C552.29,715.8,555.35,710.63,551.83,709.05Z"/><path class="cls-1" d="M586.73,620.45a18.7,18.7,0,0,0-7.24-.89c-1.51.09-3.14,1.3-3,3,.73,8.34.75,18-3.66,25.49-5.44,9.18-14,3.93-19.32-2.68-1.21-1.51-3.85-.94-4.71.61-7.44,13.42-12.65,29.09-12,44.6.43,10.11,4.19,22.9,15.77,24.74s21.87-8.2,28.24-16.41a90.82,90.82,0,0,0,18-43.3c1.52-11.56,1.16-29.2-11.41-34.85-3.49-1.57-6.54,3.59-3,5.18,12.18,5.48,9.63,25.33,7.31,35.6-3.41,15.1-10.83,30.88-22.64,41.26-4.44,3.91-11.1,8.35-17.3,6.15-5.34-1.89-7.48-8-8.41-13.07-2.88-15.82,3-33.19,10.6-46.87l-4.71.61c6.29,7.82,17.27,14.1,25.74,5.46,8-8.13,8.4-22,7.48-32.52l-3,3a14.36,14.36,0,0,1,5.64.68C588.81,627.44,590.39,621.65,586.73,620.45Z"/><path class="cls-1" d="M568.06,659.08c12.22-3.13,14.77-19.15,14.78-29.74,0-15.1-4.46-32.05-14.6-43.58-6.71-7.63-17.65-11.38-25.11-2.55-9,10.67-7.85,28.31-5.09,41,3,13.65,12.37,37.37,30,34.9,3.8-.54,2.18-6.32-1.6-5.79-8,1.12-14-8.72-17.08-14.7a67.77,67.77,0,0,1-6.91-24.81c-.67-7.62-.41-32.34,12.9-29.74,5.53,1.08,9.74,6.79,12.44,11.28a64.58,64.58,0,0,1,7.91,21.82c1.39,7.64,1.74,15.84-.07,23.44-1.22,5.1-3.57,11.27-9.19,12.71C562.72,654.25,564.31,660,568.06,659.08Z"/><circle cx="770.26" cy="212.31" r="5"/><circle cx="756" cy="228.53" r="5"/><circle cx="754.36" cy="214.12" r="5"/><circle cx="771.9" cy="226.72" r="5"/><circle cx="765.75" cy="239.99" r="5"/><circle cx="760.95" cy="200.29" r="5"/><line class="cls-3" x1="720.1" y1="203.67" x2="710.65" y2="206.93"/><line class="cls-4" x1="681.93" y1="216.84" x2="456.92" y2="294.46"/><line class="cls-3" x1="442.56" y1="299.41" x2="433.1" y2="302.67"/><line class="cls-3" x1="724.1" y1="226.67" x2="715.25" y2="231.32"/><line class="cls-5" x1="688.54" y1="245.32" x2="479.32" y2="355.03"/><line class="cls-3" x1="465.96" y1="362.03" x2="457.1" y2="366.67"/><line class="cls-3" x1="731.1" y1="247.67" x2="723.35" y2="253.99"/><line class="cls-6" x1="699.51" y1="273.42" x2="512.77" y2="425.64"/><line class="cls-3" x1="500.86" y1="435.35" x2="493.1" y2="441.67"/><line class="cls-3" x1="740.1" y1="266.67" x2="734.11" y2="274.68"/><line class="cls-7" x1="717.18" y1="297.28" x2="584.56" y2="474.36"/><line class="cls-3" x1="576.1" y1="485.67" x2="570.1" y2="493.67"/><line class="cls-3" x1="760.1" y1="281.67" x2="756.22" y2="290.89"/><line class="cls-8" x1="743.68" y1="320.65" x2="687.26" y2="454.58"/><line class="cls-3" x1="680.99" y1="469.46" x2="677.1" y2="478.67"/><path d="M145.09,742.16l-28,.26,3,3V676.53l-3,3h316l-3-3v68.89l3-3L408,742.16a3.06,3.06,0,0,0-2.89,2.2l-19.42,62.39-31,99.47-7.12,22.88,2.9-2.2h-148l2.89,2.2L186,866.71,155.1,767.24,148,744.36c-1.15-3.67-6.94-2.11-5.79,1.6l19.39,62.39,30.92,99.47,7.11,22.88a3.07,3.07,0,0,0,2.89,2.2h148a3.07,3.07,0,0,0,2.89-2.2l19.41-62.39,30.95-99.48L410.92,746l-2.89,2.2,25.07.26a3,3,0,0,0,3-3V676.53a3,3,0,0,0-3-3h-316a3,3,0,0,0-3,3v68.89a3,3,0,0,0,3,3l28-.26C149,748.12,149,742.12,145.09,742.16Z"/><rect x="268.5" y="285.88" width="6.2" height="392.32" rx="1.95" transform="translate(543.2 964.08) rotate(-180)"/><path class="cls-1" d="M189.81,630.59a85.88,85.88,0,0,1-21.72-36.76,96.47,96.47,0,0,1-2.42-42.73,96.51,96.51,0,0,1,42.74,2.41A85.76,85.76,0,0,1,266.89,612a96.51,96.51,0,0,1,2.41,42.74,96.33,96.33,0,0,1-42.73-2.42A85.88,85.88,0,0,1,189.81,630.59Z"/><path d="M191.93,628.47c-19.92-20.32-27.67-48.66-23.36-76.57l-2.1,2.09c27.71-4.27,56.5,3.32,76.58,23.37s27.63,48.89,23.36,76.57l2.1-2.09c-27.91,4.3-56.26-3.44-76.58-23.37-2.76-2.7-7,1.54-4.24,4.24,22,21.54,52.32,29.55,82.41,24.91a2.89,2.89,0,0,0,2.1-2.09c4.6-29.83-3.22-60.76-24.91-82.42s-52.54-29.51-82.41-24.9a2.88,2.88,0,0,0-2.1,2.09c-4.64,30.09,3.38,60.45,24.91,82.41C190.4,635.48,194.64,631.23,191.93,628.47Z"/><path class="cls-1" d="M297.89,502.57a85.93,85.93,0,0,1,36.76-21.72,96.51,96.51,0,0,1,42.74-2.42A96.51,96.51,0,0,1,375,521.17a85.71,85.71,0,0,1-58.48,58.48,96.48,96.48,0,0,1-42.73,2.41,96.48,96.48,0,0,1,2.41-42.73A85.88,85.88,0,0,1,297.89,502.57Z"/><path d="M300,504.69c20.32-19.92,48.66-27.67,76.57-23.36l-2.1-2.1c4.28,27.71-3.31,56.5-23.36,76.58s-48.9,27.63-76.57,23.36l2.09,2.1c-4.3-27.91,3.44-56.26,23.37-76.58,2.7-2.76-1.54-7-4.25-4.24-21.53,22-29.54,52.32-24.91,82.41A2.94,2.94,0,0,0,273,585c29.83,4.6,60.76-3.22,82.41-24.91s29.52-52.54,24.91-82.41a2.87,2.87,0,0,0-2.1-2.1c-30.08-4.64-60.44,3.38-82.41,24.91C293,503.16,297.25,507.4,300,504.69Z"/><path class="cls-1" d="M222.16,333.43c-12.31-12.7-17.1-30-14.51-47.41l-2.09,2.09c17.17-2.56,35,2.07,47.41,14.51S270,332.86,267.48,350l2.09-2.09c-17.38,2.59-34.71-2.2-47.41-14.51-2.77-2.69-7,1.55-4.24,4.24,14.35,13.92,33.68,19,53.25,16.05a2.85,2.85,0,0,0,2.09-2.09c2.88-19.34-2-39.18-16.05-53.25S223.3,279.44,204,282.33a2.88,2.88,0,0,0-2.1,2.09C199,304,204,323.32,217.92,337.67,220.61,340.45,224.85,336.2,222.16,333.43Z"/><rect x="181.77" y="299.69" width="4.57" height="248.73" rx="1.81" transform="translate(614.05 593.76) rotate(135)"/><path class="cls-1" d="M228.35,407.42c-.34-15.76-8.13-29.13-20.64-38.44a2.9,2.9,0,0,0-3,0C192.37,378.14,184,391.77,184,407.42s8.33,29.28,20.64,38.44a2.9,2.9,0,0,0,3,0c12.51-9.31,20.3-22.67,20.64-38.44.08-3.86-5.92-3.86-6,0-.29,13.48-6.92,25.27-17.67,33.26h3c-10.59-7.88-17.64-19.86-17.67-33.26s7.11-25.4,17.67-33.26h-3c10.74,8,17.38,19.78,17.67,33.26C222.43,411.28,228.43,411.29,228.35,407.42Z"/><path class="cls-1" d="M201,499.16a43.78,43.78,0,0,1-21.08-5.42,49.14,49.14,0,0,1-16.28-14.54,49.22,49.22,0,0,1,16.28-14.53,43.72,43.72,0,0,1,42.17,0,49.19,49.19,0,0,1,16.27,14.53,49.11,49.11,0,0,1-16.27,14.54A43.84,43.84,0,0,1,201,499.16Z"/><path d="M201,496.16c-14.08-.28-26.44-7.24-34.77-18.47v3c8.22-11.08,20.77-18.45,34.77-18.47s26.57,7.41,34.77,18.47v-3c-8.33,11.24-20.69,18.19-34.77,18.47-3.85.08-3.87,6.08,0,6,16.38-.32,30.3-8.43,39.95-21.44a2.86,2.86,0,0,0,0-3c-9.5-12.81-23.7-21.44-39.95-21.44s-30.45,8.63-39.95,21.44a2.9,2.9,0,0,0,0,3c9.65,13,23.57,21.12,39.95,21.44C204.83,502.24,204.83,496.24,201,496.16Z"/><path class="cls-1" d="M141,422.68a31.46,31.46,0,0,1-15.17-3.9,35.34,35.34,0,0,1-11.71-10.46,35.31,35.31,0,0,1,11.71-10.45,31.43,31.43,0,0,1,30.33,0,35.31,35.31,0,0,1,11.71,10.45,35.34,35.34,0,0,1-11.71,10.46A31.45,31.45,0,0,1,141,422.68Z"/><path d="M141,419.68a31,31,0,0,1-24.29-12.87v3c12.53-16.66,36-16.67,48.57,0v-3A31,31,0,0,1,141,419.68c-3.86.11-3.87,6.11,0,6,12.17-.35,22.23-6.22,29.46-15.84a2.9,2.9,0,0,0,0-3C163.32,397.37,153,391,141,391s-22.4,6.43-29.47,15.84a2.9,2.9,0,0,0,0,3c7.24,9.63,17.29,15.49,29.47,15.84C144.81,425.79,144.81,419.79,141,419.68Z"/><path class="cls-1" d="M123.18,348.4a31.58,31.58,0,0,0,3.9,15.17,35.55,35.55,0,0,0,10.46,11.71A35.55,35.55,0,0,0,148,363.57a31.51,31.51,0,0,0,0-30.33,35.45,35.45,0,0,0-10.46-11.71,35.45,35.45,0,0,0-10.46,11.71A31.57,31.57,0,0,0,123.18,348.4Z"/><path d="M120.18,348.4c.35,12.17,6.22,22.23,15.85,29.47a2.88,2.88,0,0,0,3,0c9.44-7.1,15.82-17.4,15.84-29.47s-6.43-22.39-15.84-29.46a2.88,2.88,0,0,0-3,0c-9.63,7.23-15.5,17.29-15.85,29.46-.11,3.86,5.89,3.86,6,0a31,31,0,0,1,12.87-24.28h-3c16.66,12.52,16.67,36,0,48.56h3a31,31,0,0,1-12.87-24.28C126.07,344.55,120.07,344.53,120.18,348.4Z"/><rect x="340.46" y="254.19" width="6.43" height="202.11" rx="1.84" transform="translate(351.86 -138.97) rotate(45)"/><path class="cls-1" d="M353.75,414.09c18.39-.31,34.21-9.53,45-24.16a2.84,2.84,0,0,0,0-3c-10.68-14.43-26.74-24.16-45-24.16s-34.35,9.73-45,24.16a2.88,2.88,0,0,0,0,3c10.83,14.63,26.65,23.85,45,24.16,3.86.07,3.86-5.93,0-6-16.12-.27-30.33-8.32-39.86-21.18v3c9.4-12.68,23.83-21.21,39.86-21.18s30.44,8.47,39.85,21.18v-3c-9.52,12.86-23.73,20.91-39.85,21.18C349.89,408.16,349.88,414.16,353.75,414.09Z"/><path class="cls-1" d="M363.92,314.39a49.82,49.82,0,0,0-6.16-24,55.88,55.88,0,0,0-16.52-18.49,55.85,55.85,0,0,0-16.51,18.49,49.66,49.66,0,0,0,0,47.91,55.85,55.85,0,0,0,16.51,18.49,55.88,55.88,0,0,0,16.52-18.49A49.78,49.78,0,0,0,363.92,314.39Z"/><path d="M366.92,314.39c-.32-18.39-9.54-34.21-24.16-45a2.9,2.9,0,0,0-3,0c-14.43,10.69-24.16,26.75-24.16,45s9.73,34.35,24.16,45a2.9,2.9,0,0,0,3,0c14.62-10.83,23.84-26.64,24.16-45,.06-3.87-5.94-3.87-6,0-.28,16.11-8.33,30.33-21.19,39.85h3c-12.69-9.39-21.22-23.83-21.19-39.85S330,284,342.76,274.53h-3c12.86,9.53,20.91,23.74,21.19,39.86C361,318.24,367,318.26,366.92,314.39Z"/><path class="cls-1" d="M404.73,344.79a37.23,37.23,0,0,0,17.92-4.61,41.83,41.83,0,0,0,13.83-12.35,41.75,41.75,0,0,0-13.83-12.36,37.13,37.13,0,0,0-35.84,0A41.68,41.68,0,0,0,373,327.83a41.76,41.76,0,0,0,13.84,12.35A37.2,37.2,0,0,0,404.73,344.79Z"/><path d="M404.73,347.79c14.11-.33,26-7.26,34.35-18.45a2.9,2.9,0,0,0,0-3c-8.19-11-20.35-18.48-34.35-18.45s-26.13,7.44-34.35,18.45a2.9,2.9,0,0,0,0,3c8.35,11.19,20.23,18.12,34.35,18.45,3.86.09,3.86-5.91,0-6-11.83-.28-22.14-6.06-29.17-15.48v3c15-20,43.37-20,58.33,0v-3c-7,9.43-17.34,15.2-29.16,15.48C400.87,341.88,400.86,347.88,404.73,347.79Z"/><path class="cls-1" d="M392.76,259.72c.28-11.83,6.06-22.14,15.48-29.17h-3c20.06,15,20.06,43.37,0,58.33h3c-9.42-7-15.2-17.34-15.48-29.16-.09-3.86-6.09-3.87-6,0,.33,14.11,7.26,26,18.45,34.35a2.9,2.9,0,0,0,3,0c11-8.2,18.48-20.35,18.45-34.35s-7.43-26.13-18.45-34.35a2.9,2.9,0,0,0-3,0c-11.19,8.35-18.12,20.23-18.45,34.35C386.67,263.58,392.67,263.58,392.76,259.72Z"/><path class="cls-1" d="M578.24,758.33H494.89a46.25,46.25,0,0,0-4.71,0c-3.74.39-7.5,3.43-10.6,5.46a101.19,101.19,0,0,0-27.41,26.73,99.4,99.4,0,0,0,29.52,141.09c2.5,1.56,4.95,3.4,7.91,3.64,1.81.14,3.7,0,5.53,0H568.6c3.36,0,7.23.54,10.57,0,5.15-.84,11-6,15.08-9.15a99.76,99.76,0,0,0,14.36-13.35c36.95-42.09,31.26-108.59-12.68-143.48a103.56,103.56,0,0,0-16.17-10.53c-3.42-1.8-6.45,3.38-3,5.18a93.44,93.44,0,0,1,35,135,93.55,93.55,0,0,1-27.23,26.75c-2.44,1.56-4.19,3.18-6.44,3.58a32.12,32.12,0,0,1-5.19,0H503.67c-4.37,0-9.53.76-13.85,0-2.08-.37-4-2.12-6.32-3.58A94.06,94.06,0,0,1,447,881.14,93.48,93.48,0,0,1,475.18,774.4a89.5,89.5,0,0,1,8-5.81c1.75-1.13,5.29-3.89,6.56-4.26a11.64,11.64,0,0,1,2.89,0h85.58C582.11,764.33,582.11,758.33,578.24,758.33Z"/></svg>