<svg id="Layer_1" data-name="Layer 1" xmlns="http://www.w3.org/2000/svg" viewBox="0 0 1280 1024"><defs><style>.cls-1{fill:#28a47f;}.cls-2{fill:#aeffda;}.cls-3,.cls-4,.cls-5,.cls-6{fill:none;stroke:#28a47f;stroke-miterlimit:10;}.cls-3,.cls-5,.cls-6{stroke-width:3px;}.cls-3,.cls-4{stroke-dasharray:20 30;}.cls-4{stroke-width:2px;}.cls-5{stroke-dasharray:10 10;}.cls-6{stroke-dasharray:20 10;}</style></defs><title>partArtboard 2</title><path d="M522.13,377.7a90,90,0,0,1,16.65-2.43c3.19-.09,7.44-.4,9.74,2.15,3.84,4.25,5.61,11.68,7.26,17,1.94,6.2,3.78,12.76,4.12,19.27.29,5.44-2.66,8.42-6.27,12.26-5,5.31-10.41,10.19-15.48,15.43-3.81,3.95-6.71,7.47-7.63,13-2.21,13.26,3.09,28.88,15.34,35.75,7.65,4.29,14,.71,20.93-3.18,5-2.8,10.26-5.55,14.89-9,6.92-5.08,13.45-10.83,20-16.37,8.56-7.25,18.2-14.63,24.92-23.72,7.48-10.1,8.47-25.43,10.45-37.43s4.79-23.5,5.7-35.66c.79-10.59,1.26-21.21,1.52-31.83l-2.2,2.89,42.73-15.42,102.64-37,124.22-44.82,107.82-38.91c17.29-6.24,35.25-11.63,52.17-18.83.24-.1.49-.18.74-.26,3.6-1.3,2-7.1-1.6-5.79l-42.73,15.42-102.63,37L801.2,272.08,693.38,311c-17.29,6.24-35.25,11.63-52.17,18.83-.24.1-.49.18-.73.27a3.11,3.11,0,0,0-2.21,2.89q-.33,13.13-1.14,26.25c-.37,5.89-.74,11.82-1.56,17.67C635,381,633.74,384.94,633,389c-2.56,13.46-3.4,28-8.66,40.74-3.77,9.17-13.66,16.18-20.89,22.49-8,6.95-16.17,13.69-24.44,20.29-.52.41-1,.86-1.56,1.24,1.24-.88-.35.15-.68.33-1.54.88-3,1.86-4.55,2.77-6.73,4-16.46,12.59-24.29,7.47-10.88-7.13-16.91-26.16-7.59-36.5,4.48-5,9.5-9.48,14.23-14.22,3.66-3.69,8.32-7.81,10.42-12.69s.72-11.07-.26-16A116.89,116.89,0,0,0,558.05,383c-1.88-4.56-4-10.33-8.86-12.41-8.46-3.6-20.16-.56-28.66,1.3-3.77.83-2.17,6.62,1.6,5.79Z"/><ellipse class="cls-1" cx="555.59" cy="496.68" rx="32.36" ry="46.54" transform="translate(-129.78 204.03) rotate(-18.67)"/><path d="M570.89,542.22c16.59-6.09,21.55-25.42,20-41.43-1.75-18.07-11.31-37.49-27.61-46.64-13.36-7.5-29.17-4.49-37.33,8.93-9.91,16.34-6.6,38.65,2,54.75,8,15,24.67,30.07,42.92,24.39,1.84-.57,1.05-3.47-.8-2.89-14.52,4.52-28.23-5.85-36.06-17.3-9.54-13.95-14.09-33-9-49.45,4.4-14.28,17.44-23.49,32.23-18,15.25,5.71,25.14,21.86,29,37,4.17,16.35,2.42,40.92-16.15,47.74C568.29,540,569.07,542.89,570.89,542.22Z"/><ellipse class="cls-1" cx="574.36" cy="667.2" rx="33.28" ry="47.87" transform="matrix(0.65, -0.76, 0.76, 0.65, -305.99, 672.81)"/><path d="M611.9,699.26c10.65-13.16,6.25-31.41-2.39-44.42-10.62-16-29.38-28.83-49-29.18-15.72-.28-29.09,9.74-30,26-1,18.92,12.55,36.59,27.45,46.7,15.25,10.35,39.87,16.61,53.92.89,1.28-1.43-.84-3.56-2.13-2.12-11.31,12.67-30.65,9.46-44.13,2.35-14.89-7.86-28.1-22.29-31.45-39.16-3-14.91,4.67-28.94,20.35-31.31,17.65-2.67,35.72,7.77,47.09,20.5,10.85,12.16,19.91,33.09,8.14,47.62C608.57,698.63,610.68,700.76,611.9,699.26Z"/><path d="M546.65,515.2l-5.93-33.06,6.63-4.11,27,20-7.93,4.93L550.48,490.5l4,19.81Z"/><path d="M566.41,642.68l5.38,6.27-.9.77a3.91,3.91,0,0,0-1.44,2.12,3.63,3.63,0,0,0,.45,2.31,26.8,26.8,0,0,0,2.54,3.28,16.49,16.49,0,0,1,2.9,4.53,5.74,5.74,0,0,1,.41,2.8,8.59,8.59,0,0,1-.94,2.63,9,9,0,0,1,3-.47,6.73,6.73,0,0,1,2.78,1,18.08,18.08,0,0,1,4,3.79,16.24,16.24,0,0,0,3.17,3.12,2.45,2.45,0,0,0,1.87.32,9,9,0,0,0,2.89-1.91l5.31,6.19-2.52,2.16q-3.89,3.33-6.23,3.93a6.34,6.34,0,0,1-4.37-.37,15.81,15.81,0,0,1-4.7-4.08c-.39-.45-.77-.93-1.14-1.41q-.35-.43-.72-.87a11.13,11.13,0,0,0-3.12-2.8,3.58,3.58,0,0,0-2.37-.32,6.9,6.9,0,0,0-2.68,1.5l-5.62-6.56a6.07,6.07,0,0,0,1.91-2.44,3.73,3.73,0,0,0,0-2.4,11.84,11.84,0,0,0-2.34-3.55l-.56-.65c-.26-.28-.52-.57-.77-.86a19.27,19.27,0,0,1-3.61-5.4,6.85,6.85,0,0,1-.35-3.71,7,7,0,0,1,1.33-2.73,24.12,24.12,0,0,1,3.71-3.88Z"/><path class="cls-2" d="M854,81.68,421.33,219s-127.46,59.78-165.68,86.71c-5.5,3.87-19.4,11.53-19.79,18.25-.6,10.34,16.95,21.61,37.45,17.65s102.78-53.79,102.78-53.79-110.26,70-139.91,101.44c-2.77,2.93-8.92,9.56-8.7,13.58.52,9.44,16,19.83,34.29,15.92s127.46-73.48,127.46-73.48S302,418,272.94,442.22c-5.5,4.58-19.33,13.53-20.31,20.71-1.87,13.64,15.44,30.37,53.58,12.66S439.8,370.69,439.8,370.69,419.32,424.3,417.37,440s8.13,28.48,15.81,32.36,74.95,37.53,94.6,36.27-1.08-34.42-5.64-38.81S471,436.76,471,436.76s6.34-43.95,22.29-52.3c5.34-2.79,20.48-7.57,28.31-9.78"/><path d="M853.21,78.79l-29.45,9.34-74.35,23.59-98.25,31.17L550,175l-82.75,26.25-44.19,14a59,59,0,0,0-7.46,3.1q-18,8.5-35.84,17.23c-36.28,17.69-72.74,35.51-107.53,56q-9.42,5.56-18.46,11.71c-6.91,4.71-20.36,10.89-20.91,20.59s10,16.46,18,19.2a44.39,44.39,0,0,0,28.95-.31c16-5.67,31.1-14.33,45.91-22.47,15-8.25,29.83-16.81,44.55-25.56,2.46-1.46,4.92-2.93,7.36-4.41l-3-5.18c-16.64,10.57-33.09,21.46-49.41,32.51-26.76,18.12-53.75,36.5-78.35,57.51a168.85,168.85,0,0,0-12.77,11.89c-5.09,5.38-11.69,12.12-8.59,20,5.74,14.64,27.48,18.28,40.61,13.36,9.83-3.69,19.11-9.12,28.24-14.23,13-7.29,25.87-14.92,38.64-22.63q29.1-17.56,57.79-35.82l-3.63-4.71c-42.1,35.13-84.44,70-126.58,105-5.82,4.83-11.76,10.51-10.92,18.66a20.05,20.05,0,0,0,7.89,13.63c14.63,11.33,36.68,4.34,51.42-2.83,12.27-6,23.52-14.22,34.44-22.31,14.22-10.53,28-21.64,41.6-33q29-24.12,57-49.54l-5-2.92c-7.71,20.21-15.59,40.73-20.87,61.72-3.6,14.3-1.19,29.37,10.34,39.58,6.29,5.58,15.36,8.77,22.86,12.33,12.63,6,25.4,11.76,38.39,17,11.16,4.48,22.9,9.29,34.91,10.84,4.41.57,9.48.61,13-2.5s3.93-8.13,3.2-12.58c-1.58-9.62-7.34-21.3-14.24-28.32-2.7-2.74-6.35-4.79-9.53-6.91-5.7-3.79-11.49-7.47-17.28-11.13q-12.56-7.93-25.2-15.72l1.38,3.39a145.2,145.2,0,0,1,8.68-33.21c2.55-6.32,6-13.85,12.23-17.3,8.29-4.58,18.54-6.9,27.6-9.47,3.7-1.06,2.13-6.85-1.6-5.79-9.6,2.73-20.21,5.27-29,10.08-6.52,3.56-10.52,10.66-13.45,17.21A141.14,141.14,0,0,0,468.1,436a3.16,3.16,0,0,0,1.37,3.39c15.36,9.44,30.81,18.84,45.69,29,6.43,4.39,10.06,10.17,13.53,17.17,2.19,4.44,4.84,10,4.39,15.13-.42,4.87-4.72,5.25-8.81,4.87-10.5-1-21-5.36-30.77-9.13-12.3-4.77-24.37-10.15-36.33-15.74-7.37-3.45-14.81-6.86-22-10.67-13-6.83-16.86-22.19-13.64-35.58,5.15-21.43,13.32-42.36,21.17-62.92,1.14-3-3-4.77-5-2.92-14.22,13-28.73,25.64-43.39,38.12-24.31,20.7-49,41.78-76.14,58.79-13.64,8.57-30.88,17.35-47.42,14.26-5.65-1.05-11.38-3.93-14-9.32-3.51-7.31,1.55-12.52,7-17.15,10.45-8.94,21.44-17.35,32-26.17l37.95-31.64,57.65-48.1c2.62-2.19-.78-6.53-3.63-4.71Q365.9,356.54,343.8,370c-22.94,14-45.94,28.4-70,40.44-11.19,5.59-22.84,9.08-34.87,2.39-3.16-1.77-6.84-4.55-8-8.19-1.44-4.47,3.26-8.84,6-11.86A145.36,145.36,0,0,1,249,381.22c23.26-20.28,49-37.82,74.5-55.16,17.85-12.15,35.85-24.11,54.08-35.69,3.25-2.06.3-7.19-3-5.18-24.71,15-49.8,29.56-75.63,42.5-15.8,7.91-33.21,17-50.76,7.82-3.8-2-9.32-5.86-9.34-10.72,0-5.09,7.76-9.5,11.36-11.93,6.35-4.28,12.7-8.58,19.23-12.57,33.41-20.42,68.87-37.69,104-54.94q20.06-9.85,40.22-19.45c2.88-1.37,5.75-2.81,8.66-4.1.95-.42-.94.25.87-.28,12.6-3.74,25.09-8,37.62-11.94L538.14,185l97.47-30.92,98-31.1,78.71-25c13.54-4.3,27.12-8.47,40.62-12.89l1.84-.59c3.67-1.16,2.1-7-1.59-5.78Z"/><path d="M519.62,372.1s2.65-.76,3.78-1c.76-.16,3.77-.63,3.77-.63l-3.11,3.5Z"/><path d="M967.87,746.61H638.5a3,3,0,0,0-3,3v20.15c0,3.86,6,3.86,6,0V749.61l-3,3H967.87c3.86,0,3.87-6,0-6Z"/><path d="M208.41,752.61H550.32c1.35,0,3.37.39,4.68,0a2.33,2.33,0,0,1,.59,0l-3-3v20.15c0,3.86,6,3.86,6,0V749.61a3,3,0,0,0-3-3h-333c-4.48,0-9.17-.41-13.63,0a5.8,5.8,0,0,1-.59,0c-3.86,0-3.87,6,0,6Z"/><line class="cls-3" x1="634.54" y1="797.96" x2="967.87" y2="797.96"/><line class="cls-4" x1="208.41" y1="797.96" x2="574.36" y2="797.96"/><line class="cls-5" x1="626.18" y1="826.31" x2="967.87" y2="826.31"/><line class="cls-5" x1="208.41" y1="826.31" x2="579.14" y2="826.31"/><line class="cls-3" x1="208.41" y1="854.66" x2="967.87" y2="854.66"/><line class="cls-6" x1="208.41" y1="883.01" x2="967.87" y2="883.01"/><line class="cls-5" x1="208.41" y1="911.36" x2="967.87" y2="911.36"/></svg>