<svg id="Layer_1" data-name="Layer 1" xmlns="http://www.w3.org/2000/svg" xmlns:xlink="http://www.w3.org/1999/xlink" viewBox="0 0 1280 1024"><defs><style>.cls-1{fill:none;}.cls-2{fill:#86c91a;}.cls-3{fill:#c5ff73;}.cls-4{fill:#fff;}.cls-5{clip-path:url(#clip-path);}.cls-6{clip-path:url(#clip-path-2);}</style><clipPath id="clip-path"><path class="cls-1" d="M1264.63,1673.87l-619.63.81V1039.5h635v619A15.37,15.37,0,0,1,1264.63,1673.87Z"/></clipPath><clipPath id="clip-path-2"><path class="cls-1" d="M619.63,1673.87,0,1674.68V1057.47c0-9.27,8.14-18,17.41-18H635v619A15.37,15.37,0,0,1,619.63,1673.87Z"/></clipPath></defs><polygon class="cls-2" points="694.61 859 673.51 901.49 692.29 910.81 695.92 903.5 753.57 912.42 763.19 893.05 772.8 873.69 730.86 833.15 734.49 825.84 715.71 816.51 694.61 859"/><path d="M753.57,915a2.69,2.69,0,0,1-.4,0l-55.76-8.63-2.78,5.6a2.62,2.62,0,0,1-1.51,1.32,2.6,2.6,0,0,1-2-.14l-18.78-9.32a2.61,2.61,0,0,1-1.18-3.5l21.1-42.49,2.34,1.16-2.34-1.16,21.1-42.49a2.61,2.61,0,0,1,1.51-1.31,2.64,2.64,0,0,1,2,.13l18.78,9.33a2.6,2.6,0,0,1,1.17,3.5L734,832.6l40.58,39.21a2.6,2.6,0,0,1,.52,3l-19.23,38.73A2.61,2.61,0,0,1,753.57,915Zm-57.65-14.14.4,0,55.76,8.63,17.54-35.31L729,835a2.59,2.59,0,0,1-.52-3l2.47-5-14.1-7L677,900.31l14.1,7,2.47-5A2.61,2.61,0,0,1,695.92,900.89Z"/><rect class="cls-3" x="553.99" y="774.28" width="136.89" height="136.89"/><path d="M690.88,913.78H554a2.61,2.61,0,0,1-2.61-2.61V774.28a2.61,2.61,0,0,1,2.61-2.61H690.88a2.61,2.61,0,0,1,2.61,2.61V911.17A2.61,2.61,0,0,1,690.88,913.78ZM556.6,908.56H688.27V776.89H556.6Z"/><path d="M623.76,518.5a2.57,2.57,0,0,1-1.82-4.38l66.42-66.42a2.57,2.57,0,1,1,3.64,3.63l-66.42,66.42A2.58,2.58,0,0,1,623.76,518.5Z"/><path d="M718.29,424a2.56,2.56,0,0,1-1.81-4.37l66-66a2.56,2.56,0,0,1,3.62,3.62l-66,66A2.56,2.56,0,0,1,718.29,424Z"/><path d="M622.6,588.39a2.61,2.61,0,0,1-2.61-2.61V448.65a2.61,2.61,0,0,1,5.22,0V585.78A2.61,2.61,0,0,1,622.6,588.39Z"/><path d="M1063.35,911a2.64,2.64,0,0,1-.78-.12L970,882.07a2.61,2.61,0,0,1,1.55-5l92.59,28.85a2.61,2.61,0,0,1-.78,5.1Z"/><path d="M910.11,914.16a2.61,2.61,0,0,1-1.21-4.92l121.43-63.74a2.61,2.61,0,0,1,2.42,4.63L911.33,913.86A2.56,2.56,0,0,1,910.11,914.16Z"/><path d="M468.09,870.87a2.61,2.61,0,0,1-1.22-4.92l66-34.66a2.61,2.61,0,0,1,2.43,4.62l-66,34.67A2.63,2.63,0,0,1,468.09,870.87Z"/><path d="M622.56,682.58a2.56,2.56,0,0,1-1.84-.76l-68.57-68.57a2.61,2.61,0,0,1,3.69-3.69l68.57,68.56a2.61,2.61,0,0,1-1.85,4.46Z"/><path d="M526.74,586.76a2.58,2.58,0,0,1-1.84-.76L389.52,450.62a2.61,2.61,0,0,1,3.69-3.69L528.59,582.31a2.61,2.61,0,0,1-1.85,4.45Z"/><path d="M622.44,751.15a2.61,2.61,0,0,1-2.61-2.61V611.4a2.61,2.61,0,1,1,5.22,0V748.54A2.61,2.61,0,0,1,622.44,751.15Z"/><path d="M296.69,843.23a2.61,2.61,0,0,1-1.85-.77l-30-30a2.61,2.61,0,1,1,3.69-3.69l30,30a2.62,2.62,0,0,1-1.85,4.46Z"/><path d="M296.57,911.8a2.61,2.61,0,0,1-2.61-2.61V772.05a2.61,2.61,0,0,1,5.22,0V909.19A2.61,2.61,0,0,1,296.57,911.8Z"/><path d="M622.44,425.64a2.61,2.61,0,0,1-2.61-2.61V285.89a2.61,2.61,0,1,1,5.22,0V423A2.61,2.61,0,0,1,622.44,425.64Z"/><path d="M809.64,906.91A2.61,2.61,0,0,1,807,904.3V767.16a2.62,2.62,0,0,1,5.23,0V904.3A2.61,2.61,0,0,1,809.64,906.91Z"/><path d="M876.72,853.53a2.61,2.61,0,0,1-2.61-2.61V775.53a2.61,2.61,0,0,1,5.22,0v75.39A2.61,2.61,0,0,1,876.72,853.53Z"/><path d="M622.44,807.05a2.61,2.61,0,0,1-2.61-2.61V774.28a2.61,2.61,0,1,1,5.22,0v30.16A2.61,2.61,0,0,1,622.44,807.05Z"/><polygon class="cls-2" points="622.44 804.44 575 804.44 575 825.4 583.16 825.4 600.81 881.01 622.44 881.01 644.06 881.01 661.71 825.4 669.88 825.4 669.88 804.44 622.44 804.44"/><path d="M644.06,883.62H600.81a2.61,2.61,0,0,1-2.48-1.82L581.25,828H575a2.61,2.61,0,0,1-2.61-2.61v-21a2.61,2.61,0,0,1,2.61-2.61h94.88a2.61,2.61,0,0,1,2.61,2.61v21a2.61,2.61,0,0,1-2.61,2.61h-6.26L646.55,881.8A2.62,2.62,0,0,1,644.06,883.62Zm-41.34-5.22h39.43l17.07-53.79a2.62,2.62,0,0,1,2.49-1.82h5.56V807.05H577.61v15.74h5.55a2.62,2.62,0,0,1,2.49,1.82Z"/><polygon class="cls-2" points="876.72 912.29 924.16 912.29 924.16 891.33 916 891.33 898.34 835.73 876.72 835.73 855.1 835.73 837.44 891.33 829.28 891.33 829.28 912.29 876.72 912.29"/><path class="cls-3" d="M924.16,914.9H829.28a2.61,2.61,0,0,1-2.61-2.61v-21a2.61,2.61,0,0,1,2.61-2.61h6.25l17.08-53.78a2.6,2.6,0,0,1,2.49-1.82h43.24a2.6,2.6,0,0,1,2.49,1.82l17.07,53.78h6.26a2.61,2.61,0,0,1,2.61,2.61v21A2.61,2.61,0,0,1,924.16,914.9Zm-92.27-5.22h89.66V893.94H916a2.61,2.61,0,0,1-2.48-1.82l-17.08-53.78H857l-17.08,53.78a2.6,2.6,0,0,1-2.49,1.82h-5.55Z"/><path d="M419.58,917.89a2.6,2.6,0,0,1-2.28-1.34l-17.63-31.61a2.62,2.62,0,0,1,.38-3.06l32.15-34.17-2.4-4.3a2.61,2.61,0,0,1,1-3.55l15.32-8.54a2.61,2.61,0,0,1,3.55,1l38.66,69.35a2.6,2.6,0,0,1-1,3.55L472,913.78a2.62,2.62,0,0,1-3.55-1l-2.39-4.3-46,9.37A2.29,2.29,0,0,1,419.58,917.89Zm-14.41-33.82,15.76,28.27,46-9.37a2.59,2.59,0,0,1,2.8,1.29l2.06,3.68,10.76-6-36.12-64.8-10.76,6,2.06,3.69a2.62,2.62,0,0,1-.38,3.06Z"/><path d="M528.13,751.33H391.24a2.61,2.61,0,0,1-2.61-2.61V611.83a2.61,2.61,0,0,1,2.61-2.61H528.13a2.61,2.61,0,0,1,2.61,2.61V748.72A2.61,2.61,0,0,1,528.13,751.33Zm-134.28-5.22H525.52V614.45H393.85Z"/><path d="M853.63,425.46H716.75a2.61,2.61,0,0,1-2.61-2.61V286a2.61,2.61,0,0,1,2.61-2.61H853.63a2.61,2.61,0,0,1,2.62,2.61V422.85A2.61,2.61,0,0,1,853.63,425.46Zm-134.27-5.22H851V288.57H719.36Z"/><path d="M1016.39,425.46H879.5a2.61,2.61,0,0,1-2.61-2.61V286a2.61,2.61,0,0,1,2.61-2.61h136.89A2.61,2.61,0,0,1,1019,286V422.85A2.61,2.61,0,0,1,1016.39,425.46Zm-134.28-5.22h131.67V288.57H882.11Z"/><path d="M853.63,588.52H716.75a2.61,2.61,0,0,1-2.61-2.61V449a2.61,2.61,0,0,1,2.61-2.61H853.63a2.61,2.61,0,0,1,2.62,2.61V585.91A2.61,2.61,0,0,1,853.63,588.52ZM719.36,583.3H851V451.63H719.36Z"/><path d="M528.13,588.39H391.24a2.61,2.61,0,0,1-2.61-2.61V448.9a2.61,2.61,0,0,1,2.61-2.61H528.13a2.61,2.61,0,0,1,2.61,2.61V585.78A2.61,2.61,0,0,1,528.13,588.39Zm-134.28-5.22H525.52V451.51H393.85Z"/><path d="M528.13,425.46H391.24a2.61,2.61,0,0,1-2.61-2.61V286a2.61,2.61,0,0,1,2.61-2.61H528.13a2.61,2.61,0,0,1,2.61,2.61V422.85A2.61,2.61,0,0,1,528.13,425.46Zm-134.28-5.22H525.52V288.57H393.85Z"/><path d="M690.88,425.52H554a2.61,2.61,0,0,1-2.61-2.61V286a2.61,2.61,0,0,1,2.61-2.61H690.88a2.61,2.61,0,0,1,2.61,2.61V422.91A2.61,2.61,0,0,1,690.88,425.52ZM556.6,420.3H688.27V288.63H556.6Z"/><path d="M690.88,262.76H554a2.61,2.61,0,0,1-2.61-2.61V123.26a2.61,2.61,0,0,1,2.61-2.61H690.88a2.61,2.61,0,0,1,2.61,2.61V260.15A2.61,2.61,0,0,1,690.88,262.76ZM556.6,257.54H688.27V125.87H556.6Z"/><path d="M690.88,751H554a2.61,2.61,0,0,1-2.61-2.61V611.53a2.61,2.61,0,0,1,2.61-2.62H690.88a2.61,2.61,0,0,1,2.61,2.62V748.41A2.61,2.61,0,0,1,690.88,751ZM556.6,745.8H688.27V614.14H556.6Z"/><path d="M690.88,588.27H554a2.61,2.61,0,0,1-2.61-2.61V448.77a2.61,2.61,0,0,1,2.61-2.61H690.88a2.61,2.61,0,0,1,2.61,2.61V585.66A2.61,2.61,0,0,1,690.88,588.27ZM556.6,583.05H688.27V451.38H556.6Z"/><path d="M365.13,588.27H228.25a2.61,2.61,0,0,1-2.62-2.61V448.77a2.61,2.61,0,0,1,2.62-2.61H365.13a2.61,2.61,0,0,1,2.61,2.61V585.66A2.61,2.61,0,0,1,365.13,588.27Zm-134.27-5.22H362.52V451.38H230.86Z"/><path class="cls-4" d="M482.43,714c-15.67,0-30-5.72-40.4-16.1-12.3-12.29-18-30-15.57-48.62a2.61,2.61,0,0,1,2.26-2.25,64,64,0,0,1,8.17-.53,57.37,57.37,0,0,1,40.43,16.08c12.29,12.58,18,30.3,15.58,48.64a2.6,2.6,0,0,1-2.25,2.25A64.82,64.82,0,0,1,482.43,714Z"/><path class="cls-2" d="M436.89,649.14a54.68,54.68,0,0,1,38.6,15.34c12.1,12.38,17,29.44,14.82,46.43a61.21,61.21,0,0,1-7.88.51c-14.26,0-28.26-5-38.56-15.33-12.2-12.2-17-29.58-14.82-46.44a60.94,60.94,0,0,1,7.84-.51m0-5.22h0a65.84,65.84,0,0,0-8.51.55,5.23,5.23,0,0,0-4.51,4.51c-2.5,19.41,3.44,37.93,16.31,50.8,10.87,10.87,25.88,16.86,42.25,16.86a68.05,68.05,0,0,0,8.55-.55,5.22,5.22,0,0,0,4.51-4.51c2.48-19.14-3.45-37.64-16.26-50.75l-.09-.09a59.94,59.94,0,0,0-42.24-16.82Z"/><path class="cls-2" d="M482.43,389.13c-15.67,0-30-5.72-40.4-16.1-12.3-12.29-18-30-15.57-48.62a2.6,2.6,0,0,1,2.26-2.25,64,64,0,0,1,8.17-.53,57.37,57.37,0,0,1,40.43,16.08c12.29,12.58,18,30.29,15.58,48.64a2.6,2.6,0,0,1-2.25,2.25A64.82,64.82,0,0,1,482.43,389.13Z"/><path d="M436.89,324.24a54.71,54.71,0,0,1,38.6,15.33c12.1,12.39,17,29.45,14.82,46.44a61.21,61.21,0,0,1-7.88.51c-14.26,0-28.26-5-38.56-15.33-12.2-12.2-17-29.58-14.82-46.44a60.94,60.94,0,0,1,7.84-.51m0-5.22h0a65.84,65.84,0,0,0-8.51.55,5.22,5.22,0,0,0-4.51,4.51c-2.5,19.41,3.44,37.93,16.31,50.8,10.87,10.87,25.88,16.86,42.25,16.86a68.05,68.05,0,0,0,8.55-.55,5.22,5.22,0,0,0,4.51-4.51C498,367.54,492,349,479.23,335.93l-.09-.09A59.94,59.94,0,0,0,436.9,319Z"/><path class="cls-2" d="M296.69,544.82c-17.26,0-32.94-8.89-43.32-22.36,10.46-13.56,26-22.15,43.32-22.35,17.32.2,32.86,8.78,43.32,22.35C329.62,535.93,313.94,544.82,296.69,544.82Z"/><path class="cls-2" d="M784,540.5c-16.83-.36-32.62-8.69-43.32-22.86a2.6,2.6,0,0,1,0-3.19c11-14,26.79-22,43.3-22h.5c16.69.16,32.5,8.5,43.36,22.87a2.61,2.61,0,0,1,0,3.18c-11,14-26.94,22-43.78,22H784Z"/><path class="cls-4" d="M784.05,495h.47c16.54.16,31.48,8.83,41.31,21.83-10.15,12.9-25.13,21-41.73,21-16.59-.36-31.41-8.72-41.3-21.83,10-12.69,24.9-21,41.25-21m0-5.22h0c-17.32,0-33.85,8.39-45.36,23a5.22,5.22,0,0,0-.06,6.37c11.19,14.81,27.72,23.52,45.36,23.9h.12c17.64,0,34.34-8.42,45.82-23a5.22,5.22,0,0,0,.06-6.38c-11.35-15-27.91-23.73-45.42-23.9Z"/><path class="cls-2" d="M622.47,238.87a2.34,2.34,0,0,1-1.42-.48c-15.28-11.78-24-28.8-24-46.68s8.77-34.9,24-46.68a2.32,2.32,0,0,1,2.85,0c15.07,11.62,23.83,28.62,24,46.66-.21,18.08-9,35.09-24,46.7A2.35,2.35,0,0,1,622.47,238.87Z"/><path class="cls-4" d="M622.47,146.87c14,10.82,22.93,26.92,23.14,44.84-.21,17.93-9.09,34-23.14,44.84-13.94-10.75-23.14-27-23.14-44.84s9.21-34.09,23.14-44.84m0-4.66a4.69,4.69,0,0,0-2.84,1c-15.86,12.23-25,29.92-25,48.53s9.09,36.3,25,48.52a4.66,4.66,0,0,0,5.69,0c15.64-12,24.73-29.71,24.95-48.46v-.11c-.22-18.75-9.31-36.42-24.95-48.48a4.7,4.7,0,0,0-2.85-1Z"/><path class="cls-3" d="M947.94,374c-12.71,0-24.8-6.22-33.17-17.07a2.63,2.63,0,0,1,0-3.19c8.25-10.7,20.33-16.92,33.15-17.06,12.87.14,25,6.36,33.2,17.06a2.63,2.63,0,0,1,0,3.19C972.76,367.82,960.66,374,947.94,374Z"/><path class="cls-2" d="M948,339.33c12.43.14,23.59,6.3,31.1,16.05-7.46,9.67-18.72,16.05-31.11,16.05s-23.65-6.39-31.1-16.05c7.51-9.74,18.67-15.91,31.11-16.05m0-5.23h-.06c-13.62.15-26.45,6.74-35.19,18.08a5.24,5.24,0,0,0,0,6.37c8.87,11.5,21.71,18.09,35.24,18.09s26.38-6.59,35.25-18.09a5.24,5.24,0,0,0,0-6.37c-8.74-11.33-21.56-17.93-35.18-18.08Z"/><path d="M970.29,882.18a2.6,2.6,0,0,1-1.65-.58,25.74,25.74,0,0,1,1.06-41.83,2.61,2.61,0,0,1,3.19.08A26.49,26.49,0,0,1,983.1,861h0a26.49,26.49,0,0,1-11.27,20.64A2.58,2.58,0,0,1,970.29,882.18Zm.87-36.9a20.33,20.33,0,0,0-.79,30.89,21,21,0,0,0,7.51-15.27h0A21,21,0,0,0,971.16,845.28Z"/><path class="cls-2" d="M1057.91,891.64c-10.85,6-23.8,5.82-35,1,1.87-12.16,8.68-22.94,19.5-29.07,11-5.88,23.71-5.86,35-.95C1075.54,874.64,1068.76,885.66,1057.91,891.64Z"/><path class="cls-2" d="M350,911c-12.39,0-23.65-6.39-31.11-16.06,7.51-9.74,18.68-15.9,31.11-16,12.44.15,23.59,6.31,31.1,16C373.68,904.61,362.42,911,350,911Z"/><path class="cls-2" d="M303.23,879.56c10.18-7.07,23.07-8.24,34.71-4.55-.62,12.29-6.27,23.72-16.41,30.93-10.3,7-23,8.27-34.7,4.54C287.44,898.28,293.05,886.62,303.23,879.56Z"/><path class="cls-3" d="M299.75,915.12A45.34,45.34,0,0,1,286,913a2.62,2.62,0,0,1-1.82-2.62c.69-13.68,7.07-25.69,17.52-32.94h0c10.45-7.25,23.93-9,37-4.88a2.6,2.6,0,0,1,1.82,2.62c-.68,13.49-7.06,25.49-17.5,32.91A41.39,41.39,0,0,1,299.75,915.12Zm-10.16-6.56a35.36,35.36,0,0,0,45.59-31.63c-10.87-2.89-21.87-1.19-30.46,4.77h0C296.13,887.66,290.69,897.37,289.59,908.56Z"/><path class="cls-2" d="M350,853.21c11.62,4.28,20,14.17,23.62,25.82-10.41,6.54-23,8.47-34.74,4.3-11.61-4.44-19.95-14.08-23.63-25.83C325.64,851,338.41,848.92,350,853.21Z"/><path class="cls-3" d="M351.69,888.13a40.63,40.63,0,0,1-13.64-2.34c-12-4.6-21.21-14.62-25.25-27.51a2.61,2.61,0,0,1,1.11-3c11.6-7.28,25.1-8.93,37-4.53h0c11.93,4.4,21.12,14.42,25.21,27.49a2.6,2.6,0,0,1-1.1,3A44,44,0,0,1,351.69,888.13Zm-33.24-29.46a35.35,35.35,0,0,0,52.06,19.2c-3.87-10.56-11.57-18.6-21.38-22.21S328.24,853.15,318.45,858.67Z"/><path class="cls-2" d="M883.69,815.59a35,35,0,0,1-4.33-.28,2.61,2.61,0,0,1-2.25-2.26,30.8,30.8,0,0,1,8.24-25.72,30.41,30.41,0,0,1,21.45-8.57,33.1,33.1,0,0,1,4.32.28,2.61,2.61,0,0,1,2.25,2.25c1.27,9.84-1.74,19.23-8.26,25.75A30,30,0,0,1,883.69,815.59Z"/><path d="M906.8,781.37a31.41,31.41,0,0,1,4,.26c1.11,8.56-1.33,17.38-7.52,23.57A27.44,27.44,0,0,1,883.69,813a31.45,31.45,0,0,1-4-.26,28.19,28.19,0,0,1,7.52-23.57,27.73,27.73,0,0,1,19.58-7.78m0-5.22a33,33,0,0,0-23.23,9.27l-.08.08a33.4,33.4,0,0,0-9,27.89,5.2,5.2,0,0,0,4.51,4.5,36.35,36.35,0,0,0,4.66.31A32.54,32.54,0,0,0,907,808.89c7.11-7.1,10.39-17.28,9-27.93a5.22,5.22,0,0,0-4.51-4.51,36.3,36.3,0,0,0-4.65-.3Z"/><path class="cls-4" d="M777.05,834.92a33,33,0,0,1-4.32-.28,2.61,2.61,0,0,1-2.26-2.25c-1.27-9.84,1.74-19.22,8.27-25.75a29.94,29.94,0,0,1,21.42-8.54,33.25,33.25,0,0,1,4.33.28,2.61,2.61,0,0,1,2.25,2.25,30.83,30.83,0,0,1-8.25,25.73A30.36,30.36,0,0,1,777.05,834.92Z"/><path class="cls-2" d="M800.16,800.71a31.45,31.45,0,0,1,4,.26,28.16,28.16,0,0,1-7.52,23.56,27.72,27.72,0,0,1-19.58,7.78,31.66,31.66,0,0,1-4-.25c-1.1-8.56,1.33-17.38,7.53-23.57a27.42,27.42,0,0,1,19.57-7.78m0-5.22h0a32.58,32.58,0,0,0-23.27,9.31c-7.1,7.1-10.38,17.28-9,27.93a5.2,5.2,0,0,0,4.5,4.5,36.59,36.59,0,0,0,4.66.31,33,33,0,0,0,23.23-9.27l.08-.09a33.38,33.38,0,0,0,9-27.88,5.22,5.22,0,0,0-4.51-4.51,36.46,36.46,0,0,0-4.66-.3Z"/><path class="cls-4" d="M493.09,854.13a2.61,2.61,0,0,1-2.24-1.26c-5.1-8.51-6.09-18.32-2.72-26.91s10.77-15.1,20.29-17.87a2.62,2.62,0,0,1,.73-.1,2.59,2.59,0,0,1,2.24,1.27A29.58,29.58,0,0,1,493.82,854,2.67,2.67,0,0,1,493.09,854.13Z"/><path d="M509.15,810.6a27,27,0,0,1-16.06,40.92c-4.44-7.4-5.73-16.46-2.53-24.61s10.31-13.9,18.59-16.31m0-5.22a5.29,5.29,0,0,0-1.46.2c-10.31,3-18.32,10.08-22,19.43s-2.61,20,2.91,29.2a5.26,5.26,0,0,0,5.93,2.33,33.36,33.36,0,0,0,22-19.37l0-.11a33.44,33.44,0,0,0-2.93-29.15,5.22,5.22,0,0,0-4.48-2.53Z"/><path class="cls-2" d="M876.72,774.39a2.65,2.65,0,0,1-1.6-.55,29.58,29.58,0,0,1,0-48.1,2.64,2.64,0,0,1,1.6-.54,2.61,2.61,0,0,1,1.59.54c7.86,6.06,12.36,14.82,12.36,24s-4.5,18-12.36,24.05A2.62,2.62,0,0,1,876.72,774.39Z"/><path d="M876.72,727.81c6.83,5.27,11.34,13.23,11.34,22s-4.51,16.72-11.34,22a27,27,0,0,1,0-44m0-5.22a5.23,5.23,0,0,0-3.19,1.08,33.44,33.44,0,0,0-13.38,26.06v.12a33.44,33.44,0,0,0,13.38,26.06,5.21,5.21,0,0,0,6.38,0c8.5-6.56,13.37-16.08,13.37-26.12s-4.87-19.56-13.38-26.11a5.15,5.15,0,0,0-3.18-1.09Z"/><path d="M785.19,357a2.61,2.61,0,0,1-1.85-4.45l68.45-68.45a2.61,2.61,0,0,1,3.69,3.69L787,356.25A2.6,2.6,0,0,1,785.19,357Z"/><path d="M853.63,358H784.31a2.61,2.61,0,1,1,0-5.22h69.32a2.61,2.61,0,1,1,0,5.22Z"/><path d="M463.2,525.08H393.88a2.61,2.61,0,0,1,0-5.22H463.2a2.61,2.61,0,0,1,0,5.22Z"/><circle class="cls-2" cx="217.83" cy="877.96" r="18.95"/><path d="M238.69,878.19a20.86,20.86,0,1,0-21.12,20.6,21.9,21.9,0,0,0,4-.33c9.89-1.73,16.82-10.44,17.16-20.27.08-2.45-3.72-2.45-3.8,0A17.26,17.26,0,0,1,217.61,895a17.06,17.06,0,1,1,17.28-16.83C234.91,880.66,238.71,880.66,238.69,878.19Z"/><ellipse class="cls-4" cx="209.08" cy="861.04" rx="8.58" ry="6.08" transform="translate(-654.35 1060.04) rotate(-89.33)"/><path d="M216.12,861.12c-.12-4-2.07-9.56-6.93-9.6S202.1,857,202.06,861s2,9.23,6.58,9.57c5.06.38,7.26-5.32,7.48-9.43.06-1.22-1.84-1.22-1.9,0-.15,2.91-1.48,7.65-5.23,7.56s-5.07-4.77-5-7.7,1.57-7.65,5.23-7.56,4.95,4.77,5,7.7C214.26,862.34,216.16,862.35,216.12,861.12Z"/><ellipse class="cls-4" cx="226.61" cy="861.24" rx="8.58" ry="6.08" transform="translate(-637.23 1077.76) rotate(-89.33)"/><path d="M233.65,861.33c-.12-4-2.08-9.56-6.93-9.61s-7.1,5.45-7.14,9.46,2,9.23,6.58,9.57c5.07.38,7.26-5.31,7.49-9.42.06-1.22-1.84-1.22-1.9,0-.16,2.91-1.49,7.64-5.24,7.56s-5.06-4.77-5-7.71,1.58-7.64,5.24-7.56,4.94,4.77,5,7.71A1,1,0,0,0,233.65,861.33Z"/><path d="M200.64,869.31a31.89,31.89,0,0,0-34.48.7c-2,1.37-.11,4.67,1.9,3.28a28.16,28.16,0,0,1,30.63-.69c2.09,1.27,4-2,1.9-3.29Z"/><path d="M200.48,881.83a32.6,32.6,0,0,0-20-2.91c-6,1.08-11.53,5.16-15.2,10-1.48,1.94,1.82,3.84,3.28,1.9-.43.58.59-.68.82-.94a30.2,30.2,0,0,1,2.53-2.53,19.74,19.74,0,0,1,9.56-4.82,28.66,28.66,0,0,1,17.1,2.54c2.17,1.13,4.09-2.16,1.9-3.28Z"/><path d="M207.07,891.38c-12.27-3.07-25.15,6.7-29.35,17.82-.87,2.29,2.8,3.28,3.66,1,3.41-9,14.49-17.71,24.7-15.17,2.38.6,3.39-3.07,1-3.66Z"/><path d="M237.5,873.05a31.12,31.12,0,0,1,32.37,1.47c2,1.4,3.93-1.9,1.9-3.28-10.6-7.31-24.93-7.69-36.19-1.49-2.14,1.18-.23,4.46,1.9,3.28Z"/><path d="M237.33,885.55a32.25,32.25,0,0,1,18.17-2.09,21.22,21.22,0,0,1,9.71,4.8,29,29,0,0,1,2.67,2.53c.23.24,1.51,1.79,1.08,1.22,1.46,1.9,4.77,0,3.28-1.9-3.8-5-9.5-9.16-15.73-10.34a35.93,35.93,0,0,0-21.09,2.47c-2.22,1-.29,4.3,1.9,3.28Z"/><path d="M229.24,895.3c10.48-2.23,22.18,6.2,25.74,15.84.84,2.27,4.52,1.27,3.67-1-4.31-11.63-17.79-21.16-30.41-18.46-2.39.5-1.38,4.17,1,3.66Z"/><ellipse cx="209.04" cy="864.98" rx="4.54" ry="3.22" transform="translate(-658.33 1063.89) rotate(-89.33)"/><ellipse cx="226.57" cy="864.47" rx="4.54" ry="3.22" transform="translate(-640.49 1080.91) rotate(-89.33)"/><g class="cls-5"><path d="M954,1103.11a2.8,2.8,0,0,1-2.8-2.8V953.17a2.8,2.8,0,0,1,5.6,0v147.14A2.8,2.8,0,0,1,954,1103.11Z"/><path d="M1202,1102.91H1055.16a2.8,2.8,0,0,1-2.8-2.8V953.24a2.8,2.8,0,0,1,2.8-2.8H1202a2.8,2.8,0,0,1,2.8,2.8v146.87A2.8,2.8,0,0,1,1202,1102.91Zm-144.08-5.6h141.28V956H1058Z"/><path d="M1376.67,1102.91H1229.79a2.8,2.8,0,0,1-2.8-2.8V953.24a2.8,2.8,0,0,1,2.8-2.8h146.88a2.8,2.8,0,0,1,2.8,2.8v146.87A2.8,2.8,0,0,1,1376.67,1102.91Zm-144.08-5.6h141.27V956H1232.59Z"/><path d="M852.79,1102.91H705.91a2.8,2.8,0,0,1-2.8-2.8V953.24a2.8,2.8,0,0,1,2.8-2.8H852.79a2.8,2.8,0,0,1,2.8,2.8v146.87A2.8,2.8,0,0,1,852.79,1102.91Zm-144.08-5.6H850V956H708.71Z"/><path d="M1027.41,1103H880.54a2.8,2.8,0,0,1-2.8-2.8V953.3a2.8,2.8,0,0,1,2.8-2.8h146.87a2.8,2.8,0,0,1,2.8,2.8v146.88A2.8,2.8,0,0,1,1027.41,1103Zm-144.07-5.6h141.27V956.1H883.34Z"/><path class="cls-2" d="M803.76,1063.94c-16.82,0-32.22-6.14-43.36-17.27-13.19-13.19-19.27-32.21-16.7-52.17a2.81,2.81,0,0,1,2.42-2.42,68.24,68.24,0,0,1,8.78-.57,61.57,61.57,0,0,1,43.37,17.25c13.19,13.51,19.27,32.51,16.72,52.19a2.81,2.81,0,0,1-2.42,2.42A70.43,70.43,0,0,1,803.76,1063.94Z"/><path d="M754.9,994.31a58.66,58.66,0,0,1,41.41,16.46c13,13.29,18.27,31.59,15.9,49.82a66.6,66.6,0,0,1-8.45.55c-15.31,0-30.32-5.4-41.38-16.45-13.09-13.1-18.24-31.74-15.9-49.83a64.46,64.46,0,0,1,8.42-.55m0-5.6h0a72,72,0,0,0-9.14.59,5.61,5.61,0,0,0-4.84,4.84c-2.68,20.83,3.69,40.7,17.5,54.51,11.67,11.66,27.77,18.09,45.34,18.09a70.6,70.6,0,0,0,9.17-.6,5.59,5.59,0,0,0,4.84-4.83c2.66-20.53-3.7-40.38-17.45-54.46l-.1-.09a64.31,64.31,0,0,0-45.32-18Z"/><path d="M1128.6,1029.48a2.81,2.81,0,0,1-2-4.79l73.44-73.43a2.8,2.8,0,0,1,4,4l-73.44,73.44A2.82,2.82,0,0,1,1128.6,1029.48Z"/></g><g class="cls-6"><path d="M309,1103.11a2.8,2.8,0,0,1-2.8-2.8V953.17a2.8,2.8,0,1,1,5.6,0v147.14A2.8,2.8,0,0,1,309,1103.11Z"/><path d="M557,1102.91H410.16a2.8,2.8,0,0,1-2.8-2.8V953.24a2.8,2.8,0,0,1,2.8-2.8H557a2.8,2.8,0,0,1,2.8,2.8v146.87A2.8,2.8,0,0,1,557,1102.91ZM413,1097.31H554.24V956H413Z"/><path d="M731.67,1102.91H584.79a2.8,2.8,0,0,1-2.8-2.8V953.24a2.8,2.8,0,0,1,2.8-2.8H731.67a2.8,2.8,0,0,1,2.8,2.8v146.87A2.8,2.8,0,0,1,731.67,1102.91Zm-144.08-5.6H728.86V956H587.59Z"/><path d="M207.79,1102.91H60.91a2.8,2.8,0,0,1-2.8-2.8V953.24a2.8,2.8,0,0,1,2.8-2.8H207.79a2.8,2.8,0,0,1,2.8,2.8v146.87A2.8,2.8,0,0,1,207.79,1102.91Zm-144.08-5.6H205V956H63.71Z"/><path d="M382.41,1103H235.54a2.8,2.8,0,0,1-2.8-2.8V953.3a2.8,2.8,0,0,1,2.8-2.8H382.41a2.8,2.8,0,0,1,2.8,2.8v146.88A2.8,2.8,0,0,1,382.41,1103Zm-144.07-5.6H379.61V956.1H238.34Z"/><path class="cls-4" d="M158.76,1063.94c-16.82,0-32.22-6.14-43.36-17.27-13.19-13.19-19.27-32.21-16.7-52.17a2.81,2.81,0,0,1,2.42-2.42,68.24,68.24,0,0,1,8.78-.57,61.57,61.57,0,0,1,43.37,17.25c13.19,13.51,19.27,32.51,16.72,52.19a2.81,2.81,0,0,1-2.42,2.42A70.43,70.43,0,0,1,158.76,1063.94Z"/><path d="M109.9,994.31a58.66,58.66,0,0,1,41.41,16.46c13,13.29,18.27,31.59,15.9,49.82a66.6,66.6,0,0,1-8.45.55c-15.31,0-30.32-5.4-41.38-16.45-13.09-13.1-18.24-31.74-15.9-49.83a64.46,64.46,0,0,1,8.42-.55m0-5.6h0a72,72,0,0,0-9.14.59,5.61,5.61,0,0,0-4.84,4.84c-2.68,20.83,3.69,40.7,17.5,54.51,11.67,11.66,27.77,18.09,45.34,18.09a70.6,70.6,0,0,0,9.17-.6,5.59,5.59,0,0,0,4.84-4.83c2.66-20.53-3.7-40.38-17.45-54.46l-.1-.09a64.31,64.31,0,0,0-45.32-18Z"/><path d="M483.6,1029.48a2.81,2.81,0,0,1-2-4.79l73.44-73.43a2.8,2.8,0,0,1,4,4l-73.44,73.44A2.82,2.82,0,0,1,483.6,1029.48Z"/></g></svg>