<svg id="Layer_1" data-name="Layer 1" xmlns="http://www.w3.org/2000/svg" xmlns:xlink="http://www.w3.org/1999/xlink" viewBox="0 0 215.43 119.06"><defs><style>.cls-1{fill:none;}.cls-2{fill:#151616;}.cls-3{clip-path:url(#clip-path);}.cls-4{fill:#fff;}</style><clipPath id="clip-path" transform="translate(0 0)"><rect class="cls-1" width="215.43" height="119.06"/></clipPath></defs><title>blok_logo</title><rect class="cls-2" width="215.43" height="119.06"/><g class="cls-3"><path class="cls-4" d="M58.54,74.89a5.7,5.7,0,0,0,4.32-1.61,5.93,5.93,0,0,0,0-8,5.72,5.72,0,0,0-4.28-1.61H49V74.89Zm-.64-20.57A5.51,5.51,0,0,0,62,52.88a5,5,0,0,0,1.43-3.71A4.88,4.88,0,0,0,62,45.56a5.57,5.57,0,0,0-4.11-1.39H49V54.31ZM36.07,84a1.71,1.71,0,0,1-.54-1.25V36.38a1.86,1.86,0,0,1,.5-1.32,1.68,1.68,0,0,1,1.29-.54H59.39q9.07,0,13.5,3.71t4.43,10.57a9.79,9.79,0,0,1-1.82,5.93,11.75,11.75,0,0,1-4,3.64,11.52,11.52,0,0,1,4.93,4.25,11.68,11.68,0,0,1,2,6.68q0,7.22-4.75,11.22T60,84.53H37.32A1.71,1.71,0,0,1,36.07,84" transform="translate(0 0)"/><path class="cls-4" d="M83.22,84a1.67,1.67,0,0,1-.54-1.28V35.6a1.67,1.67,0,0,1,.54-1.28,1.86,1.86,0,0,1,1.32-.5h8.93a1.71,1.71,0,0,1,1.78,1.79V82.74a1.77,1.77,0,0,1-.5,1.25,1.68,1.68,0,0,1-1.28.54H84.54a1.86,1.86,0,0,1-1.32-.5" transform="translate(0 0)"/><path class="cls-4" d="M123,74.42a10,10,0,0,0,1.64-5.61c0-.48.07-1.43.07-2.86s0-2.38-.07-2.86A10.06,10.06,0,0,0,123,57.53a6,6,0,0,0-8.72,0,10,10,0,0,0-1.64,5.57L112.61,66l.07,2.86a10,10,0,0,0,1.64,5.61,6.12,6.12,0,0,0,8.72,0m-18.18,6.64q-4.82-4.18-5.25-11.9-.07-.93-.07-3.21c0-1.52,0-2.6.07-3.21Q100,55.17,105,50.92t13.68-4.25q8.71,0,13.68,4.25t5.39,11.82c.09,1.24.14,2.31.14,3.21s0,2-.14,3.21q-.43,7.72-5.25,11.9t-13.82,4.18q-9,0-13.82-4.18" transform="translate(0 0)"/><path class="cls-4" d="M142.72,84a1.68,1.68,0,0,1-.54-1.28V35.6a1.68,1.68,0,0,1,.54-1.28,1.87,1.87,0,0,1,1.32-.5h8.71a1.71,1.71,0,0,1,1.79,1.79V59.46L164,48.6l.53-.5a2.89,2.89,0,0,1,.82-.54,2.82,2.82,0,0,1,1.07-.18h10.07a1.52,1.52,0,0,1,1.11.46,1.61,1.61,0,0,1,.46,1.18,1.58,1.58,0,0,1-.5,1.14L165,64,179.4,81.81a1.92,1.92,0,0,1,.5,1.07,1.59,1.59,0,0,1-1.64,1.64H167.9a2.7,2.7,0,0,1-1.39-.29,6.45,6.45,0,0,1-1.11-.93L154.54,69.88V82.74A1.77,1.77,0,0,1,154,84a1.69,1.69,0,0,1-1.29.54H144a1.86,1.86,0,0,1-1.32-.5" transform="translate(0 0)"/></g></svg>