<?xml version="1.0" encoding="UTF-8"?>
<svg width="550px" height="115px" viewBox="0 0 550 115" version="1.1" xmlns="http://www.w3.org/2000/svg" xmlns:xlink="http://www.w3.org/1999/xlink">
    <g id="Page-1" stroke="none" stroke-width="1" fill="none" fill-rule="evenodd">
        <g id="il-logo-fi-rgb" fill="#303193">
            <g id="brandmark">
                <path d="M57.1,114.33 C25.84,114.33 0.41,88.89 0.41,57.63 C0.41,26.37 25.84,0.94 57.1,0.94 C88.36,0.94 113.79,26.37 113.79,57.63 C113.8,88.9 88.36,114.33 57.1,114.33 Z M57.1,5.5 C28.35,5.5 4.96,28.89 4.96,57.63 C4.96,86.38 28.35,109.77 57.1,109.77 C85.85,109.77 109.24,86.38 109.24,57.63 C109.24,28.89 85.85,5.5 57.1,5.5 Z" id="fill-01" fill-rule="nonzero"></path>
                <path d="M34.11,108.15 L33.09,104.44 C41.41,102.14 48.73,97.72 54.54,91.87 C52.43,89.42 50.54,86.78 48.91,83.98 C41.95,92.27 31.76,97.8 20.24,98.56 L19.99,94.72 C30.99,94 40.64,88.48 46.95,80.29 C45.13,76.5 43.75,72.48 42.88,68.3 C38.58,79.51 27.7,87.49 14.99,87.49 C13.46,87.49 11.93,87.37 10.44,87.14 L11.03,83.34 C12.32,83.54 13.65,83.64 14.99,83.64 C29.33,83.64 41,71.97 41,57.63 C41,43.29 29.33,31.62 14.99,31.62 C13.66,31.62 12.33,31.72 11.03,31.92 L10.44,28.12 C11.93,27.89 13.46,27.77 14.99,27.77 C27.7,27.77 38.58,35.76 42.88,46.97 C43.76,42.79 45.14,38.76 46.97,34.97 C40.61,26.7 30.83,21.17 19.69,20.53 L19.91,16.69 C31.59,17.36 41.91,22.9 48.94,31.28 C50.57,28.49 52.45,25.86 54.55,23.41 C48.81,17.61 41.58,13.22 33.39,10.89 L34.44,7.19 C43.23,9.68 50.99,14.38 57.17,20.59 C63.35,14.39 71.11,9.69 79.9,7.19 L80.95,10.89 C72.75,13.21 65.52,17.61 59.78,23.41 C61.88,25.85 63.76,28.49 65.39,31.28 C72.41,22.91 82.73,17.36 94.42,16.69 L94.64,20.53 C83.49,21.17 73.72,26.7 67.36,34.97 C69.19,38.77 70.57,42.8 71.45,46.98 C75.75,35.76 86.63,27.77 99.34,27.77 C100.87,27.77 102.4,27.89 103.89,28.12 L103.3,31.92 C102.01,31.72 100.68,31.62 99.35,31.62 C85.01,31.62 73.34,43.29 73.34,57.63 C73.34,71.97 85.01,83.64 99.35,83.64 C100.68,83.64 102.01,83.54 103.3,83.34 L103.89,87.14 C102.4,87.37 100.87,87.49 99.34,87.49 C86.63,87.49 75.75,79.5 71.45,68.29 C70.58,72.47 69.2,76.5 67.38,80.29 C73.69,88.48 83.34,94 94.34,94.72 L94.09,98.56 C82.57,97.8 72.38,92.28 65.42,83.98 C63.79,86.78 61.9,89.42 59.79,91.88 C65.6,97.73 72.92,102.15 81.24,104.45 L80.22,108.16 C71.29,105.69 63.43,100.97 57.18,94.7 C50.9,100.96 43.04,105.68 34.11,108.15 Z M51.43,80.63 C53.04,83.62 54.96,86.43 57.14,89.01 C59.33,86.42 61.24,83.61 62.85,80.63 C60.29,76.86 58.33,72.64 57.14,68.14 C55.95,72.65 54,76.86 51.43,80.63 Z M49.49,38.71 C46.99,44.58 45.62,51 45.62,57.64 C45.62,64.29 46.98,70.69 49.48,76.56 C52.78,71 54.68,64.52 54.68,57.64 C54.67,50.74 52.79,44.27 49.49,38.71 Z M64.81,38.71 C61.51,44.27 59.63,50.74 59.63,57.64 C59.63,64.52 61.52,71 64.83,76.56 C67.32,70.7 68.68,64.29 68.68,57.64 C68.68,51 67.31,44.58 64.81,38.71 Z M51.45,34.63 C54.01,38.39 55.95,42.6 57.15,47.11 C58.35,42.61 60.29,38.4 62.85,34.63 C61.24,31.65 59.33,28.85 57.15,26.28 C54.97,28.86 53.06,31.66 51.45,34.63 Z M103.9,78.43 C92.46,78.43 83.16,69.13 83.16,57.69 C83.16,46.25 92.47,36.95 103.9,36.95 C105.38,36.95 106.86,37.11 108.28,37.42 L107.47,41.18 C106.31,40.93 105.11,40.8 103.9,40.8 C94.58,40.8 87,48.38 87,57.7 C87,67.02 94.58,74.6 103.9,74.6 C105.06,74.6 106.21,74.49 107.31,74.26 L108.09,78.03 C106.73,78.29 105.32,78.43 103.9,78.43 Z M10.4,78.43 C8.98,78.43 7.57,78.29 6.22,78.01 L7,74.24 C8.09,74.47 9.24,74.58 10.4,74.58 C19.72,74.58 27.3,67 27.3,57.68 C27.3,48.36 19.72,40.78 10.4,40.78 C9.19,40.78 7.99,40.91 6.83,41.16 L6.02,37.4 C7.45,37.09 8.92,36.93 10.4,36.93 C21.84,36.93 31.15,46.24 31.15,57.67 C31.15,69.12 21.84,78.43 10.4,78.43 Z M109.14,70.85 C101.88,70.85 95.98,64.94 95.98,57.69 C95.98,50.43 101.88,44.53 109.14,44.53 C109.44,44.53 109.73,44.54 110.02,44.56 L109.78,48.4 C109.57,48.39 109.35,48.38 109.13,48.38 C103.99,48.38 99.82,52.56 99.82,57.7 C99.82,62.84 104,67.02 109.13,67.02 L109.57,67.01 L109.57,70.86 L109.14,70.85 Z M5.16,70.85 L4.72,70.84 L4.72,67 L5.16,67.01 C10.3,67.01 14.47,62.83 14.47,57.69 C14.47,52.55 10.29,48.37 5.16,48.37 C4.94,48.37 4.73,48.38 4.51,48.39 L4.27,44.55 C4.56,44.53 4.86,44.52 5.15,44.52 C12.41,44.52 18.31,50.42 18.31,57.68 C18.32,64.95 12.41,70.85 5.16,70.85 Z" id="fill-02" fill-rule="nonzero"></path>
                <rect id="fill-03" x="2.7" y="55.46" width="108.91" height="4.35"></rect>
            </g>
            <g id="logotype" transform="translate(139.000000, 45.000000)">
                <polygon id="Path" points="0.3 23.98 0.3 1.3 5.29 1.3 5.29 23.98"></polygon>
                <polygon id="Path" points="14.2 23.98 14.2 1.3 19.19 1.3 19.19 19.44 30.5 19.44 30.5 23.98"></polygon>
                <polygon id="Path" points="55.22 23.98 55.22 9.17 48.84 18.86 48.71 18.86 42.39 9.27 42.39 23.98 37.5 23.98 37.5 1.3 42.88 1.3 48.84 10.89 54.8 1.3 60.18 1.3 60.18 23.98"></polygon>
                <path d="M85.74,23.98 L83.67,18.89 L74.08,18.89 L72.01,23.98 L66.92,23.98 L76.64,1.14 L81.24,1.14 L90.96,23.98 L85.74,23.98 Z M78.87,7.13 L75.86,14.48 L81.89,14.48 L78.87,7.13 Z" id="Shape" fill-rule="nonzero"></path>
                <polygon id="Path" points="105.05 5.9 105.05 23.98 100.06 23.98 100.06 5.9 93.16 5.9 93.16 1.3 111.95 1.3 111.95 5.9"></polygon>
                <polygon id="Path" points="119.25 23.98 119.25 1.3 124.24 1.3 124.24 23.98"></polygon>
                <polygon id="Path" points="133.15 23.98 133.15 1.3 150.26 1.3 150.26 5.74 138.1 5.74 138.1 10.34 148.79 10.34 148.79 14.78 138.1 14.78 138.1 19.54 150.41 19.54 150.41 23.98"></polygon>
                <polygon id="Path" points="168.37 5.9 168.37 23.98 163.38 23.98 163.38 5.9 156.48 5.9 156.48 1.3 175.27 1.3 175.27 5.9"></polygon>
                <polygon id="Path" points="182.33 23.98 182.33 1.3 199.44 1.3 199.44 5.74 187.29 5.74 187.29 10.34 197.98 10.34 197.98 14.78 187.29 14.78 187.29 19.54 199.6 19.54 199.6 23.98"></polygon>
                <polygon id="Path" points="207.28 23.98 207.28 1.3 224.39 1.3 224.39 5.74 212.24 5.74 212.24 10.34 222.93 10.34 222.93 14.78 212.24 14.78 212.24 19.54 224.55 19.54 224.55 23.98"></polygon>
                <polygon id="Path" points="248.14 23.98 237.16 9.56 237.16 23.98 232.23 23.98 232.23 1.3 236.83 1.3 247.46 15.26 247.46 1.3 252.39 1.3 252.39 23.98"></polygon>
                <polygon id="Path" points="274.03 23.98 274.03 1.3 279.02 1.3 279.02 19.44 290.33 19.44 290.33 23.98"></polygon>
                <path d="M314.2,23.98 L312.13,18.89 L302.54,18.89 L300.47,23.98 L295.38,23.98 L305.1,1.14 L309.7,1.14 L319.42,23.98 L314.2,23.98 Z M307.33,7.13 L304.32,14.48 L310.35,14.48 L307.33,7.13 Z" id="Shape" fill-rule="nonzero"></path>
                <polygon id="Path" points="326.39 23.98 326.39 1.3 331.38 1.3 331.38 23.98"></polygon>
                <polygon id="Path" points="350.56 5.9 350.56 23.98 345.57 23.98 345.57 5.9 338.67 5.9 338.67 1.3 357.46 1.3 357.46 5.9"></polygon>
                <path d="M374.57,24.37 C367.57,24.37 362.55,19.15 362.55,12.71 L362.55,12.64 C362.55,6.19 367.64,0.91 374.63,0.91 C381.63,0.91 386.65,6.13 386.65,12.57 L386.65,12.64 C386.65,19.08 381.57,24.37 374.57,24.37 Z M381.44,12.64 C381.44,8.75 378.59,5.51 374.57,5.51 C370.55,5.51 367.77,8.69 367.77,12.57 L367.77,12.64 C367.77,16.53 370.62,19.77 374.64,19.77 C378.66,19.77 381.44,16.59 381.44,12.71 L381.44,12.64 Z" id="Shape" fill-rule="nonzero"></path>
                <path d="M402.24,24.3 C398.81,24.3 395.34,23.1 392.62,20.67 L395.57,17.14 C397.61,18.82 399.75,19.89 402.34,19.89 C404.38,19.89 405.61,19.08 405.61,17.75 L405.61,17.68 C405.61,16.42 404.83,15.77 401.04,14.8 C396.47,13.63 393.52,12.37 393.52,7.87 L393.52,7.81 C393.52,3.7 396.82,0.97 401.46,0.97 C404.76,0.97 407.58,2.01 409.88,3.85 L407.29,7.61 C405.28,6.22 403.31,5.38 401.39,5.38 C399.48,5.38 398.47,6.25 398.47,7.36 L398.47,7.43 C398.47,8.92 399.44,9.41 403.36,10.41 C407.96,11.61 410.55,13.26 410.55,17.21 L410.55,17.28 C410.57,21.77 407.13,24.3 402.24,24.3 Z" id="Path"></path>
            </g>
        </g>
    </g>
</svg>