<svg xmlns="http://www.w3.org/2000/svg" xmlns:xlink="http://www.w3.org/1999/xlink" width="247" height="82" viewBox="0 0 247 82">
  <defs>
    <polygon id="geometrix-a" points="0 121.568 194.509 121.568 194.509 0 0 0"/>
  </defs>
  <g fill="none" fill-rule="evenodd" transform="matrix(1 0 0 -1 25.61 101.813)">
    <mask id="geometrix-b" fill="#fff">
      <use xlink:href="#geometrix-a"/>
    </mask>
    <g mask="url(#geometrix-b)">
      <g transform="translate(35.167 23.159)">
        <path fill="#090C0E" fill-rule="nonzero" d="M9.93599281 13.6354004L3.0809812 13.6354004 3.0809812 6.69461532 9.93599281 6.69461532 9.93599281 13.6354004zM12.2270008 2.84939297C12.2270008 1.31061784 11.4627597.542088005 9.93599281.542088005L4.66864717.542088005 4.66864717 2.84939297 9.93599281 2.84939297 9.93599281 4.38816809 3.0809812 4.38816809C2.46255485 4.38816809 1.92647098 4.60774805 1.47187186 5.04690795 1.01813048 5.48606785.790830919 6.01443211.790830919 6.63200073L.790830919 13.6354004C.790830919 14.2804165.994971656 14.8259354 1.40325313 15.2728149 1.81067687 15.7205522 2.36991956 15.943563 3.0809812 15.943563L12.2270008 15.943563 12.2270008 2.84939297zM25.5347467 13.6354004L18.6797351 13.6354004 18.6797351 11.310083 25.5347467 11.310083 25.5347467 13.6354004zM27.824897 11.3117984C27.824897 10.6667823 27.6276181 10.1281253 27.2330604 9.69411177 26.7990469 9.23350851 26.2320846 9.00363575 25.5347467 9.00363575L18.6797351 9.00363575 18.6797351 6.69633079 27.2364913 6.69633079 27.2364913 4.38816809 18.6797351 4.38816809C18.008987 4.38816809 17.4591794 4.60774805 17.03117 5.04862342 16.6031606 5.48949879 16.3895848 6.03759093 16.3895848 6.69633079L16.3895848 13.6354004C16.3895848 14.3070062 16.5868637 14.8576716 16.9814214 15.2925428 17.3768369 15.7265563 17.9429414 15.943563 18.6797351 15.943563L25.5347467 15.943563C26.2054948 15.943563 26.7561602 15.7231254 27.1833118 15.2831077 27.6113212 14.8430901 27.824897 14.2924247 27.824897 13.6354004L27.824897 11.3117984zM40.8495906 13.6354004L33.9954367 13.6354004 33.9954367 6.69461532 40.8495906 6.69461532 40.8495906 13.6354004zM43.1397409 6.69633079C43.1397409 5.15755566 42.3763575 4.38816809 40.8495906 4.38816809L33.994579 4.38816809C32.7705923 4.38816809 32.0329409 4.90109314 31.7833403 5.92694322 31.7301607 6.16367786 31.7044287 6.42014038 31.7044287 6.69633079L31.7044287 13.6354004C31.7044287 14.2409607 31.9214355 14.7770446 32.355449 15.2427942 32.7903202 15.7111171 33.3358391 15.943563 33.994579 15.943563L40.8495906 15.943563C41.493749 15.943563 42.0375525 15.7171212 42.4775701 15.2633798 42.9193032 14.8087807 43.1397409 14.2675504 43.1397409 13.6354004L43.1397409 6.69633079z"/>
        <path fill="#090C0E" fill-rule="nonzero" d="M16.2969495,0 L13.9887868,0 L13.9887868,9.24723226 L9.44193792,9.24723226 L9.44193792,0 L7.15092991,0 L7.15092991,9.24723226 L2.56977162,9.24723226 L2.56977162,0 L0.279621345,0 L0.279621345,11.555395 L13.9887868,11.555395 C15.2247818,11.555395 15.9675796,11.0296039 16.2171803,9.97716405 C16.2703598,9.75415316 16.2969495,9.51055665 16.2969495,9.24723226 L16.2969495,0 Z" transform="translate(46.623 4.388)"/>
        <path fill="#090C0E" fill-rule="nonzero" d="M76.1856659,13.6354004 L69.3306542,13.6354004 L69.3306542,11.310083 L76.1856659,11.310083 L76.1856659,13.6354004 Z M78.4758161,11.3117984 C78.4758161,10.6667823 78.2785373,10.1281253 77.8831218,9.69411177 C77.4491083,9.23350851 76.8830038,9.00363575 76.1856659,9.00363575 L69.3306542,9.00363575 L69.3306542,6.69633079 L77.8874105,6.69633079 L77.8874105,4.38816809 L69.3306542,4.38816809 C68.6590484,4.38816809 68.1092408,4.60774805 67.6820891,5.04862342 C67.253222,5.48949879 67.0396462,6.03759093 67.0396462,6.69633079 L67.0396462,13.6354004 C67.0396462,14.3070062 67.2386406,14.8576716 67.6331983,15.2925428 C68.027756,15.7265563 68.5938606,15.943563 69.3306542,15.943563 L76.1856659,15.943563 C76.856414,15.943563 77.4070793,15.7231254 77.8333732,15.2831077 C78.2622403,14.8430901 78.4758161,14.2924247 78.4758161,13.6354004 L78.4758161,11.3117984 Z"/>
        <path fill="#090C0E" fill-rule="nonzero" d="M5.14640512,0 L2.87340952,0 C2.20180366,0 1.64942284,0.219579952 1.21626708,0.660455323 C0.782253578,1.10133069 0.565246828,1.64942284 0.565246828,2.30730496 L0.565246828,14.8370859 L2.87340952,14.8370859 L2.87340952,11.555395 L5.14640512,11.555395 L5.14640512,9.24723226 L2.87340952,9.24723226 L2.87340952,2.30730496 L5.14640512,2.30730496 L5.14640512,0 Z" transform="translate(81.653 4.388)"/>
        <path fill="#090C0E" fill-rule="nonzero" d="M11.1505444,7.71960767 L8.84323946,7.71960767 L8.84323946,10.0440673 L2.96261388,10.0440673 L2.96261388,0.796835059 L0.671605868,0.796835059 L0.671605868,12.3513723 L8.84323946,12.3513723 C10.0800922,12.3513723 10.82289,11.826439 11.0724906,10.7739991 C11.1256701,10.5509882 11.1505444,10.3073917 11.1505444,10.0440673 L11.1505444,7.71960767 Z" transform="translate(89.812 3.592)"/>
        <polygon fill="#090C0E" fill-rule="nonzero" points="107.075 4.388 104.785 4.388 104.785 15.944 107.075 15.944"/>
        <polygon fill="#090C0E" fill-rule="nonzero" points="13.724 0 10.988 0 6.873 4.252 2.758 0 .002 0 5.495 5.768 .002 11.555 2.758 11.555 6.873 7.304 10.988 11.555 13.724 11.555 8.251 5.768" transform="translate(110.659 4.388)"/>
        <polygon fill="#78CA2A" fill-rule="nonzero" points="23.159 28.305 23.159 .759 .073 5.481" transform="translate(39.599 46.243)"/>
        <polygon fill="#78CA2A" fill-rule="nonzero" points="0 0 0 21.25 22.036 26.758" transform="translate(62.823 25.688)"/>
        <polyline fill="#C2C3C1" fill-rule="nonzero" points=".858 9.435 22.894 5.598 .825 .286" transform="translate(61.933 46.716)"/>
        <polyline fill="#090C0E" fill-rule="nonzero" points="23.159 0 .073 4.721 23.191 9.149" transform="translate(39.599 47.003)"/>
      </g>
    </g>
  </g>
</svg>
