<svg xmlns="http://www.w3.org/2000/svg" xmlns:xlink="http://www.w3.org/1999/xlink" width="247" height="82" viewBox="0 0 247 82">
  <defs>
    <polygon id="geometrix-a" points="0 94.117 150.588 94.117 150.588 0 0 0"/>
  </defs>
  <g fill="none" fill-rule="evenodd" transform="matrix(1 0 0 -1 47.662 88.468)">
    <mask id="geometrix-b" fill="#fff">
      <use xlink:href="#geometrix-a"/>
    </mask>
    <g mask="url(#geometrix-b)">
      <g transform="translate(27.226 17.93)">
        <path fill="#090C0E" fill-rule="nonzero" d="M7.69238153 10.556439L2.38527576 10.556439 2.38527576 5.18292799 7.69238153 5.18292799 7.69238153 10.556439zM9.46606515 2.20598165C9.46606515 1.01467187 8.87439458.419681036 7.69238153.419681036L3.61443652.419681036 3.61443652 2.20598165 7.69238153 2.20598165 7.69238153 3.39729143 2.38527576 3.39729143C1.90649408 3.39729143 1.49146141 3.56728881 1.1395137 3.90728357.788230048 4.24727834.612256196 4.65633454.612256196 5.13445217L.612256196 10.556439C.612256196 11.0558063.770300637 11.4781435 1.08638952 11.8241148 1.40181435 12.1707501 1.83477643 12.3434036 2.38527576 12.3434036L9.46606515 12.3434036 9.46606515 2.20598165zM19.7688362 10.556439L14.4617304 10.556439 14.4617304 8.75619327 19.7688362 8.75619327 19.7688362 10.556439zM21.5418557 8.75752138C21.5418557 8.25815407 21.3891237 7.84112924 21.0836597 7.50511879 20.7476492 7.14852272 20.3087107 6.97055671 19.7688362 6.97055671L14.4617304 6.97055671 14.4617304 5.18425609 21.0863159 5.18425609 21.0863159 3.39729143 14.4617304 3.39729143C13.9424415 3.39729143 13.516784 3.56728881 13.1854219 3.90861168 12.8540598 4.24993455 12.6887108 4.67426395 12.6887108 5.18425609L12.6887108 10.556439C12.6887108 11.0763919 12.8414429 11.5027135 13.1469069 11.839388 13.453035 12.1753984 13.8913095 12.3434036 14.4617304 12.3434036L19.7688362 12.3434036C20.288125 12.3434036 20.7144466 12.1727422 21.0451446 11.8320834 21.3765067 11.4914246 21.5418557 11.065103 21.5418557 10.556439L21.5418557 8.75752138zM31.6254895 10.556439L26.3190478 10.556439 26.3190478 5.18292799 31.6254895 5.18292799 31.6254895 10.556439zM33.3985091 5.18425609C33.3985091 3.99294632 32.8075025 3.39729143 31.6254895 3.39729143L26.3183837 3.39729143C25.3707811 3.39729143 24.7996962 3.79439469 24.606457 4.58860121 24.5652857 4.77187963 24.5453642 4.97043126 24.5453642 5.18425609L24.5453642 10.556439C24.5453642 11.0252599 24.7133694 11.4402926 25.0493798 11.8008729 25.3860543 12.1634455 25.8083916 12.3434036 26.3183837 12.3434036L31.6254895 12.3434036C32.1241928 12.3434036 32.5452019 12.1680938 32.8858607 11.8168102 33.2278476 11.4648625 33.3985091 11.0458455 33.3985091 10.556439L33.3985091 5.18425609z"/>
        <path fill="#090C0E" fill-rule="nonzero" d="M12.6169932,0 L10.8300285,0 L10.8300285,7.15914755 L7.30988742,7.15914755 L7.30988742,0 L5.5362038,0 L5.5362038,7.15914755 L1.98950061,7.15914755 L1.98950061,0 L0.216481041,0 L0.216481041,8.94611222 L10.8300285,8.94611222 C11.7869278,8.94611222 12.3619971,8.53904818 12.5552363,7.72425604 C12.5964076,7.55160245 12.6169932,7.3630116 12.6169932,7.15914755 L12.6169932,0 Z" transform="translate(36.095 3.397)"/>
        <path fill="#090C0E" fill-rule="nonzero" d="M58.982451,10.556439 L53.6753452,10.556439 L53.6753452,8.75619327 L58.982451,8.75619327 L58.982451,10.556439 Z M60.7554706,8.75752138 C60.7554706,8.25815407 60.6027385,7.84112924 60.2966104,7.50511879 C59.9606,7.14852272 59.5223255,6.97055671 58.982451,6.97055671 L53.6753452,6.97055671 L53.6753452,5.18425609 L60.2999307,5.18425609 L60.2999307,3.39729143 L53.6753452,3.39729143 C53.1553923,3.39729143 52.7297348,3.56728881 52.3990368,3.90861168 C52.0670106,4.24993455 51.9016616,4.67426395 51.9016616,5.18425609 L51.9016616,10.556439 C51.9016616,11.0763919 52.0557217,11.5027135 52.3611858,11.839388 C52.6666498,12.1753984 53.1049243,12.3434036 53.6753452,12.3434036 L58.982451,12.3434036 C59.5017399,12.3434036 59.9280614,12.1727422 60.2580954,11.8320834 C60.5901215,11.4914246 60.7554706,11.065103 60.7554706,10.556439 L60.7554706,8.75752138 Z"/>
        <path fill="#090C0E" fill-rule="nonzero" d="M3.98431364,0 L2.22457511,0 C1.70462218,0 1.27697252,0.169997382 0.941626123,0.51132025 C0.605615673,0.852643118 0.437610448,1.27697252 0.437610448,1.78630061 L0.437610448,11.4867762 L2.22457511,11.4867762 L2.22457511,8.94611222 L3.98431364,8.94611222 L3.98431364,7.15914755 L2.22457511,7.15914755 L2.22457511,1.78630061 L3.98431364,1.78630061 L3.98431364,0 Z" transform="translate(63.215 3.397)"/>
        <path fill="#090C0E" fill-rule="nonzero" d="M8.63267955,5.97647046 L6.84637893,5.97647046 L6.84637893,7.77605212 L2.29363655,7.77605212 L2.29363655,0.616904562 L0.51995293,0.616904562 L0.51995293,9.56235273 L6.84637893,9.56235273 C7.80394231,9.56235273 8.37901158,9.15595274 8.57225079,8.3411606 C8.61342203,8.16850701 8.63267955,7.97991616 8.63267955,7.77605212 L8.63267955,5.97647046 Z" transform="translate(69.532 2.78)"/>
        <polygon fill="#090C0E" fill-rule="nonzero" points="82.897 3.397 81.124 3.397 81.124 12.343 82.897 12.343"/>
        <polygon fill="#090C0E" fill-rule="nonzero" points="10.625 0 8.507 0 5.321 3.292 2.136 0 .001 0 4.254 4.466 .001 8.946 2.136 8.946 5.321 5.654 8.507 8.946 10.625 8.946 6.388 4.466" transform="translate(85.671 3.397)"/>
        <polygon fill="#78CA2A" fill-rule="nonzero" points="17.929 21.914 17.929 .588 .056 4.243" transform="translate(30.657 35.801)"/>
        <polygon fill="#78CA2A" fill-rule="nonzero" points="0 0 0 16.451 17.06 20.716" transform="translate(48.637 19.888)"/>
        <polyline fill="#C2C3C1" fill-rule="nonzero" points=".664 7.305 17.724 4.334 .639 .222" transform="translate(47.948 36.167)"/>
        <polyline fill="#090C0E" fill-rule="nonzero" points="17.929 0 .056 3.655 17.955 7.083" transform="translate(30.657 36.39)"/>
      </g>
    </g>
  </g>
</svg>
