<?xml version="1.0" encoding="UTF-8"?>
<svg width="247px" height="82px" viewBox="0 0 247 82" version="1.1" xmlns="http://www.w3.org/2000/svg" xmlns:xlink="http://www.w3.org/1999/xlink">
    <!-- Generator: Sketch 53.2 (72643) - https://sketchapp.com -->
    <title>gofore</title>
    <desc>Created with Sketch.</desc>
    <defs>
        <path d="M17.0862791,9.45934763 L11.2625962,9.45934763 L11.2625962,14.2614113 L17.7486692,14.2614113 C19.5795741,14.2614113 20.9998666,15.0777999 21.8541881,16.5215172 L21.8541881,14.8657686 C21.8541881,13.3156579 21.4552126,12.0437722 20.6681426,11.0856264 C19.806567,10.0369554 18.5345302,9.45934763 17.0862791,9.45934763 L17.0862791,9.45934763 Z M17.7486692,15.5384354 L17.0182719,15.5384354 L17.0182719,17.4113535 C15.6733919,18.65921 13.9346745,19.3444203 12.0901682,19.3444203 C10.1525677,19.3444203 8.33088155,18.5898427 6.96076324,17.2195732 C5.59064492,15.8494549 4.8360673,14.02792 4.8360673,12.0901682 C4.8360673,10.1525677 5.59064492,8.33088155 6.96076324,6.96076324 C8.33088155,5.59064492 10.1525677,4.8360673 12.0901682,4.8360673 C14.0277688,4.8360673 15.8494549,5.59064492 17.2195732,6.96076324 L20.6391262,3.54105915 C18.3555957,1.25752862 15.3194522,0 12.0901682,0 C8.8608843,0 5.82458968,1.25752862 3.54121028,3.54105915 C1.25752862,5.82458968 0,8.8608843 0,12.0901682 C0,15.3196033 1.25752862,18.3557468 3.54105915,20.6392773 C5.82458968,22.9228079 8.8608843,24.1803365 12.0901682,24.1803365 C15.3194522,24.1803365 18.3555957,22.9228079 20.638824,20.6395796 C20.9291391,20.3494155 21.2014702,20.039605 21.4611065,19.7210291 C21.3442853,18.2407391 20.7230017,15.5384354 17.7486692,15.5384354 L17.7486692,15.5384354 Z M115.919777,11.7437849 C115.23366,12.4350403 114.319493,12.8157295 113.34563,12.8157295 L108.509411,12.8157295 L108.509411,5.56147739 L113.269613,5.56147739 C115.29668,5.56147739 116.95787,7.17596823 116.972529,9.16041822 C116.979783,10.135188 116.605895,11.0525296 115.919777,11.7437849 L115.919777,11.7437849 Z M121.808596,9.12475223 C121.774139,4.49331103 117.943672,0.725410095 113.269613,0.725410095 L103.673344,0.725410095 L103.673344,23.4549264 L108.509411,23.4549264 L108.509411,17.6517968 L112.531961,17.6517968 L116.041435,23.4549264 L121.692984,23.4549264 L117.518853,16.5528005 C118.18215,16.1755872 118.799353,15.7075466 119.351874,15.1507943 C120.952915,13.538117 121.82522,11.3980061 121.808596,9.12475223 L121.808596,9.12475223 Z M142.966542,5.56147739 L142.966542,0.725410095 L127.249323,0.725410095 L127.249323,23.4549264 L142.966542,23.4549264 L142.966542,18.6188591 L132.085239,18.6188591 L132.085239,14.5082019 L142.482935,14.5082019 L142.482935,9.67213459 L132.085239,9.67213459 L132.085239,5.56147739 L142.966542,5.56147739 Z M54.7081624,23.4549264 L59.5442297,23.4549264 L59.5442297,14.5082019 L70.1545614,14.5082019 L70.1545614,9.67213459 L59.5442297,9.67213459 L59.5442297,5.56147739 L70.4253811,5.56147739 L70.4253811,0.725410095 L54.7081624,0.725410095 L54.7081624,23.4549264 Z M37.7817758,19.3444203 C33.7818947,19.3444203 30.5276748,16.0902004 30.5276748,12.0901682 C30.5276748,8.09028721 33.7818947,4.8360673 37.7817758,4.8360673 C41.7816568,4.8360673 45.0358767,8.09028721 45.0358767,12.0901682 C45.0358767,16.0902004 41.7816568,19.3444203 37.7817758,19.3444203 L37.7817758,19.3444203 Z M37.7817758,0 C31.115257,0 25.6916075,5.42364947 25.6916075,12.0901682 C25.6916075,18.756687 31.115257,24.1803365 37.7817758,24.1803365 C44.4482945,24.1803365 49.871944,18.756687 49.871944,12.0901682 C49.871944,5.42364947 44.4482945,0 37.7817758,0 L37.7817758,0 Z M86.7471083,19.3444203 C82.7472272,19.3444203 79.4930073,16.0902004 79.4930073,12.0901682 C79.4930073,8.09028721 82.7472272,4.8360673 86.7471083,4.8360673 C90.7471404,4.8360673 94.0013603,8.09028721 94.0013603,12.0901682 C94.0013603,16.0902004 90.7471404,19.3444203 86.7471083,19.3444203 L86.7471083,19.3444203 Z M86.7471083,0 C80.0807406,0 74.6570911,5.42364947 74.6570911,12.0901682 C74.6570911,18.756687 80.0807406,24.1803365 86.7471083,24.1803365 C93.4137782,24.1803365 98.8374276,18.756687 98.8374276,12.0901682 C98.8374276,5.42364947 93.4137782,0 86.7471083,0 L86.7471083,0 Z" id="path-1"></path>
    </defs>
    <g id="gofore" stroke="none" stroke-width="1" fill="none" fill-rule="evenodd">
        <g transform="translate(51.731251, 28.722586)">
            <g id="gofore-logo" fill="#FF8551" fill-rule="nonzero">
                <path d="M17.0862791,9.45934763 L11.2625962,9.45934763 L11.2625962,14.2614113 L17.7486692,14.2614113 C19.5795741,14.2614113 20.9998666,15.0777999 21.8541881,16.5215172 L21.8541881,14.8657686 C21.8541881,13.3156579 21.4552126,12.0437722 20.6681426,11.0856264 C19.806567,10.0369554 18.5345302,9.45934763 17.0862791,9.45934763 L17.0862791,9.45934763 Z M17.7486692,15.5384354 L17.0182719,15.5384354 L17.0182719,17.4113535 C15.6733919,18.65921 13.9346745,19.3444203 12.0901682,19.3444203 C10.1525677,19.3444203 8.33088155,18.5898427 6.96076324,17.2195732 C5.59064492,15.8494549 4.8360673,14.02792 4.8360673,12.0901682 C4.8360673,10.1525677 5.59064492,8.33088155 6.96076324,6.96076324 C8.33088155,5.59064492 10.1525677,4.8360673 12.0901682,4.8360673 C14.0277688,4.8360673 15.8494549,5.59064492 17.2195732,6.96076324 L20.6391262,3.54105915 C18.3555957,1.25752862 15.3194522,0 12.0901682,0 C8.8608843,0 5.82458968,1.25752862 3.54121028,3.54105915 C1.25752862,5.82458968 0,8.8608843 0,12.0901682 C0,15.3196033 1.25752862,18.3557468 3.54105915,20.6392773 C5.82458968,22.9228079 8.8608843,24.1803365 12.0901682,24.1803365 C15.3194522,24.1803365 18.3555957,22.9228079 20.638824,20.6395796 C20.9291391,20.3494155 21.2014702,20.039605 21.4611065,19.7210291 C21.3442853,18.2407391 20.7230017,15.5384354 17.7486692,15.5384354 L17.7486692,15.5384354 Z M115.919777,11.7437849 C115.23366,12.4350403 114.319493,12.8157295 113.34563,12.8157295 L108.509411,12.8157295 L108.509411,5.56147739 L113.269613,5.56147739 C115.29668,5.56147739 116.95787,7.17596823 116.972529,9.16041822 C116.979783,10.135188 116.605895,11.0525296 115.919777,11.7437849 L115.919777,11.7437849 Z M121.808596,9.12475223 C121.774139,4.49331103 117.943672,0.725410095 113.269613,0.725410095 L103.673344,0.725410095 L103.673344,23.4549264 L108.509411,23.4549264 L108.509411,17.6517968 L112.531961,17.6517968 L116.041435,23.4549264 L121.692984,23.4549264 L117.518853,16.5528005 C118.18215,16.1755872 118.799353,15.7075466 119.351874,15.1507943 C120.952915,13.538117 121.82522,11.3980061 121.808596,9.12475223 L121.808596,9.12475223 Z M142.966542,5.56147739 L142.966542,0.725410095 L127.249323,0.725410095 L127.249323,23.4549264 L142.966542,23.4549264 L142.966542,18.6188591 L132.085239,18.6188591 L132.085239,14.5082019 L142.482935,14.5082019 L142.482935,9.67213459 L132.085239,9.67213459 L132.085239,5.56147739 L142.966542,5.56147739 Z M54.7081624,23.4549264 L59.5442297,23.4549264 L59.5442297,14.5082019 L70.1545614,14.5082019 L70.1545614,9.67213459 L59.5442297,9.67213459 L59.5442297,5.56147739 L70.4253811,5.56147739 L70.4253811,0.725410095 L54.7081624,0.725410095 L54.7081624,23.4549264 Z M37.7817758,19.3444203 C33.7818947,19.3444203 30.5276748,16.0902004 30.5276748,12.0901682 C30.5276748,8.09028721 33.7818947,4.8360673 37.7817758,4.8360673 C41.7816568,4.8360673 45.0358767,8.09028721 45.0358767,12.0901682 C45.0358767,16.0902004 41.7816568,19.3444203 37.7817758,19.3444203 L37.7817758,19.3444203 Z M37.7817758,0 C31.115257,0 25.6916075,5.42364947 25.6916075,12.0901682 C25.6916075,18.756687 31.115257,24.1803365 37.7817758,24.1803365 C44.4482945,24.1803365 49.871944,18.756687 49.871944,12.0901682 C49.871944,5.42364947 44.4482945,0 37.7817758,0 L37.7817758,0 Z M86.7471083,19.3444203 C82.7472272,19.3444203 79.4930073,16.0902004 79.4930073,12.0901682 C79.4930073,8.09028721 82.7472272,4.8360673 86.7471083,4.8360673 C90.7471404,4.8360673 94.0013603,8.09028721 94.0013603,12.0901682 C94.0013603,16.0902004 90.7471404,19.3444203 86.7471083,19.3444203 L86.7471083,19.3444203 Z M86.7471083,0 C80.0807406,0 74.6570911,5.42364947 74.6570911,12.0901682 C74.6570911,18.756687 80.0807406,24.1803365 86.7471083,24.1803365 C93.4137782,24.1803365 98.8374276,18.756687 98.8374276,12.0901682 C98.8374276,5.42364947 93.4137782,0 86.7471083,0 L86.7471083,0 Z" id="path-1"></path>
            </g>
            <g id="Path-Clipped">
                <mask id="mask-2" fill="white">
                    <use xlink:href="#path-1"></use>
                </mask>
                <g id="path-1"></g>
                <rect id="Path" fill="#FF8551" fill-rule="nonzero" mask="url(#mask-2)" x="0" y="-0.151127103" width="143.117367" height="24.3314636"></rect>
            </g>
        </g>
    </g>
</svg>