<?xml version="1.0" encoding="UTF-8"?>
<svg width="946px" height="160px" viewBox="0 0 946 160" version="1.1" xmlns="http://www.w3.org/2000/svg" xmlns:xlink="http://www.w3.org/1999/xlink">
    <!-- Generator: Sketch 44.1 (41455) - http://www.bohemiancoding.com/sketch -->
    <title>Group</title>
    <desc>Created with Sketch.</desc>
    <defs>
        <path d="M113.059,62.592 L74.524,62.592 L74.524,94.367 L117.442,94.367 C129.557,94.367 138.955,99.769 144.608,109.322 L144.608,98.366 C144.608,88.109 141.968,79.693 136.76,73.353 C131.059,66.414 122.642,62.592 113.059,62.592 L113.059,62.592 Z M117.442,102.817 L112.609,102.817 L112.609,115.21 C103.71,123.467 92.205,128.001 80,128.001 C67.179,128.001 55.125,123.008 46.059,113.941 C36.993,104.875 32,92.822 32,80 C32,67.179 36.993,55.125 46.059,46.059 C55.125,36.993 67.179,32 80,32 C92.821,32 104.875,36.993 113.941,46.059 L136.568,23.431 C121.458,8.321 101.368,0 80,0 C58.632,0 38.541,8.321 23.432,23.431 C8.321,38.541 0,58.632 0,80 C0,101.369 8.321,121.459 23.431,136.569 C38.541,151.679 58.632,160 80,160 C101.368,160 121.458,151.679 136.566,136.571 C138.487,134.651 140.289,132.601 142.007,130.493 C141.234,120.698 137.123,102.817 117.442,102.817 L117.442,102.817 Z M767.035,77.708 C762.495,82.282 756.446,84.801 750.002,84.801 L718.001,84.801 L718.001,36.8 L749.499,36.8 C762.912,36.8 773.904,47.483 774.001,60.614 C774.049,67.064 771.575,73.134 767.035,77.708 L767.035,77.708 Z M806.001,60.378 C805.773,29.732 780.427,4.8 749.499,4.8 L686.001,4.8 L686.001,155.2 L718.001,155.2 L718.001,116.801 L744.618,116.801 L767.84,155.2 L805.236,155.2 L777.616,109.529 C782.005,107.033 786.089,103.936 789.745,100.252 C800.339,89.581 806.111,75.42 806.001,60.378 L806.001,60.378 Z M946.002,36.8 L946.002,4.8 L842.002,4.8 L842.002,155.2 L946.002,155.2 L946.002,123.2 L874.001,123.2 L874.001,96 L942.802,96 L942.802,64 L874.001,64 L874.001,36.8 L946.002,36.8 Z M362.001,155.2 L394.001,155.2 L394.001,96 L464.209,96 L464.209,64 L394.001,64 L394.001,36.8 L466.001,36.8 L466.001,4.8 L362.001,4.8 L362.001,155.2 Z M250,128.001 C223.533,128.001 202,106.468 202,80 C202,53.533 223.533,32 250,32 C276.467,32 298,53.533 298,80 C298,106.468 276.467,128.001 250,128.001 L250,128.001 Z M250,0 C205.888,0 170,35.888 170,80 C170,124.112 205.888,160 250,160 C294.112,160 330,124.112 330,80 C330,35.888 294.112,0 250,0 L250,0 Z M574.001,128.001 C547.534,128.001 526.001,106.468 526.001,80 C526.001,53.533 547.534,32 574.001,32 C600.469,32 622.002,53.533 622.002,80 C622.002,106.468 600.469,128.001 574.001,128.001 L574.001,128.001 Z M574.001,0 C529.89,0 494.002,35.888 494.002,80 C494.002,124.112 529.89,160 574.001,160 C618.114,160 654.002,124.112 654.002,80 C654.002,35.888 618.114,0 574.001,0 L574.001,0 Z" id="path-1"></path>
    </defs>
    <g id="Page-1" stroke="none" stroke-width="1" fill="none" fill-rule="evenodd">
        <g id="Group">
            <mask id="mask-2" fill="white">
                <use xlink:href="#path-1"></use>
            </mask>
            <use id="gofore-logo" fill="#FF8551" xlink:href="#path-1"></use>
            <rect id="Path" fill="#FF8551" mask="url(#mask-2)" x="0" y="-1" width="947" height="161"></rect>
        </g>
    </g>
</svg>