<?xml version="1.0" encoding="UTF-8" standalone="no"?>
<svg
   xmlns:dc="http://purl.org/dc/elements/1.1/"
   xmlns:cc="http://creativecommons.org/ns#"
   xmlns:rdf="http://www.w3.org/1999/02/22-rdf-syntax-ns#"
   xmlns:svg="http://www.w3.org/2000/svg"
   xmlns="http://www.w3.org/2000/svg"
   viewBox="0 0 793.70135 151.04933"
   height="151.04933"
   width="793.70135"
   xml:space="preserve"
   id="svg2"
   version="1.1"><metadata
     id="metadata8"><rdf:RDF><cc:Work
         rdf:about=""><dc:format>image/svg+xml</dc:format><dc:type
           rdf:resource="http://purl.org/dc/dcmitype/StillImage" /></cc:Work></rdf:RDF></metadata><defs
     id="defs6"><clipPath
       id="clipPath18"
       clipPathUnits="userSpaceOnUse"><path
         id="path16"
         d="M 0,113.287 H 595.276 V 0 H 0 Z" /></clipPath></defs><g
     transform="matrix(1.3333333,0,0,-1.3333333,0,151.04933)"
     id="g10"><g
       id="g12"><g
         clip-path="url(#clipPath18)"
         id="g14"><g
           transform="translate(89.4926,78.775)"
           id="g20"><path
             id="path22"
             style="fill:#373535;fill-opacity:1;fill-rule:nonzero;stroke:none"
             d="m 0,0 h -8.592 c -0.2,0 -0.362,-0.162 -0.362,-0.362 v -18.922 h -18.661 v 18.922 c 0,0.2 -0.162,0.362 -0.362,0.362 h -8.592 c -0.199,0 -0.362,-0.162 -0.362,-0.362 v -44.745 c 0,-0.2 0.163,-0.362 0.362,-0.362 h 8.592 c 0.2,0 0.362,0.162 0.362,0.362 v 18.922 h 18.661 v -18.922 c 0,-0.2 0.162,-0.362 0.362,-0.362 H 0 c 0.2,0 0.362,0.162 0.362,0.362 V -0.362 C 0.362,-0.162 0.2,0 0,0" /></g><g
           transform="translate(182.8435,78.775)"
           id="g24"><path
             id="path26"
             style="fill:#373535;fill-opacity:1;fill-rule:nonzero;stroke:none"
             d="m 0,0 h -8.592 c -0.2,0 -0.362,-0.162 -0.362,-0.362 v -28.677 c 0,-7.293 -3.61,-10.47 -9.315,-10.47 -5.705,0 -9.315,3.177 -9.315,10.47 v 28.677 c 0,0.2 -0.162,0.362 -0.362,0.362 h -8.592 c -0.199,0 -0.361,-0.162 -0.361,-0.362 V -28.21 c 0,-11.41 6.932,-18.197 18.63,-18.197 11.699,0 18.631,6.787 18.631,18.197 V -0.362 C 0.362,-0.162 0.2,0 0,0" /></g><g
           transform="translate(274.47,78.775)"
           id="g28"><path
             id="path30"
             style="fill:#373535;fill-opacity:1;fill-rule:nonzero;stroke:none"
             d="m 0,0 h -40.437 c -0.2,0 -0.362,-0.162 -0.362,-0.362 v -6.17 c 0,-0.2 0.162,-0.362 0.362,-0.362 h 15.561 v -38.213 c 0,-0.2 0.162,-0.362 0.362,-0.362 h 8.591 c 0.2,0 0.362,0.162 0.362,0.362 V -6.894 H 0 c 0.2,0 0.362,0.162 0.362,0.362 v 6.17 C 0.362,-0.162 0.2,0 0,0" /></g><g
           transform="translate(384.365,46.0157)"
           id="g32"><path
             id="path34"
             style="fill:#373535;fill-opacity:1;fill-rule:nonzero;stroke:none"
             d="m 0,0 c -3.509,0 -6.355,-2.845 -6.355,-6.355 v 0 c 0,-3.509 2.846,-6.355 6.355,-6.355 3.51,0 6.355,2.846 6.355,6.355 v 0 C 6.355,-2.845 3.51,0 0,0" /></g><g
           transform="translate(38.2418,46.0157)"
           id="g36"><path
             id="path38"
             style="fill:#373535;fill-opacity:1;fill-rule:nonzero;stroke:none"
             d="m 0,0 c -3.51,0 -6.355,-2.845 -6.355,-6.355 v 0 c 0,-3.509 2.845,-6.355 6.355,-6.355 3.509,0 6.355,2.846 6.355,6.355 v 0 C 6.355,-2.845 3.509,0 0,0" /></g><g
           transform="translate(541.3123,46.0157)"
           id="g40"><path
             id="path42"
             style="fill:#373535;fill-opacity:1;fill-rule:nonzero;stroke:none"
             d="m 0,0 c -3.509,0 -6.355,-2.845 -6.355,-6.355 v 0 c 0,-3.509 2.846,-6.355 6.355,-6.355 3.51,0 6.355,2.846 6.355,6.355 v 0 C 6.355,-2.845 3.51,0 0,0" /></g><g
           transform="translate(430.784,78.775)"
           id="g44"><path
             id="path46"
             style="fill:#373535;fill-opacity:1;fill-rule:nonzero;stroke:none"
             d="m 0,0 h -30.616 c -0.2,0 -0.362,-0.162 -0.362,-0.362 v -6.17 c 0,-0.2 0.162,-0.362 0.362,-0.362 h 10.65 v -31.682 h -10.65 c -0.2,0 -0.362,-0.162 -0.362,-0.362 v -6.169 c 0,-0.2 0.162,-0.362 0.362,-0.362 H 0 c 0.2,0 0.362,0.162 0.362,0.362 v 6.169 c 0,0.2 -0.162,0.362 -0.362,0.362 h -10.65 l 0.035,31.682 H 0 c 0.2,0 0.362,0.162 0.362,0.362 v 6.17 C 0.362,-0.162 0.2,0 0,0" /></g><g
           transform="translate(305.8871,41.877)"
           id="g48"><path
             id="path50"
             style="fill:#373535;fill-opacity:1;fill-rule:nonzero;stroke:none"
             d="m 0,0 c -1.951,-1.795 -4.407,-2.593 -7.225,-2.593 -2.817,0 -5.274,0.798 -7.224,2.593 -3.541,3.258 -3.541,10.24 -3.541,14.163 0,3.924 0,10.906 3.541,14.164 1.95,1.795 4.407,2.593 7.224,2.593 2.818,0 5.274,-0.798 7.225,-2.593 C 3.54,25.069 3.54,18.087 3.54,14.163 3.54,10.24 3.54,3.258 0,0 m -7.225,37.837 c -5.165,0 -9.828,-1.415 -13.559,-4.76 -5.595,-5.018 -6.528,-11.644 -6.528,-18.914 0,-7.269 0.933,-13.894 6.528,-18.912 3.731,-3.345 8.394,-4.761 13.559,-4.761 5.166,0 9.828,1.416 13.559,4.761 5.596,5.018 6.528,11.643 6.528,18.912 0,7.27 -0.932,13.896 -6.528,18.914 -3.731,3.345 -8.393,4.76 -13.559,4.76" /></g><g
           transform="translate(124.9774,41.877)"
           id="g52"><path
             id="path54"
             style="fill:#373535;fill-opacity:1;fill-rule:nonzero;stroke:none"
             d="m 0,0 c -1.951,-1.795 -4.407,-2.593 -7.225,-2.593 -2.817,0 -5.274,0.798 -7.224,2.593 -3.541,3.258 -3.541,10.24 -3.541,14.163 0,3.924 0,10.906 3.541,14.164 1.95,1.795 4.407,2.593 7.224,2.593 2.818,0 5.274,-0.798 7.225,-2.593 C 3.54,25.069 3.54,18.087 3.54,14.163 3.54,10.24 3.54,3.258 0,0 m -7.225,37.837 c -5.165,0 -9.828,-1.415 -13.559,-4.76 -5.595,-5.018 -6.528,-11.644 -6.528,-18.914 0,-7.269 0.933,-13.894 6.528,-18.912 3.731,-3.345 8.394,-4.761 13.559,-4.761 5.166,0 9.829,1.416 13.559,4.761 5.596,5.018 6.528,11.643 6.528,18.912 0,7.27 -0.932,13.896 -6.528,18.914 -3.73,3.345 -8.393,4.76 -13.559,4.76" /></g><g
           transform="translate(209.925,73.1241)"
           id="g56"><path
             id="path58"
             style="fill:#373535;fill-opacity:1;fill-rule:nonzero;stroke:none"
             d="m 0,0 c 6.155,-0.236 9.134,-3.688 9.134,-7.546 h 9.339 c 0,8.874 -7.642,14.44 -18.329,14.44 -11.698,0 -19.105,-6.492 -18.545,-14.31 0.454,-6.326 5.301,-9.776 13.709,-11.91 l -0.002,-0.008 7.151,-1.806 c 4.582,-1.16 6.293,-2.713 6.656,-5.476 0.649,-4.943 -3.753,-7.45 -9.07,-7.247 -6.155,0.237 -9.134,3.689 -9.134,7.546 h -9.339 c 0,-8.873 7.642,-14.44 18.329,-14.44 11.699,0 19.105,6.493 18.545,14.311 -0.454,6.325 -5.301,9.706 -13.709,11.837 l 0.002,0.008 -7.15,1.806 c -4.582,1.159 -6.294,2.786 -6.657,5.549 C -9.719,-2.304 -5.317,0.204 0,0" /></g><g
           transform="translate(368.5037,78.7753)"
           id="g60"><path
             id="path62"
             style="fill:#373535;fill-opacity:1;fill-rule:nonzero;stroke:none"
             d="m 0,0 h -8.587 c -0.2,0 -0.362,-0.162 -0.362,-0.362 v -38.213 h -1.644 L -25.505,-0.682 C -25.667,-0.271 -26.064,0 -26.506,0 h -14.556 c -0.2,0 -0.362,-0.162 -0.362,-0.362 v -44.745 c 0,-0.2 0.162,-0.362 0.362,-0.362 h 8.586 c 0.2,0 0.362,0.162 0.362,0.362 v 38.213 h 1.645 l 14.912,-37.893 c 0.162,-0.412 0.558,-0.682 1.001,-0.682 H 0 c 0.2,0 0.362,0.162 0.362,0.362 V -0.362 C 0.362,-0.162 0.2,0 0,0" /></g><g
           transform="translate(482.1251,78.7753)"
           id="g64"><path
             id="path66"
             style="fill:#373535;fill-opacity:1;fill-rule:nonzero;stroke:none"
             d="m 0,0 h -8.587 c -0.2,0 -0.362,-0.162 -0.362,-0.362 v -38.213 h -1.644 L -25.505,-0.682 C -25.667,-0.271 -26.064,0 -26.506,0 h -14.556 c -0.2,0 -0.362,-0.162 -0.362,-0.362 v -44.745 c 0,-0.2 0.162,-0.362 0.362,-0.362 h 8.586 c 0.2,0 0.362,0.162 0.362,0.362 v 38.213 h 1.645 l 14.912,-37.893 c 0.162,-0.412 0.559,-0.682 1.001,-0.682 H 0 c 0.2,0 0.362,0.162 0.362,0.362 V -0.362 C 0.362,-0.162 0.2,0 0,0" /></g><g
           transform="translate(510.2488,72.7975)"
           id="g68"><path
             id="path70"
             style="fill:#373535;fill-opacity:1;fill-rule:nonzero;stroke:none"
             d="m 0,0 c 2.704,0 5.061,-0.798 6.932,-2.593 2.104,-2.018 2.9,-5.461 3.205,-8.725 0.014,-0.153 0.142,-0.269 0.295,-0.269 h 8.937 c 0.172,0 0.31,0.146 0.299,0.319 -0.337,5.096 -1.523,9.703 -5.672,13.424 -3.731,3.345 -8.394,4.761 -13.56,4.761 -5.165,0 -9.828,-1.416 -13.558,-4.761 -5.596,-5.018 -6.529,-11.644 -6.529,-18.913 0,-7.269 0.933,-13.895 6.529,-18.913 3.73,-3.345 8.393,-4.76 13.558,-4.76 5.166,0 9.829,1.415 13.56,4.76 4.15,3.722 5.335,8.328 5.672,13.425 0.011,0.172 -0.127,0.319 -0.299,0.319 h -8.937 c -0.153,0 -0.281,-0.117 -0.295,-0.27 C 9.832,-25.459 9.036,-28.902 6.932,-30.92 5.061,-32.716 2.704,-33.514 0,-33.514 c -2.703,0 -5.06,0.798 -6.932,2.594 -3.396,3.258 -3.396,10.24 -3.396,14.163 0,3.923 0,10.905 3.396,14.164 C -5.06,-0.798 -2.703,0 0,0" /></g></g></g></g></svg>