<svg xmlns="http://www.w3.org/2000/svg" xmlns:xlink="http://www.w3.org/1999/xlink" width="247" height="82" viewBox="0 0 247 82">
  <defs>
    <polygon id="kela-a" points=".024 .104 97.911 .104 97.911 45.673 .024 45.673"/>
  </defs>
  <g fill="none" fill-rule="evenodd" transform="translate(73.924 11)">
    <path fill="#FFFFFE" d="M89.1756667,3.11684848 L91.4739091,3.11684848 L91.4739091,4.13478788 L94.3157879,4.13478788 L94.3157879,3.11684848 L96.6936061,3.11684848 L96.6936061,4.16748485 L99.5354848,4.16748485 L99.5354848,3.11684848 L101.781727,3.11684848 L103.292091,19.3999394 L98.3020606,19.3999394 C98.3020606,19.3999394 97.9360909,15.4782727 97.9597273,15.606303 C97.9833636,15.7339394 97.6154242,13.4049697 95.3991212,13.5562424 C93.08,13.5680606 92.969697,15.8359697 92.969697,15.8359697 L92.6372121,19.3999394 L87.6983939,19.3999394 L89.1756667,3.11684848"/>
    <g fill="#F3B229" transform="translate(83.91)">
      <path d="M9.09369697,8.87860606 C9.09369697,7.52778788 10.1884545,6.43263636 11.5396667,6.43263636 C12.8900909,6.43263636 13.9848485,7.52778788 13.9848485,8.87860606 C13.9848485,10.2294242 12.8900909,11.3241818 11.5396667,11.3241818 C10.1884545,11.3241818 9.09369697,10.2294242 9.09369697,8.87860606"/>
      <path d="M23.0320606,11.8047879 C23.0320606,18.1267273 17.9088788,23.2510909 11.5857576,23.2510909 C5.26342424,23.2510909 0.139848485,18.1267273 0.139848485,11.8047879 C0.139848485,5.48363636 5.26342424,0.359272727 11.5857576,0.359272727 C17.9088788,0.359272727 23.0320606,5.48363636 23.0320606,11.8047879"/>
    </g>
    <path fill="#FFFFFE" d="M92.761697,19.4133333 L93.1197879,15.632697 C93.2604242,14.7518485 93.8706364,14.0226667 94.7128788,13.7272121 C94.8251515,13.6830909 95.1355758,13.5991818 95.4956364,13.5991818 C95.855303,13.5991818 96.1653333,13.6830909 96.2787879,13.728 C97.1198485,14.0226667 97.7300606,14.7518485 97.870697,15.6307273 L98.2291818,19.415303 L103.413818,19.415303 L101.873909,3.06406061 L99.4878182,3.06406061 L99.4878182,4.0670303 L96.7432424,4.0670303 L96.7432424,3.06406061 L94.2472424,3.06406061 L94.2472424,4.0670303 L91.5026667,4.0670303 L91.5026667,3.06406061 L89.1169697,3.06406061 L87.5770606,19.4133333 L92.761697,19.4133333"/>
    <g transform="translate(0 6.303)">
      <mask id="kela-b" fill="#fff">
        <use xlink:href="#kela-a"/>
      </mask>
      <path fill="#F3B229" d="M97.9108788,2.51924242 C97.9108788,3.85272727 96.8295152,4.93448485 95.4944545,4.93448485 C94.1609697,4.93448485 93.0796061,3.85272727 93.0796061,2.51924242 C93.0796061,1.1849697 94.1609697,0.103606061 95.4944545,0.103606061 C96.8295152,0.103606061 97.9108788,1.1849697 97.9108788,2.51924242" mask="url(#kela-b)"/>
      <polyline fill="#16407E" points="0 11.357 0 44.989 6.943 44.989 6.943 27.558 17.087 44.989 26 44.989 14.083 26.917 24.72 11.357 16.447 11.357 6.943 26.524 6.943 11.357 0 11.357" mask="url(#kela-b)"/>
      <path fill="#16407E" d="M40.6281515 28.8135152C40.6281515 26.9714545 40.4347273 26.0027576 39.8532727 25.0813333 39.2229697 24.1126364 38.3023333 23.6280909 36.9940606 23.6280909 34.5224848 23.6280909 33.117303 25.5666667 33.117303 29.0069394L33.117303 29.1042424 40.6281515 29.1042424 40.6281515 28.8135152zM33.02 33.8531818L33.02 34.0466061C33.02 37.8749091 34.9101212 40.0557576 38.2534848 40.0557576 40.4827879 40.0557576 42.5667273 39.2316364 44.5537576 37.5841818L47.0733939 41.4605455C44.2141818 43.7871515 41.2096061 44.902 37.7208788 44.902 30.5976667 44.902 25.993697 39.8615455 25.993697 32.0599697 25.993697 27.6013636 26.9147273 24.6456364 29.0951818 22.2225152 31.1302727 19.9451515 33.6018485 18.8791515 36.8971515 18.8791515 39.7563636 18.8791515 42.4698182 19.8482424 44.0688182 21.4960909 46.3465758 23.8219091 47.3641212 27.1656667 47.3641212 32.350697L47.3641212 33.8531818 33.02 33.8531818 33.02 33.8531818zM76.596 33.5226667C72.0668788 33.5226667 70.5084545 34.3503333 70.5084545 37.3206364 70.5084545 39.2682727 71.7257273 40.5832424 73.3818485 40.5832424 74.5991212 40.5832424 75.8163939 39.9501818 76.7906061 38.8794545L76.888303 33.5226667 76.596 33.5226667zM82.147 45.6965758C80.6374242 45.0635152 79.274 43.9435455 78.6409394 42.6770303 78.1540303 43.1639394 77.6182727 43.6516364 77.1313636 43.992 75.9140909 44.8689091 74.1610606 45.3554242 72.1157273 45.3554242 66.5643333 45.3554242 63.5451818 42.5308788 63.5451818 37.5644848 63.5451818 31.7203939 67.5866061 28.9935455 75.5244848 28.9935455 76.0113939 28.9935455 76.4494545 28.9935455 76.9852121 29.042L76.9852121 28.0193333C76.9852121 25.2440303 76.4494545 24.3186667 74.0637576 24.3186667 71.9695758 24.3186667 69.5350303 25.3409394 66.8566364 27.1436061L64.0805455 22.4683333C65.3955152 21.6402727 66.3697273 21.1533636 68.1227576 20.4226061 70.5569091 19.4003333 72.6514848 18.9622727 74.9398788 18.9622727 79.1278485 18.9622727 82.0012424 20.520303 82.9750606 23.296 83.3158182 24.3186667 83.4615758 25.0978788 83.4131212 27.7762727L83.2673636 36.1518182C83.2185152 38.8794545 83.4131212 40.0474848 85.6046061 41.704L82.147 45.6965758 82.147 45.6965758z" mask="url(#kela-b)"/>
    </g>
    <path fill="#16407E" d="M58.2526061,51.0974848 C55.4942424,51.0974848 53.2680909,49.7907879 52.494,47.71 C52.0098485,46.4513636 51.9133333,45.6776667 51.9133333,42.1444242 L51.9133333,23.6584242 C51.9133333,20.4159091 51.8164242,18.4316364 51.5741515,16.2054848 L58.2041515,14.7053636 C58.4464242,16.0605152 58.5429394,17.6575455 58.5429394,21.1419394 L58.5429394,40.4508788 C58.5429394,44.7097576 58.5913939,45.2904242 58.9786364,45.9676061 C59.2205152,46.4029091 59.7531212,46.6455758 60.2849394,46.6455758 C60.5272121,46.6455758 60.6725758,46.6455758 61.0109697,46.5482727 L62.1238485,50.4199091 C61.0109697,50.8552121 59.6562121,51.0974848 58.2526061,51.0974848"/>
  </g>
</svg>
