<?xml version="1.0" encoding="UTF-8"?>
<svg width="247px" height="82px" viewBox="0 0 247 82" version="1.1" xmlns="http://www.w3.org/2000/svg" xmlns:xlink="http://www.w3.org/1999/xlink">
    <!-- Generator: Sketch 53.2 (72643) - https://sketchapp.com -->
    <title>Artboard</title>
    <desc>Created with Sketch.</desc>
    <g id="Artboard" stroke="none" stroke-width="1" fill="none" fill-rule="evenodd">
        <g id="Motley_screen_logo_RGB" transform="translate(31.000000, 28.000000)" fill="#000000" fill-rule="nonzero">
            <path d="M145.022262,21.1007463 L157.482007,21.1007463 L157.482007,26 L139.799817,26 L139.799817,0 L156.882268,0 L156.882268,4.89925373 L145.069433,4.89925373 L145.069433,10.4914712 L153.762278,10.4914712 L153.762278,15.3907249 L145.022262,15.3907249 L145.022262,21.1007463 Z M79.3879128,4.89925373 L87.049746,4.89925373 L87.049746,26 L92.2587144,26 L92.2587144,4.89925373 L99.9205476,4.89925373 L99.9205476,0 L79.3879128,0 L79.3879128,4.89925373 Z M116.767146,0 L111.511008,0 L111.511008,26 L128.310436,26 L128.310436,21.1007463 L116.767146,21.1007463 L116.767146,0 Z M16.2131668,16.2084222 L6.10520745,2.4619018e-15 L0,0 L0,26 L5.22244567,26 L5.22244567,8.32942431 L13.6120519,21.7798507 L18.8210203,21.7798507 L27.2106266,8.32942431 L27.2106266,26 L32.4330723,26 L32.4330723,0 L26.3278648,0 L16.2131668,16.2084222 Z M63.7677463,3.55271368e-15 L71.8541137,12.9861407 L63.7677463,26 L51.7662292,26 L43.6798617,12.9861407 L51.7662292,6.01461548e-15 L63.7879622,6.01461548e-15 L63.7677463,3.55271368e-15 Z M65.8365086,12.9861407 L57.7501411,0.0554371002 L49.6637736,12.9861407 L57.7501411,25.9376333 L65.8365086,12.9861407 Z M184.827406,0 L178.762631,9.43816631 L172.630469,0 L166.471352,0 L176.121084,15.0858209 L176.121084,26 L181.350268,26 L181.350268,15.0858209 L191,0 L184.827406,0 Z" id="Shape"></path>
        </g>
    </g>
</svg>