
<svg
  xmlns="http://www.w3.org/2000/svg"
  xmlns:xlink="http://www.w3.org/1999/xlink" width="307" height="41" viewBox="0 0 307 41">
  <defs>
    <path id="l3u3a" d="M301 68v32h-4.38l-16.5-22.85V100H275V68h4.71l16.18 22.47V68z"/>
    <path id="l3u3b" d="M326.91 87c0 4.75-3.3 8.13-7.91 8.13-4.6 0-7.91-3.38-7.91-8.13 0-4.75 3.3-8.13 7.91-8.13 4.6 0 7.91 3.38 7.91 8.13zM306 87c0 7.45 5.56 13 13 13 7.42 0 13-5.55 13-13 0-7.46-5.58-13-13-13-7.44 0-13 5.5-13 13z"/>
    <path id="l3u3c" d="M352 75v4.83h-2.67c-4.18 0-6.27 2.4-6.27 6.91V100H338V75.14h3.42l.86 3.4c1.76-2.37 4.17-3.54 7.53-3.54z"/>
    <path id="l3u3d" d="M374.29 87.1a7.88 7.88 0 0 1-8.08 8.06 7.82 7.82 0 0 1-8.04-8.06c0-4.63 3.4-8.06 8.04-8.06a7.86 7.86 0 0 1 8.08 8.06zm-.36-21.1v11.07a12.5 12.5 0 0 0-8.12-2.86c-7.45 0-12.81 5.5-12.81 12.89 0 7.37 5.36 12.9 12.81 12.9a12.4 12.4 0 0 0 8.7-3.4l.66 2.79H379V66z"/>
    <path id="l3u3e" d="M384 86.97c0-7.4 5.52-12.97 12.82-12.97 6.04 0 10.76 3.75 12.12 9.44h-4.98a7.66 7.66 0 0 0-7.15-4.57c-4.4 0-7.7 3.52-7.7 8.12s3.34 8.14 7.7 8.14c3.2 0 5.79-1.75 7.12-4.76H409a12.2 12.2 0 0 1-12.2 9.63c-7.27 0-12.8-5.62-12.8-13.03"/>
    <path id="l3u3f" d="M414 99h5V66h-5z"/>
    <path id="l3u3g" d="M444.91 87c0 4.75-3.3 8.13-7.91 8.13-4.6 0-7.91-3.38-7.91-8.13 0-4.75 3.3-8.13 7.91-8.13 4.6 0 7.91 3.38 7.91 8.13zM424 87c0 7.45 5.56 13 13 13 7.42 0 13-5.55 13-13 0-7.46-5.58-13-13-13-7.44 0-13 5.5-13 13z"/>
    <path id="l3u3h" d="M456 89.1V75h4.97v13.4c0 4.24 2.3 6.81 6.04 6.81 3.76 0 6.02-2.62 6.02-6.81V75H478v14.1c0 6.57-4.32 10.9-11 10.9-6.64 0-11-4.33-11-10.9"/>
    <path id="l3u3i" d="M504.29 87.1a7.88 7.88 0 0 1-8.08 8.06 7.82 7.82 0 0 1-8.04-8.06c0-4.63 3.4-8.06 8.04-8.06a7.86 7.86 0 0 1 8.08 8.06zm-.36-21.1v11.07a12.5 12.5 0 0 0-8.12-2.86c-7.45 0-12.81 5.5-12.81 12.89 0 7.37 5.36 12.9 12.81 12.9a12.4 12.4 0 0 0 8.7-3.4l.66 2.79H509V66z"/>
    <path id="l3u3j" d="M259.94 84.72l-.03-.3c-.05-.4-.1-.79-.18-1.17l-.07-.3c-.07-.3-.14-.6-.23-.88l-.1-.37c-.12-.34-.24-.68-.38-1l-.17-.4-.35-.73c-.06-.12-.11-.23-.18-.34a13.98 13.98 0 0 0-2.24-3.02l-.23-.22c-.27-.27-.56-.54-.86-.79l-.11-.09c-.29-.23-.58-.44-.88-.65l-.2-.14-.15-.1a16.29 16.29 0 0 0-28.06-10.12 13.76 13.76 0 0 0-15.66 10.6 13.24 13.24 0 0 0-7.85 12.57c.26 7.16 6.37 12.73 13.54 12.73h15.28a5.68 5.68 0 0 0-5.68-5.68h-9.67c-4.16 0-7.72-3.25-7.8-7.4a7.54 7.54 0 0 1 7.55-7.68h.16a8.08 8.08 0 0 1 6.5-9.52 8.05 8.05 0 0 1 5.8 1.2 10.58 10.58 0 0 1 19.91 6.9c.15.02.3.06.44.1l.31.08.41.14.32.12a8.88 8.88 0 0 1 1.68.91l.3.22.3.24.3.26.25.24c.17.17.33.35.49.54l.16.2.3.4.16.27.23.38.15.29a8.05 8.05 0 0 1 .7 1.89l.06.3c.04.17.06.35.08.52l.04.26a8.3 8.3 0 0 1-8.3 9.14 8.34 8.34 0 0 1-8.34-8.33h3.4a.1.1 0 0 0 .1-.16l-5.82-10.07a.6.6 0 0 0-1.04 0l-5.82 10.07a.1.1 0 0 0 .1.16h3.4c0 3.12 1.04 6 2.77 8.33a14 14 0 0 0 25.2-9.6"/>
  </defs>
  <g>
    <g transform="translate(-202 -59)">
      <g>
        <use fill="#161632" fill-opacity=".8" xlink:href="#l3u3a"/>
      </g>
      <g>
        <use fill="#161632" fill-opacity=".8" xlink:href="#l3u3b"/>
      </g>
      <g>
        <use fill="#161632" fill-opacity=".8" xlink:href="#l3u3c"/>
      </g>
      <g>
        <use fill="#161632" fill-opacity=".8" xlink:href="#l3u3d"/>
      </g>
      <g>
        <use fill="#161632" fill-opacity=".8" xlink:href="#l3u3e"/>
      </g>
      <g>
        <use fill="#161632" fill-opacity=".8" xlink:href="#l3u3f"/>
      </g>
      <g>
        <use fill="#161632" fill-opacity=".8" xlink:href="#l3u3g"/>
      </g>
      <g>
        <use fill="#161632" fill-opacity=".8" xlink:href="#l3u3h"/>
      </g>
      <g>
        <use fill="#161632" fill-opacity=".8" xlink:href="#l3u3i"/>
      </g>
      <g>
        <use fill="#161632" fill-opacity=".8" xlink:href="#l3u3j"/>
      </g>
    </g>
  </g>
</svg>