<?xml version="1.0" encoding="UTF-8"?>
<svg width="247px" height="82px" viewBox="0 0 247 82" version="1.1" xmlns="http://www.w3.org/2000/svg" xmlns:xlink="http://www.w3.org/1999/xlink">
    <!-- Generator: Sketch 53.2 (72643) - https://sketchapp.com -->
    <title>nordcloud</title>
    <desc>Created with Sketch.</desc>
    <g id="nordcloud" stroke="none" stroke-width="1" fill="none" fill-rule="evenodd" fill-opacity="0.8">
        <g transform="translate(27.386634, 27.833786)" fill="#161632" fill-rule="nonzero" id="Group">
            <g transform="translate(45.394153, 5.596539)">
                <g id="l3u3a-link">
                    <polygon id="l3u3a" points="16.1677806 0 16.1677806 19.8988069 13.4441314 19.8988069 3.1838091 5.68981509 3.1838091 19.8988069 0 19.8988069 0 0 2.92885564 0 12.9901899 13.9726935 12.9901899 0"></polygon>
                </g>
            </g>
            <g transform="translate(64.671122, 9.327566)">
                <g id="l3u3b-link">
                    <path d="M13.0026266,8.0838903 C13.0026266,11.0376194 10.9505622,13.1394309 8.0838903,13.1394309 C5.22343681,13.1394309 3.16515397,11.0376194 3.16515397,8.0838903 C3.16515397,5.13016115 5.21721843,3.02834967 8.0838903,3.02834967 C10.9443438,3.02834967 13.0026266,5.13016115 13.0026266,8.0838903 Z M0,8.0838903 C0,12.7165813 3.4574177,16.1677806 8.0838903,16.1677806 C12.6979261,16.1677806 16.1677806,12.7165813 16.1677806,8.0838903 C16.1677806,3.44498094 12.6979261,0 8.0838903,0 C3.4574177,0 0,3.42010743 0,8.0838903 Z" id="l3u3b"></path>
                </g>
            </g>
            <g transform="translate(84.569929, 9.949403)">
                <g id="l3u3c-link">
                    <path d="M8.70572801,0 L8.70572801,3.00347616 L7.04542131,3.00347616 C4.44613966,3.00347616 3.14649884,4.49588668 3.14649884,7.30037478 L3.14649884,15.5459429 L0,15.5459429 L0,0.0870572801 L2.12668499,0.0870572801 L2.66146542,2.20130551 C3.7558998,0.727550127 5.25452869,0 7.34390342,0 L8.70572801,0 Z" id="l3u3c"></path>
                </g>
            </g>
            <g transform="translate(93.897495, 4.352864)">
                <g id="l3u3d-link">
                    <path d="M13.238925,13.1207758 C13.2700001,14.4615017 12.7502092,15.756375 11.8007439,16.7034902 C10.8512786,17.6506053 9.55512095,18.1671856 8.21447622,18.1327878 C6.87494159,18.1711366 5.57895685,17.6549911 4.63255261,16.7062326 C3.68614837,15.7574741 3.17322429,14.460211 3.21490099,13.1207758 C3.21490099,10.2416672 5.32914922,8.1087638 8.21447622,8.1087638 C9.55616341,8.07074674 10.8544424,8.58616072 11.8047146,9.53408081 C12.7549868,10.4820009 13.2736168,11.7789985 13.238925,13.1207758 L13.238925,13.1207758 Z M13.0150634,0 L13.0150634,6.88374351 C11.5956319,5.71175072 9.80633569,5.08153061 7.96574113,5.10528764 C3.33305015,5.10528764 0,8.52539507 0,13.1207758 C0,17.7037197 3.33305015,21.1424823 7.96574113,21.1424823 C9.97571881,21.169853 11.9169256,20.4112204 13.3757293,19.0282341 L13.7861421,20.7631613 L16.1677806,20.7631613 L16.1677806,0 L13.0150634,0 Z" id="l3u3d"></path>
                </g>
            </g>
            <g transform="translate(113.174464, 9.327566)">
                <g id="l3u3e-link">
                    <path d="M0,8.06523516 C0,3.46363607 3.43254419,0 7.97195951,0 C11.7278593,0 14.6629333,2.33189143 15.5086326,5.87014803 L12.4118808,5.87014803 C11.637848,4.1135232 9.88501723,2.99318239 7.96574113,3.02834967 C5.22965518,3.02834967 3.17759072,5.21721843 3.17759072,8.07767192 C3.17759072,10.9381254 5.25452869,13.1394309 7.96574113,13.1394309 C9.95562182,13.1394309 11.5661815,12.0512149 12.3932257,10.1794834 L15.5459429,10.1794834 C14.7803741,13.736578 11.597157,16.2492321 7.95952275,16.1677806 C3.43876256,16.1677806 0,12.6730526 0,8.06523516" id="l3u3e"></path>
                </g>
            </g>
            <g transform="translate(131.829596, 4.352864)">
                <g id="l3u3f-link">
                    <polygon id="l3u3f" points="0 20.5206446 3.10918858 20.5206446 3.10918858 0 0 0"></polygon>
                </g>
            </g>
            <g transform="translate(138.047973, 9.327566)">
                <g id="l3u3g-link">
                    <path d="M13.0026266,8.0838903 C13.0026266,11.0376194 10.9505622,13.1394309 8.0838903,13.1394309 C5.22343681,13.1394309 3.16515397,11.0376194 3.16515397,8.0838903 C3.16515397,5.13016115 5.21721843,3.02834967 8.0838903,3.02834967 C10.9443438,3.02834967 13.0026266,5.13016115 13.0026266,8.0838903 Z M0,8.0838903 C0,12.7165813 3.4574177,16.1677806 8.0838903,16.1677806 C12.6979261,16.1677806 16.1677806,12.7165813 16.1677806,8.0838903 C16.1677806,3.44498094 12.6979261,0 8.0838903,0 C3.4574177,0 0,3.42010743 0,8.0838903 Z" id="l3u3g"></path>
                </g>
            </g>
            <g transform="translate(157.946780, 9.949403)">
                <g id="l3u3h-link">
                    <path d="M0,8.76791178 L0,0 L3.09053344,0 L3.09053344,8.33262538 C3.09053344,10.9692173 4.52076019,12.5673402 6.84643324,12.5673402 C9.18454305,12.5673402 10.5898963,10.9381254 10.5898963,8.33262538 L10.5898963,0 L13.6804297,0 L13.6804297,8.76791178 C13.6804297,12.8533856 10.9940908,15.5459429 6.84021487,15.5459429 C2.71121244,15.5459429 0,12.8533856 0,8.76791178" id="l3u3h"></path>
                </g>
            </g>
            <g transform="translate(174.736398, 4.352864)">
                <g id="l3u3i-link">
                    <path d="M13.238925,13.1207758 C13.2700001,14.4615017 12.7502092,15.756375 11.8007439,16.7034902 C10.8512786,17.6506053 9.55512095,18.1671856 8.21447622,18.1327878 C6.87494159,18.1711366 5.57895685,17.6549911 4.63255261,16.7062326 C3.68614837,15.7574741 3.17322429,14.460211 3.21490099,13.1207758 C3.21490099,10.2416672 5.32914922,8.1087638 8.21447622,8.1087638 C9.55616341,8.07074674 10.8544424,8.58616072 11.8047146,9.53408081 C12.7549868,10.4820009 13.2736168,11.7789985 13.238925,13.1207758 L13.238925,13.1207758 Z M13.0150634,0 L13.0150634,6.88374351 C11.5956319,5.71175072 9.80633569,5.08153061 7.96574113,5.10528764 C3.33305015,5.10528764 0,8.52539507 0,13.1207758 C0,17.7037197 3.33305015,21.1424823 7.96574113,21.1424823 C9.97571881,21.169853 11.9169256,20.4112204 13.3757293,19.0282341 L13.7861421,20.7631613 L16.1677806,20.7631613 L16.1677806,0 L13.0150634,0 Z" id="l3u3i"></path>
                </g>
            </g>
            <g>
                <g id="l3u3j-link">
                    <path d="M36.0292772,15.993666 L36.0106221,15.8071147 C35.9795302,15.5583796 35.9484383,15.3158629 35.8986913,15.0795646 L35.8551627,14.8930133 C35.811634,14.706462 35.7681054,14.5199106 35.71214,14.3457961 L35.6499562,14.1157161 C35.5753357,13.9042913 35.5007152,13.6928665 35.4136579,13.4938784 L35.3079455,13.2451433 L35.0903023,12.7912018 C35.052992,12.7165813 35.0219001,12.6481791 34.9783715,12.579777 C34.6007505,11.8939252 34.1322082,11.2622297 33.585455,10.7018271 L33.4424323,10.5650228 C33.2745361,10.3971266 33.0942032,10.2292304 32.9076519,10.073771 L32.8392497,10.0178056 C32.6589168,9.87478292 32.4785839,9.744197 32.2920325,9.61361108 L32.167665,9.5265538 L32.0743893,9.46437002 C31.8023157,5.45447956 29.1852992,1.98469946 25.4045599,0.621154136 C21.6238206,-0.74239119 17.3945288,0.258228552 14.6256231,3.17137235 C10.1448814,2.4367388 5.87056699,5.3299529 4.88764444,9.76285213 C1.81812827,11.1283803 -0.113810905,14.221944 0.00621837715,17.5793522 C0.167896183,22.0317102 3.96732462,25.4953463 8.42590104,25.4953463 L17.9275813,25.4953463 C17.9275813,23.5446555 16.3462339,21.9633081 14.3955431,21.9633081 L8.3823724,21.9633081 C5.7955275,21.9633081 3.58178524,19.9423355 3.53203822,17.361709 C3.50864492,16.1021062 3.99313671,14.8860833 4.87632791,13.9876849 C5.75951912,13.0892864 6.96709435,12.5841073 8.22691297,12.5859954 L8.32640701,12.5859954 C8.06499997,11.2636261 8.34589808,9.89167843 9.10597868,8.77845268 C9.86605929,7.66522693 11.0415696,6.90409642 12.3683522,6.66610031 C13.6217158,6.44745605 14.9113056,6.71426774 15.9750109,7.41230556 C17.3772017,4.31390662 20.9097543,2.79487041 24.1231673,3.90850929 C27.3365804,5.02214816 29.1715963,8.40136634 28.3557998,11.7029858 C28.4490755,11.7154226 28.5423511,11.7402961 28.6294084,11.7651696 L28.8221781,11.8149166 L29.0771316,11.9019739 L29.2761196,11.9765944 C29.6436866,12.1270979 29.9939426,12.3168199 30.320807,12.5424667 L30.5073583,12.679271 L30.6939096,12.8285121 L30.8804609,12.9901899 L31.0359204,13.1394309 C31.1416328,13.2451433 31.2411268,13.3570741 31.3406208,13.4752233 L31.4401149,13.5995908 L31.6266662,13.8483259 L31.7261602,14.0162221 L31.8691829,14.2525204 L31.9624586,14.4328534 C32.1562166,14.8048288 32.302458,15.1996805 32.397745,15.6081266 L32.4350552,15.794678 C32.4599287,15.9003904 32.4723655,16.0123212 32.4848022,16.1180336 L32.5096757,16.2797114 C32.6578963,17.7365603 32.1802895,19.1877941 31.1958385,20.2718764 C30.2113874,21.3559586 28.8127729,21.9708287 27.3484227,21.9633081 C24.4866308,21.9633102 22.1657276,19.6451898 22.1622962,16.7833999 L24.2765444,16.7833999 C24.302298,16.7891734 24.3288907,16.7780606 24.3428789,16.7556795 C24.3568671,16.7332984 24.3552031,16.7045253 24.3387282,16.6839059 L20.7196327,10.4220001 C20.6530472,10.3063279 20.5297449,10.2350338 20.3962771,10.2350338 C20.2628092,10.2350338 20.1395069,10.3063279 20.0729214,10.4220001 L16.4538259,16.6839059 C16.437351,16.7045253 16.435687,16.7332984 16.4496752,16.7556795 C16.4636634,16.7780606 16.4902561,16.7891734 16.5160097,16.7833999 L18.6302579,16.7833999 C18.6302579,18.7235336 19.2769692,20.5144262 20.3527484,21.9633081 C22.6741774,25.1040972 26.8031905,26.3145013 30.4529111,24.9241316 C34.1026317,23.5337618 36.3797448,19.8829286 36.0230588,15.993666" id="l3u3j"></path>
                </g>
            </g>
        </g>
    </g>
</svg>