<?xml version="1.0" encoding="UTF-8"?>
<svg width="247px" height="82px" viewBox="0 0 247 82" version="1.1" xmlns="http://www.w3.org/2000/svg" xmlns:xlink="http://www.w3.org/1999/xlink">
    <!-- Generator: Sketch 53.2 (72643) - https://sketchapp.com -->
    <title>Nortal</title>
    <desc>Created with Sketch.</desc>
    <g id="Nortal" stroke="none" stroke-width="1" fill="none" fill-rule="evenodd">
        <g id="nortal-(1)" transform="translate(57.007141, 17.533643)" fill-rule="nonzero">
            <polygon id="Path" fill="#000000" points="44.4728338 11.706695 48.8475357 11.706695 58.4488267 27.0820881 58.4488267 11.706695 63.1819335 11.706695 63.1819335 35.1651108 58.8396502 35.1651108 49.2059407 19.9211929 49.2059407 35.1651108 44.4728338 35.1651108"></polygon>
            <path d="M73.9502919,35.6910116 C71.2067229,35.6910116 69.0839088,34.9021604 67.5818498,33.3244581 C66.0797908,31.7467559 65.3287613,29.4906656 65.3287613,26.5561874 C65.3109285,25.2666237 65.5150183,23.9835993 65.9321063,22.7632182 C66.2979129,21.6976231 66.8881302,20.7229354 67.6628962,19.9049836 C68.4302462,19.1163618 69.3609581,18.5053131 70.3896556,18.1147598 C72.7008065,17.2814956 75.2303948,17.2814956 77.5415457,18.1147598 C78.5704835,18.5048421 79.5012918,19.115954 80.2683051,19.9049836 C81.0423272,20.7206112 81.6276577,21.696367 81.9828857,22.7632182 C82.3885884,23.9859473 82.5864419,25.2680379 82.5682205,26.5561874 C82.5887238,27.8577118 82.3846177,29.1530235 81.9648754,30.3851772 C81.5983675,31.4543089 81.0090451,32.4334435 80.2358866,33.25782 C79.4716322,34.0527754 78.54026,34.6679486 77.5091272,35.05885 C76.3723008,35.4876411 75.1651935,35.699618 73.9502919,35.6838074 M73.9502919,32.0025021 C75.256639,32.0025021 76.2303959,31.5318329 76.8715626,30.5904946 C77.5127292,29.6491562 77.8339129,28.3019858 77.8351136,26.5489833 C77.8351136,24.7983821 77.5139299,23.4626182 76.8715626,22.5416915 C76.2291952,21.6207648 75.2554383,21.1609018 73.9502919,21.1621025 C72.6451455,21.1621025 71.6707883,21.6219655 71.0272202,22.5416915 C70.3836521,23.4614175 70.0612678,24.7995828 70.0600671,26.5561874 C70.0600671,28.3308023 70.3758477,29.6833758 71.0074089,30.613908 C71.6389701,31.5444401 72.6187304,32.0097062 73.9466898,32.0097062" id="Shape" fill="#000000"></path>
            <path d="M84.7762832,17.8662176 L89.2176232,17.8662176 L89.2176232,20.6920337 C90.285634,17.7653599 94.8062193,17.830197 95.0223429,17.8662176 L95.0223429,21.7222229 C94.0666757,21.6380727 93.1036712,21.7283925 92.1803176,21.9887753 C90.7899224,22.3994101 89.3472974,23.3305427 89.3472974,25.2306293 L89.3472974,35.1525036 L84.7762832,35.1525036 L84.7762832,17.8626156 L84.7762832,17.8662176 Z" id="Path" fill="#000000"></path>
            <path d="M99.5969591,21.7420342 L96.4631669,21.7420342 L96.4631669,17.8842279 L99.5969591,17.8842279 L99.5969591,13.3168158 L104.171575,13.3168158 L104.171575,17.8842279 L108.090617,17.8842279 L108.090617,21.7420342 L104.171575,21.7420342 L104.171575,29.3820035 C104.171575,30.2813178 104.356481,30.8894656 104.726293,31.2064469 C105.132605,31.5351743 105.644955,31.70425 106.167117,31.6819188 C106.478122,31.6816526 106.788908,31.6654219 107.098249,31.633291 C107.413241,31.6002302 107.724781,31.539971 108.029382,31.453188 L109.00554,34.7346646 C108.298451,34.9576656 107.576153,35.1292113 106.844304,35.2479582 C106.275745,35.3221504 105.703097,35.3606478 105.129723,35.3632241 C103.256652,35.3632241 101.868658,34.9141673 100.965742,34.0160537 C100.062826,33.11794 99.6065646,31.6068759 99.5969591,29.4828611 L99.5969591,21.7384321 L99.5969591,21.7420342 Z" id="Path" fill="#000000"></path>
            <path d="M121.506489,32.9948696 C120.855601,33.7411465 120.085781,34.37465 119.228186,34.8697419 C118.387705,35.3500165 117.307087,35.5901539 115.986332,35.5901539 C115.255946,35.5943895 114.528535,35.4967951 113.825096,35.300188 C113.168415,35.1190781 112.555579,34.8059189 112.024066,34.3798617 C111.499307,33.9484856 111.080356,33.4026166 110.799366,32.7841491 C110.477354,32.0561103 110.321103,31.2656267 110.341904,30.4698256 C110.341904,29.2871492 110.603053,28.3265999 111.125352,27.5881776 C111.651299,26.8418321 112.359303,26.2423225 113.182128,25.8465816 C114.086479,25.4131931 115.049452,25.1146532 116.040363,24.9604748 C117.104087,24.7839251 118.177782,24.6738489 119.255202,24.6308863 L121.443453,24.5318297 L121.443453,23.6763404 C121.443453,22.6269403 121.154688,21.9065283 120.577158,21.5151044 C119.974009,21.112803 119.261377,20.9064981 118.536591,20.9243666 C116.735561,20.9243666 115.701769,21.6141611 115.435217,22.99375 L111.256827,22.5993245 C111.560601,20.7982945 112.341047,19.5009525 113.598166,18.7072986 C114.855285,17.9136447 116.553056,17.5138161 118.691479,17.5078127 C119.82031,17.4809747 120.945732,17.642271 122.021584,17.9850856 C122.856544,18.2521652 123.613404,18.7196375 124.226044,19.3466643 C124.793416,19.9618811 125.207483,20.7023887 125.434536,21.5079003 C125.696234,22.432168 125.823016,23.3893989 125.810951,24.3499256 L125.810951,35.1903252 L121.506489,35.1903252 L121.506489,32.9948696 Z M121.407432,27.5107333 L119.383075,27.6079889 C118.602964,27.6283866 117.826942,27.7279541 117.06695,27.9051589 C116.584021,28.0126254 116.124548,28.2066659 115.710775,28.4778864 C115.42237,28.6758293 115.20071,28.956514 115.075011,29.2829468 C114.961966,29.61136 114.90652,29.9568368 114.911117,30.3041308 C114.887402,30.8192792 115.105154,31.3160458 115.500054,31.6476992 C115.891478,31.977888 116.435389,32.1429825 117.131787,32.1429825 C118.306059,32.1429825 119.266008,31.8692259 120.00443,31.3199117 C120.935553,30.6447017 121.463713,29.5457223 121.409233,28.39684 L121.409233,27.5107333 L121.407432,27.5107333 Z" id="Shape" fill="#000000"></path>
            <rect id="Rectangle" fill="#000000" x="128.487281" y="11.708496" width="4.57101415" height="23.4566148"></rect>
            <rect id="Rectangle" fill="#009639" x="0" y="1.95771961" width="1.95591858" height="43.0482191" rx="0.977959291"></rect>
            <rect id="Rectangle" fill="#009639" x="7.82547536" y="1.95771961" width="1.95591858" height="43.0482191" rx="0.977959291"></rect>
            <rect id="Rectangle" fill="#009639" x="11.7391136" y="7.82727639" width="1.95591858" height="23.4800281" rx="0.977959291"></rect>
            <rect id="Rectangle" fill="#009639" x="19.5663899" y="15.6545528" width="1.95591858" height="23.4800281" rx="0.977959291"></rect>
            <rect id="Rectangle" fill="#009639" x="15.6527518" y="11.7409146" width="1.95591858" height="23.4800281" rx="0.977959291"></rect>
            <rect id="Rectangle" fill="#009639" x="23.4800281" y="1.95771961" width="1.95591858" height="43.0482191" rx="0.977959291"></rect>
            <rect id="Rectangle" fill="#009639" x="31.3055035" y="1.95771961" width="1.95591858" height="43.0482191" rx="0.977959291"></rect>
            <rect id="Rectangle" fill="#009639" x="27.3936663" y="0" width="1.95591858" height="46.9618573" rx="0.977959291"></rect>
            <rect id="Rectangle" fill="#009639" x="3.91183717" y="0" width="1.95591858" height="46.9618573" rx="0.977959291"></rect>
        </g>
    </g>
</svg>