<?xml version="1.0" encoding="utf-8"?>
<!-- Generator: Adobe Illustrator 21.1.0, SVG Export Plug-In . SVG Version: 6.00 Build 0)  -->
<svg version="1.1" id="Layer_1"
  xmlns="http://www.w3.org/2000/svg"
  xmlns:xlink="http://www.w3.org/1999/xlink" x="0px" y="0px"
	 viewBox="0 0 247 82" style="enable-background:new 0 0 247 82;" xml:space="preserve">
  <style type="text/css">
	.st0{fill:none;}
	.st1{fill:#202D3E;}
</style>
  <g>
    <rect class="st0" width="247" height="82"/>
    <g>
      <rect x="80.9" y="22.4" class="st1" width="0.4" height="37.1"/>
      <path class="st1" d="M48.8,43h0.7c2.7-0.1,5.3-1.3,7.2-3.3l0.1-0.1l0.3-0.3c0,0,0-0.1,0.1-0.1l0.1-0.1c2.4-3,2.8-7.2,1.2-10.6
			l0-0.1c-1.7-3.6-5.3-5.9-9.3-5.9H35c-0.3,0-0.5,0.2-0.5,0.5v36c0,0.3,0.2,0.5,0.5,0.5h7.1v-7.4v-8.6c0-0.2,0.1-0.4,0.3-0.5
			L48.8,43L48.8,43z M46.8,37.4h-4.3c-0.3,0-0.5-0.2-0.5-0.5v-8.3c0-0.3,0.2-0.5,0.5-0.5c0.4,0,4.6,0,5.7-0.1
			c2.6-0.1,4.8,1.9,4.9,4.5c0.1,1.4-0.5,2.8-1.5,3.7l-0.1,0.1l-0.1,0.1l-0.2,0.2c-0.2,0.1-0.3,0.2-0.5,0.3l-0.1,0
			c-0.6,0.3-1.3,0.5-1.9,0.5L46.8,37.4z"/>
      <path class="st1" d="M58.9,41c-1.3,1.8-3,3.1-5.1,3.8c1.7,1.9,1.5,4.9-0.4,6.6c-0.8,0.7-1.9,1.1-2.9,1.2h-6.8v7h6.6
			c6.3,0,11.3-5.1,11.3-11.3c0-2.5-0.8-5-2.4-7L58.9,41z"/>
      <path class="st1" d="M102.7,39h3.4c0.1,0,0.1-0.1,0.1-0.1v-4.2c0-0.1,0.1-0.2,0.2-0.2c0,0,0,0,0,0h2.3c2.9,0,4.8-2.2,4.8-5.2
			c0.2-2.6-1.8-4.9-4.4-5.1c-0.2,0-0.3,0-0.5,0h-6c-0.1,0-0.2,0.1-0.2,0.2v14.5C102.5,39,102.6,39,102.7,39
			C102.7,39,102.7,39,102.7,39z M106.3,27.2h2.3c1,0,1.8,0.7,1.8,1.7c0,0.1,0,0.2,0,0.3c0.1,1-0.6,1.9-1.6,2c-0.1,0-0.2,0-0.3,0
			h-2.2c-0.1,0-0.1-0.1-0.1-0.1c0,0,0,0,0,0v-3.7C106.2,27.3,106.3,27.3,106.3,27.2L106.3,27.2z"/>
      <path class="st1" d="M117.5,39h9.2c0.1,0,0.2-0.1,0.2-0.2v-2.6c0-0.1-0.1-0.2-0.2-0.2h-5.5c-0.2,0-0.3-0.1-0.3-0.3c0,0,0,0,0,0
			V24.4c0-0.1-0.1-0.2-0.2-0.2c0,0,0,0,0,0h-3.1c-0.1,0-0.2,0.1-0.2,0.2c0,0,0,0,0,0v14.4C117.2,38.9,117.3,39,117.5,39z"/>
      <path class="st1" d="M129.5,39h3.2c0.1,0,0.2-0.1,0.2-0.2l0.8-2.8c0-0.1,0.1-0.2,0.2-0.2h4.3c0.1,0,0.2,0.1,0.2,0.2l0.8,2.8
			c0,0.1,0.1,0.2,0.2,0.2h3.2c0.1,0,0.3-0.1,0.3-0.2c0,0,0-0.1,0-0.1l-4.9-14.4c0-0.1-0.1-0.2-0.2-0.2h-3.5c-0.1,0-0.2,0.1-0.2,0.2
			l-4.9,14.4C129.2,38.8,129.3,39,129.5,39C129.4,39,129.4,39,129.5,39L129.5,39z M134.8,32.6l0.7-3.5c0.1-0.3,0.2-0.6,0.3-1
			c0-0.2,0.2-0.3,0.4-0.3c0.1,0,0.2,0.1,0.3,0.3c0.1,0.4,0.2,0.7,0.3,1l0.7,3.5c0,0.2,0,0.3-0.2,0.4H135
			C134.8,33,134.7,32.8,134.8,32.6C134.7,32.6,134.7,32.6,134.8,32.6L134.8,32.6z"/>
      <path class="st1" d="M158.5,24.2h-3.1c-0.1,0-0.2,0.1-0.2,0.2l0.1,9c0,0-0.1,0.1-0.1,0c0,0,0,0,0,0l-5.1-9.1
			c0-0.1-0.1-0.1-0.2-0.1h-3.3c-0.1,0-0.2,0.1-0.2,0.2v14.4c0,0.1,0.1,0.2,0.2,0.2h3.1c0.1,0,0.2-0.1,0.2-0.2l-0.2-8.9
			c0,0,0-0.1,0.1-0.1c0,0,0.1,0,0.1,0.1l5.2,9.1c0,0.1,0.1,0.1,0.2,0.1h3.3c0.1,0,0.2-0.1,0.2-0.2V24.4
			C158.7,24.3,158.6,24.2,158.5,24.2z"/>
      <path class="st1" d="M111.4,49.8c1.1-0.7,1.8-1.9,1.7-3.2c0-2.6-2.1-3.9-5.1-3.9h-5.2c-0.1,0-0.2,0.1-0.2,0.2v14.3
			c0,0.1,0.1,0.2,0.2,0.2h5.2c3,0,5.7-1.2,5.7-4.4C113.7,51.7,112.8,50.3,111.4,49.8z M106.2,46.2c0-0.2,0.1-0.3,0.3-0.3h1.5
			c0.7-0.1,1.3,0.4,1.4,1c0,0.1,0,0.1,0,0.2c0.1,0.7-0.4,1.3-1.1,1.4c0,0,0,0,0,0h-1.7c-0.2,0-0.3-0.1-0.3-0.3L106.2,46.2z
			 M108.6,54.5h-0.2h-1.9c-0.2,0-0.3-0.1-0.3-0.3v-2.5c0-0.2,0.1-0.3,0.3-0.3h1.9c0.8-0.1,1.5,0.5,1.6,1.3c0,0.1,0,0.2,0,0.3
			C110.1,53.7,109.4,54.4,108.6,54.5C108.6,54.5,108.6,54.5,108.6,54.5L108.6,54.5z"/>
      <path class="st1" d="M125.4,52.4c-0.2-0.3-0.4-0.6-0.6-0.9c1.4-0.8,2.3-2.4,2.2-4.1c0.1-1.9-1-3.6-2.7-4.3
			c-0.9-0.3-1.9-0.4-2.9-0.3h-4.9c-0.1,0-0.2,0.1-0.2,0.2v14.3c0,0.1,0.1,0.2,0.2,0.2h3.1c0.1,0,0.2-0.1,0.2-0.2v-4.5
			c0-0.1,0.1-0.2,0.2-0.2h1.3c0.1,0,0.2,0.1,0.2,0.1l2.5,4.8c0,0.1,0.1,0.1,0.2,0.1h3.5c0.1,0,0.2-0.1,0.2-0.3c0,0,0-0.1,0-0.1
			L125.4,52.4z M121.5,49.5h-1.3c-0.2,0-0.3-0.1-0.3-0.3v-3c0-0.2,0.1-0.3,0.3-0.3h0.9c1.8,0,2.2,0.7,2.2,1.8c0.1,1-0.6,1.8-1.6,1.9
			C121.7,49.5,121.6,49.5,121.5,49.5z"/>
      <path class="st1" d="M137.2,42.5c-4.2-0.1-7.6,3.1-7.8,7.3c0,0.1,0,0.2,0,0.3c0,4.3,3.5,7.8,7.8,7.8c4.3,0,7.8-3.5,7.8-7.8
			c0-4.2-3.3-7.6-7.5-7.6C137.4,42.5,137.3,42.5,137.2,42.5z M141.2,50.1c0,2.2-1.8,4-4,4s-4-1.8-4-4s1.8-4,4-4
			S141.2,47.9,141.2,50.1z"/>
      <path class="st1" d="M158.2,42.7H146c-0.1,0-0.2,0.1-0.2,0.2c0,0,0,0,0,0v2.6c0,0.1,0.1,0.2,0.2,0.2h4c0.1,0,0.2,0.1,0.2,0.2v11.3
			c0,0.1,0.1,0.2,0.2,0.2h3.1c0.1,0,0.2-0.1,0.2-0.2c0,0,0,0,0,0V46.1c0-0.1,0.1-0.2,0.2-0.2h4c0.1,0,0.2-0.1,0.2-0.2V43
			C158.4,42.9,158.3,42.8,158.2,42.7z"/>
      <path class="st1" d="M172.7,42.7h-3.1c-0.1,0-0.2,0.1-0.2,0.2c0,0,0,0,0,0v5.4c0,0.1-0.1,0.2-0.2,0.2c0,0,0,0,0,0h-4.9
			c-0.1,0-0.2-0.1-0.2-0.2c0,0,0,0,0,0V43c0-0.1-0.1-0.2-0.2-0.2c0,0,0,0,0,0h-3.1c-0.1,0-0.2,0.1-0.2,0.2c0,0,0,0,0,0v14.4
			c0,0.1,0.1,0.2,0.2,0.2h3.1c0.1,0,0.2-0.1,0.2-0.2c0,0,0,0,0,0V52c0-0.1,0.1-0.2,0.2-0.2h4.9c0.1,0,0.2,0.1,0.2,0.2v5.3
			c0,0.1,0.1,0.2,0.2,0.2h3.1c0.1,0,0.2-0.1,0.2-0.2c0,0,0,0,0,0V43C173,42.9,172.9,42.8,172.7,42.7
			C172.7,42.7,172.7,42.7,172.7,42.7z"/>
      <path class="st1" d="M185.8,54.5h-5.5c-0.1,0-0.2-0.1-0.2-0.2c0,0,0,0,0,0v-2.3c0-0.1,0.1-0.2,0.2-0.2h4c0.1,0,0.2-0.1,0.2-0.2
			c0,0,0,0,0,0v-2.6c0-0.1-0.1-0.2-0.2-0.2c0,0,0,0,0,0h-4.1c-0.1,0-0.2-0.1-0.2-0.2c0,0,0,0,0,0v-2.2c0-0.1,0.1-0.2,0.2-0.2h5.2
			c0.1,0,0.2-0.1,0.2-0.2V43c0-0.1-0.1-0.2-0.2-0.2h-8.8c-0.1,0-0.2,0.1-0.2,0.2c0,0,0,0,0,0v14.4c0,0.1,0.1,0.2,0.2,0.2h9.1
			c0.1,0,0.2-0.1,0.2-0.2v-2.6C186,54.6,185.9,54.5,185.8,54.5z"/>
      <path class="st1" d="M197.8,52.4c-0.2-0.3-0.4-0.6-0.6-0.9c1.4-0.8,2.3-2.4,2.2-4c0.1-1.9-1-3.6-2.7-4.3c-0.9-0.3-1.9-0.4-2.9-0.3
			H189c-0.1,0-0.2,0.1-0.2,0.2v14.3c0,0.1,0.1,0.2,0.2,0.2h3.1c0.1,0,0.2-0.1,0.2-0.2v-4.5c0-0.1,0.1-0.2,0.2-0.2c0,0,0,0,0,0h1.3
			c0.1,0,0.2,0.1,0.2,0.1l2.5,4.8c0,0.1,0.1,0.1,0.2,0.1h3.5c0.1,0,0.2-0.1,0.2-0.3c0,0,0-0.1,0-0.1L197.8,52.4z M193.9,49.5h-1.3
			c-0.2,0-0.3-0.1-0.3-0.3c0,0,0,0,0,0v-3c0-0.2,0.1-0.3,0.3-0.3h0.9c1.8,0,2.2,0.7,2.2,1.8c0.1,1-0.6,1.8-1.6,1.9
			C194.1,49.5,194,49.5,193.9,49.5z"/>
      <path class="st1" d="M205.8,47c0-0.8,0.8-1.2,1.6-1.2c1.1,0.1,2.2,0.5,3.1,1.2c0.1,0.1,0.3,0.1,0.3,0c0,0,0,0,0,0l1.3-2.5
			c0.1-0.1,0-0.2-0.1-0.3c-1.3-1.1-3-1.6-4.6-1.6c-3,0-5.3,1.8-5.3,4.5c0,4.6,6.7,4.5,6.7,6.3c0,0.9-0.8,1.2-1.6,1.2
			c-1.2-0.1-2.4-0.6-3.4-1.4c-0.1-0.1-0.2-0.1-0.3,0c0,0,0,0,0,0l-1.6,2.4c-0.1,0.1-0.1,0.2,0,0.3c1.4,1.3,3.3,2,5.3,2
			c3.4,0,5.2-2.1,5.2-4.6C212.5,48.5,205.8,48.9,205.8,47z"/>
    </g>
  </g>
</svg>
