<?xml version="1.0" encoding="UTF-8"?>
<svg width="247px" height="82px" viewBox="0 0 247 82" version="1.1" xmlns="http://www.w3.org/2000/svg" xmlns:xlink="http://www.w3.org/1999/xlink">
    <!-- Generator: Sketch 53.2 (72643) - https://sketchapp.com -->
    <title>Rentle</title>
    <desc>Created with Sketch.</desc>
    <g id="Rentle" stroke="none" stroke-width="1" fill="none" fill-rule="evenodd">
        <g id="rentle" transform="translate(44.305550, 19.318755)" fill="#260178" fill-rule="nonzero">
            <path d="M20.8280541,21.71431 L10.1923387,0 L31.4051146,0 C39.2222876,0 44.2733439,2.45157378 43.3115098,10.0398772 C42.4695806,18.678781 36.2158423,21.71431 28.3981503,21.71431 L20.8280541,21.71431 Z M20.8280541,21.71431 L31.4637694,43.42862 L12.0236127,43.42862 C4.20643982,43.42862 -0.845135652,40.9770462 0.117217504,33.3887427 C0.959146747,24.749839 7.21288506,21.71431 15.030577,21.71431 L20.8280541,21.71431 Z" id="Fill-1"></path>
            <path d="M74.2657928,36.4026298 L68.1776026,36.4026298 L63.8861457,27.6746285 L60.5847886,27.6746285 L59.7043584,36.4026298 L53.7996337,36.4026298 L56.5136957,9.72282536 L65.5363116,9.72282536 C71.2949816,9.72282536 74.8525757,13.4583165 74.2294074,19.2136376 C73.8993739,22.605678 72.1385138,25.1972181 69.3142696,26.6835581 L74.2657928,36.4026298 Z M61.1587594,22.2463022 L63.8953703,22.2463022 C66.2993855,22.2463022 68.2227003,21.2568243 68.4814993,18.4407407 C68.7777097,15.9670462 67.2238887,15.1681384 64.8198735,15.1681384 L61.8613613,15.1681384 L61.1587594,22.2463022 Z M86.2863817,16.2568825 C90.0663894,16.2568825 94.7995988,18.8287817 94.7995988,25.1239627 C94.7995988,26.3140965 94.6899292,27.5036994 94.3962817,28.8090245 L80.9289792,28.8090245 C81.5157621,30.9206891 83.0203855,31.9186602 85.4054386,31.9186602 C87.8642887,31.9186602 88.7816172,31.2657323 89.9925931,30.6515553 L92.7819887,33.9146026 C90.9468197,35.7571335 88.6714355,36.9467364 84.9657362,36.9467364 C80.3785824,36.9467364 75.3512127,33.7994113 75.3512127,27.5806706 C75.3512127,21.2472693 80.5620475,16.2568825 86.2863817,16.2568825 Z M86.4011759,21.1570272 C84.4004777,21.1570272 82.6590912,22.1656151 81.6587421,24.4243212 L90.0694644,24.4243212 C89.6246367,22.0849281 88.290667,21.1570272 86.4011759,21.1570272 Z M109.42253,16.2568825 C112.951425,16.2568825 116.371677,18.7751673 115.753121,25.1090993 L114.58878,36.4026298 L108.84036,36.4026298 L109.967803,25.3761097 C110.331659,22.246833 108.876233,21.4840221 107.31165,21.4840221 C104.619625,21.4840221 103.055554,24.1164365 102.873113,24.9562187 L101.600128,36.4026298 L95.851195,36.4026298 L97.8524059,16.5621131 L103.600826,16.5621131 L103.236969,19.8814289 C103.673598,18.9275171 105.820351,16.2568825 109.42253,16.2568825 Z M130.62409,21.0970428 L126.503799,21.0970428 L125.650017,29.2135213 C125.53881,30.1026711 125.575708,31.0687922 126.949139,31.0687922 C127.988436,31.0687922 128.6936,30.9525392 129.770308,30.798066 L129.362379,35.7454551 C128.396878,36.1706545 127.060858,36.4026298 125.204165,36.4026298 C121.863348,36.4026298 119.190796,35.1657825 119.784241,28.9820769 L120.638022,21.0970428 L117.928573,21.0970428 L118.373912,16.0721517 L121.083362,16.0721517 L121.566625,11.3562069 L127.431377,9.72282536 L126.949139,16.0721517 L131.069942,16.0721517 L130.62409,21.0970428 Z M139.480152,9.72282536 L136.772752,36.4026298 L131.069942,36.4026298 L133.776829,9.72282536 L139.480152,9.72282536 Z M150.941119,16.2568825 C154.720614,16.2568825 159.454336,18.8287817 159.454336,25.1239627 C159.454336,26.3140965 159.344666,27.5036994 159.050506,28.8090245 L145.583204,28.8090245 C146.171011,30.9206891 147.675123,31.9186602 150.060176,31.9186602 C152.519026,31.9186602 153.436354,31.2657323 154.64733,30.6515553 L157.436214,33.9146026 C155.601557,35.7571335 153.326173,36.9467364 149.619961,36.9467364 C145.03332,36.9467364 140.005437,33.7994113 140.005437,27.5806706 C140.005437,21.2472693 145.216273,16.2568825 150.941119,16.2568825 Z M151.055913,21.1570272 C149.054702,21.1570272 147.313828,22.1656151 146.313479,24.4243212 L154.723689,24.4243212 C154.279374,22.0849281 152.945404,21.1570272 151.055913,21.1570272 Z" id="Fill-3"></path>
        </g>
    </g>
</svg>