<?xml version="1.0" encoding="UTF-8"?>
<svg width="247px" height="82px" viewBox="0 0 247 82" version="1.1" xmlns="http://www.w3.org/2000/svg" xmlns:xlink="http://www.w3.org/1999/xlink">
    <!-- Generator: Sketch 53.2 (72643) - https://sketchapp.com -->
    <title>logo/sympa</title>
    <desc>Created with Sketch.</desc>
    <defs>
        <polygon id="path-1" points="17.9075519 11.9627218 17.9075519 0.156113863 0.292066149 0.156113863 0.292066149 11.9627218"></polygon>
    </defs>
    <g id="logo/sympa" stroke="none" stroke-width="1" fill="none" fill-rule="evenodd">
        <g id="sympa-logo" transform="translate(66.348822, 13.366463)">
            <path d="M11.5934374,33.9129538 L7.55393584,33.9129538 C4.547732,33.4742977 2.07175514,33.1529258 0.820528006,31.2836677 C-2.03699506,27.0203545 3.75273093,22.3415769 8.3951027,23.0678112 C8.94841255,25.9985905 4.23475548,25.1173026 4.52397022,27.9977227 C4.89329608,31.6878674 17.4849996,30.0048063 20.5923607,29.5018757 C23.0500071,29.1043022 26.0996611,28.5874567 29.8547003,27.0362574 C31.3476186,26.4193558 34.6063762,24.7025009 34.1487923,22.0838168 C33.606345,18.9787677 24.6325412,17.7303869 20.8503457,16.9909001 C15.4747535,15.937993 9.52480533,14.8990009 6.37603079,13.2099761 C3.62305953,11.7369663 1.6521901,8.28138988 4.35492217,5.15977522 C8.73319878,0.110591697 22.6148272,-0.16572189 30.9504575,1.71082506 C32.8907761,2.14881854 37.532469,2.84788528 36.169901,5.818422 C30.696546,4.42293899 22.9726116,2.77698468 15.6329391,4.17445555 C13.0741354,4.66545883 9.91381951,5.84293903 10.2471633,8.44837073 C10.4983592,10.4176848 13.6749688,11.4049923 16.2072951,11.9940638 C22.5075598,13.4591221 29.0033499,13.8547078 34.991317,15.8399248 C38.4374531,16.9842739 42.6914896,19.1808675 40.5454619,23.7264579 C38.7185209,27.5961734 32.9172536,29.6125337 28.2572302,30.9556696 C23.1348706,32.4313299 17.5087614,33.5485114 11.5934374,33.9129538" id="Fill-1" fill="#E30613" fill-rule="nonzero"></path>
            <path d="M84.3532797,23.5991682 C84.3532797,22.1427239 85.3818252,20.9771709 87.6860379,20.9771709 C89.2081498,20.9771709 90.4430826,22.1427239 90.4430826,23.5991682 C90.4430826,25.0231439 89.2081498,26.2211654 87.6860379,26.2211654 C85.3818252,26.2211654 84.3532797,25.0231439 84.3532797,23.5991682 M46.0364006,50.3479136 C31.1934386,40.7206712 49.9143221,32.8911236 51.6625098,31.6725608 C51.6625098,35.9398498 49.5416017,52.6220341 46.0364006,50.3479136 M94.3101416,22.9683515 C94.3101416,19.7155376 91.3480673,17.0650476 87.6860379,17.0650476 C86.3282227,17.0650476 85.0525548,17.5070168 83.9832749,18.229938 C83.9418613,17.7482114 83.9004484,17.4665968 83.9004484,17.4665968 C83.7361525,16.9848703 82.625459,16.9848703 82.625459,16.9848703 C82.625459,16.9848703 81.5969142,17.0252902 81.4733526,17.4665968 C81.4407648,17.4984027 81.0823018,19.6711419 80.9268316,24.8952578 C80.9268316,25.8997935 79.9179745,26.3417627 79.4977311,26.3417627 C77.1113696,26.3417627 80.0741239,17.0650476 75.7949673,17.0650476 C75.7949673,17.0650476 71.8858162,17.0650476 69.9522867,24.0928219 C69.9930212,23.530918 70.0344346,23.0485288 70.0344346,22.5668023 C70.0344346,17.0650476 67.1545075,17.0650476 67.1545075,17.0650476 C64.5210241,17.0650476 62.628229,20.2376842 61.5582703,22.7675769 C61.5996837,21.6835265 61.6818315,20.5988135 61.6818315,19.7155376 C61.6818315,19.1536338 61.5582703,17.5070168 61.4761225,17.3466621 C61.3532402,17.2658222 60.7768474,17.0650476 60.1183068,17.0650476 L60.0361589,17.0650476 C59.6247408,17.0650476 58.4726342,17.2658222 58.2261906,17.4268395 C58.0198027,17.6673714 57.7733591,20.3980388 57.7733591,21.3217346 C57.7733591,22.3242825 57.8718008,23.7191028 57.8432867,24.1590842 C57.7468817,25.661912 56.4080755,26.8036106 55.1806101,27.4490049 C55.1806101,22.7105914 55.0977834,17.7879687 55.0163145,17.5871941 C54.8099265,17.1856449 54.1927992,17.0650476 53.2878151,17.0650476 C52.3414176,17.0650476 51.8885861,17.2254022 51.6421425,17.5871941 C51.4364335,17.908566 51.3950201,19.2742311 51.3950201,22.2858503 L51.3950201,23.1691261 C50.2843269,24.8959204 49.0500724,26.3417627 48.1444094,26.3417627 C47.2801597,26.3417627 47.0751295,24.8157431 47.0751295,23.0087715 C47.0751295,21.7637038 47.1986907,19.6757803 47.1986907,18.5108899 C47.1986907,18.0291633 47.1572774,17.6673714 47.115864,17.5871941 C46.9108339,17.1856449 46.1287321,17.0650476 45.1823345,17.0650476 C44.2773504,17.0650476 43.7831055,17.2254022 43.536662,17.5871941 C43.3716873,17.908566 43.2073917,21.2415573 43.2073917,22.165253 C43.2073917,25.9799709 44.5237939,28.8716555 47.3629865,28.8716555 C49.1736337,28.8716555 50.5307704,27.6670077 51.4771679,26.3815201 L51.5599947,29.393802 C51.4418647,29.4673531 51.3250926,29.539579 51.2076415,29.6124674 C48.6366176,31.0881278 39.2520746,35.4667373 37.5778879,40.7856082 C35.691203,46.7763783 44.8978721,54.0155292 47.5422181,54.0155292 L48.1342257,54.0155292 C52.6842661,53.5125988 55.0889576,36.9437229 55.0889576,31.6990657 C55.0882787,31.6984031 55.0882787,31.6977405 55.0882787,31.6970779 C55.1106826,31.013914 55.1283342,30.4897797 55.1391968,29.7754726 C56.315744,29.0558645 57.626715,28.2574044 58.1854562,26.753914 C58.3748714,28.0201855 58.5344149,28.6510022 58.554782,28.6708809 C58.6783432,28.8716555 59.748302,28.8716555 59.748302,28.8716555 C59.748302,28.8716555 60.8589952,28.8716555 60.9825565,28.6708809 L61.0239698,28.6304609 C61.2296789,27.9479597 63.6981878,22.9338952 65.6731306,22.9338952 C67.5659257,22.9338952 65.0560035,28.7914782 69.3351595,28.7914782 C69.7058432,28.7914782 72.7914792,22.9338952 74.0664682,22.9338952 C76.0828241,22.9338952 73.8566857,29.2732047 78.7156288,28.8716555 C79.5968514,28.798767 80.4067887,28.2428267 80.9397311,27.2117861 C80.9302261,27.928081 80.8562254,29.69397 80.8562254,30.4778525 C80.8562254,31.4015482 80.897639,32.3650013 80.897639,33.3695371 C80.9383734,37.1444975 81.2669646,41.3607645 81.514087,41.8829111 C81.7612094,42.163863 82.9133158,42.6455896 83.3247341,42.6455896 L83.3661477,42.6455896 C84.0240093,42.6455896 84.6411364,42.163863 84.7239636,41.9630884 C84.8061109,41.7623138 84.8468453,40.6378434 84.8468453,38.8308718 L84.8468453,36.8231256 C84.8061109,34.3734102 84.68255,31.1603536 84.5589885,28.068557 C85.505386,28.5502836 86.5753451,28.8716555 87.6860379,28.8716555 C91.3480673,28.8716555 94.3101416,26.2211654 94.3101416,22.9683515" id="Fill-3" fill="#E30613" fill-rule="nonzero"></path>
            <g id="Group-7" transform="translate(95.047097, 16.908801)">
                <g id="Fill-5-Clipped">
                    <mask id="mask-2" fill="white">
                        <use xlink:href="#path-1"></use>
                    </mask>
                    <g id="path-1"></g>
                    <path d="M10.2489284,6.59017843 L10.2489284,6.68758394 C10.2489284,8.14601609 9.22038303,9.31223172 6.87475647,9.31223172 C5.3940585,9.31223172 4.15912515,8.1135476 4.15912515,6.68758394 C4.15912515,5.2291518 5.3940585,4.06293618 6.87475647,4.06293618 C9.1375563,4.06293618 10.1667806,5.16421479 10.2489284,6.52590405 L10.2489284,6.59017843 Z M17.5716282,7.22563342 C17.448067,7.22563342 17.359809,7.30316025 17.2423579,7.54700533 C16.4717976,9.1406125 15.6591449,9.47523686 14.7337935,9.43282902 C13.8709017,9.39307163 13.6638348,7.90680936 13.6638348,6.09983777 C13.6638348,4.85477008 13.787396,2.76684655 13.787396,1.60195618 C13.787396,1.12022961 13.7459826,0.75910035 13.7052482,0.678260401 C13.4995391,0.27671116 12.8824119,0.156113863 11.9767488,0.156113863 C11.0310302,0.156113863 10.8246422,0.317131133 10.5781987,0.678260401 C10.5367854,0.75910035 10.4960509,0.919454995 10.4546374,1.20040694 C9.42609213,0.558325727 8.19183765,0.156113863 6.87475647,0.156113863 C3.25414101,0.156113863 0.292066149,2.8066039 0.292066149,6.0594178 C0.292066149,9.31223172 3.25414101,11.9627218 6.87475647,11.9627218 C8.52110795,11.9627218 10.0432193,11.3199779 11.1953259,10.3565248 C11.7710398,11.4008179 12.6767028,11.9627218 13.9516917,11.9627218 C15.9843418,11.9627218 17.1934766,10.4797725 17.6626019,9.22741604 C17.860843,8.69798064 17.9076876,8.32624941 17.9076876,7.80211498 C17.9076876,7.43237167 17.8594852,7.22563342 17.5716282,7.22563342 L17.5716282,7.22563342 Z" id="Fill-5" fill="#E30613" fill-rule="nonzero" mask="url(#mask-2)"></path>
                </g>
            </g>
        </g>
    </g>
</svg>