<?xml version="1.0" encoding="UTF-8"?>
<svg width="247px" height="82px" viewBox="0 0 247 82" version="1.1" xmlns="http://www.w3.org/2000/svg" xmlns:xlink="http://www.w3.org/1999/xlink">
    <!-- Generator: Sketch 53.2 (72643) - https://sketchapp.com -->
    <title>sympa</title>
    <desc>Created with Sketch.</desc>
    <defs>
        <polygon id="path-1" points="19.1196854 12.7724592 19.1196854 0.16668096 0.311835638 0.16668096 0.311835638 12.7724592"></polygon>
    </defs>
    <g id="sympa" stroke="none" stroke-width="1" fill="none" fill-rule="evenodd">
        <g id="sympa-logo" transform="translate(62.490583, 16.505032)">
            <path d="M12.3781786,36.2084673 L8.06524965,36.2084673 C4.85556069,35.7401193 2.21198892,35.3969942 0.876068232,33.401209 C-2.17487599,28.8493189 4.00674727,23.8538424 8.96335375,24.6292343 C9.55411626,27.7583934 4.52139929,26.8174525 4.83019051,29.8928437 C5.22451545,33.8327684 18.6685312,32.0357835 21.9862246,31.4988104 C24.6102251,31.0743258 27.8663054,30.5224958 31.8755172,28.8662983 C33.4694887,28.2076397 36.9488264,26.3745736 36.4602693,23.5786349 C35.8811046,20.26341 26.2998785,18.9305283 22.2616722,18.1409869 C16.5222148,17.0168102 10.1695241,15.9074903 6.80761409,14.1041382 C3.86829863,12.5314227 1.7640242,8.84194389 4.64969987,5.50903214 C9.32433501,0.118077471 24.1455886,-0.176939339 33.0454444,1.82662807 C35.1171,2.29426862 40.0729816,3.04065407 38.6181836,6.21226166 C32.774346,4.72232064 24.5275909,2.96495432 16.6911076,4.45701776 C13.9591027,4.98125626 10.5848701,6.23843821 10.9407773,9.0202274 C11.2089763,11.1228412 14.6006056,12.176978 17.3043409,12.8059227 C24.0310604,14.3701485 30.9665402,14.7925107 37.3598231,16.9121039 C41.0392227,18.1339122 45.5812081,20.4791897 43.2899192,25.3324639 C41.3393156,29.4641141 35.1453697,31.6169587 30.1699168,33.0510092 C24.7008329,34.6265546 18.6939014,35.8193564 12.3781786,36.2084673" id="Fill-1" fill="#E30613" fill-rule="nonzero"></path>
            <path d="M90.063018,25.1965581 C90.063018,23.6415294 91.1611841,22.3970819 93.6213653,22.3970819 C95.2465064,22.3970819 96.5650299,23.6415294 96.5650299,25.1965581 C96.5650299,26.7169204 95.2465064,27.9960341 93.6213653,27.9960341 C91.1611841,27.9960341 90.063018,26.7169204 90.063018,25.1965581 M49.1525308,53.7558832 C33.3048725,43.4769881 53.2929426,35.1174711 55.1594622,33.8164257 C55.1594622,38.3725607 52.8949933,56.1839352 49.1525308,53.7558832 M100.693844,24.5230424 C100.693844,21.0500507 97.5312715,18.2201533 93.6213653,18.2201533 C92.1716418,18.2201533 90.8096259,18.6920387 89.6679681,19.4638933 C89.6237513,18.9495594 89.5795353,18.6488828 89.5795353,18.6488828 C89.4041184,18.1345489 88.2182439,18.1345489 88.2182439,18.1345489 C88.2182439,18.1345489 87.1200785,18.1777048 86.9881533,18.6488828 C86.9533596,18.6828416 86.5706329,21.00265 86.4046392,26.5803779 C86.4046392,27.6529091 85.3274941,28.1247944 84.8788051,28.1247944 C82.3309147,28.1247944 85.494213,18.2201533 80.9254072,18.2201533 C80.9254072,18.2201533 76.7516519,18.2201533 74.6872449,25.7236264 C74.7307366,25.1236881 74.7749532,24.6086468 74.7749532,24.094313 C74.7749532,18.2201533 71.7000885,18.2201533 71.7000885,18.2201533 C68.8883488,18.2201533 66.8674335,21.6075406 65.7250509,24.3086777 C65.7692675,23.1512496 65.8569758,21.9931141 65.8569758,21.0500507 C65.8569758,20.4501126 65.7250509,18.6920387 65.6373427,18.5208299 C65.5061426,18.4345181 64.8907348,18.2201533 64.1876186,18.2201533 L64.0999103,18.2201533 C63.6606439,18.2201533 62.4305531,18.4345181 62.1674282,18.6064344 C61.9470702,18.8632475 61.6839452,21.7787493 61.6839452,22.7649686 C61.6839452,23.8353774 61.7890502,25.3246109 61.758606,25.7943738 C61.6556756,27.3989257 60.2262477,28.6179041 58.9156972,29.3069841 C58.9156972,24.2478349 58.8272641,18.9920078 58.7402806,18.7776431 C58.5199225,18.3489136 57.8610229,18.2201533 56.8947819,18.2201533 C55.8843242,18.2201533 55.4008413,18.3913621 55.1377163,18.7776431 C54.9180832,19.1207682 54.8738666,20.5788729 54.8738666,23.7943438 L54.8738666,24.7374071 C53.6879924,26.5810853 52.3701932,28.1247944 51.4032273,28.1247944 C50.4804779,28.1247944 50.2615696,26.495481 50.2615696,24.5661984 C50.2615696,23.2368541 50.3934945,21.0076023 50.3934945,19.7638624 C50.3934945,19.2495285 50.3492779,18.8632475 50.3050613,18.7776431 C50.086153,18.3489136 49.251112,18.2201533 48.2406543,18.2201533 C47.2744133,18.2201533 46.7467137,18.3913621 46.4835888,18.7776431 C46.3074473,19.1207682 46.1320307,22.6793642 46.1320307,23.6655835 C46.1320307,27.7385134 47.5375381,30.8259316 50.5689111,30.8259316 C52.5021181,30.8259316 53.9511172,29.5397431 54.9615749,28.1672429 L55.0500081,31.3834213 C54.9238821,31.461951 54.7992058,31.5390657 54.6738047,31.6168879 C51.9287523,33.1924333 41.9089847,37.8674239 40.1214749,43.5463206 C38.1070834,49.9425964 47.9369371,57.6717538 50.7602747,57.6717538 L51.3923543,57.6717538 C56.2503796,57.1347808 58.8178408,39.4443843 58.8178408,33.8447247 C58.817116,33.8440172 58.817116,33.8433097 58.817116,33.8426023 C58.8410364,33.1131961 58.8598828,32.553584 58.8714806,31.7909266 C60.1276664,31.0226094 61.527375,30.1701028 62.1239364,28.5648435 C62.3261729,29.916827 62.4965156,30.5903426 62.5182614,30.6115669 C62.6501863,30.8259316 63.7925688,30.8259316 63.7925688,30.8259316 C63.7925688,30.8259316 64.9784431,30.8259316 65.110368,30.6115669 L65.1545846,30.5684109 C65.3742177,29.8397123 68.009816,24.4862538 70.1184396,24.4862538 C72.1393549,24.4862538 69.4595401,30.7403272 74.0283453,30.7403272 C74.42412,30.7403272 77.7186178,24.4862538 79.0799087,24.4862538 C81.2327485,24.4862538 78.8559264,31.254661 84.0437635,30.8259316 C84.9846347,30.7481094 85.8493954,30.1545383 86.4184117,29.0537083 C86.4082634,29.8184881 86.3292537,31.7039072 86.3292537,32.5408494 C86.3292537,33.5270687 86.3734705,34.5557364 86.3734705,35.6282676 C86.4169622,39.658749 86.7677952,44.1604084 87.0316449,44.7178982 C87.2954946,45.0178673 88.5255852,45.5322012 88.9648518,45.5322012 L89.0090686,45.5322012 C89.7114598,45.5322012 90.3703593,45.0178673 90.4587929,44.8035026 C90.5465006,44.5891379 90.5899922,43.3885538 90.5899922,41.4592713 L90.5899922,39.315624 C90.5465006,36.7000912 90.4145761,33.269548 90.2826509,29.9684726 C91.2931085,30.4828065 92.4354915,30.8259316 93.6213653,30.8259316 C97.5312715,30.8259316 100.693844,27.9960341 100.693844,24.5230424" id="Fill-3" fill="#E30613" fill-rule="nonzero"></path>
            <g id="Group-7" transform="translate(101.480682, 18.053331)">
                <g id="Fill-5-Clipped">
                    <mask id="mask-2" fill="white">
                        <use xlink:href="#path-1"></use>
                    </mask>
                    <g id="path-1"></g>
                    <path d="M10.9426619,7.03625705 L10.9426619,7.14025578 C10.9426619,8.69740687 9.84449598,9.94256176 7.34009772,9.94256176 C5.75917367,9.94256176 4.44064967,8.66274063 4.44064967,7.14025578 C4.44064967,5.5831047 5.75917367,4.33794982 7.34009772,4.33794982 C9.75606284,4.33794982 10.8549537,5.51377221 10.9426619,6.96763204 L10.9426619,7.03625705 Z M18.7610236,7.71472497 C18.6290987,7.71472497 18.5348667,7.79749947 18.4094655,8.05785002 C17.5867471,9.75932591 16.7190873,10.1166005 15.7311004,10.0713221 C14.8098008,10.0288736 14.5887179,8.44200861 14.5887179,6.51272602 C14.5887179,5.18338169 14.7206427,2.95412996 14.7206427,1.71039003 C14.7206427,1.19605616 14.6764262,0.810482636 14.6329344,0.72417076 C14.4133013,0.295441295 13.7544017,0.16668096 12.7874357,0.16668096 C11.777703,0.16668096 11.5573449,0.338597231 11.29422,0.72417076 C11.2500035,0.810482636 11.2065117,0.981691429 11.1622951,1.28166056 C10.0641292,0.5961179 8.74633001,0.16668096 7.34009772,0.16668096 C3.4744086,0.16668096 0.311835638,2.99657842 0.311835638,6.46957008 C0.311835638,9.94256176 3.4744086,12.7724592 7.34009772,12.7724592 C9.09788809,12.7724592 10.7230287,12.0862091 11.9531196,11.0575414 C12.5678026,12.172521 13.5347685,12.7724592 14.8960594,12.7724592 C17.0662963,12.7724592 18.3572755,11.1891315 18.8581551,9.85200504 C19.0698148,9.28673301 19.1198303,8.88983988 19.1198303,8.33022764 C19.1198303,7.935457 19.0683651,7.71472497 18.7610236,7.71472497 L18.7610236,7.71472497 Z" id="Fill-5" fill="#E30613" fill-rule="nonzero" mask="url(#mask-2)"></path>
                </g>
            </g>
        </g>
    </g>
</svg>