<svg width="247" height="82" viewBox="0 0 247 82" fill="none"
  xmlns="http://www.w3.org/2000/svg">
  <path d="M35.1145 33.804C37.2914 35.4972 38.3799 39.1254 37.5333 41.9071L32.9375 56.9039L21.2062 48.0751C19.0292 46.3819 17.9408 42.7537 18.7874 39.972L23.3831 24.9753C23.5041 25.0962 35.1145 33.804 35.1145 33.804Z" fill="#8FBF00"/>
  <path d="M47.3296 37.916C44.6688 38.037 41.7663 40.5768 40.9197 43.3584L36.3239 58.3552L50.474 57.5086C53.1348 57.3876 56.0374 54.8479 56.8839 52.0662L61.4797 37.0695L47.3296 37.916Z" fill="#B0D14D"/>
  <path d="M42.4919 23.6449C45.1526 23.6449 48.6599 24.7334 50.4741 26.0637L60.1494 33.0783H47.5715C42.0081 33.0783 39.1055 31.1433 37.2914 29.8129L28.8255 23.6449H42.4919Z" fill="#C7DE80"/>
  <path d="M93.2873 32.2318H78.8953V33.925H85.1843V49.5265H87.1193V33.925H93.2873V32.2318Z" fill="black"/>
  <path d="M100.302 32.2318H98.3669V49.5265H100.302V32.2318Z" fill="black"/>
  <path d="M116.508 32.2318H106.954V49.5265H116.75V47.8333H108.768V41.6653H116.387V39.9721H108.768V33.925H116.508V32.2318Z" fill="black"/>
  <path d="M134.891 32.2318H120.378V33.925H126.667V49.5265H128.602V33.925H134.891V32.2318Z" fill="black"/>
  <path d="M146.985 47.9541C143.236 47.9541 139.85 45.0515 139.85 40.9395C139.85 37.1903 142.632 33.8039 147.106 33.8039C151.702 33.8039 154.363 37.4321 154.363 40.8185C154.363 45.0515 151.097 47.9541 146.985 47.9541ZM146.985 49.7682C152.186 49.7682 156.419 46.019 156.419 40.8185C156.419 36.1018 152.791 31.8688 147.106 31.8688C141.301 31.8688 137.794 36.2227 137.794 40.8185C137.794 46.019 141.906 49.7682 146.985 49.7682Z" fill="black"/>
  <path d="M173.593 32.2318H159.2V33.925H165.489V49.5265H167.424V33.925H173.593V32.2318Z" fill="black"/>
  <path d="M186.775 42.2699H180.365L183.51 35.0134L186.775 42.2699ZM184.114 32.1108H182.784L175.044 49.5264H176.979L179.398 43.963H187.38L189.92 49.5264H191.855L184.114 32.1108Z" fill="black"/>
  <path d="M198.507 32.2318H196.692V49.5265H206.731V47.8333H198.507V32.2318Z" fill="black"/>
  <path d="M218.946 47.9541C215.196 47.9541 211.81 45.0515 211.81 40.9395C211.81 37.1903 214.592 33.8039 219.067 33.8039C223.662 33.8039 226.323 37.4321 226.323 40.8185C226.323 45.0515 223.179 47.9541 218.946 47.9541ZM219.067 49.7682C224.267 49.7682 228.5 46.019 228.5 40.8185C228.5 36.1018 224.872 31.8688 219.188 31.8688C213.382 31.8688 209.875 36.2227 209.875 40.8185C209.875 46.019 213.987 49.7682 219.067 49.7682Z" fill="black"/>
</svg>
