<?xml version="1.0" encoding="UTF-8"?>
<svg xmlns="http://www.w3.org/2000/svg" xmlns:xlink="http://www.w3.org/1999/xlink" width="247px" height="82px" viewBox="0 0 247 82" version="1.1">
<g id="surface1">
<path style=" stroke:none;fill-rule:nonzero;fill:rgb(29.803922%,29.803922%,29.803922%);fill-opacity:1;" d="M 87.652344 49.488281 L 87.652344 29.644531 L 61.398438 19.722656 L 61.398438 27.351562 L 71.695312 31.230469 C 72.101562 31.363281 72.101562 31.761719 71.695312 31.894531 C 71.695312 31.894531 59.445312 36.523438 59.445312 36.523438 C 59.109375 36.65625 58.636719 36.65625 58.300781 36.523438 L 46.046875 31.851562 C 45.644531 31.71875 45.644531 31.320312 46.046875 31.1875 L 56.347656 27.308594 L 56.347656 19.679688 L 30.09375 29.601562 L 30.09375 49.488281 L 30.09375 49.402344 L 30.09375 49.488281 L 40.191406 45.695312 L 40.191406 37.890625 C 40.191406 37.625 40.660156 37.40625 41.066406 37.582031 C 41.066406 37.582031 53.316406 42.210938 53.316406 42.210938 C 53.65625 42.34375 53.925781 42.609375 53.925781 42.875 L 53.925781 52.132812 C 53.925781 52.398438 53.453125 52.621094 53.046875 52.445312 L 42.75 48.5625 L 32.652344 52.355469 L 58.90625 62.277344 L 85.160156 52.355469 L 75.0625 48.5625 L 64.761719 52.445312 C 64.425781 52.574219 63.886719 52.398438 63.886719 52.132812 L 63.886719 42.875 C 63.886719 42.609375 64.089844 42.34375 64.492188 42.210938 L 76.746094 37.582031 C 77.082031 37.449219 77.621094 37.625 77.621094 37.890625 L 77.621094 45.695312 Z M 87.652344 49.488281 "/>
<path style=" stroke:none;fill-rule:nonzero;fill:rgb(0%,0%,0%);fill-opacity:1;" d="M 58.839844 62.320312 L 85.09375 52.398438 L 74.996094 48.605469 L 64.695312 52.488281 C 64.359375 52.621094 63.820312 52.445312 63.820312 52.179688 C 63.820312 52.179688 63.820312 42.917969 63.820312 42.917969 C 63.820312 42.652344 64.023438 42.390625 64.425781 42.257812 L 76.679688 37.625 C 77.015625 37.496094 77.554688 37.671875 77.554688 37.933594 C 77.554688 37.933594 77.554688 45.742188 77.554688 45.742188 L 87.652344 49.53125 L 87.652344 29.644531 L 58.839844 40.535156 Z M 58.839844 62.320312 "/>
<path style=" stroke:none;fill-rule:nonzero;fill:rgb(50.196078%,50.196078%,50.196078%);fill-opacity:1;" d="M 61.328125 19.679688 L 61.328125 27.308594 L 71.628906 31.1875 C 72.035156 31.320312 72.035156 31.71875 71.628906 31.851562 C 71.628906 31.851562 59.375 36.480469 59.375 36.480469 C 59.039062 36.613281 58.570312 36.613281 58.234375 36.480469 L 46.046875 31.851562 C 45.644531 31.71875 45.644531 31.320312 46.046875 31.1875 C 46.046875 31.1875 56.347656 27.308594 56.347656 27.308594 L 56.347656 19.679688 L 30.09375 29.601562 L 58.90625 40.492188 L 87.71875 29.601562 Z M 61.328125 19.679688 "/>
<path style=" stroke:none;fill-rule:nonzero;fill:rgb(29.803922%,29.803922%,29.803922%);fill-opacity:1;" d="M 52.914062 52.445312 L 42.613281 48.5625 L 32.515625 52.355469 L 58.769531 62.277344 L 58.769531 40.492188 L 30.023438 29.644531 L 30.023438 49.53125 L 30.023438 49.445312 L 30.023438 49.53125 L 40.125 45.742188 L 40.125 37.933594 C 40.125 37.671875 40.59375 37.449219 41 37.625 C 41 37.625 53.25 42.257812 53.25 42.257812 C 53.585938 42.390625 53.855469 42.652344 53.855469 42.917969 L 53.855469 52.179688 C 53.789062 52.398438 53.316406 52.574219 52.914062 52.445312 Z M 52.914062 52.445312 "/>
<path style=" stroke:none;fill-rule:nonzero;fill:rgb(0%,0%,0%);fill-opacity:1;" d="M 102.800781 42.875 L 102.800781 30.792969 L 110.539062 30.792969 L 110.539062 43.050781 C 110.539062 45.035156 112.089844 46.402344 115.925781 46.402344 C 119.496094 46.402344 121.246094 44.992188 121.246094 42.960938 L 121.246094 30.792969 L 128.988281 30.792969 L 128.988281 42.875 C 128.988281 47.59375 124.679688 50.460938 115.925781 50.460938 C 107.175781 50.460938 102.800781 47.679688 102.800781 42.875 Z M 102.800781 42.875 "/>
<path style=" stroke:none;fill-rule:nonzero;fill:rgb(0%,0%,0%);fill-opacity:1;" d="M 132.554688 35.421875 L 139.421875 35.421875 L 139.421875 37.40625 L 139.554688 37.40625 C 141.238281 35.820312 143.394531 34.980469 146.488281 34.980469 C 151.40625 34.980469 154.300781 37.273438 154.300781 40.535156 L 154.300781 50.0625 L 147.164062 50.0625 L 147.164062 41.507812 C 147.164062 39.964844 145.953125 38.90625 143.664062 38.90625 C 141.304688 38.90625 139.757812 40.183594 139.757812 41.992188 L 139.757812 50.105469 L 132.621094 50.105469 L 132.621094 35.421875 Z M 132.554688 35.421875 "/>
<path style=" stroke:none;fill-rule:nonzero;fill:rgb(0%,0%,0%);fill-opacity:1;" d="M 157.933594 29.644531 L 165.070312 29.644531 L 165.070312 33.4375 L 157.933594 33.4375 Z M 157.933594 35.421875 L 165.070312 35.421875 L 165.070312 50.105469 L 157.933594 50.105469 Z M 157.933594 35.421875 "/>
<path style=" stroke:none;fill-rule:nonzero;fill:rgb(0%,0%,0%);fill-opacity:1;" d="M 170.660156 46.226562 L 170.660156 39.214844 L 167.695312 39.214844 L 167.695312 35.421875 L 170.660156 35.421875 L 170.660156 30.792969 L 177.59375 30.792969 L 177.59375 35.421875 L 181.632812 35.421875 L 181.632812 39.214844 L 177.59375 39.214844 L 177.59375 45.210938 C 177.59375 46.359375 178.535156 46.621094 180.082031 46.621094 C 180.6875 46.621094 181.363281 46.578125 181.632812 46.578125 L 181.632812 49.972656 C 181.027344 50.105469 179.679688 50.195312 177.726562 50.195312 C 173.621094 50.28125 170.660156 49.402344 170.660156 46.226562 Z M 170.660156 46.226562 "/>
<path style=" stroke:none;fill-rule:nonzero;fill:rgb(0%,0%,0%);fill-opacity:1;" d="M 186.074219 51.296875 L 188.5 51.296875 C 190.585938 51.296875 191.460938 50.769531 191.460938 49.753906 C 191.460938 49.136719 191.054688 48.253906 190.113281 46.710938 L 183.515625 35.421875 L 191.054688 35.421875 L 194.085938 41.683594 C 194.757812 43.09375 195.5 45.078125 195.5 45.078125 L 195.566406 45.078125 C 195.566406 45.078125 196.171875 43.140625 196.847656 41.683594 L 199.808594 35.421875 L 206.945312 35.421875 L 199.203125 50.28125 C 197.382812 53.722656 195.296875 54.914062 190.789062 54.914062 L 186.140625 54.914062 L 186.140625 51.296875 Z M 186.074219 51.296875 "/>
<path style=" stroke:none;fill-rule:nonzero;fill:rgb(0%,0%,0%);fill-opacity:1;" d="M 216.707031 36.566406 C 216.570312 36.347656 216.367188 36.128906 216.101562 35.949219 C 215.832031 35.773438 215.5625 35.640625 215.15625 35.554688 C 214.820312 35.464844 214.417969 35.421875 214.082031 35.421875 C 213.742188 35.421875 213.339844 35.464844 213.003906 35.554688 C 212.667969 35.640625 212.328125 35.773438 212.058594 35.949219 C 211.792969 36.128906 211.589844 36.304688 211.453125 36.566406 C 211.320312 36.789062 211.253906 37.054688 211.253906 37.273438 C 211.253906 37.539062 211.320312 37.757812 211.453125 37.980469 C 211.589844 38.199219 211.792969 38.421875 212.058594 38.597656 C 212.328125 38.773438 212.597656 38.90625 213.003906 38.992188 C 213.339844 39.082031 213.742188 39.125 214.082031 39.125 C 214.417969 39.125 214.820312 39.082031 215.15625 38.992188 C 215.492188 38.90625 215.832031 38.773438 216.101562 38.597656 C 216.367188 38.421875 216.570312 38.242188 216.707031 37.980469 C 216.839844 37.757812 216.90625 37.496094 216.90625 37.273438 C 216.90625 37.054688 216.839844 36.789062 216.707031 36.566406 Z M 215.964844 38.023438 C 215.761719 38.242188 215.492188 38.421875 215.15625 38.550781 C 214.820312 38.683594 214.484375 38.730469 214.082031 38.730469 C 213.675781 38.730469 213.339844 38.683594 213.003906 38.550781 C 212.667969 38.421875 212.398438 38.242188 212.195312 38.023438 C 211.992188 37.804688 211.925781 37.582031 211.925781 37.316406 C 211.925781 37.054688 211.992188 36.832031 212.195312 36.613281 C 212.398438 36.390625 212.667969 36.214844 213.003906 36.082031 C 213.339844 35.949219 213.675781 35.90625 214.082031 35.90625 C 214.484375 35.90625 214.820312 35.949219 215.15625 36.082031 C 215.492188 36.214844 215.761719 36.390625 215.964844 36.613281 C 216.167969 36.832031 216.234375 37.054688 216.234375 37.316406 C 216.234375 37.582031 216.167969 37.804688 215.964844 38.023438 Z M 215.964844 38.023438 "/>
<path style=" stroke:none;fill-rule:nonzero;fill:rgb(0%,0%,0%);fill-opacity:1;" d="M 215.089844 37.316406 C 215.15625 37.230469 215.222656 37.140625 215.222656 37.007812 C 215.222656 36.875 215.15625 36.789062 215.089844 36.699219 C 215.023438 36.613281 214.886719 36.566406 214.753906 36.523438 C 214.617188 36.480469 214.484375 36.480469 214.417969 36.480469 L 213.070312 36.480469 L 213.070312 38.199219 L 213.675781 38.199219 L 213.675781 37.625 L 214.28125 37.625 L 214.753906 38.199219 L 215.359375 38.199219 L 214.820312 37.539062 C 214.886719 37.449219 215.023438 37.363281 215.089844 37.316406 Z M 213.675781 36.699219 L 214.214844 36.699219 C 214.28125 36.699219 214.347656 36.699219 214.484375 36.746094 C 214.550781 36.789062 214.617188 36.832031 214.617188 36.964844 C 214.617188 37.054688 214.550781 37.140625 214.484375 37.183594 C 214.417969 37.230469 214.28125 37.273438 214.214844 37.273438 L 213.675781 37.273438 Z M 213.675781 36.699219 "/>
</g>
</svg>
