<?xml version="1.0" encoding="UTF-8"?>
<svg width="247px" height="82px" viewBox="0 0 247 82" version="1.1" xmlns="http://www.w3.org/2000/svg" xmlns:xlink="http://www.w3.org/1999/xlink">
    <!-- Generator: Sketch 53.2 (72643) - https://sketchapp.com -->
    <title>visma</title>
    <desc>Created with Sketch.</desc>
    <g id="visma" stroke="none" stroke-width="1" fill="none" fill-rule="evenodd">
        <g transform="translate(59.000000, 28.500000)" fill-rule="nonzero">
            <path d="M13.6,0.5 C20.6,1.1 28.2,4.6 32.6,9.6 C38.2,16 36.3,22.4 28.3,23.9 C20.3,25.4 9.3,21.4 3.7,15 C-0.6,10.1 -0.5,5.2 3.4,2.5 L25.6,18.9 L13.6,0.5 Z" id="Path" fill="#E70641"></path>
            <g id="Group" transform="translate(44.000000, 0.000000)" fill="#231F20">
                <path d="M79.2,24 L76.4,12.8 C76,11.5 75.8,10.1 75.6,8.8 L75.5,8.8 C75.3,10.2 75.2,11.5 74.8,12.9 L72,24 L67.2,24 L73.7,0.7 L77.5,0.7 L84.2,24 L79.2,24 Z" id="Path"></path>
                <path d="M5.5,0.6 L8.3,11.8 C8.7,13.1 8.9,14.5 9.1,15.8 L9.2,15.8 C9.4,14.4 9.5,13.1 9.9,11.7 L12.7,0.6 L17.5,0.6 L11.1,24 L7.3,24 L0.6,0.6 L5.5,0.6 Z" id="Path"></path>
                <polygon id="Path" points="25.6 0.6 25.6 24 21 24 21 0.6"></polygon>
                <polygon id="Path" points="51.7 0.6 54 14.4 54 14.4 55.9 0.6 62.1 0.6 64.5 23.9 59.8 23.9 58.7 7.1 58.6 7.1 57.9 12.9 55.9 23.9 52.3 23.9 50 12.7 49.2 7.5 49.2 7.1 49.1 7.1 48.5 24 43.5 24 45.5 0.7 51.7 0.7"></polygon>
                <path d="M37.1,0.6 C36.3,1.2 35.7,2.1 35.3,3.1 C34.1,6 35.4,8.2 36.5,10.2 C36.7,10.5 36.8,10.8 37,11.1 C39.5,15.4 40.5,18.5 38.6,23 C38.5,23.3 38.2,23.9 38.2,23.9 L32.6,23.9 C33.2,23.4 33.9,22.6 34.3,21.7 C35.6,18.6 34.1,15.8 32.6,13.1 C30.9,9.8 29,6.5 31,1.8 C31.2,1.4 31.6,0.6 31.6,0.6 L37.1,0.6 Z" id="Path"></path>
            </g>
        </g>
    </g>
</svg>