<?xml version="1.0" encoding="utf-8"?>
<!-- Generator: Adobe Illustrator 22.0.1, SVG Export Plug-In . SVG Version: 6.00 Build 0)  -->
<svg version="1.1" id="Layer_1" xmlns="http://www.w3.org/2000/svg" xmlns:xlink="http://www.w3.org/1999/xlink" x="0px" y="0px"
	 viewBox="0 0 130.5 27.3" style="enable-background:new 0 0 130.5 27.3;" xml:space="preserve">
<style type="text/css">
	.st0{fill:#E70641;}
	.st1{fill:#231F20;}
</style>
<title>newlogoforweb</title>
<g>
	<g>
		<path class="st0" d="M13.6,3.5c7,0.6,14.6,4.1,19,9.1c5.6,6.4,3.7,12.8-4.3,14.3c-8,1.5-19-2.5-24.6-8.9
			c-4.3-4.9-4.2-9.8-0.3-12.5l22.2,16.4L13.6,3.5z"/>
	</g>
	<g>
		<g>
			<path class="st1" d="M123.2,27l-2.8-11.2c-0.4-1.3-0.6-2.7-0.8-4h-0.1c-0.2,1.4-0.3,2.7-0.7,4.1L116,27h-4.8l6.5-23.3h3.8
				l6.7,23.3H123.2z"/>
			<path class="st1" d="M49.5,3.6l2.8,11.2c0.4,1.3,0.6,2.7,0.8,4h0.1c0.2-1.4,0.3-2.7,0.7-4.1l2.8-11.1h4.8L55.1,27h-3.8L44.6,3.6
				H49.5z"/>
			<path class="st1" d="M69.6,3.6V27H65V3.6H69.6z"/>
			<path class="st1" d="M95.7,3.6L98,17.4H98l1.9-13.8h6.2l2.4,23.3h-4.7l-1.1-16.8h-0.1l-0.7,5.8l-2,11h-3.6l-2.3-11.2l-0.8-5.2
				v-0.4h-0.1L92.5,27h-5l2-23.3H95.7z"/>
			<path class="st1" d="M81.1,3.6c-0.8,0.6-1.4,1.5-1.8,2.5c-1.2,2.9,0.1,5.1,1.2,7.1c0.2,0.3,0.3,0.6,0.5,0.9
				c2.5,4.3,3.5,7.4,1.6,11.9c-0.1,0.3-0.4,0.9-0.4,0.9h-5.6c0.6-0.5,1.3-1.3,1.7-2.2c1.3-3.1-0.2-5.9-1.7-8.6
				C74.9,12.8,73,9.5,75,4.8c0.2-0.4,0.6-1.2,0.6-1.2H81.1z"/>
		</g>
	</g>
</g>
</svg>
