<?xml version="1.0" encoding="UTF-8"?>
<svg width="247px" height="82px" viewBox="0 0 247 82" version="1.1" xmlns="http://www.w3.org/2000/svg" xmlns:xlink="http://www.w3.org/1999/xlink">
    <!-- Generator: Sketch 53.2 (72643) - https://sketchapp.com -->
    <title>wolt</title>
    <desc>Created with Sketch.</desc>
    <g id="wolt" stroke="none" stroke-width="1" fill="none" fill-rule="evenodd">
        <g transform="translate(79.878829, 20.552576)">
            <polygon id="Path" points="0 0 87.2423422 0 87.2423422 40.8948479 0 40.8948479"></polygon>
            <path d="M44.0805566,34.0790399 C46.3434048,34.0790399 48.7193955,29.2902532 49.0751807,22.767525 C46.9677328,22.4294609 45.2092544,21.2734999 44.5044998,19.2178522 C43.2885597,21.4970584 42.3193518,24.5546299 42.1257829,27.7321595 C41.8749611,31.9470552 42.3766046,34.0790399 44.0805566,34.0790399 Z M82.8161565,18.954762 C80.7645983,19.3459894 78.1541439,19.7249483 75.4210049,20.0084859 C74.4081758,23.7571803 73.4444206,28.3046874 73.4444206,32.0956398 C73.4444206,33.1861691 73.5943683,34.2766984 74.5485814,34.2766984 C76.552429,34.2766984 80.1593546,31.3513536 83.6176956,26.1945133 C84.0184651,25.6001748 84.3183606,25.450227 84.6196193,25.6001748 C85.3216476,25.9464178 84.8200041,31.9470552 82.2136391,33.8813815 C78.8057351,36.4100463 75.2983203,36.7576525 73.7961162,36.7576525 C71.2061092,36.7576525 67.7736683,35.1886535 68.0299427,31.321364 C65.6553152,34.5288833 62.490054,36.7576525 60.3662482,36.7576525 C58.812244,36.7576525 57.7094462,36.2123878 56.8574702,35.5676124 C56.0068574,34.922837 55.6047247,34.1294769 55.6047247,32.5413937 C55.6047247,29.1989214 56.0981892,24.4605717 56.8315702,19.6990482 C55.3789849,20.9388879 53.6887354,21.86936 51.8642093,22.4335504 C51.8015039,27.4608904 50.1030045,32.5127673 47.5879714,35.2200062 C46.2343519,36.6581417 45.1329173,36.7576525 43.9292456,36.7576525 C42.2757306,36.7576525 40.3223201,36.2123878 39.0682114,35.4681016 C37.8659029,34.7728892 37.1148008,33.9808923 36.8135421,32.0956398 C36.1619509,28.0797657 36.8135421,22.177276 39.3190331,18.0128174 C40.1710091,16.5746819 40.9725481,16.0771279 42.5265524,15.8794695 C44.1800674,15.681811 47.0863279,16.1275649 48.7902799,16.7232665 C50.4942319,17.3176049 51.2453339,18.2609128 51.7974144,20.0957283 C54.1011575,19.2233048 55.8105621,17.9010381 57.4518087,15.9844329 C58.1511106,12.1021487 58.9690076,8.45023874 59.7650939,5.81252105 C60.0649895,4.87193955 60.4166852,4.67291796 61.2182242,4.67291796 C62.2705849,4.67291796 63.9241,4.97008718 65.0268977,5.61486262 C65.7275628,6.01154265 66.0288215,6.50773347 65.7275628,7.74684736 C65.0759715,10.5236075 64.4748172,12.7060293 62.9221762,16.4751711 C61.8180153,21.831033 60.9674025,28.8731258 60.9674025,31.9470552 C60.9674025,33.2856799 61.267298,33.6823599 61.7185045,33.6823599 C62.894913,33.6823599 65.7452839,31.0187422 68.5697547,26.5312142 C68.8677691,24.48713 69.2360407,22.4539072 69.6739156,20.4351555 C68.7837711,20.4719609 67.9154371,20.4924083 67.0811822,20.4924083 C66.2292062,20.4924083 65.9770213,20.2443129 65.9770213,19.6486113 C65.9770213,18.7066666 66.1787692,17.714285 66.5291018,17.0204357 C66.8289973,16.4247341 67.23113,16.3252233 68.083106,16.3252233 C68.9555294,16.3252233 69.8225002,16.3334023 70.6840183,16.348397 C71.178846,14.5803764 71.7336528,12.9132298 72.342986,11.4669154 C72.6933185,10.6231183 72.9932141,10.4745337 73.7961162,10.4745337 C74.3959074,10.4745337 76.2498071,10.7717029 77.2040202,11.1697461 C77.8038113,11.4164784 78.0055593,11.8131584 77.7043005,12.7060293 C77.5870687,13.0549986 77.0690672,14.4917709 76.4338339,16.533787 C79.3141944,16.6701032 81.9996227,16.8636721 84.3183606,17.0695095 C85.4715953,17.1690203 85.8723648,17.3680419 85.8723648,17.714285 C85.8723648,18.0618912 85.2207736,18.507645 82.8161565,18.954762 L82.8161565,18.954762 Z M35.9602029,5.5657888 C36.761742,6.11105344 37.3642594,6.85397651 37.3642594,8.39162279 C37.3642594,17.6652111 32.2524034,36.7576525 24.1347761,36.7576525 C19.6240744,36.7576525 17.4689159,32.9885107 17.0190725,26.1945133 C16.8418615,23.6508537 16.7518929,21.4329898 16.7791561,19.1687784 C14.4263392,25.1435157 11.1615672,31.5258383 9.30221474,34.9719108 C8.45023874,36.5586309 7.59826275,36.7576525 6.59633897,36.7576525 C5.69392599,36.7576525 4.24079573,36.3609725 3.58920449,35.9642924 C2.93761324,35.5676124 2.53684373,35.2200062 2.286022,33.7327969 C0.783817919,24.8558886 1.38497218,16.6251188 2.18787436,12.1594015 C2.38825912,11.0688722 2.9389764,10.3245859 3.99133716,9.6798105 C5.24408267,8.93552427 6.49682817,8.43933345 7.84908448,8.24167502 C8.90280839,8.09172724 9.00231919,8.58928123 8.80193444,9.43171509 C7.35289366,15.5523107 6.50909663,24.0257232 7.21385117,33.3388432 C11.0388826,26.0472918 14.2314071,18.5389977 16.1180227,12.5574446 C16.4683553,11.4669154 16.820051,11.0702353 17.672027,10.7717029 C18.7243877,10.4254599 20.2265918,10.1269275 21.4302635,10.1269275 C22.2318025,10.1269275 22.7825198,10.3750229 22.733446,11.4164784 C22.5330612,15.5823002 22.4826242,20.987236 22.7825198,25.5497378 C23.1342155,30.5579935 23.9357545,33.1370953 25.4883956,33.1370953 C29.1961951,33.1370953 31.6021753,18.161402 30.3494298,5.51535182 C30.249919,4.52433334 30.6002515,4.22580095 31.2518428,4.22580095 C32.5550253,4.22580095 34.8601315,4.82150257 35.9615661,5.5657888 L35.9602029,5.5657888 Z" id="Shape" fill="#000000" fill-rule="nonzero"></path>
        </g>
    </g>
</svg>