<?xml version="1.0" encoding="UTF-8"?>
<svg width="247px" height="82px" viewBox="0 0 247 82" version="1.1" xmlns="http://www.w3.org/2000/svg" xmlns:xlink="http://www.w3.org/1999/xlink">
    <!-- Generator: Sketch 53.2 (72643) - https://sketchapp.com -->
    <title>wunderdog</title>
    <desc>Created with Sketch.</desc>
    <g id="wunderdog" stroke="none" stroke-width="1" fill="none" fill-rule="evenodd">
        <g transform="translate(22.004656, 32.169905)" fill="#000000" fill-rule="nonzero">
            <polygon id="Path" points="67.6770952 10.5555157 60.3288323 0.284186962 56.3502148 0.284186962 56.3502148 17.2948066 60.3288323 17.2948066 60.3288323 6.63779548 67.8394877 17.2136103 67.9003849 17.2948066 71.6354136 17.2948066 71.6354136 0.284186962 67.6770952 0.284186962"></polygon>
            <path d="M85.9665561,0.284186962 L79.2069662,0.284186962 L79.2069662,17.2948066 L85.9665561,17.2948066 C91.3661084,17.2948066 94.9793426,13.884563 94.9793426,8.78949676 C94.9793426,3.71472958 91.3458093,0.284186962 85.9665561,0.284186962 Z M90.9398279,8.80979583 C90.9398279,11.7328617 88.889622,13.7627686 85.9665561,13.7627686 L83.1855837,13.7627686 L83.1855837,3.83652399 L85.9665561,3.83652399 C89.0317155,3.83652399 90.9398279,5.74463645 90.9398279,8.80979583 Z" id="Shape"></path>
            <polygon id="Path" points="101.596839 17.2948066 114.507047 17.2948066 114.507047 13.8033667 105.575456 13.8033667 105.575456 10.3931232 112.984617 10.3931232 112.984617 6.92198244 105.575456 6.92198244 105.575456 3.75532772 114.507047 3.75532772 114.507047 0.284186962 101.596839 0.284186962"></polygon>
            <path d="M149.31995,0.284186962 L142.56036,0.284186962 L142.56036,17.2948066 L149.31995,17.2948066 C154.719502,17.2948066 158.332736,13.884563 158.332736,8.78949676 C158.332736,3.71472958 154.719502,0.284186962 149.31995,0.284186962 Z M154.293221,8.80979583 C154.293221,11.7328617 152.243016,13.7627686 149.31995,13.7627686 L146.538977,13.7627686 L146.538977,3.83652399 L149.31995,3.83652399 C152.385109,3.83652399 154.293221,5.74463645 154.293221,8.80979583 Z" id="Shape"></path>
            <path d="M44.8609419,10.048039 C44.8609419,12.0576468 43.2370164,13.6815723 41.2274086,13.6815723 L40.7808291,13.6815723 C38.7712213,13.6815723 37.1472958,12.0576468 37.1472958,10.048039 L37.1472958,0.284186962 L33.2701737,0.284186962 L33.2701737,10.048039 C33.2701737,14.189049 36.6398191,17.5789935 40.7808291,17.5789935 L41.2274086,17.5789935 C45.3684186,17.5789935 48.738064,14.2093481 48.738064,10.048039 L48.738064,0.284186962 L44.8609419,0.284186962 L44.8609419,10.048039 Z" id="Path"></path>
            <path d="M172.359393,0.0202990687 C167.548513,0.0202990687 163.651092,3.9583184 163.651092,8.78949676 C163.651092,13.6206751 167.568812,17.5586945 172.359393,17.5586945 C177.170272,17.5586945 181.067693,13.6206751 181.067693,8.78949676 C181.067693,3.9583184 177.170272,0.0202990687 172.359393,0.0202990687 Z M177.028178,8.78949676 C177.028178,11.4689738 174.937374,13.6409742 172.359393,13.6409742 C169.781411,13.6409742 167.690607,11.4689738 167.690607,8.78949676 C167.690607,6.11001969 169.781411,3.93801933 172.359393,3.93801933 C174.937374,3.9583184 177.028178,6.13031876 177.028178,8.78949676 Z" id="Shape"></path>
            <polygon id="Path" points="27.7082288 0.263887894 23.6890132 0.263887894 20.1772743 11.3471794 16.1986569 0.263887894 11.5704692 0.263887894 8.05873029 11.3471794 4.05981375 0.263887894 0 0.263887894 6.13031876 17.2948066 10.1698334 17.2948066 13.9657593 5.33865508 18.2691619 17.2948066 22.3086765 17.2948066"></polygon>
            <path d="M125.12346,12.1794412 L128.655498,12.1794412 L132.349928,17.3354047 L136.633032,17.3354047 L132.451423,11.4892729 C134.339237,10.4946185 135.638377,8.5053098 135.638377,6.21151503 C135.638377,2.9230659 132.9589,0.243588825 129.670451,0.243588825 L121.652319,0.243588825 L121.652319,1.98930874 L121.652319,12.1794412 L121.652319,17.3354047 L125.143759,17.3354047 L125.143759,12.1794412 L125.12346,12.1794412 Z M125.12346,3.73502865 L129.670451,3.73502865 C131.030489,3.73502865 132.146937,4.85147743 132.146937,6.21151503 C132.146937,7.57155264 131.030489,8.68800142 129.670451,8.68800142 L125.12346,8.68800142 L125.12346,3.73502865 Z" id="Shape"></path>
            <path d="M196.109303,8.13992656 L196.109303,8.56620701 L196.109303,8.89099211 L196.109303,11.3268804 L199.032369,11.3268804 C198.829378,11.9764506 198.443696,12.5448245 197.834724,13.0726003 C197.022761,13.7627686 196.129602,14.1078528 195.09435,14.1078528 C193.896705,14.1078528 192.739658,13.6409742 191.704405,12.686918 C190.567657,11.6719645 190.019582,10.4134223 190.019582,8.8300949 C190.019582,7.28736568 190.50676,6.04912248 191.521714,5.03416905 C192.536667,3.99891654 193.754611,3.51173889 195.256742,3.51173889 C196.352892,3.51173889 197.327247,3.85682306 198.200107,4.52669233 C198.443696,4.70938395 198.666986,4.91237463 198.890275,5.15596346 L201.143472,2.39529011 C200.778089,2.05020594 200.392407,1.74571991 200.006724,1.46153295 C199.641341,1.21794412 199.296257,0.994654368 198.930874,0.811962749 C197.794126,0.263887894 196.535583,0 195.216144,0 C192.759957,0 190.669153,0.872859956 188.943732,2.57798173 C187.23861,4.2831035 186.36575,6.37390758 186.36575,8.8300949 C186.36575,11.225385 187.218311,13.29589 188.903134,15.0213109 C190.587956,16.7264326 192.638162,17.5992926 194.992854,17.5992926 C197.428743,17.5992926 199.458649,16.7061336 201.021678,14.9198155 C201.711846,14.1281518 202.219323,13.2552919 202.523809,12.3215347 C202.828295,11.3471794 202.970388,10.2307306 202.970388,9.01278652 L202.970388,8.1805247 L196.109303,8.1805247 L196.109303,8.13992656 Z" id="Path"></path>
        </g>
    </g>
</svg>