
<svg class="Logo__horizontal"
  xmlns="http://www.w3.org/2000/svg" viewBox="0 0 1000 86.6">
  <polygon points="333.4,52 297.2,1.4 277.6,1.4 277.6,85.2 297.2,85.2 297.2,32.7 334.2,84.8 334.5,85.2 352.9,85.2 352.9,1.4 333.4,1.4"></polygon>
  <path d="M423.5,1.4h-33.3v83.8h33.3c26.6,0,44.4-16.8,44.4-41.9C467.9,18.3,450,1.4,423.5,1.4z M448,43.4 c0,14.4-10.1,24.4-24.5,24.4h-13.7V18.9h13.7C438.6,18.9,448,28.3,448,43.4z"></path>
  <polygon points="500.5,85.2 564.1,85.2 564.1,68 520.1,68 520.1,51.2 556.6,51.2 556.6,34.1 520.1,34.1 520.1,18.5 564.1,18.5 564.1,1.4 500.5,1.4"></polygon>
  <path d="M735.6,1.4h-33.3v83.8h33.3c26.6,0,44.4-16.8,44.4-41.9C780,18.3,762.2,1.4,735.6,1.4z M760.1,43.4 c0,14.4-10.1,24.4-24.5,24.4h-13.7V18.9h13.7C750.7,18.9,760.1,28.3,760.1,43.4z"></path>
  <path d="M221,49.5c0,9.9-8,17.9-17.9,17.9h-2.2c-9.9,0-17.9-8-17.9-17.9V1.4h-19.1v48.1c0,20.4,16.6,37.1,37,37.1h2.2 c20.4,0,37-16.6,37-37.1V1.4H221V49.5z"></path>
  <path d="M849.1,0.1c-23.7,0-42.9,19.4-42.9,43.2s19.3,43.2,42.9,43.2c23.7,0,42.9-19.4,42.9-43.2S872.8,0.1,849.1,0.1z  M872.1,43.3c0,13.2-10.3,23.9-23,23.9c-12.7,0-23-10.7-23-23.9s10.3-23.9,23-23.9C861.8,19.5,872.1,30.2,872.1,43.3z"></path>
  <polygon points="136.5,1.3 116.7,1.3 99.4,55.9 79.8,1.3 57,1.3 39.7,55.9 20,1.3 0,1.3 30.2,85.2 50.1,85.2 68.8,26.3 90,85.2 109.9,85.2"></polygon>
  <path d="M616.4,60h17.4L652,85.4h21.1l-20.6-28.8c9.3-4.9,15.7-14.7,15.7-26c0-16.2-13.2-29.4-29.4-29.4h-39.5v8.6V60v25.4h17.2 V60z M616.4,18.4h22.4c6.7,0,12.2,5.5,12.2,12.2s-5.5,12.2-12.2,12.2h-22.4V18.4z"></path>
  <path d="M966.1,40.1v2.1v1.6v12h14.4c-1,3.2-2.9,6-5.9,8.6c-4,3.4-8.4,5.1-13.5,5.1c-5.9,0-11.6-2.3-16.7-7c-5.6-5-8.3-11.2-8.3-19 c0-7.6,2.4-13.7,7.4-18.7c5-5.1,11-7.5,18.4-7.5c5.4,0,10.2,1.7,14.5,5c1.2,0.9,2.3,1.9,3.4,3.1l11.1-13.6c-1.8-1.7-3.7-3.2-5.6-4.6 C983.5,6,981.8,4.9,980,4c-5.6-2.7-11.8-4-18.3-4c-12.1,0-22.4,4.3-30.9,12.7c-8.4,8.4-12.7,18.7-12.7,30.8c0,11.8,4.2,22,12.5,30.5 c8.3,8.4,18.4,12.7,30,12.7c12,0,22-4.4,29.7-13.2c3.4-3.9,5.9-8.2,7.4-12.8c1.5-4.8,2.2-10.3,2.2-16.3v-4.1H966.1z"></path>
</svg>