<svg version="1.1" xmlns="http://www.w3.org/2000/svg" xmlns:xlink="http://www.w3.org/1999/xlink" x="0px" y="0px" viewBox="0 0 48 48" xml:space="preserve" width="48" height="48"><title>calendar 60</title><g class="nc-icon-wrapper" fill="#111111"><path data-color="color-2" fill="#111111" d="M14,1h-2c-0.553,0-1,0.447-1,1v7c0,0.553,0.447,1,1,1h2c0.553,0,1-0.447,1-1V2 C15,1.447,14.553,1,14,1z"/> <path data-color="color-2" fill="#111111" d="M36,10h-2c-0.552,0-1-0.448-1-1V2c0-0.552,0.448-1,1-1h2c0.552,0,1,0.448,1,1v7 C37,9.552,36.552,10,36,10z"/> <path fill="#111111" d="M45,5h-6v6c0,0.552-0.448,1-1,1h-6c-0.552,0-1-0.448-1-1V5H17v6c0,0.552-0.448,1-1,1h-6 c-0.552,0-1-0.448-1-1V5H3C1.895,5,1,5.895,1,7v38c0,1.105,0.895,2,2,2h42c1.105,0,2-0.895,2-2V7C47,5.895,46.105,5,45,5z M44,45H4 c-0.552,0-1-0.448-1-1V17c0-0.552,0.448-1,1-1h40c0.552,0,1,0.448,1,1v27C45,44.552,44.552,45,44,45z"/></g></svg>