<?xml version="1.0" encoding="UTF-8"?>
<svg width="49px" height="50px" viewBox="0 0 49 50" version="1.1" xmlns="http://www.w3.org/2000/svg" xmlns:xlink="http://www.w3.org/1999/xlink">
    <!-- Generator: Sketch 52.3 (67297) - http://www.bohemiancoding.com/sketch -->
    <title>Group 2</title>
    <desc>Created with Sketch.</desc>
    <g id="Desktop_Pages" stroke="none" stroke-width="1" fill="none" fill-rule="evenodd">
        <g id="Landing-about_Desktop" transform="translate(-779.000000, -1376.000000)">
            <g id="Group-2" transform="translate(780.453125, 1377.913569)">
                <circle id="Oval" stroke="#2C2C2C" stroke-width="3" fill-rule="nonzero" cx="23.0214844" cy="22.9519675" r="22.8195415"></circle>
                <path d="M17.645545,25.2841017 L21.8733289,26.5620213 C21.5893453,27.7476526 21.1420779,28.7380303 20.5315133,29.5331843 C19.9209487,30.3283382 19.163079,30.9282444 18.2578814,31.332921 C17.3526839,31.7375976 16.2007929,31.9399328 14.8021739,31.9399328 C13.1053722,31.9399328 11.7191983,31.6932258 10.6436107,31.1998044 C9.56802297,30.706383 8.63976568,29.8384713 7.85881093,28.5960433 C7.07785617,27.3536152 6.68738466,25.7633312 6.68738466,23.8251435 C6.68738466,21.2408933 7.37425955,19.2548131 8.74802996,17.8668435 C10.1218004,16.478874 12.0652836,15.7848996 14.578538,15.7848996 C16.545124,15.7848996 18.0910363,16.1824706 19.2163211,16.9776245 C20.3416059,17.7727784 21.1775699,18.9938894 21.7242382,20.6409939 L17.4645064,21.5887843 C17.315415,21.1131118 17.1592264,20.7652372 16.9959358,20.54515 C16.7261515,20.1759714 16.3960256,19.8919921 16.0055482,19.6932036 C15.6150708,19.4944151 15.1784526,19.3950224 14.6956806,19.3950224 C13.602344,19.3950224 12.7646051,19.8351903 12.1824388,20.7155392 C11.7422643,21.3687014 11.5221804,22.3945766 11.5221804,23.7931955 C11.5221804,25.5254952 11.7848612,26.7128836 12.3102308,27.3553963 C12.8356003,27.9979091 13.5739465,28.3191607 14.5252913,28.3191607 C15.4482379,28.3191607 16.145762,28.0600296 16.6178846,27.5417596 C17.0900073,27.0234896 17.4325573,26.2709445 17.645545,25.2841017 Z M34.6099272,25.2841017 L38.8377111,26.5620213 C38.5537276,27.7476526 38.1064602,28.7380303 37.4958956,29.5331843 C36.885331,30.3283382 36.1274612,30.9282444 35.2222637,31.332921 C34.3170661,31.7375976 33.1651752,31.9399328 31.7665562,31.9399328 C30.0697545,31.9399328 28.6835806,31.6932258 27.6079929,31.1998044 C26.5324052,30.706383 25.604148,29.8384713 24.8231932,28.5960433 C24.0422384,27.3536152 23.6517669,25.7633312 23.6517669,23.8251435 C23.6517669,21.2408933 24.3386418,19.2548131 25.7124122,17.8668435 C27.0861826,16.478874 29.0296659,15.7848996 31.5429203,15.7848996 C33.5095063,15.7848996 35.0554186,16.1824706 36.1807034,16.9776245 C37.3059882,17.7727784 38.1419522,18.9938894 38.6886205,20.6409939 L34.4288886,21.5887843 C34.2797973,21.1131118 34.1236087,20.7652372 33.9603181,20.54515 C33.6905337,20.1759714 33.3604078,19.8919921 32.9699304,19.6932036 C32.5794531,19.4944151 32.1428349,19.3950224 31.6600629,19.3950224 C30.5667262,19.3950224 29.7289873,19.8351903 29.1468211,20.7155392 C28.7066466,21.3687014 28.4865626,22.3945766 28.4865626,23.7931955 C28.4865626,25.5254952 28.7492435,26.7128836 29.274613,27.3553963 C29.7999826,27.9979091 30.5383287,28.3191607 31.4896736,28.3191607 C32.4126201,28.3191607 33.1101443,28.0600296 33.5822669,27.5417596 C34.0543896,27.0234896 34.3969396,26.2709445 34.6099272,25.2841017 Z" id="CC" fill="#33332D"></path>
            </g>
        </g>
    </g>
</svg>