<?xml version="1.0" encoding="UTF-8"?>
<svg width="247px" height="82px" viewBox="0 0 247 82" version="1.1" xmlns="http://www.w3.org/2000/svg" xmlns:xlink="http://www.w3.org/1999/xlink">
    <!-- Generator: Sketch 53.2 (72643) - https://sketchapp.com -->
    <title>logo/houston</title>
    <desc>Created with Sketch.</desc>
    <defs>
        <polygon id="path-1" points="0 0.0267192673 138.208167 0.0267192673 138.208167 36.4654381 0 36.4654381"></polygon>
    </defs>
    <g id="logo/houston" stroke="none" stroke-width="1" fill="none" fill-rule="evenodd">
        <g id="houston_simple.eps-copy-3" transform="translate(54.581893, 23.263040)">
            <mask id="mask-2" fill="white">
                <use xlink:href="#path-1"></use>
            </mask>
            <g id="Clip-2"></g>
            <path d="M82.8051298,13.5066603 L82.8051298,25.5365509 L85.993629,25.5365509 L85.993629,13.5066603 L90.4065493,13.5066603 L90.4065493,10.4456784 L78.3751036,10.4456784 L78.3751036,13.5066603 L82.8051298,13.5066603 Z M96.4910495,17.9636885 C96.4910495,20.5595572 98.3178557,22.7079842 100.886157,22.7079842 C103.454882,22.7079842 105.247194,20.5954657 105.247194,18.0179753 L105.247194,18.0000211 C105.247194,15.4042937 103.420529,13.2558667 100.852228,13.2558667 C98.2835023,13.2558667 96.4910495,15.3683853 96.4910495,17.9457343 L96.4910495,17.9636885 Z M93.1470413,18.0179753 L93.1470413,17.9820669 C93.1470413,13.6854956 96.4048127,10.1769306 100.886157,10.1769306 C105.367925,10.1769306 108.591343,13.6497285 108.591343,17.9457343 L108.591343,17.9636885 C108.591343,22.2602598 105.333572,25.7688247 100.852228,25.7688247 C96.370318,25.7688247 93.1470413,22.3141224 93.1470413,18.0179753 L93.1470413,18.0179753 Z M70.4119137,22.7970485 C68.7568742,22.7970485 67.3782166,22.0812831 66.068407,20.9717974 L64.1721872,23.3164484 C65.9131808,24.9279454 68.1366762,25.7333404 70.3430656,25.7333404 C73.4801055,25.7333404 75.6692476,24.050168 75.6692476,21.061003 L75.6692476,21.0250945 C75.721131,18.3934588 74.0485615,17.3017858 71.1011011,16.4958253 C68.5846834,15.8339226 67.9639199,15.5113122 67.9639199,14.5089862 L67.9639199,14.4730778 C67.9639199,13.7389341 68.6022135,13.1666611 69.8256449,13.1666611 C71.0496418,13.1666611 72.3079921,13.7209799 73.600837,14.6520545 L75.2555938,12.1459569 C73.7899925,10.9106502 71.9807164,10.2303692 69.8605637,10.2303692 C66.8957147,10.2303692 64.775562,12.0386557 64.775562,14.7775926 L64.775562,14.8130769 C64.775562,17.8026661 66.6710749,18.644535 69.5841819,19.4321173 C72.0146456,20.0766312 72.5146776,20.5062601 72.5146776,21.3477049 L72.5146776,21.3830479 C72.5146776,22.2602598 71.7222888,22.7970485 70.4119137,22.7970485 L70.4119137,22.7970485 Z M31.3364697,17.9636885 C31.3364697,20.5595572 33.1637,22.7079842 35.7318599,22.7079842 C38.3001611,22.7079842 40.0924726,20.5954657 40.0924726,18.0179753 L40.0924726,18.0000211 C40.0924726,15.4042937 38.2652423,13.2558667 35.696941,13.2558667 C33.1292053,13.2558667 31.3364697,15.3683853 31.3364697,17.9457343 L31.3364697,17.9636885 Z M28.0097089,18.0179753 L28.0097089,17.9820669 C28.0097089,13.6854956 31.2674803,10.1769306 35.7488245,10.1769306 C40.2307342,10.1769306 43.436198,13.6497285 43.4540109,17.9457343 L43.4540109,17.9636885 C43.4540109,22.2602598 40.1962395,25.7688247 35.7148953,25.7688247 C31.2325615,25.7688247 28.0097089,22.3141224 28.0097089,18.0179753 L28.0097089,18.0179753 Z M53.8304171,25.7333404 C57.7428812,25.7333404 60.2078397,23.4958492 60.2078397,18.9306715 L60.2078397,10.4271587 L57.0018103,10.4271587 L57.0018103,19.0737398 C57.0018103,21.4726776 55.8123081,22.69003 53.8647704,22.69003 C51.9173741,22.69003 50.7277305,21.4189563 50.7277305,18.96658 L50.7277305,10.4271587 L47.5386658,10.4271587 L47.5386658,19.0378313 C47.5386658,23.477895 49.917953,25.7333404 53.8304171,25.7333404 L53.8304171,25.7333404 Z M3.15457,33.1981948 L135.036632,33.1981948 L135.036632,3.30244488 L3.15457,3.30244488 L3.15457,33.1981948 Z M0,36.4739204 L138.208167,36.4739204 L138.208167,0.0267192673 L0,0.0267192673 L0,36.4739204 Z M14.8231143,19.4854144 L20.7186005,19.4854144 L20.7186005,25.5365509 L23.9076652,25.5365509 L23.9076652,10.4456784 L20.7186005,10.4456784 L20.7186005,16.4060542 L14.8231143,16.4060542 L14.8231143,10.4456784 L11.6347565,10.4456784 L11.6347565,25.5365509 L14.8231143,25.5365509 L14.8231143,19.4854144 Z M115.864922,15.9415065 L122.897602,25.5365509 L125.620988,25.5365509 L125.620988,10.4456784 L122.466418,10.4456784 L122.466418,19.736208 L115.658377,10.4456784 L112.710917,10.4456784 L112.710917,25.5365509 L115.864922,25.5365509 L115.864922,15.9415065 L115.864922,15.9415065 Z" id="Fill-1" fill="#000105" mask="url(#mask-2)"></path>
        </g>
    </g>
</svg>