<?xml version="1.0" encoding="UTF-8"?>
<svg width="109px" height="29px" viewBox="0 0 109 29" version="1.1" xmlns="http://www.w3.org/2000/svg" xmlns:xlink="http://www.w3.org/1999/xlink">
    <!-- Generator: Sketch 53.2 (72643) - https://sketchapp.com -->
    <title>houston_simple.eps</title>
    <desc>Created with Sketch.</desc>
    <defs>
        <polygon id="path-1" points="0 0.0208875878 108.043203 0.0208875878 108.043203 28.5065841 0 28.5065841"></polygon>
    </defs>
    <g id="Desktop_Pages" stroke="none" stroke-width="1" fill="none" fill-rule="evenodd">
        <g id="Landing-about_Tablet" transform="translate(-406.000000, -4436.000000)">
            <g id="houston_simple.eps" transform="translate(406.000000, 4436.456187)">
                <mask id="mask-2" fill="white">
                    <use xlink:href="#path-1"></use>
                </mask>
                <g id="Clip-2"></g>
                <path d="M64.7322923,10.5587309 L64.7322923,19.9630081 L67.2248777,19.9630081 L67.2248777,10.5587309 L70.6746452,10.5587309 L70.6746452,8.16583114 L61.2691523,8.16583114 L61.2691523,10.5587309 L64.7322923,10.5587309 Z M75.4311579,14.0429795 C75.4311579,16.0722804 76.85925,17.7517972 78.8670003,17.7517972 C80.8750821,17.7517972 82.2762083,16.1003516 82.2762083,14.0854177 L82.2762083,14.0713821 C82.2762083,12.0421917 80.8482267,10.3626749 78.8404764,10.3626749 C76.8323945,10.3626749 75.4311579,12.0141205 75.4311579,14.0289439 L75.4311579,14.0429795 Z M72.8170044,14.0854177 L72.8170044,14.0573466 C72.8170044,10.698534 75.3637429,7.95573958 78.8670003,7.95573958 C82.3705892,7.95573958 84.8904722,10.6705734 84.8904722,14.0289439 L84.8904722,14.0429795 C84.8904722,17.401792 82.3437337,20.1445864 78.8404764,20.1445864 C75.3367769,20.1445864 72.8170044,17.4438987 72.8170044,14.0854177 L72.8170044,14.0854177 Z M55.0439881,17.8214225 C53.7501733,17.8214225 52.672418,17.2618783 51.6484841,16.3945461 L50.1661285,18.2274595 C51.5271372,19.4872353 53.2653381,20.1168468 54.9901666,20.1168468 C57.4425241,20.1168468 59.1538696,18.8010393 59.1538696,16.4642819 L59.1538696,16.4362107 C59.1944291,14.3789491 57.8869103,13.525542 55.5827552,12.8954883 C53.6155644,12.3780508 53.1302872,12.1258525 53.1302872,11.3422917 L53.1302872,11.3142206 C53.1302872,10.7403092 53.6292684,10.2929391 54.5856768,10.2929391 C55.5425273,10.2929391 56.5262332,10.7262736 57.5369051,11.4541342 L58.8304988,9.49501113 C57.6847759,8.52931938 56.2703879,7.99751476 54.6129743,7.99751476 C52.2952257,7.99751476 50.6378122,9.41112923 50.6378122,11.5522728 L50.6378122,11.5800124 C50.6378122,13.9171013 52.1196153,14.5752261 54.3969149,15.1909126 C56.2969118,15.6947566 56.6878081,16.0306158 56.6878081,16.688409 L56.6878081,16.7160381 C56.6878081,17.401792 56.068364,17.8214225 55.0439881,17.8214225 L55.0439881,17.8214225 Z M24.4970514,14.0429795 C24.4970514,16.0722804 25.925475,17.7517972 27.9331148,17.7517972 C29.9408651,17.7517972 31.3419912,16.1003516 31.3419912,14.0854177 L31.3419912,14.0713821 C31.3419912,12.0421917 29.9135676,10.3626749 27.9058173,10.3626749 C25.898509,10.3626749 24.4970514,12.0141205 24.4970514,14.0289439 L24.4970514,14.0429795 Z M21.8963809,14.0854177 L21.8963809,14.0573466 C21.8963809,10.698534 24.4431194,7.95573958 27.9463768,7.95573958 C31.4500762,7.95573958 33.9559236,10.6705734 33.9698487,14.0289439 L33.9698487,14.0429795 C33.9698487,17.401792 31.4231102,20.1445864 27.9198528,20.1445864 C24.4158219,20.1445864 21.8963809,17.4438987 21.8963809,14.0854177 L21.8963809,14.0854177 Z M42.0815268,20.1168468 C45.1400665,20.1168468 47.0670293,18.3677048 47.0670293,14.7989112 L47.0670293,8.1513535 L44.5607398,8.1513535 L44.5607398,14.9107537 C44.5607398,16.7861055 43.6308554,17.7377616 42.1083823,17.7377616 C40.5860198,17.7377616 39.6560248,16.7441093 39.6560248,14.8269823 L39.6560248,8.1513535 L37.1629972,8.1513535 L37.1629972,14.8826826 C37.1629972,18.3536692 39.0229872,20.1168468 42.0815268,20.1168468 L42.0815268,20.1168468 Z M2.46606155,25.952441 L105.563879,25.952441 L105.563879,2.58166164 L2.46606155,2.58166164 L2.46606155,25.952441 Z M0,28.5132151 L108.043203,28.5132151 L108.043203,0.0208875878 L0,0.0208875878 L0,28.5132151 Z M11.587859,15.2325773 L16.1966113,15.2325773 L16.1966113,19.9630081 L18.6896389,19.9630081 L18.6896389,8.16583114 L16.1966113,8.16583114 L16.1966113,12.8253104 L11.587859,12.8253104 L11.587859,8.16583114 L9.09538406,8.16583114 L9.09538406,19.9630081 L11.587859,19.9630081 L11.587859,15.2325773 Z M90.5765378,12.4621538 L96.0742835,19.9630081 L98.2032702,19.9630081 L98.2032702,8.16583114 L95.7372087,8.16583114 L95.7372087,15.4286333 L90.4150734,8.16583114 L88.1109183,8.16583114 L88.1109183,19.9630081 L90.5765378,19.9630081 L90.5765378,12.4621538 L90.5765378,12.4621538 Z" id="Fill-1" fill="#000105" mask="url(#mask-2)"></path>
            </g>
        </g>
    </g>
</svg>