<?xml version="1.0" encoding="UTF-8"?>
<svg width="247px" height="82px" viewBox="0 0 247 82" version="1.1" xmlns="http://www.w3.org/2000/svg" xmlns:xlink="http://www.w3.org/1999/xlink">
    <!-- Generator: Sketch 53.2 (72643) - https://sketchapp.com -->
    <title>kesko</title>
    <desc>Created with Sketch.</desc>
    <defs>
        <polygon id="path-1" points="0 0.118125077 59.0756425 0.118125077 59.0756425 66.0778767 0 66.0778767"></polygon>
    </defs>
    <g id="kesko" stroke="none" stroke-width="1" fill="none" fill-rule="evenodd">
        <g id="K-logo-Pantone-(EPS)" transform="translate(93.873008, 7.954509)">
            <mask id="mask-2" fill="white">
                <use xlink:href="#path-1"></use>
            </mask>
            <g id="Clip-2"></g>
            <path d="M0,6.08154235 C0,7.01343906 0.652726511,7.66578575 1.58386357,7.66578575 L57.491589,7.66578575 C58.4234857,7.66578575 59.0756425,7.01343906 59.0756425,6.08154235 L59.0756425,1.70217856 C59.0756425,0.770661677 58.4234857,0.118125077 57.491589,0.118125077 L1.58386357,0.118125077 C0.652726511,0.118125077 0,0.770661677 0,1.70217856 L0,6.08154235 Z M0,64.5054079 C0,65.4367348 0.652726511,66.0892714 1.58386357,66.0892714 L57.491589,66.0892714 C58.4234857,66.0892714 59.0756425,65.4367348 59.0756425,64.5054079 L59.0756425,60.1256643 C59.0756425,59.1937675 58.4234857,58.5418007 57.491589,58.5418007 L1.58386357,58.5418007 C0.652726511,58.5418007 0,59.1937675 0,60.1256643 L0,64.5054079 Z M48.2664383,52.2982636 C49.3848283,52.2982636 50.0375548,51.1804434 49.1990946,49.9686168 L35.6878268,32.1718015 L48.9191648,16.23821 C49.8504917,15.0267632 49.1056581,13.9087531 47.9872681,13.9087531 L37.5516202,13.9087531 C36.2463571,13.9087531 35.5013335,14.4678531 34.8493666,15.3995599 L22.5493556,31.2399048 L22.5493556,15.4926166 C22.5493556,14.5610997 21.896629,13.9087531 20.9653021,13.9087531 L11.4609812,13.9087531 C10.5290844,13.9087531 9.87711758,14.5610997 9.87711758,15.4926166 L9.87711758,50.7142102 C9.87711758,51.6468665 10.5290844,52.2982636 11.4609812,52.2982636 L20.9653021,52.2982636 C21.896629,52.2982636 22.5493556,51.6468665 22.5493556,50.7142102 L22.5493556,33.3836281 L34.8493666,50.8078366 C35.5013335,51.7397333 36.2463571,52.2982636 37.5516202,52.2982636 L48.2664383,52.2982636 L48.2664383,52.2982636 Z" id="Fill-1" fill="#E46B2A" mask="url(#mask-2)"></path>
        </g>
    </g>
</svg>