<?xml version="1.0" encoding="UTF-8"?>
<svg width="247px" height="82px" viewBox="0 0 247 82" version="1.1" xmlns="http://www.w3.org/2000/svg" xmlns:xlink="http://www.w3.org/1999/xlink">
    <!-- Generator: Sketch 53.2 (72643) - https://sketchapp.com -->
    <title>logo/kesko</title>
    <desc>Created with Sketch.</desc>
    <defs>
        <polygon id="path-1" points="0.0174093533 0.274487471 110.28274 0.274487471 110.28274 24.6458412 0.0174093533 24.6458412"></polygon>
    </defs>
    <g id="logo/kesko" stroke="none" stroke-width="1" fill="none" fill-rule="evenodd">
        <g id="Kesko-logo-Pantone-(EPS)" transform="translate(68.000000, 28.500000)">
            <mask id="mask-2" fill="white">
                <use xlink:href="#path-1"></use>
            </mask>
            <g id="Clip-2"></g>
            <path d="M45.5460601,17.4995918 C45.1125672,17.2665966 44.7794682,17.4334363 44.6126286,17.8332711 L42.9134757,21.8644069 C42.7135583,22.2973195 42.8473201,22.5973406 43.2134969,22.797258 C45.3792204,23.9633946 48.1110381,24.6632506 50.8100682,24.6632506 C56.0412887,24.6632506 59.3731488,21.8313291 59.3731488,17.4665141 C59.3731488,14.2010997 57.8402552,12.1357701 54.90823,10.7026901 L52.0095726,9.2701905 C50.5437051,8.53754688 49.8441392,8.17078984 49.8441392,7.33804243 C49.8441392,6.57174073 50.510047,6.00477612 51.7432095,6.00477612 C53.1086832,6.00477612 54.3081876,6.37153317 55.7076095,7.00436316 C56.1411024,7.20428057 56.4071753,7.03802125 56.5743051,6.63818643 L58.2400901,2.8060976 C58.4402976,2.37347517 58.4402976,2.07374414 58.0404628,1.80680072 C56.8740361,1.10694472 54.4082914,0.274487471 51.6097378,0.274487471 C46.5456471,0.274487471 43.1133931,3.20593242 43.1133931,7.5040116 C43.1133931,10.9023174 44.879572,12.8687038 47.7112033,14.2681257 L50.3440778,15.6005215 C51.6764737,16.2670096 52.6426928,16.7335803 52.6426928,17.5996956 C52.6426928,18.3662875 52.0432307,18.9326718 50.6438089,18.9326718 C49.1445734,18.9326718 47.2782907,18.4327332 45.5460601,17.4995918 L45.5460601,17.4995918 Z M91.6579241,12.468869 C91.6579241,8.97045947 94.1236689,6.40461094 97.3557153,6.40461094 C100.587181,6.40461094 103.053216,8.97045947 103.053216,12.468869 C103.053216,15.9672786 100.587181,18.5328369 97.3557153,18.5328369 C94.1236689,18.5328369 91.6579241,15.9672786 91.6579241,12.468869 L91.6579241,12.468869 Z M110.28274,12.468869 C110.28274,5.2721325 104.452348,0.274487471 97.3557153,0.274487471 C90.2587924,0.274487471 84.4281098,5.2721325 84.4281098,12.468869 C84.4281098,19.6656055 90.2587924,24.6632506 97.3557153,24.6632506 C104.452348,24.6632506 110.28274,19.6656055 110.28274,12.468869 L110.28274,12.468869 Z M39.3822785,6.57174073 C39.7147972,6.57174073 39.9486628,6.33816524 39.9486628,6.00477612 L39.9486628,1.24070658 C39.9486628,0.907317465 39.7147972,0.674322286 39.3822785,0.674322286 L25.9883925,0.674322286 C25.6550034,0.674322286 25.4214279,0.907317465 25.4214279,1.24070658 L25.4214279,23.6967413 C25.4214279,24.0304206 25.6550034,24.2634158 25.9883925,24.2634158 L39.7487454,24.2634158 C40.0818444,24.2634158 40.3148395,24.0304206 40.3148395,23.6967413 L40.3148395,18.9326718 C40.3148395,18.5989925 40.0818444,18.3662875 39.7487454,18.3662875 L32.185542,18.3662875 L32.185542,15.2006867 L37.4829181,15.2006867 C37.816017,15.2006867 38.0495925,14.9676915 38.0495925,14.6345926 L38.0495925,10.3028553 C38.0495925,9.9700465 37.816017,9.73705133 37.4829181,9.73705133 L32.185542,9.73705133 L32.185542,6.57174073 L39.3822785,6.57174073 Z M7.09663273,1.24070658 C7.09663273,0.907317465 6.86363756,0.674322286 6.53024844,0.674322286 L0.566674451,0.674322286 C0.232995179,0.674322286 0,0.907317465 0,1.24070658 L0,23.6967413 C0,24.0304206 0.232995179,24.2634158 0.566674451,24.2634158 L6.53024844,24.2634158 C6.86363756,24.2634158 7.09663273,24.0304206 7.09663273,23.6967413 L7.09663273,12.9014915 L14.4602089,23.7303994 C14.6934942,24.0965761 15.0599611,24.2634158 15.5259515,24.2634158 L22.5227706,24.2634158 C23.0563673,24.2634158 23.1561809,23.7303994 22.9226054,23.4303782 L14.8934116,12.1688478 L22.722688,1.60659316 C23.089445,1.1406028 22.8895276,0.674322286 22.3565113,0.674322286 L15.5929775,0.674322286 C14.9932253,0.674322286 14.7262818,0.874239694 14.4602089,1.2070485 L7.09663273,11.3691782 L7.09663273,1.24070658 Z M69.2680449,1.24070658 C69.2680449,0.907317465 69.0353399,0.674322286 68.7019508,0.674322286 L62.7380866,0.674322286 C62.4046975,0.674322286 62.1717024,0.907317465 62.1717024,1.24070658 L62.1717024,23.6967413 C62.1717024,24.0304206 62.4046975,24.2634158 62.7380866,24.2634158 L68.7019508,24.2634158 C69.0353399,24.2634158 69.2680449,24.0304206 69.2680449,23.6967413 L69.2680449,12.9014915 L76.6319112,23.7303994 C76.8651966,24.0965761 77.2316635,24.2634158 77.6976538,24.2634158 L84.6944729,24.2634158 C85.2277795,24.2634158 85.3278832,23.7303994 85.0943077,23.4303782 L77.0648238,12.1688478 L84.8943903,1.60659316 C85.2608572,1.1406028 85.06123,0.674322286 84.5282136,0.674322286 L77.7643897,0.674322286 C77.1646375,0.674322286 76.8979842,0.874239694 76.6319112,1.2070485 L69.2680449,11.3691782 L69.2680449,1.24070658 L69.2680449,1.24070658 Z" id="Fill-1" fill="#18233D" mask="url(#mask-2)"></path>
        </g>
    </g>
</svg>