<?xml version="1.0" encoding="UTF-8"?>
<svg width="247px" height="82px" viewBox="0 0 247 82" version="1.1" xmlns="http://www.w3.org/2000/svg" xmlns:xlink="http://www.w3.org/1999/xlink">
    <!-- Generator: Sketch 53.2 (72643) - https://sketchapp.com -->
    <title>konecranes</title>
    <desc>Created with Sketch.</desc>
    <defs>
        <polygon id="path-1" points="0.0111599651 0.0909537154 110.538338 0.0909537154 110.538338 20.1787049 0.0111599651 20.1787049"></polygon>
    </defs>
    <g id="konecranes" stroke="none" stroke-width="1" fill="none" fill-rule="evenodd">
        <g id="cmyk_vector_logo_Konecranes" transform="translate(30.686290, 30.119034)">
            <path d="M183.387986,2.28797884 C183.695257,2.28797884 183.967746,2.25747494 183.967746,1.89570607 C183.967746,1.59345701 183.672751,1.55793113 183.425,1.55793113 L182.930242,1.55793113 L182.930242,2.28797884 L183.387986,2.28797884 Z M182.930242,3.70492241 L182.520299,3.70492241 L182.520299,1.20769422 L183.466292,1.20769422 C184.070046,1.20769422 184.377503,1.41898956 184.377503,1.92620997 C184.377503,2.37744456 184.100736,2.56493198 183.725761,2.60696784 L184.425491,3.70492241 L183.961236,3.70492241 L183.317492,2.63672775 L182.930242,2.63672775 L182.930242,3.70492241 Z M183.377012,0.550744277 C182.399771,0.550744277 181.639778,1.31668988 181.639778,2.41445845 C181.639778,3.43894324 182.303796,4.27817262 183.377012,4.27817262 C184.341791,4.27817262 185.101041,3.517435 185.101041,2.41445845 C185.101041,1.31668988 184.341791,0.550744277 183.377012,0.550744277 Z M183.377012,4.67044539 C182.080038,4.67044539 181.157295,3.69822643 181.157295,2.41445845 C181.157295,1.05722069 182.182524,0.159215502 183.377012,0.159215502 C184.558295,0.159215502 185.584267,1.05722069 185.584267,2.41445845 C185.584267,3.7702082 184.558295,4.67044539 183.377012,4.67044539 L183.377012,4.67044539 Z" id="Fill-1" fill="#DD4534"></path>
            <polyline id="Fill-2" fill="#DD4534" points="52.089509 1.20695022 52.089509 15.8856523 41.1194494 1.20695022 37.1533838 1.20695022 37.1533838 21.2947014 40.904062 21.2947014 40.904062 6.37717605 52.0630971 21.2947014 55.8414893 21.2947014 55.8414893 1.20695022 52.089509 1.20695022"></polyline>
            <polyline id="Fill-3" fill="#DD4534" points="58.0398164 1.20695022 58.0398164 21.2947014 71.581504 21.2947014 71.581504 18.0244596 61.7914247 18.0244596 61.7914247 12.792668 71.2095052 12.792668 71.2095052 9.52019421 61.7914247 9.52019421 61.7914247 4.47719199 71.581504 4.47719199 71.581504 1.20695022 58.0398164 1.20695022"></polyline>
            <path d="M119.679466,5.58444653 L122.351719,12.464937 L116.978754,12.464937 L119.679466,5.58444653 Z M121.301938,1.20695022 L118.027977,1.20695022 L109.110235,21.2947014 L113.086716,21.2947014 L115.637698,15.4946815 L123.660225,15.4946815 L126.212695,21.2947014 L130.219681,21.2947014 L121.301938,1.20695022 L121.301938,1.20695022 Z" id="Fill-4" fill="#DD4534"></path>
            <polyline id="Fill-5" fill="#DD4534" points="144.961622 1.20695022 144.961622 15.8841643 133.991935 1.20695022 130.026427 1.20695022 130.026427 21.2947014 133.776175 21.2947014 133.776175 6.37568805 144.935397 21.2947014 148.714905 21.2947014 148.714905 1.20695022 144.961622 1.20695022"></polyline>
            <polyline id="Fill-6" fill="#DD4534" points="150.873986 1.20695022 150.873986 21.2947014 164.416232 21.2947014 164.416232 18.0244596 154.625966 18.0244596 154.625966 12.792668 164.044233 12.792668 164.044233 9.52019421 154.625966 9.52019421 154.625966 4.47719199 164.416232 4.47719199 164.416232 1.20695022 150.873986 1.20695022"></polyline>
            <path d="M174.170041,9.15544936 L173.241532,8.89170218 L172.993781,8.8206504 C171.876296,8.5016614 170.004584,7.96765707 170.004584,6.35095013 C170.004584,5.30116941 171.110537,3.84516597 173.187034,3.84516597 C174.733061,3.84516597 176.537814,4.54396578 176.537814,6.51090963 L176.537814,6.70992901 L180.611015,6.70992901 L180.611015,6.51090963 C180.611015,3.14822615 177.55802,0.799239499 173.187034,0.799239499 C168.18179,0.799239499 165.930081,4.06166929 165.930081,6.37717605 C165.930081,7.95519511 166.597075,9.40543257 167.714559,10.2576819 C168.938063,11.189911 169.833837,11.517642 173.131792,12.5129249 C173.130304,12.5129249 173.587305,12.6501924 173.587305,12.6501924 C175.210522,13.1319309 177.050056,13.6783972 177.050056,15.5659193 C177.050056,17.4484194 175.498263,18.7132155 173.187034,18.7132155 C169.333312,18.7132155 169.289044,15.4626896 169.289044,15.3246781 L169.289044,15.1264027 L165.214355,15.1264027 L165.214355,15.3246781 C165.214355,19.7456982 169.347076,21.7589559 173.187034,21.7589559 C177.859526,21.7589559 181.123257,19.2116939 181.123257,15.5659193 C181.123257,11.0946793 177.268047,10.0194167 174.170041,9.15544936" id="Fill-7" fill="#DD4534"></path>
            <path d="M25.2323091,18.2359409 C21.4963247,18.2359409 18.4689982,15.1219387 18.4689982,11.2806787 C18.4689982,7.43867473 21.4963247,4.32467247 25.2323091,4.32467247 C28.9679214,4.32467247 31.9954339,7.43867473 31.9954339,11.2806787 C31.9954339,15.1219387 28.9679214,18.2359409 25.2323091,18.2359409 Z M25.2326811,0.798681501 C19.4430772,0.798681501 14.7504979,5.49144682 14.7504979,11.2806787 C14.7504979,17.0691666 19.4430772,21.7619319 25.2326811,21.7619319 C31.0215409,21.7619319 35.7139343,17.0691666 35.7139343,11.2806787 C35.7139343,5.49144682 31.0215409,0.798681501 25.2326811,0.798681501 L25.2326811,0.798681501 Z" id="Fill-8" fill="#DD4534"></path>
            <path d="M89.8767788,11.3721904 C89.828791,15.1714145 86.8237844,18.2359409 83.11849,18.2359409 C79.3828776,18.2359409 76.3555511,15.1219387 76.3555511,11.2806787 C76.3555511,7.44016272 79.3806456,4.32746246 83.114026,4.32541647 L83.114026,0.798681501 C77.3266541,0.801471492 72.6370507,5.49293481 72.6370507,11.2806787 C72.6370507,17.0691666 77.3294441,21.7619319 83.119048,21.7619319 C88.8770319,21.7619319 93.5480353,17.1184564 93.5973252,11.3721904 L89.8767788,11.3721904" id="Fill-9" fill="#DD4534"></path>
            <g id="Group-13" transform="translate(0.000000, 1.115997)">
                <mask id="mask-2" fill="white">
                    <use xlink:href="#path-1"></use>
                </mask>
                <g id="Clip-11"></g>
                <path d="M98.443912,3.11642025 L101.796366,3.11642025 C105.420378,3.11642025 106.705634,4.98943439 106.705634,6.59293537 C106.705634,8.98990987 104.75729,10.2534039 101.843051,10.2561939 L98.443912,10.2561939 L98.443912,3.11642025 Z M110.107378,19.5974567 L110.538338,19.5974567 L104.539857,12.7571421 C106.372137,12.5049269 110.458358,11.4034383 110.458358,6.59293537 C110.458358,4.70466928 109.640891,2.9071709 108.271377,1.78522241 C106.807376,0.597244131 104.936408,0.0909537154 102.014915,0.0909537154 L94.6891418,0.0909537154 L94.6891418,20.1787049 L98.443912,20.1787049 L98.443912,10.7329104 L106.302387,20.1787049 L110.538338,20.1787049 L110.028886,19.5974567 L110.107378,19.5974567 L110.107378,19.5974567 Z" id="Fill-10" fill="#DD4534" mask="url(#mask-2)"></path>
                <polygon id="Fill-12" fill="#DD4534" mask="url(#mask-2)" points="0.0111599651 20.1787049 3.72538234 20.1787049 3.72538234 0.0909537154 0.0111599651 0.0909537154"></polygon>
            </g>
            <polyline id="Fill-14" fill="#DD4534" points="12.8648358 1.20248624 3.47632912 11.1556871 12.8397258 21.2969334 17.7648044 21.2969334 8.41145168 11.1521531 17.7629444 1.20248624 12.8648358 1.20248624"></polyline>
        </g>
    </g>
</svg>