<svg xmlns="http://www.w3.org/2000/svg" viewBox="0 0 257.4 549.03"><defs><style>.cls-1{fill:#fff;}.cls-2{fill:#1a1a1a;}.cls-3{fill:#333;}</style></defs><title>Asset 8mascot</title><g id="Layer_2" data-name="Layer 2"><g id="Layer_1-2" data-name="Layer 1"><polygon class="cls-1" points="5 491.97 5 329.97 157 377.97 157 545.97 5 491.97"/><path class="cls-2" d="M8,492V330l-3.8,2.89,133,42,19,6L154,378V546l3.8-2.9L24.48,495.71,5.8,489.07c-3.65-1.29-5.22,4.5-1.6,5.79l133.32,47.36,18.68,6.64A3,3,0,0,0,160,546V378a3.09,3.09,0,0,0-2.2-2.9l-133-42-19-6A3,3,0,0,0,2,330V492C2,495.83,8,495.83,8,492Z"/><polygon class="cls-1" points="157 377.97 242 315.97 242 484.97 157 545.97 157 377.97"/><path class="cls-2" d="M158.51,380.56l74.34-54.22,10.66-7.78L239,316V485l1.49-2.59-74.21,53.25-10.79,7.75L160,546V378c0-3.86-6-3.87-6,0V546c0,2.11,2.61,3.95,4.51,2.59l44.53-32,29.68-21.3,8.61-6.18c1.65-1.18,3.27-2,3.67-4.16.69-3.75,0-8.27,0-12.06V316c0-2.1-2.62-4-4.51-2.59L166.15,367.6l-10.66,7.78C152.4,377.63,155.39,382.84,158.51,380.56Z"/><polygon class="cls-1" points="5 329.97 91 263.97 242 315.97 157 377.97 5 329.97"/><path class="cls-2" d="M6.51,332.56l41-31.49,28.93-22.2,10.39-8c1.07-.82,4.83-2.77,5.31-4.08.39-1.07-1.67.44-1.81.09.08.2,1.24.41,1.43.5,2.11.94,4.46,1.53,6.65,2.28l25.17,8.67L195.19,303l46,15.85-.71-5.48-41.7,30.41-28.48,20.77L160,372.1c-.39.29-4.44,2.73-4.39,3.21-.07-.68,2.73.54,1.84-.36a6.91,6.91,0,0,0-1.93-.61L148.07,372l-25.94-8.19L51.24,341.42,5.8,327.07c-3.69-1.16-5.27,4.63-1.6,5.79l110,34.75,28.51,9c4.2,1.33,8.87,3.58,13.26,4.19,3.76.52,8.25-4.43,11-6.47l26.73-19.5,49.73-36.27a3.05,3.05,0,0,0-.71-5.49L132.21,275l-28.16-9.7c-3.8-1.3-8.22-3.67-12.22-4.21s-9.23,5.58-12,7.71l-27.42,21L3.49,327.38C.46,329.69,3.45,334.91,6.51,332.56Z"/><polygon class="cls-1" points="40 223.97 198 223.97 198 371.97 40 367.97 40 223.97"/><path class="cls-2" d="M40,227H198l-3-3V372l3-3L59.33,365.46,40,365l3,3V224c0-3.86-6-3.87-6,0V368a3.06,3.06,0,0,0,3,3l138.67,3.51L198,375a3,3,0,0,0,3-3V224a3,3,0,0,0-3-3H40C36.14,221,36.13,227,40,227Z"/><polygon class="cls-1" points="40 223.97 96 155.97 254 155.97 198 223.97 40 223.97"/><path class="cls-2" d="M42.12,226.09l31.47-38.21,19.34-23.49c1.33-1.61,4-3.79,4.74-5.76.7-1.77-1,1.31-1.59.34,0,.09,1,0,1.09,0,5,.73,10.63,0,15.65,0H254l-2.12-5.13-31.47,38.21-19.53,23.72c-1.19,1.45-4,3.78-4.61,5.6-.61,2,.11-3.83,1.66-.4a6.75,6.75,0,0,0-1.19,0c-5.08-.63-10.64,0-15.75,0H40c-3.86,0-3.87,6,0,6H195.14c3.31,0,4.68-.51,6.83-3.13l16.54-20.08,37.61-45.67c1.59-1.93.66-5.12-2.12-5.12H98.88c-3.43,0-4.76.58-7,3.27L75.49,176.17,37.88,221.84C35.44,224.8,39.66,229.07,42.12,226.09Z"/><polygon class="cls-1" points="198 371.97 198 223.97 254 155.97 254 310.97 198 371.97"/><path class="cls-2" d="M201,372V271.5c0-15.11.86-30.51,0-45.6-.19-3.31.52-.26-.76,0,1-.25,3-3.64,3.63-4.41l17.06-20.72,35.19-42.73L251,156v150.4c0,.81-.48,3.56,0,4.24.6.84.26-1.65.78-1.66-.29,0-1.16,1.26-1.35,1.47l-16,17.47-38.52,41.95c-2.61,2.85,1.62,7.1,4.24,4.25l33.35-36.33,19.16-20.87c2.18-2.38,4.29-4,4.37-7.32.9-37.36,0-74.86,0-112.23V156c0-2.42-3.41-4.2-5.12-2.13l-30.21,36.69-19.39,23.54c-2.21,2.69-6.72,6.44-7.28,10-.59,3.78,0,8.14,0,11.95V372C195,375.83,201,375.83,201,372Z"/><polygon class="cls-1" points="54 237.08 184 237.08 184 358.85 54 355.56 54 237.08"/><path class="cls-2" d="M54,238.58H184l-1.5-1.5V358.85l1.5-1.5L70,354.47l-16-.41,1.5,1.5V237.08a1.5,1.5,0,0,0-3,0V355.56a1.52,1.52,0,0,0,1.5,1.5L168,360l16,.4a1.52,1.52,0,0,0,1.5-1.5V237.08a1.52,1.52,0,0,0-1.5-1.5H54A1.5,1.5,0,0,0,54,238.58Z"/><polygon class="cls-1" points="108 83.97 108 231.97 244 185.97 244 37.97 108 83.97"/><path class="cls-2" d="M105,84V232a3,3,0,0,0,3.8,2.89L228,194.55l16.84-5.69A3.09,3.09,0,0,0,247,186V38a3,3,0,0,0-3.8-2.9L124,75.38,107.2,81.07c-3.64,1.23-2.07,7,1.6,5.79L228,46.55l16.84-5.69L241,38V186l2.2-2.9L124,223.38l-16.84,5.69L111,232V84C111,80.11,105,80.1,105,84Z"/><polygon class="cls-1" points="108 83.97 3 47.97 126 2.97 244 37.97 108 83.97"/><path class="cls-2" d="M108.8,81.07,17,49.59,3.8,45.07v5.79L108.45,12.57c5.55-2,12-3.52,17.24-6.31,1.93-1-.85-.84.24-.19,1.63,1,4.27,1.27,6.08,1.81l60.3,17.88,50.89,15.1V35.07L124,75.38,107.2,81.07c-3.64,1.23-2.07,7,1.6,5.79L228,46.55l16.84-5.69a3,3,0,0,0,0-5.79L137.87,3.36C134.33,2.31,129-.49,125.2.07s-8.26,3-12,4.38l-63,23.06L2.2,45.07a3,3,0,0,0,0,5.79L94,82.34l13.18,4.52C110.86,88.11,112.43,82.32,108.8,81.07Z"/><polygon class="cls-1" points="108 83.97 108 231.97 3 191.97 3 47.97 108 83.97"/><path class="cls-2" d="M105,84V232l3.8-2.9L16.69,194,3.8,189.07,6,192V48L2.2,50.86,94,82.34l13.18,4.52c3.66,1.25,5.23-4.54,1.6-5.79L17,49.59,3.8,45.07A3,3,0,0,0,0,48V192a3.1,3.1,0,0,0,2.2,2.89L94.31,230l12.89,4.91c1.86.71,3.8-1.1,3.8-2.89V84C111,80.11,105,80.1,105,84Z"/><path class="cls-1" d="M123.29,134.37c0,7.91,7.72,15.29,19.9,19.45-2.44,12.24-.44,22.1,6.23,26,6.85,3.95,17.05,1.21,26.74-7.25,9.44,8.12,19,11.32,25.64,7.47,6.84-4,8.93-14.5,6.43-27.12,12.68-4.19,19.77-10.49,19.77-18.5,0-7.72-7.74-14.41-19.75-18.54,2.69-13.14.42-22.77-6.53-26.77-6.69-3.86-16.34-.49-25.92,7.84-10-8.85-19.53-11.55-26.46-7.53-6.69,3.86-8.59,13.91-6.15,26.37C131.42,119.84,123.29,126.68,123.29,134.37Z"/><path class="cls-3" d="M205.71,119.94c-1-.34-2-.66-3-1,.16-.68.32-1.36.46-2,2.27-11,.78-19.86-4.28-22.78-4.85-2.8-12.78.12-20.79,7.09-.79.69-1.56,1.4-2.32,2.13-.5-.48-1-1-1.54-1.42-8.4-7.46-16.81-10.6-21.87-7.68-4.84,2.81-6.28,11.14-4.24,21.56.2,1,.43,2.06.69,3.08-1.19.34-2.34.7-3.44,1.09-9.85,3.43-16.14,8.81-16.14,14.39,0,5.76,6.75,11.54,17,15.05.83.28,1.67.54,2.51.78-.27,1.1-.52,2.21-.73,3.32-1.94,10.25-.42,18.38,4.41,21.17,5,2.88,13.37-.08,21.53-7.21.65-.57,1.29-1.17,1.94-1.79.82.79,1.66,1.55,2.51,2.29,7.91,6.8,15.71,9.55,20.54,6.75,5-2.89,6.61-11.62,4.51-22.25-.16-.82-.35-1.64-.56-2.49.59-.17,1.16-.35,1.73-.54,10.66-3.53,17.59-9.24,17.59-15.08,0-5.6-6.49-11-16.53-14.47Z"/><path class="cls-1" d="M203.4,145.72l-1.56.49a93.77,93.77,0,0,0-4.71-11.78,93.61,93.61,0,0,0,4.52-11.61c.95.28,1.88.57,2.77.87,8.6,3,13.85,7.34,13.85,10.72,0,3.59-5.67,8.26-14.87,11.31Zm-3.82,7.57a33.79,33.79,0,0,1,.45,12.27c-.56,3-1.67,5-3.05,5.77-2.93,1.7-9.2-.5-15.95-6.32q-1.17-1-2.34-2.13a93.07,93.07,0,0,0,7.79-9.9,93.14,93.14,0,0,0,12.6-1.94c.19.76.35,1.51.5,2.25ZM161,171c-2.87,1-5.15,1-6.53.25-2.93-1.69-4.15-8.23-2.49-17,.2-1,.43-2.06.68-3.08A93,93,0,0,0,165.16,153a95.25,95.25,0,0,0,8,9.86c-.58.56-1.17,1.11-1.77,1.63A33.54,33.54,0,0,1,161,171ZM147.54,145.7a33.74,33.74,0,0,1-10.84-5.76c-2.31-2-3.47-3.94-3.47-5.53,0-3.39,5-7.71,13.46-10.64,1.06-.37,2.13-.7,3.2-1a95.33,95.33,0,0,0,4.54,11.75,95.23,95.23,0,0,0-4.59,11.91C149.07,146.2,148.3,146,147.54,145.7Zm4.5-30.61c-1.75-8.93-.59-15.67,2.33-17.36,3.11-1.8,10,.77,17.24,7.21.47.41.93.84,1.4,1.28a96.35,96.35,0,0,0-7.92,9.81A94.64,94.64,0,0,0,152.68,118c-.24-.95-.45-1.91-.64-2.87ZM192.15,125q-1.36-2.35-2.83-4.65a85.78,85.78,0,0,1,8.48,1.48c-.8,2.57-1.8,5.25-3,8-.86-1.64-1.76-3.25-2.68-4.84Zm-16.36-15.94c1.84,2,3.67,4.21,5.48,6.61-3.67-.17-7.33-.17-11,0,1.81-2.38,3.66-4.6,5.52-6.61Zm-16.46,16c-.91,1.59-1.79,3.19-2.62,4.81-1.16-2.74-2.15-5.44-3-8,2.65-.6,5.48-1.08,8.43-1.45Q160.7,122.65,159.33,125Zm2.94,23.74a83.55,83.55,0,0,1-8.57-1.38c.82-2.65,1.83-5.4,3-8.2q1.26,2.43,2.64,4.81C160.28,145.6,161.26,147.19,162.27,148.76ZM175.9,160c-1.88-2-3.76-4.27-5.59-6.69,1.78.07,3.59.1,5.44.1s3.77,0,5.61-.12A83.66,83.66,0,0,1,175.9,160Zm19-21a86,86,0,0,1,3.13,8.18,83.73,83.73,0,0,1-8.68,1.48c1-1.56,1.94-3.13,2.86-4.73s1.83-3.27,2.69-4.93ZM188.73,142q-2.11,3.66-4.47,7.19c-2.75.2-5.61.3-8.51.3s-5.71-.09-8.42-.26c-1.61-2.35-3.12-4.75-4.55-7.21s-2.74-4.95-4-7.5q1.83-3.81,4-7.49h0c1.41-2.45,2.92-4.84,4.51-7.18,2.77-.21,5.6-.32,8.47-.32s5.72.11,8.48.32q2.37,3.49,4.48,7.16t4,7.46q-1.86,3.83-4,7.53Zm8.19-44.37c3.11,1.8,4.33,9,2.37,18.54-.13.62-.27,1.23-.42,1.85a95.08,95.08,0,0,0-12.43-2,95.47,95.47,0,0,0-7.86-9.81c.69-.67,1.41-1.32,2.14-2,6.86-6,13.28-8.33,16.2-6.65Z"/><path class="cls-3" d="M175.75,126.11a8.3,8.3,0,1,1-8.3,8.3,8.29,8.29,0,0,1,8.3-8.3"/><path d="M147,311.51v21.33a22.75,22.75,0,0,1-.53,5.7,8.57,8.57,0,0,1-1.82,3.61,8.26,8.26,0,0,1-6.62,2.92,11.2,11.2,0,0,1-5.83-1.62l2.44-4.25a6.2,6.2,0,0,0,3.39,1.22,3.14,3.14,0,0,0,3.08-1.69c.6-1.12.89-3.09.89-5.89V311.51Z"/><path d="M173.54,316.42l-4,2.39a7,7,0,0,0-2.16-2.56,5,5,0,0,0-2.75-.69,5.09,5.09,0,0,0-3.44,1.18,3.65,3.65,0,0,0-1.37,2.9q0,2.42,3.59,3.89l3.29,1.34a14.16,14.16,0,0,1,5.87,4,8.88,8.88,0,0,1,1.86,5.73,10,10,0,0,1-3,7.51,10.37,10.37,0,0,1-7.58,3,10.08,10.08,0,0,1-7.08-2.54,11.65,11.65,0,0,1-3.44-7.15l5-1.11a8.45,8.45,0,0,0,1.19,4,5.68,5.68,0,0,0,8.35.58,5.38,5.38,0,0,0,1.54-3.95,5.46,5.46,0,0,0-.27-1.76,4.3,4.3,0,0,0-.83-1.47,6.81,6.81,0,0,0-1.46-1.26,13.66,13.66,0,0,0-2.14-1.13L161.5,328q-6.76-2.87-6.77-8.37a7.93,7.93,0,0,1,2.84-6.21,10.26,10.26,0,0,1,7.07-2.52Q170.34,310.87,173.54,316.42Z"/></g></g></svg>