<svg id="Layer_1" data-name="Layer 1" xmlns="http://www.w3.org/2000/svg" viewBox="0 0 257.4 549.03"><defs><style>.cls-1{fill:#fff;}.cls-2{fill:#1a1a1a;}.cls-3{fill:#333;}.cls-4{font-size:43.73px;font-family:Futura-Medium, Futura;font-weight:500;}</style></defs><title>landing</title><polygon class="cls-1" points="5 491.97 5 329.97 157 377.97 157 545.97 5 491.97"/><path class="cls-2" d="M75,567V405l-3.8,2.89,133,42,19,6L221,453V621l3.8-2.89L91.48,570.74,72.8,564.11c-3.65-1.3-5.22,4.5-1.6,5.78l133.32,47.37,18.68,6.63A3,3,0,0,0,227,621V453a3.07,3.07,0,0,0-2.2-2.89l-133-42-19-6A3,3,0,0,0,69,405V567C69,570.86,75,570.87,75,567Z" transform="translate(-67 -75.03)"/><polygon class="cls-1" points="157 377.97 242 315.97 242 484.97 157 545.97 157 377.97"/><path class="cls-2" d="M225.51,455.59l74.34-54.22,10.66-7.78L306,391V560l1.49-2.59-74.21,53.26-10.79,7.74L227,621V453c0-3.86-6-3.87-6,0V621c0,2.11,2.61,4,4.51,2.59l44.53-32,29.68-21.3,8.61-6.18c1.65-1.18,3.27-2,3.67-4.16.69-3.75,0-8.26,0-12V391c0-2.1-2.62-4-4.51-2.59l-74.34,54.22-10.66,7.78C219.4,452.66,222.39,457.87,225.51,455.59Z" transform="translate(-67 -75.03)"/><polygon class="cls-1" points="5 329.97 91 263.97 242 315.97 157 377.97 5 329.97"/><path class="cls-2" d="M73.51,407.59l41-31.48,28.93-22.21,10.39-8c1.07-.82,4.83-2.77,5.31-4.08.39-1.06-1.67.45-1.81.1.08.19,1.24.4,1.43.49,2.11.95,4.46,1.54,6.65,2.29l25.17,8.67,71.58,24.65,46,15.84-.71-5.48-41.7,30.41L237.31,439.6,227,447.14c-.39.28-4.44,2.72-4.39,3.2-.07-.67,2.73.54,1.84-.35a6.31,6.31,0,0,0-1.93-.61L215.07,447l-25.94-8.2-70.89-22.38L72.8,402.11c-3.69-1.17-5.27,4.62-1.6,5.78l110,34.75,28.51,9c4.2,1.33,8.87,3.58,13.26,4.19,3.76.53,8.25-4.43,11-6.46l26.73-19.51,49.73-36.27a3,3,0,0,0-.71-5.48L199.21,350l-28.16-9.69c-3.8-1.31-8.22-3.67-12.22-4.21s-9.23,5.58-12,7.71l-27.42,21L70.49,402.41C67.46,404.73,70.45,409.94,73.51,407.59Z" transform="translate(-67 -75.03)"/><polygon class="cls-1" points="40 223.97 198 223.97 198 371.97 40 367.97 40 223.97"/><path class="cls-2" d="M107,302H265l-3-3V447l3-3-138.67-3.51L107,440l3,3V299c0-3.86-6-3.87-6,0V443a3.06,3.06,0,0,0,3,3l138.67,3.51L265,450a3,3,0,0,0,3-3V299a3,3,0,0,0-3-3H107C103.14,296,103.13,302,107,302Z" transform="translate(-67 -75.03)"/><polygon class="cls-1" points="40 223.97 96 155.97 254 155.97 198 223.97 40 223.97"/><path class="cls-2" d="M109.12,301.12l31.47-38.21,19.34-23.48c1.33-1.62,4-3.8,4.74-5.76.7-1.78-1,1.3-1.59.33,0,.09,1,0,1.09,0,5,.73,10.63,0,15.65,0H321l-2.12-5.12-31.47,38.21L267.88,290.8c-1.19,1.45-4.05,3.79-4.61,5.6-.61,2,.11-3.82,1.66-.4a6.75,6.75,0,0,0-1.19,0c-5.08-.62-10.64,0-15.75,0H107c-3.86,0-3.87,6,0,6H262.14c3.31,0,4.68-.51,6.83-3.13l16.54-20.08,37.61-45.67c1.59-1.93.66-5.12-2.12-5.12H165.88c-3.43,0-4.76.58-7,3.28l-16.41,19.93-37.61,45.67C102.44,299.84,106.66,304.11,109.12,301.12Z" transform="translate(-67 -75.03)"/><polygon class="cls-1" points="198 371.97 198 223.97 254 155.97 254 310.97 198 371.97"/><path class="cls-2" d="M268,447V346.53c0-15.11.86-30.5,0-45.59-.19-3.31.52-.27-.76,0,1-.24,3-3.64,3.63-4.41l17.06-20.72,35.19-42.73L318,231V381.41c0,.81-.48,3.56,0,4.23.6.85.26-1.65.78-1.66-.29,0-1.16,1.27-1.35,1.48l-16,17.46-38.52,42c-2.61,2.84,1.62,7.09,4.24,4.24l33.35-36.32,19.16-20.88c2.18-2.37,4.29-4,4.37-7.31.9-37.37,0-74.86,0-112.24V231c0-2.42-3.41-4.2-5.12-2.12l-30.21,36.68-19.39,23.55c-2.21,2.68-6.72,6.43-7.28,10-.59,3.79,0,8.14,0,12V447C262,450.86,268,450.87,268,447Z" transform="translate(-67 -75.03)"/><polygon class="cls-1" points="54 237.08 184 237.08 184 358.85 54 355.56 54 237.08"/><path class="cls-2" d="M121,313.61H251l-1.5-1.5V433.89l1.5-1.5L137,429.5l-16-.41,1.5,1.5V312.11a1.5,1.5,0,0,0-3,0V430.59a1.52,1.52,0,0,0,1.5,1.5L235,435l16,.41a1.52,1.52,0,0,0,1.5-1.5V312.11a1.52,1.52,0,0,0-1.5-1.5H121A1.5,1.5,0,0,0,121,313.61Z" transform="translate(-67 -75.03)"/><polygon class="cls-1" points="108 83.97 108 231.97 244 185.97 244 37.97 108 83.97"/><path class="cls-2" d="M172,159V307a3,3,0,0,0,3.8,2.89L295,269.59l16.84-5.7A3.08,3.08,0,0,0,314,261V113a3,3,0,0,0-3.8-2.89L191,150.41l-16.84,5.7c-3.64,1.23-2.07,7,1.6,5.78L295,121.59l16.84-5.7L308,113V261l2.2-2.89L191,298.41l-16.84,5.7L178,307V159C178,155.14,172,155.13,172,159Z" transform="translate(-67 -75.03)"/><polygon class="cls-1" points="108 83.97 3 47.97 126 2.97 244 37.97 108 83.97"/><path class="cls-2" d="M175.8,156.11,84,124.63,70.8,120.11v5.78L175.45,87.61c5.55-2,12-3.53,17.24-6.31,1.93-1-.85-.84.24-.19,1.63,1,4.27,1.26,6.08,1.8l60.3,17.89,50.89,15.09v-5.78L191,150.41l-16.84,5.7c-3.64,1.23-2.07,7,1.6,5.78L295,121.59l16.84-5.7a3,3,0,0,0,0-5.78L204.87,78.39c-3.54-1-8.86-3.85-12.67-3.28s-8.26,3-12,4.37l-63,23.06-48,17.57a3,3,0,0,0,0,5.78L161,157.37l13.18,4.52C177.86,163.15,179.43,157.35,175.8,156.11Z" transform="translate(-67 -75.03)"/><polygon class="cls-1" points="108 83.97 108 231.97 3 191.97 3 47.97 108 83.97"/><path class="cls-2" d="M172,159V307l3.8-2.89L83.69,269,70.8,264.11,73,267V123l-3.8,2.89L161,157.37l13.18,4.52c3.66,1.26,5.23-4.54,1.6-5.78L84,124.63,70.8,120.11A3,3,0,0,0,67,123V267a3.1,3.1,0,0,0,2.2,2.89L161.31,305l12.89,4.91c1.86.71,3.8-1.09,3.8-2.89V159C178,155.14,172,155.13,172,159Z" transform="translate(-67 -75.03)"/><path class="cls-1" d="M190.29,209.4c0,7.91,7.72,15.29,19.9,19.46-2.44,12.23-.44,22.1,6.23,25.94,6.85,3.95,17.05,1.22,26.74-7.25,9.44,8.13,19,11.32,25.64,7.47,6.84-4,8.93-14.5,6.43-27.12,12.68-4.19,19.77-10.48,19.77-18.5,0-7.72-7.74-14.4-19.75-18.54,2.69-13.14.42-22.76-6.53-26.76-6.69-3.86-16.34-.5-25.92,7.84-10-8.85-19.53-11.55-26.46-7.54-6.69,3.87-8.59,13.91-6.15,26.38C198.42,194.88,190.29,201.71,190.29,209.4Z" transform="translate(-67 -75.03)"/><path class="cls-3" d="M272.71,195c-1-.34-2-.65-3-.94.16-.68.32-1.36.46-2.05,2.27-11,.78-19.86-4.28-22.77-4.85-2.8-12.78.12-20.79,7.09-.79.69-1.56,1.4-2.32,2.12-.5-.48-1-.95-1.54-1.42-8.4-7.46-16.81-10.6-21.87-7.67-4.84,2.8-6.28,11.13-4.24,21.56.2,1,.43,2.06.69,3.08-1.19.34-2.34.7-3.44,1.08-9.85,3.43-16.14,8.81-16.14,14.39,0,5.77,6.75,11.55,17,15.05.83.28,1.67.55,2.51.79-.27,1.1-.52,2.2-.73,3.32-1.94,10.24-.42,18.37,4.41,21.16,5,2.88,13.37-.08,21.53-7.21.65-.56,1.29-1.16,1.94-1.79.82.79,1.66,1.55,2.51,2.29,7.91,6.81,15.71,9.55,20.54,6.76,5-2.89,6.61-11.63,4.51-22.26-.16-.81-.35-1.64-.56-2.48l1.73-.54c10.66-3.54,17.59-9.25,17.59-15.09,0-5.6-6.49-11-16.53-14.47Z" transform="translate(-67 -75.03)"/><path class="cls-1" d="M270.4,220.75c-.51.17-1,.34-1.56.49a95,95,0,0,0-4.71-11.78,92.4,92.4,0,0,0,4.52-11.61c1,.28,1.88.57,2.77.88,8.6,3,13.85,7.34,13.85,10.71,0,3.6-5.67,8.26-14.87,11.31Zm-3.82,7.57A33.84,33.84,0,0,1,267,240.6c-.56,3-1.67,5-3,5.77-2.93,1.69-9.2-.51-16-6.33-.78-.66-1.56-1.38-2.34-2.13a92.07,92.07,0,0,0,7.79-9.9,91.59,91.59,0,0,0,12.6-1.94c.19.77.35,1.52.5,2.25ZM228,246.08c-2.87,1-5.15,1-6.53.24-2.93-1.69-4.15-8.22-2.49-17,.2-1,.43-2.07.68-3.09a93,93,0,0,0,12.54,1.81,95.41,95.41,0,0,0,8,9.87c-.58.56-1.17,1.1-1.77,1.63A33.92,33.92,0,0,1,228,246.08Zm-13.42-25.35A33.55,33.55,0,0,1,203.7,215c-2.31-2-3.47-3.94-3.47-5.53,0-3.38,5-7.7,13.46-10.64,1.06-.36,2.13-.7,3.2-1a95.22,95.22,0,0,0,4.54,11.74,95.23,95.23,0,0,0-4.59,11.91C216.07,221.23,215.3,221,214.54,220.73Zm4.5-30.6c-1.75-8.94-.59-15.67,2.33-17.36,3.11-1.81,10,.76,17.24,7.2.47.41.93.84,1.4,1.29a95.11,95.11,0,0,0-7.92,9.8A98.12,98.12,0,0,0,219.68,193c-.24-1-.45-1.9-.64-2.86Zm40.11,9.9q-1.36-2.35-2.83-4.65a85.78,85.78,0,0,1,8.48,1.48c-.8,2.57-1.8,5.26-3,8-.86-1.63-1.76-3.24-2.68-4.84ZM242.79,184.1a84.18,84.18,0,0,1,5.48,6.6c-3.67-.17-7.33-.17-11,0,1.81-2.38,3.66-4.59,5.52-6.6Zm-16.46,16c-.91,1.58-1.79,3.18-2.62,4.81-1.16-2.75-2.15-5.45-3-8.05,2.65-.59,5.48-1.08,8.43-1.45Q227.7,197.68,226.33,200.06Zm2.94,23.74a83.55,83.55,0,0,1-8.57-1.38c.82-2.65,1.83-5.41,3-8.21.84,1.62,1.72,3.23,2.64,4.81S228.26,222.23,229.27,223.8Zm13.63,11.27c-1.88-2-3.76-4.28-5.59-6.7,1.78.07,3.59.11,5.44.11s3.77,0,5.61-.13A85.7,85.7,0,0,1,242.9,235.07Zm19-21a84,84,0,0,1,3.13,8.18,86.49,86.49,0,0,1-8.68,1.48q1.49-2.34,2.86-4.74t2.69-4.92ZM255.73,217q-2.11,3.68-4.47,7.2c-2.75.19-5.61.3-8.51.3s-5.71-.09-8.42-.27c-1.61-2.34-3.12-4.75-4.55-7.21s-2.74-4.94-4-7.49q1.83-3.82,4-7.5h0c1.41-2.45,2.92-4.84,4.51-7.18,2.77-.2,5.6-.31,8.47-.31s5.72.11,8.48.32q2.37,3.49,4.48,7.15t4,7.46q-1.86,3.84-4,7.53Zm8.19-44.36c3.11,1.79,4.33,9,2.37,18.53-.13.62-.27,1.24-.42,1.85a95.12,95.12,0,0,0-12.43-2,94.4,94.4,0,0,0-7.86-9.81c.69-.67,1.41-1.33,2.14-2,6.86-6,13.28-8.34,16.2-6.65Z" transform="translate(-67 -75.03)"/><path class="cls-3" d="M242.75,201.14a8.31,8.31,0,1,1-8.3,8.3,8.3,8.3,0,0,1,8.3-8.3" transform="translate(-67 -75.03)"/><text class="cls-4" transform="translate(133.02 344.48)">JS</text></svg>