<svg xmlns="http://www.w3.org/2000/svg" xmlns:xlink="http://www.w3.org/1999/xlink" version="1.1" x="0px" y="0px" viewBox="0 0 100 125" enable-background="new 0 0 100 100" xml:space="preserve"><path d="M5.25,34v32l10-6l17.669,6.157l-3.183,9.05l21.604,7.592l3.203-9.105L81.25,83V17l-66,23L5.25,34z M49.506,78.975  l-15.943-5.604l2.189-6.227l15.959,5.562L49.506,78.975z M78.25,78.777l-13-4.53V25.753l13-4.53V78.777z"/><path d="M93.25,48.5h-6.838c-0.828,0-1.5,0.672-1.5,1.5s0.672,1.5,1.5,1.5h6.838c0.828,0,1.5-0.672,1.5-1.5S94.078,48.5,93.25,48.5z  "/><path d="M92.438,64.807l-5.444-3.109c-0.72-0.411-1.636-0.16-2.047,0.559c-0.411,0.72-0.16,1.636,0.559,2.047l5.444,3.109  c0.72,0.41,1.636,0.16,2.047-0.559C93.408,66.134,93.157,65.218,92.438,64.807z"/><path d="M86.994,38.302l5.444-3.113c0.72-0.411,0.969-1.327,0.558-2.046c-0.411-0.72-1.327-0.969-2.047-0.559l-5.443,3.113  c-0.72,0.412-0.969,1.328-0.559,2.047C85.359,38.464,86.275,38.713,86.994,38.302z"/></svg>