<?xml version="1.0" encoding="utf-8"?>
<!-- Generator: Adobe Illustrator 23.0.1, SVG Export Plug-In . SVG Version: 6.00 Build 0)  -->
<svg version="1.1" id="Layer_1" xmlns="http://www.w3.org/2000/svg" xmlns:xlink="http://www.w3.org/1999/xlink" x="0px" y="0px"
	 viewBox="0 0 1920 1080" style="enable-background:new 0 0 1920 1080;" xml:space="preserve">
<style type="text/css">
	.st0{fill:#FFFFFF;}
	.st1{fill:#28A47F;}
	.st2{fill:#AEFFDA;}
</style>
<image style="overflow:visible;" width="1329" height="833" xlink:href="ADB899FF902DFEB4.jpg"  transform="matrix(1.4093 0 0 1.4093 -3652 -993)">
</image>
<g>
	<g>
		<path d="M1370.4-1138c5.4-1.2,10.8-2.2,16.3-2.4c2.6-0.1,6.4-0.5,8.4,1.4c1.6,1.4,2.6,4.6,3.4,6.5c1.4,3.3,2.6,6.7,3.7,10.1
			c1.9,6.1,3.7,12.5,4.1,18.9c0.3,5-2.4,7.6-5.8,11.2c-5,5.3-10.4,10.2-15.5,15.4c-4,4.1-7,7.9-8,13.7c-2.3,13.9,3.2,30.3,16,37.4
			c8.2,4.5,15,1,22.4-3.2c5.1-2.9,10.5-5.7,15.2-9.2c6.9-5.2,13.4-10.8,20-16.4c8.7-7.3,18.4-14.8,25.2-24
			c7.5-10.2,8.6-25.6,10.6-37.8c2-12.1,4.8-23.8,5.7-36.1c0.8-10.6,1.3-21.2,1.5-31.8c-1.1,1.4-2.2,2.9-3.3,4.3
			c14.2-5.1,28.5-10.3,42.7-15.4c34.2-12.3,68.4-24.7,102.6-37c41.4-14.9,82.8-29.9,124.2-44.8c35.9-13,71.9-25.9,107.8-38.9
			c17.3-6.3,35.1-11.8,52.2-18.8c0.2-0.1,0.5-0.2,0.7-0.3c5.4-2,3.1-10.7-2.4-8.7c-14.2,5.1-28.5,10.3-42.7,15.4
			c-34.2,12.3-68.4,24.7-102.6,37c-41.4,14.9-82.8,29.9-124.2,44.8c-35.9,13-71.9,25.9-107.8,38.9c-17.3,6.2-35.2,11.7-52.2,18.8
			c-0.2,0.1-0.5,0.2-0.7,0.3c-1.9,0.7-3.3,2.2-3.3,4.3c-0.2,8.8-0.6,17.5-1.1,26.2c-0.4,5.8-0.7,11.6-1.5,17.3
			c-0.6,4.1-1.8,8-2.6,12.1c-2.6,13.4-3.3,28-8.7,40.7c-3.7,8.9-13.5,15.7-20.5,21.8c-8,7-16.2,13.7-24.4,20.3
			c-0.5,0.4-1,0.9-1.6,1.2c1.9-1.3,0.1-0.2-0.4,0.1c-1.6,0.9-3,1.9-4.6,2.8c-3.8,2.3-7.7,4.5-11.7,6.7c-4,2.2-7.1,3.5-11.1,0.8
			c-10-6.6-16-24.5-7.3-34.1c4.5-5,9.5-9.5,14.2-14.2c3.8-3.8,8.4-8,10.7-13c2.4-5.2,0.9-11.8-0.1-17.2c-1.5-7.5-3.7-14.8-6.6-21.9
			c-2.1-5.1-4.4-11.3-9.9-13.5c-8.9-3.5-20.5-0.7-29.5,1.3C1362.4-1145.4,1364.8-1136.8,1370.4-1138L1370.4-1138z"/>
	</g>
</g>
<g>
	<path class="st0" d="M925.5-573.5c54-12,80.3,12.3,71-5c5.8-1.8,27.8-0.7,27.9-5.1c0.2-9,10.7-17.6,22.8-19.2
		c14-1.9,15.8-3.9,11.3-13.6c-1.9-3.9,0-5.1,4.9-5.6c8.3-0.8,11.5-2.9,11.6-9.2c0.1-5.5,3.9-7.6,10.2-8.5c2.7-0.4,5.5-0.8,8.1-1.4
		c5-1.1,7.8-3.8,6.4-7.5c-1.7-4.3,1-5.8,5.8-6.7c7.3-1.5,12.1-4.1,11.6-10.6c-0.4-4.2,9.4-9.6,16.9-9.7c6.2-0.1,12-0.3,15.5-5
		c0.6-0.9,3.4-0.9,5.1-1.3c7.5-1.6,15.1-3.1,22.6-4.7c1.8-0.4,3.6-1.3,5.4-1.3c7.5,0.1,13.5-2,19.5-5.1c2.8-1.5,7.9-1.7,11.4-0.9
		c6.4,1.4,11.7,1,17-1.7c6.9-3.5,14.3-4.7,22.6-3.4c7.2,1.1,11.5-0.9,13.9-6c3.1-6.6,9.1-10.1,18.6-10.2c4.3-0.1,8.7-0.2,12.8,0.3
		c2.5,0.3,5.3,1.5,6.8,3c8.2,7.9,22.9,9.9,34.1,4.5c9.6-4.7,10-4.8,20.2-3.1c0,26.6-6,35.2,15,47.2 M1429.5-664.5
		c16-6,13.4-28.9,12.6-39.7c-0.1-1.1,1-3,2.2-3.3c7.2-1.8,14.5-3.7,22-4.7c8.9-1.2,16.5,1.6,22.3,6.5c5.8,4.9,12.3,5.8,20.2,3.6
		c7.9-2.2,15.5-2.2,23.6,0.6c4.4,1.5,10,1.5,15.1,1.6c5.6,0,7.8,1.8,7.6,5.7c-0.1,1.6-0.1,3.2,0,4.7c0.6,7.7,7.6,10.3,16.9,6.7
		c5.5-2.1,11.7-3.8,17.8-4.5c3.3-0.4,7.6,1,10.5,2.6c6,3.4,11.8,4.2,18.4,1.3c3.7-1.7,6.3-1.6,8.5,1.8c2.9,4.5,8.4,6,15.1,5
		c4.2-0.6,8.5-1,12.7-1.3c4.1-0.3,6.7,0.8,6.5,4.2c-0.5,7.1,4.4,10.9,13.4,13c8.5,1.9,8.9,4.9,3.6,10.2c-2.1,2.1-3.7,6-2.4,7.9
		c1.3,2,6.4,3.6,9.9,3.6c13.2,0.2,13.3,0,12.7,9.8c-0.2,4.4,2.2,7.4,8,8.5c7.3,1.4,11.8,4.1,13,10.2c1.1,5.5,6.9,7.9,15.5,7.5
		c5.5-0.2,10.5-0.5,14.8,2.9c1,0.8,5,0.5,6.9-0.3c12.5-5,26.7-2.6,34.3,6.2c3.2,3.7,7.7,4.9,13.3,3.9c8.1-1.4,5.6-1.3,15.8-3.3
		c-0.9,4.2,9.2,5.5,8.2,8.4c-0.9,2.4-2.7,4.6-3.8,7c-2.8,6.5,0.5,10.8,9.5,12.4c2.7,0.5,5.4,0.7,8.9,1.2c0,3.8,0.1,7.5,0,11.3
		c-0.2,5.5,2.9,9.3,9.9,11.5c7.1,2.2,16.3,4.1,21.3,6.1"/>
	<g>
		<path d="M926.7-569.1c20.5-4.4,40.6-3.8,61,0.3c3.7,0.8,8.9,2.5,12.4,0.3c4.6-3,2.3-8.4,0.3-12.2c-0.9,2.2-1.8,4.4-2.7,6.6
			c5.1-1.4,10.8-1,16-1.5c4.3-0.4,10.6-0.5,13.6-4c1.9-2.1,1.3-4.9,2.4-7.4c1.8-3.9,5.6-6.7,9.3-8.6c6.6-3.3,14.7-2.1,21.1-5.7
			c4.5-2.5,5.7-7,4.4-11.8c-0.3-1.2-0.8-2.8-1.5-3.9c-1-1.6,0.1-1.3-1.3-0.8c-2.4,0.8,0.9,0.5,0.9,0.5c3.3,0.1,7.8-0.9,10.7-2.6
			c2.3-1.3,4-3.1,5-5.6c1-2.4,0.2-6.3,2-8.1c2.2-2.2,8-2,10.8-2.5c3.9-0.7,8-1.6,10.8-4.5c2-2.1,2.8-5.2,2.2-8
			c-0.1-0.4-0.7-1.7-0.7-2.2c-0.1,1.3-0.6,0.8,0.4,0.5c2.2-0.5,4.5-1,6.7-1.7c2.9-1,5.7-2.3,7.8-4.6c1-1.1,1.7-2.3,2.2-3.7
			c0.6-1.7,0.1-4.2,0.8-5.6c1.1-2.3,5.9-3.8,8.1-4.5c4-1.1,8.2-0.7,12.2-1.3c4.2-0.7,6.4-2.5,9.8-4.7c3.1-2,8.8-2.2,12.6-3
			c4.9-1,10-1.8,14.8-3.1c4.5-1.2,9-1,13.6-2.1c3.9-0.9,7.4-2.7,11.1-4.3c4.1-1.7,7.8-0.8,12-0.2c3.9,0.5,7.9,0.5,11.7-0.6
			c4.7-1.3,8.7-3.9,13.5-4.9c8-1.6,16.8,2.5,24.2-1.8c3.3-1.9,4.7-4.9,6.7-8.1c2.1-3.4,5.3-5.3,9.3-6c4.9-1,10.7-0.8,15.6-0.3
			c5.2,0.6,8.4,4.8,12.9,7c7.7,3.7,16.6,4.6,24.9,2.6c4.5-1.1,8.3-3.6,12.6-5.2c3.8-1.4,7.3-0.7,11.2-0.1c-1.1-1.4-2.2-2.9-3.3-4.3
			c0,10.2-2.1,21-0.1,31.1c1.9,9.4,9.4,15.4,17.3,20c5,2.9,9.5-4.9,4.5-7.8c-6.4-3.8-12.4-8.1-13.4-16c-1.1-9,0.6-18.4,0.6-27.4
			c0-1.8-1.4-4-3.3-4.3c-7.1-1.1-12.7-1.5-19.3,1.5c-8.1,3.7-15.6,6-24.4,3.2c-3.8-1.2-6.4-3.4-9.5-5.7c-3.7-2.8-8-3.5-12.6-3.7
			c-8-0.4-17.2-0.6-24.2,3.9c-2.6,1.7-4.7,3.9-6.4,6.5c-2,3.2-2.7,5.9-6.9,6.2c-4.2,0.3-8.5-1-12.8-0.7c-4.6,0.3-9.1,1.3-13.3,3.1
			c-4.3,1.8-8,3.5-12.7,3.2c-4.4-0.3-8.3-1.5-12.8-0.9c-3.9,0.5-6.8,2.4-10.4,3.8c-4.7,1.8-9.2,1.9-14.1,2.5
			c-9.7,1.2-19.4,4.6-29,6.2c-1.5,0.3-3.1,0.3-4.4,1.1c-1.5,0.8-2.2,2.3-3.6,3.2c-3.6,2.4-8.8,1.4-12.9,1.9
			c-6.2,0.8-14.9,4-17.8,10.2c-1.1,2.4-0.1,5.6-2,7.5c-2.6,2.6-7.6,2.4-10.8,3.7c-2.6,1-4.9,2.8-5.6,5.6c-0.4,1.4-0.2,2.9,0,4.3
			c0.3,2.3,0.8,2.1-2.1,3c-6.8,2-15.9,0.8-20.3,7.6c-0.9,1.4-1.5,2.8-1.8,4.4c-0.2,1.3,0.1,3.2-0.5,4.3c-1.3,2.6-5,2.5-7.6,2.9
			c-6.8,0.9-11.2,4.6-8.3,11.7c0.4,0.9,2.3,4.4,1.8,5.2c-1,1.7-7.8,1.9-9.4,2.2c-8.9,1.3-17.8,5.4-23.1,12.9c-1.1,1.5-2,3.1-2.7,4.9
			c-0.3,0.8-0.5,1.5-0.7,2.3c-0.1,0.6-0.2,1.2-0.3,1.8c-0.2,1,0,0.8,0.6-0.4c-1.3,0.6-4.6,0.8-6.5,1c-6.2,0.6-12.8,0.2-18.9,1.9
			c-2.9,0.8-4,4.1-2.7,6.6c0.2,0.4,1.1,2.1,0.9,1.9c0.5,1,0.2,0.8,0.3,0.8c0,0,2.2-3.9,2.3-2.9c0-0.1-0.5,0-1.4-0.1
			c-3.5-0.6-9.3-1.9-13.7-2.6c-19-3.2-38-2.6-56.8,1.4C918.6-576.6,921-567.9,926.7-569.1L926.7-569.1z"/>
		<path d="M1430.7-660.1c15-6.2,17.1-22.3,16.4-36.7c-0.1-1.4-0.2-2.9-0.3-4.3c-0.2-2.5-0.3-2.2,2.3-2.8c6.1-1.6,12.5-3.3,18.9-3.8
			c4.8-0.4,9.5,0.5,13.7,2.8c4.3,2.4,7.5,5.9,12.2,7.4c10.9,3.6,21.6-3.3,32.7-0.9c5.4,1.2,10.1,2.7,15.7,3c2.2,0.1,4.5-0.2,6.6,0.1
			c2.8,0.4,1.5,1.4,1.6,4.3c0.3,7.6,4.4,13.6,12.4,14.3c10.2,0.9,19.4-7.4,29.7-6c4.7,0.7,8.5,4,13.2,5.1c5.2,1.2,9.8,0.2,14.7-1.6
			c2.6-0.9,2.6,0.1,4.2,1.9c1.3,1.5,2.9,2.7,4.6,3.6c4,2.1,8.6,2.2,13,1.8c2.7-0.3,5.4-0.7,8.2-0.9c1.4-0.1,5.8-1.3,7.2-0.3
			c-1.2-0.9-0.4,3.3-0.2,4.1c0.4,1.7,1.1,3.3,2.1,4.7c1.9,2.8,4.8,4.7,7.9,6c2.1,0.9,4.2,1.5,6.5,2.1c0.3,0.1,2.4,0.9,3,0.8
			c1.2,0.9,1.4,0.7,0.8-0.7c-0.1,0.2-0.2,0.4-0.4,0.6c-2.6,3.2-5.5,6-5.8,10.4c-0.3,4.1,2,6.8,5.5,8.6c3.8,1.9,8,2.1,12.1,2.2
			c1.5,0,3,0.2,4.5,0.2c2.3,0,1.2,1,0.9-0.4c0.6,2.4-0.3,5.2,0,7.8c0.5,3.8,2.7,6.9,6.1,8.8c3.6,2,7.9,1.7,11.4,3.7
			c3.5,2,3.1,5.7,5.1,8.9c2.1,3.5,6,5.5,9.9,6.4c5.5,1.2,11.2-0.4,16.5,0.9c2.3,0.5,3.9,2.2,6.1,2.8c1.9,0.6,4.1,0.4,6,0.1
			c5-0.9,9.4-3,14.6-3c5.2,0,10.6,1.4,14.8,4.6c4.2,3.2,6.6,6.9,12.2,8c7.7,1.6,16.8-1.9,24.4-3.4c-1.9-1.4-3.8-2.9-5.7-4.3
			c-0.3,4.5,3.3,6.9,6.8,8.8c0.1,0.1,2.1,1.3,2.2,1.3c-0.3-2.9-0.8-3.2-1.6-1c-0.4,0.7-0.8,1.4-1.2,2.1c-1.3,2.4-2.5,4.9-2.7,7.6
			c-0.9,12.7,14.8,13.7,23.8,14.9c-1.5-1.5-3-3-4.5-4.5c0,9-1.7,18.8,7,24.4c8,5.1,18.7,5.5,27.5,8.9c5.4,2.1,7.8-6.6,2.4-8.7
			c-6.9-2.6-14.3-3.7-21.3-6.1c-2.6-0.9-5.6-2.1-6.5-5c-1.1-3.9-0.1-9.3-0.1-13.4c0-2.7-2.1-4.2-4.5-4.5c-3.8-0.5-11-0.2-13.9-3.2
			c-2.8-2.8,1.7-7.3,2.9-9.9c1.3-3,1.3-5.7-1.2-8c-1.1-1-2.4-1.7-3.7-2.4c-0.5-0.3-1.1-0.6-1.6-0.9c-1.5-0.7-0.7-1-0.7-0.1
			c0.2-3.1-3-4.9-5.7-4.3c-5.9,1.1-16,5.2-21.7,2.8c-3.8-1.6-6.5-5.9-10.2-8c-3.9-2.2-8.3-3.5-12.8-4.1c-4.3-0.5-8.7-0.3-12.9,0.7
			c-2.3,0.5-4.5,1.5-6.8,2.1c-2.5,0.6-2.9-0.1-5.1-1.2c-4-2-8.4-2.1-12.8-2c-3.5,0.1-9.8,0.9-12.2-2.5c-0.9-1.3-1.1-3.5-1.7-5
			c-0.7-1.5-1.5-2.9-2.7-4.1c-2.7-2.9-6.5-4.5-10.2-5.4c-1.7-0.4-4.8-0.5-6-1.9c-1.2-1.4-0.7-3.2-0.7-4.8c0.1-2.6,0.2-5.4-1.2-7.7
			c-3.2-5.4-10.9-4-16.1-4.4c-1.4-0.1-5.6-0.4-6.2-1.8c0.5,1,2.2-2.2,2.9-3.1c2.2-2.6,4.5-5.7,3.6-9.4c-2-8.6-13.9-5.8-18.8-11.1
			c-2.4-2.6-0.8-6.2-2.4-9.3c-2-3.7-6.2-4.4-10-4.3c-5.3,0.1-10.5,1.4-15.7,1.6c-2.2,0.1-4.6-0.1-6.5-1.4c-1.8-1.2-2.7-3.2-4.2-4.6
			c-2.8-2.4-6.4-2.6-9.8-1.5c-2.8,0.8-5,2.2-8,2.2c-3,0-5.5-1.2-8.2-2.5c-9.9-4.8-19-3-29.2,0.6c-3.2,1.1-8.8,4-12.1,1.6
			c-3.3-2.3-1.1-7.6-1.9-10.9c-2.3-9-13.7-6.6-20.5-7.4c-5.3-0.6-10.2-2.8-15.6-3.3c-6.1-0.5-11.5,0.9-17.3,2
			c-6.6,1.3-10.9-0.5-16.1-4.4c-4.2-3.1-9.1-5.3-14.3-6.1c-5.7-0.9-11.3,0-16.9,1.1c-3.4,0.7-6.7,1.4-10.1,2.2
			c-2.4,0.6-5.3,0.9-7.3,2.3c-6.1,4.2-2.8,15.3-3,21.6c-0.3,7.7-1.9,17.2-9.9,20.5C1423-666.6,1425.3-657.9,1430.7-660.1
			L1430.7-660.1z"/>
	</g>
</g>
<g>
	<g>
		<path d="M1333.2-672.8c-7.9-2.7-16.3-2.8-24.3-0.3c-3.7,1.1-2.1,6.9,1.6,5.8c7.1-2.2,14.1-2.1,21.1,0.3
			C1335.3-665.7,1336.8-671.5,1333.2-672.8L1333.2-672.8z"/>
	</g>
</g>
<g>
	<g>
		<path d="M1276-664.7c-6,3.8-9.5,9.9-10,16.9c-0.2,3.9,5.8,3.8,6,0c0.3-4.8,2.9-9.1,7-11.7C1282.3-661.5,1279.3-666.7,1276-664.7
			L1276-664.7z"/>
	</g>
</g>
<g>
	<g>
		<path d="M1314.6-633.8c8.7,3.1,17.8,4.5,27,4.1c3.8-0.2,3.9-6.2,0-6c-8.8,0.4-17.2-0.9-25.4-3.9
			C1312.6-640.9,1311-635.1,1314.6-633.8L1314.6-633.8z"/>
	</g>
</g>
<g>
	<g>
		<path d="M1225.1-668.4c-7.4,1.3-14.1,5.2-19.1,10.9c-2.5,2.9,1.7,7.2,4.2,4.2c4.3-5,9.9-8.2,16.4-9.4
			C1230.5-663.3,1228.9-669.1,1225.1-668.4L1225.1-668.4z"/>
	</g>
</g>
<g>
	<g>
		<path d="M1168.8-635.9c-4.8,3.6-8.7,8.1-11.2,13.7c-1.6,3.5,3.6,6.5,5.2,3c2.1-4.5,5.1-8.5,9.1-11.5
			C1174.8-633,1171.9-638.2,1168.8-635.9L1168.8-635.9z"/>
	</g>
</g>
<g>
	<g>
		<path d="M1212.3-610.7c5.5,7.8,14.2,12.3,23.8,11.9c3.8-0.2,3.9-6.2,0-6c-7.4,0.3-14.3-2.8-18.6-8.9
			C1215.2-616.9,1210-613.9,1212.3-610.7L1212.3-610.7z"/>
	</g>
</g>
<g>
	<g>
		<path d="M1255.8-599.9c8,6.3,17.4,9.5,27.6,9c3.8-0.2,3.9-6.2,0-6c-8.5,0.4-16.6-1.9-23.3-7.3
			C1257-606.5,1252.7-602.3,1255.8-599.9L1255.8-599.9z"/>
	</g>
</g>
<g>
	<g>
		<path d="M1109.3-614.9c-10.3-1.8-22.7-2.2-27.2,9.3c-1.4,3.6,4.4,5.2,5.8,1.6c3.1-7.8,13.4-6.3,19.8-5.1
			C1111.5-608.5,1113.1-614.2,1109.3-614.9L1109.3-614.9z"/>
	</g>
</g>
<g>
	<g>
		<path d="M1123.7-591.4c-9.5-1.4-17.7,6.8-16.3,16.2c0.6,3.8,6.3,2.2,5.8-1.6c-0.7-4.7,4.3-9.6,8.9-8.9
			C1125.8-585.1,1127.5-590.8,1123.7-591.4L1123.7-591.4z"/>
	</g>
</g>
<g>
	<g>
		<path d="M1200-626.6c-6.1,2.8-10.5,8.6-11.7,15.2c-0.7,3.8,5.1,5.4,5.8,1.6c1-5.3,4.1-9.4,9-11.6
			C1206.5-623.1,1203.4-628.3,1200-626.6L1200-626.6z"/>
	</g>
</g>
<g>
	<g>
		<path d="M1175.1-582.6c-1.5,5.2-2.2,10.5-2,15.9c0.1,3.9,6.1,3.9,6,0c-0.2-4.9,0.4-9.6,1.8-14.3
			C1182-584.8,1176.2-586.3,1175.1-582.6L1175.1-582.6z"/>
	</g>
</g>
<g>
	<g>
		<path d="M1307.4-596.6c4.3,4.7,9.4,8.5,15.1,11.3c3.5,1.7,6.5-3.5,3-5.2c-5.3-2.6-9.9-6-13.9-10.4
			C1309-603.7,1304.8-599.4,1307.4-596.6L1307.4-596.6z"/>
	</g>
</g>
<g>
	<g>
		<path d="M1474.7-652.4c-5.1,4.8-10.1,9.6-15.2,14.4c-2.8,2.7,1.4,6.9,4.2,4.2c5.1-4.8,10.1-9.6,15.2-14.4
			C1481.8-650.8,1477.6-655,1474.7-652.4L1474.7-652.4z"/>
	</g>
</g>
<g>
	<g>
		<path d="M1421.1-607.9c6.5,1,12.9,0.9,19.4-0.4c3.8-0.8,2.2-6.5-1.6-5.8c-5.3,1.1-10.8,1.2-16.2,0.4
			C1418.9-614.3,1417.3-608.5,1421.1-607.9L1421.1-607.9z"/>
	</g>
</g>
<g>
	<g>
		<path d="M1474.3-680c5.4,0,10.2,2.7,13,7.4c2,3.3,7.2,0.3,5.2-3c-3.9-6.4-10.7-10.3-18.2-10.3C1470.4-686,1470.4-680,1474.3-680
			L1474.3-680z"/>
	</g>
</g>
<g>
	<g>
		<path d="M1530.9-671.1c8.6,1.9,15.9,6.7,20.9,14c2.2,3.2,7.4,0.2,5.2-3c-5.8-8.5-14.3-14.5-24.5-16.7
			C1528.7-677.8,1527.1-672,1530.9-671.1L1530.9-671.1z"/>
	</g>
</g>
<g>
	<g>
		<path d="M1529.3-640.8c-2.4,3.9-5.4,7.3-9,10.2c-3,2.4,1.3,6.6,4.2,4.2c4-3.2,7.3-7.1,10-11.4C1536.5-641,1531.3-644,1529.3-640.8
			L1529.3-640.8z"/>
	</g>
</g>
<g>
	<g>
		<path d="M1498.1-610.7c-7.3,3.5-14.5,7-21.8,10.4c-3.5,1.7-0.4,6.8,3,5.2c7.3-3.5,14.5-7,21.8-10.4
			C1504.6-607.2,1501.5-612.4,1498.1-610.7L1498.1-610.7z"/>
	</g>
</g>
<g>
	<g>
		<path d="M1532.6-593.1c7.8-1,15.4-0.4,22.9,2c3.7,1.2,5.3-4.6,1.6-5.8c-8-2.5-16.2-3.3-24.5-2.2
			C1528.8-598.6,1528.7-592.6,1532.6-593.1L1532.6-593.1z"/>
	</g>
</g>
<g>
	<g>
		<path d="M1558-619c7.5,1.4,13.9,5.4,18.2,11.7c2.2,3.2,7.4,0.2,5.2-3c-5.1-7.6-12.8-12.8-21.8-14.5
			C1555.8-625.5,1554.2-619.7,1558-619L1558-619z"/>
	</g>
</g>
<g>
	<g>
		<path d="M1582-639.8c4.3,5.5,7.8,11.6,10.2,18.1c1.4,3.6,7.2,2,5.8-1.6c-2.9-7.6-6.8-14.4-11.8-20.8
			C1583.9-647.1,1579.7-642.8,1582-639.8L1582-639.8z"/>
	</g>
</g>
<g>
	<g>
		<path d="M1637.6-641.1c1.9,1.4,2.3,4.2,1.3,6.2c-1.8,3.4,3.4,6.5,5.2,3c2.7-5.1,1.1-11-3.5-14.4c-1.3-1-3.3-0.2-4.1,1.1
			C1635.6-643.7,1636.3-642.1,1637.6-641.1L1637.6-641.1z"/>
	</g>
</g>
<g>
	<g>
		<path d="M1544.4-565.5c-10,1.3-19.8,3.3-29.5,6.1c-3.7,1.1-2.1,6.8,1.6,5.8c9.2-2.6,18.5-4.6,27.9-5.9
			C1548.1-560,1548.2-566,1544.4-565.5L1544.4-565.5z"/>
	</g>
</g>
<g>
	<g>
		<path d="M1424.4-562c9,3.3,18.3,4.9,27.9,5.1c3.9,0.1,3.9-5.9,0-6c-9.1-0.1-17.8-1.8-26.3-4.8
			C1422.4-569.1,1420.8-563.3,1424.4-562L1424.4-562z"/>
	</g>
</g>
<g>
	<g>
		<path d="M1654.1-587.6c-2.5,3.9-5.9,6.9-9.9,9.1c-3.4,1.9-0.4,7,3,5.2c4.9-2.7,9-6.5,12-11.2
			C1661.4-587.9,1656.2-590.9,1654.1-587.6L1654.1-587.6z"/>
	</g>
</g>
<g>
	<g>
		<path d="M1620.9-591.2c-0.2,4.2-1.3,8.2-3.2,12c-1.7,3.4,3.4,6.5,5.2,3c2.4-4.7,3.7-9.7,4-15C1627.1-595,1621.1-595,1620.9-591.2
			L1620.9-591.2z"/>
	</g>
</g>
<g>
	<g>
		<path d="M1648.3-611.2c3.1,1.8,4.8,5.8,3.2,9.2c-1.6,3.5,3.6,6.5,5.2,3c2.9-6.3,0.8-14-5.4-17.4
			C1648-618.3,1645-613.1,1648.3-611.2L1648.3-611.2z"/>
	</g>
</g>
<g>
	<g>
		<path d="M1587.3-574.1c-1.9,4.3-4.5,8.1-7.8,11.3c-2.8,2.7,1.5,6.9,4.2,4.2c3.7-3.6,6.7-7.8,8.8-12.5
			C1594-574.6,1588.9-577.7,1587.3-574.1L1587.3-574.1z"/>
	</g>
</g>
<g>
	<g>
		<path d="M1697.3-589.8c4.4,0.8,7.7,5.2,6.6,9.7c-0.9,3.8,4.9,5.4,5.8,1.6c1.8-7.5-3.1-15.6-10.8-17.1
			C1695.1-596.3,1693.5-590.5,1697.3-589.8L1697.3-589.8z"/>
	</g>
</g>
<g>
	<g>
		<path d="M1672.7-616c5.6,1.8,9.3,7.1,9.3,13c0,3.9,6,3.9,6,0c0-8.6-5.6-16.1-13.7-18.7C1670.7-622.9,1669.1-617.2,1672.7-616
			L1672.7-616z"/>
	</g>
</g>
<g>
	<g>
		<path d="M1605.2-641.4c5.8,1.2,10.1,5.6,11.3,11.4c0.8,3.8,6.5,2.2,5.8-1.6c-1.6-7.7-7.8-13.9-15.5-15.6
			C1603-648,1601.4-642.2,1605.2-641.4L1605.2-641.4z"/>
	</g>
</g>
<g>
	<g>
		<path d="M1751.8-573.4c-0.5,4.6-3.8,8.8-8.1,10.4c-3.6,1.4-2,7.2,1.6,5.8c7.1-2.7,11.7-8.7,12.5-16.2
			C1758.2-577.3,1752.2-577.2,1751.8-573.4L1751.8-573.4z"/>
	</g>
</g>
<g>
	<g>
		<path d="M1676.7-553.2c-3.8,5-9.7,7.3-15.8,6.8c-3.9-0.3-3.8,5.7,0,6c8.4,0.6,16-3.2,21-9.8C1684.2-553.2,1679-556.2,1676.7-553.2
			L1676.7-553.2z"/>
	</g>
</g>
<g>
	<g>
		<path d="M1243-635.9c1.8,7.1,6.8,12.5,13.5,15.2c3.6,1.5,5.1-4.3,1.6-5.8c-4.7-1.9-8.1-6.1-9.4-11
			C1247.8-641.2,1242-639.7,1243-635.9L1243-635.9z"/>
	</g>
</g>
<g>
	<g>
		<path d="M1176-660.6c-6.6-1.2-13.1,0.1-18.6,4c-3.1,2.2-0.1,7.5,3,5.2c4.1-3,8.9-4.3,13.9-3.4
			C1178.2-654.1,1179.8-659.9,1176-660.6L1176-660.6z"/>
	</g>
</g>
<g>
	<g>
		<path d="M1224.3-561.4c7,4,14.7,5.8,22.7,5.1c3.8-0.3,3.9-6.3,0-6c-7,0.6-13.6-0.8-19.7-4.3C1224-568.5,1220.9-563.3,1224.3-561.4
			L1224.3-561.4z"/>
	</g>
</g>
<g>
	<g>
		<path d="M1281-555.7c11.2,5.1,23,7.2,35.3,6.2c3.8-0.3,3.9-6.3,0-6c-11.1,0.9-22-0.8-32.2-5.4
			C1280.6-562.5,1277.5-557.3,1281-555.7L1281-555.7z"/>
	</g>
</g>
<g>
	<g>
		<path d="M1382.7-572.3c4.4,4,9.7,6.7,15.5,7.9c3.8,0.7,5.4-5.1,1.6-5.8c-4.9-0.9-9.2-3-12.9-6.3
			C1384.1-579.1,1379.8-574.9,1382.7-572.3L1382.7-572.3z"/>
	</g>
</g>
<g>
	<g>
		<path d="M1486.1-563.1c-2.5,3.3-5.7,5.9-9.2,8c-3.3,1.9-0.3,7.1,3,5.2c4.5-2.6,8.2-6,11.4-10.2c1-1.3,0.2-3.3-1.1-4.1
			C1488.7-565.1,1487.1-564.4,1486.1-563.1L1486.1-563.1z"/>
	</g>
</g>
<g>
	<g>
		<path d="M1619.7-541.5c-6,4.1-12.5,7.1-19.5,9c-3.7,1-2.1,6.8,1.6,5.8c7.5-2,14.5-5.3,21-9.6
			C1625.9-538.4,1622.9-543.6,1619.7-541.5L1619.7-541.5z"/>
	</g>
</g>
<g>
	
		<ellipse transform="matrix(0.9474 -0.3202 0.3202 0.9474 400.6044 395.6423)" class="st1" cx="1403.5" cy="-1020.5" rx="32.4" ry="46.5"/>
	<g>
		<path d="M1419.2-973.5c17.2-6.3,22.7-26.1,21.1-42.9c-1.8-18.6-11.6-38.5-28.4-47.9c-14.1-7.9-30.8-4.7-39.4,9.5
			c-10.2,16.8-6.9,39.7,2,56.3C1382.9-983,1400.3-967.6,1419.2-973.5c3.7-1.1,2.1-6.9-1.6-5.8c-13.8,4.3-26.9-5.7-34.4-16.6
			c-9.3-13.6-13.8-32.2-8.9-48.3c4.2-13.5,16.4-22.2,30.4-16.9c14.7,5.6,24.2,21.3,27.9,35.9c3.9,15.5,2.6,39.4-15.1,45.9
			C1414-977.9,1415.6-972.1,1419.2-973.5z"/>
	</g>
</g>
<g>
	
		<ellipse transform="matrix(0.6476 -0.762 0.762 0.6476 1118.3219 781.0247)" class="st1" cx="1403.5" cy="-818.5" rx="33.3" ry="47.9"/>
	<g>
		<path d="M1442.1-785.3c11.1-13.7,6.9-32.6-2.2-46.2c-10.9-16.4-30.1-29.6-50.3-29.9c-16.6-0.3-30.5,10.4-31.5,27.5
			c-1,19.5,12.9,37.6,28.2,48C1402.2-775.3,1427.6-769.1,1442.1-785.3c2.6-2.9-1.7-7.1-4.2-4.2c-10.8,12.1-29.4,8.9-42.3,2.1
			c-14.6-7.7-27.5-21.7-30.8-38.3c-2.8-14.1,4.4-27.3,19.3-29.5c17.1-2.5,34.6,7.8,45.6,20.1c10.2,11.5,19.3,31.7,8.1,45.5
			C1435.4-786.6,1439.7-782.3,1442.1-785.3z"/>
	</g>
</g>
<g>
	<path d="M1394.6-1002l-5.9-33.1l6.6-4.1l27,20l-7.9,4.9l-15.9-12.4l4.1,19.8L1394.6-1002z"/>
</g>
<g>
	<path d="M1395.6-843l5.4,6.3l-0.9,0.8c-0.8,0.7-1.3,1.4-1.4,2.1c-0.1,0.7,0,1.5,0.5,2.3c0.2,0.5,1.1,1.6,2.5,3.3
		c1.5,1.7,2.4,3.2,2.9,4.5c0.4,1,0.5,1.9,0.4,2.8c-0.1,0.7-0.4,1.5-0.9,2.6c1.2-0.4,2.2-0.5,3-0.5c0.8,0.1,1.7,0.4,2.8,1
		c1.1,0.6,2.4,1.9,4,3.8c1.5,1.7,2.5,2.8,3.2,3.1c0.6,0.4,1.3,0.5,1.9,0.3c0.6-0.2,1.6-0.8,2.9-1.9l5.3,6.2l-2.5,2.2
		c-2.6,2.2-4.7,3.5-6.2,3.9c-1.6,0.4-3,0.3-4.4-0.4c-1.4-0.6-2.9-2-4.7-4.1c-0.4-0.5-0.8-0.9-1.1-1.4c-0.2-0.3-0.5-0.6-0.7-0.9
		c-1.3-1.5-2.3-2.4-3.1-2.8c-0.8-0.4-1.6-0.5-2.4-0.3c-0.8,0.2-1.7,0.7-2.7,1.5l-5.6-6.6c1-0.9,1.7-1.7,1.9-2.4
		c0.3-0.7,0.2-1.5,0-2.4c-0.3-0.9-1.1-2-2.3-3.5l-0.6-0.7c-0.3-0.3-0.5-0.6-0.8-0.9c-1.9-2.3-3.1-4.1-3.6-5.4
		c-0.5-1.3-0.6-2.6-0.4-3.7c0.2-0.9,0.6-1.8,1.3-2.7c1-1.3,2.2-2.6,3.7-3.9L1395.6-843z"/>
</g>
<g>
	<path class="st2" d="M1701.9-1435.5l-432.7,137.3c0,0-127.5,59.8-165.7,86.7c-5.5,3.9-19.4,11.5-19.8,18.3
		c-0.6,10.3,16.9,21.6,37.5,17.6c20.5-4,102.8-53.8,102.8-53.8s-110.3,70-139.9,101.4c-2.8,2.9-8.9,9.6-8.7,13.6
		c0.5,9.4,16,19.8,34.3,15.9c18.3-3.9,127.5-73.5,127.5-73.5s-87.2,72.8-116.3,97c-5.5,4.6-20.6,11.3-22,18.3
		c-2.8,14,17.2,32.8,55.3,15.1s133.6-104.9,133.6-104.9s-20.5,53.6-22.4,69.3c-1.9,15.7,8.1,28.5,15.8,32.4
		c7.7,3.9,74.9,37.5,94.6,36.3c19.7-1.3-1.1-34.4-5.6-38.8c-4.6-4.4-51.2-33-51.2-33s6.3-44,22.3-52.3c5.3-2.8,20.5-7.6,28.3-9.8"/>
	<g>
		<path d="M1700.7-1439.8c-9.8,3.1-19.6,6.2-29.4,9.3c-24.8,7.9-49.6,15.7-74.3,23.6c-32.8,10.4-65.5,20.8-98.3,31.2
			c-33.7,10.7-67.4,21.4-101.2,32.1c-27.6,8.8-55.2,17.5-82.7,26.3c-14.7,4.7-29.5,9.3-44.2,14c-2.7,0.9-5.2,2-7.8,3.2
			c-12,5.7-23.9,11.4-35.8,17.2c-36.3,17.7-72.7,35.5-107.5,56c-6.3,3.7-12.4,7.6-18.5,11.7c-7.4,5-21.2,11.5-21.7,21.9
			c-0.4,10.5,10.3,17.7,19.1,20.6c9.5,3.3,20.3,3,29.7-0.3c16.1-5.7,31.3-14.4,46.3-22.6c15-8.2,29.8-16.8,44.5-25.6
			c2.5-1.5,4.9-2.9,7.4-4.4c-1.5-2.6-3-5.2-4.5-7.8c-16.6,10.6-33.1,21.5-49.4,32.5c-26.9,18.2-54,36.6-78.7,57.7
			c-4.4,3.8-8.8,7.7-12.8,11.9c-5.5,5.8-12.2,13-9,21.5c5.9,15.4,28.6,19.6,42.5,14.4c10-3.7,19.4-9.2,28.6-14.4
			c13-7.3,25.9-14.9,38.6-22.6c19.4-11.7,38.7-23.6,57.8-35.8c-1.8-2.4-3.6-4.7-5.5-7.1c-17.4,14.5-34.8,29-52.2,43.5
			c-13.7,11.4-27.3,22.8-41,34.2c-5.6,4.7-11.2,9.3-16.8,14c-5.6,4.6-11.4,8.4-17.4,12.4c-6.4,4.3-12.8,9.3-12.5,17.7
			c0.2,6.3,3.6,12,8.4,16c15.5,12.8,38.5,7,54.8-0.8c12.4-6,23.7-14.3,34.7-22.5c14.2-10.5,27.9-21.5,41.5-32.8
			c19.5-16.2,38.7-32.8,57.4-49.9c-2.5-1.5-5-2.9-7.5-4.4c-7.7,20.2-15.6,40.7-20.9,61.7c-3.7,14.8-1.2,30.5,10.7,41
			c6.4,5.7,15.5,8.9,23.2,12.6c12.8,6.1,25.6,11.9,38.8,17.1c11.2,4.5,23,9.3,35.1,10.9c4.9,0.6,10.4,0.6,14.3-2.9
			c4-3.6,4.4-9,3.6-14c-1.7-9.9-7.5-21.8-14.6-29c-2.8-2.8-6.6-5-9.8-7.1c-5.7-3.8-11.5-7.5-17.3-11.1c-8.4-5.3-16.8-10.5-25.2-15.7
			c0.7,1.7,1.4,3.4,2.1,5.1c1.6-11.2,4.4-22.7,8.7-33.2c2.4-6,5.7-13.1,11.5-16.4c8.2-4.5,18.3-6.8,27.2-9.3
			c5.6-1.6,3.2-10.3-2.4-8.7c-9.7,2.8-20.5,5.4-29.4,10.2c-6.7,3.7-10.9,11-14,17.7c-5.2,11.7-8.5,24.6-10.4,37.2
			c-0.3,2.1,0.2,3.9,2.1,5.1c15.4,9.4,30.8,18.8,45.7,29c5.8,4,9.5,9.5,13,16.6c2,4.1,4.8,9.6,4.2,14.4c-0.5,3.9-4.1,3.7-7.3,3.4
			c-10.3-1-20.8-5.4-30.4-9.1c-12.2-4.7-24.1-10.1-36-15.6c-7.4-3.4-14.8-6.9-22-10.7c-12.4-6.6-16-21.2-13-33.9
			c5.1-21.4,13.3-42.4,21.2-62.9c1.7-4.5-4.5-7.2-7.5-4.4c-14.3,13.1-29,25.9-43.8,38.5c-24.1,20.5-48.6,41.3-75.4,58.2
			c-13.6,8.5-30.7,17.1-47.2,13.4c-5.7-1.3-11.8-4.4-14.2-10.1c-2.9-6.8,2.4-10.4,7.7-13.8c6.1-4,11.9-7.8,17.4-12.4
			c5.2-4.3,10.4-8.7,15.6-13c12.7-10.5,25.3-21.1,38-31.6c19.2-16,38.4-32.1,57.7-48.1c3.9-3.3-1.2-9.8-5.5-7.1
			c-14.5,9.3-29.2,18.4-43.9,27.4c-22.9,14-45.9,28.4-70,40.4c-10.5,5.3-21.7,8.9-33.4,2.4c-2.8-1.5-6.3-4.1-7.3-7.3
			c-1.2-3.8,3.3-7.8,5.6-10.4c3.8-4.1,7.9-7.9,12.1-11.6c23.2-20.2,48.8-37.6,74.2-54.9c17.8-12.2,35.9-24.1,54.1-35.7
			c4.9-3.1,0.4-10.8-4.5-7.8c-24.7,15-49.8,29.6-75.6,42.5c-15.2,7.6-32.3,16.7-49.2,7.8c-3.2-1.7-8.6-5.2-8.6-9.4
			c0.1-4.4,7.5-8.5,10.6-10.6c6.3-4.3,12.7-8.6,19.2-12.6c33.4-20.4,68.9-37.7,104-54.9c13.4-6.6,26.8-13.1,40.2-19.5
			c2.9-1.4,5.8-2.7,8.7-4.1c1.1-0.5-1.7,0.5,0.5-0.1c12.7-3.4,25.1-8,37.6-11.9c25.8-8.2,51.6-16.4,77.3-24.5
			c32.5-10.3,65-20.6,97.5-30.9c32.7-10.4,65.4-20.7,98-31.1c26.2-8.3,52.5-16.6,78.7-25c13.5-4.3,27.1-8.5,40.6-12.9
			c0.6-0.2,1.2-0.4,1.8-0.6C1708.6-1432.9,1706.3-1441.6,1700.7-1439.8L1700.7-1439.8z"/>
	</g>
</g>
<g>
	<g>
		<path d="M1372.9-630.6c6.6,4.9,14.7,6.5,22.7,5.1c3.8-0.7,2.2-6.5-1.6-5.8c-6.5,1.2-12.8-0.5-18.1-4.4
			C1372.8-638.1,1369.8-632.9,1372.9-630.6L1372.9-630.6z"/>
	</g>
</g>
<g>
	<g>
		<path d="M1346.7-601.5c5.6,7.3,13,12.5,22,14.9c3.7,1,5.3-4.8,1.6-5.8c-7.3-2-13.8-6.1-18.4-12.2
			C1349.6-607.6,1344.4-604.6,1346.7-601.5L1346.7-601.5z"/>
	</g>
</g>
<g>
	<g>
		<path d="M1356-545.7c7.6,6.6,16.3,11.2,26.1,13.7c3.7,1,5.3-4.8,1.6-5.8c-8.7-2.2-16.6-6.3-23.4-12.2
			C1357.4-552.4,1353.1-548.2,1356-545.7L1356-545.7z"/>
	</g>
</g>
<g>
	<g>
		<path d="M1432.9-530.7c8.7,1.7,17.4,2.3,26.2,1.5c3.8-0.3,3.9-6.3,0-6c-8.3,0.7-16.4,0.3-24.6-1.3
			C1430.7-537.2,1429.1-531.4,1432.9-530.7L1432.9-530.7z"/>
	</g>
</g>
<g>
	<g>
		<path d="M1535.9-537c-4.2,6.8-11.4,10.6-19.4,10.3c-3.9-0.1-3.9,5.9,0,6c10.1,0.3,19.3-4.7,24.5-13.3
			C1543.1-537.2,1537.9-540.2,1535.9-537L1535.9-537z"/>
	</g>
</g>
<g>
	<g>
		<path d="M1386.7,298c5.4-1.2,10.8-2.2,16.3-2.4c2.6-0.1,6.4-0.5,8.4,1.4c1.6,1.4,2.6,4.6,3.4,6.5c1.4,3.3,2.6,6.7,3.7,10.1
			c1.9,6.1,3.7,12.5,4.1,18.9c0.3,5-2.4,7.6-5.8,11.2c-5,5.3-10.4,10.2-15.5,15.4c-4,4.1-7,7.9-8,13.7c-2.3,13.9,3.2,30.3,16,37.4
			c8.2,4.5,15,1,22.4-3.2c5.1-2.9,10.5-5.7,15.2-9.2c6.9-5.2,13.4-10.8,20-16.4c8.7-7.3,18.4-14.8,25.2-24
			c7.5-10.2,8.6-25.6,10.6-37.8c2-12.1,4.8-23.8,5.7-36.1c0.8-10.6,1.3-21.2,1.5-31.8c-1.1,1.4-2.2,2.9-3.3,4.3
			c14.2-5.1,28.5-10.3,42.7-15.4c34.2-12.3,68.4-24.7,102.6-37c41.4-14.9,82.8-29.9,124.2-44.8c35.9-13,71.9-25.9,107.8-38.9
			c17.3-6.3,35.1-11.8,52.2-18.8c0.2-0.1,0.5-0.2,0.7-0.3c5.4-2,3.1-10.7-2.4-8.7c-14.2,5.1-28.5,10.3-42.7,15.4
			c-34.2,12.3-68.4,24.7-102.6,37c-41.4,14.9-82.8,29.9-124.2,44.8c-35.9,13-71.9,25.9-107.8,38.9c-17.3,6.2-35.2,11.7-52.2,18.8
			c-0.2,0.1-0.5,0.2-0.7,0.3c-1.9,0.7-3.3,2.2-3.3,4.3c-0.2,8.8-0.6,17.5-1.1,26.2c-0.4,5.8-0.7,11.6-1.5,17.3
			c-0.6,4.1-1.8,8-2.6,12.1c-2.6,13.4-3.3,28-8.7,40.7c-3.7,8.9-13.5,15.7-20.5,21.8c-8,7-16.2,13.7-24.4,20.3
			c-0.5,0.4-1,0.9-1.6,1.2c1.9-1.3,0.1-0.2-0.4,0.1c-1.6,0.9-3,1.9-4.6,2.8c-3.8,2.3-7.7,4.5-11.7,6.7c-4,2.2-7.1,3.5-11.1,0.8
			c-10-6.6-16-24.5-7.3-34.1c4.5-5,9.5-9.5,14.2-14.2c3.8-3.8,8.4-8,10.7-13c2.4-5.2,0.9-11.8-0.1-17.2c-1.5-7.5-3.7-14.8-6.6-21.9
			c-2.1-5.1-4.4-11.3-9.9-13.5c-8.9-3.5-20.5-0.7-29.5,1.3C1378.6,290.5,1381,299.2,1386.7,298L1386.7,298z"/>
	</g>
</g>
<g>
	<g>
		<path d="M944.1,876.6c20.4-4.9,40.5-4.7,61-1c3.7,0.7,9,2.3,12.4,0.1c4.6-3,2.2-8.4,0.1-12.1c-0.9,2.2-1.8,4.4-2.7,6.6
			c5.1-1.5,10.7-1.3,16-1.8c4.2-0.5,10.3-0.7,13.5-4.1c1.9-2.1,1.4-4.5,2.2-7c1.3-3.8,4.7-6.7,8-8.7c6.8-4.1,15.1-3,22-6.7
			c4.5-2.4,6-6.8,4.7-11.6c-0.4-1.3-0.9-2.5-1.5-3.7c-0.3-0.7-0.7-1.4-1-2.1c0.9,1.9-2.2,0.4,0.7,1.1c2.6,0.7,7.8-1.3,10.2-2.6
			c2.3-1.3,4-3.2,5-5.6c0.9-2.4,0.1-6.5,1.9-8.3c2.2-2.2,7.8-2.1,10.7-2.7c3.8-0.7,8-1.7,10.8-4.7c2-2.2,2.8-5.2,2.1-8.1
			c-0.1-0.4-0.9-2.1-0.8-2.3c-0.5,1.1,2.1,0,1.5,0.2c1.9-0.7,4-1,6-1.7c2.9-1.1,5.5-2.5,7.5-5c0.9-1.1,1.6-2.3,2-3.7
			c0.5-1.5,0-3.9,0.6-5.2c1.1-2.6,6.2-4.2,8.6-4.9c4-1.1,8.2-0.6,12.2-1.5c3.8-0.8,6-2.6,9.1-4.7c3.3-2.2,9.3-2.6,13.4-3.5
			c4.8-1.1,9.7-2.1,14.5-3.4c4.2-1.2,8.6-1,12.8-2.1c3.9-1,7.4-2.8,11-4.5c3.9-1.7,7.4-1.2,11.5-0.6c4,0.5,8.2,0.5,12.1-0.7
			c4.6-1.4,8.7-4.1,13.4-5.2c7.8-1.7,16.5,2,23.7-2c3.3-1.9,5-4.7,6.7-7.9c1.9-3.6,4.8-5.6,8.7-6.6c5-1.3,11.1-1.2,16.3-0.8
			c5,0.4,7.8,4.1,12.1,6.2c8,4,17.7,4.9,26.4,2.5c4.3-1.2,7.9-3.6,12-5.3c3.7-1.5,7.3-0.9,11.2-0.4c-1.1-1.4-2.2-2.9-3.3-4.3
			c0.2,10.2-1.7,21.1,0.5,31.1c2.1,9.4,9.6,15.3,17.7,19.7c5.1,2.8,9.6-5,4.5-7.8c-6.6-3.7-12.7-7.9-13.8-16
			c-1.2-8.8,0.2-18.2,0.1-27.1c0-1.8-1.4-4.1-3.3-4.3c-7.1-1-12.7-1.3-19.3,1.8c-8.3,3.9-16.1,6.5-25.3,3.5
			c-3.9-1.3-6.3-3.8-9.7-5.9c-4.1-2.5-8.9-2.8-13.5-2.9c-7.9,0-16.6,0.1-23.2,5c-5.2,3.9-6.3,12.3-13.4,12.3
			c-4.4,0-8.7-0.8-13.2-0.3c-4.3,0.5-8.4,1.7-12.4,3.5c-4.6,2.1-8.4,3.6-13.6,3c-4.1-0.5-7.7-1.2-11.9-0.4c-4,0.7-7.3,3.1-11,4.5
			c-4.4,1.7-8.7,1.6-13.2,2.4c-9.7,1.7-19.3,4.8-28.9,6.8c-1.5,0.3-2.8,0.5-4.1,1.3c-1.5,1-2.3,2.5-3.9,3.4c-3.6,2-8.1,1.3-12,1.8
			c-6.3,0.9-14.9,4.3-17.8,10.5c-1.1,2.4,0,5.6-1.8,7.5c-2.5,2.7-7.5,2.6-10.7,3.9c-2.6,1.1-4.9,2.9-5.6,5.7c-0.4,1.4-0.3,3,0.1,4.3
			c0.7,2.6,0.1,2.5-2.7,3.3c-6.7,1.9-15.7,1.2-19.8,8.1c-1.6,2.7-0.6,5.8-1.8,8.4c-1.3,2.8-5.2,2.8-7.9,3.2
			c-7,1.1-10.6,5.4-7.5,12.3c0.4,0.8,2.2,3.9,1.8,4.7c-0.9,1.9-8.5,2.2-10.1,2.5c-8.6,1.6-17,5.9-22.1,13.2
			c-1.2,1.7-2.1,3.5-2.8,5.5c-0.2,0.8-0.5,1.5-0.6,2.3c-0.2,2-0.8,1.5,0.5,0.8c-1.3,0.7-4.6,1-6.4,1.2c-6.2,0.8-12.8,0.5-18.9,2.2
			c-2.8,0.8-4.1,4.1-2.7,6.6c0.2,0.4,1.1,2.1,1,1.8c0,0,0.4,1.1,0.4,1.1c0.5,0-0.6-0.1,0-0.3c0.3-0.1,1.7-3.9,2.3-2.9
			c0.1,0.1-0.6,0-1.4-0.1c-3.7-0.5-9.3-1.7-13.7-2.3c-19-2.9-38-1.9-56.7,2.6C936.1,869.3,938.5,877.9,944.1,876.6L944.1,876.6z"/>
		<path d="M1447.2,774.8c14.5-6.3,15.6-23.8,14.6-37.6c-0.1-1.3-0.2-2.5-0.3-3.8c-0.2-2.7-0.6-2.1,2.2-2.5
			c6.3-0.8,12.4-3.5,18.8-4.2c4.8-0.5,9.5,0.3,13.8,2.5c4.3,2.2,7.6,5.7,12.4,7.2c10.7,3.3,20.9-3.5,31.7-1.8
			c5.4,0.9,10.2,2.7,15.8,2.8c2.5,0.1,5-0.2,7.5,0c2.7,0.2,1.7,0.6,1.8,3.4c0.2,7.8,4.3,14.3,12.6,14.9c10.2,0.7,19.2-7.7,29.4-6.6
			c4.7,0.5,8.7,3.8,13.3,4.8c5.8,1.3,9.9-0.6,15.3-2c2.8-0.8,2.7,0.8,4.7,2.7c1.1,1.1,2.5,2,3.9,2.7c3.9,2,8.4,2.1,12.7,1.6
			c3.1-0.4,6.2-0.9,9.4-1.2c1.3-0.1,6-0.6,6.1-0.6c-0.4-0.5-0.1,3.5,0.1,4.2c0.5,1.9,1.3,3.6,2.5,5.1c2.2,2.9,5.3,4.7,8.7,5.9
			c1.8,0.7,3.6,1.1,5.4,1.5c0.6,0.1,2.7,1,3.3,0.9c0.4,0.1,0.7,0.3,1,0.5c-0.1-1.8-0.4-2-0.9-0.7c-2.8,1.4-5.1,6.9-5.5,9.8
			c-0.5,4.1,1.4,7,5,8.9c3.5,1.8,7.5,2.3,11.3,2.3c2,0,3.9,0.1,5.9,0.1c1.6,0,1.7,1,1-0.4c0.5,1.1-0.1,4.7,0,6.4
			c0.2,3.6,1.8,6.8,4.8,8.9c3.4,2.4,7.5,2.4,11.4,3.8c4.4,1.6,4.4,4.2,6.3,8.1c4.5,9.3,15.4,7.8,23.9,7.9c5.4,0.1,9.1,3.7,14.6,3.1
			c5.3-0.7,9.9-3.3,15.3-3.5c5.2-0.1,10.7,1,15,4.1c4.3,3.1,6.9,6.9,12.5,7.9c7.8,1.4,16.7-2.2,24.3-3.8c-1.9-1.4-3.8-2.9-5.7-4.3
			c-0.2,4.5,3.4,6.8,6.9,8.7c0.3,0.2,2.1,0.8,2.2,1.2c-1.4-2.8-2.6,0.8-3.1,1.8c-1.2,2.3-2.1,4.8-2.2,7.4c-0.2,12.4,15.2,13,24,14
			c-1.5-1.5-3-3-4.5-4.5c0.2,9-1.3,18.9,7.5,24.3c8.1,5,18.8,5.2,27.6,8.3c5.5,1.9,7.8-6.7,2.4-8.7c-7-2.5-14.4-3.4-21.4-5.7
			c-2.7-0.9-5.7-1.9-6.6-4.8c-1.2-3.8-0.3-9.3-0.4-13.4c-0.1-2.6-2-4.2-4.5-4.5c-3.8-0.4-11.2,0-14.1-2.9c-2.7-2.7,1.4-7,2.6-9.7
			c1.4-3,1.3-5.8-1.2-8.2c-1.1-1-2.5-1.6-3.7-2.3c-0.5-0.3-1.1-0.6-1.6-0.8c-1.5-0.5-0.7-1.1-0.8-0.1c0.1-3.1-3-4.9-5.7-4.3
			c-5.9,1.3-15.8,5.5-21.7,3.3c-3.9-1.5-6.8-5.9-10.6-7.9c-4.1-2.2-8.7-3.4-13.4-3.8c-4.5-0.4-9.1,0.1-13.4,1.3
			c-2.2,0.6-4.8,2.3-7.1,2.2c-2.1-0.1-3.9-1.7-6-2.3c-4.5-1.3-9-0.7-13.5-0.6c-3.9,0-8.1-0.1-9.8-4c-1.5-3.5-2.4-6.3-5.5-8.8
			c-3.4-2.7-7.4-3.5-11.5-4.4c-4.6-1-4.1-2.9-4.1-6.9c0-2.4-0.1-5.1-1.6-7.2c-3.7-5.4-11.7-3.2-17.1-3.8c-0.9-0.1-1.9-0.3-2.7-0.6
			c-1.2-0.4-2.1-1.5-2-0.4c-0.2-1.6,2.1-3.5,3.1-4.6c2-2.5,3.7-5.6,2.7-8.9c-2.5-8.2-13.9-5.3-18.9-10.4c-2.6-2.6-1-6.2-2.7-9.2
			c-2-3.7-6.3-4.3-10.1-4.2c-5.3,0.2-10.5,1.6-15.7,1.9c-2.2,0.1-4.6,0-6.5-1.2c-1.8-1.1-2.7-3.1-4.4-4.5c-2.9-2.4-6.4-2.5-9.8-1.4
			c-3,1-5.3,2.4-8.7,2.3c-3.2-0.1-5.9-1.5-8.7-2.8c-9.9-4.5-20-1.4-29.7,2.3c-3,1.1-8.2,3.5-11,0.8c-2.7-2.5-0.7-7.9-1.9-11.2
			c-3.2-8.9-15.4-5.3-22.4-6.4c-5.2-0.9-9.9-2.7-15.3-2.8c-6-0.1-11.3,1.8-17.1,2.8c-6.7,1.1-10.5-1.7-15.8-5.2
			c-4.3-2.9-9.3-4.6-14.5-5.2c-5.9-0.6-11.8,0.6-17.5,1.9c-4.7,1.1-12.8,1.7-16.4,5.2c-3.1,2.9-2.5,6.6-2.2,10.3
			c0.3,3.9,0.6,7.8,0.5,11.7c-0.3,8.3-2.2,16.5-10.4,20.1C1437.4,769.3,1442,777.1,1447.2,774.8L1447.2,774.8z"/>
	</g>
</g>
<g>
	<g>
		<path d="M1349.5,763.2c-7.9-2.7-16.3-2.8-24.3-0.3c-3.7,1.1-2.1,6.9,1.6,5.8c7.1-2.2,14.1-2.1,21.1,0.3
			C1351.5,770.2,1353.1,764.5,1349.5,763.2L1349.5,763.2z"/>
	</g>
</g>
<g>
	<g>
		<path d="M1292.2,771.3c-6,3.8-9.5,9.9-10,16.9c-0.2,3.9,5.8,3.8,6,0c0.3-4.8,2.9-9.1,7-11.7
			C1298.5,774.4,1295.5,769.2,1292.2,771.3L1292.2,771.3z"/>
	</g>
</g>
<g>
	<g>
		<path d="M1330.9,802.2c8.7,3.1,17.8,4.5,27,4.1c3.8-0.2,3.9-6.2,0-6c-8.8,0.4-17.2-0.9-25.4-3.9
			C1328.8,795.1,1327.3,800.9,1330.9,802.2L1330.9,802.2z"/>
	</g>
</g>
<g>
	<g>
		<path d="M1241.4,767.6c-7.4,1.3-14.1,5.2-19.1,10.9c-2.5,2.9,1.7,7.2,4.2,4.2c4.3-5,9.9-8.2,16.4-9.4
			C1246.8,772.7,1245.2,766.9,1241.4,767.6L1241.4,767.6z"/>
	</g>
</g>
<g>
	<g>
		<path d="M1185,800.1c-4.8,3.6-8.7,8.1-11.2,13.7c-1.6,3.5,3.6,6.5,5.2,3c2.1-4.5,5.1-8.5,9.1-11.5
			C1191.1,803,1188.1,797.8,1185,800.1L1185,800.1z"/>
	</g>
</g>
<g>
	<g>
		<path d="M1228.5,825.3c5.5,7.8,14.2,12.3,23.8,11.9c3.8-0.2,3.9-6.2,0-6c-7.4,0.3-14.3-2.8-18.6-8.9
			C1231.5,819.1,1226.3,822.1,1228.5,825.3L1228.5,825.3z"/>
	</g>
</g>
<g>
	<g>
		<path d="M1272,836.1c8,6.3,17.4,9.5,27.6,9c3.8-0.2,3.9-6.2,0-6c-8.5,0.4-16.6-1.9-23.3-7.3C1273.3,829.5,1269,833.7,1272,836.1
			L1272,836.1z"/>
	</g>
</g>
<g>
	<g>
		<path d="M1125.6,821.1c-10.3-1.8-22.7-2.2-27.2,9.3c-1.4,3.6,4.4,5.2,5.8,1.6c3.1-7.8,13.4-6.3,19.8-5.1
			C1127.8,827.5,1129.4,821.7,1125.6,821.1L1125.6,821.1z"/>
	</g>
</g>
<g>
	<g>
		<path d="M1139.9,844.5c-9.5-1.4-17.7,6.8-16.3,16.2c0.6,3.8,6.3,2.2,5.8-1.6c-0.7-4.7,4.3-9.6,8.9-8.9
			C1142.1,850.9,1143.7,845.1,1139.9,844.5L1139.9,844.5z"/>
	</g>
</g>
<g>
	<g>
		<path d="M1216.2,809.3c-6.1,2.8-10.5,8.6-11.7,15.2c-0.7,3.8,5.1,5.4,5.8,1.6c1-5.3,4.1-9.4,9-11.6
			C1222.7,812.9,1219.7,807.7,1216.2,809.3L1216.2,809.3z"/>
	</g>
</g>
<g>
	<g>
		<path d="M1191.4,853.3c-1.5,5.2-2.2,10.5-2,15.9c0.1,3.9,6.1,3.9,6,0c-0.2-4.9,0.4-9.6,1.8-14.3
			C1198.2,851.2,1192.4,849.6,1191.4,853.3L1191.4,853.3z"/>
	</g>
</g>
<g>
	<g>
		<path d="M1323.6,839.4c4.3,4.7,9.4,8.5,15.1,11.3c3.5,1.7,6.5-3.5,3-5.2c-5.3-2.6-9.9-6-13.9-10.4
			C1325.3,832.3,1321,836.5,1323.6,839.4L1323.6,839.4z"/>
	</g>
</g>
<g>
	<g>
		<path d="M1491,783.6c-5.1,4.8-10.1,9.6-15.2,14.4c-2.8,2.7,1.4,6.9,4.2,4.2c5.1-4.8,10.1-9.6,15.2-14.4
			C1498.1,785.2,1493.8,781,1491,783.6L1491,783.6z"/>
	</g>
</g>
<g>
	<g>
		<path d="M1437.4,828.1c6.5,1,12.9,0.9,19.4-0.4c3.8-0.8,2.2-6.5-1.6-5.8c-5.3,1.1-10.8,1.2-16.2,0.4
			C1435.2,821.7,1433.6,827.5,1437.4,828.1L1437.4,828.1z"/>
	</g>
</g>
<g>
	<g>
		<path d="M1490.5,755.9c5.4,0,10.2,2.7,13,7.4c2,3.3,7.2,0.3,5.2-3c-3.9-6.4-10.7-10.3-18.2-10.3
			C1486.7,749.9,1486.7,755.9,1490.5,755.9L1490.5,755.9z"/>
	</g>
</g>
<g>
	<g>
		<path d="M1547.2,764.8c8.6,1.9,15.9,6.7,20.9,14c2.2,3.2,7.4,0.2,5.2-3c-5.8-8.5-14.3-14.5-24.5-16.7
			C1545,758.2,1543.4,764,1547.2,764.8L1547.2,764.8z"/>
	</g>
</g>
<g>
	<g>
		<path d="M1545.5,795.2c-2.4,3.9-5.4,7.3-9,10.2c-3,2.4,1.3,6.6,4.2,4.2c4-3.2,7.3-7.1,10-11.4
			C1552.7,794.9,1547.5,791.9,1545.5,795.2L1545.5,795.2z"/>
	</g>
</g>
<g>
	<g>
		<path d="M1514.3,825.3c-7.3,3.5-14.5,7-21.8,10.4c-3.5,1.7-0.4,6.8,3,5.2c7.3-3.5,14.5-7,21.8-10.4
			C1520.8,828.8,1517.8,823.6,1514.3,825.3L1514.3,825.3z"/>
	</g>
</g>
<g>
	<g>
		<path d="M1548.8,842.9c7.8-1,15.4-0.4,22.9,2c3.7,1.2,5.3-4.6,1.6-5.8c-8-2.5-16.2-3.3-24.5-2.2
			C1545.1,837.4,1545,843.4,1548.8,842.9L1548.8,842.9z"/>
	</g>
</g>
<g>
	<g>
		<path d="M1574.2,816.9c7.5,1.4,13.9,5.4,18.2,11.7c2.2,3.2,7.4,0.2,5.2-3c-5.1-7.6-12.8-12.8-21.8-14.5
			C1572.1,810.4,1570.4,816.2,1574.2,816.9L1574.2,816.9z"/>
	</g>
</g>
<g>
	<g>
		<path d="M1598.3,796.1c4.3,5.5,7.8,11.6,10.2,18.1c1.4,3.6,7.2,2,5.8-1.6c-2.9-7.6-6.8-14.4-11.8-20.8
			C1600.2,788.9,1595.9,793.1,1598.3,796.1L1598.3,796.1z"/>
	</g>
</g>
<g>
	<g>
		<path d="M1653.8,794.8c1.9,1.4,2.3,4.2,1.3,6.2c-1.8,3.4,3.4,6.5,5.2,3c2.7-5.1,1.1-11-3.5-14.4c-1.3-1-3.3-0.2-4.1,1.1
			C1651.8,792.2,1652.5,793.9,1653.8,794.8L1653.8,794.8z"/>
	</g>
</g>
<g>
	<g>
		<path d="M1560.6,870.4c-10,1.3-19.8,3.3-29.5,6.1c-3.7,1.1-2.1,6.8,1.6,5.8c9.2-2.6,18.5-4.6,27.9-5.9
			C1564.4,875.9,1564.4,869.9,1560.6,870.4L1560.6,870.4z"/>
	</g>
</g>
<g>
	<g>
		<path d="M1440.7,874c9,3.3,18.3,4.9,27.9,5.1c3.9,0.1,3.9-5.9,0-6c-9.1-0.1-17.8-1.8-26.3-4.8
			C1438.6,866.9,1437.1,872.7,1440.7,874L1440.7,874z"/>
	</g>
</g>
<g>
	<g>
		<path d="M1670.4,848.3c-2.5,3.9-5.9,6.9-9.9,9.1c-3.4,1.9-0.4,7,3,5.2c4.9-2.7,9-6.5,12-11.2
			C1677.7,848.1,1672.5,845.1,1670.4,848.3L1670.4,848.3z"/>
	</g>
</g>
<g>
	<g>
		<path d="M1637.2,844.8c-0.2,4.2-1.3,8.2-3.2,12c-1.7,3.4,3.4,6.5,5.2,3c2.4-4.7,3.7-9.7,4-15
			C1643.3,840.9,1637.3,840.9,1637.2,844.8L1637.2,844.8z"/>
	</g>
</g>
<g>
	<g>
		<path d="M1664.6,824.7c3.1,1.8,4.8,5.8,3.2,9.2c-1.6,3.5,3.6,6.5,5.2,3c2.9-6.3,0.8-14-5.4-17.4
			C1664.3,817.7,1661.2,822.9,1664.6,824.7L1664.6,824.7z"/>
	</g>
</g>
<g>
	<g>
		<path d="M1603.6,861.8c-1.9,4.3-4.5,8.1-7.8,11.3c-2.8,2.7,1.5,6.9,4.2,4.2c3.7-3.6,6.7-7.8,8.8-12.5
			C1610.3,861.4,1605.1,858.3,1603.6,861.8L1603.6,861.8z"/>
	</g>
</g>
<g>
	<g>
		<path d="M1713.5,846.2c4.4,0.8,7.7,5.2,6.6,9.7c-0.9,3.8,4.9,5.4,5.8,1.6c1.8-7.5-3.1-15.6-10.8-17.1
			C1711.4,839.7,1709.7,845.4,1713.5,846.2L1713.5,846.2z"/>
	</g>
</g>
<g>
	<g>
		<path d="M1689,820c5.6,1.8,9.3,7.1,9.3,13c0,3.9,6,3.9,6,0c0-8.6-5.6-16.1-13.7-18.7C1686.9,813,1685.3,818.8,1689,820L1689,820z"
			/>
	</g>
</g>
<g>
	<g>
		<path d="M1621.5,794.5c5.8,1.2,10.1,5.6,11.3,11.4c0.8,3.8,6.5,2.2,5.8-1.6c-1.6-7.7-7.8-13.9-15.5-15.6
			C1619.3,788,1617.7,793.7,1621.5,794.5L1621.5,794.5z"/>
	</g>
</g>
<g>
	<g>
		<path d="M1768.1,862.5c-0.5,4.6-3.8,8.8-8.1,10.4c-3.6,1.4-2,7.2,1.6,5.8c7.1-2.7,11.7-8.7,12.5-16.2
			C1774.5,858.7,1768.5,858.7,1768.1,862.5L1768.1,862.5z"/>
	</g>
</g>
<g>
	<g>
		<path d="M1693,882.8c-3.8,5-9.7,7.3-15.8,6.8c-3.9-0.3-3.8,5.7,0,6c8.4,0.6,16-3.2,21-9.8C1700.5,882.8,1695.3,879.8,1693,882.8
			L1693,882.8z"/>
	</g>
</g>
<g>
	<g>
		<path d="M1259.2,800c1.8,7.1,6.8,12.5,13.5,15.2c3.6,1.5,5.1-4.3,1.6-5.8c-4.7-1.9-8.1-6.1-9.4-11
			C1264,794.7,1258.3,796.3,1259.2,800L1259.2,800z"/>
	</g>
</g>
<g>
	<g>
		<path d="M1192.3,775.4c-6.6-1.2-13.1,0.1-18.6,4c-3.1,2.2-0.1,7.5,3,5.2c4.1-3,8.9-4.3,13.9-3.4
			C1194.5,781.8,1196.1,776.1,1192.3,775.4L1192.3,775.4z"/>
	</g>
</g>
<g>
	<g>
		<path d="M1240.6,874.6c7,4,14.7,5.8,22.7,5.1c3.8-0.3,3.9-6.3,0-6c-7,0.6-13.6-0.8-19.7-4.3
			C1240.2,867.5,1237.2,872.7,1240.6,874.6L1240.6,874.6z"/>
	</g>
</g>
<g>
	<g>
		<path d="M1297.3,880.3c11.2,5.1,23,7.2,35.3,6.2c3.8-0.3,3.9-6.3,0-6c-11.1,0.9-22-0.8-32.2-5.4
			C1296.8,873.5,1293.8,878.7,1297.3,880.3L1297.3,880.3z"/>
	</g>
</g>
<g>
	<g>
		<path d="M1399,863.7c4.4,4,9.7,6.7,15.5,7.9c3.8,0.7,5.4-5.1,1.6-5.8c-4.9-0.9-9.2-3-12.9-6.3
			C1400.4,856.8,1396.1,861.1,1399,863.7L1399,863.7z"/>
	</g>
</g>
<g>
	<g>
		<path d="M1502.4,872.9c-2.5,3.3-5.7,5.9-9.2,8c-3.3,1.9-0.3,7.1,3,5.2c4.5-2.6,8.2-6,11.4-10.2c1-1.3,0.2-3.3-1.1-4.1
			C1504.9,870.9,1503.3,871.6,1502.4,872.9L1502.4,872.9z"/>
	</g>
</g>
<g>
	<g>
		<path d="M1635.9,894.5c-6,4.1-12.5,7.1-19.5,9c-3.7,1-2.1,6.8,1.6,5.8c7.5-2,14.5-5.3,21-9.6
			C1642.1,897.5,1639.1,892.3,1635.9,894.5L1635.9,894.5z"/>
	</g>
</g>
<g>
	
		<ellipse transform="matrix(0.9474 -0.3202 0.3202 0.9474 -58.2946 476.4374)" class="st1" cx="1419.8" cy="415.5" rx="32.4" ry="46.5"/>
	<g>
		<path d="M1435.5,462.5c17.2-6.3,22.7-26.1,21.1-42.9c-1.8-18.6-11.6-38.5-28.4-47.9c-14.1-7.9-30.8-4.7-39.4,9.5
			c-10.2,16.8-6.9,39.7,2,56.3C1399.2,453,1416.6,468.4,1435.5,462.5c3.7-1.1,2.1-6.9-1.6-5.8c-13.8,4.3-26.9-5.7-34.4-16.6
			c-9.3-13.6-13.8-32.2-8.9-48.3c4.2-13.5,16.4-22.2,30.4-16.9c14.7,5.6,24.2,21.3,27.9,35.9c3.9,15.5,2.6,39.4-15.1,45.9
			C1430.3,458,1431.8,463.8,1435.5,462.5z"/>
	</g>
</g>
<g>
	
		<ellipse transform="matrix(0.6476 -0.762 0.762 0.6476 29.831 1299.4984)" class="st1" cx="1419.8" cy="617.5" rx="33.3" ry="47.9"/>
	<g>
		<path d="M1458.4,650.6c11.1-13.7,6.9-32.6-2.2-46.2c-10.9-16.4-30.1-29.6-50.3-29.9c-16.6-0.3-30.5,10.4-31.5,27.5
			c-1,19.5,12.9,37.6,28.2,48C1418.4,660.7,1443.9,666.8,1458.4,650.6c2.6-2.9-1.7-7.1-4.2-4.2c-10.8,12.1-29.4,8.9-42.3,2.1
			c-14.6-7.7-27.5-21.7-30.8-38.3c-2.8-14.1,4.4-27.3,19.3-29.5c17.1-2.5,34.6,7.8,45.6,20.1c10.2,11.5,19.3,31.7,8.1,45.5
			C1451.7,649.4,1455.9,653.6,1458.4,650.6z"/>
	</g>
</g>
<g>
	<path d="M1410.8,434l-5.9-33.1l6.6-4.1l27,20l-7.9,4.9l-15.9-12.4l4.1,19.8L1410.8,434z"/>
</g>
<g>
	<path d="M1411.8,593l5.4,6.3l-0.9,0.8c-0.8,0.7-1.3,1.4-1.4,2.1c-0.1,0.7,0,1.5,0.5,2.3c0.2,0.5,1.1,1.6,2.5,3.3
		c1.5,1.7,2.4,3.2,2.9,4.5c0.4,1,0.5,1.9,0.4,2.8c-0.1,0.7-0.4,1.5-0.9,2.6c1.2-0.4,2.2-0.5,3-0.5c0.8,0.1,1.7,0.4,2.8,1
		c1.1,0.6,2.4,1.9,4,3.8c1.5,1.7,2.5,2.8,3.2,3.1c0.6,0.4,1.3,0.5,1.9,0.3c0.6-0.2,1.6-0.8,2.9-1.9l5.3,6.2l-2.5,2.2
		c-2.6,2.2-4.7,3.5-6.2,3.9c-1.6,0.4-3,0.3-4.4-0.4c-1.4-0.6-2.9-2-4.7-4.1c-0.4-0.5-0.8-0.9-1.1-1.4c-0.2-0.3-0.5-0.6-0.7-0.9
		c-1.3-1.5-2.3-2.4-3.1-2.8c-0.8-0.4-1.6-0.5-2.4-0.3c-0.8,0.2-1.7,0.7-2.7,1.5l-5.6-6.6c1-0.9,1.7-1.7,1.9-2.4
		c0.3-0.7,0.2-1.5,0-2.4c-0.3-0.9-1.1-2-2.3-3.5l-0.6-0.7c-0.3-0.3-0.5-0.6-0.8-0.9c-1.9-2.3-3.1-4.1-3.6-5.4
		c-0.5-1.3-0.6-2.6-0.4-3.7c0.2-0.9,0.6-1.8,1.3-2.7c1-1.3,2.2-2.6,3.7-3.9L1411.8,593z"/>
</g>
<g>
	<path class="st2" d="M1718.2,0.5l-432.7,137.3c0,0-127.5,59.8-165.7,86.7c-5.5,3.9-19.4,11.5-19.8,18.3
		c-0.6,10.3,16.9,21.6,37.5,17.6s102.8-53.8,102.8-53.8s-110.3,70-139.9,101.4c-2.8,2.9-8.9,9.6-8.7,13.6c0.5,9.4,16,19.8,34.3,15.9
		c18.3-3.9,127.5-73.5,127.5-73.5s-87.2,72.8-116.3,97c-5.5,4.6-20.6,11.3-22,18.3c-2.8,14,17.2,32.8,55.3,15.1
		S1304,289.5,1304,289.5s-20.5,53.6-22.4,69.3c-1.9,15.7,8.1,28.5,15.8,32.4c7.7,3.9,74.9,37.5,94.6,36.3s-1.1-34.4-5.6-38.8
		c-4.6-4.4-51.2-33-51.2-33s6.3-44,22.3-52.3c5.3-2.8,20.5-7.6,28.3-9.8"/>
	<g>
		<path d="M1717-3.8c-9.8,3.1-19.6,6.2-29.4,9.3c-24.8,7.9-49.6,15.7-74.3,23.6c-32.8,10.4-65.5,20.8-98.3,31.2
			c-33.7,10.7-67.4,21.4-101.2,32.1c-27.6,8.8-55.2,17.5-82.7,26.3c-14.7,4.7-29.5,9.3-44.2,14c-2.7,0.9-5.2,2-7.8,3.2
			c-12,5.7-23.9,11.4-35.8,17.2c-36.3,17.7-72.7,35.5-107.5,56c-6.3,3.7-12.4,7.6-18.5,11.7c-7.4,5-21.2,11.5-21.7,21.9
			c-0.4,10.5,10.3,17.7,19.1,20.6c9.5,3.3,20.3,3,29.7-0.3c16.1-5.7,31.3-14.4,46.3-22.6c15-8.2,29.8-16.8,44.5-25.6
			c2.5-1.5,4.9-2.9,7.4-4.4c-1.5-2.6-3-5.2-4.5-7.8c-16.6,10.6-33.1,21.5-49.4,32.5c-26.9,18.2-54,36.6-78.7,57.7
			c-4.4,3.8-8.8,7.7-12.8,11.9c-5.5,5.8-12.2,13-9,21.5c5.9,15.4,28.6,19.6,42.5,14.4c10-3.7,19.4-9.2,28.6-14.4
			c13-7.3,25.9-14.9,38.6-22.6c19.4-11.7,38.7-23.6,57.8-35.8c-1.8-2.4-3.6-4.7-5.5-7.1c-17.4,14.5-34.8,29-52.2,43.5
			c-13.7,11.4-27.3,22.8-41,34.2c-5.6,4.7-11.2,9.3-16.8,14c-5.6,4.6-11.4,8.4-17.4,12.4c-6.4,4.3-12.8,9.3-12.5,17.7
			c0.2,6.3,3.6,12,8.4,16c15.5,12.8,38.5,7,54.8-0.8c12.4-6,23.7-14.3,34.7-22.5c14.2-10.5,27.9-21.5,41.5-32.8
			c19.5-16.2,38.7-32.8,57.4-49.9c-2.5-1.5-5-2.9-7.5-4.4c-7.7,20.2-15.6,40.7-20.9,61.7c-3.7,14.8-1.2,30.5,10.7,41
			c6.4,5.7,15.5,8.9,23.2,12.6c12.8,6.1,25.6,11.9,38.8,17.1c11.2,4.5,23,9.3,35.1,10.9c4.9,0.6,10.4,0.6,14.3-2.9
			c4-3.6,4.4-9,3.6-14c-1.7-9.9-7.5-21.8-14.6-29c-2.8-2.8-6.6-5-9.8-7.1c-5.7-3.8-11.5-7.5-17.3-11.1c-8.4-5.3-16.8-10.5-25.2-15.7
			c0.7,1.7,1.4,3.4,2.1,5.1c1.6-11.2,4.4-22.7,8.7-33.2c2.4-6,5.7-13.1,11.5-16.4c8.2-4.5,18.3-6.8,27.2-9.3
			c5.6-1.6,3.2-10.3-2.4-8.7c-9.7,2.8-20.5,5.4-29.4,10.2c-6.7,3.7-10.9,11-14,17.7c-5.2,11.7-8.5,24.6-10.4,37.2
			c-0.3,2.1,0.2,3.9,2.1,5.1c15.4,9.4,30.8,18.8,45.7,29c5.8,4,9.5,9.5,13,16.6c2,4.1,4.8,9.6,4.2,14.4c-0.5,3.9-4.1,3.7-7.3,3.4
			c-10.3-1-20.8-5.4-30.4-9.1c-12.2-4.7-24.1-10.1-36-15.6c-7.4-3.4-14.8-6.9-22-10.7c-12.4-6.6-16-21.2-13-33.9
			c5.1-21.4,13.3-42.4,21.2-62.9c1.7-4.5-4.5-7.2-7.5-4.4c-14.3,13.1-29,25.9-43.8,38.5c-24.1,20.5-48.6,41.3-75.4,58.2
			c-13.6,8.5-30.7,17.1-47.2,13.4c-5.7-1.3-11.8-4.4-14.2-10.1c-2.9-6.8,2.4-10.4,7.7-13.8c6.1-4,11.9-7.8,17.4-12.4
			c5.2-4.3,10.4-8.7,15.6-13c12.7-10.5,25.3-21.1,38-31.6c19.2-16,38.4-32.1,57.7-48.1c3.9-3.3-1.2-9.8-5.5-7.1
			c-14.5,9.3-29.2,18.4-43.9,27.4c-22.9,14-45.9,28.4-70,40.4c-10.5,5.3-21.7,8.9-33.4,2.4c-2.8-1.5-6.3-4.1-7.3-7.3
			c-1.2-3.8,3.3-7.8,5.6-10.4c3.8-4.1,7.9-7.9,12.1-11.6c23.2-20.2,48.8-37.6,74.2-54.9c17.8-12.2,35.9-24.1,54.1-35.7
			c4.9-3.1,0.4-10.8-4.5-7.8c-24.7,15-49.8,29.6-75.6,42.5c-15.2,7.6-32.3,16.7-49.2,7.8c-3.2-1.7-8.6-5.2-8.6-9.4
			c0.1-4.4,7.5-8.5,10.6-10.6c6.3-4.3,12.7-8.6,19.2-12.6c33.4-20.4,68.9-37.7,104-54.9c13.4-6.6,26.8-13.1,40.2-19.5
			c2.9-1.4,5.8-2.7,8.7-4.1c1.1-0.5-1.7,0.5,0.5-0.1c12.7-3.4,25.1-8,37.6-11.9c25.8-8.2,51.6-16.4,77.3-24.5
			c32.5-10.3,65-20.6,97.5-30.9c32.7-10.4,65.4-20.7,98-31.1c26.2-8.3,52.5-16.6,78.7-25c13.5-4.3,27.1-8.5,40.6-12.9
			c0.6-0.2,1.2-0.4,1.8-0.6C1724.9,3.1,1722.5-5.6,1717-3.8L1717-3.8z"/>
	</g>
</g>
<g>
	<g>
		<path d="M1389.2,805.3c6.6,4.9,14.7,6.5,22.7,5.1c3.8-0.7,2.2-6.5-1.6-5.8c-6.5,1.2-12.8-0.5-18.1-4.4
			C1389.1,797.9,1386.1,803.1,1389.2,805.3L1389.2,805.3z"/>
	</g>
</g>
<g>
	<g>
		<path d="M1363,834.4c5.6,7.3,13,12.5,22,14.9c3.7,1,5.3-4.8,1.6-5.8c-7.3-2-13.8-6.1-18.4-12.2
			C1365.9,828.4,1360.6,831.3,1363,834.4L1363,834.4z"/>
	</g>
</g>
<g>
	<g>
		<path d="M1372.3,890.3c7.6,6.6,16.3,11.2,26.1,13.7c3.7,1,5.3-4.8,1.6-5.8c-8.7-2.2-16.6-6.3-23.4-12.2
			C1373.6,883.6,1369.4,887.8,1372.3,890.3L1372.3,890.3z"/>
	</g>
</g>
<g>
	<g>
		<path d="M1449.1,905.3c8.7,1.7,17.4,2.3,26.2,1.5c3.8-0.3,3.9-6.3,0-6c-8.3,0.7-16.4,0.3-24.6-1.3
			C1447,898.7,1445.4,904.5,1449.1,905.3L1449.1,905.3z"/>
	</g>
</g>
<g>
	<g>
		<path d="M1552.1,899c-4.2,6.8-11.4,10.6-19.4,10.3c-3.9-0.1-3.9,5.9,0,6c10.1,0.3,19.3-4.7,24.5-13.3
			C1559.3,898.8,1554.2,895.7,1552.1,899L1552.1,899z"/>
	</g>
</g>
<polygon points="1382.3,290 1385.3,289 1392.5,287.5 1396.3,289 1395.3,291 1388.3,292 "/>
<g>
	<g>
		<path d="M1088.9,865.4c-2.3,9.1,5.1,18.7,14.6,18.5c3.9-0.1,3.9-6.1,0-6c-5.5,0.1-10.2-5.4-8.8-10.9
			C1095.7,863.2,1089.9,861.6,1088.9,865.4L1088.9,865.4z"/>
	</g>
</g>
<g>
	<g>
		<path d="M1151.9,885.4c2.5,9.2,12.4,14.8,21.6,12.2c3.7-1.1,2.1-6.9-1.6-5.8c-6.1,1.8-12.6-1.9-14.2-8
			C1156.7,880.1,1150.9,881.6,1151.9,885.4L1151.9,885.4z"/>
	</g>
</g>
<g>
	<g>
		<path d="M1221,902.5c10.5,8.5,23.8,11.6,36.9,8.3c3.7-0.9,2.2-6.7-1.6-5.8c-10.9,2.7-22.4,0.3-31.1-6.8
			C1222.3,895.8,1218,900,1221,902.5L1221,902.5z"/>
	</g>
</g>
<g>
	<g>
		<path d="M1304.9,915.9c11.6,5.5,24.1,8,36.9,7.4c3.8-0.2,3.9-6.2,0-6c-11.7,0.6-23.2-1.6-33.9-6.6
			C1304.4,909,1301.4,914.2,1304.9,915.9L1304.9,915.9z"/>
	</g>
</g>
</svg>
