<svg id="Layer_1" data-name="Layer 1" xmlns="http://www.w3.org/2000/svg" viewBox="0 0 1920 1080"><defs><style>.cls-1{fill:#fff;}.cls-2{fill:#f5d56c;}.cls-3{fill:#f7f382;}.cls-4{fill:#1a1a1a;}</style></defs><title>part4</title><path class="cls-1" d="M571.39,1019.18c-2.93,1.47-5,2.52-7.07,3.52a3.82,3.82,0,0,1-1.22,0q-1-9.12-2-18.2l1-.59Z"/><path class="cls-1" d="M575.9,967.15q4.35,16.8,8.69,33.61l-1.5.37A73.84,73.84,0,0,1,575.9,967.15Z"/><path class="cls-1" d="M482.34,941.75c1.91,17.38,3.78,34.51,5.72,52.17C472.26,984.37,469.49,955.8,482.34,941.75Z"/><path class="cls-2" d="M1427.79,198.38c-5.87-2.15-10.68-4-15.59-5.63-1.1-.35-2.54.27-3.83.44.82,1.06,1.4,2.61,2.5,3.1,3.78,1.67,7.74,3,11.56,5.12-3.88,0-7.77-.15-11.63.09-1.41.08-2.75,1.11-4.12,1.7,1.33.7,2.62,1.88,4,2,3.22.3,6.49.1,9.73.1l.17,1.14c-5.22,2.19-10.51,4.26-15.63,6.67-1.33.62-2.11,2.31-3.14,3.51,1.57,0,3.33.45,4.67-.07,8.26-3.24,16.42-6.7,24.61-10.08l.78.82c-2.43,2.7-4.87,5.39-7.29,8.1a62.17,62.17,0,0,0-4.4,5.11c-.51.71-.27,1.9-.37,2.87,1.13-.13,2.7.14,3.32-.47,3.17-3.15,6.1-6.51,9.8-9.45-1.06,4.22-2.24,8.42-3.09,12.68-.21,1.09.62,2.37,1,3.56,1-.92,2.52-1.7,2.88-2.81,1.38-4.3,2.38-8.71,3.52-13.08l1.41-.13c2.36,9.69,4.65,19.38,7.16,29a4.9,4.9,0,0,0,2.73,3.17,4.69,4.69,0,0,0,4-1.39c.69-1,.53-2.9,0-4.12-1.37-3.19-3.53-6.11-4.69-9.36a142,142,0,0,1-5.57-20c4.45,3.85,8.81,7.82,13.42,11.5,1.13.9,3.08.89,4.65,1.3-.62-1.35-.92-3-1.93-4-3.41-3.28-7.08-6.33-10.17-10.25l13.47,4.11a11.75,11.75,0,0,0,3.31.93,12.4,12.4,0,0,0,3.35-1c-.69-.88-1.2-2.23-2.12-2.56-4.47-1.59-9-2.9-13.59-4.32a3.83,3.83,0,0,1-2.3-1.63c4-.36,8.1-.57,12.1-1.17,1.24-.18,2.31-1.41,3.46-2.15-1.27-.56-2.56-1.64-3.81-1.58-5,.21-10.07.78-15.56.53,2.18-1.52,4.34-3.06,6.54-4.55,3.3-2.25,6.71-4.35,9.88-6.75.87-.65,1-2.15,1.52-3.26-1.26,0-2.83-.37-3.73.19-5.31,3.3-10.46,6.83-16.35,9.87q3.51-8.07,7-16.14c.45-1,1.25-2,1.31-3a11.73,11.73,0,0,0-.84-3.46c-1,.64-2.35,1.09-2.77,2-2.48,5.13-4.72,10.36-7,15.55-.21.46-.49.88-1.65,1.17q.43-6,.85-12a12.54,12.54,0,0,0,.15-3.7c-.24-1-1.19-1.85-1.83-2.76-.73.86-2,1.66-2.11,2.58-.52,4.66-.72,9.34-1.07,14a7.29,7.29,0,0,1-1.27,4c-2.2-4.56-4.27-9.19-6.67-13.65-.63-1.16-2.32-1.81-3.52-2.69,0,1.46-.46,3.06,0,4.34,1.36,3.55,3.11,7,4.7,10.42l-1.49,1.14c-3.75-3.95-7.4-8-11.33-11.79-1-.95-2.84-1.07-4.29-1.57.52,1.48.64,3.32,1.65,4.39C1418.36,189.31,1422.79,193.47,1427.79,198.38Z"/><path class="cls-2" d="M1779.37,168.62c-3.18-3.9-6.26-7.87-9.61-11.64-.79-.88-2.48-1-3.76-1.54.28,1.2.2,2.65.9,3.55,4,5.2,8.29,10.27,12.45,15.4a7.32,7.32,0,0,1,1.82,3.82c-4.48-2.08-8.92-4.27-13.48-6.17-1.14-.47-2.72,0-4.1.08.79,1,1.36,2.31,2.4,2.88,3.19,1.73,6.56,3.18,9.63,5.73a92.79,92.79,0,0,0-9.29.08c-2,.2-3.89,1.19-5.83,1.82a37.43,37.43,0,0,0,6.07,1.45c3.12.25,6.28.07,9.42.07l.54,1.19c-8,4-16,8-24,12.18a6.45,6.45,0,0,0-3,3.34c-.22.73,1.44,2.81,2.28,2.82,1.39,0,2.88-1,4.16-1.84.77-.49,1.07-1.68,1.85-2.13A247.57,247.57,0,0,1,1780,187.92c-2.44,4.41-5,8.76-7.23,13.26-.6,1.2-.26,2.84-.35,4.27,1.18-.92,2.72-1.63,3.48-2.8,2.18-3.35,4-6.89,6.91-10.17-.26,4.55-.66,9.11-.71,13.67,0,1.21,1,2.44,1.57,3.66.66-1.18,1.77-2.32,1.91-3.56.5-4.23.66-8.5,1.88-13.08,1.13,3.08,2.12,6.21,3.47,9.2.53,1.17,1.88,2,2.85,3,.18-1.44.84-3,.46-4.29-1.18-3.95-2.75-7.78-3.62-12.2l10.28,8.26a17.77,17.77,0,0,0,3,2.35,23.65,23.65,0,0,0,4,1.17c-.52-1.23-.69-2.8-1.61-3.62-3.89-3.45-8-6.69-11.82-10.81l16.34,2.2a8.66,8.66,0,0,0,2.56.37,17.15,17.15,0,0,0,3.2-1.23c-.85-.74-1.59-2-2.55-2.13-4.69-.85-9.44-1.42-14.16-2.12a4,4,0,0,1-2.67-1.38c4.47-.79,9-1.46,13.38-2.43,1.17-.25,2.13-1.39,3.19-2.12-1.31-.44-2.7-1.39-3.92-1.23-5.24.71-10.43,1.75-16,1.91,3.54-2.72,7.17-5.34,10.57-8.22,1.1-.93,1.57-2.53,2.33-3.83-1.48.35-3.21.36-4.4,1.12-2.92,1.86-5.6,4.08-9,5.62,2.6-4.23,5.3-8.4,7.72-12.71.59-1.06.23-2.6.31-3.91-1.17.76-2.73,1.28-3.43,2.32-2.93,4.36-5.61,8.87-9.31,13.06.53-4.14,1.22-8.27,1.51-12.42.09-1.18-1-2.44-1.48-3.66-.72,1-1.86,2-2.08,3.15-.66,3.44-1,6.94-2.26,10.5-.8-3.28-1.45-6.61-2.5-9.81-.39-1.17-1.74-2.06-2.65-3.07-.29,1.21-1,2.48-.8,3.64.4,2.83,1.19,5.61,1.82,8.41Z"/><path class="cls-2" d="M1889.49,306.27c4.66-3.22,9.37-6.37,13.93-9.72.87-.65,1.11-2.06,1.65-3.12-1.13.26-2.47.23-3.37.82-4.27,2.78-8.42,5.73-13.12,8.2l9.11-12.07-1.55-1.06c-5.41,3-7.26,9.33-12.6,13.6,1.7-6.29,3.28-11.83,4.63-17.42.27-1.1-.33-2.38-.53-3.57-.81,1-2,1.82-2.37,2.92-1.77,5.06-3.32,10.2-5.61,15.29q-1.29-6.64-2.56-13.29l-2.21.29q.67,7,1.37,14l-.71.23c-2.67-4.49-5.25-9.05-8.1-13.44-.66-1-2.24-1.5-3.4-2.23,0,1.31-.48,2.86.08,3.89,3.43,6.22,7.3,12.23,10.54,18.52a8.22,8.22,0,0,1,.2,6.45c-3.27,7.2-7,14.2-10.68,21.24-.61,1.18-1.84,2.07-2.45,3.26a7.06,7.06,0,0,0-1.09,4c.12.68,2.35,1.77,3,1.47a7.05,7.05,0,0,0,3.41-3.14c4.24-9.09,8.27-18.27,12.67-28.06,6.76,5.12,12.46,9.51,18.27,13.76,1,.73,2.45.89,3.68,1.32-.59-1.18-.9-2.66-1.84-3.47-3.08-2.63-6.4-5-9.22-8.22,4.57,1.57,9.1,3.25,13.74,4.62,1.66.5,3.58.22,5.38.3a28.37,28.37,0,0,0-4.55-2.93c-3.81-1.54-7.75-2.8-11.49-4.81l16,.93.13-1.84c-5.74-2.57-12.37-1-18.38-3.23,5.78-1.49,11.58-2.91,17.31-4.55,1.12-.32,2-1.47,3-2.23-1.27-.16-2.63-.67-3.8-.4-6,1.39-12,3-18,4.52Z"/><path class="cls-2" d="M1686.63,318.74c4.51,3.54,9,7.08,13.57,10.57a9.78,9.78,0,0,0,1.43-1.07l-11.83-10.67.3-.57,13.25,6.06.93-1.77-15-7.68.29-.6,19.51,2.27.27-1.85c-6.26-2.32-13.24-1.59-20.74-3.55l18.87-4.62-.49-2.07-16.56,3.25c3.49-3.66,8.86-4.13,11.12-8.07l-.91-1.31-13.8,7.73-.6-.51,11.61-14.87-1.89-1.35q-5.23,6.26-10.48,12.52l-.57-.29,2.81-8.84-1.92-.67-5.69,13.37c-.84-6.42-1.42-11.57-2.25-16.67-.18-1.16-1.21-2.18-1.86-3.27-.49,1.21-1.48,2.46-1.38,3.63.52,6.17,1.51,12.31,1.89,18.49a7.41,7.41,0,0,1-2.12,5.29c-5.4,5-11.11,9.66-16.76,14.39-.84.71-2,1.05-2.86,1.75a7.71,7.71,0,0,0-2.51,2.83c-.18.48,1.3,2.16,2,2.14a6.68,6.68,0,0,0,4-1.43c6.76-6.09,13.38-12.33,20.26-18.71,5.87,6.33,7.49,14.18,12.89,19.57l1.71-.92-7-12.16Z"/><path class="cls-2" d="M1562.86,169.6q.78,6.42,1.55,12.82l1.62-.14V170.54l6.91,10.79,1.76-.88c-1.76-3.32-3.52-6.64-5.75-10.83l8.67,5.38c.36-.45.71-.91,1.06-1.37l-9.52-7.62,15,1.39c.1-.59.21-1.17.31-1.76-2.12-.38-4.24-.8-6.38-1.14s-4.48-.64-8.08-1.15l14.77-6.8c-.29-.61-.59-1.23-.88-1.85l-12.48,5.07-.71-.74,8.85-7.1c-.51-.54-1-1.08-1.52-1.63-1.65,1.18-3.35,2.29-4.92,3.56-1.85,1.5-3.58,3.13-6.19,5.43,1.51-4.81,2.7-8.59,3.89-12.36l-1.83-.6q-1.8,4.23-3.58,8.46l-.77-.08-.66-12-1.76.08v13l-.92.17-5.14-9.41-1.71.67,3.71,9.24-7.62-6.23-1.31,1.13,6.21,6.88L1542.07,154l-.71,1.95,17.79,6.36,0,.76-12.25,1.7.09,1.39h10.54l-8.86,6.17.81,1.43c1.54-.74,3.12-1.4,4.6-2.22a14.46,14.46,0,0,1,5.44-2.24c-2.85,5.13-5.74,10.26-8.53,15.43a6.62,6.62,0,0,0-.88,3.2c0,.33,2.06,1.11,2.43.82a7.58,7.58,0,0,0,1.73-2.83q3.82-8.19,7.59-16.42Z"/><path class="cls-2" d="M1563.25,424.56q-.76,6.4-1.55,12.81l-1.62-.14V425.5l-6.9,10.78-1.77-.88,5.75-10.83-8.67,5.39-1.06-1.37L1557,421l-15,1.38c-.1-.58-.21-1.17-.31-1.76,2.12-.38,4.25-.79,6.38-1.14s4.48-.64,8.08-1.15l-14.77-6.79c.29-.62.59-1.24.88-1.85l12.48,5.07.71-.74-8.84-7.1c.5-.55,1-1.09,1.51-1.63,1.65,1.18,3.35,2.29,4.92,3.55,1.85,1.5,3.58,3.13,6.2,5.43l-3.9-12.35,1.83-.6,3.59,8.46.76-.09.66-12,1.76.07v13l.92.18,5.14-9.42,1.71.67c-1.13,2.81-2.25,5.63-3.7,9.24l7.61-6.23,1.32,1.13-6.22,6.89,13.34-4.25.71,1.94L1567,417.22l0,.77,12.25,1.69-.09,1.39H1568.6l8.86,6.17-.81,1.43c-1.54-.73-3.11-1.39-4.59-2.22a14.75,14.75,0,0,0-5.45-2.24c2.85,5.14,5.74,10.26,8.53,15.43a6.55,6.55,0,0,1,.88,3.21,3.28,3.28,0,0,1-2.42.82,7.72,7.72,0,0,1-1.74-2.84c-2.55-5.46-5.06-10.94-7.59-16.41Z"/><path class="cls-2" d="M1877.43,125.25l-11.08,6.46,1,1.66,11.27-5.57-7.7,10.82,1.8,1.21,7.89-10c-.72,4.14-1.23,7.11-1.74,10.07l1.88.35,3.26-11.41c1.91,5.21,3.48,9.46,5,13.71l2-.56c-1.23-4.13-2.45-8.27-4-13.37l12.51,9.69,1.29-1.35-10.67-9.67,12.06,4c.25-.59.49-1.18.74-1.78l-13.21-5.47,13.11-1.92-.26-1.88-11,.76,12.37-6.67-.78-1.62-13.54,6,7.4-9.45-1.31-1.18-7.39,7.32c1.08-3.56,2-6.52,2.86-9.48l-1.56-.5-3.93,7.84-1.81-12.78-1.65.11c-.92,6,1.35,12,.87,18.83l-7.45-10.34L1874,110l5.14,9-9.94-5.29-1,1.7,8.82,5.62-.22.93c-6.1-.32-12.2-.68-18.3-.94a6.93,6.93,0,0,0-3.41.57c-.39.21-.34,2.27,0,2.45a8.71,8.71,0,0,0,3.42.42c6.25,0,12.5,0,18.74,0Z"/><path d="M1481.23,257.88c-5.87-2.15-10.68-4-15.59-5.62-1.09-.36-2.54.26-3.83.44.82,1.06,1.4,2.6,2.5,3.09,3.78,1.67,7.74,3,11.56,5.13-3.88,0-7.76-.16-11.63.08-1.4.09-2.75,1.11-4.12,1.7,1.34.71,2.62,1.88,4,2,3.21.3,6.48.1,9.73.1L1474,266c-5.23,2.2-10.52,4.26-15.63,6.67-1.33.63-2.11,2.31-3.15,3.51,1.57,0,3.33.45,4.67-.07,8.26-3.24,16.42-6.69,24.62-10.08l.78.82q-3.66,4.05-7.3,8.11a60.43,60.43,0,0,0-4.4,5.1c-.5.72-.27,1.91-.37,2.88,1.13-.14,2.71.13,3.32-.48,3.17-3.14,6.1-6.51,9.8-9.45-1.06,4.22-2.24,8.42-3.08,12.68-.22,1.09.61,2.37,1,3.57,1-.93,2.53-1.7,2.88-2.82,1.38-4.3,2.38-8.71,3.53-13.08l1.4-.12c2.36,9.68,4.65,19.38,7.16,29a4.92,4.92,0,0,0,2.73,3.17,4.69,4.69,0,0,0,4-1.39c.68-.95.52-2.89,0-4.12-1.38-3.19-3.54-6.11-4.7-9.35a142.52,142.52,0,0,1-5.56-20.06c4.45,3.86,8.81,7.82,13.41,11.5,1.14.91,3.08.89,4.65,1.3-.62-1.35-.91-3-1.93-4-3.41-3.29-7.08-6.33-10.17-10.26l13.47,4.12a12.23,12.23,0,0,0,3.32.92,12.5,12.5,0,0,0,3.35-1c-.7-.88-1.21-2.23-2.13-2.56-4.47-1.59-9.05-2.9-13.58-4.32a3.85,3.85,0,0,1-2.31-1.63c4-.36,8.1-.57,12.1-1.17,1.24-.18,2.31-1.4,3.46-2.15-1.27-.56-2.56-1.63-3.8-1.58-5,.22-10.08.78-15.57.54,2.18-1.52,4.34-3.07,6.54-4.56,3.3-2.24,6.71-4.35,9.88-6.74.87-.66,1-2.16,1.53-3.27-1.27,0-2.84-.37-3.74.2-5.31,3.3-10.46,6.82-16.35,9.86q3.53-8.07,7-16.14c.45-1,1.26-2,1.32-3a12.37,12.37,0,0,0-.84-3.47c-1,.65-2.36,1.09-2.78,2-2.48,5.13-4.72,10.36-7,15.55-.21.46-.48.89-1.64,1.17l.84-12a12.47,12.47,0,0,0,.15-3.69c-.24-1-1.19-1.85-1.83-2.77-.73.86-2,1.66-2.1,2.58-.52,4.66-.73,9.34-1.07,14a7.3,7.3,0,0,1-1.28,4c-2.19-4.56-4.26-9.19-6.67-13.65-.63-1.16-2.32-1.8-3.51-2.68,0,1.45-.46,3.06,0,4.34,1.35,3.54,3.1,6.95,4.69,10.41l-1.49,1.15c-3.75-4-7.4-8-11.33-11.8-1-.94-2.84-1.07-4.29-1.57.52,1.49.64,3.32,1.65,4.39C1471.81,248.81,1476.23,253,1481.23,257.88Z"/><path d="M1811.17,204.27c-3.18-3.9-6.26-7.87-9.61-11.64-.79-.88-2.49-1-3.76-1.54.28,1.2.2,2.65.9,3.55,4,5.2,8.29,10.27,12.45,15.4a7.32,7.32,0,0,1,1.82,3.83c-4.49-2.09-8.92-4.28-13.49-6.18-1.13-.47-2.71,0-4.09.08.79,1,1.36,2.31,2.4,2.88,3.19,1.73,6.56,3.18,9.63,5.73a92.79,92.79,0,0,0-9.29.08c-2,.2-3.89,1.19-5.83,1.82a37.43,37.43,0,0,0,6.07,1.45c3.12.25,6.28.07,9.42.07l.54,1.19c-8,4-16,8-24,12.18a6.45,6.45,0,0,0-3,3.34c-.22.73,1.44,2.81,2.28,2.82,1.38,0,2.88-1,4.16-1.84.77-.49,1.07-1.68,1.85-2.13a247.57,247.57,0,0,1,22.19-11.79c-2.44,4.41-5,8.76-7.23,13.26-.6,1.2-.26,2.84-.35,4.27,1.18-.92,2.72-1.63,3.48-2.8,2.18-3.35,4-6.89,6.91-10.17-.26,4.55-.66,9.11-.71,13.67,0,1.21,1,2.44,1.56,3.66.67-1.18,1.78-2.32,1.92-3.56.5-4.23.66-8.5,1.87-13.08,1.14,3.08,2.13,6.21,3.48,9.2.53,1.17,1.88,2,2.85,3,.18-1.44.84-3,.46-4.29-1.18-3.94-2.75-7.78-3.62-12.2l10.28,8.26a17.77,17.77,0,0,0,3,2.35,23.8,23.8,0,0,0,4,1.17c-.51-1.23-.68-2.8-1.6-3.62-3.89-3.45-8-6.69-11.82-10.81l16.34,2.2a8.66,8.66,0,0,0,2.56.37,16.79,16.79,0,0,0,3.19-1.23c-.84-.74-1.58-2-2.54-2.12-4.69-.86-9.44-1.43-14.16-2.13a4,4,0,0,1-2.67-1.38c4.47-.79,9-1.46,13.38-2.43,1.17-.25,2.13-1.39,3.19-2.12-1.31-.44-2.7-1.39-3.92-1.23-5.24.71-10.43,1.75-16,1.91,3.54-2.72,7.17-5.34,10.57-8.22,1.1-.93,1.57-2.53,2.33-3.83-1.48.35-3.21.36-4.4,1.12-2.92,1.87-5.6,4.08-9,5.62,2.6-4.23,5.3-8.4,7.72-12.71.59-1.06.23-2.6.31-3.91-1.17.76-2.73,1.28-3.43,2.32-2.93,4.36-5.61,8.87-9.31,13.06.53-4.14,1.22-8.27,1.51-12.42.09-1.18-1-2.44-1.48-3.66-.72,1-1.87,2-2.08,3.15-.66,3.44-1,6.94-2.26,10.5-.8-3.28-1.45-6.6-2.5-9.81-.39-1.17-1.74-2.06-2.65-3.07-.29,1.22-1,2.48-.8,3.64.4,2.83,1.19,5.61,1.82,8.41Z"/><path d="M1908.79,262c4.66-3.22,9.38-6.38,13.93-9.73.88-.64,1.12-2.06,1.66-3.12-1.14.26-2.47.24-3.37.83-4.27,2.78-8.43,5.72-13.12,8.2l9.11-12.07-1.55-1.07c-5.41,3-7.27,9.33-12.6,13.61,1.7-6.29,3.27-11.84,4.63-17.43.26-1.09-.33-2.37-.53-3.56-.81,1-2,1.81-2.37,2.91-1.77,5.07-3.33,10.2-5.62,15.3l-2.55-13.3-2.22.3,1.38,14-.71.23c-2.68-4.5-5.25-9.05-8.1-13.45-.66-1-2.24-1.5-3.4-2.23,0,1.32-.49,2.87.08,3.9,3.42,6.22,7.29,12.23,10.54,18.52a8.3,8.3,0,0,1,.2,6.45c-3.27,7.2-7,14.2-10.68,21.23-.62,1.19-1.85,2.08-2.46,3.27s-1.3,2.72-1.08,3.95c.12.69,2.34,1.78,3,1.48a7.08,7.08,0,0,0,3.4-3.14c4.24-9.09,8.28-18.27,12.67-28.06,6.77,5.12,12.47,9.5,18.28,13.76,1,.73,2.44.89,3.68,1.32-.6-1.18-.9-2.67-1.85-3.47-3.08-2.63-6.39-5-9.21-8.22,4.57,1.56,9.1,3.25,13.73,4.62,1.67.5,3.59.22,5.39.3a27.37,27.37,0,0,0-4.56-2.93c-3.81-1.54-7.74-2.8-11.48-4.82l16,.94.13-1.84c-5.74-2.57-12.37-1-18.39-3.23,5.78-1.5,11.58-2.92,17.32-4.55,1.12-.32,2-1.47,3-2.24-1.27-.15-2.64-.66-3.8-.39-6,1.39-12,3-18,4.51Z"/><path d="M1696.86,272.28c4.51,3.54,9,7.08,13.56,10.58a10.07,10.07,0,0,0,1.43-1.07L1700,271.12l.3-.57,13.25,6.05.93-1.76-15-7.69.29-.6,19.51,2.27.28-1.85c-6.27-2.32-13.25-1.58-20.75-3.54l18.87-4.63-.48-2.07L1700.68,260c3.49-3.66,8.86-4.13,11.12-8.07l-.91-1.3-13.8,7.73-.6-.52L1708.1,243l-1.89-1.36q-5.24,6.27-10.48,12.52l-.57-.29c.94-2.94,1.87-5.89,2.81-8.83l-1.91-.67c-1.74,4.07-3.47,8.13-5.69,13.37-.84-6.43-1.43-11.57-2.25-16.68-.19-1.15-1.22-2.18-1.86-3.26-.5,1.21-1.49,2.46-1.39,3.63.52,6.17,1.51,12.31,1.89,18.49a7.43,7.43,0,0,1-2.12,5.29c-5.4,5-11.11,9.65-16.76,14.39-.84.71-2,1.05-2.86,1.75a7.77,7.77,0,0,0-2.51,2.82c-.18.48,1.3,2.16,2,2.15a6.64,6.64,0,0,0,4-1.44c6.76-6.09,13.38-12.32,20.26-18.7,5.87,6.33,7.49,14.18,12.89,19.57l1.71-.92q-3.49-6.09-7-12.16Z"/><path d="M1609.42,173.93l1.56,12.81,1.61-.14V174.86l6.91,10.79,1.76-.88c-1.76-3.32-3.52-6.63-5.74-10.83l8.67,5.38,1.06-1.37-9.53-7.62,15,1.39c.11-.59.21-1.17.32-1.76-2.13-.38-4.25-.8-6.38-1.14s-4.49-.64-8.08-1.15l14.77-6.8c-.3-.61-.59-1.23-.89-1.85L1618,164.09l-.72-.74,8.85-7.1-1.52-1.62c-1.64,1.17-3.35,2.28-4.91,3.55-1.85,1.5-3.59,3.13-6.2,5.43,1.51-4.81,2.7-8.58,3.89-12.36l-1.83-.59q-1.79,4.22-3.58,8.45l-.77-.08-.66-12-1.75.08v13l-.92.17q-2.58-4.69-5.14-9.41l-1.72.67,3.71,9.24-7.62-6.23-1.31,1.13,6.21,6.88-13.33-4.25-.72,1.95,17.8,6.36,0,.76-12.26,1.7.09,1.39h10.54c-3.41,2.38-6.13,4.28-8.86,6.17L1596,178c1.53-.73,3.11-1.4,4.59-2.22a14.62,14.62,0,0,1,5.44-2.24c-2.85,5.14-5.73,10.26-8.52,15.43a6.66,6.66,0,0,0-.89,3.2c0,.33,2.07,1.11,2.43.82a7.6,7.6,0,0,0,1.74-2.83c2.55-5.46,5.06-10.94,7.58-16.42Z"/><path d="M1589.38,384.59l-1.56,12.81-1.62-.14V385.52l-6.9,10.79-1.77-.88,5.75-10.83-8.67,5.38-1.06-1.37,9.53-7.62-15,1.39c-.1-.59-.21-1.17-.31-1.76,2.13-.38,4.25-.8,6.38-1.14s4.48-.64,8.08-1.15l-14.77-6.79c.29-.62.59-1.24.88-1.85l12.48,5.06.71-.74-8.84-7.09c.5-.55,1-1.09,1.51-1.63,1.65,1.18,3.35,2.29,4.92,3.55,1.85,1.5,3.58,3.13,6.2,5.43-1.52-4.81-2.71-8.58-3.89-12.36l1.83-.59q1.79,4.23,3.58,8.45l.77-.08.65-12,1.76.08v13l.92.18,5.14-9.42,1.71.67c-1.13,2.81-2.25,5.62-3.7,9.24l7.61-6.23,1.32,1.13-6.22,6.89,13.34-4.25.71,1.94-17.79,6.36,0,.77,12.26,1.69-.09,1.39h-10.55l8.86,6.17-.81,1.43c-1.54-.73-3.11-1.4-4.59-2.22a14.75,14.75,0,0,0-5.45-2.24c2.86,5.14,5.74,10.26,8.53,15.43a6.55,6.55,0,0,1,.88,3.21c0,.33-2.06,1.1-2.42.81a7.6,7.6,0,0,1-1.74-2.83c-2.55-5.46-5.06-10.94-7.59-16.42Z"/><path d="M1903.55,104.72l-11.08,6.47,1,1.65,11.27-5.57L1897,118.1l1.81,1.21,7.88-10c-.71,4.14-1.23,7.11-1.74,10.08l1.88.35,3.26-11.41c1.91,5.2,3.48,9.45,5,13.71l1.95-.57c-1.23-4.13-2.45-8.26-4-13.37l12.51,9.69,1.29-1.35-10.67-9.66,12.06,4c.25-.6.5-1.19.74-1.78l-13.21-5.47,13.11-1.92-.26-1.88-11,.76L1930,93.86l-.78-1.62-13.53,6,7.39-9.45-1.31-1.17-7.39,7.31c1.08-3.56,2-6.51,2.86-9.47l-1.56-.51c-1.16,2.32-2.32,4.64-3.93,7.84L1910,80l-1.65.12c-.92,6,1.36,12,.87,18.83l-7.45-10.35-1.62.92,5.15,9-10-5.29-1,1.69,8.82,5.63-.22.92c-6.1-.32-12.2-.68-18.3-.94a6.94,6.94,0,0,0-3.41.58c-.39.2-.34,2.27,0,2.44a8.35,8.35,0,0,0,3.42.42c6.25,0,12.5,0,18.75,0Z"/><path class="cls-3" d="M1328.44,923.23s11.52-67.59,10.28-108.08-23-80-63.54-114.62c-50.46-43-178.78-43-218-71.64-10.69-7.81-21.34-21.25-24.56-25.48a.62.62,0,0,0-1.11.33c-.82,10.73-4.78,71.82,8.23,111.12,18.56,56.07,57.93,91.57,138.91,117.11C1255,856.05,1337.16,879,1328.44,923.23Z"/><path class="cls-4" d="M1331.33,924a770.27,770.27,0,0,0,9.76-81.53c1.18-18.89,1.29-37.77-3.65-56.19-5.28-19.69-15.15-37.89-27.55-54s-27.08-31.66-44.25-42.41c-13.36-8.36-28.34-14.09-43.32-18.8-33.84-10.65-69-16.14-103.58-23.79-15.8-3.49-32-7.16-46.85-13.67a67.87,67.87,0,0,1-18.73-11.91,139.8,139.8,0,0,1-12.74-13.36c-2.16-2.56-4.42-7-7.7-8.08a2.91,2.91,0,0,0-2.92.77c-2.28,2.81-1.69,7.88-1.87,11.36q-.51,9.65-.62,19.3a368.08,368.08,0,0,0,2.6,51.42c3.9,30.22,14.66,59.14,33.71,83.14,46.73,58.87,127,69.46,193.1,94.68,17.92,6.83,36.57,14.53,51.74,26.53,10.86,8.58,19.75,20.4,17.09,34.93-.7,3.77,5.09,5.39,5.78,1.59,5.17-28.21-22.61-45.85-44.38-56.57-36-17.72-75.26-27.71-113.2-40.2-32.78-10.8-65.67-25.37-91.14-49.23a151.24,151.24,0,0,1-43.3-75.79c-4.58-19.72-5.83-40.19-6-60.38q-.11-11.86.37-23.71c.12-2.89.26-5.79.43-8.68.06-1,.13-2.05.2-3.07a8.61,8.61,0,0,0,.08-1.24c-.1-1.26.77-1.19-.33.16l-2.92.77c-1.41-.46-.49-.45.22.59.34.48.76,1,1.12,1.42,1.21,1.53,2.46,3,3.72,4.53a146.12,146.12,0,0,0,11,11.71,72,72,0,0,0,17.09,12.32c11.64,5.9,24.41,9.53,37,12.72,33.1,8.36,67,13.41,100,22,16,4.15,32,9,47,16,16.24,7.61,29.44,18.43,41.89,31.3,15.32,15.82,28.54,34.16,36.69,54.74,7.09,17.93,9.37,36.37,8.86,55.53-.83,31.27-4.92,62.68-10.16,93.5C1324.9,926.21,1330.68,927.83,1331.33,924Z"/><path class="cls-3" d="M1357.4,834.46c.63-4.36-7.85-78.83-1.24-113.38,10.9-57,82.54-136.73,172.55-167.56,35.08-12,140.16-36.76,145.77-44.23s8.1,56.68,2.18,83.16c-13.22,59.14-59.18,116.49-116.49,148.26-33.1,18.34-159.47,55.44-186,78.18-12.1,10.39-31.45,25.85-44.54,98.11"/><path class="cls-4" d="M1360.4,834.46c.4-3.63-.33-7.59-.6-11.21-.58-8-1.18-15.91-1.67-23.86-1.25-20.07-2.21-40.29-1-60.38,2.28-38.37,23.3-71.62,48.49-99.57,32.41-36,73.85-64.92,119.44-81.46,32.81-11.9,67.33-19.45,100.91-28.86,14-3.91,28.16-7.61,41.68-12.91,1.89-.74,8-2.38,8.84-4.66.35-.89-2.65-.5-2.66-.44a12.59,12.59,0,0,0,.66,2,53.08,53.08,0,0,1,1.34,8.23,283,283,0,0,1,.2,54.29c-1.82,21.12-8.81,41.47-18.36,60.31-21.84,43.1-58.53,81.46-101.69,103.59-13,6.67-26.91,11.67-40.57,16.8-17.91,6.71-35.91,13.15-53.85,19.79-17.72,6.56-35.43,13.24-52.78,20.73-12.1,5.22-25,10.58-35.4,18.86-20.12,16-30.77,38.66-37.92,63a365,365,0,0,0-8.66,37.5c-.69,3.78,5.09,5.39,5.79,1.6,5.91-32.32,13.78-69.87,39.32-92.93,8.3-7.49,17.81-12.67,27.89-17.43,16.8-7.94,34.22-14.6,51.6-21.14,33.72-12.69,68.44-23.57,101.25-38.52,19.19-8.75,36.79-21.43,52.59-35.3a252.89,252.89,0,0,0,49.35-58.63c12-19.74,21.94-42.09,25.82-65,3.1-18.26,3.18-37.29,2.29-55.74-.17-3.52-.18-31.8-9.21-26.92-2.31,1.24-4,2.85-7.16,4.11-5.75,2.29-11.69,4.12-17.6,5.93-35.33,10.85-71.34,19.37-106.75,29.94a308,308,0,0,0-118.12,66.58c-29.55,26.59-58,60.76-68.79,99.83-4.9,17.84-4.71,36.95-4.32,55.3s1.71,36.92,3.06,55.35c.27,3.61,1,7.58.6,11.21-.41,3.83,5.59,3.8,6,0Z"/><path class="cls-4" d="M1096.93,688.56c3.23,16.7,11,33.55,20.94,47.23a87.8,87.8,0,0,0,27.85,25.37c10.8,6.06,22.68,10,34.56,13.35,25.61,7.14,52.34,10.89,77.14,20.77,19.27,7.68,34.42,20.82,45.86,38,16.89,25.34,21.82,56.32,22.78,86.21.13,3.85,6.13,3.87,6,0-.88-27.26-4.91-55.28-17.87-79.64-8.54-16.06-21.36-31.69-36.9-41.36-22.08-13.75-48.85-18.51-73.8-24.34-24.79-5.79-52-11.75-70.78-30.18-15.13-14.85-26-36.16-30-57-.73-3.79-6.51-2.18-5.78,1.6Z"/><path class="cls-4" d="M1612.41,573.9c-3.78,12.58-10.14,24.71-17.16,35.74a140.37,140.37,0,0,1-23.91,28.76c-11.34,10.31-24.43,17.29-38.46,23.23-25,10.59-51.68,17-75.39,30.63a187.66,187.66,0,0,0-65.66,62.87,307.74,307.74,0,0,0-35.59,77.55c-1.09,3.72,4.7,5.3,5.78,1.6,7.09-24.18,17.93-47.65,30.78-69.27,7.56-12.73,16.1-25,26.34-35.74,11.48-12,25.23-22.31,39.51-30.74,23.84-14.07,50.84-20.58,76.17-31.26,13.44-5.66,26.09-12.16,37.3-21.59a140.7,140.7,0,0,0,24.9-27.85c8.84-12.82,16.67-27.34,21.17-42.34,1.12-3.7-4.67-5.29-5.78-1.59Z"/><path class="cls-3" d="M1323.59,705.72c0-2.16,9.66-37.68,9-54.94-1.06-28.48-29.92-72.5-71.33-94.15-16.13-8.44-65.31-28.24-67.48-32.29s-8.13,26.92-7.23,40.21c2,29.69,20.09,60.94,45.55,80.61,14.7,11.37,73.3,38.75,84.46,51.75a54.47,54.47,0,0,1,5.4,6.9"/><path class="cls-4" d="M1326.59,705.72c.28-4,2.59-11.39,3.66-16.3,1.91-8.84,3.65-17.75,4.7-26.75,1.94-16.59-2.19-31.73-9.91-46.42a151.28,151.28,0,0,0-39.84-47.51c-14.32-11.36-30.38-18.73-47-26.09-13.51-6-27.84-11.32-40.53-19-2.16-1.31-4.87-4.75-7.66-.55-3.38,5.07-3.9,13.4-4.79,19.21-1.28,8.29-2.31,16.75-1.44,25.13a104.61,104.61,0,0,0,8.2,30.71c8.5,19.72,22.51,38.12,40,50.66,14.43,10.32,31,18,46.45,26.6,14.43,8.06,31.3,15.84,40.86,29.88,2.17,3.18,7.37.18,5.19-3-7.69-11.28-18.83-18-30.41-24.84-14.52-8.54-29.47-16.31-44.11-24.63-15.17-8.63-28.14-18.9-38.66-33.08-12.32-16.61-22.09-37.8-21.91-58.86a128.71,128.71,0,0,1,2.75-23.79,64.83,64.83,0,0,1,2.18-8.92c.69-2,1.47-2-1.19-2.17-3-.23-2-.08-.88,1.17,2.81,3.24,8.7,5.14,12.42,6.92,7.12,3.4,14.34,6.59,21.55,9.79,14.42,6.4,29.39,12.26,42.78,20.71A147.61,147.61,0,0,1,1313.8,609c10,15.47,17.24,32.66,15.41,51.35a250.71,250.71,0,0,1-5,28.66c-1.2,5.44-3.24,11.17-3.63,16.76-.26,3.86,5.74,3.84,6,0Z"/><path class="cls-4" d="M1214.79,561.28c2.72,19,13.66,37.75,29.6,48.43,10.93,7.33,23.22,12.32,34,19.8a87.07,87.07,0,0,1,29.45,35.12,147.14,147.14,0,0,1,12.06,41.29c.52,3.81,6.31,2.18,5.79-1.6-3.62-26.44-14-53.25-33.84-71.62-9.56-8.86-20.81-14.53-32.12-20.74-13-7.16-24-15.33-31.15-28.69a73.22,73.22,0,0,1-8-23.58c-.54-3.81-6.33-2.19-5.78,1.59Z"/><path class="cls-4" d="M1036,928.72h848.07c11.47,0,23,.24,34.46,0H1920c3.86,0,3.87-6,0-6H1071.93c-11.47,0-23-.25-34.46,0H1036c-3.86,0-3.87,6,0,6Z"/><path class="cls-3" d="M1356.53,607.72c0-2.16-9.66-37.68-9-54.94,1.06-28.48,29.92-72.5,71.33-94.15,16.14-8.44,65.31-28.24,67.48-32.29s8.14,26.92,7.23,40.21c-2,29.69-20.08,60.94-45.55,80.61-14.7,11.37-73.3,38.75-84.46,51.75a54.47,54.47,0,0,0-5.4,6.9"/><path class="cls-4" d="M1359.53,607.72c-.31-4.51-1.92-9.13-2.9-13.53-1.89-8.41-3.66-16.87-4.91-25.4-1.12-7.65-1.84-15.41-.4-23.06a86.48,86.48,0,0,1,8.35-23.31A146.09,146.09,0,0,1,1398,475.93c13.57-10.95,28.94-18.09,44.74-25.12,13.39-6,27.19-11.44,40.09-18.45a22,22,0,0,0,4.83-3.07c.37-.36,1.08-.83,1.22-1.35.3-1.17-3.66-.72-3.78.57,0,.36.45.93.52,1.34,1.24,7.33,3.4,14.4,4.25,21.87,4.4,38.39-18.85,78.34-51.32,98.15-15.47,9.45-31.72,17.61-47.45,26.61-13.22,7.57-26.78,15-35.53,27.82-2.18,3.2,3,6.2,5.18,3,8.51-12.49,22.65-19.57,35.49-26.86,14.8-8.4,30-16.14,44.57-24.94,32.57-19.69,58.68-60.11,55.53-99.1-.37-4.48-2.27-36.9-11.23-33-1.64.72-1,1.26-2.69,2.26-2.2,1.32-4.48,2.5-6.78,3.64-7.26,3.59-14.67,6.86-22.07,10.16-15.32,6.81-31.32,12.95-45.55,21.93a155.1,155.1,0,0,0-45.34,44.22c-10.48,15.51-19.25,34.12-18,53.26.64,10.17,2.63,20.27,4.74,30.21,1.2,5.67,3.82,13.9,4.15,18.62.27,3.83,6.27,3.86,6,0Z"/><path class="cls-4" d="M1459.55,461.69a72.32,72.32,0,0,1-6,19.38c-6.17,13.52-15.77,22.76-28.48,30.21-10.95,6.41-22.52,11.5-32.43,19.56a92.87,92.87,0,0,0-26.79,35.4,153.78,153.78,0,0,0-11.49,40.08c-.51,3.78,5.27,5.41,5.79,1.6,3.76-27.51,14.75-55,36.73-72.83,10.23-8.29,22.51-13.29,33.68-20.1,11.79-7.19,21-16.34,27.18-28.81a77.48,77.48,0,0,0,7.56-22.9c.54-3.77-5.24-5.41-5.79-1.59Z"/><path class="cls-4" d="M1321.49,708.76c18.11,32,17.86,69.76,16.5,105.59-1,24.95-3.22,49.84-6,74.65-.43,3.83,5.58,3.8,6,0,4.29-38.39,7.94-77.39,5.92-116.06-.91-17.42-2.93-35.36-9.52-51.65a132.49,132.49,0,0,0-7.73-15.56c-1.9-3.36-7.09-.34-5.18,3Z"/><path class="cls-4" d="M1353.61,605.73C1343.24,625,1341.52,648,1341,669.37c-1,39.64,6.13,79.06,3.7,118.65-1.51,24.57-5.61,48.92-9.57,73.18-.62,3.78,5.16,5.4,5.78,1.6,6.33-38.71,12.41-77.41,9.44-116.73-2.73-36.13-6.8-73.78-.45-109.79,1.68-9.54,4.3-19,8.91-27.52,1.84-3.4-3.34-6.43-5.18-3Z"/></svg>