<?xml version="1.0" encoding="utf-8"?>
<!-- Generator: Adobe Illustrator 23.0.1, SVG Export Plug-In . SVG Version: 6.00 Build 0)  -->
<svg version="1.1" id="Layer_1" xmlns="http://www.w3.org/2000/svg" xmlns:xlink="http://www.w3.org/1999/xlink" x="0px" y="0px"
	 viewBox="0 0 1920 1080" style="enable-background:new 0 0 1920 1080;" xml:space="preserve">
<style type="text/css">
	.st0{fill:#64AD8A;}
	.st1{fill:#DBD267;}
	.st2{fill:#FFFFFF;}
	.st3{fill:#AEFFDA;}
	.st4{fill:none;stroke:#000000;stroke-width:3;stroke-miterlimit:10;}
	.st5{fill:#C2F395;}
	.st6{fill:#7F40CB;}
</style>
<g>
	<path d="M1538,2981L1538,2981c3.3,0,6-2.7,6-6v-903c0-3.3-2.7-6-6-6l0,0c-3.3,0-6,2.7-6,6v903C1532,2978.3,1534.7,2981,1538,2981z"
		/>
	<g>
		<g>
			<path d="M1407.9,2840.1c-32.7-33.1-45.6-80.2-38.4-125.8c-1,1-2.1,2.1-3.1,3.1c34.9-5.5,71.4,0.4,101.6,19.1
				c30.7,19.1,52.3,50,60.6,85c4.7,19.6,5.1,40.1,1.9,60c1-1,2.1-2.1,3.1-3.1C1488.1,2885.8,1441,2872.9,1407.9,2840.1
				c-4.1-4.1-10.5,2.3-6.4,6.4c35.6,35.2,85.7,48.4,134.6,40.7c1.4-0.2,2.9-1.8,3.1-3.1c6-37.5-0.1-76.7-20.5-109.2
				c-20.4-32.5-53.4-55.7-90.7-64.3c-21.1-4.9-42.7-5.1-64-1.8c-1.4,0.2-2.9,1.8-3.1,3.1c-7.8,48.8,5.5,99,40.7,134.6
				C1405.6,2850.6,1411.9,2844.3,1407.9,2840.1z"/>
		</g>
	</g>
	<g>
		<g>
			<path d="M1584.9,2636.9c33.1-32.7,80.2-45.6,125.8-38.4c-1-1-2.1-2.1-3.1-3.1c5.5,34.9-0.4,71.4-19.1,101.6
				c-19.1,30.7-50,52.3-85,60.6c-19.6,4.7-40.1,5.1-60,1.9c1,1,2.1,2.1,3.1,3.1C1539.2,2717.1,1552.1,2670,1584.9,2636.9
				c4.1-4.1-2.3-10.5-6.4-6.4c-35.2,35.6-48.4,85.7-40.7,134.6c0.2,1.4,1.8,2.9,3.1,3.1c37.5,6,76.7-0.1,109.2-20.5
				c32.5-20.4,55.7-53.4,64.3-90.7c4.9-21.1,5.1-42.7,1.8-64c-0.2-1.4-1.8-2.9-3.1-3.1c-48.8-7.8-99,5.5-134.6,40.7
				C1574.4,2634.6,1580.7,2640.9,1584.9,2636.9z"/>
		</g>
	</g>
	<g>
		<g>
			<path d="M1574.5,2428.2c24.6-24.2,59.2-33.7,93-28.4c-1-1-2.1-2.1-3.1-3.1c5.3,33.6-4.1,68.7-28.4,93
				c-24.3,24.3-59.4,33.7-93,28.4c1,1,2.1,2.1,3.1,3.1C1540.8,2487.5,1550.3,2452.8,1574.5,2428.2c4.1-4.1-2.3-10.5-6.4-6.4
				c-26.6,27-36.6,64.7-30.7,101.8c0.2,1.4,1.8,2.9,3.1,3.1c28.5,4.5,58.2,0,82.8-15.6c24.3-15.4,41.8-40.2,48.3-68.2
				c3.7-16,3.9-32.5,1.4-48.7c-0.2-1.4-1.8-2.9-3.1-3.1c-37-5.8-74.8,4.1-101.8,30.7C1564,2425.9,1570.4,2432.3,1574.5,2428.2z"/>
		</g>
	</g>
	<g>
		<g>
			<path d="M1442.5,2609.7c-24.2-24.6-33.7-59.2-28.4-93c-1,1-2.1,2.1-3.1,3.1c33.6-5.3,68.7,4.1,93,28.4
				c24.3,24.3,33.7,59.4,28.4,93c1-1,2.1-2.1,3.1-3.1C1501.7,2643.4,1467.1,2633.9,1442.5,2609.7c-4.1-4.1-10.5,2.3-6.4,6.4
				c27,26.6,64.7,36.6,101.8,30.7c1.4-0.2,2.9-1.8,3.1-3.1c4.5-28.5,0-58.2-15.6-82.8c-15.4-24.3-40.2-41.8-68.2-48.3
				c-16-3.7-32.5-3.9-48.7-1.4c-1.4,0.2-2.9,1.8-3.1,3.1c-5.8,37,4.1,74.8,30.7,101.8C1440.2,2620.2,1446.6,2613.8,1442.5,2609.7z"
				/>
		</g>
	</g>
	<g>
		<g>
			<path d="M1566.3,2196.4c19.7-19.3,47.3-27,74.4-22.7c-1-1-2.1-2.1-3.1-3.1c4.2,26.8-3.3,54.9-22.7,74.4
				c-19.5,19.4-47.5,26.9-74.4,22.7c1,1,2.1,2.1,3.1,3.1C1539.4,2243.7,1547,2216.1,1566.3,2196.4c4.1-4.1-2.3-10.5-6.4-6.4
				c-21.7,22.2-29.8,52.8-25.1,83.1c0.2,1.4,1.8,2.9,3.1,3.1c30.1,4.7,61.2-3.2,83.1-25.1c21.9-21.9,29.7-53,25.1-83.1
				c-0.2-1.4-1.8-2.9-3.1-3.1c-30.3-4.7-61,3.3-83.1,25.1C1555.8,2194.1,1562.2,2200.5,1566.3,2196.4z"/>
		</g>
	</g>
	<g>
		<g>
			<path d="M1486.9,2150.7c-12.8-13.1-17.8-31.3-15.1-49.2c-1,1-2.1,2.1-3.1,3.1c17.8-2.7,36.3,2.2,49.2,15.1
				c12.9,12.9,17.8,31.4,15.1,49.2c1-1,2.1-2.1,3.1-3.1C1518.2,2168.6,1500.1,2163.5,1486.9,2150.7c-4.2-4-10.5,2.3-6.4,6.4
				c15.6,15.2,36.7,20.7,58,17.4c1.4-0.2,2.9-1.8,3.1-3.1c3.2-21.1-2.1-42.6-17.4-58c-15.3-15.3-37-20.6-58-17.4
				c-1.4,0.2-2.9,1.8-3.1,3.1c-3.2,21.3,2.3,42.4,17.4,58C1484.6,2161.3,1491,2154.9,1486.9,2150.7z"/>
		</g>
	</g>
	<g>
		<g>
			<path d="M1461.3,2360.9c-19.3-19.7-27-47.3-22.7-74.4c-1,1-2.1,2.1-3.1,3.1c26.8-4.2,54.9,3.3,74.4,22.7
				c19.4,19.5,26.9,47.5,22.7,74.4c1-1,2.1-2.1,3.1-3.1C1508.6,2387.8,1481,2380.2,1461.3,2360.9c-4.1-4.1-10.5,2.3-6.4,6.4
				c22.2,21.7,52.8,29.8,83.1,25.1c1.4-0.2,2.9-1.8,3.1-3.1c4.7-30.1-3.2-61.2-25.1-83.1c-21.9-21.9-53-29.7-83.1-25.1
				c-1.4,0.2-2.9,1.8-3.1,3.1c-4.7,30.3,3.3,61,25.1,83.1C1459,2371.4,1465.4,2365,1461.3,2360.9z"/>
		</g>
	</g>
</g>
<g>
	<path class="st0" d="M1257.2,2860L1257.2,2860c2.2,0,4-1.8,4-4v-605.3c0-2.2-1.8-4-4-4l0,0c-2.2,0-4,1.8-4,4V2856
		C1253.2,2858.2,1255,2860,1257.2,2860z"/>
	<g>
		<g>
			<path class="st0" d="M1170,2765.6c-21.9-22.2-30.6-53.8-25.7-84.3c-0.7,0.7-1.4,1.4-2.1,2.1c23.4-3.7,47.9,0.3,68.1,12.8
				c20.6,12.8,35.1,33.5,40.7,57c3.1,13.2,3.4,26.9,1.3,40.2c0.7-0.7,1.4-1.4,2.1-2.1C1223.7,2796.2,1192.2,2787.5,1170,2765.6
				c-2.8-2.7-7,1.5-4.3,4.3c23.8,23.6,57.5,32.5,90.2,27.3c0.9-0.1,2-1.2,2.1-2.1c4-25.2,0-51.4-13.7-73.2
				c-13.7-21.8-35.8-37.3-60.8-43.1c-14.1-3.3-28.6-3.4-42.9-1.2c-0.9,0.1-2,1.2-2.1,2.1c-5.2,32.7,3.7,66.4,27.3,90.2
				C1168.4,2772.6,1172.7,2768.4,1170,2765.6z"/>
		</g>
	</g>
	<g>
		<g>
			<path class="st0" d="M1288.6,2629.3c22.2-21.9,53.8-30.6,84.3-25.7c-0.7-0.7-1.4-1.4-2.1-2.1c3.7,23.4-0.3,47.9-12.8,68.1
				c-12.8,20.6-33.5,35.1-57,40.7c-13.2,3.1-26.9,3.4-40.2,1.3c0.7,0.7,1.4,1.4,2.1,2.1C1258,2683.1,1266.7,2651.5,1288.6,2629.3
				c2.7-2.8-1.5-7-4.3-4.3c-23.6,23.8-32.5,57.5-27.3,90.2c0.1,0.9,1.2,2,2.1,2.1c25.2,4,51.4,0,73.2-13.7
				c21.8-13.7,37.3-35.8,43.1-60.8c3.3-14.1,3.4-28.6,1.2-42.9c-0.1-0.9-1.2-2-2.1-2.1c-32.7-5.2-66.4,3.7-90.2,27.3
				C1281.6,2627.8,1285.9,2632.1,1288.6,2629.3z"/>
		</g>
	</g>
	<g>
		<g>
			<path class="st0" d="M1281.7,2489.5c16.5-16.2,39.7-22.6,62.4-19c-0.7-0.7-1.4-1.4-2.1-2.1c3.5,22.5-2.7,46.1-19,62.4
				c-16.3,16.3-39.8,22.6-62.4,19c0.7,0.7,1.4,1.4,2.1,2.1C1259.1,2529.2,1265.5,2505.9,1281.7,2489.5c2.7-2.8-1.5-7-4.3-4.3
				c-17.8,18.1-24.5,43.4-20.6,68.2c0.1,0.9,1.2,2,2.1,2.1c19.1,3,39,0,55.5-10.4c16.3-10.3,28-26.9,32.4-45.7
				c2.5-10.8,2.6-21.8,0.9-32.7c-0.1-0.9-1.2-2-2.1-2.1c-24.8-3.9-50.1,2.8-68.2,20.6C1274.6,2487.9,1278.9,2492.2,1281.7,2489.5z"
				/>
		</g>
	</g>
	<g>
		<g>
			<path class="st0" d="M1193.2,2611.1c-16.2-16.5-22.6-39.7-19-62.4c-0.7,0.7-1.4,1.4-2.1,2.1c22.5-3.5,46.1,2.8,62.4,19
				c16.3,16.3,22.6,39.8,19,62.4c0.7-0.7,1.4-1.4,2.1-2.1C1232.9,2633.7,1209.7,2627.3,1193.2,2611.1c-2.8-2.7-7,1.5-4.3,4.3
				c18.1,17.8,43.4,24.5,68.2,20.6c0.9-0.1,2-1.2,2.1-2.1c3-19.1,0-39-10.4-55.5c-10.3-16.3-26.9-28-45.7-32.4
				c-10.8-2.5-21.8-2.6-32.7-0.9c-0.9,0.1-2,1.2-2.1,2.1c-3.9,24.8,2.8,50.1,20.6,68.2C1191.6,2618.1,1195.9,2613.9,1193.2,2611.1z"
				/>
		</g>
	</g>
	<g>
		<g>
			<path class="st0" d="M1276.2,2334.1c13.2-12.9,31.7-18.1,49.8-15.2c-0.7-0.7-1.4-1.4-2.1-2.1c2.8,18-2.2,36.8-15.2,49.8
				c-13,13-31.8,18.1-49.8,15.2c0.7,0.7,1.4,1.4,2.1,2.1C1258.1,2365.8,1263.2,2347.3,1276.2,2334.1c2.7-2.8-1.5-7-4.3-4.3
				c-14.6,14.9-20,35.4-16.8,55.7c0.1,0.9,1.2,2,2.1,2.1c20.2,3.1,41-2.1,55.7-16.8c14.7-14.7,19.9-35.5,16.8-55.7
				c-0.1-0.9-1.2-2-2.1-2.1c-20.3-3.2-40.9,2.2-55.7,16.8C1269.2,2332.5,1273.4,2336.8,1276.2,2334.1z"/>
		</g>
	</g>
	<g>
		<g>
			<path class="st0" d="M1223,2303.5c-8.5-8.8-12-20.9-10.1-33c-0.7,0.7-1.4,1.4-2.1,2.1c11.9-1.8,24.4,1.5,33,10.1
				c8.6,8.6,11.9,21.1,10.1,33c0.7-0.7,1.4-1.4,2.1-2.1C1243.9,2315.4,1231.8,2312,1223,2303.5c-2.8-2.7-7.1,1.6-4.3,4.3
				c10.5,10.2,24.6,13.8,38.9,11.7c0.9-0.1,2-1.2,2.1-2.1c2.1-14.1-1.4-28.6-11.7-38.9c-10.3-10.3-24.8-13.8-38.9-11.7
				c-0.9,0.1-2,1.2-2.1,2.1c-2.2,14.3,1.5,28.4,11.7,38.9C1221.4,2310.5,1225.7,2306.3,1223,2303.5z"/>
		</g>
	</g>
	<g>
		<g>
			<path class="st0" d="M1205.8,2444.3c-12.9-13.2-18.1-31.7-15.2-49.8c-0.7,0.7-1.4,1.4-2.1,2.1c18-2.8,36.8,2.2,49.8,15.2
				c13,13,18.1,31.8,15.2,49.8c0.7-0.7,1.4-1.4,2.1-2.1C1237.5,2462.4,1219,2457.3,1205.8,2444.3c-2.8-2.7-7,1.5-4.3,4.3
				c14.9,14.6,35.4,20,55.7,16.8c0.9-0.1,2-1.2,2.1-2.1c3.1-20.2-2.1-41-16.8-55.7c-14.7-14.7-35.5-19.9-55.7-16.8
				c-0.9,0.1-2,1.2-2.1,2.1c-3.2,20.3,2.2,40.9,16.8,55.7C1204.3,2451.4,1208.5,2447.1,1205.8,2444.3z"/>
		</g>
	</g>
</g>
<g>
	<path class="st0" d="M2084,3014.4L2084,3014.4c2.7,0,5-2.2,5-5v-745.5c0-2.7-2.2-5-5-5l0,0c-2.7,0-5,2.2-5,5v745.5
		C2079.1,3012.2,2081.3,3014.4,2084,3014.4z"/>
	<g>
		<g>
			<path class="st0" d="M1976.6,2898.1c-27-27.3-37.7-66.2-31.7-103.9c-0.9,0.9-1.7,1.7-2.6,2.6c28.8-4.6,59,0.3,83.9,15.8
				c25.3,15.7,43.2,41.3,50.1,70.2c3.8,16.2,4.2,33.1,1.6,49.5c0.9-0.9,1.7-1.7,2.6-2.6C2042.8,2935.8,2003.9,2925.2,1976.6,2898.1
				c-3.4-3.4-8.7,1.9-5.3,5.3c29.4,29,70.8,40,111.1,33.6c1.1-0.2,2.4-1.5,2.6-2.6c4.9-31,0-63.3-16.9-90.1
				c-16.9-26.8-44.1-45.9-74.9-53.1c-17.4-4-35.3-4.2-52.9-1.5c-1.1,0.2-2.4,1.5-2.6,2.6c-6.4,40.3,4.6,81.7,33.6,111.1
				C1974.7,2906.8,1979.9,2901.6,1976.6,2898.1z"/>
		</g>
	</g>
	<g>
		<g>
			<path class="st0" d="M2122.7,2730.3c27.3-27,66.2-37.7,103.9-31.7c-0.9-0.9-1.7-1.7-2.6-2.6c4.6,28.8-0.3,59-15.8,83.9
				c-15.7,25.3-41.3,43.2-70.2,50.1c-16.2,3.8-33.1,4.2-49.5,1.6c0.9,0.9,1.7,1.7,2.6,2.6C2085,2796.5,2095.7,2757.6,2122.7,2730.3
				c3.4-3.4-1.9-8.7-5.3-5.3c-29,29.4-40,70.8-33.6,111.1c0.2,1.1,1.5,2.4,2.6,2.6c31,4.9,63.3,0,90.1-16.9
				c26.8-16.9,45.9-44.1,53.1-74.9c4-17.4,4.2-35.3,1.5-52.9c-0.2-1.1-1.5-2.4-2.6-2.6c-40.3-6.4-81.7,4.6-111.1,33.6
				C2114,2728.4,2119.3,2733.7,2122.7,2730.3z"/>
		</g>
	</g>
	<g>
		<g>
			<path class="st0" d="M2114.1,2558.1c20.3-20,48.9-27.8,76.8-23.5c-0.9-0.9-1.7-1.7-2.6-2.6c4.4,27.7-3.4,56.7-23.5,76.8
				c-20.1,20.1-49.1,27.8-76.8,23.5c0.9,0.9,1.7,1.7,2.6,2.6C2086.3,2607,2094.2,2578.3,2114.1,2558.1c3.4-3.4-1.9-8.7-5.3-5.3
				c-22,22.3-30.2,53.5-25.4,84c0.2,1.1,1.5,2.4,2.6,2.6c23.5,3.7,48,0,68.4-12.9c20.1-12.7,34.5-33.2,39.9-56.3
				c3.1-13.2,3.2-26.8,1.1-40.2c-0.2-1.1-1.5-2.4-2.6-2.6c-30.6-4.8-61.7,3.4-84,25.4C2105.5,2556.2,2110.7,2561.4,2114.1,2558.1z"
				/>
		</g>
	</g>
	<g>
		<g>
			<path class="st0" d="M2005.2,2707.9c-20-20.3-27.8-48.9-23.5-76.8c-0.9,0.9-1.7,1.7-2.6,2.6c27.7-4.4,56.7,3.4,76.8,23.5
				c20.1,20.1,27.8,49.1,23.5,76.8c0.9-0.9,1.7-1.7,2.6-2.6C2054.1,2735.7,2025.4,2727.8,2005.2,2707.9c-3.4-3.4-8.7,1.9-5.3,5.3
				c22.3,22,53.5,30.2,84,25.4c1.1-0.2,2.4-1.5,2.6-2.6c3.7-23.5,0-48-12.9-68.4c-12.7-20.1-33.2-34.5-56.3-39.9
				c-13.2-3.1-26.8-3.2-40.2-1.1c-1.1,0.2-2.4,1.5-2.6,2.6c-4.8,30.6,3.4,61.7,25.4,84C2003.3,2716.5,2008.5,2711.3,2005.2,2707.9z"
				/>
		</g>
	</g>
	<g>
		<g>
			<path class="st0" d="M2107.4,2366.6c16.3-15.9,39.1-22.3,61.4-18.8c-0.9-0.9-1.7-1.7-2.6-2.6c3.4,22.2-2.7,45.4-18.8,61.4
				c-16.1,16-39.2,22.2-61.4,18.8c0.9,0.9,1.7,1.7,2.6,2.6C2085.1,2405.7,2091.4,2382.9,2107.4,2366.6c3.4-3.4-1.9-8.7-5.3-5.3
				c-17.9,18.3-24.6,43.6-20.7,68.6c0.2,1.1,1.5,2.4,2.6,2.6c24.8,3.9,50.6-2.6,68.6-20.7c18.1-18.1,24.6-43.8,20.7-68.6
				c-0.2-1.1-1.5-2.4-2.6-2.6c-25-3.9-50.3,2.7-68.6,20.7C2098.7,2364.7,2104,2370,2107.4,2366.6z"/>
		</g>
	</g>
	<g>
		<g>
			<path class="st0" d="M2041.9,2328.9c-10.5-10.8-14.7-25.8-12.5-40.6c-0.9,0.9-1.7,1.7-2.6,2.6c14.7-2.2,30,1.9,40.6,12.5
				c10.6,10.6,14.7,26,12.5,40.6c0.9-0.9,1.7-1.7,2.6-2.6C2067.7,2343.7,2052.7,2339.5,2041.9,2328.9c-3.4-3.3-8.7,1.9-5.3,5.3
				c12.9,12.5,30.3,17.1,47.9,14.4c1.1-0.2,2.4-1.5,2.6-2.6c2.6-17.4-1.8-35.2-14.4-47.9c-12.6-12.7-30.5-17-47.9-14.4
				c-1.1,0.2-2.4,1.5-2.6,2.6c-2.7,17.6,1.9,35,14.4,47.9C2039.9,2337.6,2045.2,2332.4,2041.9,2328.9z"/>
		</g>
	</g>
	<g>
		<g>
			<path class="st0" d="M2020.7,2502.4c-15.9-16.3-22.3-39.1-18.8-61.4c-0.9,0.9-1.7,1.7-2.6,2.6c22.2-3.4,45.4,2.7,61.4,18.8
				c16,16.1,22.2,39.2,18.8,61.4c0.9-0.9,1.7-1.7,2.6-2.6C2059.8,2524.7,2037,2518.4,2020.7,2502.4c-3.4-3.4-8.7,1.9-5.3,5.3
				c18.3,17.9,43.6,24.6,68.6,20.7c1.1-0.2,2.4-1.5,2.6-2.6c3.9-24.8-2.6-50.6-20.7-68.6c-18.1-18.1-43.8-24.6-68.6-20.7
				c-1.1,0.2-2.4,1.5-2.6,2.6c-3.9,25,2.7,50.3,20.7,68.6C2018.8,2511.1,2024.1,2505.8,2020.7,2502.4z"/>
		</g>
	</g>
</g>
<g>
	<path class="st0" d="M1854.1,2724.4L1854.1,2724.4c2.1,0,3.7-1.7,3.7-3.7v-563.9c0-2.1-1.7-3.7-3.7-3.7l0,0c-2.1,0-3.7,1.7-3.7,3.7
		v563.9C1850.4,2722.8,1852.1,2724.4,1854.1,2724.4z"/>
	<g>
		<g>
			<path class="st0" d="M1772.8,2636.5c-20.4-20.7-28.5-50.1-24-78.6c-0.7,0.7-1.3,1.3-2,2c21.8-3.5,44.6,0.2,63.4,11.9
				c19.2,11.9,32.7,31.2,37.9,53.1c2.9,12.3,3.2,25.1,1.2,37.5c0.7-0.7,1.3-1.3,2-2C1822.9,2664.9,1793.5,2656.9,1772.8,2636.5
				c-2.6-2.5-6.6,1.4-4,4c22.2,22,53.5,30.3,84,25.4c0.9-0.1,1.8-1.1,2-2c3.7-23.5,0-47.9-12.8-68.2c-12.7-20.3-33.4-34.8-56.7-40.1
				c-13.1-3-26.7-3.2-40-1.1c-0.9,0.1-1.8,1.1-2,2c-4.8,30.5,3.5,61.8,25.4,84C1771.4,2643,1775.4,2639,1772.8,2636.5z"/>
		</g>
	</g>
	<g>
		<g>
			<path class="st0" d="M1883.4,2509.5c20.7-20.4,50.1-28.5,78.6-24c-0.7-0.7-1.3-1.3-2-2c3.5,21.8-0.2,44.6-11.9,63.4
				c-11.9,19.2-31.2,32.7-53.1,37.9c-12.3,2.9-25.1,3.2-37.5,1.2c0.7,0.7,1.3,1.3,2,2C1854.9,2559.6,1862.9,2530.2,1883.4,2509.5
				c2.5-2.6-1.4-6.6-4-4c-22,22.2-30.3,53.5-25.4,84c0.1,0.9,1.1,1.8,2,2c23.5,3.7,47.9,0,68.2-12.8c20.3-12.7,34.8-33.4,40.1-56.7
				c3-13.1,3.2-26.7,1.1-40c-0.1-0.9-1.1-1.8-2-2c-30.5-4.8-61.8,3.5-84,25.4C1876.8,2508.1,1880.8,2512.1,1883.4,2509.5z"/>
		</g>
	</g>
	<g>
		<g>
			<path class="st0" d="M1876.9,2379.2c15.3-15.1,37-21.1,58.1-17.7c-0.7-0.7-1.3-1.3-2-2c3.3,21-2.6,42.9-17.7,58.1
				c-15.2,15.2-37.1,21-58.1,17.7c0.7,0.7,1.3,1.3,2,2C1855.9,2416.2,1861.8,2394.6,1876.9,2379.2c2.5-2.6-1.4-6.6-4-4
				c-16.6,16.9-22.8,40.4-19.2,63.6c0.1,0.9,1.1,1.8,2,2c17.8,2.8,36.3,0,51.7-9.7c15.2-9.6,26.1-25.1,30.2-42.6
				c2.3-10,2.5-20.3,0.9-30.4c-0.1-0.9-1.1-1.8-2-2c-23.1-3.6-46.7,2.6-63.6,19.2C1870.4,2377.8,1874.3,2381.8,1876.9,2379.2z"/>
		</g>
	</g>
	<g>
		<g>
			<path class="st0" d="M1794.5,2492.5c-15.1-15.3-21.1-37-17.7-58.1c-0.7,0.7-1.3,1.3-2,2c21-3.3,42.9,2.6,58.1,17.7
				c15.2,15.2,21,37.1,17.7,58.1c0.7-0.7,1.3-1.3,2-2C1831.5,2513.6,1809.8,2507.6,1794.5,2492.5c-2.6-2.5-6.6,1.4-4,4
				c16.9,16.6,40.4,22.8,63.6,19.2c0.9-0.1,1.8-1.1,2-2c2.8-17.8,0-36.3-9.7-51.7c-9.6-15.2-25.1-26.1-42.6-30.2
				c-10-2.3-20.3-2.5-30.4-0.9c-0.9,0.1-1.8,1.1-2,2c-3.6,23.1,2.6,46.7,19.2,63.6C1793,2499.1,1797,2495.1,1794.5,2492.5z"/>
		</g>
	</g>
	<g>
		<g>
			<path class="st0" d="M1871.8,2234.4c12.3-12.1,29.5-16.8,46.4-14.2c-0.7-0.7-1.3-1.3-2-2c2.6,16.8-2.1,34.3-14.2,46.4
				c-12.2,12.1-29.7,16.8-46.4,14.2c0.7,0.7,1.3,1.3,2,2C1855,2264,1859.7,2246.7,1871.8,2234.4c2.5-2.6-1.4-6.6-4-4
				c-13.6,13.8-18.6,33-15.7,51.9c0.1,0.9,1.1,1.8,2,2c18.8,2.9,38.2-2,51.9-15.7c13.7-13.7,18.6-33.1,15.7-51.9
				c-0.1-0.9-1.1-1.8-2-2c-18.9-2.9-38.1,2.1-51.9,15.7C1865.3,2233,1869.2,2237,1871.8,2234.4z"/>
		</g>
	</g>
	<g>
		<g>
			<path class="st0" d="M1822.2,2205.9c-8-8.2-11.1-19.5-9.4-30.7c-0.7,0.7-1.3,1.3-2,2c11.1-1.7,22.7,1.4,30.7,9.4
				c8,8,11.1,19.6,9.4,30.7c0.7-0.7,1.3-1.3,2-2C1841.8,2217.1,1830.4,2213.9,1822.2,2205.9c-2.6-2.5-6.6,1.4-4,4
				c9.7,9.5,22.9,12.9,36.2,10.9c0.9-0.1,1.8-1.1,2-2c2-13.1-1.3-26.6-10.9-36.2c-9.6-9.6-23.1-12.9-36.2-10.9c-0.9,0.1-1.8,1.1-2,2
				c-2,13.3,1.4,26.5,10.9,36.2C1820.8,2212.5,1824.8,2208.5,1822.2,2205.9z"/>
		</g>
	</g>
	<g>
		<g>
			<path class="st0" d="M1806.2,2337.1c-12.1-12.3-16.8-29.5-14.2-46.4c-0.7,0.7-1.3,1.3-2,2c16.8-2.6,34.3,2.1,46.4,14.2
				c12.1,12.2,16.8,29.7,14.2,46.4c0.7-0.7,1.3-1.3,2-2C1835.8,2354,1818.5,2349.2,1806.2,2337.1c-2.6-2.5-6.6,1.4-4,4
				c13.8,13.6,33,18.6,51.9,15.7c0.9-0.1,1.8-1.1,2-2c2.9-18.8-2-38.2-15.7-51.9c-13.7-13.7-33.1-18.6-51.9-15.7
				c-0.9,0.1-1.8,1.1-2,2c-2.9,18.9,2.1,38.1,15.7,51.9C1804.8,2343.7,1808.8,2339.7,1806.2,2337.1z"/>
		</g>
	</g>
</g>
<path class="st1" d="M164,2981L164,2981c3.3,0,6-2.7,6-6v-903c0-3.3-2.7-6-6-6h0c-3.3,0-6,2.7-6,6v903
	C158,2978.3,160.7,2981,164,2981z"/>
<g>
	<g>
		
			<ellipse transform="matrix(0.7071 -0.7071 0.7071 0.7071 -1956.2249 873.2553)" class="st1" cx="76" cy="2798" rx="64.1" ry="120"/>
	</g>
</g>
<g>
	<g>
		
			<ellipse transform="matrix(0.7071 -0.7071 0.7071 0.7071 -1820.2371 963.559)" class="st1" cx="253" cy="2679" rx="120" ry="64.1"/>
	</g>
</g>
<g>
	<g>
		
			<ellipse transform="matrix(0.7071 -0.7071 0.7071 0.7071 -1671.0193 883.708)" class="st1" cx="231.2" cy="2459" rx="89.8" ry="48"/>
	</g>
</g>
<g>
	<g>
		
			<ellipse transform="matrix(0.7071 -0.7071 0.7071 0.7071 -1794.5341 825.5172)" class="st1" cx="99.2" cy="2579" rx="48" ry="89.8"/>
	</g>
</g>
<g>
	<g>
		
			<ellipse transform="matrix(0.7071 -0.7071 0.7071 0.7071 -1506.7894 803.5303)" class="st1" cx="216.6" cy="2220.6" rx="72.6" ry="38.8"/>
	</g>
</g>
<g>
	<g>
		
			<ellipse transform="matrix(0.7071 -0.7071 0.7071 0.7071 -1472.2362 716.2083)" class="st1" cx="128.4" cy="2135.3" rx="26.4" ry="49.4"/>
	</g>
</g>
<g>
	<g>
		
			<ellipse transform="matrix(0.7071 -0.7071 0.7071 0.7071 -1619.5676 763.2597)" class="st1" cx="111.6" cy="2336.6" rx="38.8" ry="72.6"/>
	</g>
</g>
<g>
	<circle class="st2" cx="1716.5" cy="2430.5" r="126"/>
</g>
<g>
	<g>
		<path d="M-396.4,2046.2c-5.9,25.1-8.3,51.6-9,77.3c-0.9,34.3,3.8,68.5,7.7,102.5c3.4,29.4,6.9,58.8,6,88.4
			c-0.7,23.1-0.6,46.2-0.8,69.3c-0.2,27.6-0.3,55.2-0.9,82.8c-0.4,22.7-2.1,45.3-3.6,68c-2,30.3-4.2,60.5-5.6,90.8
			c-1.1,21.7-1.2,42.7,1.3,64.3c3.6,30.7,8.4,61.2,10.2,92.1c0.4,6.6,0.6,13.2,0.4,19.8c-0.1,5.3-1.6,11-1,16.3
			c1.1,10.7,11.9,11.1,20.1,8.7c2.6-0.7,5.2-1.7,7.6-2.9c0.9-0.5,1.5-1.6,1.5-2.6c0.6-26.3-0.1-52.7-1.5-78.9
			c-1.1-20.3-3.6-40.4-5.1-60.7c-0.9-13.2-0.7-26.4-0.4-39.6c0.9-30.2,3.2-60.3,6-90.4c1.6-17.5,4.3-35.1,5-52.6
			c2.4-52.4,0.2-105.2-0.7-157.7c-0.3-15.1-0.4-29.9-1.8-45c-2.6-27.6-5.8-55.1-8.3-82.7c-2.5-27.2-5.3-54.7-4.4-82.1
			c0.8-25.9,7.2-51.9,12.7-77.1c0.5-2.2,1-4.4,1.4-6.6c0.4-1.9-0.9-3.8-2.9-3.8c-10.3,0-20.7,0-31,0c-3.9,0-3.9,6,0,6
			c10.3,0,20.7,0,31,0c-1-1.3-1.9-2.5-2.9-3.8c-5.1,22.4-9.8,45.1-12.9,67.9c-3.3,24.8-1.1,50.1,0.8,74.9
			c2.3,29.7,5.5,59.2,8.5,88.8c1.7,16.3,3.2,32.5,3.4,48.9c0.7,51.9,2.4,103.8,1.5,155.7c-0.3,17.1-2,33.8-3.8,50.8
			c-2.9,28.6-5.3,57.3-6.8,86c-0.8,14.8-1.3,29.7-1.2,44.5c0.1,15,2,29.7,3.3,44.6c3.2,35.5,4.4,71.2,4,106.8c0,2,0,3.9-0.1,5.9
			c0.5-0.9,1-1.7,1.5-2.6c-4.1,2-14.9,6.4-18,1.3c-2.3-3.7,0.2-11.6,0.4-15.8c0.3-6.2,0.1-12.5-0.2-18.7c-1.4-30.1-6-60-9.7-89.9
			c-1.3-10.7-2.7-21.4-3-32.2c-0.2-10.2,0.2-20.4,0.7-30.6c1.3-28.9,3.3-57.8,5.2-86.6c1.6-23.8,3.5-47.7,4.2-71.6
			c0.7-25.1,0.7-50.3,0.9-75.4c0.2-25.3,0.3-50.7,0.7-76c0.2-8.9,0.6-17.8,0.4-26.7c-0.4-15.5-1.9-30.9-3.6-46.4
			c-3.6-33.8-8.6-67.6-10.2-101.6c-1.4-31.7,1.2-64.1,7.4-95.2c0.4-1.8,0.7-3.5,1.1-5.3C-389.7,2044-395.5,2042.4-396.4,2046.2z"/>
	</g>
</g>
<g>
	<g>
		<path d="M-389.1,2321c-17.9-0.7-36.2,7.8-46.8,22.2c-15.9,21.5-20.3,51-22.6,76.9c-0.3,3.5,5,3.9,5.9,0.8
			c4.5-14.9,9.8-29.7,16.5-43.8c3.7-7.8,8-17.1,15.1-22.5c8.5-6.4,20.7-10.5,31.5-10.6c1.6,0,3-1.4,3-3c0.1-5.7,0.2-11.4,0.4-17
			c0.1-3.9-5.9-3.9-6,0c-0.1,5.7-0.2,11.4-0.4,17c1-1,2-2,3-3c-11.4,0.1-23.5,4.3-33,10.4c-8.1,5.3-13.1,14.2-17.3,22.6
			c-7.7,15.3-13.7,31.8-18.6,48.2c2,0.3,3.9,0.5,5.9,0.8c2.1-24.2,6.3-51.3,20.3-71.8c9.4-13.8,26.4-21.9,43.1-21.2
			C-385.3,2327.1-385.3,2321.1-389.1,2321z"/>
	</g>
</g>
<g>
	<g>
		<path d="M-411.7,2325.1c-36.4-6.9-75.8-13-109.9,5.6c-19.9,10.8-35.4,28.8-41.1,51c-7.7,30,3.5,59.5,12.3,87.9
			c4.8,15.3,9.4,31.1,10.2,47.2c0.7,13.9-0.6,27.8-2.2,41.6c-1.5,13.1-3.5,26.1-5.1,39.1c-0.7,5.9-3.5,16.1,5,17.2
			c8.3,1,18.1-5.3,24.9-9.3c10.9-6.5,21.5-14.5,30-23.9c13.6-15,25.2-32.4,34.8-50.2c14.4-26.6,24.4-55.4,26.1-85.7
			c0.8-14.4,0.4-28.9,0.2-43.3c-0.1-12.3-0.6-25,1.9-37.1c0.9-4.2,2.1-8.2,4.6-11.7c2.2-3.2-3-6.2-5.2-3c-5,7.1-6.1,16.4-6.8,24.7
			c-1,12.6-0.6,25.4-0.4,38c0.2,13.7,0.3,27.5-1,41.2c-1.4,14.6-5.3,28.7-10.3,42.5c-8.8,23.9-21.6,46.4-37,66.7
			c-12.5,16.5-27.4,30.2-45.8,39.9c-3.9,2-8.1,4.1-12.4,5c-3.3,0.6-3.7,0.9-3.5-2c0.6-10.5,2.5-21,3.9-31.5
			c3.6-26.7,7-53.7,1.2-80.3c-6.3-29.3-21-57.6-22.1-87.8c-0.9-24.8,9.3-48,28.9-63.3c31.3-24.3,72.3-21.3,109.1-14.3
			c2.7,0.5,5.4,1,8.1,1.5C-409.5,2331.6-407.9,2325.8-411.7,2325.1L-411.7,2325.1z"/>
	</g>
</g>
<g>
	<g>
		<path d="M-363.4,2267.3c10.7-9,23.3-16.2,35.7-22.4c23.7-11.9,48.9-19.2,75.5-19.7c14.6-0.2,29.6,1,43.4,6.2
			c3.6,1.4,5.2-4.4,1.6-5.8c-23.5-8.9-52.2-8.3-76.5-3.1c-25.1,5.4-49.3,16.7-70.6,30.8c-4.6,3-9.1,6.2-13.4,9.7
			C-370.6,2265.6-366.4,2269.8-363.4,2267.3L-363.4,2267.3z"/>
	</g>
</g>
<g>
	<g>
		<path d="M-186.2,2194.6c-29.1-7.3-60.2-10.8-89.7-4c-17.6,4-33.1,13.3-43.9,27.8c-4.1,5.4-8,11.1-11.3,17
			c-1.5,2.6-1.2,4.9-0.9,7.9c1.7,15.6,10.8,28.2,19.5,40.7c8.3,11.9,18.6,21.2,31,28.7c16.8,10.1,34.3,14.9,53.8,16.6
			c4.1,0.3,8.2,0.6,12.3,0.6c2.5,0,5.4,0.4,7-2c1.3-1.9,1-4.3,0.6-6.4c-0.7-4.6-2.2-9.1-3.2-13.6c-4.6-20.9-5.1-43.6,1.2-64.2
			c4.8-15.7,12.9-32.9,25-44.2c2.8-2.6-1.4-6.9-4.2-4.2c-10.1,9.5-16.6,22-22.1,34.6c-5.7,13.2-8.7,27.3-9.2,41.6
			c-0.3,9.1,0.4,18.1,1.6,27.1c0.7,5,1.6,9.9,2.8,14.8c0.5,1.9,1,3.8,1.4,5.6c0.4,1.5,0.3,3.9,0.9,5.3c0.2,0.6,1.7-0.1,0.5-0.5
			c-0.7-0.2-1.7,0-2.4,0c-2,0-3.9-0.1-5.9-0.2c-4.1-0.2-8.2-0.5-12.3-1c-9-1.1-18.1-2.8-26.6-5.9c-14.8-5.4-29.8-15.2-40.2-27
			c-3.9-4.4-7.2-9.2-10.4-14.1c-4.5-6.7-9.4-13.1-12.2-20.8c-1.2-3.3-2.2-6.7-2.7-10.2c-0.3-1.7,0.2-4.5-0.4-6
			c-0.3-0.8,1.2-1.4-0.4,0.8c0.3-0.4,0.4-0.8,0.7-1.1c1.6-2,2.8-4.5,4.2-6.7c3.8-5.9,7.8-12,12.7-17c7-7,15.8-12.3,25.1-15.6
			c30.5-10.8,65.5-6.5,96.2,1.2C-184.1,2201.3-182.5,2195.6-186.2,2194.6z"/>
	</g>
</g>
<g>
	<g>
		<path d="M-360.1,2528.8c6.5-5.4,15.1-9.2,23.6-8.8c-1-0.7-1.9-1.5-2.9-2.2c2.5,10,11.9,18.3,20.4,23.2
			c22.8,13.3,51.8,12.6,77.1,9.7c24.2-2.7,48-8.3,71.6-14.2c22-5.5,44.7-7.8,67.2-9.4c11.2-0.8,22.4-1.3,33.6-1
			c6.3,0.2,19.3,2.5,22.1-5.5c3.1-8.9-6-20.3-11.2-26.5c-9.6-11.7-21.6-21.3-33.9-30c-22.2-15.8-46.4-26.5-73.3-31.1
			c-25.7-4.4-52.8-6.9-78.8-3.5c-24.4,3.2-50.8,10.6-70.9,25.3c-10.7,7.8-21.6,17.5-26.4,30.1c-3.5,9.3-3,19.8,0.7,29
			c0.7,1.8,1.5,3.6,2.6,5.2c2.1,3.2,7.3,0.2,5.2-3c-3-4.6-4.6-10.5-4.8-15.9c-0.7-14,7.6-24.5,17.5-33.4
			c18.6-16.8,41.7-23.9,65.7-29.3c23.8-5.3,49-3.8,73-0.8c24.5,3,47.6,9,69.2,21.5c11.8,6.8,23.2,14.9,33.5,23.8
			c9.5,8.2,20.2,18,24.9,29.9c1.1,2.7,2.9,7-0.7,8.2c-4.1,1.3-9.6,0.4-13.8,0.3c-10.1-0.3-20.2,0.1-30.3,0.7
			c-21.6,1.4-43.6,3.2-64.7,7.9c-19.5,4.4-38.6,9.7-58.3,13.1c-25,4.3-52.2,7.4-77,0.7c-13.3-3.6-28.3-11.4-33.7-24.5
			c-0.3-0.6-0.5-1.2-0.6-1.9c-0.3-1.3-1.6-2.1-2.9-2.2c-10.1-0.4-20.1,4.2-27.8,10.5C-367.3,2527-363,2531.2-360.1,2528.8
			L-360.1,2528.8z"/>
	</g>
</g>
<g>
	<g>
		<path d="M-335.5,2519.1c22.4-13.9,48-24.6,73.7-30.2c21-4.5,43.2-4.8,64.6-4.2c16.9,0.5,33.7,1.9,50.4,4.4
			c7.7,1.2,15.5,2.4,23,4.3c3.8,0.9,5.4-4.9,1.6-5.8c-22.2-5.4-45.5-7.7-68.3-8.7c-21.4-0.9-43.5-0.7-64.7,2.7
			c-18.8,3-37,9.5-54.3,17.3c-9.9,4.5-19.8,9.3-29,15C-341.8,2515.9-338.8,2521.1-335.5,2519.1L-335.5,2519.1z"/>
	</g>
</g>
<g>
	<g>
		
			<rect x="1851" y="2506" transform="matrix(0.7974 -0.6035 0.6035 0.7974 -1209.7028 1660.3296)" class="st2" width="33" height="251"/>
		<g>
			<path d="M1954.9,2719c-8.8,6.6-17.5,13.3-26.3,19.9c1.4,0.4,2.7,0.7,4.1,1.1c-17-22.5-34.1-45-51.1-67.6
				c-27.2-35.9-54.4-71.8-81.6-107.7c-6.3-8.3-12.5-16.6-18.8-24.8c-0.4,1.4-0.7,2.7-1.1,4.1c8.8-6.6,17.5-13.3,26.3-19.9
				c-1.4-0.4-2.7-0.7-4.1-1.1c17,22.5,34.1,45,51.1,67.6c27.2,35.9,54.4,71.8,81.6,107.7c6.3,8.3,12.5,16.6,18.8,24.8
				c2.3,3,7.5,0.1,5.2-3c-17-22.5-34.1-45-51.1-67.6c-27.2-35.9-54.4-71.8-81.6-107.7c-6.3-8.3-12.5-16.6-18.8-24.8
				c-0.9-1.2-2.7-2.1-4.1-1.1c-8.8,6.6-17.5,13.3-26.3,19.9c-1.2,0.9-2.1,2.7-1.1,4.1c17,22.5,34.1,45,51.1,67.6
				c27.2,35.9,54.4,71.8,81.6,107.7c6.3,8.3,12.5,16.6,18.8,24.8c0.9,1.2,2.7,2.1,4.1,1.1c8.8-6.6,17.5-13.3,26.3-19.9
				C1961,2721.9,1958,2716.7,1954.9,2719z"/>
		</g>
	</g>
	<g>
		<g>
			<path d="M1845.5,2430.5c-0.3-53.5-33.9-102.2-84.1-121c-50.9-19-110-3-144.5,38.9c-34.3,41.7-39,102.1-11,148.4
				c27.9,46.3,83.1,70.6,136.1,60c52.1-10.4,93.8-53.8,101.9-106.3C1844.9,2444,1845.5,2437.3,1845.5,2430.5c0-3.9-6-3.9-6,0
				c-0.3,51.1-32.6,98.2-80.9,115.6c-48.4,17.5-103.5,2.5-136.5-36.9c-33.3-39.7-37.6-97.9-10.9-142.2c26.6-44.1,79.5-67.5,130-57.1
				c49.5,10.1,88.6,50.8,96.8,100.6c1.1,6.6,1.5,13.2,1.6,19.9C1839.5,2434.4,1845.5,2434.4,1845.5,2430.5z"/>
		</g>
	</g>
	<g>
		<circle class="st3" cx="1716.5" cy="2430.5" r="97.5"/>
	</g>
	<g>
		<g>
			<path d="M1815.5,2430.5c-0.3-41.2-26.1-78.6-64.8-92.9c-39-14.5-84.4-2-110.7,30.2c-26.2,32.2-29.7,78.7-8,114.2
				c21.6,35.4,64,53.7,104.6,45.5C1782.2,2518.2,1815.2,2476.8,1815.5,2430.5c0-3.9-6-3.9-6,0c-0.3,38.8-24.9,74.5-61.7,87.6
				c-36.5,13-77.9,1.6-102.8-28.1c-25.3-30.1-28.4-74.4-7.9-107.9c20.1-33,59.9-50.4,97.8-42.8c43.1,8.7,74.3,47.4,74.6,91.2
				C1809.5,2434.4,1815.5,2434.4,1815.5,2430.5z"/>
		</g>
	</g>
	<g>
		<g>
			<g>
				<path d="M1647.2,2374.8c7.1,6.5,14.2,12.9,21.2,19.4c5.8,5.3,10.4,15.8,13.7,23.4c1.2,2.7,2.5,5.7,2.9,8.7
					c0.6,3.8-1.8,6.5-4.6,8.9c-3.5,3-8.6,5.9-13.4,5.1c-4-0.6-7.6-5-11.1-7.1c-3.7-2.2-7.6-4-10.7-7c-4-4-6.3-9.5-9.7-14
					c-2.2-3-4.7-5.8-7.3-8.4c-0.7-0.7-1.5-1.5-2.2-2.2c-0.9-0.7-0.4,1.1,0,0.1c2.8-7.8,10-30.5,21.6-26.6c1.4,0.5,2-1.7,0.6-2.2
					c-13.4-4.5-21.7,19.4-24.6,28.7c-0.1,0.4,0,0.8,0.3,1.1c4.5,4,8.6,8.8,11.9,13.9c2.3,3.4,4,7.2,6.8,10.2
					c2.4,2.6,5.3,4.5,8.4,6.3c3.2,1.8,6.3,3.4,9.1,5.8c2.1,1.8,3.8,3.3,6.7,3.7c6,0.8,12.4-2.9,16.5-7c3.2-3.2,4.6-6.2,3.7-10.6
					c-1.1-5.1-3.6-10.1-6-14.7c-3-5.9-6.1-13.1-11.1-17.7c-7.1-6.5-14.2-12.9-21.2-19.4C1647.7,2372.2,1646.1,2373.8,1647.2,2374.8z
					"/>
			</g>
		</g>
		<g>
			<g>
				<path d="M1720.2,2382.8c7.1,6.5,14.2,12.9,21.2,19.4c5.8,5.3,10.4,15.8,13.7,23.4c1.2,2.7,2.5,5.7,2.9,8.7
					c0.6,3.8-1.8,6.5-4.6,8.9c-3.5,3-8.6,5.9-13.4,5.1c-4-0.6-7.6-5-11.1-7.1c-3.7-2.2-7.6-4-10.7-7c-4-4-6.3-9.5-9.7-14
					c-2.2-3-4.7-5.8-7.3-8.4c-0.7-0.7-1.5-1.5-2.2-2.2c-0.9-0.7-0.4,1.1,0,0.1c2.8-7.8,10-30.5,21.6-26.6c1.4,0.5,2-1.7,0.6-2.2
					c-13.4-4.5-21.7,19.4-24.6,28.7c-0.1,0.4,0,0.8,0.3,1.1c4.5,4,8.6,8.8,11.9,13.9c2.3,3.4,4,7.2,6.8,10.2
					c2.4,2.6,5.3,4.5,8.4,6.3c3.2,1.8,6.3,3.4,9.1,5.8c2.1,1.8,3.8,3.3,6.7,3.7c6,0.8,12.4-2.9,16.5-7c3.2-3.2,4.6-6.2,3.7-10.6
					c-1.1-5.1-3.6-10.1-6-14.7c-3-5.9-6.1-13.1-11.1-17.7c-7.1-6.5-14.2-12.9-21.2-19.4C1720.7,2380.2,1719.1,2381.8,1720.2,2382.8z
					"/>
			</g>
		</g>
		<g>
			<g>
				<path d="M1697.2,2459.8c7.1,6.5,14.2,12.9,21.2,19.4c5.8,5.3,10.4,15.8,13.7,23.4c1.2,2.7,2.5,5.7,2.9,8.7
					c0.6,3.8-1.8,6.5-4.6,8.9c-3.5,3-8.6,5.9-13.4,5.1c-4-0.6-7.6-5-11.1-7.1c-3.7-2.2-7.6-4-10.7-7c-4-4-6.3-9.5-9.7-14
					c-2.2-3-4.7-5.8-7.3-8.4c-0.7-0.7-1.5-1.5-2.2-2.2c-0.9-0.7-0.4,1.1,0,0.1c2.8-7.8,10-30.5,21.6-26.6c1.4,0.5,2-1.7,0.6-2.2
					c-13.4-4.5-21.7,19.4-24.6,28.7c-0.1,0.4,0,0.8,0.3,1.1c4.5,4,8.6,8.8,11.9,13.9c2.3,3.4,4,7.2,6.8,10.2
					c2.4,2.6,5.3,4.5,8.4,6.3c3.2,1.8,6.3,3.4,9.1,5.8c2.1,1.8,3.8,3.3,6.7,3.7c6,0.8,12.4-2.9,16.5-7c3.2-3.2,4.6-6.2,3.7-10.6
					c-1.1-5.1-3.6-10.1-6-14.7c-3-5.9-6.1-13.1-11.1-17.7c-7.1-6.5-14.2-12.9-21.2-19.4C1697.7,2457.2,1696.1,2458.8,1697.2,2459.8z
					"/>
			</g>
		</g>
		<g>
			<g>
				<path d="M1665.4,2441.5c-0.8,7.6-1,15.3-0.5,22.9c0.5,7.6,1.4,20,9.5,23.6c1.3,0.6,2.5-1.4,1.1-1.9c-8.4-3.6-8.4-18.1-8.6-25.6
					c-0.2-6.3,0-12.6,0.7-18.9C1667.8,2440.1,1665.6,2440.1,1665.4,2441.5L1665.4,2441.5z"/>
			</g>
		</g>
		<g>
			<g>
				<path d="M1687,2425.9c4-5.4,8-10.9,12-16.3c0.9-1.2-1.1-2.3-1.9-1.1c-4,5.4-8,10.9-12,16.3
					C1684.2,2425.9,1686.1,2427,1687,2425.9L1687,2425.9z"/>
			</g>
		</g>
		<g>
			<g>
				<path d="M1715.7,2433.2c-7.3,8.2-14.7,16.4-22,24.5c-1,1.1,0.6,2.7,1.6,1.6c7.3-8.2,14.7-16.4,22-24.5
					C1718.3,2433.7,1716.7,2432.1,1715.7,2433.2L1715.7,2433.2z"/>
			</g>
		</g>
		<g>
			<g>
				<path d="M1662.2,2387c9.9-9.7,20.6-20.4,32.8-27.2c5.3-3,18.6-9.2,23.4-2.4c4.8,6.8,7.8,18.2-1,23.1c-1.3,0.7-0.1,2.6,1.1,1.9
					c8.5-4.7,7.7-14.2,4.1-22c-1.1-2.3-2.5-5.5-4.8-7c-2.9-1.8-7.2-1.3-10.3-0.7c-11.5,2-20.9,9.5-29.5,16.8
					c-6,5.1-11.8,10.4-17.4,15.9C1659.6,2386.4,1661.1,2388,1662.2,2387L1662.2,2387z"/>
			</g>
		</g>
		<g>
			<g>
				<path d="M1718,2354.6c2.6-5.8,5.9-13.1,5.2-19.6c-0.2-1.4-2.4-1.4-2.2,0c0.7,6.1-2.4,13-4.8,18.4
					C1715.4,2354.7,1717.4,2355.9,1718,2354.6L1718,2354.6z"/>
			</g>
		</g>
		<g>
			<g>
				<path d="M1723.9,2370.5c5.5,3.7,11.2,7.2,17,10.5c8,4.6,16.8,9.8,26.4,8.3c3.7-0.6,8.6-2.1,10.8-5.5c1.5-2.4,0.8-5.4,0.6-8
					c-0.6-7-1.3-13.9-2.1-20.8c-0.2-1.4-2.4-1.4-2.2,0c0.6,5.6,1.2,11.3,1.7,16.9c0.3,2.7,1.1,6.1,0.7,8.8c-1,6.7-12.6,7.3-17.6,6.3
					c-7.5-1.5-14.7-6.3-21.2-10.2c-4.4-2.6-8.8-5.3-13-8.2C1723.9,2367.7,1722.7,2369.7,1723.9,2370.5L1723.9,2370.5z"/>
			</g>
		</g>
		<g>
			<g>
				<path d="M1666.4,2474c-5.8,3-13.5,3-19.8,3.4c-4.3,0.3-8.6,0.4-12.9,0.4c-1.4,0-1.5,2.3,0,2.2c5.1,0,10.1-0.2,15.2-0.6
					c6.1-0.5,13.2-0.7,18.7-3.6C1668.9,2475.3,1667.7,2473.4,1666.4,2474L1666.4,2474z"/>
			</g>
		</g>
		<g>
			<g>
				<path d="M1721.1,2482.3c3.5,7.1,9.8,12.2,17.7,13.3c5.4,0.7,10.9,0.7,16.3,0.1c3.4-0.4,8-0.8,10.8-3.1c2.5-2,2.8-5.7,3.2-8.7
					c0.6-4.5,0.8-9.2,0.5-13.8c-0.4-5.7-5.1-7.3-9.6-10.1c-6.5-4-13.1-7.8-19.7-11.6c-1.3-0.7-2.4,1.2-1.1,1.9
					c5.8,3.3,11.6,6.6,17.3,10c3,1.8,7.1,3.6,9.6,6.1c2.2,2.2,1.6,5.8,1.5,8.8c-0.1,4.1,0.4,11-2.1,14.5c-2.9,4-11.7,3.8-16,3.9
					c-6.1,0.2-13.2,0.3-18.5-3.4c-3.3-2.3-6-5.7-7.8-9.2C1722.4,2479.9,1720.5,2481,1721.1,2482.3L1721.1,2482.3z"/>
			</g>
		</g>
		<g>
			<g>
				<path d="M1759,2437.1c10,0,20.7,0.8,29.6,5.7c4.8,2.6,9.3,5.8,13.7,9c1.2,0.9,2.5,1.8,3.7,2.8c0.4,0.3,0-1.4-0.2-0.6
					c-0.1,0.5-0.2,1-0.4,1.4c-2.3,6.5-3.8,13.6-5.6,20.3c-0.1,0.3,1.5-0.4,0.6-0.6c-0.5-0.1-1,0.1-1.5,0.1c-2-0.1-4,0.2-6,0.3
					c-2,0.1-3.9,0.2-5.9,0.3c-0.5,0-3.4,0-2.5,0.2c-3.1-1-6.4-4.2-9.1-6c-2.8-1.8-5.6-3.7-8.3-5.5c-1.2-0.8-2.3,1.2-1.1,1.9
					c2.6,1.7,5.3,3.5,7.9,5.2c2.8,1.9,6.2,5,9.4,6.2c2.1,0.8,5,0.1,7.3,0c3.5-0.1,6.9-0.3,10.4-0.4c0.5,0,1-0.3,1.1-0.8
					c2-7.4,4.1-14.9,6.1-22.3c0.1-0.4,0-0.9-0.3-1.1c-6.7-5.3-13.9-10.7-21.8-14.2c-8.2-3.6-18.1-4.1-27-4.1
					C1757.6,2434.9,1757.6,2437.1,1759,2437.1L1759,2437.1z"/>
			</g>
		</g>
		<g>
			<g>
				<path d="M1764.9,2491.3c1.6,6.2,3.2,12.4,4.8,18.7c0.4,1.4,2.5,0.8,2.2-0.6c-1.6-6.2-3.2-12.4-4.8-18.7
					C1766.7,2489.3,1764.6,2489.9,1764.9,2491.3L1764.9,2491.3z"/>
			</g>
		</g>
		<g>
			<g>
				<path d="M1752.2,2417.6c5.2,1.8,11,3.2,16.5,3.1c7.7-0.2,10.5-5.4,12.8-12.1c1.1-3.2,4.9-11.9,1.7-14.8c-2-1.8-5.8-2.7-8.2-3.8
					c-2.1-0.9-4.2-1.8-6.3-2.6c-1.3-0.5-1.9,1.6-0.6,2.2c3.8,1.6,7.7,3.1,11.4,4.9c2.4,1.1,2.7,1.4,2.3,4.1
					c-0.5,3.2-1.4,6.4-2.4,9.4c-1.1,3-2.6,7.5-5.5,9.3c-2.5,1.5-6.1,1.3-8.9,1c-4.1-0.4-8.3-1.5-12.2-2.8
					C1751.4,2414.9,1750.8,2417.1,1752.2,2417.6L1752.2,2417.6z"/>
			</g>
		</g>
		<g>
			<g>
				<path d="M1782.2,2395.8c4.1,3.9,8.4,7.8,12.7,11.5c3.6,3.1,9.1,9.3,14.1,9.8c1.4,0.1,1.4-2.1,0-2.2c-2.3-0.2-5-3-6.7-4.3
					c-2.8-2.2-5.5-4.5-8.1-6.9c-3.5-3.1-7-6.3-10.3-9.5C1782.7,2393.2,1781.2,2394.8,1782.2,2395.8L1782.2,2395.8z"/>
			</g>
		</g>
		<g>
			<g>
				<path d="M1776.3,2418.1c2.7-0.4,5.6-0.6,8.3-0.4c5,0.4,7.8,2,7.1,7.1c-0.7,5.3-3,10.7-5.3,15.5c-0.6,1.3,1.3,2.4,1.9,1.1
					c2.7-5.7,7-14.1,5.6-20.5c-1.4-7.2-13.2-5.9-18.4-5C1774.3,2416.1,1774.9,2418.3,1776.3,2418.1L1776.3,2418.1z"/>
			</g>
		</g>
	</g>
	<circle cx="1695" cy="2442" r="3"/>
	<circle cx="1689" cy="2385" r="3"/>
	<circle cx="1729" cy="2416" r="3"/>
	<circle cx="1706" cy="2487" r="3"/>
	<circle cx="1742" cy="2469" r="3"/>
	<circle cx="1785" cy="2456" r="3"/>
	<circle cx="1773" cy="2429" r="3"/>
	<circle cx="1766" cy="2407" r="3"/>
	<circle cx="1749" cy="2359" r="3"/>
	<circle cx="1680" cy="2351" r="3"/>
</g>
<circle cx="1638" cy="2450" r="3"/>
<circle cx="1657" cy="2414" r="3"/>
<line class="st4" x1="490.5" y1="3055.5" x2="320.5" y2="2885.5"/>
<g>
	<g>
		<path d="M-1285-19.5c-13.8-12.5-29-24.1-45.3-33.1c-5.1-2.8-10.5-5.3-16-7.1c-7-2.3-14.6-2.8-21.9-3.9c-13.8-1.9-29-4.4-42.5,0.2
			c-10,3.4-17.5,11.4-24.7,18.7c-9.4,9.6-18.4,19.6-28.4,28.6c-7.2,6.4-14.5,10.3-23.2,14.2c-9.7,4.3-19.3,8.9-28.8,13.5
			c-16.7,8-33.3,16.2-49.9,24.5c-2,1-1.9,4.1,0,5.2c15.9,8.8,32.3,16.8,49.1,23.8c11.9,5,24.1,9.8,36.7,12.4
			c12.3,2.6,23.5,1.5,34.7-4.3c12.6-6.5,23.3-16.7,32.4-27.4c5.2-6.1,11.1-12.8,13.6-20.5c3.4-10.2,5.4-21,11.8-29.9
			c7.5-10.6,19.1-10.8,31-11.3c23.1-0.9,46.3,0.1,69.3,1.4c3.9,0.2,3.8-5.8,0-6c-19.5-1.1-39-1.8-58.5-1.6
			c-10.6,0.1-23.5-0.8-33.5,3.2c-10.9,4.5-16.8,15.5-20.7,26c-2.8,7.6-3.8,15.9-8.3,22.7c-6.7,10.2-15.2,19.5-24.4,27.4
			c-10.3,8.8-23.1,16.8-37.1,15.8c-11.9-0.8-23.7-5.2-34.8-9.4c-20-7.7-39.5-17.1-58.3-27.5c0,1.7,0,3.5,0,5.2
			c13.3-6.7,26.7-13.2,40.1-19.8c9.9-4.8,19.7-9.6,29.7-14.2c7.2-3.4,15.4-6,22.1-10.3c20.1-13,33.5-34.1,52-49.1
			c9.7-7.8,21.9-8.5,33.8-7.6c9,0.7,17.9,2.2,26.9,3.5c5.9,0.8,11.3,2.3,16.7,4.7c19.1,8.5,36.7,22.1,52.2,36.1
			C-1286.4-12.7-1282.2-16.9-1285-19.5z"/>
	</g>
</g>
<g>
	<g>
		<path d="M-1460.8,78.7c23.5-6.1,46.7-14.1,69.1-23.6c14.9-6.3,29.3-13.6,42.5-23.2c12.3-8.9,24.7-17.7,37.1-26.6
			c9.1-6.5,18.2-13,27.3-19.4c3.1-2.2,0.1-7.4-3-5.2c-20.1,14.2-40.1,28.5-60.1,42.8c-26.5,19.1-56.3,31.2-87.3,41.2
			c-9,2.9-18.1,5.7-27.2,8.1C-1466.1,73.9-1464.6,79.7-1460.8,78.7L-1460.8,78.7z"/>
	</g>
</g>
<g>
	<g>
		<path d="M-1216.4,37.6c0.9-27.5,1.8-54.9,2.7-82.4c1.2-36.3,2.4-72.7,3.6-109c0.2-6.1-0.4-11-1.4-17.1c-3.5-20.4-7-40.7-10.6-61.1
			c-4.4-24.7-8.8-49.4-13.6-74.1c-5.3-27-12.5-52.9-24.8-77.6c-18.9-37.8-46.7-73.3-79.6-100.1c-0.6-0.5-1.1-0.9-1.7-1.3
			c-1.6-1.2-4.6-1.2-5,1.3c-6.2,36.8-8.1,75.2-5.1,112.4c1.8,22.7,5.9,44.2,16.3,64.6c10.3,20.2,23.5,38.7,36.9,56.9
			c13.8,18.7,28.2,37,41.6,56.1c10,14.2,21.2,29.7,25.9,46.7c3.6,13,4.1,27.2,5,40.6c1.3,19.1,2,38.3,2.6,57.5
			c0.8,28.4,0.6,56.7,1.2,85.1c0,0.5,0,1,0,1.5C-1222.4,41.4-1216.4,41.4-1216.4,37.6c0-23.8-0.3-47.6-0.8-71.5
			c-0.8-34.9-0.9-70.5-6.2-105.1c-2.3-14.8-8.9-27.7-16.7-40.3c-11.7-18.7-25.3-36.2-38.6-53.8c-14.2-18.8-28.4-37.6-40.8-57.6
			c-10.9-17.6-19.7-35.7-23.3-56.2c-7.6-43.3-5.2-89.4,1.4-132.7c0.1-0.8,0.3-1.7,0.4-2.5c-1.7,0.4-3.3,0.9-5,1.3
			c8.4,6.5,16.1,14,23.4,21.5c17.8,18.2,33.7,38.4,46.8,60.3c15.3,25.6,25.8,53,31.9,82.2c4.8,23.1,8.9,46.2,13.1,69.4
			c4.1,22.7,8,45.4,11.9,68.1c1,5.8,1.9,11.5,2.9,17.3c0.1,0.7,0.2,2.7,0.2,1.1c0,0.9-0.1,1.7-0.1,2.6c-1.1,32.9-2.2,65.7-3.3,98.6
			c-1.1,31.8-2.8,63.8-3.2,95.6c0,0.6,0,1.1-0.1,1.7C-1222.6,41.4-1216.6,41.4-1216.4,37.6z"/>
	</g>
</g>
<g>
	<path class="st5" d="M-1219.4,44c0,0-99.7-106.8-167.1-121.8c-67.4-15-247.1-33.7-247.1-33.7s48.7-63.6,86.1-59.9
		c37.4,3.7,63.6,26.2,82.4,26.2c18.7,0,67.4-22.5,101.1-15c33.7,7.5,67.4,48.7,74.9,59.9c7.5,11.2,56.2,44.9,63.6,67.4
		C-1218.1-10.5-1219.4,44-1219.4,44z"/>
	<g>
		<path d="M-1217.3,41.8C-1232.1,26-1248,11-1264.2-3.4c-28.5-25.4-59.2-50.7-93.9-67.2c-14.3-6.8-28.9-10.5-44.3-13.4
			c-16.8-3.1-33.6-5.8-50.5-8.2c-37.6-5.5-75.3-10.2-113.1-14.6c-22.6-2.6-45.2-5.2-67.8-7.6c0.9,1.5,1.7,3,2.6,4.5
			c-0.8,1,0.8-1,1.1-1.4c1.5-1.8,3-3.7,4.5-5.5c4.9-5.7,10-11.3,15.3-16.6c13.1-13.1,28.3-26.6,46.1-32.7
			c21.6-7.3,46.1,4.1,65.6,12.9c8.2,3.7,16.5,7.9,25.3,10c7.5,1.7,14.6,0.6,21.9-1.1c22.3-5.1,44.1-13.2,67.1-14.3
			c11.7-0.6,22.9,1.3,33.5,6.4c10.9,5.3,20.6,12.7,29.5,20.8c7.7,7,15,14.6,21.6,22.6c3.7,4.4,6.7,9.4,10.6,13.7
			c12.4,13.6,27.9,24.4,40.9,37.3c7.1,7,15,14.8,18.9,24.1c3.8,9.2,4.5,20.1,5.3,29.9c1.3,15.9,1.7,31.9,1.3,47.8
			c-0.1,3.9,5.9,3.9,6,0c0.3-14.1,0-28.2-0.9-42.2c-0.6-9.9-1.5-19.9-3.8-29.6c-1.9-8.2-5.7-14.9-10.9-21.4
			c-12.9-16.1-29.5-28.8-44.7-42.5c-11.4-10.3-19.6-23.4-30.2-34.4c-15.7-16.2-35.4-33-58.2-37.3c-23.5-4.4-48.1,2.8-70.6,9
			c-8.8,2.4-18,5.5-27.2,6.2c-8.8,0.7-17.5-3.4-25.4-6.9c-10.9-4.9-21.7-10-33.1-13.6c-10.7-3.4-22.8-6.8-34.1-5.4
			c-18.6,2.3-35.1,14.9-48.6,27c-10.9,9.7-21.1,20.5-30.2,31.9c-0.6,0.8-1.2,1.6-1.8,2.4c-1.5,2,0.6,4.3,2.6,4.5
			c55.1,5.7,110.2,12.2,165.1,20c17.8,2.5,35.5,5.1,53.2,8.2c14.2,2.5,28.7,4.6,42.2,9.7c17.4,6.5,33.6,16.4,48.9,26.9
			c16.5,11.3,32.1,23.8,47.2,36.9c19.3,16.7,38.1,34.3,55.6,53C-1218.9,48.9-1214.7,44.7-1217.3,41.8z"/>
	</g>
</g>
<g>
	<g>
		<path d="M-1578-160.6c22.3-13.4,45.9-25.1,70-35.1c18.3-7.6,37.3-14.3,56.9-17.8c22-3.9,44.1-0.9,64.8,7.3
			c17.3,6.9,33.1,17,48.2,27.7c5.9,4.2,11.7,8.9,18.2,12.2c9.9,5.1,20.8,6.2,31.7,7.2c9.3,0.8,20.8,1.4,27.4,9.1
			c2.6,3,4.2,6.9,5.7,10.5c5.3,12.7,8.8,26.3,12.3,39.6c6,23.5,11.1,47.3,15.5,71.2c0.7,3.8,6.5,2.2,5.8-1.6
			c-3.9-21.2-8.4-42.4-13.5-63.3c-3.5-14.2-7.2-28.5-12.2-42.3c-4.2-11.5-8.7-21.4-21.1-25.9c-9.9-3.6-20.8-2.9-31-4.4
			c-10.8-1.6-19.5-6-28.3-12.2c-14.2-10.1-28.5-20.1-44.2-27.9c-19.4-9.5-40.7-15.6-62.4-14.9c-20.6,0.6-40.9,6.8-60,13.9
			c-29.9,11-59.2,25.2-86.6,41.6C-1584.3-163.8-1581.3-158.6-1578-160.6L-1578-160.6z"/>
	</g>
</g>
<g>
	<g>
		<path d="M-1041.8-579c0,18.9-1,37.8-2.9,56.5c-1.5,14.3-3.5,28.6-7,42.6c-3.3,12.9-8.7,23.9-15.6,35.3
			c-28.3,46.5-62.5,88.9-93.5,133.5c-9.3,13.3-18.3,26.7-26.8,40.6c-4.7,7.7-10.2,15.7-12.9,24.3c-4.3,13.9-5.3,29.3-6.6,43.8
			c-4.4,47.3-5.8,94.9-7.1,142.4c-0.9,32-2.2,64.1-1.8,96.1c0,0.5,0,1,0,1.5c0,3.9,5.7,3.8,6,0c0.8-12.2,2.4-24.4,4.3-36.5
			c3.7-23.4,8.6-47,17.6-69c5.2-12.9,13.2-24.1,19.6-36.3c7.1-13.6,12.6-27.8,18.6-41.9c4.9-11.6,10.1-23.8,18.8-33.1
			c3.6-3.9,7.9-7.1,11.7-10.8c4.5-4.4,8.8-9,12.9-13.7c9.6-11.2,18.5-23.2,26.1-35.8c6.5-10.8,12.8-22.7,14.7-35.3
			c-1.8,0.2-3.7,0.5-5.5,0.7c11.3,14.7,30.7-1.5,38.7-11c17.2-20.2,28.8-45.7,37-70.7c10.4-31.4,15.5-65.4,10.7-98.3
			c-4.1-28.2-14.5-55.3-26.6-80.9c-7.4-15.5-15.4-31-24.8-45.4c-2.1-3.2-7.3-0.2-5.2,3c20.3,31.3,36.9,66.9,46.3,103
			c14.8,57.1,0.3,120.8-31,170.1c-6.7,10.5-15.3,23.7-27.3,28.6c-3.1,1.3-6.6,1.8-9.8,0.5c-0.9-0.4-1.7-1-2.4-1.5
			c-0.3-0.2-1.5-1.7-0.5-0.4c-1.3-1.8-5-2.2-5.5,0.7c-1.8,11.5-7.3,22.2-13,32.1c-7,11.9-15.1,23.2-24,33.8
			c-7.7,9.1-16.2,16.9-24.8,25.1c-8.6,8.3-14.2,19.1-18.9,29.9c-6.2,14-11.5,28.3-18.2,42c-6.3,13-14.8,24.7-20.7,37.9
			c-9.9,21.8-15.3,45.6-19.3,69.1c-2.5,14.7-4.6,29.5-5.6,44.3c2,0,4,0,6,0c0.2-27,0.7-53.9,1.4-80.9c1.2-48,2.6-96.1,6.3-144
			c1.3-16.8,2.5-34,6-50.5c1.4-6.4,3.2-10.8,6.3-16.4c7.3-13.2,15.6-25.9,24-38.5c30.6-45.4,64.9-88.1,94.7-134.1
			c7.4-11.4,15.5-23,20.5-35.7c5-12.4,7.6-25.8,9.6-39c3.6-23.8,5.2-47.9,5.5-71.9c0-1.8,0-3.6,0-5.5
			C-1035.8-582.9-1041.8-582.9-1041.8-579z"/>
	</g>
</g>
<g>
	<g>
		<path d="M-951-74.2c11.1-4.3,22.7-7.6,34.4-9.7c11.4-2,23.1-1.7,34.6-2.6c25-2,49.9-4.9,74.8-7.9c6.4-0.8,12.9-1.5,19.3-2.3
			c2.6-0.3,4.5-4.2,1.5-5.6c-23.3-11.1-47.4-20.9-72-28.7c-15.5-4.9-31.6-9.3-48-9.2c-21,0.2-42,2.6-62.7,5.9
			c-20.3,3.3-41,7.3-60.2,14.8c-12.1,4.7-23.6,11.2-34.9,17.7c-29.4,16.9-57.9,35.6-86.1,54.5c-18.4,12.3-36.7,24.8-54.8,37.6
			c-3.1,2.2-0.1,7.4,3,5.2c41.7-29.5,84.2-58.3,128-84.6c12-7.2,24.2-14.3,36.8-20.4c15.4-7.4,32.1-11.7,48.8-15.2
			c21.8-4.5,43.9-7.6,66.1-8.9c8.5-0.5,17.1-1.1,25.6-0.2c8.1,0.8,16,2.7,23.8,4.8c28.6,7.7,56.7,19.1,83.4,31.8
			c0.5-1.9,1-3.7,1.5-5.6c-17.4,2.2-34.8,4.2-52.2,6.1c-12.8,1.4-25.7,2.8-38.5,3.8c-10.8,0.9-21.9,0.7-32.7,2.1
			c-14,1.8-28,5.6-41.2,10.7C-956.1-78.6-954.6-72.8-951-74.2L-951-74.2z"/>
	</g>
</g>
<g>
	<g>
		<path d="M-1172.4-97.3c13.3-10.3,26.5-20.6,39.6-31.1c9.9-7.9,19.7-15.8,29.3-23.9c6.1-5.1,12.8-10.1,17.9-16.2
			c8.4-9.9,12.6-23.5,15.2-36c2.9-13.9,4.1-28.2,4.4-42.4c0.3-13.2-0.5-26.1-2.2-39.1c-2.7-20.7-5.4-41.3-8.1-62
			c-0.5-3.8-6.5-3.8-6,0c2.3,17.8,4.6,35.6,7,53.4c1.6,12.3,3.1,24.3,3.3,36.7c0.2,13.3-0.3,26.6-2.1,39.7
			c-1.9,13.9-5,28.5-12.4,40.7c-4.1,6.7-10.3,11.7-16.2,16.8c-9.1,7.8-18.4,15.3-27.7,22.8c-15.3,12.3-30.7,24.4-46.2,36.4
			C-1179.7-99.2-1175.4-95-1172.4-97.3L-1172.4-97.3z"/>
	</g>
</g>
<g>
	<path class="st5" d="M-1139.8-2.4c-18.7,14.5,15-78.6,37.4-97.3c22.5-18.7,63.6-15,89.9-7.5c26.2,7.5,22.5,18.7,37.4,26.2
		c15,7.5,44.9,3.7,59.9,22.5c15,18.7,67.4,48.7,86.1,138.5c0,0-59.9,18.7-89.9,0s-78.6-97.3-104.8-104.8
		C-1050-32.4-1106.2-28.6-1139.8-2.4z"/>
	<g>
		<path d="M-1141.4-5c-0.9,0.7-2.7,1.4-1.1,1.3c0.9-0.1,0,0.7,0.3,0.2c0.1-0.2-0.2-1.3-0.2-1.7c-0.2-4.5,1.3-9.3,2.4-13.5
			c3.8-14.2,9.4-28.1,15.6-41.4c5.7-12,11.9-25.1,21.2-34.9c13.5-14.1,36-16.1,54.3-15.2c10.3,0.5,20.6,2.1,30.6,4.6
			c9.4,2.4,18.7,5.5,25.5,12.6c4.6,4.8,8.2,10.1,14,13.5c7,4.1,15.3,5.3,23.2,6.6c9.4,1.6,19.2,3.2,27.7,7.8
			c6,3.3,9.8,8.3,14.4,13.1c7.4,7.6,15.6,14.5,23,22c30.3,30.6,49.3,68.6,58.3,110.7c0.7-1.2,1.4-2.5,2.1-3.7
			c-17.4,5.4-36.3,8.5-54.6,8.2c-12.5-0.2-25.3-2.3-35.6-9.7c-9-6.4-16.6-14.8-23.9-23c-17.7-19.8-33.6-41.1-52-60.2
			c-6.5-6.7-13.7-14-22.2-18.2c-8.9-4.5-20.1-5.1-29.8-5.4C-1080-32.3-1115.5-24.8-1141.4-5c-3,2.3,0,7.5,3,5.2
			c23.9-18.3,55.8-25.5,85.4-25.5c10,0,22.2,0.1,31.4,4.5c8.5,4.1,15.6,11.5,22,18.2c18.4,19.2,34.3,40.6,52.1,60.3
			c7.2,8,14.6,15.9,23.3,22.3c9.6,7.1,21.1,9.9,32.8,10.9c20.9,1.7,43.1-1.9,63-8.1c1.6-0.5,2.4-2.1,2.1-3.7
			c-8.6-40.8-26.7-78.3-55.4-108.7c-8.2-8.7-17.3-16.6-25.8-25c-4.4-4.3-7.9-9.3-12.9-12.9c-8.3-6-18.6-8.5-28.5-10.3
			c-8.8-1.6-18.8-2.3-26.8-6.9c-6.4-3.8-10-10.4-15.5-15.1c-7.8-6.8-18-9.9-27.9-12.2c-10.2-2.4-20.7-3.9-31.2-4.3
			c-19.3-0.7-42.3,2.1-56.6,16.5c-10.2,10.3-17,24.5-23.1,37.5c-7.1,15.2-13.7,31.3-17.2,47.7c-0.8,4-2.4,9.9-0.3,13.8
			c2,3.8,6.1,3.1,9.1,0.8C-1135.3-2.1-1138.3-7.3-1141.4-5z"/>
	</g>
</g>
<g>
	<g>
		<path d="M-888,85.6c-34.4-2.5-68.9-8.5-102.4-16.6c-23.2-5.6-47.3-11.9-68.6-22.7c-16.8-8.6-32.9-18.5-49-28.4
			c-11.2-6.9-22.3-13.9-33.4-21.1c-3.2-2.1-6.3,3.1-3,5.2c25.5,16.6,51.3,33.1,78.2,47.4c20.3,10.7,42.6,17.3,64.7,23.1
			c24.6,6.4,49.6,11.2,74.8,14.8c12.9,1.8,25.8,3.5,38.7,4.4C-884.2,91.8-884.2,85.8-888,85.6L-888,85.6z"/>
	</g>
</g>
<g>
	<g>
		<path d="M-1131.7-179.8c-0.1-15.8-2.3-31.8-4.2-47.5c-1.3-10.8-2.7-21.5-4.1-32.3c-0.5-3.8-6.3-2.2-5.8,1.6
			c3.6,25.7,8,52.1,8.1,78.2C-1137.7-175.9-1131.7-175.9-1131.7-179.8L-1131.7-179.8z"/>
	</g>
</g>
<g>
	<path class="st5" d="M-1225.8,63.1c0,0,6.4,117.9,6.4,124.3s-3.2,73.3-3.2,73.3h9.6V63.1h19.1c0,0-12.7,98.8-12.7,114.7
		s3.2,82.8,3.2,82.8"/>
	<g>
		<path d="M-1228.8,63.1c1.4,26.6,2.9,53.3,4.2,79.9c0.7,13.5,1.4,27,2,40.5c0.4,10.5-0.5,21-1,31.5c-0.7,15.2-1.4,30.4-2.1,45.7
			c-0.1,1.6,1.4,3,3,3c3.2,0,6.4,0,9.6,0c1.6,0,3-1.4,3-3c0-22.3,0-44.6,0-66.9c0-35.4,0-70.7,0-106.1c0-8.2,0-16.4,0-24.6
			c-1,1-2,2-3,3c6.4,0,12.7,0,19.1,0c-1-1-2-2-3-3c-3.3,25.3-6.4,50.5-9.2,75.8c-1.4,12.5-3.2,25.2-3.5,37.8
			c-0.3,14.4,0.8,29,1.4,43.4c0.6,13.5,1.2,27,1.8,40.5c0.2,3.8,6.2,3.9,6,0c-1.3-27.1-3-54.2-3.2-81.3c-0.1-11.4,1.6-23,2.9-34.3
			c1.9-17,3.9-34,6-51c1.3-10.3,2.6-20.6,3.9-30.9c0.2-1.6-1.5-3-3-3c-6.4,0-12.7,0-19.1,0c-1.6,0-3,1.4-3,3c0,22.3,0,44.6,0,66.9
			c0,35.4,0,70.7,0,106.1c0,8.2,0,16.4,0,24.6c1-1,2-2,3-3c-3.2,0-6.4,0-9.6,0c1,1,2,2,3,3c0.6-12.8,1.2-25.6,1.8-38.4
			c0.5-12.1,1.7-24.3,1.4-36.4c-0.8-30-3-60-4.6-90c-0.6-10.9-1.2-21.8-1.8-32.8C-1223,59.2-1229,59.2-1228.8,63.1L-1228.8,63.1z"/>
	</g>
</g>
<g>
	<path class="st5" d="M-1173.5,124.9c4.4,15.3,15,37.4,44.9,44.9c30,7.5,89.9,3.7,108.6,11.2c18.7,7.5,59.9,18.7,67.4,37.4
		c0,0,11.2-89.9-18.7-119.8c-30-30-89.9-93.6-131-93.6c-41.2,0-82.4,56.2-82.4,56.2S-1178,109.4-1173.5,124.9z"/>
	<g>
		<path d="M-1176.4,125.7c4.2,14.4,11.8,27.5,24,36.4c14.8,10.9,33.3,13.1,51.1,14.6c18.9,1.5,37.9,1.6,56.8,3.2
			c7.1,0.6,14.5,1.1,21.3,3.3c6.8,2.1,13.6,5,20.3,7.4c9.7,3.5,19.4,7.2,28.5,12.2c7.5,4.1,15.7,9.2,19.2,17.3
			c1.3,3.1,5.3,1,5.6-1.5c2.9-23.2,3.1-47.4,0.1-70.6c-2-15.5-5.4-32.2-14.6-45.2c-4.2-5.9-9.7-10.8-14.8-15.9
			c-6.8-6.8-13.6-13.6-20.5-20.3c-15-14.5-30.6-28.5-47.6-40.7c-14.2-10.2-30.3-20.4-47.9-23.1c-17.5-2.7-34.5,4.7-48.7,14.3
			c-13.8,9.4-26.1,21.3-36.9,34c-2.1,2.5-5.7,5.6-6.9,8.6c-1.4,3.5,0.8,9.8,1.3,13.2C-1183.4,90.5-1181.2,108.6-1176.4,125.7
			c1,3.7,6.8,2.1,5.8-1.6c-4.1-14.8-6.1-30.3-8.5-45.4c-0.9-5.5-1.2-11.2-2.5-16.6c-0.7-3.1,0.5,0.7-0.4,0.5c0.3,0,1.9-2.4,2-2.6
			c8.7-10.9,18.4-21.1,29.1-30c13.5-11.2,30.4-22,48.5-22c16.3,0,32,9.2,45.2,17.9c16.7,11.1,32,24.4,46.6,38.2
			c12.7,11.9,25.1,24.1,37.1,36.6c10.3,10.6,14.4,25.9,16.9,40.1c4.4,25.3,4.1,52.2,0.9,77.6c1.9-0.5,3.7-1,5.6-1.5
			c-6.1-14.2-24.1-21.5-37.3-26.9c-8-3.3-16.2-6.1-24.4-9.1c-5.9-2.2-11.5-4.4-17.8-5.4c-16.8-2.8-34.1-2.8-51-3.6
			c-18-0.9-37.7-0.9-54.8-7.4c-18.3-6.9-29.9-22.2-35.3-40.5C-1171.7,120.4-1177.5,122-1176.4,125.7z"/>
	</g>
</g>
<g>
	<path class="st5" d="M-1286.3-19.8c0,0-66.9,36.1-85.6,58.6c-18.7,22.5-26.2,48.7-18.7,78.6c7.5,30,89.9,71.1,101.1,82.4
		c11.2,11.2,33.7,22.5,41.2,44.9c0,0,7.5-56.2,26.2-86.1c18.7-30,59.9-52.4,78.6-56.2c18.7-3.7,56.2-37.4,52.4-56.2
		c-3.7-18.7-52.4-41.2-52.4-41.2l-69.5,42.1L-1286.3-19.8z"/>
	<g>
		<path d="M-1287.9-22.4c-16.7,9-33.1,18.8-48.9,29.2c-10.8,7.1-21.6,14.5-31.1,23.3c-11.2,10.3-19.7,24-24.5,38.4
			c-5.3,15.9-6.2,35.2-0.8,51.2c3.3,9.8,11.2,17.7,18.6,24.5c19.4,17.6,42.4,31.1,64.5,45c8.2,5.2,15.5,10.6,23,16.8
			c13.8,11.6,29.5,21.6,35.7,39.4c1.2,3.4,5.5,2.5,5.9-0.8c-0.2,1.7,0.2-1.6,0.3-2.1c0.4-2.5,0.8-4.9,1.2-7.4
			c1.3-7.6,2.9-15.3,4.7-22.8c4.5-18.8,10.1-38.5,21-54.7c11.8-17.5,29.5-31,47.7-41.2c7.3-4,14.9-7.7,22.8-10.1
			c6.5-1.9,12.4-3.5,18.3-6.9c14.4-8.4,28.5-21,36.7-35.7c3.1-5.5,5.6-12.1,4.3-18.5c-1.3-6.1-5.9-11.3-10.4-15.5
			c-10.9-10.2-24.3-17.9-37.6-24.6c-2.5-1.3-6.1-3.9-8.9-2.9c-2.2,0.8-4.5,2.7-6.5,3.9c-21,12.7-42,25.4-63,38.1
			c1.2,0.2,2.4,0.3,3.6,0.5c-21.4-19.5-42.7-39-64.1-58.5c-3.1-2.8-6.1-5.6-9.2-8.4c-2.8-2.6-7.1,1.6-4.2,4.2
			c21.4,19.5,42.7,39,64.1,58.5c3.1,2.8,6.1,5.6,9.2,8.4c1,0.9,2.5,1.2,3.6,0.5c23.2-14,46.3-28,69.5-42.1c-1,0-2,0-3,0
			c15.4,7.1,31.7,15.9,43.7,28c3.1,3.1,6.6,6.9,7.4,11.4c0.8,4.6-1.3,9.4-3.4,13.4c-6,11-15.7,20.5-25.7,27.9
			c-4.5,3.4-9.4,6.6-14.6,8.9c-4.1,1.8-8.5,2.5-12.7,3.8c-11.6,3.7-22.6,9.6-32.8,16.2c-12.4,8-24.2,17.6-33.7,29
			c-8.6,10.3-14.5,22.2-19.1,34.7c-7.5,20.4-12.5,42.1-15.4,63.7c2-0.3,3.9-0.5,5.9-0.8c-5.1-14.7-16-25.2-28-34.6
			c-7.4-5.8-14.2-12.4-21.9-17.7c-19.9-13.5-40.9-25.2-60.2-39.6c-9.6-7.2-19.5-15-26.7-24.7c-8.4-11.3-9.3-27.1-7.9-40.7
			c1.8-17.5,10-34.5,21.9-47.5c8.1-8.9,18.2-15.9,28-22.7c17.8-12.2,36.4-23.4,55.4-33.6C-1281.4-19-1284.5-24.2-1287.9-22.4z"/>
	</g>
</g>
<g>
	<g>
		<path d="M-1248.4,234.3c-5.6-31.1-4.3-65.6,4-96c6.3-23.1,18.5-47.6,38.9-61.4c19.1-12.9,43.5-18,65.9-21.7
			c15.7-2.6,31.7-4.5,47.6-5c3.8-0.1,3.9-6.1,0-6c-13.9,0.5-27.7,2-41.5,4c-23.6,3.4-48.4,8.4-69.4,20.1
			c-21.6,12.1-35.8,34.7-43.9,57.5c-7.9,22.3-10.7,46.4-10.6,70c0,13.3,0.8,26.9,3.2,40.1C-1253.5,239.7-1247.7,238.1-1248.4,234.3
			L-1248.4,234.3z"/>
	</g>
</g>
<g>
	<g>
		<path d="M-1413,279.5c18.9-7,38.3-13.1,58-17.7c14.2-3.3,27.8-4.9,42.3-4.3c15.4,0.6,30.6,2.8,45.8,5.6
			c12.7,2.3,25.4,4.3,38.3,4.3c18.7-0.1,36.9-3.7,54.8-8.6c19-5.1,37.8-11.4,57.4-13.6c17-1.9,35.1-0.3,51.7,3.6
			c12.2,2.9,23.3,8,32.7,16.4c10,8.9,18.2,19.6,27.1,29.5c2.6,2.9,6.8-1.4,4.2-4.2c-15.2-17-28.9-35.7-51-44
			c-14.3-5.4-29.9-6.9-45-7.8c-19.4-1.1-38.4,3.2-57,8.3c-20,5.5-40.1,11.9-60.9,13.8c-14.2,1.3-28.3,0.5-42.4-1.9
			c-28.8-4.9-58.1-10.7-87.3-5.4c-24,4.3-47.7,11.9-70.5,20.3C-1418.2,275-1416.6,280.8-1413,279.5L-1413,279.5z"/>
	</g>
</g>
<g>
	<g>
		<path d="M1559.6,787.7c-7.7,24.6-15.3,49.2-23,73.8c-12.2,39-24.3,78.1-36.5,117.1c-2.8,9-5.6,18-8.4,27c1-0.7,1.9-1.5,2.9-2.2
			c-19.6,0-39.3,0-58.9,0c-31.4,0-62.7,0-94.1,0c-7.2,0-14.5,0-21.7,0c1,0.7,1.9,1.5,2.9,2.2c-7.7-24.6-15.4-49.2-23.1-73.8
			c-12.2-39-24.5-78.1-36.7-117.1c-2.8-9-5.6-18-8.5-27c-1.2-3.7-6.9-2.1-5.8,1.6c7.7,24.6,15.4,49.2,23.1,73.8
			c12.2,39,24.5,78.1,36.7,117.1c2.8,9,5.6,18,8.5,27c0.4,1.3,1.5,2.2,2.9,2.2c19.6,0,39.3,0,58.9,0c31.4,0,62.7,0,94.1,0
			c7.2,0,14.5,0,21.7,0c1.4,0,2.5-0.9,2.9-2.2c7.7-24.6,15.3-49.2,23-73.8c12.2-39,24.3-78.1,36.5-117.1c2.8-9,5.6-18,8.4-27
			C1566.5,785.6,1560.8,784,1559.6,787.7L1559.6,787.7z"/>
	</g>
</g>
<g>
	<g>
		<path d="M1284.2,785.7c-21.7,0-43.5,0-65.2,0c1,1,2,2,3,3c0-27.1,0-54.2,0-81.3c-1,1-2,2-3,3c12.4,0,24.8,0,37.2,0
			c29.6,0,59.2,0,88.8,0c36,0,72,0,107.9,0c31,0,62,0,92.9,0c10.3,0,20.6,0,30.9,0c3.2,0,6.3,0,9.5,0c1.5,0,3.6,0.4,5.1,0
			c0.2-0.1,0.4,0,0.6,0c-1-1-2-2-3-3c0,27.1,0,54.2,0,81.3c1-1,2-2,3-3c-21.8,0-43.6,0-65.4,0c-3.9,0-3.9,6,0,6
			c21.8,0,43.6,0,65.4,0c1.6,0,3-1.4,3-3c0-27.1,0-54.2,0-81.3c0-1.6-1.4-3-3-3c-12.4,0-24.8,0-37.2,0c-29.6,0-59.2,0-88.8,0
			c-36,0-72,0-107.9,0c-31,0-62,0-92.9,0c-10.3,0-20.6,0-30.9,0c-4.8,0-9.8-0.4-14.5,0c-0.2,0-0.4,0-0.6,0c-1.6,0-3,1.4-3,3
			c0,27.1,0,54.2,0,81.3c0,1.6,1.4,3,3,3c21.7,0,43.5,0,65.2,0C1288.1,791.7,1288.1,785.7,1284.2,785.7L1284.2,785.7z"/>
	</g>
</g>
<g>
	<g>
		<path d="M1331.5,488c-10.7-9.7-22.7-18.9-35.4-25.8c-9.6-5.3-18.8-7.2-29.6-8.7c-11.1-1.6-23.3-3.6-34.2,0.2
			c-7.5,2.6-13.2,8.5-18.7,14c-7.5,7.6-14.6,15.6-22.6,22.8c-11.5,10.3-27.2,15.3-41,21.9c-13,6.3-26,12.7-39,19.1
			c-2,1-1.9,4.1,0,5.2c12.4,6.9,25.2,13,38.2,18.5c17.3,7.3,37.2,15.9,55.5,7.1c10-4.8,18.6-12.8,25.8-21.1
			c4.3-4.9,9.3-10.4,11.5-16.7c2.8-7.9,4.2-16.2,9-23.3c5.7-8.4,14.3-8.8,23.6-9.1c18.2-0.7,36.5,0,54.7,1.1c3.9,0.2,3.8-5.8,0-6
			c-15.2-0.9-30.4-1.4-45.7-1.3c-8.3,0.1-18.2-0.6-26.1,2.4c-8.5,3.2-13.3,11.4-16.5,19.5c-2.3,5.9-3,12.9-6.4,18.3
			c-4.9,7.8-11.4,14.9-18.2,21c-8.1,7.2-18.3,14-29.6,13.3c-9.2-0.5-18.5-4-27-7.3c-15.7-6-31-13.4-45.7-21.5c0,1.7,0,3.5,0,5.2
			c10.4-5.2,20.8-10.3,31.3-15.4c7.7-3.8,15.5-7.5,23.3-11.1c5.7-2.7,12.1-4.7,17.4-8.2c15.7-10.2,26.1-26.6,40.5-38.3
			c7.5-6.1,16.9-6.6,26.2-5.9c11.3,0.9,23.9,1.8,34.4,6.6c14.7,6.7,28.1,17.1,40,27.9C1330.2,494.8,1334.4,490.6,1331.5,488z"/>
	</g>
</g>
<g>
	<g>
		<path d="M1193.7,565.9c18.1-4.7,36.1-10.9,53.4-18.1c11.9-5,23.5-10.8,34-18.4c9.6-7,19.3-13.9,29-20.8
			c7.2-5.1,14.3-10.2,21.5-15.3c3.1-2.2,0.1-7.4-3-5.2c-15.6,11.1-31.3,22.2-46.8,33.4c-20.8,15-44.1,24.5-68.5,32.3
			c-7,2.3-14,4.4-21.1,6.3C1188.4,561.1,1190,566.9,1193.7,565.9L1193.7,565.9z"/>
	</g>
</g>
<g>
	<g>
		<path d="M1385.4,533.1c0.7-21.4,1.4-42.9,2.1-64.3c0.9-28.4,1.9-56.9,2.8-85.3c0.2-4.8-0.3-8.8-1.1-13.5
			c-2.7-16-5.5-32.1-8.3-48.1c-7-39.9-11.8-82-30.2-118.7c-14.8-29.6-36.5-57.3-62.2-78.3c-0.5-0.4-0.9-0.8-1.4-1.1
			c-1.6-1.2-4.6-1.2-5,1.3c-4.8,28.7-6.3,58.7-4,87.8c1.4,17.7,4.5,34.5,12.5,50.4c7.9,15.7,18.1,30.2,28.5,44.3
			c10.8,14.7,22,28.9,32.5,43.8c8,11.2,16.8,23.3,20.7,36.7c2.9,10.1,3.3,21.2,4,31.6c1,15,1.6,30,2,45c0.7,22.8,1,45.6,1,68.5
			C1379.4,537,1385.4,537,1385.4,533.1c0-18.7-0.2-37.4-0.7-56.1c-0.6-27.4-0.7-55.4-4.9-82.5c-1.8-11.5-7.1-21.7-13.2-31.6
			c-9.1-14.6-19.7-28.2-30.1-41.9c-20.2-26.8-44.3-55.2-50.1-89.3c-4-23.2-3.9-47.2-2.3-70.6c0.8-11.5,1.9-23,3.7-34.4
			c-1.7,0.4-3.3,0.9-5,1.3c21.9,17,40.5,40,54.6,63.6c12,20,20.3,41.5,25,64.4c3.8,18.1,7,36.4,10.3,54.6c3.2,17.7,6.2,35.3,9.3,53
			c0.8,4.5,1.5,9,2.3,13.6c0.1,0.8,0.1,2,0.1,0.7c0,0.7,0,1.4-0.1,2.1c-0.9,25.8-1.7,51.6-2.6,77.5c-0.8,24.7-2.4,49.6-2.5,74.3
			c0,0.5,0,0.9,0,1.4C1379.3,537,1385.3,537,1385.4,533.1z"/>
	</g>
</g>
<g>
	<path class="st6" d="M1382.4,538.1c0,0-78-83.6-130.8-95.3c-52.7-11.7-193.3-26.4-193.3-26.4s38.1-49.8,67.4-46.9
		c29.3,2.9,49.8,20.5,64.4,20.5s52.7-17.6,79.1-11.7c26.4,5.9,52.7,38.1,58.6,46.9c5.9,8.8,43.9,35.1,49.8,52.7
		C1383.5,495.6,1382.4,538.1,1382.4,538.1z"/>
	<g>
		<path d="M1384.5,536c-11.6-12.4-24.1-24.2-36.8-35.5c-22.4-20-46.5-39.8-73.8-52.8c-22.7-10.8-49-13.2-73.6-16.8
			c-29.7-4.4-59.5-8.1-89.3-11.6c-17.5-2.1-35.1-4-52.7-5.9c0.9,1.5,1.7,3,2.6,4.5c-0.9,1.2,0.6-0.8,0.9-1.1c1.2-1.5,2.5-3,3.7-4.5
			c3.7-4.4,7.6-8.6,11.7-12.6c10.2-10.2,22-20.8,35.9-25.5c16.8-5.6,36,3.5,51.2,10.3c6.4,2.9,12.9,6.2,19.7,7.7
			c5.8,1.3,11.3,0.4,17.1-0.9c17.3-3.9,34.2-10.2,52-11.2c19.5-1,35.3,8.4,49.4,21.1c6,5.4,11.6,11.3,16.7,17.6
			c3,3.6,5.4,7.6,8.6,11c9.6,10.4,21.4,18.7,31.5,28.7c5.5,5.4,11.6,11.4,14.7,18.5c3.1,7.1,3.7,15.7,4.3,23.4
			c1,12.5,1.3,25.1,1,37.6c-0.1,3.9,5.9,3.9,6,0c0.3-11.3,0-22.6-0.7-33.9c-1-14.5-2.4-28.2-11.8-39.8c-10.1-12.5-23.1-22.5-35-33.2
			c-8.8-7.9-15.1-18-23.3-26.6c-12.3-12.8-27.9-26-45.8-29.5c-18.5-3.6-38,2.1-55.7,6.9c-6.9,1.9-14.2,4.4-21.4,4.9
			c-7,0.4-13.9-3-20.2-5.8c-15.8-7.1-34.5-16.8-52.3-14.5c-16.3,2.1-30.7,14-42.2,25c-7.6,7.2-14.8,14.9-21.1,23.2
			c-1.5,2,0.6,4.3,2.6,4.5c42.9,4.5,85.8,9.5,128.6,15.5c13.9,2,27.8,4,41.6,6.4c11.3,2,22.9,3.7,33.7,7.8
			c27.7,10.4,52.1,30.3,74.3,49.4c15.2,13.2,30,27,43.8,41.7C1382.9,543.1,1387.2,538.8,1384.5,536z"/>
	</g>
</g>
<g>
	<g>
		<path d="M1102.2,378.7c17-10.2,35-19.2,53.4-26.9c14.5-6.1,29.5-11.5,45-14.3c17.1-3.1,34.3-1,50.4,5.3
			c13.7,5.4,26.2,13.4,38.2,21.8c4.7,3.3,9.3,7.1,14.4,9.7c7.6,3.8,15.8,4.8,24.2,5.5c7.3,0.6,16.6,0.9,21.7,6.9
			c2,2.3,3.3,5.4,4.4,8.3c4.1,10,6.9,20.6,9.6,31.1c4.7,18.3,8.6,36.8,12,55.3c0.7,3.8,6.5,2.2,5.8-1.6c-3-16.6-6.6-33.2-10.6-49.6
			c-2.8-11.3-5.7-22.6-9.7-33.5c-3.3-8.8-6.8-16.4-16.1-20c-7.5-2.9-15.9-2.5-23.8-3.6c-8.7-1.1-15.7-4.4-22.7-9.4
			c-11.6-8.2-23.2-16.4-36-22.6c-15.2-7.3-31.8-11.9-48.8-11.2c-16,0.6-31.9,5.4-46.8,11c-23.3,8.6-46.2,19.7-67.5,32.5
			C1095.9,375.5,1098.9,380.7,1102.2,378.7L1102.2,378.7z"/>
	</g>
</g>
<g>
	<g>
		<path d="M1520.7,50.8c0,14.8-0.8,29.6-2.3,44.3c-1.1,11.1-2.7,22.2-5.5,33.1c-2.6,10.1-6.8,18.7-12.2,27.5
			c-22.3,36.6-49.2,70-73.6,105.1c-7.2,10.4-14.2,20.8-20.8,31.6c-3.6,5.9-7.8,12-9.8,18.7c-3.4,11-4.1,23.1-5.2,34.5
			c-3.4,36.8-4.5,73.9-5.6,110.9c-0.7,25.1-1.9,50.3-1.4,75.4c0,0.4,0,0.8,0,1.3c0,3.9,5.7,3.8,6,0c1.9-27.6,6.7-56.6,17.1-82.2
			c4-9.9,10.2-18.6,15.1-28c5.6-10.8,10.1-22.1,14.8-33.2c3.8-9.1,7.9-18.7,14.8-25.9c6.2-6.6,13.2-12.2,19.1-19.1
			c7.7-8.9,14.7-18.5,20.7-28.6c4.9-8.3,9.7-17.5,11.2-27.2c-1.7,0.4-3.3,0.9-5,1.3c8.8,11.3,24.5-1.7,30.6-8.8
			c13.7-15.9,22.8-36.1,29.4-55.8c8.1-24.4,12.1-50.9,8.5-76.5c-3.1-22.2-11.2-43.5-20.7-63.6c-5.8-12.4-12.2-24.6-19.7-36.1
			c-2.1-3.2-7.3-0.2-5.2,3c15.8,24.4,28.7,52,36.1,80.2c11.6,44.5,0.4,94.1-23.9,132.5c-5.2,8.3-12,18.9-21.5,22.5
			c-3.2,1.2-7.2,1.2-9.4-1.6c-1.3-1.7-4.7-0.8-5,1.3c-1.5,9.2-5.9,17.8-10.6,25.8c-5.5,9.3-11.9,18.1-18.9,26.3
			c-6.1,7.2-13.1,13-19.6,19.7c-6.6,6.8-10.8,15.4-14.6,24c-4.7,10.7-8.8,21.6-13.9,32.1c-5,10.3-11.8,19.7-16.4,30.2
			c-7.4,16.7-11.5,34.8-14.6,52.8c-2,11.6-3.6,23.4-4.4,35.1c2,0,4,0,6,0c0.2-21,0.6-41.9,1.1-62.8c0.9-37.7,2-75.4,4.9-113
			c1-13.2,1.9-26.5,4.7-39.5c1.1-5.1,2.4-8.3,4.9-12.7c5.8-10.5,12.3-20.5,19-30.4c23.9-35.4,50.6-68.7,73.9-104.6
			c5.8-9,12.2-18.1,16.1-28.1c3.9-9.8,5.9-20.4,7.5-30.8c2.8-18.5,4-37.2,4.3-55.9c0-1.5,0-3,0-4.4
			C1526.7,46.9,1520.7,46.9,1520.7,50.8z"/>
	</g>
</g>
<g>
	<g>
		<path d="M1592.6,446.3c8.7-3.4,17.8-6,27-7.6c8.8-1.6,17.8-1.3,26.7-2c19.6-1.6,39.1-3.9,58.6-6.2c5-0.6,10.1-1.2,15.1-1.8
			c2.6-0.3,4.5-4.2,1.5-5.6c-18.1-8.6-36.9-16.2-55.9-22.3c-11.9-3.8-24.4-7.4-37-7.4c-16.5,0-33,1.9-49.3,4.5
			c-15.9,2.5-32,5.6-47.1,11.3c-9.7,3.6-18.8,8.7-27.8,13.9c-23.2,13.3-45.7,28.1-67.9,43c-14.5,9.7-28.9,19.6-43.2,29.6
			c-3.1,2.2-0.1,7.4,3,5.2c32.8-23.2,66.1-45.8,100.5-66.4c9.4-5.7,19-11.2,28.9-16c12-5.7,25.1-9,38-11.7
			c29.1-6,60.6-11.1,89.7-3.3c22.3,6,44.1,14.9,65,24.8c0.5-1.9,1-3.7,1.5-5.6c-13.6,1.7-27.1,3.3-40.7,4.8
			c-10.1,1.1-20.1,2.2-30.2,3c-8.6,0.7-17.3,0.6-25.8,1.6c-11,1.4-22,4.4-32.3,8.4C1587.4,441.9,1589,447.7,1592.6,446.3
			L1592.6,446.3z"/>
	</g>
</g>
<g>
	<g>
		<path d="M1419.6,428.1c10.5-8.1,20.9-16.3,31.2-24.5c7.7-6.2,15.4-12.4,23-18.7c4.7-3.9,9.8-7.8,13.8-12.4
			c6.7-7.9,10-18.7,12.1-28.7c2.3-10.9,3.2-22,3.4-33.1c0.2-10.3-0.4-20.4-1.7-30.6c-2.1-16.2-4.2-32.4-6.3-48.6
			c-0.5-3.8-6.5-3.8-6,0c3,23.2,7.7,46.7,8,70.1c0.3,20.5-0.3,44.7-11.2,62.7c-3.2,5.3-8,9.2-12.7,13.2c-7.1,6.1-14.4,12-21.7,17.8
			c-12,9.6-24.1,19.1-36.2,28.5C1412.3,426.2,1416.6,430.4,1419.6,428.1L1419.6,428.1z"/>
	</g>
</g>
<g>
	<path class="st6" d="M1444.7,501.8c-14.6,11.4,11.7-61.5,29.3-76.2c17.6-14.6,49.8-11.7,70.3-5.9c20.5,5.9,17.6,14.6,29.3,20.5
		c11.7,5.9,35.1,2.9,46.9,17.6c11.7,14.6,52.7,38.1,67.4,108.4c0,0-46.9,14.6-70.3,0c-23.4-14.6-61.5-76.2-82-82
		C1515,478.4,1471,481.3,1444.7,501.8z"/>
	<g>
		<path d="M1443.1,499.3c-0.1,0.1-1.3,0.8-1.4,0.9c0.1-0.5,2.1,0.5,1.7,0.6c0.2-0.1-0.1,0.1,0-0.1c0.1-0.1-0.1-1.3,0-1.6
			c0.1-3.8,1.2-7.7,2.3-11.3c3.1-11.1,7.5-21.8,12.4-32.2c4.4-9.1,9.2-19.3,16.6-26.5c11-10.6,28.9-11.7,43.3-10.8
			c13.9,0.9,32.2,3.1,42.1,13.9c3.6,3.9,6.6,7.9,11.5,10.5c5.5,2.9,11.8,3.7,17.8,4.8c7.2,1.3,14.7,2.5,21.2,6.1
			c4.6,2.6,7.5,6.6,11.2,10.2c5.8,5.9,12.1,11.2,17.9,17.1c23.6,23.9,38.4,53.4,45.3,86.2c0.7-1.2,1.4-2.5,2.1-3.7
			c-13.7,4.3-28.6,6.7-43,6.4c-9.8-0.2-19.6-2-27.7-7.9c-7-5.2-13-11.9-18.8-18.3c-13.8-15.6-26.3-32.4-40.9-47.2
			c-5-5.1-10.5-10.5-17.1-13.6c-7.1-3.4-15.9-3.8-23.6-4C1490.9,477.9,1463.4,483.8,1443.1,499.3c-3,2.3,0,7.5,3,5.2
			c18.7-14.3,43.5-19.9,66.8-19.8c7.9,0,17.4,0.1,24.6,3.7c6.8,3.5,12.5,9.5,17.6,15c14,14.8,26.2,31.1,39.8,46.2
			c5.7,6.3,11.5,12.5,18.4,17.5c7.5,5.5,16.5,7.7,25.6,8.4c16.4,1.3,33.9-1.5,49.6-6.3c1.6-0.5,2.4-2.1,2.1-3.7
			c-6.8-32.1-21.1-61.7-43.7-85.6c-6.6-7-13.9-13.1-20.6-19.9c-3.7-3.7-6.7-7.8-11.1-10.6c-6.7-4.3-14.7-6-22.4-7.4
			c-6.9-1.2-14.6-1.8-20.5-5.9c-4.7-3.2-7.6-8.5-12.1-12c-6.4-5-14.6-7.3-22.4-9c-8.4-1.8-17-3-25.5-3.1
			c-14.8-0.2-32.1,2.5-42.8,13.7c-7.9,8.3-13.2,19.3-18,29.6c-5.5,12-10.9,24.7-13.4,37.7c-0.6,3.1-1.7,7.6,0.1,10.5
			c1.8,3.1,5.4,2.7,7.9,0.8C1449.2,502.2,1446.2,496.9,1443.1,499.3z"/>
	</g>
</g>
<g>
	<g>
		<path d="M1641.7,570c-27.1-2-54.2-6.7-80.5-13.1c-18-4.4-36.7-9.2-53.2-17.7c-13.2-6.7-25.9-14.6-38.5-22.3
			c-8.6-5.3-17.2-10.7-25.7-16.2c-3.2-2.1-6.3,3.1-3,5.2c20,13,40.2,25.9,61.3,37.1c15.8,8.4,33.2,13.5,50.4,18
			c19.4,5.1,39.2,8.8,59.1,11.7c10,1.4,20.1,2.7,30.2,3.5C1645.5,576.3,1645.5,570.3,1641.7,570L1641.7,570z"/>
	</g>
</g>
<g>
	<g>
		<path d="M1451.7,363.1c-0.1-20.8-3.7-42-6.5-62.6c-0.5-3.8-6.3-2.2-5.8,1.6c2.8,20.1,6.2,40.7,6.3,61
			C1445.7,366.9,1451.7,366.9,1451.7,363.1L1451.7,363.1z"/>
	</g>
</g>
<g>
	<g>
		<path d="M1374.4,553.1c2.1,39.2,5.9,78.7,4.2,118c-0.5,11.9-1.1,23.7-1.7,35.6c-0.1,1.6,1.4,3,3,3c2.5,0,5,0,7.5,0
			c1.6,0,3-1.4,3-3c0-44.8,0-89.6,0-134.4c0-6.4,0-12.8,0-19.1c-1,1-2,2-3,3c5,0,10,0,15,0c-1-1-2-2-3-3c-2.5,19.6-5,39.2-7.2,58.9
			c-1.1,9.9-2.5,19.8-2.8,29.8c-0.3,11,0.6,22.2,1,33.2c0.4,10.6,0.9,21.1,1.4,31.7c0.2,3.8,6.2,3.9,6,0c-1-20.9-2.4-41.9-2.5-62.8
			c0-8.9,1.3-17.9,2.2-26.8c1.4-13.2,3-26.5,4.7-39.7c1-8.1,2-16.2,3.1-24.3c0.2-1.6-1.5-3-3-3c-5,0-10,0-15,0c-1.6,0-3,1.4-3,3
			c0,44.8,0,89.6,0,134.4c0,6.4,0,12.8,0,19.1c1-1,2-2,3-3c-2.5,0-5,0-7.5,0c1,1,2,2,3,3c0.9-19.1,3-38.6,2.5-57.7
			c-0.6-23.4-2.3-46.8-3.6-70.2c-0.5-8.5-0.9-17.1-1.4-25.6C1380.2,549.2,1374.2,549.2,1374.4,553.1L1374.4,553.1z"/>
	</g>
</g>
<g>
	<path class="st6" d="M1418.3,601.4c3.4,12,11.7,29.3,35.1,35.1c23.4,5.9,70.3,2.9,84.9,8.8c14.6,5.9,46.9,14.6,52.7,29.3
		c0,0,8.8-70.3-14.6-93.7c-23.4-23.4-70.3-73.2-102.5-73.2c-32.2,0-64.4,43.9-64.4,43.9S1414.8,589.3,1418.3,601.4z"/>
	<g>
		<path d="M1415.4,602.2c3.2,11.1,9.1,21.3,18.4,28.4c11.5,8.7,25.8,10.7,39.7,11.9c15.1,1.3,30.3,1.4,45.4,2.6
			c5.5,0.4,11.2,0.9,16.6,2.5c5.3,1.6,10.4,3.8,15.6,5.7c7.6,2.7,15.1,5.6,22.2,9.4c5.9,3.2,12.3,7.1,15.1,13.5
			c1.3,3.1,5.3,1,5.6-1.5c2.3-18.4,2.4-37.6,0-56c-1.6-12.1-4.4-25-11.6-35.1c-3.4-4.8-8.1-8.9-12.2-13.1
			c-5.4-5.4-10.8-10.8-16.3-16c-11.8-11.3-24-22.2-37.2-31.7c-11.1-7.9-23.9-15.8-37.7-17.7c-26.7-3.7-51.2,19.7-67,38.4
			c-1.6,1.9-4.3,4.3-5.3,6.6c-1.2,2.8,0.5,7.6,0.9,10.4C1409.9,574.4,1411.6,588.7,1415.4,602.2c1,3.7,6.8,2.1,5.8-1.6
			c-3.2-11.4-4.7-23.3-6.6-34.9c-0.7-4.3-1.1-8.8-2-13.1c-0.7-3.5,0.3,0.7-0.5,0.5c0.1,0,1.1-1.4,1.2-1.5c6.6-8.4,14-16.1,22.1-23
			c10.3-8.8,23.3-17.4,37.4-17.9c13-0.4,25.6,6.9,36.1,13.8c13.1,8.7,25,19.1,36.5,29.9c9.9,9.3,19.6,18.8,29,28.6
			c8,8.4,11.2,20.2,13.1,31.4c3.4,19.6,3.1,40.5,0.7,60.3c1.9-0.5,3.7-1,5.6-1.5c-4.8-10.9-18.2-16.6-28.4-20.9
			c-6.1-2.5-12.3-4.8-18.6-7c-4.7-1.7-9.2-3.6-14.1-4.6c-13-2.4-26.5-2.4-39.7-3c-14.3-0.7-29.6-0.7-43.3-5.4
			c-14.7-5.1-24.2-17.1-28.5-31.7C1420.1,596.9,1414.3,598.5,1415.4,602.2z"/>
	</g>
</g>
<g>
	<path class="st6" d="M1330.1,488.3c0,0-52.4,28.2-67,45.8c-14.6,17.6-20.5,38.1-14.6,61.5c5.9,23.4,70.3,55.7,79.1,64.4
		c8.8,8.8,26.4,17.6,32.2,35.1c0,0,5.9-43.9,20.5-67.4c14.6-23.4,46.9-41,61.5-43.9c14.6-2.9,43.9-29.3,41-43.9
		c-2.9-14.6-41-32.2-41-32.2l-54.3,32.9L1330.1,488.3z"/>
	<g>
		<path d="M1328.5,485.7c-13.2,7.1-26.1,14.8-38.6,23.1c-18.9,12.5-36.2,26.3-43.5,48.7c-4.1,12.5-4.6,27.3-0.6,39.9
			c2.4,7.5,8.2,13.7,13.9,18.9c15.2,14.1,33.4,24.8,50.8,35.8c6.5,4.1,12.4,8.3,18.3,13.3c10.7,9.1,23,16.8,28,30.7
			c0.9,2.5,5.4,3.2,5.8,0c1.1-8.4,2.8-16.7,4.8-24.9c3.5-14.7,7.8-30.2,16.2-42.9c9.3-14.1,23.6-25,38.2-33
			c5.6-3.1,11.4-5.9,17.6-7.6c5.4-1.5,10.1-3,15-5.9c11.2-6.8,22.2-16.8,28.4-28.4c5.4-10.3,2.9-18.7-5.3-26.4
			c-8.6-8.1-19.2-14.1-29.6-19.4c-2.3-1.2-5-3.2-7.6-2.2c-1.6,0.6-3.1,1.9-4.5,2.7c-16.6,10.1-33.2,20.1-49.8,30.2
			c1.2,0.2,2.4,0.3,3.6,0.5c-19.1-17.5-38.2-34.9-57.3-52.4c-2.8-2.6-7.1,1.6-4.2,4.2c19.1,17.5,38.2,34.9,57.3,52.4
			c1,0.9,2.5,1.2,3.6,0.5c18.1-11,36.2-21.9,54.3-32.9c-1,0-2,0-3,0c12.2,5.7,25.4,12.7,34.7,22.5c5.9,6.2,5.9,11.9,1.5,19.2
			c-5,8.4-12.5,15.6-20.4,21.3c-3.5,2.5-7.2,4.9-11.2,6.5c-3.1,1.3-6.5,1.7-9.7,2.8c-9.1,3.1-17.7,7.7-25.7,13
			c-18.6,12.2-32.5,27.8-40.4,48.7c-6,16-10,33.2-12.3,50.1c1.9,0,3.9,0,5.8,0c-4.1-11.5-12.4-19.7-21.7-27.1
			c-5.7-4.5-11-9.6-16.9-13.7c-15.4-10.6-31.7-19.6-46.8-30.7c-7.5-5.6-15.2-11.6-21-19c-6.9-8.7-7.8-20.7-6.8-31.5
			c1.2-13.8,7.6-27.1,16.8-37.4c6.2-6.9,14.1-12.4,21.7-17.7c14-9.6,28.7-18.4,43.6-26.5C1335,489,1331.9,483.8,1328.5,485.7z"/>
	</g>
</g>
<g>
	<g>
		<path d="M1360.4,686.9c-4.4-24.2-3.4-51,3.1-74.6c5-18.2,14.6-37.5,30.8-48.2c14.8-9.8,33.5-13.7,50.8-16.5
			c12.2-2,24.7-3.5,37.1-3.9c3.8-0.1,3.9-6.1,0-6c-10.9,0.4-21.8,1.6-32.6,3.2c-18.5,2.7-37.9,6.6-54.4,15.7
			c-34,18.9-43.1,64.3-43.1,100c0,10.6,0.6,21.4,2.5,31.9C1355.3,692.3,1361,690.7,1360.4,686.9L1360.4,686.9z"/>
	</g>
</g>
</svg>
