<svg id="Layer_1" data-name="Layer 1" xmlns="http://www.w3.org/2000/svg" viewBox="0 0 1280 1024"><defs><style>.cls-1{fill:#f5d56c;}.cls-2{fill:#1a1a1a;}.cls-3,.cls-4{fill:none;stroke-miterlimit:10;stroke-width:2px;}.cls-3{stroke:#1a1a1a;}.cls-4{stroke:#f5d56c;}</style></defs><title>partArtboard 5</title><path class="cls-1" d="M614.71,613.56a105.21,105.21,0,0,0,26.62-45,118.3,118.3,0,0,0,3-52.36,118,118,0,0,0-52.36,3,105,105,0,0,0-71.66,71.65,118.3,118.3,0,0,0-3,52.36,118,118,0,0,0,52.37-3A105.25,105.25,0,0,0,614.71,613.56Z"/><path class="cls-2" d="M616.84,615.68A109.59,109.59,0,0,0,644,569.23a123.61,123.61,0,0,0,3.2-53.87,2.87,2.87,0,0,0-2.09-2.09,127.57,127.57,0,0,0-42.27.29,109.75,109.75,0,0,0-39.38,15.13,107.63,107.63,0,0,0-30.41,29A109.89,109.89,0,0,0,515.79,596a117.2,117.2,0,0,0-3,23.9,133.75,133.75,0,0,0,1.63,24,2.86,2.86,0,0,0,2.1,2.09,123.57,123.57,0,0,0,53.86-3.19,109.75,109.75,0,0,0,46.46-27.15,2.82,2.82,0,0,0-.06-4.16,2.86,2.86,0,0,0-4.19-.08,104.15,104.15,0,0,1-43.73,25.65,115.63,115.63,0,0,1-50.75,3.15l1,1,1.05,1a116.43,116.43,0,0,1,3.12-50.76,100.78,100.78,0,0,1,69.39-69.4,116.48,116.48,0,0,1,50.77-3.12l-1-1-1.05-1a115.59,115.59,0,0,1-3.15,50.74,104.18,104.18,0,0,1-25.65,43.74,2.86,2.86,0,0,0,.09,4.18A2.81,2.81,0,0,0,616.84,615.68Z"/><rect x="513.82" y="332.69" width="6.57" height="570" rx="3" transform="translate(1034.21 1235.38) rotate(-180)"/><path class="cls-1" d="M186.74,903.72h848.07c11.47,0,23,.24,34.46,0h1.47c3.86,0,3.87-6,0-6H222.67c-11.48,0-23-.25-34.46,0h-1.47c-3.86,0-3.87,6,0,6Z"/><path class="cls-1" d="M649.35,844a140.72,140.72,0,0,0,35.57-60.2,157.88,157.88,0,0,0,4-70,158,158,0,0,0-70,3.95,140.42,140.42,0,0,0-95.77,95.77,158.08,158.08,0,0,0-4,70,158,158,0,0,0,70-4A140.62,140.62,0,0,0,649.35,844Z"/><path class="cls-2" d="M651.47,846.14a145.2,145.2,0,0,0,36.06-61.62A163.53,163.53,0,0,0,691.77,713a2.69,2.69,0,0,0-.76-1.34,2.56,2.56,0,0,0-1.34-.75,168.06,168.06,0,0,0-55.9.37,146.18,146.18,0,0,0-52.13,19.94A143,143,0,0,0,541,769.91a146.16,146.16,0,0,0-23,51.2,157.06,157.06,0,0,0-3.94,31.53,175.62,175.62,0,0,0,2.18,31.7,2.56,2.56,0,0,0,.75,1.34,2.62,2.62,0,0,0,1.34.76,163.53,163.53,0,0,0,71.48-4.24,145.2,145.2,0,0,0,61.62-36.06,2.82,2.82,0,0,0-.06-4.16,2.85,2.85,0,0,0-4.18-.08,139.74,139.74,0,0,1-58.91,34.55,155.37,155.37,0,0,1-68.35,4.2l1,1.05,1,1a159.35,159.35,0,0,1,.43-53.15A141.21,141.21,0,0,1,541.35,780a136.34,136.34,0,0,1,36.9-39.14,140.78,140.78,0,0,1,49-22.19,149.74,149.74,0,0,1,30.3-3.94,164.09,164.09,0,0,1,30.51,2L687,715.68l-1-1a155.58,155.58,0,0,1-4.2,68.36,139.77,139.77,0,0,1-34.55,58.9,2.85,2.85,0,0,0,.08,4.18A2.82,2.82,0,0,0,651.47,846.14Z"/><path class="cls-1" d="M472.35,634.37a140.74,140.74,0,0,0-60.2-35.58,158,158,0,0,0-70-3.95,158,158,0,0,0,3.95,70,140.37,140.37,0,0,0,95.77,95.77,158,158,0,0,0,70,4,157.93,157.93,0,0,0-3.95-70A140.68,140.68,0,0,0,472.35,634.37Z"/><path class="cls-2" d="M474.47,632.24a145.18,145.18,0,0,0-61.62-36A163.38,163.38,0,0,0,341.37,592a2.83,2.83,0,0,0-2.09,2.09,168.12,168.12,0,0,0,.37,55.91,145.87,145.87,0,0,0,19.94,52.12,142.84,142.84,0,0,0,38.65,40.65,146,146,0,0,0,51.2,22.95A156.35,156.35,0,0,0,481,769.61a174.71,174.71,0,0,0,31.7-2.17,2.58,2.58,0,0,0,1.34-.76,2.65,2.65,0,0,0,.76-1.34,163.54,163.54,0,0,0-4.24-71.48,145.2,145.2,0,0,0-36.06-61.62,2.82,2.82,0,0,0-4.16.06,2.86,2.86,0,0,0-.08,4.19,139.65,139.65,0,0,1,34.55,58.9,155.57,155.57,0,0,1,4.2,68.36l1-1,1.05-1.05a159.35,159.35,0,0,1-53.15-.43,141.19,141.19,0,0,1-49.59-18.85,136.61,136.61,0,0,1-39.14-36.9,140.64,140.64,0,0,1-22.19-49,150.47,150.47,0,0,1-3.95-30.3,164.85,164.85,0,0,1,2-30.5l-1.05,1-1,1.05a155.52,155.52,0,0,1,68.35,4.2,139.87,139.87,0,0,1,58.91,34.56,2.85,2.85,0,0,0,4.18-.09A2.82,2.82,0,0,0,474.47,632.24Z"/><line class="cls-3" x1="710.66" y1="254.15" x2="677.48" y2="279.75"/><line class="cls-3" x1="692.75" y1="248.16" x2="737.45" y2="253.93"/><line class="cls-3" x1="692.76" y1="254.05" x2="737.43" y2="248.05"/><line class="cls-3" x1="694.3" y1="259.73" x2="735.9" y2="242.37"/><line class="cls-3" x1="697.25" y1="264.81" x2="732.94" y2="237.28"/><line class="cls-3" x1="701.42" y1="268.96" x2="728.77" y2="233.13"/><line class="cls-3" x1="706.53" y1="271.89" x2="723.67" y2="230.2"/><line class="cls-3" x1="712.21" y1="273.4" x2="717.98" y2="228.7"/><line class="cls-3" x1="718.1" y1="273.38" x2="712.1" y2="228.71"/><line class="cls-3" x1="723.78" y1="271.85" x2="706.42" y2="230.25"/><line class="cls-3" x1="728.86" y1="268.89" x2="701.33" y2="233.2"/><line class="cls-3" x1="733.01" y1="264.72" x2="697.18" y2="237.37"/><line class="cls-3" x1="735.94" y1="259.62" x2="694.25" y2="242.48"/><line class="cls-3" x1="941.43" y1="288.7" x2="901.73" y2="302.09"/><line class="cls-3" x1="926.44" y1="277.2" x2="966.83" y2="297.22"/><line class="cls-3" x1="924.54" y1="282.77" x2="968.73" y2="291.65"/><line class="cls-3" x1="924.14" y1="288.64" x2="969.13" y2="285.78"/><line class="cls-3" x1="925.28" y1="294.41" x2="967.99" y2="280.01"/><line class="cls-3" x1="927.87" y1="299.69" x2="965.4" y2="274.73"/><line class="cls-3" x1="931.74" y1="304.12" x2="961.53" y2="270.3"/><line class="cls-3" x1="936.63" y1="307.4" x2="956.64" y2="267.02"/><line class="cls-3" x1="942.2" y1="309.3" x2="951.08" y2="265.12"/><line class="cls-3" x1="948.07" y1="309.7" x2="945.21" y2="264.72"/><line class="cls-3" x1="953.84" y1="308.56" x2="939.43" y2="265.86"/><line class="cls-3" x1="959.12" y1="305.97" x2="934.15" y2="268.45"/><line class="cls-3" x1="963.55" y1="302.1" x2="929.72" y2="272.32"/><line class="cls-3" x1="1069.81" y1="139.32" x2="1064.55" y2="180.89"/><line class="cls-3" x1="1052.93" y1="147.79" x2="1088.55" y2="120.18"/><line class="cls-3" x1="1057.11" y1="151.93" x2="1084.37" y2="116.04"/><line class="cls-3" x1="1062.22" y1="154.85" x2="1079.26" y2="113.12"/><line class="cls-3" x1="1067.91" y1="156.34" x2="1073.57" y2="111.63"/><line class="cls-3" x1="1073.79" y1="156.31" x2="1067.69" y2="111.65"/><line class="cls-3" x1="1079.47" y1="154.76" x2="1062.01" y2="113.21"/><line class="cls-3" x1="1084.55" y1="151.79" x2="1056.93" y2="116.17"/><line class="cls-3" x1="1088.69" y1="147.61" x2="1052.79" y2="120.35"/><line class="cls-3" x1="1091.6" y1="142.5" x2="1049.88" y2="125.46"/><line class="cls-3" x1="1093.1" y1="136.81" x2="1048.38" y2="131.15"/><line class="cls-3" x1="1093.07" y1="130.93" x2="1048.41" y2="137.04"/><line class="cls-3" x1="1091.52" y1="125.26" x2="1049.96" y2="142.71"/><line class="cls-4" x1="818.76" y1="386.33" x2="839.05" y2="422.99"/><line class="cls-4" x1="810.13" y1="403.14" x2="822.58" y2="359.82"/><line class="cls-4" x1="815.95" y1="404.01" x2="816.76" y2="358.95"/><line class="cls-4" x1="821.8" y1="403.35" x2="810.92" y2="359.61"/><line class="cls-4" x1="827.27" y1="401.2" x2="805.44" y2="361.76"/><line class="cls-4" x1="832" y1="397.7" x2="800.71" y2="365.26"/><line class="cls-4" x1="835.67" y1="393.1" x2="797.04" y2="369.86"/><line class="cls-4" x1="838.02" y1="387.7" x2="794.7" y2="375.26"/><line class="cls-4" x1="838.89" y1="381.89" x2="793.82" y2="381.07"/><line class="cls-4" x1="838.23" y1="376.04" x2="794.49" y2="386.92"/><line class="cls-4" x1="836.07" y1="370.57" x2="796.64" y2="392.4"/><line class="cls-4" x1="832.58" y1="365.83" x2="800.14" y2="397.13"/><line class="cls-4" x1="827.97" y1="362.17" x2="804.74" y2="400.79"/><line class="cls-4" x1="613.04" y1="352.48" x2="600.96" y2="392.6"/><line class="cls-4" x1="594.98" y1="358.04" x2="634.69" y2="336.71"/><line class="cls-4" x1="598.42" y1="362.81" x2="631.25" y2="331.93"/><line class="cls-4" x1="602.98" y1="366.54" x2="626.7" y2="328.21"/><line class="cls-4" x1="608.34" y1="368.95" x2="621.33" y2="325.79"/><line class="cls-4" x1="614.15" y1="369.9" x2="615.53" y2="324.85"/><line class="cls-4" x1="620" y1="369.31" x2="609.67" y2="325.44"/><line class="cls-4" x1="625.5" y1="367.23" x2="604.17" y2="327.52"/><line class="cls-4" x1="630.28" y1="363.79" x2="599.4" y2="330.96"/><line class="cls-4" x1="634" y1="359.23" x2="595.67" y2="335.51"/><line class="cls-4" x1="636.42" y1="353.87" x2="593.26" y2="340.88"/><line class="cls-4" x1="637.36" y1="348.06" x2="592.31" y2="346.68"/><line class="cls-4" x1="636.77" y1="342.21" x2="592.9" y2="352.54"/><line class="cls-4" x1="842.13" y1="184.75" x2="830.85" y2="225.1"/><line class="cls-4" x1="824.19" y1="190.66" x2="863.46" y2="168.55"/><line class="cls-4" x1="827.72" y1="195.37" x2="859.93" y2="163.84"/><line class="cls-4" x1="832.35" y1="199" x2="855.3" y2="160.21"/><line class="cls-4" x1="837.76" y1="201.31" x2="849.89" y2="157.9"/><line class="cls-4" x1="843.58" y1="202.14" x2="844.07" y2="157.07"/><line class="cls-4" x1="849.42" y1="201.44" x2="838.23" y2="157.78"/><line class="cls-4" x1="854.88" y1="199.25" x2="832.77" y2="159.97"/><line class="cls-4" x1="859.59" y1="195.71" x2="828.06" y2="163.5"/><line class="cls-4" x1="863.22" y1="191.09" x2="824.43" y2="168.13"/><line class="cls-4" x1="865.53" y1="185.68" x2="822.12" y2="173.54"/><line class="cls-4" x1="866.36" y1="179.85" x2="821.29" y2="179.36"/><line class="cls-4" x1="865.65" y1="174.01" x2="821.99" y2="185.2"/><line class="cls-4" x1="1068.92" y1="316.28" x2="1056.64" y2="356.34"/><line class="cls-4" x1="1050.83" y1="321.75" x2="1090.64" y2="300.61"/><line class="cls-4" x1="1054.25" y1="326.54" x2="1087.23" y2="295.82"/><line class="cls-4" x1="1058.78" y1="330.28" x2="1082.69" y2="292.08"/><line class="cls-4" x1="1064.14" y1="332.73" x2="1077.34" y2="289.63"/><line class="cls-4" x1="1069.94" y1="333.7" x2="1071.54" y2="288.66"/><line class="cls-4" x1="1075.79" y1="333.14" x2="1065.68" y2="289.22"/><line class="cls-4" x1="1081.31" y1="331.09" x2="1060.17" y2="291.27"/><line class="cls-4" x1="1086.1" y1="327.67" x2="1055.38" y2="294.69"/><line class="cls-4" x1="1089.84" y1="323.14" x2="1051.63" y2="299.22"/><line class="cls-4" x1="1092.29" y1="317.78" x2="1049.19" y2="304.58"/><line class="cls-4" x1="1093.26" y1="311.98" x2="1048.22" y2="310.38"/><line class="cls-4" x1="1092.7" y1="306.12" x2="1048.78" y2="316.24"/><path class="cls-1" d="M419.77,472.93c-24.6-25-34.2-60.15-28.8-94.48l-2.1,2.09c34.13-5.36,69.76,4.09,94.48,28.81s34.17,60.35,28.8,94.48l2.1-2.1c-34.33,5.4-69.5-4.2-94.48-28.8-2.76-2.71-7,1.53-4.24,4.24,26.6,26.21,63.82,36.08,100.31,30.35a2.89,2.89,0,0,0,2.1-2.1c4.42-28.11-.08-57.37-15.42-81.65a109.32,109.32,0,0,0-67.32-47.64,124.86,124.86,0,0,0-47.92-1.37,2.89,2.89,0,0,0-2.1,2.09c-5.73,36.5,4.14,73.72,30.35,100.32C418.24,479.93,422.48,475.69,419.77,472.93Z"/></svg>