<svg id="Layer_1" data-name="Layer 1" xmlns="http://www.w3.org/2000/svg" xmlns:xlink="http://www.w3.org/1999/xlink" viewBox="0 0 1920 1080"><defs><style>.cls-1,.cls-10,.cls-11,.cls-2,.cls-5,.cls-6,.cls-7,.cls-8,.cls-9{fill:none;}.cls-10,.cls-11,.cls-2,.cls-5,.cls-6,.cls-7,.cls-8,.cls-9{stroke:#000;stroke-miterlimit:10;}.cls-2{stroke-width:3px;}.cls-3{clip-path:url(#clip-path);}.cls-4{fill:#54cfc2;}.cls-10,.cls-11,.cls-5,.cls-6,.cls-7,.cls-8,.cls-9{stroke-width:5px;}.cls-6{stroke-dasharray:18.14 27.21;}.cls-7{stroke-dasharray:18.56 27.83;}.cls-8{stroke-dasharray:18.53 27.8;}.cls-9{stroke-dasharray:20.97 31.46;}.cls-10{stroke-dasharray:17.98 26.96;}.cls-11{stroke-dasharray:21.1 31.64;}</style><clipPath id="clip-path"><rect class="cls-1" width="1920" height="1080"/></clipPath></defs><title>part8</title><path d="M1129.36,688.43V510.17a4.52,4.52,0,0,0-2.23-3.88,52.9,52.9,0,0,0-69.41,15.76c-8.16,11.72-9.2,24.76-9.2,38.42v128c0,5.79,9,5.8,9,0V570.77c0-8.1-.72-16.67.32-24.74,3.92-30.52,38.29-46.78,64.74-32l-2.22-3.89V688.43c0,5.79,9,5.8,9,0Z"/><path d="M1251.23,688.43V586.05c0-36.65.3-73.32,0-110-.26-31.26-22.77-59.45-54-64.79-34.42-5.89-68.89,17-75.61,51.63-2.08,10.7-1.27,22-1.27,32.85V688.43c0,5.79,9,5.8,9,0V486.13c0-12.3.15-24.09,5.85-35.41a57.41,57.41,0,0,1,38.22-30.1c34.08-7.81,67.94,18.82,68.78,53.68.78,32.56,0,65.23,0,97.8V688.43c0,5.79,9,5.8,9,0Z"/><path d="M1022.91,689c.68,58.62,7.36,118,24.39,174.26,6.69,22.13,15.08,44,26.38,64.2,2.41,4.31,5,8.53,7.67,12.65,1.74,2.63,3,5.08,6.35,5.39,3.07.28,6.3,0,9.37,0h106.21c1,0,2.15.09,3.2,0,3.38-.31,4.61-2.76,6.35-5.39,12.05-18.25,21-38.54,28.24-59.11,19-53.59,27.14-111.07,29.56-167.68.35-8.1.55-16.21.65-24.32a4.57,4.57,0,0,0-4.5-4.5H1027.41c-5.8,0-5.8,9,0,9h239.37l-4.5-4.5c-.46,39.29-3.75,78.6-10.93,117.26-5.95,32-14.33,64-27.39,93.89a231,231,0,0,1-21,38.58l3.89-2.23H1087.37l3.89,2.23c-16-23.19-26.64-49.67-34.86-76.46-10.52-34.32-17-69.89-20.69-105.58-2.34-22.49-3.54-45.08-3.8-67.69C1031.84,683.21,1022.84,683.19,1022.91,689Z"/><line class="cls-2" x1="1053.02" y1="673.6" x2="1035.91" y2="673.6"/><line class="cls-2" x1="1053.02" y1="657.64" x2="1035.91" y2="657.64"/><line class="cls-2" x1="1053.02" y1="641.67" x2="1035.91" y2="641.67"/><line class="cls-2" x1="1053.02" y1="625.71" x2="1035.91" y2="625.71"/><line class="cls-2" x1="1053.02" y1="609.75" x2="1035.91" y2="609.75"/><line class="cls-2" x1="1053.02" y1="593.78" x2="1035.91" y2="593.78"/><line class="cls-2" x1="1053.02" y1="577.82" x2="1035.91" y2="577.82"/><line class="cls-2" x1="1053.02" y1="561.85" x2="1035.91" y2="561.85"/><line class="cls-2" x1="1053.02" y1="545.89" x2="1035.91" y2="545.89"/><line class="cls-2" x1="1262.83" y1="673.6" x2="1245.73" y2="673.6"/><line class="cls-2" x1="1262.83" y1="657.64" x2="1245.73" y2="657.64"/><line class="cls-2" x1="1262.83" y1="641.67" x2="1245.73" y2="641.67"/><line class="cls-2" x1="1262.83" y1="625.71" x2="1245.73" y2="625.71"/><line class="cls-2" x1="1262.83" y1="609.75" x2="1245.73" y2="609.75"/><line class="cls-2" x1="1262.83" y1="593.78" x2="1245.73" y2="593.78"/><line class="cls-2" x1="1262.83" y1="577.82" x2="1245.73" y2="577.82"/><line class="cls-2" x1="1262.83" y1="561.85" x2="1245.73" y2="561.85"/><line class="cls-2" x1="1262.83" y1="545.89" x2="1245.73" y2="545.89"/><line class="cls-2" x1="1262.83" y1="529.92" x2="1245.73" y2="529.92"/><line class="cls-2" x1="1262.83" y1="513.96" x2="1245.73" y2="513.96"/><line class="cls-2" x1="1262.83" y1="498" x2="1245.73" y2="498"/><line class="cls-2" x1="1262.83" y1="482.03" x2="1245.73" y2="482.03"/><line class="cls-2" x1="1262.83" y1="466.07" x2="1245.73" y2="466.07"/><line class="cls-2" x1="1078.1" y1="507.12" x2="1078.1" y2="491.15"/><line class="cls-2" x1="1090.65" y1="503.7" x2="1090.65" y2="487.73"/><line class="cls-2" x1="1103.19" y1="503.7" x2="1103.19" y2="487.73"/><line class="cls-2" x1="1114.59" y1="505.98" x2="1114.59" y2="490.01"/><line class="cls-2" x1="1164.77" y1="418.18" x2="1164.77" y2="402.21"/><line class="cls-2" x1="1152.22" y1="425.02" x2="1152.22" y2="409.05"/><line class="cls-2" x1="1177.31" y1="414.76" x2="1177.31" y2="398.79"/><line class="cls-2" x1="1189.85" y1="414.76" x2="1189.85" y2="398.79"/><line class="cls-2" x1="1202.39" y1="417.04" x2="1202.39" y2="401.07"/><line class="cls-2" x1="1213.8" y1="422.74" x2="1213.8" y2="406.77"/><path d="M1815.51,938H1077c-31.53,0-63.16-.74-94.68,0H981c-3.86,0-3.87,6,0,6h738.52c31.53,0,63.16.74,94.69,0h1.33c3.86,0,3.87-6,0-6H1077c-31.53,0-63.16-.74-94.68,0H981c-3.86,0-3.87,6,0,6h738.52c31.53,0,63.16.74,94.69,0h1.33C1819.37,944,1819.38,938,1815.51,938Z"/><g class="cls-3"><circle class="cls-4" cx="1657.71" cy="260.12" r="147.54"/><path d="M1802.25,260.12c-.28,60.06-38.35,115.29-95,135.85-57,20.69-122.25,2.84-161-43.81s-43.64-114.67-12.44-166.5,93.3-79.3,152.67-67.22c58.48,11.9,104.55,60.06,114,119a146.62,146.62,0,0,1,1.76,22.73c0,3.86,6,3.87,6,0-.29-62.65-39.92-119.72-98.81-141.4-59.21-21.8-127.81-3-167.85,45.62s-45.51,119.2-13,173.27,96.93,82.4,158.78,70.11c61.06-12.12,109.8-63.05,119.08-124.63a159.06,159.06,0,0,0,1.76-23C1808.27,256.26,1802.27,256.26,1802.25,260.12Z"/><line class="cls-5" x1="1522.13" y1="99.78" x2="1515.06" y2="92.7"/><line class="cls-6" x1="1495.82" y1="73.46" x2="1345.11" y2="-77.25"/><line class="cls-5" x1="1470.32" y1="176.36" x2="1460.86" y2="173.11"/><line class="cls-7" x1="1434.54" y1="164.08" x2="1184.44" y2="78.26"/><line class="cls-5" x1="1171.27" y1="73.74" x2="1161.82" y2="70.49"/><line class="cls-5" x1="1468.07" y1="288.98" x2="1458.07" y2="288.98"/><line class="cls-8" x1="1430.27" y1="288.98" x2="1166.21" y2="288.98"/><line class="cls-5" x1="1152.32" y1="288.98" x2="1142.32" y2="288.98"/><line class="cls-5" x1="1570.34" y1="443.52" x2="1564.26" y2="451.46"/><line class="cls-9" x1="1545.13" y1="476.44" x2="1395.25" y2="672.07"/><line class="cls-5" x1="1385.68" y1="684.56" x2="1379.6" y2="692.5"/><line class="cls-5" x1="1495.88" y1="373.4" x2="1487.1" y2="378.19"/><line class="cls-10" x1="1463.43" y1="391.11" x2="1317.49" y2="470.78"/><line class="cls-5" x1="1305.65" y1="477.24" x2="1296.87" y2="482.03"/><line class="cls-5" x1="1668.54" y1="464.83" x2="1668.54" y2="474.83"/><line class="cls-11" x1="1668.54" y1="506.47" x2="1668.54" y2="754.35"/><line class="cls-5" x1="1668.54" y1="770.17" x2="1668.54" y2="780.17"/><line class="cls-5" x1="1772.88" y1="443.52" x2="1778.96" y2="451.46"/><line class="cls-9" x1="1798.09" y1="476.44" x2="1947.97" y2="672.07"/></g></svg>