<?xml version="1.0" encoding="utf-8"?>
<!-- Generator: Adobe Illustrator 23.0.1, SVG Export Plug-In . SVG Version: 6.00 Build 0)  -->
<svg version="1.1" id="Layer_1" xmlns="http://www.w3.org/2000/svg" xmlns:xlink="http://www.w3.org/1999/xlink" x="0px" y="0px"
	 viewBox="0 0 1920 1080" style="enable-background:new 0 0 1920 1080;" xml:space="preserve">
<style type="text/css">
	.st0{fill:#1A1A1A;}
	.st1{fill:#E7A322;}
</style>
<image style="overflow:visible;" width="1179" height="1037" xlink:href="../../../../../../../Users/mayapillai/Desktop/FullStack_UoH/Images/Illustrations/scans/Epson_26112018150514(1) copy 2.jpg"  transform="matrix(2.1899 0 0 2.1899 -5823 -184)">
</image>
<g>
	<g>
		<path class="st0" d="M4296,693.5c0.1-2.5,0.1-2.3,0.8-5.2c1-4.5,2.6-8.9,4.8-12.9c7.9-14.4,22.6-22.2,38.5-24.7
			c28-4.5,57.9,2.4,85.3,7.7c25.4,5,51.6,10.5,77.6,7.2c22.9-2.9,43.3-12.9,59.4-29.4c13.2-13.5,22.3-29.8,33.5-44.8
			c4.2-5.6,8.9-11.5,15.6-14c7.4-2.8,15.7-2.9,23.5-3.2c17.7-0.6,37-0.9,51.2-12.9c13.9-11.8,16.5-29.6,15.9-46.7
			c-0.7-18-4.3-35.9-3.1-53.9c0.5-7.7,2-15.8,6.6-22.2c5-7,12.9-10.2,21-11.9c29.1-6.1,58.8,1,86.7,9c21.9,6.2,45.3,15.2,68.3,12
			c24.1-3.4,46.6-15.3,68.5-25.1c24.9-11.2,50.7-22.2,78.1-25.1c25.2-2.7,50.9-0.3,75.8,4.5c23.7,4.6,47.1,11.4,69.3,20.9
			c8.6,3.7,17.1,7.8,25.1,12.8c8.4,5.2,16.3,10.8,25.2,15.2c46.6,23.3,101.1,29.5,152.6,29.3c15.3-0.1,30.5-0.9,45.7-2.2
			c5.7-0.5,5.8-9.5,0-9c-56.7,4.9-116.3,3.1-170.5-16c-10.7-3.8-21.1-8.3-30.9-13.8c-8.2-4.6-15.7-10.3-23.9-14.9
			c-19.5-10.7-40.8-18.3-62.2-24.3c-24.4-6.8-49.7-11.3-75-12.3c-26.3-1.1-51.6,2.8-76.3,11.7c-25.6,9.2-49.6,22.1-74.9,31.7
			c-10.5,4-21.7,7.7-33,8.4c-11.4,0.7-22.9-2.2-33.9-5.1c-27-7.1-53.6-16.5-81.7-18.4c-20.2-1.4-48-0.8-61.2,17.5
			c-10,13.8-9.2,32.7-8,48.8c1.3,16.9,5.1,35.1,1.7,51.9c-4.1,20.2-21.1,28.9-40.1,30.6c-15.7,1.4-35-1.5-49.1,7.3
			c-13.7,8.5-21.9,25.8-30.9,38.6c-12.3,17.4-27.3,33.3-47.6,41c-25.2,9.7-52.8,6.6-78.7,1.9c-28.4-5.1-56.6-11.8-85.6-12.5
			c-20-0.5-41,2.9-56.1,17c-8.3,7.8-14.1,18.5-16.2,29.7c-0.4,2-0.7,4.2-0.8,6.2C4286.8,699.3,4295.8,699.3,4296,693.5L4296,693.5z"
			/>
	</g>
</g>
<g>
	<g>
		<path class="st0" d="M5473.7,457.7c17.8-17.8,41.2-33.1,65.5-39.8c16.5-4.6,32.8-3.9,48.1,4c14.9,7.7,27.6,19.1,40.2,30.1
			c11.6,10.1,23.4,20.8,37.3,27.7c13.8,6.9,28.6,7.8,43.4,3.7c14.4-4,26.2-13,38.9-20.4c15.4-9,32.1-13.5,50-13.7
			c17.8-0.2,35.3,3.2,52.7,6.3c19.7,3.6,39.5,6.9,59.6,7.7c24.1,0.9,47.9-2.7,71.8-5.5c23.8-2.8,47.6-5.5,71.5-7.2
			c35.5-2.6,70.5-2.1,105.5,4.2c35.2,6.4,70.2,15.2,104.2,26.3c30.8,10,60.1,21.8,85.6,42.1c26.1,20.8,51.3,46.9,85.8,52.4
			c9.2,1.5,18.3,1.5,27.5,0.3c5.7-0.7,5.7-9.7,0-9c-18.4,2.3-36.2-0.7-52.6-9.3c-15.4-8.1-28.7-19.5-42-30.6
			c-12.6-10.6-25.5-21.2-39.9-29.3c-13.3-7.4-27.6-13.1-41.8-18.4c-34.1-12.5-69.5-22-105.1-29.5c-33.2-7-66.1-10.8-100.1-9.8
			c-22.5,0.7-44.9,2.7-67.2,5.1c-25.1,2.7-50.2,6.6-75.4,8.6c-21.7,1.7-43.4,0-64.9-3.4c-18.1-2.9-36.1-6.9-54.4-9
			c-18-2.1-36.7-1.8-54.1,4c-14.9,4.9-27.3,14-40.7,21.7c-12.8,7.3-28.5,12.4-43.3,8.7c-14.6-3.7-27.1-14.1-38.3-23.7
			c-23.8-20.2-49.1-46.9-82.7-46.4c-32.4,0.5-63,20-86.5,40.8c-1.7,1.5-3.4,3-5,4.6C5463.2,455.4,5469.6,461.8,5473.7,457.7
			L5473.7,457.7z"/>
	</g>
</g>
<g>
	<g>
		<path class="st0" d="M5432.3,492.2c12.6-37.8,22.6-76.9,29.1-116.2c4.6-27.5,6.9-55.2,2.7-83c-4.7-30.4-16.7-59.5-33-85.5
			c-18.5-29.5-42.6-55.9-69.4-78c-17.8-14.7-38.7-24.9-60.1-33.2c-50.2-19.5-103.8-29.1-156.4-39.8c-24.5-5-49.1-10-73.2-16.6
			c-18.6-5.1-37.7-10.9-54.2-21.1c-12.2-7.5-22.4-18.2-31.8-28.9c-3.8-4.4-7.4-9-11.1-13.5c-3.9-4.7-9.8-3.8-10.7,2.7
			c-1,6.9-0.9,14.2-1.2,21.1c-0.5,11.9-0.7,23.7-0.7,35.6c0.1,30.1,1.9,60.4,7.3,90c4.7,25.8,13.4,50.7,25.4,74
			c23.1,44.7,59.8,79.4,103,104.6c58.8,34.2,125.5,49.7,189.1,72.2c29.7,10.5,59.6,21.9,86.9,38c18.7,11,39.3,25.7,47.3,46.9
			c3.4,9.1,4.1,18.7,2.3,28.2C5422.6,495.5,5431.3,497.9,5432.3,492.2c8.8-46.4-34.1-76.1-70.3-94.3c-57.9-29.2-121.2-44.2-182-66
			c-49.4-17.7-98.2-41.7-135.6-79.2c-32.6-32.8-54.9-75.6-64.5-120.7c-10.1-47.6-10.2-97.8-7.2-146.2c0.1-1.3,0.2-2.6,0.3-3.9
			c0-0.5,0.1-1.1,0.1-1.6c0-1.2,0.6-1.4-0.1,0c-0.9,0.7-1.8,1.4-2.7,2.1c0.2-0.1,0.5-0.1,0.7-0.2c-1.2-0.2-2.3-0.3-3.5-0.5
			c-1.2-0.7-0.4-0.9-0.1-0.2c0.1,0.4,0.9,1.1,1.2,1.5c0.7,1,1.5,1.9,2.2,2.8c2.1,2.7,4.3,5.3,6.5,7.8c5.5,6.4,11.2,12.6,17.3,18.4
			c8.3,7.8,17.4,14.5,27.6,19.6c19.6,9.8,41.1,15.7,62.3,20.9c54,13.3,109.1,21.5,162.8,35.9c25.5,6.8,51,14.9,74.8,26.7
			c26.4,13.1,48,32.4,67.9,54c23.5,25.5,43.4,54.9,55.3,87.6c10.3,28.4,13.7,58.1,11.1,88.1c-4.3,48.2-17.2,96.2-32,142.2
			c-0.3,0.9-0.6,1.8-0.9,2.7C5421.8,495.3,5430.5,497.7,5432.3,492.2z"/>
	</g>
</g>
<g>
	<g>
		<path class="st0" d="M5496.5,349c0.7-5.9-0.6-12.5-1-18.4c-0.9-12.7-1.9-25.3-2.7-38c-2-32.3-3.5-64.8-1.6-97.1
			c1.7-27.5,8.6-53.1,20.8-77.8c14.7-29.6,34.4-56.6,56.4-81.2c52.1-58.1,118.9-104.9,192.3-131.6c24.3-8.8,49.4-15.5,74.3-22.3
			c29.6-8.2,59.3-16.1,88.9-24.4c22.3-6.3,45-12.2,66.6-20.7c1.8-0.7,13.9-4.6,13.9-7.7c0,0-1.7,0.8-3,0.5c-1.1-0.3-1.4-1-1.5-1
			c0,0,0.8,1.7,1.1,2.9c1.1,3.9,1.7,8,2.1,12c3.3,28.4,3,57.7,0.8,86.2c-2.6,33.6-13,65.9-27.8,96.1c-17.7,36.1-41.7,69.1-69.7,97.9
			c-27.4,28.1-59.1,53.2-93.9,71.5c-20.1,10.6-41.8,18.4-63,26.4c-29,10.9-58.1,21.3-87.1,32.1c-28.6,10.6-57.2,21.3-85.2,33.3
			c-19.8,8.5-40.7,17.1-58,30.3c-11.5,8.8-22.2,19-30.9,30.6c-15.9,21-26,46.1-33.6,71.1c-6,19.7-10.4,39.8-14.1,60.1
			c-1,5.7,7.6,8.1,8.7,2.4c9.5-52.1,23.1-111.1,64.5-147.8c12.9-11.5,27.1-19.9,42.7-27.4c26.1-12.6,53.2-23,80.2-33.3
			c55-20.9,111.6-38.8,165.4-62.7c29.9-13.3,57.2-32.3,82.1-53.4c31.4-26.6,58.9-58,80.9-92.8c20.5-32.4,37.1-68.8,44.5-106.6
			c5.6-28.8,5.6-59.2,4.5-88.4c-0.2-5.2-0.3-55.6-14.5-47.6c-1,0.5-1.4,1.3-2.1,1.9c-1,0.9,0.3-0.1-0.2,0.2
			c-0.4,0.3-0.9,0.6-1.3,0.8c-2.6,1.5-5.2,2.6-7.8,3.6c-9.3,3.7-19,6.7-28.6,9.6c-56.3,17.3-113.7,30.9-170.2,47.7
			C5719-92.8,5654.7-56.6,5600-7.6c-27,24.2-51.6,51.2-72.1,81.1c-17,24.6-31.7,51.7-39.5,80.8c-7.8,28.7-7.4,59.6-6.7,89.1
			c0.7,29.4,2.8,58.7,4.9,88c0.4,5.7,1.6,12,0.9,17.7C5486.8,354.7,5495.8,354.7,5496.5,349L5496.5,349z"/>
	</g>
</g>
<g>
	<g>
		<path class="st0" d="M5074.2,114.7c5.2,26.9,17.7,54.1,33.8,76.1c12.2,16.7,27.3,31,45.5,41c17.6,9.7,37,16,56.3,21.3
			c40.9,11.2,83.6,17.3,123.1,33.3c17.4,7,33.8,16.5,47,30c8.9,9.1,16.7,19.3,22.9,30.4c22.5,40.6,25.8,90.4,27.2,135.7
			c0.2,5.8,9.2,5.8,9,0c-2.2-70.9-12.4-154.9-80.4-193.7c-36.6-20.9-79.7-28.2-120.2-37.8c-39.1-9.3-80.8-19.6-109.7-49.4
			c-22.9-23.7-39.6-56.8-45.8-89.2C5081.7,106.6,5073.1,109,5074.2,114.7L5074.2,114.7z"/>
	</g>
</g>
<g>
	<g>
		<path class="st0" d="M5901.7-69.2c-6,20.1-16.2,39.5-27.3,57.1c-10.7,16.9-23.3,32.6-38.1,46.1c-17.6,16.1-37.8,27.2-59.6,36.6
			c-40.5,17.5-84,27.7-122.6,49.6c-22.7,12.9-44.4,28.8-63.2,46.9c-16.7,16-30.8,34.8-43.2,54.3c-24.4,38.3-44.6,81.1-57.3,124.8
			c-1.6,5.6,7.1,7.9,8.7,2.4c11.2-38.4,28.4-75.7,48.7-110.1c12-20.3,25.5-40,41.7-57.2c17.8-19,39.3-35.3,61.5-48.8
			c38.1-23.1,81.2-33.8,122-50.6c22-9.1,42.9-19.3,61.4-34.5c15.9-13,29.5-28.6,41.3-45.4c14.4-20.7,27.2-44.4,34.5-68.7
			C5912-72.4,5903.3-74.7,5901.7-69.2L5901.7-69.2z"/>
	</g>
</g>
<g>
	<path class="st1" d="M1347.4,509.2c0,0,11.5-67.6,10.3-108.1s-23-80-63.5-114.6c-50.5-43-178.8-43-218-71.6
		c-10.7-7.8-21.3-21.3-24.6-25.5c-0.3-0.5-1.1-0.2-1.1,0.3c-0.8,10.7-4.8,71.8,8.2,111.1c18.6,56.1,57.9,91.6,138.9,117.1
		C1274,442,1356.2,465,1347.4,509.2z"/>
	<g>
		<path class="st0" d="M1350.3,510c4.6-26.9,8.1-54.3,9.8-81.5c1.2-18.9,1.3-37.8-3.7-56.2c-5.3-19.7-15.2-37.9-27.5-54
			c-12.3-15.9-27.1-31.7-44.3-42.4c-13.4-8.4-28.3-14.1-43.3-18.8c-33.8-10.6-69-16.1-103.6-23.8c-15.8-3.5-32-7.2-46.8-13.7
			c-6.9-3-13.1-6.8-18.7-11.9c-4.6-4.1-8.8-8.7-12.7-13.4c-2.2-2.6-4.4-7-7.7-8.1c-0.9-0.3-2.3,0-2.9,0.8c-2.3,2.8-1.7,7.9-1.9,11.4
			c-0.3,6.4-0.5,12.9-0.6,19.3c-0.2,17.2,0.4,34.4,2.6,51.4c3.9,30.2,14.7,59.1,33.7,83.1c46.7,58.9,127,69.5,193.1,94.7
			c17.9,6.8,36.6,14.5,51.7,26.5c10.9,8.6,19.7,20.4,17.1,34.9C1343.9,512.2,1349.6,513.8,1350.3,510c5.2-28.2-22.6-45.9-44.4-56.6
			c-36-17.7-75.3-27.7-113.2-40.2c-32.8-10.8-65.7-25.4-91.1-49.2c-21.6-20.2-36.6-47-43.3-75.8c-4.6-19.7-5.8-40.2-6-60.4
			c-0.1-7.9,0.1-15.8,0.4-23.7c0.1-2.9,0.3-5.8,0.4-8.7c0.1-1,0.1-2,0.2-3.1c0-0.4,0.1-0.8,0.1-1.2c-0.1-1.3,0.8-1.2-0.3,0.2
			c-1,0.3-1.9,0.5-2.9,0.8c-1.4-0.5-0.5-0.5,0.2,0.6c0.3,0.5,0.8,1,1.1,1.4c1.2,1.5,2.5,3,3.7,4.5c3.5,4.1,7.1,8,11,11.7
			c5.2,4.9,10.7,9.1,17.1,12.3c11.6,5.9,24.4,9.5,37,12.7c33.1,8.4,67,13.4,100,22c16,4.2,32,9,47,16c16.2,7.6,29.4,18.4,41.9,31.3
			c15.3,15.8,28.5,34.2,36.7,54.7c7.1,17.9,9.4,36.4,8.9,55.5c-0.8,31.3-4.9,62.7-10.2,93.5C1343.9,512.2,1349.7,513.8,1350.3,510z"
			/>
	</g>
</g>
<g>
	<path class="st1" d="M1376.4,420.5c0.6-4.4-7.9-78.8-1.2-113.4c10.9-57,82.5-136.7,172.6-167.6c35.1-12,140.2-36.8,145.8-44.2
		c5.6-7.5,8.1,56.7,2.2,83.2c-13.2,59.1-59.2,116.5-116.5,148.3c-33.1,18.3-159.5,55.4-185.9,78.2c-12.1,10.4-31.5,25.9-44.5,98.1"
		/>
	<g>
		<path class="st0" d="M1379.4,420.5c0.4-3.6-0.3-7.6-0.6-11.2c-0.6-8-1.2-15.9-1.7-23.9c-1.2-20.1-2.2-40.3-1-60.4
			c2.3-38.4,23.3-71.6,48.5-99.6c32.4-36,73.8-64.9,119.4-81.5c32.8-11.9,67.3-19.5,100.9-28.9c14-3.9,28.2-7.6,41.7-12.9
			c1.9-0.7,8-2.4,8.8-4.7c0.3-0.9-2.7-0.5-2.7-0.4c-0.1,0.2,0.6,1.6,0.7,2c0.7,2.7,1,5.5,1.3,8.2c1.9,17.9,1.8,36.4,0.2,54.3
			c-1.8,21.1-8.8,41.5-18.4,60.3c-21.8,43.1-58.5,81.5-101.7,103.6c-13,6.7-26.9,11.7-40.6,16.8c-17.9,6.7-35.9,13.2-53.8,19.8
			c-17.7,6.6-35.4,13.2-52.8,20.7c-12.1,5.2-25,10.6-35.4,18.9c-20.1,16-30.8,38.7-37.9,63c-3.6,12.3-6.3,24.9-8.7,37.5
			c-0.7,3.8,5.1,5.4,5.8,1.6c5.9-32.3,13.8-69.9,39.3-92.9c8.3-7.5,17.8-12.7,27.9-17.4c16.8-7.9,34.2-14.6,51.6-21.1
			c33.7-12.7,68.4-23.6,101.2-38.5c19.2-8.7,36.8-21.4,52.6-35.3c19.2-16.9,36.1-36.7,49.3-58.6c12-19.7,21.9-42.1,25.8-65
			c3.1-18.3,3.2-37.3,2.3-55.7c-0.2-3.5-0.2-31.8-9.2-26.9c-2.3,1.2-4,2.9-7.2,4.1c-5.7,2.3-11.7,4.1-17.6,5.9
			c-35.3,10.8-71.3,19.4-106.8,29.9c-43.9,13.1-84,35.9-118.1,66.6c-29.5,26.6-58,60.8-68.8,99.8c-4.9,17.8-4.7,36.9-4.3,55.3
			c0.4,18.5,1.7,36.9,3.1,55.3c0.3,3.6,1,7.6,0.6,11.2C1373,424.3,1379,424.3,1379.4,420.5L1379.4,420.5z"/>
	</g>
</g>
<g>
	<g>
		<path class="st0" d="M1115.9,274.6c3.2,16.7,11,33.6,20.9,47.2c7.5,10.3,16.7,19.1,27.9,25.4c10.8,6.1,22.7,10,34.6,13.3
			c25.6,7.1,52.3,10.9,77.1,20.8c19.3,7.7,34.4,20.8,45.9,38c16.9,25.3,21.8,56.3,22.8,86.2c0.1,3.9,6.1,3.9,6,0
			c-0.9-27.3-4.9-55.3-17.9-79.6c-8.5-16.1-21.4-31.7-36.9-41.4c-22.1-13.7-48.9-18.5-73.8-24.3c-24.8-5.8-52-11.7-70.8-30.2
			c-15.1-14.8-26-36.2-30-57C1121,269.2,1115.2,270.8,1115.9,274.6L1115.9,274.6z"/>
	</g>
</g>
<g>
	<g>
		<path class="st0" d="M1631.4,159.9c-3.8,12.6-10.1,24.7-17.2,35.7c-6.7,10.6-14.6,20.3-23.9,28.8c-11.3,10.3-24.4,17.3-38.5,23.2
			c-25,10.6-51.7,17-75.4,30.6c-27,15.5-49,36.7-65.7,62.9c-15.1,23.8-27.6,50.4-35.6,77.6c-1.1,3.7,4.7,5.3,5.8,1.6
			c7.1-24.2,17.9-47.6,30.8-69.3c7.6-12.7,16.1-25,26.3-35.7c11.5-12,25.2-22.3,39.5-30.7c23.8-14.1,50.8-20.6,76.2-31.3
			c13.4-5.7,26.1-12.2,37.3-21.6c9.6-8,17.8-17.6,24.9-27.8c8.8-12.8,16.7-27.3,21.2-42.3C1638.3,157.8,1632.5,156.2,1631.4,159.9
			L1631.4,159.9z"/>
	</g>
</g>
<g>
	<g>
		<path class="st0" d="M5425.1,485.7c-10.9,19.8-25.5,38.3-41.4,54.2c-13.7,13.6-29.3,25.8-47.1,33.5c-14.3,6.2-29.9,8.5-45.4,9.2
			c-32.9,1.5-65.8-3-98.7-2.6c-45.2,0.5-89.7,8.8-131.9,25c-46.2,17.7-90.4,42.2-129.6,72.5c-30.9,23.9-57.9,51.8-84.6,80.1
			c-29.5,31.3-59,63.4-92.7,90.4c-31.8,25.4-70.3,41.3-109.4,51.4c-63.8,16.5-131.3,19.2-196.8,14.2c-3.8-0.3-7.6-0.6-11.4-1
			c-5.8-0.5-5.7,8.5,0,9c60.5,5.6,122.4,4.3,182.2-7.1c39.6-7.6,78.8-20,113.6-40.6c18.7-11,35.1-24.8,51-39.4
			c16.3-14.9,31.9-30.5,47.2-46.5c27.2-28.4,53.4-57.9,83-84c34.9-30.8,74.3-55.6,116.2-75.6c45-21.5,93-35.6,142.9-38.6
			c34.6-2.1,68.9,1.7,103.4,2.1c14.7,0.2,29.6-0.6,44-3.7c18.8-4,35.8-13.1,51-24.7c24-18.4,44-42.6,59.6-68.5
			c0.9-1.6,1.9-3.1,2.8-4.7C5435.7,485.2,5427.9,480.6,5425.1,485.7L5425.1,485.7z"/>
	</g>
</g>
<g>
	<g>
		<path class="st0" d="M5141.2,580.8c-3.7-4.3-8.5-7.9-13-11.2c-12.4-9-26.5-15.7-40.9-20.8c-53.4-19.1-113.6-17.1-168.9-8.9
			c-43.5,6.5-85.6,20.6-120.6,47.8c-14.2,11-27.1,23.5-38.5,37.4c-12.9,15.8-24.6,32.5-37.4,48.4c-13.5,16.7-28.3,32.8-45.9,45.3
			c-19.2,13.7-41.4,22.6-64.9,25.4c-6.6,0.8-13.3,1.1-20,1.2c-5.8,0-5.8,9,0,9c24.7-0.1,49-5.3,71-16.6
			c19.1-9.8,35.8-23.9,50.4-39.6c26.8-28.8,46.5-63.8,75.5-90.5c30-27.6,66-45,105.7-54.1c29-6.6,58.8-9.3,88.5-10.1
			c28.5-0.8,57.3,1.2,84.9,8.5c24.4,6.4,49,17,67,34.4c0.3,0.2,0.5,0.5,0.7,0.8C5138.6,591.6,5144.9,585.2,5141.2,580.8
			L5141.2,580.8z"/>
	</g>
</g>
<g>
	<g>
		<path class="st0" d="M5024.8,629.3c0.9,0.1,1.8,0.4,2.7,0.7c2.5,0.8,3,1,5.8,2.7c7.4,4.3,13.3,11,17.8,18.5
			c8.8,14.6,12.9,31.9,14.8,48.7c2.6,22.6,2.3,45.8-3.2,68c-8.6,34.9-29.3,63.4-53,89.6c-9.1,10-18.5,19.8-26.5,30.7
			c-12.2,16.5-21.8,35-29.6,53.9c-21.6,52.5-26.9,112.5-6,166.1c2.1,5.3,10.8,3,8.7-2.4c-19.4-49.8-15.5-104.6,3.1-154
			c7.7-20.3,17.8-39.8,30.4-57.5c7.8-10.9,17.3-20.5,26.3-30.4c24.1-26.6,45.3-55.7,54.6-90.9c5.9-22.3,6.8-45.6,4.7-68.5
			c-1.7-18-5.3-36.3-13.6-52.5c-6.5-12.8-19.1-29.1-34.7-31.3C5021.5,619.9,5019.1,628.5,5024.8,629.3L5024.8,629.3z"/>
	</g>
</g>
<g>
	<g>
		<path class="st0" d="M5431.2,484.7c4.2,14.8,5.5,30.7,6.1,46c1.6,38.2-2.6,78.6-15,114.8c-12,35.1-34.2,65.7-55.6,95.7
			c-21.5,30.1-42.1,60.1-54.5,95.3c-13.1,37-18.2,76.2-15.4,115.4c2.6,35.3,11,69.8,19.9,104c9,34.9,18.5,69.9,22.4,105.8
			c1.9,17.6,2.5,35.3-0.4,52.9c-2.7,16-7.7,31.7-14.7,46.3c-25,51.9-76.3,97.2-134.2,107.2c-5.9,1-11.9,1.5-17.8,1.5
			c-5.8,0-5.8,9,0,9c27.2-0.1,53.8-10,76.9-23.7c26.7-15.9,49.9-37.7,67.6-63.2c18.7-27.1,30.6-58.8,33-91.8
			c2.6-36.4-5.9-73.9-14.5-109.1c-8.6-35.1-19-69.8-25-105.5c-6.4-37.7-7-76.1,1.4-113.5c4.6-20.5,11.4-41,20.7-59.9
			c8-16.2,18-31.4,28.3-46.2c21.4-30.9,45-60.7,61.2-94.8c17.1-36.1,23.7-77.2,24.9-116.9c0.7-22.8-0.6-46.3-5.8-68.5
			c-0.2-1-0.5-2-0.8-3.1C5438.2,476.7,5429.6,479.1,5431.2,484.7L5431.2,484.7z"/>
	</g>
</g>
<g>
	<g>
		<path class="st0" d="M5304.5,877c-27.1,0.7-55.1,10-79.2,21.6c-52.1,25.1-95,72-114.9,126.4c-17.4,47.7-10.7,98.3-16,147.8
			c-2.6,24.1-7.5,47.9-21.4,68.1c-11.3,16.5-27.1,29.6-44.1,39.9c-23.2,14-48.4,22.4-74.6,28.6c-0.5,0.1-0.9,0.2-1.4,0.3
			c-5.7,1-3.3,9.6,2.4,8.7c21.9-3.7,43.8-11.9,63.6-21.8c36.4-18.2,68.6-47.6,78.6-88.4c6.2-25.3,7.7-51.3,8.3-77.2
			c0.5-24.4,0.5-48.9,5-73c10.8-57.6,49.3-109.9,98.9-140.6c27.9-17.3,60.6-28.9,93.3-31.4c0.5,0,1.1-0.1,1.6-0.1
			C5310.3,885.9,5310.3,876.9,5304.5,877L5304.5,877z"/>
	</g>
</g>
<g>
	<g>
		<path class="st0" d="M5425.2,634.3c-7.2,21-12.8,42.7-17.6,64.4c-8.6,38.6-15.4,79.8-10.3,119.3c1.1,8.8,2.9,17.5,5.8,25.8
			c4.2,11.8,10.6,23,17,33.8c11.6,19.8,25.6,37.9,41.6,54.4c11.9,12.2,24.8,23.5,35.2,37c12.1,15.7,20.1,34,21.9,53.8
			c3.5,39.5-15.6,85-54.2,100.6c-4.8,1.9-9.8,3.3-14.9,4.3c-5.7,1.1-3.3,9.7,2.4,8.7c41.8-7.9,69.2-46.9,74.8-87.3
			c3-21.1,0.3-42.9-8.7-62.3c-7.4-16.1-18.9-29.7-31.3-42.2c-13.7-13.8-27.7-27-39.6-42.4c-8.2-10.6-15.5-21.8-22.1-33.5
			c-5.9-10.3-11.8-20.9-15.2-32.3c-5.4-18.3-6-37.8-5.2-56.8c0.9-20.9,3.9-41.7,7.9-62.3c5.2-26.9,12.9-53,20.5-79.3
			c0.1-0.4,0.3-0.9,0.4-1.3C5435.7,631.2,5427,628.8,5425.2,634.3L5425.2,634.3z"/>
	</g>
</g>
<g>
	<g>
		<path class="st0" d="M5441,481.5c1,14.1,3.5,28.1,6.4,41.9c6.3,30.5,15.9,60.5,29.6,88.4c16.5,33.6,39.6,61.8,69.5,84.4
			c32.7,24.6,69.8,42.3,106.3,60.4c37.6,18.6,75.6,37.6,108.4,64c34.1,27.4,63.5,61.9,84.1,100.6c38,71.3,40.6,159.3,5.1,232.3
			c-16.5,33.9-40.4,63.9-65.9,91.3c-16.6,17.8-34.1,34.8-52.7,50.5c-1,0.8-2,1.7-3,2.5c-4.5,3.7,1.9,10,6.4,6.4
			c13.9-11.3,27-23.7,39.7-36.4c25.8-25.8,50-53.8,69.4-84.8c42.2-67.5,52.2-154.1,25.3-229.1c-14.2-39.7-37.7-75.5-66.4-106.2
			c-30.1-32.2-65.6-57-104.3-77.7c-69.7-37.3-152.5-65.2-197.9-134.2c-18.6-28.3-31.1-60.2-39.7-92.8c-5-19.1-9-38.8-11-58.4
			c-0.1-1-0.2-2-0.3-3C5449.6,475.8,5440.6,475.7,5441,481.5L5441,481.5z"/>
	</g>
</g>
<g>
	<g>
		<path class="st0" d="M5536.8,689.2c15.2,13.2,28,30,38.9,46.7c25.4,38.9,41.1,83.9,43.3,130.4c2.2,46.4-12.2,91.2-15.9,137.2
			c-3.1,38.4-2.1,79.7,14.2,115.3c7.4,16.1,18.4,30.3,32.9,40.5c16.7,11.8,37.1,17,57.3,18.2c6.1,0.4,12.3,0.3,18.4,0
			c5.8-0.3,5.8-9.3,0-9c-21.3,1-43.5-1.4-62.5-11.7c-15.3-8.3-27.2-21.1-35.3-36.5c-17.9-33.6-18.9-74.7-16.4-111.8
			c1.3-19.2,3.9-38.2,7.4-57.2c4.7-25.5,9.5-50.5,9.2-76.5c-0.7-47.5-14.8-94-39.2-134.6c-12.3-20.4-27.1-40.9-45.1-56.7
			c-0.3-0.2-0.6-0.5-0.8-0.7C5538.8,679,5532.4,685.4,5536.8,689.2L5536.8,689.2z"/>
	</g>
</g>
<g>
	<g>
		<path class="st0" d="M5493.2,634.3c27.2-5.9,57.4-5,85.3-2.6c57.6,5,116.8,20.4,164.3,54.5c36.3,26,65.2,61.5,85.9,100.9
			c7.7,14.7,13.4,29.9,19.5,45.2c7.9,19.8,17.4,39,28.2,57.4c11.6,19.7,24.8,39,41,55.2c13.1,13,29.3,25.1,48.2,27
			c4.2,0.4,8.4,0.1,12.6-0.6c5.7-0.9,3.3-9.6-2.4-8.7c-17.9,3-34.8-8.1-47.4-19.7c-16.8-15.4-30.2-34.4-41.9-53.9
			c-11.1-18.5-21-37.8-29.1-57.8c-6.2-15.3-11.8-30.7-19.4-45.5c-19.9-39-47.8-74.3-82.5-101.2c-46-35.6-102.6-52.6-159.7-60
			c-23-3-46.3-4.1-69.5-3c-11.2,0.6-22.9,1.2-33.9,3.7c-0.5,0.1-1,0.2-1.5,0.3C5485.1,626.9,5487.5,635.6,5493.2,634.3L5493.2,634.3
			z"/>
	</g>
</g>
<g>
	<g>
		<path class="st0" d="M5457.5,466c0,8.1,2.5,16.5,5.4,24c7.5,19,21,34.6,37.5,46.4c28.4,20.3,64,28.7,98.2,32.4
			c25.7,2.7,51.7,3,77.5,3.5c20.2,0.4,40.3,0.6,60.5,0.5c29-0.2,58-1.1,86.9-0.1c34.3,1.2,68.4,5.4,102.3,10.6
			c55,8.6,109.7,19.2,163.6,32.8c48.3,12.2,96.5,26.6,142.2,46.5c20.4,8.9,40.3,18.9,59.1,30.9c17.8,11.3,34.5,24.1,51.7,36.3
			c15.1,10.7,30.7,20.7,48,27.4c17.7,6.9,36.9,9.3,55.8,7.4c11.6-1.2,22.9-3.8,34-7.2c5.5-1.7,3.2-10.4-2.4-8.7
			c-20.5,6.4-42.3,9.8-63.7,5.9c-17.6-3.2-33.7-10.9-48.8-20.3c-16.7-10.4-32.3-22.5-48.3-33.9c-18.1-12.8-36.9-24.6-56.8-34.5
			c-41.7-20.7-86.2-35.8-130.9-48.5c-51.8-14.7-104.6-26.1-157.7-35.6c-40.7-7.2-81.6-13.8-122.9-16.9c-27.6-2-55.2-1.9-82.8-1.6
			c-38.8,0.5-77.6,0.4-116.3-0.9c-41.8-1.4-85-3.2-123.5-21.5c-20.3-9.7-38.7-23.9-49.9-43.7c-3.5-6.2-5.9-11.9-7.8-18.7
			c-0.7-2.4-1.2-4.8-1.6-7.3c-0.1-0.4-0.1-0.9-0.2-1.3c-0.1-0.5,0.1,1,0-0.2c-0.1-0.7-0.1-1.5-0.2-2.2c0-0.5-0.1-1-0.1-1.6
			C5466.5,460.2,5457.5,460.2,5457.5,466L5457.5,466z"/>
	</g>
</g>
<g>
	<g>
		<path class="st0" d="M5827,575.5c-2.4-0.2-2.9-1.6-3.6-2.5c0.6,0.7,0.1-0.5,0,0.1c0,1.2,0.1,2.4,0.1,3.5c0,3.9,0,7.9,0.2,11.8
			c0.5,13.6,2.7,27.1,6.5,40.2c5.8,20.1,15,39.2,26.5,56.6c12.7,19.5,27.8,38,46.1,52.5c32.2,25.5,70.8,41.7,108.4,57.3
			c17.3,7.2,34.7,14.1,51.6,22.1c15.1,7.2,29,15.5,40.8,27.7c31,32.1,38.7,84.1,9.3,120c-3.6,4.4,2.7,10.9,6.4,6.4
			c25.4-31.1,27.6-75.3,7.9-109.9c-9.9-17.5-24.7-32.2-41.9-42.5c-15-8.9-31.2-15.7-47.3-22.4c-39.2-16.4-79.6-31.4-115.1-55.1
			c-19.5-13-35.6-29.1-49.5-48c-13.8-18.6-25.4-39-32.5-61.1c-4.9-15-7.6-30.5-8.1-46.3c-0.1-5.2,2.3-18.8-5.6-19.4
			C5821.2,566,5821.3,575,5827,575.5L5827,575.5z"/>
	</g>
</g>
<g>
	<g>
		<path class="st0" d="M6037.7,603.9c19.1,8.1,37.6,18.2,55.1,29.3c27.3,17.3,56,39.2,67.4,70.7c11.2,31.1,13,64.8,24.6,95.8
			c6,16.1,14.4,31.4,26.4,43.8c12.6,13,28.8,21.9,45,29.5c43.1,20.1,95.1,30.3,139,6.8c5.1-2.7,0.6-10.5-4.5-7.8
			c-39.3,21-86.4,12.5-125.4-4.8c-16.3-7.2-33.1-15.7-45.9-28.3c-12.1-11.9-20.5-27-26.3-42.8c-11.1-30.4-13.1-63.2-23.8-93.7
			c-10.9-31-36.2-52.9-62.6-71c-20.2-13.7-41.9-25.9-64.4-35.4C6037,593.9,6032.4,601.6,6037.7,603.9L6037.7,603.9z"/>
	</g>
</g>
<g>
	<g>
		<path class="st0" d="M5683.3,571.9c55.5-36.3,118.9-58.6,184.7-66.6c30.7-3.7,61.8-4.5,92.7-2.9c30.5,1.6,61.2,4.9,90.7,13.2
			c53.1,14.8,99.4,44.3,146.4,72.1c21.1,12.5,42.5,24.5,65.4,33.4c26.7,10.4,55.3,15,83.6,18c30.3,3.3,61,4.1,91.5,2.4
			c19.4-1.1,40.5-2.1,59.1-8.6c2.4-0.8,4.8-1.8,7-3.1c4.9-3.1,0.4-10.9-4.5-7.8c-4.8,3-11.4,4.2-17.2,5.4
			c-10.2,2.1-20.6,3.2-30.9,4.1c-29.2,2.5-58.6,2.3-87.8,0c-29.7-2.3-60.2-6.1-88.5-15.7c-23-7.9-44.6-19.5-65.6-31.7
			c-46.6-27.1-91.9-56.8-143.6-73.6c-28.8-9.3-58.6-13.7-88.7-16.1c-31-2.5-62.2-2.7-93.1,0c-64.5,5.7-127.8,24-184.1,56.3
			c-7.3,4.2-14.4,8.6-21.5,13.2C5673.9,567.3,5678.4,575.1,5683.3,571.9L5683.3,571.9z"/>
	</g>
</g>
<g>
	<g>
		<path class="st0" d="M4427,915c0,17.6,0,35.2,0,52.8c0,41.9,0,83.8,0,125.6c0,51,0,102,0,152.9c0,43.9,0,87.8,0,131.8
			c0,21.3-0.8,42.7,0,64c0,0.3,0,0.6,0,0.9c0,5.8,9,5.8,9,0c0-17.6,0-35.2,0-52.8c0-41.9,0-83.8,0-125.6c0-51,0-102,0-152.9
			c0-43.9,0-87.8,0-131.8c0-21.3,0.8-42.7,0-64c0-0.3,0-0.6,0-0.9C4436,909.2,4427,909.2,4427,915L4427,915z"/>
	</g>
</g>
<g>
	<g>
		<path class="st0" d="M4950,1106c0,17.6,0,35.2,0,52.8c0,41.9,0,83.8,0,125.6c0,51,0,102,0,152.9c0,43.9,0,87.8,0,131.8
			c0,21.3-0.8,42.7,0,64c0,0.3,0,0.6,0,0.9c0,5.8,9,5.8,9,0c0-17.6,0-35.2,0-52.8c0-41.9,0-83.8,0-125.6c0-51,0-102,0-152.9
			c0-43.9,0-87.8,0-131.8c0-21.3,0.8-42.7,0-64c0-0.3,0-0.6,0-0.9C4959,1100.2,4950,1100.2,4950,1106L4950,1106z"/>
	</g>
</g>
<g>
	<g>
		<path class="st0" d="M4435.5,1056c19.8,0,39.7,0,59.5,0c31.8,0,63.7,0,95.5,0c7.3,0,14.6,0,21.9,0c-1.5-1.5-3-3-4.5-4.5
			c0,32.1,0,64.2,0,96.2c0,4.6,0,9.2,0,13.8c0,5.8,9,5.8,9,0c0-32.1,0-64.2,0-96.2c0-4.6,0-9.2,0-13.8c0-2.4-2.1-4.5-4.5-4.5
			c-19.8,0-39.7,0-59.5,0c-31.8,0-63.7,0-95.5,0c-7.3,0-14.6,0-21.9,0C4429.7,1047,4429.7,1056,4435.5,1056L4435.5,1056z"/>
	</g>
</g>
<g>
	<g>
		<path class="st0" d="M4954.5,1156c-22.5,0-45,0-67.5,0c-35.9,0-71.8,0-107.7,0c-8.3,0-16.5,0-24.8,0c-2.4,0-4.5,2.1-4.5,4.5
			c0,24,0,48.1,0,72.1c0,38.1,0,76.3,0,114.4c0,8.8,0,17.6,0,26.5c0,5.8,9,5.8,9,0c0-24,0-48.1,0-72.1c0-38.1,0-76.3,0-114.4
			c0-8.8,0-17.6,0-26.5c-1.5,1.5-3,3-4.5,4.5c22.5,0,45,0,67.5,0c35.9,0,71.8,0,107.7,0c8.3,0,16.5,0,24.8,0
			C4960.3,1165,4960.3,1156,4954.5,1156L4954.5,1156z"/>
	</g>
</g>
<g>
	<g>
		<path class="st0" d="M4950.5,1587c-29.2,0-58.4,0-87.6,0c-4.1,0-8.3,0-12.4,0c1.5,1.5,3,3,4.5,4.5c0-26.7,0-53.3,0-80
			c0-2.4-2.1-4.5-4.5-4.5c-13,0-26,0-39,0c-5.8,0-5.8,9,0,9c13,0,26,0,39,0c-1.5-1.5-3-3-4.5-4.5c0,26.7,0,53.3,0,80
			c0,2.4,2.1,4.5,4.5,4.5c29.2,0,58.4,0,87.6,0c4.1,0,8.3,0,12.4,0C4956.3,1596,4956.3,1587,4950.5,1587L4950.5,1587z"/>
	</g>
</g>
<g>
	<g>
		<path class="st0" d="M4836.5,1452c-32.6,0-65.2,0-97.8,0c-51.9,0-103.8,0-155.7,0c-11.8,0-23.7,0-35.5,0c1.5,1.5,3,3,4.5,4.5
			c0-35.9,0-71.7,0-107.6c0-5.1,0-10.3,0-15.4c0-2.4-2.1-4.5-4.5-4.5c-33.8,0-67.6,0-101.5,0c-4.8,0-9.7,0-14.5,0c-5.8,0-5.8,9,0,9
			c33.8,0,67.6,0,101.5,0c4.8,0,9.7,0,14.5,0c-1.5-1.5-3-3-4.5-4.5c0,35.9,0,71.7,0,107.6c0,5.1,0,10.3,0,15.4
			c0,2.4,2.1,4.5,4.5,4.5c32.6,0,65.2,0,97.8,0c51.9,0,103.8,0,155.7,0c11.8,0,23.7,0,35.5,0C4842.3,1461,4842.3,1452,4836.5,1452
			L4836.5,1452z"/>
	</g>
</g>
<g>
	<g>
		<path class="st0" d="M1315.5,537.3c0,13.7,0,27.4,0,41.1c1.5-1.5,3-3,4.5-4.5c-37.5,0-75,0-112.5,0c-59.6,0-119.3,0-178.9,0
			c-13.5,0-27.1,0-40.6,0c-2.4,0-4.5,2.1-4.5,4.5c0,44,0,88,0,132c0,6.2,0,12.5,0,18.7c1.5-1.5,3-3,4.5-4.5c-34.6,0-69.2,0-103.8,0
			c-4.9,0-9.7,0-14.6,0c-2.4,0-4.5,2.1-4.5,4.5c0,30.5,0,60.9,0,91.4c0,4.4,0,8.9,0,13.3c0,5.8,9,5.8,9,0c0-30.5,0-60.9,0-91.4
			c0-4.4,0-8.9,0-13.3c-1.5,1.5-3,3-4.5,4.5c34.6,0,69.2,0,103.8,0c4.9,0,9.7,0,14.6,0c2.4,0,4.5-2.1,4.5-4.5c0-44,0-88,0-132
			c0-6.2,0-12.5,0-18.7c-1.5,1.5-3,3-4.5,4.5c37.5,0,75,0,112.5,0c59.6,0,119.3,0,178.9,0c13.5,0,27.1,0,40.6,0
			c2.4,0,4.5-2.1,4.5-4.5c0-13.7,0-27.4,0-41.1C1324.5,531.5,1315.5,531.5,1315.5,537.3L1315.5,537.3z"/>
	</g>
</g>
<g>
	<g>
		<path class="st0" d="M1359.8,537.3c0,11.4,0,22.8,0,34.3c0,2.4,2.1,4.5,4.5,4.5c23.1,0,46.3,0,69.4,0c36.9,0,73.8,0,110.7,0
			c8.5,0,17,0,25.5,0c-1.5-1.5-3-3-4.5-4.5c0,19.5,0,39,0,58.6c0,31,0,62,0,92.9c0,7.2,0,14.4,0,21.7c1.5-1.5,3-3,4.5-4.5
			c-32.3,0-64.6,0-97,0c-4.6,0-9.3,0-13.9,0c-2.4,0-4.5,2.1-4.5,4.5c0,27.4,0,54.8,0,82.2c0,2.4,2.1,4.5,4.5,4.5
			c28.5,0,56.9,0,85.4,0c45.3,0,90.6,0,135.9,0c10.3,0,20.7,0,31,0c2.4,0,4.5-2.1,4.5-4.5c0-22.2,0-44.4,0-66.7
			c-1.5,1.5-3,3-4.5,4.5c31.4,0,62.8,0,94.2,0c4.5,0,9.1,0,13.6,0c-1.5-1.5-3-3-4.5-4.5c0,30,0,60.1,0,90.1c0,4.2,0,8.4,0,12.7
			c0,5.8,9,5.8,9,0c0-30,0-60.1,0-90.1c0-4.2,0-8.4,0-12.7c0-2.4-2.1-4.5-4.5-4.5c-31.4,0-62.8,0-94.2,0c-4.5,0-9.1,0-13.6,0
			c-2.4,0-4.5,2.1-4.5,4.5c0,22.2,0,44.4,0,66.7c1.5-1.5,3-3,4.5-4.5c-28.5,0-56.9,0-85.4,0c-45.3,0-90.6,0-135.9,0
			c-10.3,0-20.7,0-31,0c1.5,1.5,3,3,4.5,4.5c0-27.4,0-54.8,0-82.2c-1.5,1.5-3,3-4.5,4.5c32.3,0,64.6,0,97,0c4.6,0,9.3,0,13.9,0
			c2.4,0,4.5-2.1,4.5-4.5c0-19.5,0-39,0-58.6c0-31,0-62,0-92.9c0-7.2,0-14.4,0-21.7c0-2.4-2.1-4.5-4.5-4.5c-23.1,0-46.3,0-69.4,0
			c-36.9,0-73.8,0-110.7,0c-8.5,0-17,0-25.5,0c1.5,1.5,3,3,4.5,4.5c0-11.4,0-22.8,0-34.3C1368.8,531.5,1359.8,531.5,1359.8,537.3
			L1359.8,537.3z"/>
	</g>
</g>
<g>
	<g>
		<path class="st0" d="M1300.6,537.3c0,31,0,62.1,0,93.1c0,4.5,0,8.9,0,13.4c1.5-1.5,3-3,4.5-4.5c-37.8,0-75.6,0-113.4,0
			c-5.4,0-10.7,0-16.1,0c-2.4,0-4.5,2.1-4.5,4.5c0,35.3,0,70.6,0,105.9c0,5,0,10,0,14.9c0,2.4,2.1,4.5,4.5,4.5c29.5,0,58.9,0,88.4,0
			c4.2,0,8.4,0,12.5,0c-1.5-1.5-3-3-4.5-4.5c0,37.3,0,74.7,0,112c0,5.2,0,10.4,0,15.7c0,2.4,2.1,4.5,4.5,4.5c36.2,0,72.4,0,108.5,0
			c5.1,0,10.3,0,15.4,0c-1.5-1.5-3-3-4.5-4.5c0,18.7,0,37.4,0,56.1c0,5.8,9,5.8,9,0c0-18.7,0-37.4,0-56.1c0-2.4-2.1-4.5-4.5-4.5
			c-36.2,0-72.4,0-108.5,0c-5.1,0-10.3,0-15.4,0c1.5,1.5,3,3,4.5,4.5c0-37.3,0-74.7,0-112c0-5.2,0-10.4,0-15.7
			c0-2.4-2.1-4.5-4.5-4.5c-29.5,0-58.9,0-88.4,0c-4.2,0-8.4,0-12.5,0c1.5,1.5,3,3,4.5,4.5c0-35.3,0-70.6,0-105.9c0-5,0-10,0-14.9
			c-1.5,1.5-3,3-4.5,4.5c37.8,0,75.6,0,113.4,0c5.4,0,10.7,0,16.1,0c2.4,0,4.5-2.1,4.5-4.5c0-31,0-62.1,0-93.1c0-4.5,0-8.9,0-13.4
			C1309.6,531.5,1300.6,531.5,1300.6,537.3L1300.6,537.3z"/>
	</g>
</g>
<g>
	<g>
		<path class="st0" d="M1283.8,537.3c0,24.7,0,49.4,0,74.1c1.5-1.5,3-3,4.5-4.5c-24.4,0-48.8,0-73.2,0c-38.7,0-77.4,0-116.1,0
			c-8.9,0-17.9,0-26.8,0c-2.4,0-4.5,2.1-4.5,4.5c0,48.1,0,96.2,0,144.3c0,6.7,0,13.4,0,20.1c1.5-1.5,3-3,4.5-4.5
			c-38.2,0-76.3,0-114.5,0c-5.4,0-10.9,0-16.3,0c-2.4,0-4.5,2.1-4.5,4.5c0,33,0,66,0,99.1c0,4.8,0,9.5,0,14.3c0,2.4,2.1,4.5,4.5,4.5
			c20.7,0,41.5,0,62.2,0c33.1,0,66.2,0,99.3,0c7.6,0,15.3,0,22.9,0c2.4,0,4.5-2.1,4.5-4.5c0-27.4,0-54.8,0-82.2
			c-1.5,1.5-3,3-4.5,4.5c24.9,0,49.8,0,74.7,0c3.6,0,7.1,0,10.7,0c-1.5-1.5-3-3-4.5-4.5c0,47.4,0,94.8,0,142.2c0,6.6,0,13.2,0,19.8
			c1.5-1.5,3-3,4.5-4.5c-26,0-52,0-78,0c-3.7,0-7.4,0-11.1,0c-5.8,0-5.8,9,0,9c26,0,52,0,78,0c3.7,0,7.4,0,11.1,0
			c2.4,0,4.5-2.1,4.5-4.5c0-47.4,0-94.8,0-142.2c0-6.6,0-13.2,0-19.8c0-2.4-2.1-4.5-4.5-4.5c-24.9,0-49.8,0-74.7,0
			c-3.6,0-7.1,0-10.7,0c-2.4,0-4.5,2.1-4.5,4.5c0,27.4,0,54.8,0,82.2c1.5-1.5,3-3,4.5-4.5c-20.7,0-41.5,0-62.2,0
			c-33.1,0-66.2,0-99.3,0c-7.6,0-15.3,0-22.9,0c1.5,1.5,3,3,4.5,4.5c0-33,0-66,0-99.1c0-4.8,0-9.5,0-14.3c-1.5,1.5-3,3-4.5,4.5
			c38.2,0,76.3,0,114.5,0c5.4,0,10.9,0,16.3,0c2.4,0,4.5-2.1,4.5-4.5c0-48.1,0-96.2,0-144.3c0-6.7,0-13.4,0-20.1
			c-1.5,1.5-3,3-4.5,4.5c24.4,0,48.8,0,73.2,0c38.7,0,77.4,0,116.1,0c8.9,0,17.9,0,26.8,0c2.4,0,4.5-2.1,4.5-4.5
			c0-24.7,0-49.4,0-74.1C1292.8,531.5,1283.8,531.5,1283.8,537.3L1283.8,537.3z"/>
	</g>
</g>
<g>
	<g>
		<path class="st0" d="M1376,537.3c0,28.2,0,56.3,0,84.5c0,4,0,8,0,12c0,2.4,2.1,4.5,4.5,4.5c32.6,0,65.2,0,97.8,0
			c51.9,0,103.8,0,155.7,0c11.8,0,23.7,0,35.5,0c-1.5-1.5-3-3-4.5-4.5c0,24.3,0,48.6,0,72.9c0,2.4,2.1,4.5,4.5,4.5
			c24.7,0,49.4,0,74.1,0c-1.5-1.5-3-3-4.5-4.5c0,47.6,0,95.3,0,142.9c0,6.8,0,13.5,0,20.3c1.5-1.5,3-3,4.5-4.5
			c-40.1,0-80.2,0-120.3,0c-5.8,0-11.6,0-17.4,0c-2.4,0-4.5,2.1-4.5,4.5c0,24.9,0,49.8,0,74.8c0,5.8,9,5.8,9,0c0-24.9,0-49.8,0-74.8
			c-1.5,1.5-3,3-4.5,4.5c40.1,0,80.2,0,120.3,0c5.8,0,11.6,0,17.4,0c2.4,0,4.5-2.1,4.5-4.5c0-47.6,0-95.3,0-142.9
			c0-6.8,0-13.5,0-20.3c0-2.4-2.1-4.5-4.5-4.5c-24.7,0-49.4,0-74.1,0c1.5,1.5,3,3,4.5,4.5c0-24.3,0-48.6,0-72.9
			c0-2.4-2.1-4.5-4.5-4.5c-32.6,0-65.2,0-97.8,0c-51.9,0-103.8,0-155.7,0c-11.8,0-23.7,0-35.5,0c1.5,1.5,3,3,4.5,4.5
			c0-28.2,0-56.3,0-84.5c0-4,0-8,0-12C1385,531.5,1376,531.5,1376,537.3L1376,537.3z"/>
	</g>
</g>
<g>
	<g>
		<path class="st0" d="M1391.5,537.3c0,47.4,0,94.8,0,142.2c0,6.8,0,13.6,0,20.4c0,2.4,2.1,4.5,4.5,4.5c34.4,0,68.7,0,103.1,0
			c4.9,0,9.8,0,14.6,0c-1.5-1.5-3-3-4.5-4.5c0,47.6,0,95.3,0,142.9c0,6.8,0,13.5,0,20.3c1.5-1.5,3-3,4.5-4.5c-26.6,0-53.2,0-79.7,0
			c-2.4,0-4.5,2.1-4.5,4.5c0,35.7,0,71.3,0,107c0,5,0,10.1,0,15.1c0,5.8,9,5.8,9,0c0-35.7,0-71.3,0-107c0-5,0-10.1,0-15.1
			c-1.5,1.5-3,3-4.5,4.5c26.6,0,53.2,0,79.7,0c2.4,0,4.5-2.1,4.5-4.5c0-47.6,0-95.3,0-142.9c0-6.8,0-13.5,0-20.3
			c0-2.4-2.1-4.5-4.5-4.5c-34.4,0-68.7,0-103.1,0c-4.9,0-9.8,0-14.6,0c1.5,1.5,3,3,4.5,4.5c0-47.4,0-94.8,0-142.2
			c0-6.8,0-13.6,0-20.4C1400.5,531.5,1391.5,531.5,1391.5,537.3L1391.5,537.3z"/>
	</g>
</g>
<g>
	<g>
		<path class="st0" d="M1329.2,537.3c0,41.7,0,83.4,0,125c0,5.9,0,11.7,0,17.6c1.5-1.5,3-3,4.5-4.5c-27.8,0-55.6,0-83.5,0
			c-3.9,0-7.9,0-11.8,0c-2.4,0-4.5,2.1-4.5,4.5c0,30.3,0,60.6,0,91c0,48.1,0,96.2,0,144.4c0,11.1,0,22.1,0,33.2
			c0,2.4,2.1,4.5,4.5,4.5c27.8,0,55.6,0,83.5,0c3.9,0,7.9,0,11.8,0c2.4,0,4.5-2.1,4.5-4.5c0-46.3,0-92.6,0-138.9c0-6.7,0-13.3,0-20
			c0-5.8-9-5.8-9,0c0,46.3,0,92.6,0,138.9c0,6.7,0,13.3,0,20c1.5-1.5,3-3,4.5-4.5c-27.8,0-55.6,0-83.5,0c-3.9,0-7.9,0-11.8,0
			c1.5,1.5,3,3,4.5,4.5c0-30.3,0-60.6,0-91c0-48.1,0-96.2,0-144.4c0-11.1,0-22.1,0-33.2c-1.5,1.5-3,3-4.5,4.5c27.8,0,55.6,0,83.5,0
			c3.9,0,7.9,0,11.8,0c2.4,0,4.5-2.1,4.5-4.5c0-41.7,0-83.4,0-125c0-5.9,0-11.7,0-17.6C1338.2,531.5,1329.2,531.5,1329.2,537.3
			L1329.2,537.3z"/>
	</g>
</g>
<g>
	<g>
		<path class="st0" d="M1345.4,537.3c0,45.6,0,91.2,0,136.8c0,6.5,0,13.1,0,19.6c0,2.4,2.1,4.5,4.5,4.5c9.8,0,19.5,0,29.3,0
			c-1.5-1.5-3-3-4.5-4.5c0,26.2,0,52.4,0,78.7c0,41.8,0,83.6,0,125.4c0,9.6,0,19.2,0,28.9c0,2.4,2.1,4.5,4.5,4.5
			c44.4,0,88.8,0,133.3,0c6.2,0,12.5,0,18.7,0c-1.5-1.5-3-3-4.5-4.5c0,14.1,0,28.2,0,42.4c0,5.8,9,5.8,9,0c0-14.1,0-28.2,0-42.4
			c0-2.4-2.1-4.5-4.5-4.5c-44.4,0-88.8,0-133.3,0c-6.2,0-12.5,0-18.7,0c1.5,1.5,3,3,4.5,4.5c0-26.2,0-52.4,0-78.7
			c0-41.8,0-83.6,0-125.4c0-9.6,0-19.2,0-28.9c0-2.4-2.1-4.5-4.5-4.5c-9.8,0-19.5,0-29.3,0c1.5,1.5,3,3,4.5,4.5
			c0-45.6,0-91.2,0-136.8c0-6.5,0-13.1,0-19.6C1354.4,531.5,1345.4,531.5,1345.4,537.3L1345.4,537.3z"/>
	</g>
</g>
<g>
	<g>
		<path class="st0" d="M956.5,514.7c7.3,0,14.5,0,21.8,0c19.6,0,39.3,0,58.9,0c29,0,58,0,87,0c35.6,0,71.1,0,106.7,0
			c38.8,0,77.6,0,116.3,0c39.1,0,78.3,0,117.4,0c36.7,0,73.3,0,110,0c30.9,0,61.7,0,92.6,0c22.3,0,44.6,0,66.8,0
			c10.5,0,21,0.2,31.5,0c0.5,0,0.9,0,1.4,0c3.9,0,3.9-6,0-6c-7.3,0-14.5,0-21.8,0c-19.6,0-39.3,0-58.9,0c-29,0-58,0-87,0
			c-35.6,0-71.1,0-106.7,0c-38.8,0-77.6,0-116.3,0c-39.1,0-78.3,0-117.4,0c-36.7,0-73.3,0-110,0c-30.9,0-61.7,0-92.6,0
			c-22.3,0-44.6,0-66.8,0c-10.5,0-21-0.2-31.5,0c-0.5,0-0.9,0-1.4,0C952.7,508.7,952.7,514.7,956.5,514.7L956.5,514.7z"/>
	</g>
</g>
</svg>
