<?xml version="1.0" encoding="utf-8"?>
<!-- Generator: Adobe Illustrator 23.0.1, SVG Export Plug-In . SVG Version: 6.00 Build 0)  -->
<svg version="1.1" id="Layer_1" xmlns="http://www.w3.org/2000/svg" xmlns:xlink="http://www.w3.org/1999/xlink" x="0px" y="0px"
	 viewBox="0 0 1920 1080" style="enable-background:new 0 0 1920 1080;" xml:space="preserve">
<style type="text/css">
	.st0{fill:#B2BBF0;}
	.st1{fill:#7081E5;}
	.st2{fill:#FFFFFF;}
</style>
<g>
	<g>
		
			<rect x="938.5" y="319.5" transform="matrix(0.8332 -0.553 0.553 0.8332 -68.4361 603.037)" class="st0" width="53.8" height="190.9"/>
		<g>
			<path d="M1038.3,475.7c-14.9,9.9-29.9,19.8-44.8,29.7c2.1,0.5,4.1,1.1,6.2,1.6c-11.9-17.9-23.8-35.8-35.7-53.8
				c-18.9-28.6-37.9-57.1-56.8-85.7c-4.3-6.5-8.7-13.1-13-19.6c-0.5,2.1-1.1,4.1-1.6,6.2c14.9-9.9,29.9-19.8,44.8-29.7
				c-2.1-0.5-4.1-1.1-6.2-1.6c11.9,17.9,23.8,35.8,35.7,53.8c18.9,28.6,37.9,57.1,56.8,85.7c4.3,6.5,8.7,13.1,13,19.6
				c3.2,4.8,11,0.3,7.8-4.5c-11.9-17.9-23.8-35.8-35.7-53.8c-18.9-28.6-37.9-57.1-56.8-85.7c-4.3-6.5-8.7-13.1-13-19.6
				c-1.3-1.9-4-3-6.2-1.6c-14.9,9.9-29.9,19.8-44.8,29.7c-1.9,1.3-3,4-1.6,6.2c11.9,17.9,23.8,35.8,35.7,53.8
				c18.9,28.6,37.9,57.1,56.8,85.7c4.3,6.5,8.7,13.1,13,19.6c1.3,1.9,4,3,6.2,1.6c14.9-9.9,29.9-19.8,44.8-29.7
				C1047.6,480.3,1043.1,472.5,1038.3,475.7z"/>
		</g>
	</g>
	<g>
		<path class="st0" d="M1092.7,438.4L929.2,536c0,0,54.4,39.6,95.6,58.6c27.1,12.5,67.9,23,67.9,23l42.4-31.6L1092.7,438.4z"/>
		<g>
			<path d="M1090.4,434.5c-18.4,11-36.8,22-55.2,32.9c-29.3,17.5-58.7,35-88,52.5c-6.8,4-13.5,8.1-20.3,12.1c-3.1,1.9-2.7,5.8,0,7.8
				c29,21.1,59.6,41.3,91.9,56.9c19.7,9.5,40.8,16.2,61.8,22.2c3.7,1,10.6,4.4,14.4,2.5c3.5-1.7,6.7-5,9.8-7.3
				c10.9-8.1,21.7-16.2,32.6-24.3c1.6-1.2,2.7-3,2.1-5.1c-12.4-43.1-24.8-86.1-37.2-129.2c-1.8-6.1-3.5-12.3-5.3-18.4
				c-1.6-5.6-10.3-3.2-8.7,2.4c12.4,43.1,24.8,86.1,37.2,129.2c1.8,6.1,3.5,12.3,5.3,18.4c0.7-1.7,1.4-3.4,2.1-5.1
				c-14.1,10.5-28.3,21.1-42.4,31.6c1.2-0.2,2.3-0.3,3.5-0.5c-22.9-5.9-46.1-12.8-67.5-22.8c-27-12.6-52.3-28.9-76.9-45.7
				c-6.1-4.1-12.2-8.3-18.1-12.7c0,2.6,0,5.2,0,7.8c18.4-11,36.8-22,55.2-32.9c29.3-17.5,58.7-35,88-52.5c6.8-4,13.5-8.1,20.3-12.1
				C1099.9,439.3,1095.4,431.5,1090.4,434.5z"/>
		</g>
	</g>
	<g>
		<polygon class="st0" points="1144.7,624.4 1102.7,656.4 1092.7,617.6 1135.2,586 		"/>
		<g>
			<path d="M1142.5,620.5c-14,10.7-28,21.3-42.1,32c2.2,0.9,4.4,1.8,6.6,2.7c-3.3-12.9-6.6-25.9-9.9-38.8c-0.7,1.7-1.4,3.4-2.1,5.1
				c14.1-10.5,28.3-21.1,42.4-31.6c-2.2-0.9-4.4-1.8-6.6-2.7c3.2,12.8,6.4,25.6,9.6,38.4c1.4,5.6,10.1,3.2,8.7-2.4
				c-3.2-12.8-6.4-25.6-9.6-38.4c-0.6-2.6-4.3-4.4-6.6-2.7c-14.1,10.5-28.3,21.1-42.4,31.6c-1.7,1.2-2.6,3-2.1,5.1
				c3.3,12.9,6.6,25.9,9.9,38.8c0.7,2.6,4.3,4.5,6.6,2.7c14-10.7,28-21.3,42.1-32C1151.6,624.8,1147.1,617,1142.5,620.5z"/>
		</g>
	</g>
	<g>
		<path class="st0" d="M1102.7,656.4C984.2,631,930.9,536.9,930.9,536.9"/>
		<g>
			<path d="M1103.9,652c-64.3-14-123.2-52.2-161.5-105.9c-2.7-3.7-5.3-7.5-7.6-11.5c-2.9-5-10.6-0.5-7.8,4.5
				c7.1,12.4,16.5,23.9,26,34.5c22.2,24.9,48.9,46,78.4,61.6c22,11.7,45.6,20.2,70,25.5C1107.1,661.9,1109.5,653.3,1103.9,652
				L1103.9,652z"/>
		</g>
	</g>
</g>
<image style="overflow:visible;" width="1329" height="833" xlink:href="ADB02EF2D61FAA6D.jpg"  transform="matrix(1.4093 0 0 1.4093 -3652 -993)">
</image>
<g>
	<g>
		<g>
			<path d="M1513,369.4c0,31.2,0,62.4,0,93.6c0,3.8-1.2,6.7-2.5,10.1c-2.7,7.3-5.3,14.6-8,22c-10.2,27.9-20.3,55.8-30.5,83.7
				c-13.9,38.1-27.7,76.2-41.6,114.3c-14.5,39.7-29,79.5-43.4,119.2c-11.9,32.8-23.9,65.6-35.8,98.4c-6.3,17.3-12.6,34.5-18.9,51.8
				c-0.3,0.9-0.7,1.8-1,2.6c-3.5,10.6,6.1,17.9,15.9,18.2c4.2,0.1,8.5,0,12.8,0c25.1,0,50.2,0,75.2,0c39,0,78,0,117.1,0
				c42.5,0,85,0,127.5,0c36.6,0,73.3,0,109.9,0c20.3,0,40.6,0,60.9,0c1.4,0,2.8,0,4.1,0c9.7-0.3,19.6-7.6,16-18.2
				c-1.1-3.1-2.4-6.2-3.6-9.3c-8.3-21.4-16.6-42.8-24.9-64.2c-13.5-34.8-27-69.5-40.4-104.3c-15.4-39.8-30.9-79.6-46.3-119.4
				c-14.2-36.5-28.3-73.1-42.5-109.6c-9.7-25-19.4-50-29.1-75c-2.1-5.5-4.3-10.9-6.4-16.4c-2.7-7.1-1.2-15.9-1.2-23.4
				c0-15.3,0-30.7,0-46c0-5.8-9-5.8-9,0c0,15.8,0,31.6,0,47.4c0,7.8-1.4,16.9,1.5,24.3c6,15.7,12.1,31.2,18.2,46.9
				c12.1,31.1,24.1,62.3,36.2,93.4c15.1,39,30.2,77.9,45.3,116.9c14.8,38.1,29.5,76.2,44.3,114.2c11.4,29.5,22.9,59.1,34.3,88.6
				c4.9,12.6,10.6,25.2,14.8,38.1c2.5,7.6-7.7,6.9-12.6,6.9c-7.9,0-15.8,0-23.6,0c-29.9,0-59.9,0-89.8,0c-40.7,0-81.3,0-122,0
				c-41.6,0-83.3,0-124.9,0c-32.9,0-65.8,0-98.7,0c-14.4,0-28.8,0.4-43.1,0c-4.7-0.1-8.7-2.4-7.1-7.3c0.5-1.5,1.1-3,1.6-4.4
				c2.6-7.1,5.2-14.2,7.7-21.3c9.9-27.2,19.8-54.5,29.7-81.7c13.7-37.6,27.4-75.2,41.1-112.8c14.4-39.6,28.8-79.1,43.2-118.7
				c12-33,24-66,36.1-99c6.7-18.3,13.4-36.7,20-55c1.6-4.4,2.4-8.2,2.4-13c0-18,0-36.1,0-54.1c0-12.6,0-25.2,0-37.8
				C1522,363.6,1513,363.6,1513,369.4L1513,369.4z"/>
		</g>
	</g>
	<g>
		<g>
			<path d="M1730.5,269.4c-0.1,29.7-0.2,59.4-0.2,89.1c0,13.2,0.4,26.5-0.1,39.7c-0.2,6.8-6.7,4.1-11.3,3.2c-27-4.9-54-9.9-81-14.8
				c-39.2-7.1-78.3-14.3-117.5-21.4c-29.4-5.4-58.8-10.7-88.2-16.1c-3.7-0.7-15.2-0.8-16.1-5.6c-0.8-4.2,0-9.3,0-13.6
				c0-9.6,0-19.1,0.1-28.7c0-8.6,0-17.2,0.1-25.7c0-3.5-1.2-8.9,3.4-9.7c5.6-0.9,12.2,0,17.8,0c31.9,0,63.9,0.1,95.8,0.1
				c39.5,0,79.1,0.1,118.6,0.1c24.1,0,48.3,0.1,72.4,0.1C1726.8,266.3,1730.1,265.8,1730.5,269.4c0.5,5.7,9.5,5.8,9,0
				c-1.1-12.9-12.2-12.2-21.6-12.2c-12,0-24,0-36,0c-38.8,0-77.6-0.1-116.4-0.1c-37.2,0-74.4-0.1-111.6-0.1c-10,0-20,0-30,0
				c-1.4,0-2.9-0.1-4.4,0c-6.8,0.3-11.8,5.3-12.2,12.1c-0.1,1.4,0,2.8,0,4.1c0,18.4-0.1,36.8-0.1,55.3c0,10.3-2.6,24.7,10.9,27.3
				c22.7,4.5,45.7,8.3,68.5,12.5c40,7.3,80.1,14.6,120.1,21.9c33,6,65.9,12,98.9,18c6.2,1.1,12.5,2.4,18.7,3.4
				c8.1,1.3,14.6-4,15-12.2c0.2-4.1,0-8.3,0-12.4c0.1-36.3,0.2-72.6,0.3-108.9c0-2.9,0-5.8,0-8.8
				C1739.5,263.6,1730.5,263.6,1730.5,269.4z"/>
		</g>
	</g>
	<g>
		<g>
			<path d="M1329.9,352.1c27.4,0,54.9,0,82.3,0c2.4,0,4.5-2.1,4.5-4.5c0-27.4,0-54.9,0-82.3c0-2.4-2.1-4.5-4.5-4.5
				c-27.4,0-54.9,0-82.3,0c-2.4,0-4.5,2.1-4.5,4.5c0,27.4,0,54.9,0,82.3c0,5.8,9,5.8,9,0c0-27.4,0-54.9,0-82.3c-1.5,1.5-3,3-4.5,4.5
				c27.4,0,54.9,0,82.3,0c-1.5-1.5-3-3-4.5-4.5c0,27.4,0,54.9,0,82.3c1.5-1.5,3-3,4.5-4.5c-27.4,0-54.9,0-82.3,0
				C1324.1,343.1,1324.1,352.1,1329.9,352.1z"/>
		</g>
	</g>
	<g>
		<g>
			<path d="M1424.1,354.3c7.2,23.9,6.3,52-3.5,74.9c-13.2,30.7-38.8,54.4-64.3,75c-2.9,2.3-0.6,8.1,3.2,7.7
				c21.8-2.6,43.7-9.4,63.2-19.3c15.5-7.8,29.8-18.3,40.1-32.3c13.3-17.9,21-41.3,23.8-63.3c1.4-11.2,1.8-23.5-1-34.6
				c-0.4-1.4-1.7-2.8-3.1-3.1c-17.6-3.5-35.2-7-52.7-10.5c-5.7-1.1-8.1,7.6-2.4,8.7c17.6,3.5,35.2,7,52.7,10.5c-1-1-2.1-2.1-3.1-3.1
				c2,7.9,1.9,16.8,1.4,25c-1.4,21.3-8.5,42.9-19.9,61c-16.5,26.4-48.3,40.1-77.4,47.6c-5.3,1.4-10.6,2.5-15.9,3.5
				c-1.6,0.3-3.3,0.6-4.9,0.8c-1.7,0.3,0.5,0-0.8,0.1c1.1,2.6,2.1,5.1,3.2,7.7c21.2-17.1,41.8-36,56.4-59.3
				c14.9-23.5,20.7-50.2,17.7-77.9c-0.8-7.2-1.9-14.5-3.9-21.4C1431.2,346.4,1422.5,348.7,1424.1,354.3z"/>
		</g>
	</g>
	<g>
		<path class="st1" d="M1764.6,922.1h-336.3c-9.1,0-15.6-6.8-12.9-13.5l99.3-310.6c1.7-4.4,7-7.4,12.9-7.4h126.4
			c5.9,0,11.2,3,12.9,7.4l110.7,310.6C1780.1,915.3,1773.6,922.1,1764.6,922.1z"/>
		<g>
			<path d="M1764.6,917.6c-29,0-57.9,0-86.9,0c-53.6,0-107.2,0-160.8,0c-20.9,0-41.8,0-62.7,0c-8.6,0-17.3,0.4-25.9,0
				c-4.8-0.2-10-2.6-8.5-8.1c0.3-1,0.6-1.9,0.9-2.9c1.5-4.8,3-9.5,4.6-14.3c5.9-18.4,11.8-36.9,17.7-55.3
				c16.3-51.1,32.7-102.2,49-153.3c6.4-20,12.8-40,19.2-60c1.9-6,3.8-11.9,5.7-17.9c0.7-2.1,1.1-4.7,2.1-6.6
				c3.1-5.7,13.8-4.1,19.3-4.1c11.3,0,22.5,0,33.8,0c24.5,0,49,0,73.4,0c5.4,0,14.1-1.3,17.1,4.2c1.2,2.3,1.9,5.2,2.7,7.6
				c5.4,15.1,10.8,30.2,16.1,45.3c17.7,49.7,35.4,99.4,53.2,149.1c12.5,35,25,70.1,37.5,105.1c0.3,1,0.7,1.9,1,2.9
				C1774.6,914.9,1769.5,917.4,1764.6,917.6c-5.8,0.2-5.8,9.2,0,9c11.2-0.5,20.9-8.8,16.8-20.4c-1.4-4-2.8-8-4.3-12
				c-6.3-17.7-12.6-35.4-18.9-53.1c-18.4-51.8-36.9-103.5-55.3-155.3c-7.4-20.8-14.9-41.7-22.3-62.5c-3.1-8.8-6-17.8-9.4-26.5
				c-3.8-9.6-13.4-10.8-22.4-10.8c-10,0-20,0-30,0c-26,0-52.1,0-78.1,0c-6.3,0-13.9-0.9-19.9,1.1c-6.6,2.2-9.7,7.1-11.6,13.2
				c-4.4,13.7-8.8,27.4-13.1,41.1c-16.2,50.8-32.5,101.6-48.7,152.5c-11.8,36.8-23.5,73.7-35.3,110.5c-2.2,6.7-2.2,13.3,4.1,18.1
				c4.9,3.8,10.5,4,16.3,4c14.4,0,28.7,0,43.1,0c53,0,106.1,0,159.1,0c41.1,0,82.3,0,123.4,0c2.2,0,4.4,0,6.6,0
				C1770.3,926.6,1770.4,917.6,1764.6,917.6z"/>
		</g>
	</g>
</g>
<g>
	<polygon class="st1" points="1198.7,978.9 971.2,978.9 866.2,642.9 1302.8,642.9 	"/>
	<g>
		<path d="M1198.7,974.4c-25.6,0-51.3,0-76.9,0c-40.8,0-81.7,0-122.5,0c-9.3,0-18.7,0-28,0c1.4,1.1,2.9,2.2,4.3,3.3
			c-3.5-11.1-7-22.2-10.4-33.4c-8.3-26.7-16.7-53.4-25-80.1c-10.1-32.3-20.2-64.7-30.3-97c-8.7-28-17.5-55.9-26.2-83.9
			c-2.9-9.2-5.8-18.5-8.7-27.7c-1.3-4.1-2.1-9.4-4.1-13.2c-0.1-0.2-0.1-0.4-0.2-0.6c-1.4,1.9-2.9,3.8-4.3,5.7c14.5,0,29,0,43.5,0
			c34.8,0,69.6,0,104.4,0c41.9,0,83.9,0,125.8,0c36.4,0,72.8,0,109.2,0c11.9,0,23.8,0,35.7,0c5.4,0,11.8,1,17.2,0c0.2,0,0.5,0,0.8,0
			c-1.4-1.9-2.9-3.8-4.3-5.7c-3.4,11.1-6.9,22.2-10.3,33.4c-8.3,26.7-16.6,53.4-24.8,80.1c-10,32.3-20,64.7-30.1,97
			c-8.7,28-17.3,55.9-26,83.9c-2.9,9.2-5.7,18.5-8.6,27.7c-1.3,4.3-3.1,8.8-4.1,13.2c0,0.2-0.1,0.4-0.2,0.6c-1.7,5.5,7,7.9,8.7,2.4
			c3.4-11.1,6.9-22.2,10.3-33.4c8.3-26.7,16.6-53.4,24.8-80.1c10-32.3,20-64.7,30.1-97c8.7-28,17.3-55.9,26-83.9
			c2.9-9.2,5.7-18.5,8.6-27.7c1.3-4.3,3.2-8.8,4.1-13.2c0-0.2,0.1-0.4,0.2-0.6c0.9-2.8-1.5-5.7-4.3-5.7c-14.5,0-29,0-43.5,0
			c-34.8,0-69.6,0-104.4,0c-41.9,0-83.9,0-125.8,0c-36.4,0-72.8,0-109.2,0c-11.9,0-23.8,0-35.7,0c-5.7,0-11.5-0.4-17.2,0
			c-0.3,0-0.5,0-0.8,0c-2.8,0-5.2,2.9-4.3,5.7c3.5,11.1,7,22.2,10.4,33.4c8.3,26.7,16.7,53.4,25,80.1c10.1,32.3,20.2,64.7,30.3,97
			c8.7,28,17.5,55.9,26.2,83.9c4.2,13.5,7.6,27.7,12.8,40.9c0.1,0.2,0.1,0.4,0.2,0.6c0.6,1.9,2.3,3.3,4.3,3.3c25.6,0,51.3,0,76.9,0
			c40.8,0,81.7,0,122.5,0c9.3,0,18.7,0,28,0C1204.5,983.4,1204.5,974.4,1198.7,974.4z"/>
	</g>
</g>
<g>
	<polyline class="st1" points="924.9,695.4 840,695.4 840,589.6 1325.5,589.6 1325.5,695.4 1240.3,695.4 	"/>
	<g>
		<path d="M924.9,690.9c-28.3,0-56.6,0-84.9,0c1.5,1.5,3,3,4.5,4.5c0-30.9,0-61.8,0-92.7c0-4.4,0-8.8,0-13.1c-1.5,1.5-3,3-4.5,4.5
			c16.1,0,32.3,0,48.4,0c38.7,0,77.5,0,116.2,0c46.7,0,93.3,0,140,0c40.3,0,80.7,0,121,0c13.3,0,26.6,0,40,0c6.1,0,13.1,1,19.1,0
			c0.3,0,0.6,0,0.8,0c-1.5-1.5-3-3-4.5-4.5c0,30.9,0,61.8,0,92.7c0,4.4,0,8.8,0,13.1c1.5-1.5,3-3,4.5-4.5c-28.4,0-56.8,0-85.2,0
			c-5.8,0-5.8,9,0,9c28.4,0,56.8,0,85.2,0c2.4,0,4.5-2.1,4.5-4.5c0-30.9,0-61.8,0-92.7c0-4.4,0-8.8,0-13.1c0-2.4-2.1-4.5-4.5-4.5
			c-16.1,0-32.3,0-48.4,0c-38.7,0-77.5,0-116.2,0c-46.7,0-93.3,0-140,0c-40.3,0-80.7,0-121,0c-19.6,0-39.4-0.8-59.1,0
			c-0.3,0-0.6,0-0.8,0c-2.4,0-4.5,2.1-4.5,4.5c0,30.9,0,61.8,0,92.7c0,4.4,0,8.8,0,13.1c0,2.4,2.1,4.5,4.5,4.5c28.3,0,56.6,0,84.9,0
			C930.7,699.9,930.7,690.9,924.9,690.9L924.9,690.9z"/>
	</g>
</g>
<g>
	<path class="st2" d="M1136.4,776.5c-1.8-0.6-3.5-1.2-5.3-1.7c0.3-1.2,0.6-2.4,0.8-3.6c4-19.5,1.4-35.3-7.6-40.5
		c-8.6-5-22.7,0.2-36.9,12.6c-1.4,1.2-2.8,2.5-4.1,3.8c-0.9-0.9-1.8-1.7-2.7-2.5c-14.9-13.2-29.9-18.8-38.8-13.6
		c-8.6,5-11.2,19.8-7.5,38.3c0.4,1.8,0.8,3.7,1.2,5.5c-2.1,0.6-4.2,1.2-6.1,1.9c-17.5,6.1-28.7,15.6-28.7,25.6
		c0,10.2,12,20.5,30.2,26.7c1.5,0.5,3,1,4.5,1.4c-0.5,2-0.9,3.9-1.3,5.9c-3.5,18.2-0.8,32.6,7.8,37.6c8.9,5.1,23.7-0.1,38.2-12.8
		c1.1-1,2.3-2.1,3.4-3.2c1.4,1.4,2.9,2.8,4.5,4.1c14,12.1,27.9,17,36.5,12c8.9-5.1,11.7-20.6,8-39.5c-0.3-1.4-0.6-2.9-1-4.4
		c1-0.3,2.1-0.6,3.1-1c18.9-6.3,31.3-16.4,31.3-26.8C1165.7,792.3,1154.2,782.6,1136.4,776.5L1136.4,776.5z"/>
	<path class="st1" d="M1132.2,822.3c-0.9,0.3-1.8,0.6-2.8,0.9c-2.1-6.6-4.9-13.7-8.4-20.9c3.3-7.1,6-14,8-20.6
		c1.7,0.5,3.3,1,4.9,1.5c15.3,5.3,24.6,13,24.6,19C1158.7,808.6,1148.6,816.9,1132.2,822.3L1132.2,822.3z M1125.5,835.7
		c1.7,8.3,1.9,15.9,0.8,21.8c-1,5.3-3,8.8-5.4,10.3c-5.2,3-16.3-0.9-28.3-11.2c-1.4-1.2-2.8-2.4-4.2-3.8c4.7-5.1,9.3-11,13.8-17.6
		c8-0.7,15.5-1.9,22.4-3.4C1124.9,833.1,1125.2,834.4,1125.5,835.7L1125.5,835.7z M1056.9,867.3c-5.1,1.8-9.1,1.8-11.6,0.4
		c-5.2-3-7.4-14.6-4.4-30.2c0.4-1.8,0.8-3.7,1.2-5.5c6.8,1.5,14.3,2.6,22.3,3.2c4.6,6.4,9.4,12.3,14.2,17.5c-1,1-2.1,2-3.1,2.9
		C1068.9,861.3,1062.5,865.3,1056.9,867.3L1056.9,867.3z M1033,822.3c-8.1-2.8-14.7-6.3-19.3-10.2c-4.1-3.5-6.2-7-6.2-9.8
		c0-6,9-13.7,23.9-18.9c1.9-0.7,3.8-1.2,5.7-1.8c2.1,6.7,4.8,13.8,8,20.9c-3.3,7.2-6.1,14.4-8.1,21.2
		C1035.8,823.1,1034.4,822.7,1033,822.3z M1041,767.9c-3.1-15.9-1-27.8,4.1-30.8c5.5-3.2,17.7,1.4,30.6,12.8
		c0.8,0.7,1.6,1.5,2.5,2.3c-4.8,5.2-9.5,11-14.1,17.4c-7.8,0.7-15.2,1.9-22,3.4C1041.7,771.3,1041.4,769.6,1041,767.9L1041,767.9z
		 M1112.3,785.5c-1.6-2.8-3.3-5.5-5-8.3c5.3,0.7,10.3,1.5,15.1,2.6c-1.4,4.6-3.2,9.3-5.3,14.2
		C1115.5,791.2,1113.9,788.3,1112.3,785.5L1112.3,785.5z M1083.2,757.2c3.3,3.5,6.5,7.5,9.7,11.7c-6.5-0.3-13-0.3-19.5,0
		C1076.6,764.7,1079.9,760.8,1083.2,757.2L1083.2,757.2z M1054,785.5c-1.6,2.8-3.2,5.7-4.7,8.5c-2.1-4.9-3.8-9.7-5.2-14.3
		c4.7-1.1,9.7-1.9,15-2.6C1057.3,780,1055.6,782.7,1054,785.5z M1059.2,827.7c-5.4-0.6-10.5-1.4-15.2-2.4c1.5-4.7,3.3-9.6,5.4-14.6
		c1.5,2.9,3.1,5.7,4.7,8.5C1055.7,822.1,1057.4,824.9,1059.2,827.7z M1083.4,847.7c-3.3-3.6-6.7-7.6-9.9-11.9
		c3.2,0.1,6.4,0.2,9.7,0.2c3.4,0,6.7-0.1,10-0.2C1089.9,840.2,1086.6,844.2,1083.4,847.7z M1117.1,810.4c2.2,5,4.1,9.9,5.5,14.5
		c-4.8,1.1-10,2-15.4,2.6c1.7-2.8,3.4-5.6,5.1-8.4C1114,816.3,1115.6,813.4,1117.1,810.4L1117.1,810.4z M1106.2,815.7
		c-2.5,4.3-5.1,8.6-7.9,12.8c-4.9,0.4-10,0.5-15.1,0.5c-5.1,0-10.1-0.2-15-0.5c-2.9-4.2-5.5-8.4-8.1-12.8c-2.5-4.3-4.9-8.8-7-13.3
		c2.2-4.5,4.5-9,7-13.3v0c2.5-4.3,5.2-8.6,8-12.7c4.9-0.4,9.9-0.6,15-0.6c5.1,0,10.2,0.2,15.1,0.6c2.8,4.1,5.5,8.4,8,12.7
		c2.5,4.3,4.9,8.8,7.1,13.3C1111.1,806.8,1108.7,811.3,1106.2,815.7L1106.2,815.7z M1120.7,736.9c5.5,3.2,7.7,16.1,4.2,32.9
		c-0.2,1.1-0.5,2.2-0.7,3.3c-6.9-1.6-14.3-2.8-22.1-3.5c-4.5-6.5-9.2-12.3-14-17.4c1.2-1.2,2.5-2.4,3.8-3.5
		C1104.2,738.1,1115.5,733.9,1120.7,736.9L1120.7,736.9z"/>
	<path class="st2" d="M1083.1,787.5c8.1,0,14.7,6.6,14.7,14.7c0,8.1-6.6,14.7-14.7,14.7c-8.1,0-14.7-6.6-14.7-14.7
		C1068.4,794.1,1075,787.5,1083.1,787.5"/>
</g>
<g>
	<ellipse class="st0" cx="808" cy="930" rx="22.5" ry="15.3"/>
	<g>
		<path d="M827.5,930c-0.5,9-12.1,12.3-19.5,12.3c-7,0-19.5-3.3-19.5-12.3c0-8.7,11.8-12.1,18.7-12.3
			C814.8,917.5,827,920.6,827.5,930c0.2,3.8,6.2,3.9,6,0c-0.6-12.6-14.4-18.3-25.5-18.3c-10.5,0-25.5,5.7-25.5,18.3
			c0,12.6,15,18.3,25.5,18.3c11,0,24.8-5.7,25.5-18.3C833.7,926.1,827.7,926.1,827.5,930z"/>
	</g>
</g>
<g>
	<ellipse class="st0" cx="870.9" cy="952" rx="22.5" ry="15.3"/>
	<g>
		<path d="M890.4,952c-0.5,9-12.1,12.3-19.5,12.3c-7,0-19.5-3.3-19.5-12.3c0-8.7,11.8-12.1,18.7-12.3
			C877.6,939.6,889.9,942.7,890.4,952c0.2,3.8,6.2,3.9,6,0c-0.6-12.6-14.4-18.3-25.5-18.3c-10.5,0-25.5,5.7-25.5,18.3
			c0,12.6,15,18.3,25.5,18.3c11,0,24.8-5.7,25.5-18.3C896.6,948.2,890.6,948.2,890.4,952z"/>
	</g>
</g>
<g>
	<ellipse class="st0" cx="770.6" cy="948.7" rx="22.5" ry="15.3"/>
	<g>
		<path d="M790,948.7c-0.5,9-12.1,12.3-19.5,12.3c-7,0-19.5-3.3-19.5-12.3c0-8.7,11.8-12.1,18.7-12.3
			C777.3,936.3,789.5,939.4,790,948.7c0.2,3.8,6.2,3.9,6,0c-0.6-12.6-14.4-18.3-25.5-18.3c-10.5,0-25.5,5.7-25.5,18.3
			c0,12.6,15,18.3,25.5,18.3c11,0,24.8-5.7,25.5-18.3C796.2,944.9,790.2,944.9,790,948.7z"/>
	</g>
</g>
<g>
	<ellipse class="st0" cx="815.8" cy="948.7" rx="22.5" ry="15.3"/>
	<g>
		<path d="M835.2,948.7c-0.5,9-12.1,12.3-19.5,12.3c-7,0-19.5-3.3-19.5-12.3c0-8.7,11.8-12.1,18.7-12.3
			C822.5,936.3,834.8,939.4,835.2,948.7c0.2,3.8,6.2,3.9,6,0c-0.6-12.6-14.4-18.3-25.5-18.3c-10.5,0-25.5,5.7-25.5,18.3
			c0,12.6,15,18.3,25.5,18.3c11,0,24.8-5.7,25.5-18.3C841.4,944.9,835.4,944.9,835.2,948.7z"/>
	</g>
</g>
<g>
	<ellipse class="st0" cx="899" cy="979.6" rx="22.5" ry="15.3"/>
	<g>
		<path d="M918.5,979.6c-0.5,9-12.1,12.3-19.5,12.3c-7,0-19.5-3.3-19.5-12.3c0-8.7,11.8-12.1,18.7-12.3
			C905.7,967.1,918,970.3,918.5,979.6c0.2,3.8,6.2,3.9,6,0c-0.6-12.6-14.4-18.3-25.5-18.3c-10.5,0-25.5,5.7-25.5,18.3
			c0,12.6,15,18.3,25.5,18.3c11,0,24.8-5.7,25.5-18.3C924.7,975.7,918.7,975.7,918.5,979.6z"/>
	</g>
</g>
<g>
	<ellipse class="st0" cx="848.3" cy="960.8" rx="22.5" ry="15.3"/>
	<g>
		<path d="M867.8,960.8c-0.5,9-12.1,12.3-19.5,12.3c-7,0-19.5-3.3-19.5-12.3c0-8.7,11.8-12.1,18.7-12.3
			C855,948.4,867.3,951.5,867.8,960.8c0.2,3.8,6.2,3.9,6,0c-0.6-12.6-14.4-18.3-25.5-18.3c-10.5,0-25.5,5.7-25.5,18.3
			c0,12.6,15,18.3,25.5,18.3c11,0,24.8-5.7,25.5-18.3C874,957,868,957,867.8,960.8z"/>
	</g>
</g>
<g>
	<ellipse class="st0" cx="760.1" cy="979.6" rx="22.5" ry="15.3"/>
	<g>
		<path d="M779.5,979.6c-0.5,9-12.1,12.3-19.5,12.3c-7,0-19.5-3.3-19.5-12.3c0-8.7,11.8-12.1,18.7-12.3
			C766.8,967.1,779.1,970.3,779.5,979.6c0.2,3.8,6.2,3.9,6,0c-0.6-12.6-14.4-18.3-25.5-18.3c-10.5,0-25.5,5.7-25.5,18.3
			c0,12.6,15,18.3,25.5,18.3c11,0,24.8-5.7,25.5-18.3C785.7,975.7,779.7,975.7,779.5,979.6z"/>
	</g>
</g>
<g>
	<ellipse class="st0" cx="803.6" cy="979.6" rx="22.5" ry="15.3"/>
	<g>
		<path d="M823.1,979.6c-0.5,9-12.1,12.3-19.5,12.3c-7,0-19.5-3.3-19.5-12.3c0-8.7,11.8-12.1,18.7-12.3
			C810.4,967.1,822.6,970.3,823.1,979.6c0.2,3.8,6.2,3.9,6,0c-0.6-12.6-14.4-18.3-25.5-18.3c-10.5,0-25.5,5.7-25.5,18.3
			c0,12.6,15,18.3,25.5,18.3c11,0,24.8-5.7,25.5-18.3C829.3,975.7,823.3,975.7,823.1,979.6z"/>
	</g>
</g>
<g>
	<ellipse class="st0" cx="737.5" cy="954.2" rx="22.5" ry="15.3"/>
	<g>
		<path d="M756.9,954.2c-0.5,9-12.1,12.3-19.5,12.3c-7,0-19.5-3.3-19.5-12.3c0-8.7,11.8-12.1,18.7-12.3
			C744.2,941.8,756.5,944.9,756.9,954.2c0.2,3.8,6.2,3.9,6,0c-0.6-12.6-14.4-18.3-25.5-18.3c-10.5,0-25.5,5.7-25.5,18.3
			c0,12.6,15,18.3,25.5,18.3c11,0,24.8-5.7,25.5-18.3C763.1,950.4,757.1,950.4,756.9,954.2z"/>
	</g>
</g>
<g>
	<ellipse class="st0" cx="854.9" cy="980.7" rx="22.5" ry="15.3"/>
	<g>
		<path d="M874.4,980.7c-0.5,9-12.1,12.3-19.5,12.3c-7,0-19.5-3.3-19.5-12.3c0-8.7,11.8-12.1,18.7-12.3
			C861.6,968.2,873.9,971.4,874.4,980.7c0.2,3.8,6.2,3.9,6,0c-0.6-12.6-14.4-18.3-25.5-18.3c-10.5,0-25.5,5.7-25.5,18.3
			c0,12.6,15,18.3,25.5,18.3c11,0,24.8-5.7,25.5-18.3C880.6,976.8,874.6,976.9,874.4,980.7z"/>
	</g>
</g>
</svg>
