<svg id="Layer_1" data-name="Layer 1" xmlns="http://www.w3.org/2000/svg" viewBox="0 0 1280 1024"><defs><style>.cls-1{fill:#c2f395;stroke:#000;stroke-miterlimit:10;stroke-width:2px;stroke-dasharray:10 10;}.cls-2{fill:#eb8755;}.cls-3{fill:#1a1a1a;}.cls-4{fill:#cf5b4b;}</style></defs><title>partArtboard 3</title><path d="M1115.73,682.89,1031.42,565l-16.16-22.6c-3.16-4.42-3.88-8.62-5.26-14l-10.82-42.18c-.77-3-1.14-6.64-2.51-9.44-2.52-5.19-8.54-2.71-12.76-1.63-11.81,3-24.35,5.16-35.85,9.2-4.58,1.61-5.32,4.83-4.26,9L948,509.55l10.44,40.68c1.05,4.1.32,7.76-.09,12L942.78,719.88c-.4,4-2.32,8.91,2.34,10.69s10.11,1.87,14.9,2.2a198.33,198.33,0,0,0,29.35-.38,270.36,270.36,0,0,0,79-18.77c15.15-6.1,31-13.41,43.58-24,1.73-1.46,5.2-4,3.8-6.69s-5.25-.33-3.9,2.24c-1.36-2.58.69-1.68-.57-1.06-.53.26-1.11,1.09-1.56,1.5a57.6,57.6,0,0,1-6,4.63,165.25,165.25,0,0,1-21.44,12.35,261.88,261.88,0,0,1-74,23.07c-18.28,2.91-37.74,4.55-56.17,1.84-1.66-.24-3.79-1.14-5.45-1.12-1.91,0,.65.25-.11,1,.69-.68.44-4.38.53-5.34l15-152.23c.52-5.21,1.54-10.64,1.57-15.88,0-2.49-.93-5-1.55-7.35l-4.69-18.31-5.64-22c-1.2-4.68-3.36-9.93-3.79-14.76-.14-1.6-1.17-1.57,1.21-2.78,1.37-.7,3.36-.86,4.84-1.24l20.13-5.17c5.11-1.31,10.55-3.44,15.8-4.05,3.6-.41,3.3,3,4,5.87l10.21,39.8c1.48,5.74,2.07,13.23,5.4,18.27,3.88,5.88,8.23,11.5,12.32,17.23l87.73,122.66,2.18,3C1113.49,687.46,1117.42,685.25,1115.73,682.89Z"/><path d="M1012.55,472.75l7.08,27.92,2,7.78c.35,1.38,1.51,3.83,1.34,5.28-.18,1.61-1,1.11-2.93,1.24l-65.49,4.63-29.61,2.1c-1.1.07-3.94.82-4.94.2s-1.08-3.36-1.33-4.36l-2.31-9.08c-.5-1.94-3.56-9.3-2.27-10.85.81-1,5.11-1.3,6.3-1.61l30.74-7.85,40.6-10.37,14.52-3.7c1.42-.37,5.67-2.34,6.56-.77,1.42,2.52,5.33.29,3.9-2.24-3.34-5.94-14.43-.62-19.35.63l-37.82,9.66-36.9,9.43c-5.21,1.33-14.48,1.68-13.11,9.09,1.12,6.05,3.06,12,4.58,18,.95,3.74,1.33,8.37,6.16,8.64,7,.4,14.67-1,21.69-1.53l75.43-5.34c2.25-.15,5.48.13,7.58-.9,4.57-2.24,1.84-8.19.93-11.77l-9-35.35C1016.2,468.82,1011.84,469.94,1012.55,472.75Z"/><path d="M892.32,532.5l26.3-6.74a2.28,2.28,0,0,0,1.62-2.74l-6.74-26.3a2.28,2.28,0,0,0-2.74-1.62l-26.3,6.74a2.29,2.29,0,0,0-1.62,2.74l6.75,26.3c.71,2.81,5.07,1.69,4.35-1.12l-6.74-26.3-1.62,2.74,26.3-6.74-2.74-1.62,6.74,26.3,1.62-2.74-26.29,6.74C888.4,528.86,889.51,533.22,892.32,532.5Z"/><path d="M921.75,525.14c10.94,18.42,2.1,37.14-9.4,52.65-1.11,1.49.72,4,2.5,3.32,9.85-3.84,19.63-10.35,25.79-19,7.54-10.63,9-28.51,2.71-40.17a2.22,2.22,0,0,0-1.91-1.13l-17.69,1c-2.88.16-3,4.66-.09,4.5l17.7-1-1.91-1.13c5.81,10.77,3.87,27.4-3.57,36.79-5.49,6.95-14.54,12.83-22.15,15.8l2.5,3.33c12.52-16.88,21.21-37.33,9.43-57.18C924.18,520.42,920.27,522.64,921.75,525.14Z"/><line class="cls-1" x1="859.54" y1="513.34" x2="663.54" y2="581.34"/><line class="cls-1" x1="868.54" y1="526.34" x2="689.54" y2="623.34"/><line class="cls-1" x1="874.54" y1="540.34" x2="753.54" y2="639.34"/><line class="cls-1" x1="882.54" y1="551.34" x2="797.54" y2="661.34"/><rect x="421.17" y="134.31" width="6.4" height="789.27" rx="3" transform="translate(848.73 1057.88) rotate(-180)"/><path class="cls-2" d="M289.52,864.9A140.68,140.68,0,0,1,254,804.71a157.93,157.93,0,0,1-3.95-70,157.89,157.89,0,0,1,70,4,140.37,140.37,0,0,1,95.77,95.77,157.88,157.88,0,0,1,3.95,70,157.89,157.89,0,0,1-70-4A140.62,140.62,0,0,1,289.52,864.9Z"/><path class="cls-3" d="M291.64,862.78c-33.14-33.55-46-81.08-38.75-127.26l-2.1,2.1c36-5.7,73.68.59,104.58,20.44a138.64,138.64,0,0,1,58.48,80.72,157.09,157.09,0,0,1,3,64.85l2.09-2.09c-46.18,7.29-93.71-5.61-127.26-38.76-2.75-2.72-7,1.52-4.24,4.24,35.17,34.76,84.75,47.94,133.1,40.3a2.86,2.86,0,0,0,2.09-2.09c5.94-37.61-.27-76.9-21-109.2a144.92,144.92,0,0,0-85.19-61.47c-22-5.71-44.8-6.26-67.15-2.73a2.89,2.89,0,0,0-2.1,2.1c-7.63,48.34,5.55,97.92,40.3,133.09C290.12,869.77,294.36,865.53,291.64,862.78Z"/><path class="cls-2" d="M466.52,655.25a140.62,140.62,0,0,1,60.2-35.57,157.89,157.89,0,0,1,70-4,157.93,157.93,0,0,1-4,70A140.38,140.38,0,0,1,497,781.47a157.89,157.89,0,0,1-70,4,157.88,157.88,0,0,1,3.95-70A140.66,140.66,0,0,1,466.52,655.25Z"/><path class="cls-3" d="M468.64,657.37c33.55-33.15,81.08-46,127.26-38.75l-2.09-2.1c5.69,36-.6,73.68-20.45,104.58a138.58,138.58,0,0,1-80.72,58.47,156.91,156.91,0,0,1-64.85,3l2.1,2.09c-7.3-46.18,5.61-93.71,38.75-127.26,2.72-2.75-1.52-7-4.24-4.24-34.75,35.17-47.93,84.75-40.3,133.1a2.89,2.89,0,0,0,2.1,2.09c37.6,5.94,76.9-.28,109.2-21.05a144.94,144.94,0,0,0,61.46-85.19c5.72-22,6.27-44.8,2.73-67.15a2.86,2.86,0,0,0-2.09-2.1c-48.35-7.64-97.93,5.54-133.1,40.3C461.65,655.85,465.89,660.09,468.64,657.37Z"/><path class="cls-2" d="M507.62,249.54a89.09,89.09,0,0,0,22.52-38.11,100,100,0,0,0,2.5-44.31,100,100,0,0,0-44.31,2.51,88.88,88.88,0,0,0-60.63,60.63,100,100,0,0,0-2.5,44.31,100.08,100.08,0,0,0,44.3-2.5A89.11,89.11,0,0,0,507.62,249.54Z"/><path class="cls-3" d="M509.74,251.66c22.29-22.72,30.61-54.19,25.79-85.33a2.88,2.88,0,0,0-2.09-2.1c-30.91-4.78-62.9,3.35-85.34,25.8s-30.58,54.43-25.8,85.34a2.88,2.88,0,0,0,2.1,2.09c31.14,4.81,62.61-3.5,85.34-25.8,2.76-2.7-1.49-6.95-4.25-4.24C484.41,268.11,455,276.15,426,271.68l2.1,2.09c-4.45-28.76,3.44-58.66,24.25-79.5s50.77-28.7,79.5-24.25l-2.09-2.1c4.47,29-3.57,58.42-24.26,79.5C502.79,250.18,507,254.43,509.74,251.66Z"/><path class="cls-4" d="M339.51,356.68c-20.68-21.06-28.77-50.58-24.25-79.5l-2.1,2.1c28.7-4.48,58.72,3.43,79.5,24.25s28.74,50.76,24.25,79.5l2.1-2.09c-28.92,4.51-58.44-3.58-79.5-24.26-2.76-2.71-7,1.53-4.24,4.25,22.7,22.29,54.24,30.64,85.33,25.79a2.88,2.88,0,0,0,2.1-2.09c4.82-30.88-3.37-62.91-25.8-85.34s-54.45-30.62-85.34-25.8a2.88,2.88,0,0,0-2.09,2.1c-4.85,31.09,3.5,62.63,25.8,85.34C338,363.68,342.22,359.44,339.51,356.68Z"/><rect x="320.21" y="426.6" width="4.75" height="286.03" rx="1.84" transform="translate(953.46 744.3) rotate(135)"/><path class="cls-2" d="M315.34,642.73A61,61,0,0,1,286,635.19,68.44,68.44,0,0,1,263.33,615,68.41,68.41,0,0,1,286,594.72a60.82,60.82,0,0,1,58.7,0A68.41,68.41,0,0,1,367.35,615a68.44,68.44,0,0,1-22.66,20.24A61,61,0,0,1,315.34,642.73Z"/><path class="cls-3" d="M315.34,639.73c-19.94-.28-37.69-10.35-49.42-26.29v3c11.61-15.78,29.56-26.3,49.42-26.3s37.81,10.52,49.42,26.3v-3c-11.73,15.94-29.48,26-49.42,26.29-3.86.06-3.87,6.06,0,6,22.22-.31,41.57-11.56,54.6-29.26a2.9,2.9,0,0,0,0-3c-12.9-17.53-32.48-29.24-54.6-29.27s-41.72,11.77-54.6,29.27a2.9,2.9,0,0,0,0,3c13,17.7,32.38,28.95,54.6,29.26C319.2,645.79,319.2,639.79,315.34,639.73Z"/><path class="cls-4" d="M341.92,505.7c-.28-22.19-11.58-41.61-29.27-54.6a2.9,2.9,0,0,0-3,0c-17.53,12.88-29.24,32.49-29.27,54.6s11.76,41.73,29.27,54.59a2.9,2.9,0,0,0,3,0c17.69-13,29-32.41,29.27-54.59.05-3.87-5.95-3.87-6,0-.25,19.92-10.36,37.71-26.3,49.41h3c-15.78-11.59-26.3-29.57-26.3-49.41s10.52-37.83,26.3-49.42h-3c15.94,11.71,26.05,29.49,26.3,49.42C336,509.55,342,509.57,341.92,505.7Z"/><path class="cls-2" d="M207.86,524.42A51.53,51.53,0,0,1,183,518a58,58,0,0,1-19.18-17.12A57.86,57.86,0,0,1,183,483.79a51.46,51.46,0,0,1,49.67,0,57.82,57.82,0,0,1,19.17,17.12A57.93,57.93,0,0,1,232.7,518,51.6,51.6,0,0,1,207.86,524.42Z"/><path class="cls-3" d="M207.86,521.42c-16.75-.29-31.53-8.65-41.42-22v3c9.75-13.19,24.77-22.05,41.42-22s31.65,8.8,41.42,22v-3c-9.88,13.38-24.67,21.74-41.42,22-3.86.06-3.87,6.06,0,6,19-.33,35.42-9.87,46.6-25a2.9,2.9,0,0,0,0-3c-11-14.93-27.68-25-46.6-25s-35.56,10.06-46.6,25a2.9,2.9,0,0,0,0,3c11.19,15.13,27.58,24.67,46.6,25C211.72,527.48,211.72,521.48,207.86,521.42Z"/><rect x="537.47" y="249.51" width="5.35" height="334.5" rx="1.84" transform="translate(452.9 -259.87) rotate(45)"/><path class="cls-4" d="M559.63,508.44c29.19-.27,55.07-15.29,72.1-38.61a2.9,2.9,0,0,0,0-3c-16.91-23.15-43-38.62-72.1-38.62s-55.19,15.47-72.1,38.62a2.9,2.9,0,0,0,0,3c17,23.32,42.91,38.34,72.1,38.61,3.86,0,3.87-6,0-6-26.94-.25-51.16-14.07-66.92-35.64v3c15.63-21.4,40.07-35.67,66.92-35.65s51.26,14.22,66.92,35.65v-3c-15.76,21.57-40,35.39-66.92,35.64C555.77,502.48,555.76,508.48,559.63,508.44Z"/><path class="cls-2" d="M573,347.07a81.54,81.54,0,0,0-10.08-39.22,91.52,91.52,0,0,0-27-30.29,91.49,91.49,0,0,0-27,30.29,81.29,81.29,0,0,0,0,78.45,91.36,91.36,0,0,0,27,30.28,91.39,91.39,0,0,0,27-30.28A81.55,81.55,0,0,0,573,347.07Z"/><path class="cls-3" d="M576,347.07c-.31-29.22-15.28-55-38.61-72.1a2.9,2.9,0,0,0-3,0c-23.13,16.92-38.65,43-38.62,72.1s15.46,55.16,38.62,72.1a2.9,2.9,0,0,0,3,0c23.33-17.07,38.3-42.87,38.61-72.1,0-3.86-6-3.86-6,0-.28,27-14.06,51.13-35.64,66.92h3c-21.42-15.67-35.62-40-35.65-66.92s14.25-51.26,35.65-66.91h-3C555.94,296,569.72,320.11,570,347.07,570.05,350.93,576.05,350.94,576,347.07Z"/><path class="cls-2" d="M639.84,396.86a61,61,0,0,0,29.35-7.54,68.54,68.54,0,0,0,22.66-20.24,68.51,68.51,0,0,0-22.66-20.23,60.82,60.82,0,0,0-58.7,0,68.41,68.41,0,0,0-22.66,20.23,68.44,68.44,0,0,0,22.66,20.24A61,61,0,0,0,639.84,396.86Z"/><path class="cls-3" d="M639.84,399.86c22.22-.31,41.57-11.56,54.6-29.26a2.9,2.9,0,0,0,0-3C681.54,350,662,338.33,639.84,338.3s-41.72,11.77-54.6,29.27a2.9,2.9,0,0,0,0,3c13,17.7,32.38,28.95,54.6,29.26,3.86.06,3.86-5.94,0-6-19.94-.28-37.69-10.35-49.42-26.29v3C602,354.82,620,344.3,639.84,344.3s37.81,10.52,49.42,26.3v-3c-11.73,15.94-29.48,26-49.42,26.29C636,393.92,636,399.92,639.84,399.86Z"/><path class="cls-4" d="M619.26,259.83c.25-19.93,10.36-37.71,26.3-49.42h-3C658.31,222,668.82,240,668.82,259.83s-10.51,37.82-26.29,49.41h3c-15.94-11.7-26-29.49-26.3-49.41,0-3.86-6-3.87-6,0,.28,22.18,11.58,41.6,29.27,54.59a2.9,2.9,0,0,0,3,0c17.53-12.88,29.24-32.49,29.26-54.59s-11.76-41.74-29.26-54.6a2.9,2.9,0,0,0-3,0c-17.69,13-29,32.41-29.27,54.6C613.21,263.69,619.21,263.69,619.26,259.83Z"/><circle class="cls-4" cx="583.22" cy="688.75" r="29.92"/><path d="M616.14,689.1a32.93,32.93,0,1,0-27.09,32c15.62-2.73,26.56-16.47,27.09-32,.13-3.86-5.87-3.86-6,0-.5,14.69-12.36,26.74-27.27,26.57a26.92,26.92,0,1,1,.7-53.84c14.95.17,26.41,12.6,26.57,27.27C610.18,693,616.18,693,616.14,689.1Z"/><ellipse class="cls-4" cx="569.41" cy="662.05" rx="13.55" ry="9.6" transform="translate(-99.26 1223.67) rotate(-89.33)"/><path d="M580.51,662.16c-.18-6.33-3.27-15.09-10.94-15.16-7.48-.07-11.19,8.61-11.25,14.94s3.2,14.57,10.38,15.11c8,.59,11.47-8.4,11.81-14.89.1-1.93-2.9-1.92-3,0-.24,4.6-2.34,12.08-8.25,11.94s-8-7.53-7.94-12.16,2.48-12.08,8.25-11.94c5.93.14,7.81,7.53,7.94,12.16C577.57,664.09,580.57,664.1,580.51,662.16Z"/><ellipse class="cls-4" cx="597.08" cy="662.37" rx="13.55" ry="9.6" transform="translate(-72.24 1251.65) rotate(-89.33)"/><path d="M608.18,662.49c-.19-6.34-3.28-15.09-10.94-15.17-7.48-.07-11.2,8.61-11.26,14.94s3.2,14.57,10.38,15.11c8,.6,11.47-8.39,11.82-14.88.1-1.93-2.9-1.93-3,0-.25,4.59-2.35,12.07-8.26,11.93s-8-7.52-7.94-12.16,2.49-12.07,8.26-11.94,7.8,7.53,7.94,12.17C605.23,664.41,608.23,664.42,608.18,662.49Z"/><path d="M556.07,675.09c-16.65-10.22-38.35-10-54.43,1.1-3.16,2.17-.16,7.37,3,5.18A44.5,44.5,0,0,1,553,680.28c3.3,2,6.31-3.17,3-5.19Z"/><path d="M555.83,694.85a51.47,51.47,0,0,0-31.62-4.59c-9.55,1.7-18.2,8.15-24,15.8-2.33,3.07,2.88,6.07,5.18,3-.68.91.93-1.08,1.29-1.48a47.07,47.07,0,0,1,4-4,31.12,31.12,0,0,1,15.08-7.6,45.2,45.2,0,0,1,27,4c3.42,1.78,6.46-3.4,3-5.18Z"/><path d="M566.23,709.93c-19.38-4.84-39.7,10.57-46.34,28.13-1.37,3.62,4.43,5.18,5.78,1.59,5.39-14.23,22.88-27.95,39-23.94,3.75.94,5.35-4.85,1.6-5.78Z"/><path d="M614.26,681a49.1,49.1,0,0,1,51.1,2.32c3.19,2.2,6.2-3,3-5.18C651.63,666.6,629,666,611.23,675.78c-3.38,1.86-.36,7.05,3,5.18Z"/><path d="M614,700.72c8.16-3.78,19.52-5,28.68-3.29A33.47,33.47,0,0,1,658,705a45.89,45.89,0,0,1,4.22,4c.36.38,2.39,2.83,1.71,1.93,2.3,3,7.52,0,5.18-3-6-7.88-15-14.47-24.83-16.33a56.66,56.66,0,0,0-33.3,3.9c-3.5,1.62-.46,6.79,3,5.18Z"/><path d="M601.23,716.12c16.54-3.52,35,9.78,40.63,25,1.33,3.59,7.13,2,5.79-1.59-6.81-18.36-28.08-33.4-48-29.15-3.78.8-2.18,6.59,1.59,5.78Z"/><ellipse cx="569.34" cy="668.26" rx="7.17" ry="5.08" transform="translate(-105.54 1229.74) rotate(-89.33)"/><ellipse cx="597.02" cy="667.45" rx="7.17" ry="5.08" transform="translate(-77.38 1256.62) rotate(-89.33)"/></svg>