<svg id="Layer_1" data-name="Layer 1" xmlns="http://www.w3.org/2000/svg" viewBox="0 0 1280 1024"><defs><style>.cls-1{fill:#8c4e9b;}.cls-2{fill:#fff;}.cls-3{fill:#8b4f98;}</style></defs><title>Artboard 9 copy 3</title><ellipse class="cls-1" cx="607.27" cy="601.02" rx="84.2" ry="57.33"/><path class="cls-2" d="M694.47,601c-.42-30.6-30.14-49.79-56.86-56.6-32.34-8.23-71.33-3.69-97.62,18.16-10.18,8.46-18,20.12-19.61,33.47-1.55,13.15,3.36,25.77,11.81,35.73,21.59,25.47,60.28,32.7,91.88,28.44,30.85-4.17,69.9-23.32,70.4-59.2.06-3.86-5.94-3.86-6,0-.39,28.38-29.47,45.29-53.91,51.18-29.6,7.13-65.6,3.12-89.84-16.58-9.31-7.57-16.94-18-18.4-30.17s3.53-23.87,11.69-32.73c20.72-22.51,55.7-28.85,84.86-25,27.83,3.63,65.14,20.55,65.6,53.34C688.53,604.88,694.53,604.89,694.47,601Z"/><path class="cls-2" d="M646.79,598H564.28c-3.86,0-3.86,6,0,6h82.51c3.86,0,3.87-6,0-6H564.28c-3.86,0-3.86,6,0,6h82.51C650.65,604,650.66,598,646.79,598Z"/><path d="M1053.48,601c-.43-30.6-30.14-49.79-56.87-56.6-32.33-8.23-71.33-3.69-97.61,18.16-10.18,8.46-18,20.12-19.61,33.47-1.56,13.15,3.36,25.77,11.8,35.73,21.6,25.47,60.28,32.7,91.88,28.44,30.86-4.17,69.91-23.32,70.41-59.2,0-3.86-6-3.86-6,0-.4,28.38-29.48,45.29-53.92,51.18-29.6,7.13-65.59,3.12-89.83-16.58-9.32-7.57-17-18-18.41-30.17s3.53-23.87,11.69-32.73c20.72-22.51,55.71-28.85,84.86-25,27.83,3.63,65.15,20.55,65.61,53.34C1047.53,604.88,1053.53,604.89,1053.48,601Z"/><path d="M1005.8,598H923.29c-3.86,0-3.87,6,0,6h82.51c3.86,0,3.86-6,0-6H923.29c-3.86,0-3.87,6,0,6h82.51C1009.66,604,1009.66,598,1005.8,598Z"/><rect x="1045.96" y="198.85" width="5.98" height="395.1" rx="2.99"/><path d="M985.34,398c-15.74-16.14-21.87-38.44-18.5-60.57l-2.1,2.1c21.91-3.34,44.69,2.62,60.56,18.5s21.84,38.65,18.51,60.56l2.09-2.09c-22.12,3.37-44.43-2.76-60.56-18.5-2.77-2.7-7,1.54-4.24,4.24,17.78,17.35,42.08,23.74,66.4,20a2.86,2.86,0,0,0,2.09-2.09c3.67-24.1-2.55-48.88-20-66.4s-42.34-23.71-66.4-20.05a2.89,2.89,0,0,0-2.1,2.1c-3.7,24.31,2.69,48.61,20.05,66.4C983.8,405,988,400.78,985.34,398Z"/><path d="M1006.17,256.86c-10.3-10.69-14.32-25.13-12.18-39.73l-2.09,2.09c14.41-2.11,29.27,1.76,39.73,12.18s14.29,25.35,12.18,39.73l2.09-2.09c-14.6,2.14-29-1.88-39.73-12.18-2.78-2.68-7,1.56-4.24,4.24,12.38,11.93,28.74,16.19,45.57,13.72a2.86,2.86,0,0,0,2.09-2.09c2.44-16.58-1.65-33.5-13.72-45.57s-29-16.15-45.57-13.72a2.88,2.88,0,0,0-2.09,2.09c-2.47,16.83,1.79,33.19,13.72,45.57C1004.61,263.89,1008.85,259.64,1006.17,256.86Z"/><path d="M1071.65,300c16.11-15.74,38.48-21.9,60.56-18.5l-2.09-2.1c3.37,21.9-2.64,44.7-18.5,60.57s-38.67,21.86-60.57,18.5l2.1,2.09c-3.4-22.08,2.76-44.45,18.5-60.56,2.7-2.76-1.54-7-4.24-4.24-17.35,17.76-23.78,42.13-20.05,66.4a2.88,2.88,0,0,0,2.1,2.09c24.07,3.71,48.88-2.56,66.4-20s23.74-42.36,20.05-66.4a2.9,2.9,0,0,0-2.1-2.1c-24.27-3.73-48.64,2.7-66.4,20C1064.64,298.48,1068.89,302.72,1071.65,300Z"/><path d="M147.48,504.76h947.8c12.85,0,25.71.23,38.56,0h1.63c3.86,0,3.86-6,0-6H187.66c-12.84,0-25.71-.23-38.56,0h-1.62c-3.86,0-3.87,6,0,6Z"/><path d="M1005.79,137c1.45,20.34,7.23,46.07,23.29,59.92,10.47,9,25.9,10.7,37.67,3.07,11.62-7.53,17.81-21.27,21.66-34.08a131.5,131.5,0,0,0,5.37-28.91c.25-3.85-5.75-3.84-6,0-1.19,18.14-6.08,40.68-19.31,53.9-9.08,9.07-23.23,10.72-33.72,2.93-10-7.46-15.13-20.46-18.4-32.09a125.1,125.1,0,0,1-4.56-24.74c-.27-3.83-6.27-3.86-6,0Z"/><path d="M1030.72,137.75l15.34,61.89c.74,3,4.92,2.73,5.78,0l19.59-61.89c1.17-3.69-4.62-5.27-5.79-1.59l-19.58,61.89h5.78l-15.33-61.89c-.93-3.75-6.72-2.16-5.79,1.59Z"/><path d="M331.9,398c-15.74-16.14-21.87-38.44-18.5-60.57l-2.1,2.1c21.92-3.34,44.69,2.62,60.57,18.5s21.84,38.65,18.5,60.56l2.1-2.09c-22.13,3.37-44.43-2.76-60.57-18.5-2.76-2.7-7,1.54-4.24,4.24,17.79,17.35,42.09,23.74,66.4,20a2.88,2.88,0,0,0,2.1-2.09c3.66-24.1-2.56-48.88-20.05-66.4s-42.34-23.71-66.4-20.05a2.9,2.9,0,0,0-2.1,2.1c-3.7,24.31,2.69,48.61,20.05,66.4C330.36,405,334.6,400.78,331.9,398Z"/><path d="M399,601c-.43-30.6-30.14-49.79-56.86-56.6-32.34-8.23-71.34-3.69-97.62,18.16-10.18,8.46-18,20.12-19.61,33.47-1.56,13.15,3.36,25.77,11.8,35.73,21.6,25.47,60.29,32.7,91.89,28.44,30.85-4.17,69.9-23.32,70.4-59.2.06-3.86-5.94-3.86-6,0-.4,28.38-29.48,45.29-53.91,51.18-29.6,7.13-65.6,3.12-89.84-16.58-9.31-7.57-16.94-18-18.41-30.17s3.54-23.87,11.7-32.73c20.72-22.51,55.7-28.85,84.86-25,27.83,3.63,65.14,20.55,65.6,53.34C393.1,604.88,399.1,604.89,399,601Z"/><path d="M351.36,598H268.85c-3.86,0-3.86,6,0,6h82.51c3.86,0,3.87-6,0-6H268.85c-3.86,0-3.86,6,0,6h82.51C355.22,604,355.23,598,351.36,598Z"/><rect x="392.54" y="349.02" width="6" height="244.92" rx="3"/><path d="M418.22,300c16.11-15.74,38.47-21.9,60.56-18.5l-2.1-2.1c3.37,21.9-2.63,44.7-18.5,60.57s-38.67,21.86-60.56,18.5l2.09,2.09c-3.39-22.08,2.77-44.45,18.51-60.56,2.7-2.76-1.54-7-4.25-4.24-17.35,17.76-23.77,42.13-20,66.4a2.88,2.88,0,0,0,2.09,2.09c24.08,3.71,48.89-2.56,66.4-20s23.75-42.36,20.05-66.4a2.87,2.87,0,0,0-2.1-2.1c-24.27-3.73-48.63,2.7-66.4,20C411.21,298.48,415.45,302.72,418.22,300Z"/><path d="M224.64,601v93.57a3,3,0,0,0,3,3h52.7l-3-3v37.58c0,3.86,6,3.87,6,0V694.59a3,3,0,0,0-3-3h-52.7l3,3V601c0-3.86-6-3.87-6,0Z"/><path d="M165.7,704.39V666.6l-3,3h64.94c3.86,0,3.86-6,0-6H162.7a3,3,0,0,0-3,3v37.79c0,3.87,6,3.87,6,0Z"/><path d="M198.17,732.17V666.6c0-3.87-6-3.87-6,0v65.57c0,3.86,6,3.87,6,0Z"/><path d="M879.07,601v41.29l3-3H811.89a3,3,0,0,0-3,3v43.18l3-3H753.07c-3.86,0-3.86,6,0,6h58.82a3,3,0,0,0,3-3V642.31l-3,3h70.18a3,3,0,0,0,3-3V601c0-3.86-6-3.87-6,0Z"/><path d="M913.19,729.17H841.3l3,3V643.26c0-3.86-6-3.87-6,0v88.91a3,3,0,0,0,3,3h71.89c3.86,0,3.86-6,0-6Z"/><path d="M926.29,704.39V676.62a3,3,0,0,0-3-3h-82c-3.86,0-3.87,6,0,6h82l-3-3v27.77c0,3.87,6,3.87,6,0Z"/><path d="M782.22,685.49V601l-3,3H826.6a3,3,0,0,0,3-3v-56.4c0-3.86-6-3.86-6,0V601l3-3H779.22a3,3,0,0,0-3,3v84.47c0,3.87,6,3.87,6,0Z"/><path d="M349.22,817.69a37.39,37.39,0,1,0-30.48,36.73c17.72-3.18,30.13-19,30.48-36.73.08-3.87-5.92-3.87-6,0-.26,13.16-8.33,25.22-20.94,29.6a31.39,31.39,0,1,1-4.47-60.43c14.8,2.85,25.12,16,25.41,30.83C343.3,821.54,349.3,821.56,349.22,817.69Z"/><path d="M287.8,821.6l13,12.06a3.09,3.09,0,0,0,4.24,0L335.88,806c2.88-2.58-1.37-6.82-4.24-4.24l-30.85,27.69H305l-13-12c-2.83-2.62-7.08,1.61-4.24,4.24Z"/><path d="M965.88,817.69a37.4,37.4,0,1,0-30.48,36.73c17.71-3.18,30.13-19,30.48-36.73.07-3.87-5.93-3.87-6,0-.26,13.16-8.33,25.22-20.94,29.6a31.39,31.39,0,1,1-4.48-60.43c14.81,2.85,25.12,16,25.42,30.83C960,821.54,966,821.56,965.88,817.69Z"/><path d="M904.45,821.6l13,12.06a3.1,3.1,0,0,0,4.25,0L952.54,806c2.88-2.58-1.38-6.82-4.25-4.24l-30.85,27.69h4.25l-13-12c-2.83-2.62-7.08,1.61-4.24,4.24Z"/><circle class="cls-3" cx="605.54" cy="819.49" r="34.38"/><path class="cls-2" d="M642.92,819.49a37.39,37.39,0,1,0-30.48,36.73c17.72-3.17,30.13-19,30.48-36.73.08-3.86-5.92-3.86-6,0-.26,13.17-8.33,25.22-20.94,29.61a31.39,31.39,0,1,1-4.47-60.43c14.8,2.84,25.12,16,25.41,30.82C637,823.35,643,823.36,642.92,819.49Z"/><line class="cls-3" x1="589.89" y1="803.84" x2="621.19" y2="835.15"/><path class="cls-2" d="M587.76,806l31.31,31.31c2.74,2.73,7-1.51,4.24-4.24L592,801.72c-2.74-2.74-7,1.51-4.25,4.24Z"/><line class="cls-3" x1="589.89" y1="835.15" x2="621.19" y2="803.84"/><path class="cls-2" d="M592,837.27,623.31,806c2.74-2.73-1.5-7-4.24-4.24L587.76,833c-2.73,2.73,1.51,7,4.25,4.24Z"/></svg>
