<svg id="Layer_1" data-name="Layer 1" xmlns="http://www.w3.org/2000/svg" viewBox="0 0 1280 1024"><defs><style>.cls-1{fill:#b2bbf0;}.cls-2{fill:#7081e5;}.cls-3{fill:#fff;}</style></defs><title>partArtboard 1</title><rect class="cls-1" x="350.66" y="202.52" width="53.79" height="190.88" transform="translate(-101.79 258.48) rotate(-33.57)"/><path d="M451.23,360l-44.82,29.74,4.1,1.08-35.68-53.76L318,251.42,305,231.8l-1.08,4.1,44.82-29.75-4.1-1.07,35.68,53.76,56.85,85.65,13,19.63c2.13,3.2,7.33.2,5.18-3l-35.68-53.76-56.84-85.65-13-19.63a3,3,0,0,0-4.1-1.08l-44.82,29.75a3,3,0,0,0-1.08,4.1l35.68,53.76,56.84,85.66,13,19.63a3,3,0,0,0,4.1,1.07l44.83-29.74C457.46,363.07,454.46,357.87,451.23,360Z"/><path class="cls-1" d="M504.84,321.41,341.39,419s54.35,39.57,95.59,58.63c27.12,12.53,67.94,23,67.94,23L547.37,469Z"/><path d="M503.32,318.82l-55.16,32.93-88,52.53-20.3,12.12c-2.07,1.24-1.78,3.88,0,5.18,29,21.08,59.56,41.3,91.89,56.88,19.6,9.44,40.53,16.1,61.42,22,3.33.94,9.77,4.14,13.28,2.66s6.86-5.11,9.82-7.31l32.61-24.28a3.12,3.12,0,0,0,1.37-3.39L513,339l-5.3-18.4c-1.07-3.7-6.86-2.13-5.79,1.6l37.23,129.15,5.31,18.4,1.38-3.39-27.51,20.49c-4.41,3.29-9.86,6.35-13.75,10.24-.11.11-1,.58-1,.76s2.56.57,1.69-.29c-1-1-4.73-1.26-6.16-1.66-20.53-5.66-41.24-12-60.62-20.88-20.66-9.53-40.22-21.53-59.29-33.88-12.29-7.95-24.46-16.14-36.3-24.75v5.18l55.16-32.93,88-52.53L506.35,324C509.66,322,506.65,316.83,503.32,318.82Z"/><polygon class="cls-1" points="556.92 507.37 514.85 539.37 504.92 500.58 547.37 468.96 556.92 507.37"/><path d="M555.41,504.78l-42.08,32,4.41,1.8-9.92-38.8-1.38,3.39,42.45-31.61-4.41-1.8L554,508.17c.93,3.74,6.72,2.16,5.79-1.6l-9.56-38.4c-.42-1.73-2.85-3-4.4-1.8L503.41,498a3.13,3.13,0,0,0-1.38,3.38l9.93,38.8c.43,1.7,2.85,3,4.4,1.79l42.08-32C561.47,507.65,558.48,502.44,555.41,504.78Z"/><path class="cls-1" d="M514.85,539.37C396.41,514,343.12,419.86,343.12,419.86"/><path d="M515.65,536.48c-64.71-14.07-123.86-52.59-162.37-106.61a135.22,135.22,0,0,1-7.57-11.52c-1.91-3.36-7.09-.34-5.18,3,7,12.33,16.34,23.66,25.76,34.19a282.46,282.46,0,0,0,78.14,61.35,273,273,0,0,0,69.62,25.35c3.76.82,5.37-5,1.6-5.79Z"/><path class="cls-2" d="M882.52,395.76v71.72c0,2.82-.95,5.06-1.9,7.67l-6.22,17.09L819,644.43,758.49,810.48q-7.15,19.65-14.31,39.29c-3,8.19,2.12,14.72,11.07,15.08,3.2.13,6.43,0,9.63,0h375.51c6.91,0,16.44-2.28,15.32-11.2-.37-3-2-6-3.1-8.78L1102.68,716l-68-175.34-22.39-57.76c-1.6-4.13-3.29-8.25-4.81-12.42-2.06-5.63-.93-12.46-.93-18.35V417.31c0-3.86-6-3.86-6,0V454c0,5.82-1,12.46,1.1,18,4.48,11.92,9.2,23.75,13.81,35.63L1077.66,668l60.25,155.46,8,20.69c1.1,2.84,2.69,5.83,3.41,8.8,1.57,6.45-6,5.89-10.27,5.89H788.42c-11,0-22.12.55-33.09,0-7.77-.39-6.27-5-4.59-9.6l6.13-16.84L811.1,683.5l60.49-166.07,15.18-41.68a26.29,26.29,0,0,0,1.75-9.47V395.76c0-3.86-6-3.87-6,0Z"/><path class="cls-2" d="M1048.84,319.34l-.19,67.47-.06,19.9c0,3.6.42,7.51,0,11.09-.71,5.75-5.41,3.7-9.38,3L887.75,393.13l-67.41-12.31c-3.2-.58-11.59-.46-12.76-4.75-.84-3.08,0-7.65,0-10.82l0-21.64,0-19.66c0-2.93-.94-6.73,3.13-7.73s9.79,0,14,0l72.86.08,145.72.16c2,0,5.08-.52,5.46,2.87.42,3.79,6.43,3.84,6,0-1-9.27-8.69-8.87-15.66-8.87l-27.39,0-89.5-.1-85.17-.09-23.21,0c-1.11,0-2.25-.07-3.36,0-6.69.4-8.85,5.59-8.86,11.4l-.08,42c0,7.71-2.23,19.09,7.74,21.29,16.89,3.71,34.13,6.22,51.13,9.33l169,30.85c4.73.86,9.47,1.92,14.24,2.6,11.69,1.66,10.83-10,10.85-17.74l.24-83.76,0-6.84C1054.85,315.48,1048.85,315.47,1048.84,319.34Z"/><path class="cls-2" d="M742.08,382.07h63a3,3,0,0,0,3-3v-63a3,3,0,0,0-3-3h-63a3,3,0,0,0-3,3v63c0,3.86,6,3.87,6,0v-63l-3,3h63l-3-3v63l3-3h-63C738.22,376.07,738.22,382.07,742.08,382.07Z"/><path class="cls-2" d="M814.58,384.13c5.37,18,4.87,39.06-2.25,56.41-9.87,24.07-29.93,42.59-49.78,58.6-1.93,1.56-.4,5.42,2.12,5.12a147,147,0,0,0,48.54-14.89c11.61-5.91,22.41-13.87,30.17-24.44,9.87-13.43,15.79-30.83,17.94-47.26,1.14-8.78,1.58-18.46-.63-27.15a3,3,0,0,0-2.1-2.09l-40.32-8c-3.77-.75-5.39,5-1.6,5.78l40.33,8-2.1-2.09c1.55,6.07,1.47,12.76,1.07,18.95a103.33,103.33,0,0,1-15.08,46.87c-12.59,20.37-36.91,31-59.2,36.82-4.15,1.09-8.34,2-12.56,2.78-1.16.21-2.44.27-3.57.59s-.31.06-.89.13l2.13,5.12c20.73-16.72,41.13-36.08,51.32-61.25,7.42-18.32,7.91-40.63,2.24-59.6C819.26,378.84,813.47,380.41,814.58,384.13Z"/><path class="cls-2" d="M1074.47,818.47H817.26c-6.94,0-11.91-5.2-9.89-10.34l75.92-237.5c1.32-3.37,5.34-5.67,9.88-5.67h96.64c4.55,0,8.56,2.3,9.89,5.67l84.66,237.5C1086.38,813.27,1081.41,818.47,1074.47,818.47Z"/><path d="M1074.47,815.47H886c-22.82,0-45.91,1-68.71,0-4-.18-8-2.18-7-6.7.16-.71.45-1.42.67-2.11L814.41,796l13.5-42.23,37.27-116.61L879.92,591l4.49-14c.55-1.72.89-3.92,1.76-5.51,2.56-4.69,10.68-3.49,15.21-3.49H983c4.47,0,11.25-1,13.82,3.57,1,1.74,1.44,4.05,2.11,5.92l12.43,34.86,40.32,113.11,28.79,80.77c.27.77.62,1.55.83,2.34,1.21,4.53-2.6,6.71-6.85,6.94-3.84.21-3.86,6.21,0,6,8.21-.44,15.27-6.2,12.53-14.84-.91-2.88-2-5.71-3-8.55l-14.23-39.93-42.4-118.95-17.23-48.34c-2.48-7-4.68-14.12-7.48-21S993.05,562,986.54,562H903.87c-4.57,0-9.92-.66-14.42.43-5.36,1.31-8.26,5-9.81,9.81l-9.88,30.89L832.5,719.69,805.24,805c-1.47,4.59-1.92,9,2,12.79,3.54,3.36,8.17,3.72,12.74,3.72h254.47C1078.33,821.47,1078.34,815.47,1074.47,815.47Z"/><polygon class="cls-2" points="295.18 578 252.18 578.41 252.18 472.56 737.71 472.56 737.71 578.41 699.18 578 610.86 861.85 383.4 861.85 295.18 578"/><path d="M295.18,575l-43,.41,3,3V472.56l-3,3h478.2c2,0,4.58.46,6.5,0a3.84,3.84,0,0,1,.83,0l-3-3V578.41l3-3L699.18,575a3.07,3.07,0,0,0-2.89,2.2l-29.84,95.9L618.88,826,608,861.05l2.9-2.2H383.4l2.9,2.2-29.81-95.9L309,612.29,298.07,577.2c-1.14-3.67-6.93-2.1-5.78,1.6l29.8,95.9L369.6,827.56l10.91,35.09a3.06,3.06,0,0,0,2.89,2.2H610.86a3.07,3.07,0,0,0,2.89-2.2l29.84-95.9,47.56-152.86,10.92-35.09-2.89,2.2,38.53.41a3,3,0,0,0,3-3V472.56a3,3,0,0,0-3-3H272.12c-6.32,0-12.8-.42-19.11,0h-.83a3,3,0,0,0-3,3V578.41a3,3,0,0,0,3,3l43-.41C299,581,299.05,575,295.18,575Z"/><path class="cls-3" d="M548.53,659.51q-2.64-.9-5.31-1.68c.29-1.2.57-2.41.82-3.62,4-19.54,1.39-35.27-7.6-40.45-8.61-5-22.7.21-36.93,12.59q-2.1,1.83-4.11,3.77c-.9-.85-1.81-1.7-2.74-2.52-14.91-13.24-29.86-18.82-38.84-13.63-8.6,5-11.15,19.78-7.53,38.29q.54,2.76,1.22,5.47-3.18.9-6.11,1.92c-17.49,6.1-28.65,15.65-28.65,25.56,0,10.24,12,20.5,30.2,26.73,1.47.5,3,1,4.46,1.39-.49,2-.92,3.92-1.3,5.9-3.45,18.19-.75,32.64,7.83,37.59,8.87,5.11,23.75-.14,38.24-12.81q1.71-1.5,3.45-3.18c1.45,1.4,2.93,2.76,4.46,4.08,14,12.07,27.9,17,36.47,12,8.86-5.13,11.74-20.65,8-39.53q-.42-2.16-1-4.41c1-.31,2.07-.63,3.07-1,18.94-6.27,31.25-16.41,31.25-26.79,0-9.94-11.52-19.56-29.36-25.7Z"/><path class="cls-2" d="M544.42,705.3c-.9.3-1.82.59-2.77.87a165.55,165.55,0,0,0-8.36-20.92,167.36,167.36,0,0,0,8-20.62q2.53.74,4.91,1.55c15.28,5.26,24.6,13,24.6,19,0,6.39-10.07,14.68-26.41,20.09Zm-6.78,13.44c1.65,8.35,1.89,15.9.8,21.8-1,5.3-3,8.84-5.41,10.25-5.21,3-16.34-.9-28.34-11.23-1.37-1.19-2.76-2.45-4.15-3.79a165.49,165.49,0,0,0,13.84-17.58,163.48,163.48,0,0,0,22.37-3.44c.33,1.36.63,2.69.89,4Zm-68.59,31.53c-5.09,1.8-9.14,1.85-11.58.44-5.21-3-7.38-14.61-4.42-30.16q.52-2.76,1.2-5.49a163.9,163.9,0,0,0,22.26,3.22,172.68,172.68,0,0,0,14.17,17.52q-1.53,1.49-3.14,2.9c-6.41,5.6-12.83,9.57-18.49,11.57Zm-23.82-45c-8.06-2.75-14.71-6.33-19.26-10.23-4.1-3.51-6.17-7-6.17-9.82,0-6,9-13.68,23.92-18.89,1.88-.66,3.77-1.25,5.68-1.79a169.52,169.52,0,0,0,8.05,20.85,173.61,173.61,0,0,0-8.15,21.16C447.94,706.15,446.58,705.72,445.23,705.26Zm8-54.35c-3.1-15.87-1-27.83,4.15-30.83,5.52-3.2,17.74,1.36,30.62,12.79.82.73,1.65,1.5,2.47,2.29a170.16,170.16,0,0,0-14.06,17.41,173.79,173.79,0,0,0-22,3.42c-.42-1.68-.8-3.38-1.14-5.08Zm71.24,17.59q-2.41-4.18-5-8.26c5.27.66,10.32,1.55,15.06,2.63-1.43,4.56-3.2,9.33-5.29,14.22q-2.3-4.35-4.75-8.59ZM495.4,640.2c3.25,3.53,6.51,7.46,9.72,11.73-6.5-.3-13-.3-19.52,0,3.21-4.23,6.49-8.16,9.8-11.73Zm-29.24,28.35q-2.43,4.22-4.66,8.54c-2.05-4.88-3.81-9.67-5.25-14.29,4.72-1.06,9.74-1.92,15-2.57C469.47,663,467.79,665.73,466.16,668.55Zm5.22,42.15a150.67,150.67,0,0,1-15.22-2.44c1.45-4.71,3.25-9.6,5.35-14.58q2.24,4.32,4.68,8.54T471.38,710.7Zm24.21,20c-3.34-3.61-6.67-7.6-9.93-11.89q4.74.2,9.66.19c3.37,0,6.69-.08,10-.22A149.41,149.41,0,0,1,495.59,730.72Zm33.68-37.3A147.75,147.75,0,0,1,534.81,708a151.58,151.58,0,0,1-15.4,2.63q2.61-4.16,5.07-8.41t4.79-8.75Zm-10.9,5.23q-3.75,6.52-7.93,12.78c-4.9.35-10,.53-15.12.53s-10.14-.16-14.95-.47q-4.28-6.24-8.07-12.8t-7.05-13.31q3.27-6.78,7-13.31h0q3.75-6.52,8-12.75c4.92-.37,10-.56,15-.56s10.16.19,15.07.57q4.2,6.21,8,12.7t7.12,13.25q-3.3,6.81-7.09,13.37Zm14.55-78.78c5.53,3.19,7.68,16,4.21,32.91-.23,1.1-.48,2.2-.75,3.29a168.94,168.94,0,0,0-22.08-3.49,164.28,164.28,0,0,0-14-17.42q1.86-1.8,3.8-3.49c12.19-10.61,23.59-14.8,28.78-11.8Z"/><path class="cls-3" d="M495.32,670.47a14.75,14.75,0,1,1-14.75,14.74,14.74,14.74,0,0,1,14.75-14.74"/><ellipse class="cls-1" cx="220.23" cy="812.97" rx="22.47" ry="15.3"/><path d="M241.2,813c-.51,9.93-12.7,13.8-21,13.8-7.9,0-21-3.88-21-13.8,0-9.61,12.43-13.6,20.17-13.78,8.45-.21,21.24,3.54,21.77,13.78.1,1.92,3.1,1.93,3,0-.61-11.71-13.84-16.8-24-16.8-9.65,0-24,5.09-24,16.8s14.33,16.82,24,16.8c10.12,0,23.36-5.07,24-16.8C244.3,811,241.3,811.05,241.2,813Z"/><ellipse class="cls-1" cx="283.09" cy="835.03" rx="22.47" ry="15.3"/><path d="M304.06,835c-.51,9.92-12.7,13.8-21,13.8-7.9,0-21-3.89-21-13.8,0-9.61,12.43-13.6,20.17-13.79,8.45-.2,21.24,3.54,21.77,13.79.1,1.92,3.1,1.93,3,0-.61-11.71-13.84-16.81-24-16.81-9.65,0-24,5.1-24,16.81s14.33,16.82,24,16.8c10.12,0,23.36-5.08,24-16.8C307.16,833.1,304.16,833.1,304.06,835Z"/><ellipse class="cls-1" cx="182.73" cy="831.72" rx="22.47" ry="15.3"/><path d="M203.7,831.72c-.51,9.92-12.69,13.8-21,13.8-7.9,0-21-3.89-21-13.8,0-9.61,12.43-13.6,20.17-13.78,8.46-.21,21.24,3.53,21.77,13.78.1,1.92,3.1,1.93,3,0-.6-11.71-13.84-16.8-24-16.8-9.64,0-24,5.09-24,16.8s14.33,16.82,24,16.8c10.13,0,23.37-5.08,24-16.8C206.8,829.79,203.8,829.79,203.7,831.72Z"/><ellipse class="cls-1" cx="227.95" cy="831.72" rx="22.47" ry="15.3"/><path d="M248.92,831.72c-.51,9.92-12.7,13.8-21,13.8-7.9,0-21-3.89-21-13.8,0-9.61,12.42-13.6,20.17-13.78,8.45-.21,21.24,3.53,21.77,13.78.1,1.92,3.1,1.93,3,0-.61-11.71-13.84-16.8-24-16.8-9.65,0-24,5.09-24,16.8s14.33,16.82,24,16.8c10.12,0,23.36-5.08,24-16.8C252,829.79,249,829.79,248.92,831.72Z"/><ellipse class="cls-1" cx="311.21" cy="862.6" rx="22.47" ry="15.3"/><path d="M332.18,862.6c-.51,9.92-12.7,13.8-21,13.8-7.9,0-21-3.89-21-13.8,0-9.61,12.43-13.6,20.17-13.79,8.46-.2,21.24,3.54,21.77,13.79.1,1.92,3.1,1.93,3,0-.61-11.71-13.84-16.81-24-16.81-9.64,0-24,5.1-24,16.81s14.33,16.82,24,16.8c10.12,0,23.36-5.08,24-16.8C335.28,860.67,332.28,860.67,332.18,862.6Z"/><ellipse class="cls-1" cx="260.48" cy="843.85" rx="22.47" ry="15.3"/><path d="M281.45,843.85c-.51,9.92-12.69,13.8-21,13.8-7.9,0-21-3.88-21-13.8,0-9.61,12.43-13.6,20.17-13.78,8.46-.21,21.24,3.53,21.77,13.78.1,1.92,3.1,1.93,3,0-.6-11.71-13.84-16.8-24-16.8-9.64,0-24,5.09-24,16.8s14.33,16.82,24,16.8c10.13,0,23.36-5.07,24-16.8C284.55,841.92,281.55,841.92,281.45,843.85Z"/><ellipse class="cls-1" cx="172.26" cy="862.6" rx="22.47" ry="15.3"/><path d="M193.23,862.6c-.52,9.92-12.7,13.8-21,13.8-7.9,0-21-3.89-21-13.8,0-9.61,12.42-13.6,20.16-13.79,8.46-.2,21.25,3.54,21.78,13.79.1,1.92,3.1,1.93,3,0-.61-11.71-13.85-16.81-24-16.81-9.65,0-24,5.1-24,16.81s14.33,16.82,24,16.8c10.12,0,23.36-5.08,24-16.8C196.33,860.67,193.33,860.67,193.23,862.6Z"/><ellipse class="cls-1" cx="215.82" cy="862.6" rx="22.47" ry="15.3"/><path d="M236.79,862.6c-.52,9.92-12.7,13.8-21,13.8-7.9,0-21-3.89-21-13.8,0-9.61,12.42-13.6,20.16-13.79,8.46-.2,21.25,3.54,21.78,13.79.1,1.92,3.1,1.93,3,0-.61-11.71-13.84-16.81-24-16.81-9.65,0-24,5.1-24,16.81s14.33,16.82,24,16.8c10.12,0,23.36-5.08,24-16.8C239.89,860.67,236.89,860.67,236.79,862.6Z"/><ellipse class="cls-1" cx="149.65" cy="837.23" rx="22.47" ry="15.3"/><path d="M170.62,837.23c-.51,9.93-12.7,13.8-21,13.8-7.9,0-21-3.88-21-13.8,0-9.61,12.43-13.59,20.17-13.78,8.46-.2,21.24,3.54,21.77,13.78.1,1.92,3.1,1.93,3,0-.61-11.71-13.84-16.8-24-16.8-9.65,0-24,5.1-24,16.8s14.33,16.82,24,16.8c10.12,0,23.36-5.07,24-16.8C173.72,835.3,170.72,835.31,170.62,837.23Z"/><ellipse class="cls-1" cx="267.1" cy="863.7" rx="22.47" ry="15.3"/><path d="M288.07,863.7c-.52,9.92-12.7,13.8-21,13.8-7.9,0-21-3.88-21-13.8,0-9.61,12.42-13.6,20.17-13.78,8.45-.21,21.24,3.54,21.77,13.78.1,1.92,3.1,1.93,3,0-.61-11.71-13.84-16.8-24-16.8-9.65,0-24,5.09-24,16.8s14.33,16.82,24,16.8c10.12,0,23.36-5.07,24-16.8C291.17,861.77,288.17,861.77,288.07,863.7Z"/></svg>