<svg id="Layer_1" data-name="Layer 1" xmlns="http://www.w3.org/2000/svg" viewBox="0 0 1280 1024"><defs><style>.cls-1{fill:#fff;}.cls-2{fill:#e870a6;}</style></defs><path class="cls-1" d="M447.48,844a3,3,0,0,1-2.86-2.1l-27.45-86.46h-10.8a3,3,0,0,1-3-3V719.1a3,3,0,0,1,3-3h151.1a3,3,0,0,1,3,3v33.38a3,3,0,0,1-3,3H546.66l-27.44,86.46a3,3,0,0,1-2.86,2.1Z"/><path d="M557.47,719.1v33.38h-13L516.36,841H447.48l-28.11-88.56h-13V719.1h151.1m0-6H406.37a6,6,0,0,0-6,6v33.38a6,6,0,0,0,6,6H415l26.78,84.37a6,6,0,0,0,5.72,4.19h68.88a6,6,0,0,0,5.72-4.19l26.78-84.37h8.61a6,6,0,0,0,6-6V719.1a6,6,0,0,0-6-6Z"/><path class="cls-2" d="M494.32,702.07a76.76,76.76,0,0,1-9.69-.62,3,3,0,0,1-2.6-2.59c-2.8-21.66,3.9-42.58,18.36-57.39a67.76,67.76,0,0,1,47.75-19,76.85,76.85,0,0,1,9.68.62,3,3,0,0,1,2.59,2.59c2.84,22-3.86,42.89-18.38,57.41C529.78,695.32,512.83,702.07,494.32,702.07Z"/><path d="M548.14,625.45a72.56,72.56,0,0,1,9.29.6c2.58,19.94-3.1,40.48-17.52,54.9-12.18,12.18-28.73,18.12-45.59,18.12a72.76,72.76,0,0,1-9.31-.6c-2.6-20.08,3.22-40.26,17.53-54.9,12.38-12.1,28.71-18.12,45.6-18.12m0-6h0c-19,0-36.7,7-49.79,19.83l-.1.1c-15.11,15.47-22.11,37.28-19.19,59.86a6,6,0,0,0,5.18,5.18,79.22,79.22,0,0,0,10.08.65c19.32,0,37-7.06,49.83-19.88,15.19-15.18,22.19-37,19.23-59.91a6,6,0,0,0-5.18-5.18,79,79,0,0,0-10.06-.65Z"/><path class="cls-1" d="M468.63,641.88a68.59,68.59,0,0,1-48.32-19.22c-14.69-15-21.47-36.22-18.63-58.14a3,3,0,0,1,2.6-2.59,77,77,0,0,1,9.82-.64c18.74,0,35.89,6.84,48.3,19.24,14.69,14.7,21.47,35.88,18.6,58.12a3,3,0,0,1-2.59,2.59A76.6,76.6,0,0,1,468.63,641.88Z"/><path class="cls-2" d="M414.1,564.29c17.08,0,33.84,6,46.17,18.36,14.61,14.61,20.36,35.42,17.75,55.62a74.12,74.12,0,0,1-9.39.6c-17.12,0-33.67-6.1-46.22-18.36-14.49-14.83-20.39-35.26-17.75-55.61a74.8,74.8,0,0,1,9.44-.61m0-6h0a81.4,81.4,0,0,0-10.21.66,6,6,0,0,0-5.18,5.18c-3,22.84,4.12,44.92,19.41,60.57l.1.1c13.25,13,31.15,20.07,50.41,20.07a80.59,80.59,0,0,0,10.16-.65A6,6,0,0,0,484,639c3-23.17-4.1-45.26-19.45-60.62-13-13-30.88-20.12-50.42-20.12Z"/><path d="M481.23,722.1a3,3,0,0,1-3-3V464.57a3,3,0,1,1,6,0V719.1A3,3,0,0,1,481.23,722.1Z"/><path class="cls-2" d="M544.34,526.78c13.25.16,25.14,6.72,33.14,17.11C569.54,554.2,557.54,561,544.34,561s-25.2-6.81-33.15-17.11c8-10.38,19.9-16.95,33.15-17.11m0-5h-.06c-14.34.17-27.84,7.11-37,19.05a5,5,0,0,0,0,6.11c9.34,12.11,22.86,19.06,37.11,19.06s27.77-7,37.1-19.06a5,5,0,0,0,0-6.1c-9.2-11.94-22.7-18.89-37-19.06Z"/><path d="M483.64,570.08a3,3,0,0,1-2.12-5.12l68.9-68.9a3,3,0,0,1,4.24,4.24l-68.9,68.9A3,3,0,0,1,483.64,570.08Z"/><path class="cls-1" d="M488.12,466a38.32,38.32,0,0,1-5-.33A2.48,2.48,0,0,1,481,463.5a35.61,35.61,0,0,1,9.52-29.73,35.12,35.12,0,0,1,24.77-9.89,40.09,40.09,0,0,1,5,.32,2.51,2.51,0,0,1,2.16,2.16c1.47,11.38-2,22.22-9.54,29.75A34.57,34.57,0,0,1,488.12,466Z"/><path d="M515.24,426.38a36.88,36.88,0,0,1,4.68.3c1.3,10.05-1.56,20.4-8.83,27.67a32.25,32.25,0,0,1-23,9.13,35.18,35.18,0,0,1-4.69-.31,33.09,33.09,0,0,1,8.83-27.66,32.58,32.58,0,0,1,23-9.13m0-5h0a37.53,37.53,0,0,0-26.47,10.56l-.09.08a38.1,38.1,0,0,0-10.21,31.8,5,5,0,0,0,4.32,4.31,41.36,41.36,0,0,0,5.33.35,37.12,37.12,0,0,0,26.51-10.6c8.08-8.08,11.82-19.69,10.25-31.84a5,5,0,0,0-4.32-4.31,41.45,41.45,0,0,0-5.32-.35Z"/><path class="cls-2" d="M444.75,505a2.48,2.48,0,0,1-1.53-.52,28.1,28.1,0,0,1,0-45.68,2.51,2.51,0,0,1,3.06,0c7.46,5.76,11.73,14.08,11.73,22.84s-4.27,17.09-11.73,22.84A2.48,2.48,0,0,1,444.75,505Z"/><path d="M444.75,460.81a26.6,26.6,0,0,1,10.77,20.86c0,8.31-4.29,15.86-10.77,20.86a25.6,25.6,0,0,1,0-41.72m0-5a5,5,0,0,0-3.05,1A31.74,31.74,0,0,0,429,481.61v.12a31.74,31.74,0,0,0,12.71,24.76,5,5,0,0,0,6.1,0c8.08-6.23,12.72-15.28,12.72-24.82s-4.64-18.59-12.72-24.82a5,5,0,0,0-3.05-1Z"/><path d="M478.63,543.1a3,3,0,0,1-2.12-.88l-68.9-68.9a3,3,0,0,1,4.24-4.24l68.9,68.9a3,3,0,0,1,0,4.24A3,3,0,0,1,478.63,543.1Z"/><path d="M481.44,637.44a3,3,0,0,1-1.5-5.6L720.55,492.92a3,3,0,0,1,3,5.2L482.94,637A3,3,0,0,1,481.44,637.44Z"/><path d="M482.61,637.44a3,3,0,0,1-1.5-.4L240.49,498.12a3,3,0,0,1,3-5.2L484.11,631.84a3,3,0,0,1-1.5,5.6Z"/><path d="M481.44,915.28a3,3,0,0,1-3-3V634.44a3,3,0,0,1,6,0V912.28A3,3,0,0,1,481.44,915.28Z"/><path d="M481.44,915.28a3,3,0,0,1-1.5-.4L239.32,776a3,3,0,0,1-1.5-2.6V495.52a3,3,0,0,1,1.5-2.6L479.94,354a3,3,0,0,1,3,0L723.55,492.92a3,3,0,0,1,1.5,2.6V773.36a3,3,0,0,1-1.5,2.6L482.94,914.88A3,3,0,0,1,481.44,915.28ZM243.82,771.63,481.44,908.82,719.05,771.63V497.25L481.44,360.06,243.82,497.25Zm478.23,1.73h0Z"/><path d="M997.45,700.86a3,3,0,0,1-.66-5.93l157-35.57a3,3,0,0,1,1.32,5.85l-157,35.57A3,3,0,0,1,997.45,700.86Z"/><path d="M998.1,701.06a3,3,0,0,1-2.2-1L886.58,581.89a3,3,0,0,1,4.41-4.07L1000.3,696a3,3,0,0,1-2.2,5Z"/><path d="M949.74,854.63a3.09,3.09,0,0,1-.89-.13,3,3,0,0,1-2-3.76L994.59,697a3,3,0,1,1,5.73,1.78L952.61,852.52A3,3,0,0,1,949.74,854.63Z"/><path d="M949.74,854.63a3,3,0,0,1-2.2-1L838.22,735.46a3,3,0,0,1-.66-2.92l47.71-153.78a3,3,0,0,1,2.2-2l157-35.57a3,3,0,0,1,2.86.88l109.32,118.21a3,3,0,0,1,.66,2.93L1109.63,817a3,3,0,0,1-2.2,2l-157,35.57A3,3,0,0,1,949.74,854.63Zm-105.94-122,107,115.66,153.65-34.8,46.68-150.47-107-115.66-153.65,34.8Zm263,83.4h0Z"/><path d="M611.9,196.18a3,3,0,0,1-1.93-5.29L689.25,124a3,3,0,1,1,3.87,4.59l-79.29,66.92A3,3,0,0,1,611.9,196.18Z"/><path d="M612.33,196.11a3,3,0,0,1-1-.18l-97.6-35.2a3,3,0,1,1,2-5.65l97.6,35.2a3,3,0,0,1-1,5.83Z"/><path d="M630.21,298.31a3,3,0,0,1-3-2.47L609,193.71a3,3,0,1,1,5.9-1.05l18.31,102.12a3,3,0,0,1-2.42,3.48A3.27,3.27,0,0,1,630.21,298.31Z"/><path d="M630.21,298.31a3,3,0,0,1-1-.18l-97.59-35.2a3,3,0,0,1-1.94-2.3L511.35,158.51a3,3,0,0,1,1-2.82l79.28-66.92a3,3,0,0,1,3-.53l97.59,35.2a3,3,0,0,1,1.94,2.3l18.31,102.12a3,3,0,0,1-1,2.82L632.15,297.6A3,3,0,0,1,630.21,298.31Zm-95-40.44,94.34,34,76.64-64.69-17.7-98.71-94.34-34-76.64,64.69Z"/><path d="M275.87,295.64a2.5,2.5,0,0,1-.39-5L328.82,282a2.5,2.5,0,1,1,.8,4.93l-53.34,8.67A2.83,2.83,0,0,1,275.87,295.64Z"/><path d="M276.09,295.72a2.5,2.5,0,0,1-1.94-.92L240,252.94a2.5,2.5,0,0,1,3.87-3.17L278,291.64a2.51,2.51,0,0,1-.36,3.52A2.46,2.46,0,0,1,276.09,295.72Z"/><path d="M256.71,346.17a2.31,2.31,0,0,1-.89-.17,2.49,2.49,0,0,1-1.45-3.22l19.17-50.53a2.5,2.5,0,1,1,4.67,1.78L259,344.55A2.49,2.49,0,0,1,256.71,346.17Z"/><path d="M256.71,346.17a2.49,2.49,0,0,1-1.94-.92L220.6,303.38a2.48,2.48,0,0,1-.4-2.47l19.17-50.52a2.47,2.47,0,0,1,1.93-1.58l53.35-8.67A2.5,2.5,0,0,1,297,241l34.18,41.87a2.49,2.49,0,0,1,.4,2.46l-19.17,50.53a2.5,2.5,0,0,1-1.94,1.58l-53.34,8.67Zm-31.33-44.83L257.73,341l50.5-8.2,18.14-47.83L294,245.31l-50.49,8.2ZM310.05,335h0Z"/><path d="M875.84,316.55,839.53,326l-5.38,9.22-10.9-.08L796.67,361l26.58,25.85,10.9-.08,5.38,9.21,36.31,9.47,9.73-35.31L880,361l5.53-9.14ZM835,336.71l27.77-6.94-15.94,26.86H815Zm0,48.57L815,365.36h31.9l15.94,26.86Zm35.55,2.58-16-26.86,16-26.87,7.7,26.87Z"/><path d="M958.21,342.74a11.56,11.56,0,0,0-10.54,5.82h-.21v-4.85H939v35.56h8.7V359.1c0-4.86,3.05-8.18,7.21-8.18,4,0,6.9,2.34,6.9,6.51v21.84h8.7V356.05C970.48,348.28,965.55,342.74,958.21,342.74Z"/><path d="M925.74,364.21c0,4.71-2.71,8-7.14,8-4,0-6.55-2.29-6.55-6.45V343.69h-8.7V367.4c0,7.76,4.43,12.82,12.33,12.82a11.39,11.39,0,0,0,10.19-5.13h.21v4.16h8.37V343.69h-8.71Z"/><rect x="975.04" y="343.71" width="8.7" height="35.56"/><rect x="975.04" y="332.62" width="8.7" height="7.15"/><path d="M1032.91,343.71l-5.17,16c-1.11,3.26-2.08,7.76-2.08,7.76h-.22s-1.18-4.5-2.29-7.76l-5.83-16H1008l9.56,25.3c2,5.41,2.7,7.69,2.7,9.63,0,2.92-1.52,4.86-5.26,4.86h-3.33v7.41h5.54c7.21,0,9.72-2.84,12.42-10.74l12.54-36.46Z"/><path d="M1000,368.8V350h5.54v-6.24H1000V332.62h-8.64v11.09h-4.92V350h4.92v20.86c0,6.73,5.06,8.53,9.63,8.53a44.71,44.71,0,0,0,4.76-.14v-6.88s-1,0-2.22,0C1001.4,372.34,1000,371.43,1000,368.8Z"/></svg>