<svg id="Layer_1" data-name="Layer 1" xmlns="http://www.w3.org/2000/svg" viewBox="0 0 36 36"><defs><style>.cls-1{fill:#191717;fill-rule:evenodd;}</style></defs><title>Artboard 3</title><path class="cls-1" d="M18,1.05a17.38,17.38,0,0,0-5.49,33.87c.86.16,1.18-.37,1.18-.83s0-1.51,0-3C8.83,32.18,7.81,28.8,7.81,28.8a4.58,4.58,0,0,0-1.93-2.54C4.3,25.18,6,25.2,6,25.2A3.62,3.62,0,0,1,8.66,27a3.71,3.71,0,0,0,5.06,1.45,3.72,3.72,0,0,1,1.11-2.33c-3.86-.44-7.92-1.93-7.92-8.59A6.7,6.7,0,0,1,8.7,12.86a6.22,6.22,0,0,1,.17-4.6s1.46-.47,4.78,1.78a16.33,16.33,0,0,1,8.7,0c3.32-2.25,4.78-1.78,4.78-1.78a6.22,6.22,0,0,1,.17,4.6,6.66,6.66,0,0,1,1.79,4.66c0,6.68-4.07,8.15-7.94,8.58a4.14,4.14,0,0,1,1.18,3.22c0,2.32,0,4.2,0,4.77s.31,1,1.2.83A17.38,17.38,0,0,0,18,1.05Z"/></svg>