<svg id="Layer_1" data-name="Layer 1" xmlns="http://www.w3.org/2000/svg" viewBox="0 0 192 192"><defs><style>.cls-1{fill:#282828;}.cls-2{fill:#fff;}</style></defs><title>logo_youtube_192px_clr</title><path class="cls-1" d="M180.32,53.36A22.12,22.12,0,0,0,164.76,37.7C151,34,96,34,96,34s-55,0-68.76,3.7A22.12,22.12,0,0,0,11.68,53.36C8,67.18,8,96,8,96s0,28.82,3.68,42.64A22.12,22.12,0,0,0,27.24,154.3C41,158,96,158,96,158s55,0,68.76-3.7a22.12,22.12,0,0,0,15.56-15.66C184,124.82,184,96,184,96S184,67.18,180.32,53.36Z"/><polygon class="cls-2" points="78 122.17 124 96 78 69.83 78 122.17"/></svg>