<?xml version="1.0" encoding="utf-8"?>
<!-- Generator: Adobe Illustrator 23.0.1, SVG Export Plug-In . SVG Version: 6.00 Build 0)  -->
<svg version="1.1" id="Layer_1" xmlns="http://www.w3.org/2000/svg" xmlns:xlink="http://www.w3.org/1999/xlink" x="0px" y="0px"
	 viewBox="0 0 58 58" style="enable-background:new 0 0 58 58;" xml:space="preserve">
<style type="text/css">
	.st0{fill:#282828;}
	.st1{fill:#FFFFFF;}
</style>
<title>flogo-RGB-HEX-Blk-58</title>
<path class="st0" d="M54.8,0H3.2C1.4,0,0,1.4,0,3.2v51.6C0,56.6,1.4,58,3.2,58l0,0H31V35.6h-7.5v-8.8H31v-6.5
	c0-7.5,4.6-11.6,11.3-11.6c2.3,0,4.5,0.1,6.7,0.3v7.8h-4.6c-3.6,0-4.3,1.7-4.3,4.3v5.6h8.7l-1.1,8.8H40V58h14.8
	c1.8,0,3.2-1.4,3.2-3.2l0,0V3.2C58,1.4,56.6,0,54.8,0L54.8,0z"/>
<path id="f" class="st1" d="M40,58V35.6h7.6l1.1-8.8H40v-5.6c0-2.5,0.7-4.3,4.3-4.3H49V9.1c-2.2-0.2-4.5-0.3-6.8-0.3
	c-6.6,0-11.2,4-11.2,11.5v6.5h-7.5v8.8H31V58H40z"/>
</svg>
