<?xml version="1.0" encoding="UTF-8" standalone="no"?>
<svg
   xmlns:dc="http://purl.org/dc/elements/1.1/"
   xmlns:cc="http://creativecommons.org/ns#"
   xmlns:rdf="http://www.w3.org/1999/02/22-rdf-syntax-ns#"
   xmlns:svg="http://www.w3.org/2000/svg"
   xmlns="http://www.w3.org/2000/svg"
   xmlns:sodipodi="http://sodipodi.sourceforge.net/DTD/sodipodi-0.dtd"
   xmlns:inkscape="http://www.inkscape.org/namespaces/inkscape"
   width="24cm"
   height="16cm"
   viewBox="60 -15 464 312"
   version="1.1"
   id="svg96"
   sodipodi:docname="24.svg"
   inkscape:version="0.92.2 5c3e80d, 2017-08-06">
  <metadata
     id="metadata102">
    <rdf:RDF>
      <cc:Work
         rdf:about="">
        <dc:format>image/svg+xml</dc:format>
        <dc:type
           rdf:resource="http://purl.org/dc/dcmitype/StillImage" />
      </cc:Work>
    </rdf:RDF>
  </metadata>
  <defs
     id="defs100" />
  <sodipodi:namedview
     pagecolor="#ffffff"
     bordercolor="#666666"
     borderopacity="1"
     objecttolerance="10"
     gridtolerance="10"
     guidetolerance="10"
     inkscape:pageopacity="0"
     inkscape:pageshadow="2"
     inkscape:window-width="738"
     inkscape:window-height="549"
     id="namedview98"
     showgrid="false"
     inkscape:zoom="0.3571875"
     inkscape:cx="453.54331"
     inkscape:cy="302.3622"
     inkscape:window-x="0"
     inkscape:window-y="0"
     inkscape:window-maximized="0"
     inkscape:current-layer="g36" />
  <g
     id="g6">
    <rect
       style="fill: #ffffff"
       x="61"
       y="65"
       width="178"
       height="167"
       id="rect2" />
    <rect
       style="fill: none; fill-opacity:0; stroke-width: 2; stroke: #000000"
       x="61"
       y="65"
       width="178"
       height="167"
       id="rect4" />
  </g>
  <text
     font-size="22.5778"
     style="fill: #000000;text-anchor:start;font-family:sans-serif;font-style:normal;font-weight:700"
     x="70"
     y="96"
     id="text10">
    <tspan
       x="70"
       y="96"
       id="tspan8">NOTELIST</tspan>
  </text>
  <text
     font-size="14.6753"
     style="fill: #000000;text-anchor:start;font-family:sans-serif;font-style:normal;font-weight:normal"
     x="155.5"
     y="135"
     id="text14">
    <tspan
       x="155.5"
       y="135"
       id="tspan12">PROPS:</tspan>
  </text>
  <text
     font-size="12.7998"
     style="fill: #000000;text-anchor:start;font-family:sans-serif;font-style:normal;font-weight:normal"
     x="159"
     y="157"
     id="text18">
    <tspan
       x="159"
       y="157"
       id="tspan16">NOTES</tspan>
  </text>
  <text
     font-size="12.7998"
     style="fill: #000000;text-anchor:start;font-family:sans-serif;font-style:normal;font-weight:normal"
     x="159"
     y="181"
     id="text22">
    <tspan
       x="159"
       y="181"
       id="tspan20">FILTER</tspan>
  </text>
  <line
     style="fill: none; fill-opacity:0; stroke-width: 2; stroke: #000000"
     x1="69"
     y1="102"
     x2="216"
     y2="102"
     id="line24" />
  <g
     id="g36"
     transform="matrix(1.3872903,0,0,0.99866381,-138.47289,0.21846774)">
    <path
       style="fill:#ffffff"
       d="m 358,75.1667 c 30.4,-33.125 45.6,-42.720323 76,-42.720323 30.4,0 45.6,9.595323 76,42.720323 V 251.833 C 479.6,284.958 464.4,296 434,296 c -30.4,0 -45.6,-11.042 -76,-44.167 z"
       id="path26"
       inkscape:connector-curvature="0"
       sodipodi:nodetypes="csccscc" />
    <path
       style="fill:none;fill-opacity:0;stroke:#000000;stroke-width:2"
       d="m 358,75.1667 c 30.4,-33.125 45.6,-32.595684 76,-32.595684 30.4,0 45.6,-0.529316 76,32.595684 V 251.833 C 479.6,284.958 464.4,296 434,296 403.6,296 388.4,284.958 358,251.833 V 75.1667"
       id="path28"
       inkscape:connector-curvature="0"
       sodipodi:nodetypes="csccscc" />
    <path
       style="fill:none;fill-opacity:0;stroke:#000000;stroke-width:1.60953629"
       d="M 357.86996,75.074249 C 388.32198,96.491261 403.54798,103.62977 434,103.62977 c 30.45202,0 45.67802,-7.138509 76.13004,-28.555521"
       id="path30"
       inkscape:connector-curvature="0" />
    <text
       font-size="12.7998"
       style="font-style:normal;font-weight:normal;font-size:12.79979992px;font-family:sans-serif;text-anchor:middle;fill:#000000"
       x="434"
       y="189.58299"
       id="text34">
      <tspan
         x="434"
         y="189.58299"
         id="tspan32" />
    </text>
  </g>
  <text
     font-size="22.5778"
     style="fill: #000000;text-anchor:start;font-family:sans-serif;font-style:normal;font-weight:700"
     x="345"
     y="6"
     id="text40">
    <tspan
       x="345"
       y="6"
       id="tspan38">REDUX STORE</tspan>
  </text>
  <text
     font-size="12.7998"
     style="fill: #000000;text-anchor:start;font-family:sans-serif;font-style:normal;font-weight:normal"
     x="393"
     y="138"
     id="text44">
    <tspan
       x="393"
       y="138"
       id="tspan42">NOTES</tspan>
  </text>
  <g
     id="g50"
     transform="matrix(1.5069326,0,0,0.97504056,-206.90783,3.9061528)">
    <rect
       style="fill:#ffffff"
       x="408.57501"
       y="148"
       width="59"
       height="17"
       id="rect46" />
    <rect
       style="fill:none;fill-opacity:0;stroke:#000000;stroke-width:2"
       x="408.57501"
       y="148"
       width="59"
       height="17"
       id="rect48" />
  </g>
  <g
     id="g56"
     transform="matrix(1.5069326,0,0,0.97504056,-206.90783,4.3803822)">
    <rect
       style="fill:#ffffff"
       x="408.57501"
       y="167"
       width="59"
       height="17"
       id="rect52" />
    <rect
       style="fill:none;fill-opacity:0;stroke:#000000;stroke-width:2"
       x="408.57501"
       y="167"
       width="59"
       height="17"
       id="rect54" />
  </g>
  <g
     id="g62"
     transform="matrix(1.5069326,0,0,0.97504056,-206.90783,4.8546116)">
    <rect
       style="fill:#ffffff"
       x="408.57501"
       y="186"
       width="59"
       height="17"
       id="rect58" />
    <rect
       style="fill:none;fill-opacity:0;stroke:#000000;stroke-width:2"
       x="408.57501"
       y="186"
       width="59"
       height="17"
       id="rect60" />
  </g>
  <g
     id="g68"
     transform="matrix(1.5069326,0,0,0.97504056,-206.90783,5.328841)">
    <rect
       style="fill:#ffffff"
       x="408.57501"
       y="205"
       width="59"
       height="17"
       id="rect64" />
    <rect
       style="fill:none;fill-opacity:0;stroke:#000000;stroke-width:2"
       x="408.57501"
       y="205"
       width="59"
       height="17"
       id="rect66" />
  </g>
  <g
     id="g74"
     transform="matrix(1.5311089,0,0,0.9739794,-216.77666,6.8616313)">
    <rect
       style="fill:#ffffff"
       x="408.57501"
       y="255.2"
       width="59"
       height="17"
       id="rect70" />
    <rect
       style="fill:none;fill-opacity:0;stroke:#000000;stroke-width:2"
       x="408.57501"
       y="255.2"
       width="59"
       height="17"
       id="rect72" />
  </g>
  <text
     font-size="12.7998"
     style="fill: #000000;text-anchor:start;font-family:sans-serif;font-style:normal;font-weight:normal"
     x="393"
     y="248"
     id="text78">
    <tspan
       x="393"
       y="248"
       id="tspan76">FILTER</tspan>
  </text>
  <g
     id="g86">
    <path
       style="fill: none; fill-opacity:0; stroke-width: 2; stroke: #000000"
       d="M 374.675,145.219 A 269.109,269.109 0 0 0 212,151"
       id="path80" />
    <polygon
       style="fill: #000000"
       points="381.869,147.322 370.824,149.057 374.722,145.049 373.855,139.527 "
       id="polygon82" />
    <polygon
       style="fill: none; fill-opacity:0; stroke-width: 2; stroke: #000000"
       points="381.869,147.322 370.824,149.057 374.722,145.049 373.855,139.527 "
       id="polygon84" />
  </g>
  <g
     id="g94">
    <path
       style="fill: none; fill-opacity:0; stroke-width: 2; stroke: #000000"
       d="M 212,177 A 242.412,242.412 0 0 0 377.279,257.567"
       id="path88" />
    <polygon
       style="fill: #000000"
       points="384.765,257.945 374.645,262.7 377.267,257.762 374.89,252.703 "
       id="polygon90" />
    <polygon
       style="fill: none; fill-opacity:0; stroke-width: 2; stroke: #000000"
       points="384.765,257.945 374.645,262.7 377.267,257.762 374.89,252.703 "
       id="polygon92" />
  </g>
</svg>
