<?xml version="1.0" encoding="UTF-8" standalone="no"?>
<svg
   xmlns:dc="http://purl.org/dc/elements/1.1/"
   xmlns:cc="http://creativecommons.org/ns#"
   xmlns:rdf="http://www.w3.org/1999/02/22-rdf-syntax-ns#"
   xmlns:svg="http://www.w3.org/2000/svg"
   xmlns="http://www.w3.org/2000/svg"
   xmlns:sodipodi="http://sodipodi.sourceforge.net/DTD/sodipodi-0.dtd"
   xmlns:inkscape="http://www.inkscape.org/namespaces/inkscape"
   width="32.114948cm"
   height="29.889063cm"
   viewBox="60 -150 622.53592 593.79605"
   version="1.1"
   id="svg142"
   sodipodi:docname="25a.svg"
   inkscape:version="0.92.2 5c3e80d, 2017-08-06">
  <metadata
     id="metadata148">
    <rdf:RDF>
      <cc:Work
         rdf:about="">
        <dc:format>image/svg+xml</dc:format>
        <dc:type
           rdf:resource="http://purl.org/dc/dcmitype/StillImage" />
        <dc:title></dc:title>
      </cc:Work>
    </rdf:RDF>
  </metadata>
  <defs
     id="defs146" />
  <sodipodi:namedview
     pagecolor="#ffffff"
     bordercolor="#666666"
     borderopacity="1"
     objecttolerance="10"
     gridtolerance="10"
     guidetolerance="10"
     inkscape:pageopacity="0"
     inkscape:pageshadow="2"
     inkscape:window-width="1220"
     inkscape:window-height="699"
     id="namedview144"
     showgrid="false"
     inkscape:zoom="0.83255555"
     inkscape:cx="613.91345"
     inkscape:cy="87.552998"
     inkscape:window-x="0"
     inkscape:window-y="0"
     inkscape:window-maximized="0"
     inkscape:current-layer="g12" />
  <g
     id="g12"
     transform="matrix(1.5482771,0,0,0.99453363,-181.29927,-2.7020244)">
    <path
       style="fill:#ffffff"
       d="m 319.753,-13.5566 c 48.649,-68.7661 72.973,-91.6884 121.622,-91.6884 48.649,0 72.974,22.9223 121.623,91.6884 V 353.196 c -48.649,68.766 -72.974,91.688 -121.623,91.688 -48.649,0 -72.973,-22.922 -121.622,-91.688 z"
       id="path2"
       inkscape:connector-curvature="0" />
    <path
       style="fill:none;fill-opacity:0;stroke:#000000;stroke-width:2.00563955"
       d="m 319.63674,-13.080253 c 48.649,-69.154457 73.78856,-73.79625 122.43756,-73.79625 48.649,0 72.15844,4.641793 120.80744,73.79625 V 355.74359 c -48.649,69.15435 -72.974,71.25655 -121.623,71.25655 -48.649,0 -72.973,-2.1022 -121.622,-71.25655 V -13.080253"
       id="path4"
       inkscape:connector-curvature="0"
       sodipodi:nodetypes="csccscc" />
    <path
       style="fill:none;fill-opacity:0;stroke:#000000;stroke-width:1.63795614"
       d="m 319.63674,-13.598064 c 48.69551,46.079171 73.04276,61.43885 121.73826,61.43885 48.6955,0 73.04375,-15.359679 121.73926,-61.43885"
       id="path6"
       inkscape:connector-curvature="0" />
    <text
       font-size="12.7998"
       style="font-style:normal;font-weight:normal;font-size:12.79979992px;font-family:sans-serif;text-anchor:middle;fill:#000000"
       x="441.375"
       y="219.664"
       id="text10">
      <tspan
         x="441.375"
         y="219.664"
         id="tspan8" />
    </text>
  </g>
  <g
     id="g18"
     transform="matrix(2.102966,0,0,0.99292855,-421.63204,-3.6421595)">
    <rect
       style="fill:#ffffff"
       x="377.02899"
       y="113.958"
       width="115.966"
       height="125.865"
       id="rect14" />
    <rect
       style="fill:none;fill-opacity:0;stroke:#000000;stroke-width:2"
       x="377.02899"
       y="113.958"
       width="115.966"
       height="125.865"
       id="rect16" />
  </g>
  <g
     id="g24"
     transform="matrix(1.0776075,0,0,0.99954678,-10.92312,-4.8257299)">
    <rect
       style="fill:#ffffff"
       x="61"
       y="65"
       width="178"
       height="167"
       id="rect20" />
    <rect
       style="fill:none;fill-opacity:0;stroke:#000000;stroke-width:2"
       x="61"
       y="65"
       width="178"
       height="167"
       id="rect22" />
  </g>
  <text
     font-size="22.5778"
     style="font-style:normal;font-weight:700;font-size:22.57780075px;font-family:sans-serif;text-anchor:start;fill:#000000"
     x="63.773098"
     y="91.106964"
     id="text28">
    <tspan
       x="63.773098"
       y="91.106964"
       id="tspan26">NOTELIST</tspan>
  </text>
  <text
     font-size="14.6753"
     style="font-style:normal;font-weight:normal;font-size:14.67529964px;font-family:sans-serif;text-anchor:start;fill:#000000"
     x="70.077095"
     y="127.98596"
     id="text32">
    <tspan
       x="70.077095"
       y="127.98596"
       id="tspan30">PROPS:</tspan>
  </text>
  <text
     font-size="12.7998"
     style="font-style:normal;font-weight:normal;font-size:12.79979992px;font-family:sans-serif;text-anchor:start;fill:#000000"
     x="73.577095"
     y="149.98596"
     id="text36">
    <tspan
       x="73.577095"
       y="149.98596"
       id="tspan34">NOTES</tspan>
  </text>
  <text
     font-size="12.7998"
     style="font-style:normal;font-weight:normal;font-size:12.79979992px;font-family:sans-serif;text-anchor:start;fill:#000000"
     x="73.577095"
     y="173.98596"
     id="text40">
    <tspan
       x="73.577095"
       y="173.98596"
       id="tspan38">FILTER</tspan>
  </text>
  <line
     style="fill:none;fill-opacity:0;stroke:#000000;stroke-width:2"
     x1="62.773098"
     y1="97.106964"
     x2="209.7731"
     y2="97.106964"
     id="line42" />
  <text
     font-size="22.5778"
     style="font-style:normal;font-weight:700;font-size:22.57780075px;font-family:sans-serif;text-anchor:start;fill:#000000"
     x="337.3591"
     y="-133.24304"
     id="text46">
    <tspan
       x="337.3591"
       y="-133.24304"
       id="tspan44">REDUX STORE</tspan>
  </text>
  <text
     font-size="12.7998"
     style="font-style:normal;font-weight:normal;font-size:12.79979992px;font-family:sans-serif;text-anchor:start;fill:#000000"
     x="386.7731"
     y="133.10696"
     id="text50">
    <tspan
       x="386.7731"
       y="133.10696"
       id="tspan48">NOTES</tspan>
  </text>
  <g
     id="g56"
     transform="translate(-6.226903,-4.8930324)">
    <rect
       style="fill:#ffffff"
       x="408.57501"
       y="148"
       width="59"
       height="33.840599"
       id="rect52" />
    <rect
       style="fill:none;fill-opacity:0;stroke:#000000;stroke-width:2"
       x="408.57501"
       y="148"
       width="59"
       height="33.840599"
       id="rect54" />
  </g>
  <g
     id="g62"
     transform="translate(-6.226903,-4.8930324)">
    <rect
       style="fill:#ffffff"
       x="408.57501"
       y="210.65199"
       width="59"
       height="17"
       id="rect58" />
    <rect
       style="fill:none;fill-opacity:0;stroke:#000000;stroke-width:2"
       x="408.57501"
       y="210.65199"
       width="59"
       height="17"
       id="rect60" />
  </g>
  <text
     font-size="12.7998"
     style="font-style:normal;font-weight:normal;font-size:12.79979992px;font-family:sans-serif;text-anchor:start;fill:#000000"
     x="386.7731"
     y="198.55896"
     id="text66">
    <tspan
       x="386.7731"
       y="198.55896"
       id="tspan64">FILTER</tspan>
  </text>
  <g
     id="g74"
     transform="translate(-6.226903,-4.8930324)">
    <path
       style="fill:none;fill-opacity:0;stroke:#000000;stroke-width:2"
       d="M 388.767,156.269 A 640.224,640.224 0 0 0 130.956,150.728"
       id="path68"
       inkscape:connector-curvature="0" />
    <polygon
       style="fill:#000000"
       points="388.784,156.197 387.541,150.746 396.07,157.976 385.169,160.461 "
       id="polygon70" />
    <polygon
       style="fill:none;fill-opacity:0;stroke:#000000;stroke-width:2"
       points="388.784,156.197 387.541,150.746 396.07,157.976 385.169,160.461 "
       id="polygon72" />
  </g>
  <g
     id="g82"
     transform="translate(-6.226903,-4.8930324)">
    <path
       style="fill:none;fill-opacity:0;stroke:#000000;stroke-width:2"
       d="M 387.859,214.823 A 594.509,594.509 0 0 0 133.077,170.527"
       id="path76"
       inkscape:connector-curvature="0" />
    <polygon
       style="fill:#000000"
       points="387.89,214.749 387.578,209.168 394.775,217.723 383.612,218.348 "
       id="polygon78" />
    <polygon
       style="fill:none;fill-opacity:0;stroke:#000000;stroke-width:2"
       points="387.89,214.749 387.578,209.168 394.775,217.723 383.612,218.348 "
       id="polygon80" />
  </g>
  <text
     font-size="12.7998"
     style="font-style:normal;font-weight:normal;font-size:12.79979992px;font-family:sans-serif;text-anchor:start;fill:#000000"
     x="72.756294"
     y="196.03996"
     id="text86">
    <tspan
       x="72.756294"
       y="196.03996"
       id="tspan84">TOGGLE_IMPORTANCE_OF</tspan>
  </text>
  <text
     font-size="14.6753"
     style="font-style:normal;font-weight:normal;font-size:14.67529964px;font-family:sans-serif;text-anchor:start;fill:#000000"
     x="370.80209"
     y="103.40897"
     id="text90">
    <tspan
       x="370.80209"
       y="103.40897"
       id="tspan88">STATE</tspan>
  </text>
  <g
     id="g100"
     transform="translate(-6.226903,-4.8930324)">
    <ellipse
       style="fill:#ffffff"
       cx="447.233"
       cy="278.108"
       rx="49.877201"
       ry="24.938601"
       id="ellipse92" />
    <ellipse
       style="fill:none;fill-opacity:0;stroke:#000000;stroke-width:2"
       cx="447.233"
       cy="278.108"
       rx="49.877201"
       ry="24.938601"
       id="ellipse94" />
    <text
       font-size="12.7998"
       style="font-style:normal;font-weight:normal;font-size:12.79979992px;font-family:sans-serif;text-anchor:middle;fill:#000000"
       x="447.233"
       y="282.008"
       id="text98">
      <tspan
         x="447.233"
         y="282.008"
         id="tspan96">DISPATCH</tspan>
    </text>
  </g>
  <g
     id="g106"
     transform="matrix(1.6581469,0,0,0.98800304,-244.23431,-0.6729404)">
    <rect
       style="fill:#ffffff"
       x="362.05801"
       y="328.42899"
       width="158.392"
       height="46.668999"
       id="rect102" />
    <rect
       style="fill:none;fill-opacity:0;stroke:#000000;stroke-width:2"
       x="362.05801"
       y="328.42899"
       width="158.392"
       height="46.668999"
       id="rect104" />
  </g>
  <text
     font-size="12.7998"
     style="font-style:normal;font-weight:normal;font-size:14.72174168px;font-family:sans-serif;text-anchor:start;fill:#000000;stroke-width:1.15015411"
     x="315.33386"
     y="397.078"
     id="text112"
     transform="scale(1.1501541,0.86944872)">
    <tspan
       x="315.33386"
       y="397.078"
       id="tspan108"
       style="stroke-width:1.15015411">{TYPE: 'TOGGLE_IMPORT...',</tspan>
    <tspan
       x="315.33386"
       y="415.48044"
       id="tspan110"
       style="stroke-width:1.15015411">ID: ID</tspan>
  </text>
  <g
     id="g118"
     transform="translate(-6.226903,-4.8930324)">
    <rect
       style="fill:#ffffff"
       x="347.26999"
       y="328.42899"
       width="12.7886"
       height="46.668999"
       id="rect114" />
    <rect
       style="fill:none;fill-opacity:0;stroke:#000000;stroke-width:2"
       x="347.26999"
       y="328.42899"
       width="12.7886"
       height="46.668999"
       id="rect116" />
  </g>
  <g
     id="g124"
     transform="translate(83.509675,-5.172976)">
    <rect
       style="fill:#ffffff"
       x="522.45001"
       y="328.42899"
       width="12.7886"
       height="46.668999"
       id="rect120" />
    <rect
       style="fill:none;fill-opacity:0;stroke:#000000;stroke-width:2"
       x="522.45001"
       y="328.42899"
       width="12.7886"
       height="46.668999"
       id="rect122" />
  </g>
  <g
     id="g132"
     transform="translate(-6.226903,-4.8930324)">
    <path
       style="fill:none;fill-opacity:0;stroke:#000000;stroke-width:2"
       d="M 133.077,208.711 A 405.112,405.112 0 0 0 331.65,347.313"
       id="path126"
       inkscape:connector-curvature="0" />
    <polygon
       style="fill:#000000"
       points="331.614,347.424 330.603,341.926 338.818,349.51 327.822,351.532 "
       id="polygon128" />
    <polygon
       style="fill:none;fill-opacity:0;stroke:#000000;stroke-width:2"
       points="331.614,347.424 330.603,341.926 338.818,349.51 327.822,351.532 "
       id="polygon130" />
  </g>
  <g
     id="g140"
     transform="translate(-6.226903,-4.8930324)">
    <path
       style="fill:none;fill-opacity:0;stroke:#000000;stroke-width:2"
       d="m 398.164,297.162 a 136.45,136.45 0 0 0 -28.913,31.05"
       id="path134"
       inkscape:connector-curvature="0" />
    <polygon
       style="fill:#000000"
       points="397.95,296.889 393.081,294.143 404.167,292.693 398.675,302.432 "
       id="polygon136" />
    <polygon
       style="fill:none;fill-opacity:0;stroke:#000000;stroke-width:2"
       points="397.95,296.889 393.081,294.143 404.167,292.693 398.675,302.432 "
       id="polygon138" />
  </g>
</svg>
