<svg id="Layer_1" data-name="Layer 1" xmlns="http://www.w3.org/2000/svg" viewBox="0 0 1280 1024"><defs><style>.cls-1{fill:#7f40cb;}</style></defs><title>partArtboard 7</title><path d="M367.85,722.5l-34.92.33,3,3v-86l-3,3H721.35c1.55,0,3.74.41,5.24,0a3.28,3.28,0,0,1,.7,0l-3-3v86l3-3L696,722.5a3.06,3.06,0,0,0-2.89,2.2l-24.35,78.24L630.29,926.6l-8.92,28.66,2.89-2.2H439.51l2.9,2.2L418.09,877,379.65,753.36l-8.9-28.66c-1.15-3.67-6.94-2.11-5.79,1.6l24.32,78.24L427.71,928.2l8.91,28.65a3.07,3.07,0,0,0,2.89,2.21H624.26a3.07,3.07,0,0,0,2.89-2.21l24.35-78.24L690,755l8.91-28.65L696,728.5l31.29.33a3,3,0,0,0,3-3v-86a3,3,0,0,0-3-3H349c-5.06,0-10.34-.43-15.38,0-.23,0-.47,0-.7,0a3,3,0,0,0-3,3v86a3,3,0,0,0,3,3l34.92-.33C371.71,728.46,371.72,722.46,367.85,722.5Z"/><rect x="525.24" y="152.31" width="4.88" height="489.62" rx="2.44" transform="translate(1055.35 794.25) rotate(-180)"/><path class="cls-1" d="M424.91,582.52a107.22,107.22,0,0,1-27.11-45.87,120.45,120.45,0,0,1-3-53.34,120.27,120.27,0,0,1,53.33,3,106.91,106.91,0,0,1,73,73,120.27,120.27,0,0,1,3,53.33,120.45,120.45,0,0,1-53.34-3A107.12,107.12,0,0,1,424.91,582.52Z"/><path d="M427,580.4c-25.07-25.46-34.82-61.27-29.35-96.29l-2.09,2.1c34.8-5.44,71.08,4.14,96.28,29.35s34.79,61.48,29.35,96.28l2.1-2.09c-35,5.47-70.83-4.28-96.29-29.35-2.75-2.71-7,1.53-4.24,4.24,27.1,26.68,64.94,36.7,102.12,30.9a2.89,2.89,0,0,0,2.1-2.1c4.54-29.06-.23-59.3-16.39-84.2a111.18,111.18,0,0,0-64.35-46.55c-17.09-4.56-34.85-5-52.28-2.27a2.88,2.88,0,0,0-2.09,2.1c-5.81,37.18,4.21,75,30.89,102.12C425.5,587.4,429.74,583.15,427,580.4Z"/><path class="cls-1" d="M559.8,422.75a107.12,107.12,0,0,1,45.87-27.11,120.3,120.3,0,0,1,53.34-3A120.27,120.27,0,0,1,656,446a107,107,0,0,1-73,73,120.27,120.27,0,0,1-53.33,3,120.42,120.42,0,0,1,3-53.33A107.12,107.12,0,0,1,559.8,422.75Z"/><path d="M561.92,424.87c25.46-25.07,61.27-34.82,96.29-29.35l-2.1-2.1c5.44,34.8-4.15,71.09-29.35,96.29s-61.48,34.79-96.29,29.35l2.1,2.1c-5.47-35,4.28-70.83,29.35-96.29,2.71-2.76-1.53-7-4.24-4.24C531,447.72,521,485.57,526.78,522.75a2.9,2.9,0,0,0,2.1,2.1c29,4.53,59.3-.23,84.2-16.4a111.13,111.13,0,0,0,46.55-64.34,126.63,126.63,0,0,0,2.27-52.28,2.89,2.89,0,0,0-2.1-2.1c-37.18-5.8-75,4.22-102.12,30.9C554.92,423.34,559.16,427.58,561.92,424.87Z"/><path class="cls-1" d="M463.51,194.71c-15.57-16-21.62-38-18.3-59.89l-2.1,2.09c21.68-3.28,44.19,2.6,59.9,18.3s21.58,38.22,18.29,59.9l2.1-2.1c-21.89,3.32-43.93-2.73-59.89-18.3-2.77-2.7-7,1.54-4.24,4.24,17.61,17.19,41.64,23.5,65.73,19.85a2.89,2.89,0,0,0,2.09-2.1c3.62-23.86-2.53-48.38-19.84-65.73s-41.91-23.45-65.73-19.84a2.89,2.89,0,0,0-2.1,2.09c-3.65,24.09,2.66,48.12,19.85,65.73C462,201.72,466.21,197.48,463.51,194.71Z"/><rect x="414.84" y="168.94" width="4.51" height="310.42" rx="1.81" transform="translate(941.23 258.42) rotate(135)"/><path class="cls-1" d="M437.59,418.5a54.66,54.66,0,0,1-26.31-6.77A61.34,61.34,0,0,1,391,393.59a61.26,61.26,0,0,1,20.32-18.15,54.58,54.58,0,0,1,52.62,0,61.26,61.26,0,0,1,20.32,18.15,61.34,61.34,0,0,1-20.32,18.14A54.66,54.66,0,0,1,437.59,418.5Z"/><path d="M437.59,415.5c-17.8-.29-33.55-9.21-44-23.43v3c10.37-14.05,26.33-23.42,44-23.42s33.67,9.37,44,23.42v-3c-10.49,14.22-26.24,23.14-44,23.43-3.86.06-3.87,6.06,0,6,20.07-.33,37.43-10.43,49.22-26.4a2.9,2.9,0,0,0,0-3c-11.64-15.78-29.26-26.39-49.22-26.39S400,376.29,388.37,392.07a2.9,2.9,0,0,0,0,3c11.79,16,29.15,26.07,49.22,26.4C441.45,421.56,441.45,415.56,437.59,415.5Z"/><path class="cls-1" d="M471,304c-.33-19.32-10-36-25.39-47.33a2.88,2.88,0,0,0-3,0c-15.17,11.21-25.39,28.12-25.39,47.33s10.22,36.12,25.39,47.33a2.88,2.88,0,0,0,3,0C461,340,470.68,323.32,471,304c.07-3.86-5.93-3.86-6,0-.29,17.05-8.8,32.09-22.41,42.15h3C432.2,336.23,423.18,321,423.21,304s9-32.2,22.41-42.15h-3C456.21,271.91,464.72,287,465,304,465.08,307.86,471.08,307.87,471,304Z"/><path class="cls-1" d="M362.68,323a39.39,39.39,0,0,1-18.93-4.86,44.3,44.3,0,0,1-14.61-13.05,44.08,44.08,0,0,1,14.61-13.05,39.21,39.21,0,0,1,37.85,0,44,44,0,0,1,14.62,13.05,44.23,44.23,0,0,1-14.62,13.05A39.35,39.35,0,0,1,362.68,323Z"/><path d="M362.68,320c-12.55-.27-23.49-6.43-30.95-16.43v3c7.34-9.83,18.49-16.43,30.95-16.43s23.61,6.59,30.95,16.43v-3c-7.46,10-18.41,16.16-30.95,16.43-3.86.09-3.87,6.09,0,6,14.82-.31,27.36-7.64,36.13-19.4a2.9,2.9,0,0,0,0-3c-8.63-11.56-21.41-19.4-36.13-19.4s-27.5,7.84-36.13,19.4a2.9,2.9,0,0,0,0,3c8.77,11.76,21.31,19.09,36.13,19.4C366.54,326.13,366.54,320.13,362.68,320Z"/><path class="cls-1" d="M340.51,230.34a39.26,39.26,0,0,0,4.87,18.93,44,44,0,0,0,13.05,14.61,44.2,44.2,0,0,0,13.05-14.61,39.28,39.28,0,0,0,0-37.85,44.2,44.2,0,0,0-13.05-14.61,44,44,0,0,0-13.05,14.61A39.25,39.25,0,0,0,340.51,230.34Z"/><path d="M337.51,230.34c.32,14.83,7.65,27.36,19.4,36.13a2.9,2.9,0,0,0,3,0c11.57-8.63,19.4-21.4,19.4-36.13s-7.83-27.49-19.4-36.12a2.86,2.86,0,0,0-3,0c-11.75,8.76-19.08,21.3-19.4,36.12-.08,3.87,5.92,3.87,6,0,.27-12.54,6.44-23.49,16.43-30.94h-3c9.84,7.33,16.43,18.48,16.43,30.94s-6.59,23.61-16.43,31h3c-10-7.46-16.16-18.4-16.43-31C343.43,226.49,337.43,226.48,337.51,230.34Z"/><rect x="613.94" y="113.8" width="5.56" height="252.23" rx="1.84" transform="translate(350.28 -365.82) rotate(45)"/><path class="cls-1" d="M630.75,311.58c22.61-.32,42.31-11.77,55.57-29.78a2.9,2.9,0,0,0,0-3C673.19,260.94,653.27,249,630.75,249s-42.46,12-55.56,29.78a2.9,2.9,0,0,0,0,3c13.26,18,33,29.46,55.56,29.78,3.87.06,3.87-5.94,0-6-20.33-.29-38.42-10.56-50.38-26.81v3C592.21,265.71,610.51,255,630.75,255s38.55,10.73,50.39,26.81v-3c-12,16.26-30,26.52-50.39,26.81C626.9,305.64,626.89,311.64,630.75,311.58Z"/><path class="cls-1" d="M641,187.89A62.11,62.11,0,0,0,633.26,158a69.68,69.68,0,0,0-20.61-23.08A69.68,69.68,0,0,0,592,158a62,62,0,0,0,0,59.79,69.77,69.77,0,0,0,20.61,23.08,69.77,69.77,0,0,0,20.61-23.08A62.12,62.12,0,0,0,641,187.89Z"/><path d="M644,187.89c-.33-22.6-11.77-42.3-29.79-55.56a2.88,2.88,0,0,0-3,0c-17.84,13.13-29.76,33-29.79,55.56s12,42.46,29.79,55.57a2.88,2.88,0,0,0,3,0c18-13.26,29.46-33,29.79-55.57,0-3.86-6-3.86-6,0-.29,20.34-10.56,38.43-26.81,50.39h3c-16.08-11.84-26.81-30.14-26.81-50.39s10.73-38.54,26.81-50.38h-3c16.25,12,26.52,30.05,26.81,50.38C638,191.75,644,191.76,644,187.89Z"/><path class="cls-1" d="M691.88,225.84a46.52,46.52,0,0,0,22.37-5.75,52.19,52.19,0,0,0,17.26-15.42,52.22,52.22,0,0,0-17.26-15.43,46.39,46.39,0,0,0-44.74,0,52.22,52.22,0,0,0-17.26,15.43,52.19,52.19,0,0,0,17.26,15.42A46.52,46.52,0,0,0,691.88,225.84Z"/><path d="M691.88,228.84c17.27-.32,32-8.94,42.22-22.66a2.9,2.9,0,0,0,0-3c-10-13.53-25.05-22.66-42.22-22.66s-32.18,9.13-42.22,22.66a2.86,2.86,0,0,0,0,3c10.18,13.72,25,22.34,42.22,22.66,3.86.07,3.86-5.93,0-6-15-.28-28.17-7.73-37-19.69v3c8.76-11.81,22.12-19.66,37-19.69s28.3,7.91,37,19.69v-3c-8.87,12-22,19.41-37,19.69C688,222.91,688,228.91,691.88,228.84Z"/><path class="cls-1" d="M676.91,121.4c.28-15,7.73-28.16,19.69-37h-3c11.81,8.76,19.66,22.13,19.69,37s-7.91,28.3-19.69,37h3c-12-8.88-19.41-22-19.69-37-.07-3.85-6.07-3.87-6,0,.32,17.27,8.94,32,22.66,42.23a2.9,2.9,0,0,0,3,0c13.53-10,22.66-25.06,22.66-42.23s-9.13-32.18-22.66-42.22a2.9,2.9,0,0,0-3,0c-13.72,10.18-22.34,25-22.66,42.22C670.84,125.27,676.84,125.27,676.91,121.4Z"/><path class="cls-1" d="M883.74,622.77c-10.28-4.57-11-18.67-10.39-28.35a77.78,77.78,0,0,1,1.43-10.63c.76-3.7,2.94-8,3.05-11.66.07-2.56-2.35-5-3.79-7a66.45,66.45,0,0,0-6.22-7.39c-6.85-6.91-16.65-12.65-26.66-9.73-8.31,2.42-13.76,9.84-17,17.47-10.08,23.6-6,53.49,2.84,76.79,6.1,16.1,19.36,41.55,39.9,41.08,9.82-.22,17.09-7.58,21.15-16,6.15-12.71,7.14-27.53,6.3-41.41a3.06,3.06,0,0,0-3.8-2.9,14.27,14.27,0,0,1-7.52-.6c-3.66-1.24-5.24,4.55-1.59,5.79a20.92,20.92,0,0,0,10.71.6l-3.8-2.89c.69,11.54.15,23.47-3.83,34.43-2.67,7.36-7.77,15.84-16.31,16.88-7.72.94-14.72-4.53-19.66-9.82-7.27-7.77-12.37-17.65-16-27.55-8-21.38-11.77-47.86-3.75-69.82,2.56-7,7.33-15.12,15.34-16.63,10.43-2,21.63,8.4,26.27,16.81,1.73,3.14,0,6-.8,9.38-.7,3-1.25,6.1-1.65,9.19a67.28,67.28,0,0,0-.14,17.93c1.16,8.42,4.67,17.51,13,21.19C884.21,629.5,887.26,624.33,883.74,622.77Z"/><path class="cls-1" d="M923.6,521.87a19.84,19.84,0,0,0-8.13-1c-1.51.1-3.16,1.29-3,3,.86,9.71.84,21.12-4.5,29.7-6.47,10.39-16.42,4.07-22.4-3.42-1.21-1.51-3.85-.94-4.71.61-8.54,15.35-14.51,33.41-13.57,51.16.59,11.15,4.9,25.51,17.83,27.25,13.2,1.77,24.87-9.78,32.13-19.32a103.41,103.41,0,0,0,20-49.54c1.54-12.71.83-32-12.94-38.14-3.49-1.55-6.55,3.62-3,5.18,10.22,4.54,11,18.59,10.4,28.2-.9,15-6.19,29.94-13.86,42.76-5.71,9.53-14.2,20.88-25.37,24.25-13.25,4-18.43-9.22-19.13-19.92-1.12-16.93,4.57-34.21,12.71-48.85l-4.71.61c7,8.77,19.33,15.9,28.78,6.17,8.93-9.2,9.41-24.79,8.36-36.7l-3,3a15.43,15.43,0,0,1,6.53.79C925.66,528.91,927.24,523.11,923.6,521.87Z"/><path class="cls-1" d="M902.32,565.07c14-3.51,16.67-22.37,16.53-34.37-.2-17-5.32-36.44-17.15-49.2-7.9-8.52-20.15-11.66-28-1.34-9.65,12.64-8.11,32.51-4.67,47,3.52,14.82,14.08,40.77,33.32,37.91,3.81-.57,2.19-6.35-1.59-5.79-7.38,1.1-13.49-6.36-17-11.84a67.86,67.86,0,0,1-8.07-18.54c-3.57-12.75-5.28-28.57.38-41,1.74-3.82,4.66-7.89,9.14-8.45,4.64-.58,8.85,2.73,11.87,5.87,9.57,10,14.07,25.12,15.43,38.57,1,10.17,1.35,32.14-11.74,35.41C897,560.22,898.57,566,902.32,565.07Z"/><path class="cls-1" d="M914,679H819.43c-1.84,0-3.77-.17-5.61,0-3.82.35-7.64,3.39-10.82,5.42a112.86,112.86,0,0,0,.79,190.94c2.9,1.83,5.87,4.17,9.35,4.37,2,.12,4.12,0,6.17,0h83.11c4.05,0,8.64.61,12.66,0,2.33-.35,4.54-2,6.55-3.24a111.86,111.86,0,0,0,10.06-6.83,112.84,112.84,0,0,0,2.45-178.13,117.84,117.84,0,0,0-18.58-12.12c-3.42-1.79-6.45,3.38-3,5.18a106.89,106.89,0,0,1,40.28,154A107.07,107.07,0,0,1,921,869.77c-2.62,1.67-4.65,3.58-7.16,3.93a43.61,43.61,0,0,1-5.94,0H828.79c-5,0-10.6.73-15.54,0-2.55-.38-5-2.6-7.65-4.32a106.8,106.8,0,0,1-36.7-139.32,108.25,108.25,0,0,1,27.34-33.42,102,102,0,0,1,9.19-6.68c2.05-1.33,6.2-4.53,7.8-5a13.84,13.84,0,0,1,3.28,0H914C917.9,685,917.91,679,914,679Z"/></svg>