<svg id="Layer_1" data-name="Layer 1" xmlns="http://www.w3.org/2000/svg" viewBox="0 0 1280 1024"><defs><style>.cls-1{fill:#71bed4;}.cls-2{fill:#326fa8;}</style></defs><title>Artboard 9 copy 2</title><rect class="cls-1" x="862.19" y="255.29" width="6.14" height="468.09" rx="3.07" transform="translate(1730.51 978.66) rotate(180)"/><path class="cls-1" d="M798.68,651.32c-16.75-17-23.33-41-19.63-64.36l-1.61,1.61c17.84-2.84,36.53.19,52,9.79a70.27,70.27,0,0,1,31,43.49,79.53,79.53,0,0,1,1,30.7l1.6-1.61c-23.32,3.71-47.41-2.88-64.35-19.62-2.11-2.09-5.37,1.16-3.26,3.25,18.2,18,43.85,24.78,68.84,20.81a2.23,2.23,0,0,0,1.61-1.6c3-19.21,0-39.25-10.47-55.86A75,75,0,0,0,809,585a85.54,85.54,0,0,0-32.75-.9,2.2,2.2,0,0,0-1.61,1.61c-4,25,2.83,50.64,20.81,68.83C797.51,656.68,800.76,653.43,798.68,651.32Z"/><path class="cls-1" d="M889.23,547.32c16.94-16.75,41-23.33,64.35-19.63L952,526.08c2.84,17.84-.19,36.53-9.78,52a70.32,70.32,0,0,1-43.5,31,79.52,79.52,0,0,1-30.7,1l1.61,1.61c-3.71-23.33,2.88-47.42,19.63-64.36,2.08-2.11-1.17-5.37-3.26-3.26-18,18.2-24.78,43.85-20.81,68.84a2.21,2.21,0,0,0,1.61,1.61c19.21,3,39.24,0,55.85-10.47a75,75,0,0,0,32.89-46.43,85.54,85.54,0,0,0,.9-32.75,2.2,2.2,0,0,0-1.6-1.61c-25-4-50.64,2.83-68.84,20.81C883.86,546.15,887.12,549.4,889.23,547.32Z"/><path class="cls-1" d="M883.92,440.59c12.57-12.38,30.31-17.26,47.59-14.54l-1.61-1.61c2.7,17.19-2.1,35.15-14.53,47.59S885,489.27,867.78,486.57l1.61,1.61c-2.72-17.29,2.16-35,14.53-47.59,2.08-2.12-1.17-5.37-3.25-3.26C867.06,451.15,862,470.45,865,489.4a2.21,2.21,0,0,0,1.6,1.61c14.59,2.29,29.77,0,42.37-8a56.73,56.73,0,0,0,24.72-34.9,64.71,64.71,0,0,0,.7-24.92,2.21,2.21,0,0,0-1.61-1.61c-18.94-3-38.24,2.11-52.06,15.72C878.55,439.41,881.81,442.67,883.92,440.59Z"/><path class="cls-1" d="M816.4,533.42c-12.38-12.57-17.26-30.3-14.54-47.59l-1.61,1.61c17.18-2.7,35.15,2.1,47.59,14.54s17.24,30.4,14.54,47.58L864,548c-17.28,2.71-35-2.16-47.58-14.54-2.12-2.08-5.38,1.17-3.26,3.25,13.82,13.61,33.12,18.7,52.07,15.73a2.23,2.23,0,0,0,1.6-1.61c2.3-14.59,0-29.76-8-42.36A56.7,56.7,0,0,0,824,483.7,65.11,65.11,0,0,0,799,483a2.2,2.2,0,0,0-1.61,1.61c-3,18.94,2.11,38.24,15.72,52.06C815.22,538.79,818.48,535.53,816.4,533.42Z"/><path class="cls-1" d="M879.74,322c10.08-9.88,24.2-13.79,38-11.64l-1.61-1.61c2.14,13.73-1.68,28.11-11.63,38s-24.29,13.78-38,11.64l1.61,1.61c-2.16-13.84,1.75-28,11.63-38,2.08-2.12-1.17-5.38-3.25-3.26-11.12,11.34-15.24,27-12.82,42.52a2.21,2.21,0,0,0,1.61,1.61c15.39,2.39,31.32-1.63,42.51-12.82s15.22-27.13,12.82-42.52a2.21,2.21,0,0,0-1.6-1.61c-15.51-2.41-31.19,1.7-42.52,12.82C874.37,320.81,877.63,324.07,879.74,322Z"/><path class="cls-1" d="M839.14,298.63a29.41,29.41,0,0,1-7.74-25.18l-1.61,1.61c9.11-1.38,18.6,1.15,25.19,7.73s9.11,16.08,7.73,25.18l1.61-1.6a29.41,29.41,0,0,1-25.18-7.74c-2.13-2.06-5.39,1.19-3.26,3.26,8,7.76,18.79,10.57,29.66,8.92a2.23,2.23,0,0,0,1.61-1.61c1.63-10.77-1.09-21.81-8.92-29.66s-18.91-10.55-29.66-8.92a2.23,2.23,0,0,0-1.61,1.61c-1.65,10.87,1.16,21.68,8.92,29.66C838,304,841.2,300.76,839.14,298.63Z"/><path class="cls-1" d="M826,406.12c-9.88-10.07-13.79-24.2-11.64-38l-1.61,1.6c13.73-2.13,28.11,1.69,38,11.64s13.78,24.29,11.64,38l1.61-1.61c-13.84,2.15-28-1.76-38-11.64-2.12-2.07-5.38,1.18-3.26,3.26,11.34,11.12,27,15.23,42.52,12.82a2.23,2.23,0,0,0,1.61-1.61c2.39-15.39-1.63-31.32-12.82-42.51S827,362.86,811.56,365.25a2.23,2.23,0,0,0-1.61,1.61c-2.41,15.51,1.7,31.19,12.82,42.52C824.85,411.5,828.11,408.24,826,406.12Z"/><rect class="cls-1" x="737.59" y="614.65" width="4.2" height="319.92" rx="2.1" transform="translate(1479.38 1549.21) rotate(-180)"/><path class="cls-1" d="M694.19,885.31c-11.45-11.58-16-28-13.42-44l-1.1,1.1c12.2-1.94,25,.13,35.52,6.69a48,48,0,0,1,21.2,29.73,54.08,54.08,0,0,1,.68,21l1.1-1.1c-15.94,2.53-32.4-2-44-13.42-1.44-1.42-3.67.8-2.23,2.23,12.44,12.29,30,16.93,47,14.22a1.5,1.5,0,0,0,1.1-1.1c2.08-13.12,0-26.82-7.16-38.17A51.24,51.24,0,0,0,701.22,840a58.53,58.53,0,0,0-22.38-.62,1.52,1.52,0,0,0-1.1,1.1c-2.71,17.08,1.93,34.61,14.22,47A1.58,1.58,0,0,0,694.19,885.31Z"/><path class="cls-1" d="M756.07,814.24c11.58-11.45,28-16,44-13.42l-1.1-1.1c1.93,12.19-.14,25-6.69,35.52a48,48,0,0,1-29.73,21.2,54.09,54.09,0,0,1-21,.68l1.1,1.1c-2.53-15.94,2-32.4,13.41-44,1.43-1.45-.8-3.67-2.22-2.23-12.29,12.44-16.94,30-14.23,47a1.53,1.53,0,0,0,1.1,1.1c13.13,2.08,26.83,0,38.18-7.16a51.24,51.24,0,0,0,22.48-31.73,58.33,58.33,0,0,0,.61-22.38,1.48,1.48,0,0,0-1.1-1.1c-17.07-2.71-34.61,1.93-47,14.22A1.57,1.57,0,0,0,756.07,814.24Z"/><path class="cls-1" d="M752.45,741.29c8.59-8.46,20.71-11.79,32.52-9.93l-1.1-1.1c1.85,11.74-1.43,24-9.93,32.52s-20.78,11.78-32.53,9.94l1.1,1.09c-1.85-11.81,1.48-23.93,9.94-32.52,1.42-1.44-.8-3.67-2.23-2.22-9.3,9.44-12.78,22.63-10.74,35.58a1.52,1.52,0,0,0,1.1,1.1c10,1.57,20.34,0,28.95-5.45a38.74,38.74,0,0,0,16.9-23.84,44.43,44.43,0,0,0,.48-17,1.53,1.53,0,0,0-1.1-1.1c-12.95-2-26.14,1.44-35.59,10.75C748.78,740.49,751,742.71,752.45,741.29Z"/><path class="cls-1" d="M706.3,804.74c-8.46-8.59-11.8-20.71-9.94-32.53l-1.1,1.1c11.75-1.84,24,1.44,32.53,9.94s11.78,20.78,9.93,32.52l1.1-1.1c-11.81,1.86-23.93-1.47-32.52-9.93-1.45-1.43-3.67.8-2.23,2.22,9.45,9.3,22.64,12.78,35.59,10.75a1.53,1.53,0,0,0,1.1-1.1c1.56-10,0-20.34-5.45-29a38.72,38.72,0,0,0-23.85-16.9,44.37,44.37,0,0,0-17-.48,1.5,1.5,0,0,0-1.1,1.1c-2,12.94,1.44,26.14,10.74,35.58C705.49,808.41,707.72,806.18,706.3,804.74Z"/><path class="cls-1" d="M749.59,660.23a30.23,30.23,0,0,1,26-8l-1.1-1.1c1.46,9.39-1.15,19.21-8,26s-16.6,9.41-26,8l1.1,1.1a30.23,30.23,0,0,1,8-26c1.42-1.44-.8-3.67-2.22-2.22-7.6,7.75-10.41,18.46-8.76,29.06a1.5,1.5,0,0,0,1.09,1.1c10.53,1.63,21.41-1.12,29.06-8.77s10.4-18.53,8.76-29a1.49,1.49,0,0,0-1.09-1.1c-10.6-1.65-21.32,1.16-29.06,8.76C745.92,659.43,748.15,661.65,749.59,660.23Z"/><path class="cls-1" d="M721.84,644.27a20.12,20.12,0,0,1-5.29-17.21l-1.1,1.1a19.23,19.23,0,0,1,22.5,22.5l1.1-1.1a20.11,20.11,0,0,1-17.21-5.29c-1.45-1.41-3.68.81-2.23,2.23,5.46,5.3,12.84,7.22,20.28,6.09a1.5,1.5,0,0,0,1.09-1.1c1.12-7.36-.74-14.91-6.09-20.27S722,624,714.62,625.13a1.5,1.5,0,0,0-1.1,1.09c-1.13,7.44.79,14.82,6.09,20.28C721,648,723.25,645.72,721.84,644.27Z"/><path class="cls-1" d="M712.88,717.74a30.23,30.23,0,0,1-8-26l-1.1,1.1c9.38-1.46,19.21,1.15,26,7.95s9.41,16.6,7.95,26l1.1-1.1a30.22,30.22,0,0,1-26-8c-1.45-1.42-3.67.8-2.22,2.22,7.74,7.6,18.46,10.41,29.05,8.76a1.49,1.49,0,0,0,1.1-1.09c1.64-10.53-1.11-21.41-8.76-29.06s-18.54-10.4-29.06-8.77a1.53,1.53,0,0,0-1.1,1.1c-1.65,10.6,1.17,21.32,8.77,29.06C712.08,721.41,714.3,719.18,712.88,717.74Z"/><path class="cls-1" d="M434.36,704.9a111.13,111.13,0,0,1-28.09-47.54,124.64,124.64,0,0,1-3.12-55.27,124.73,124.73,0,0,1,55.26,3.12,110.89,110.89,0,0,1,75.64,75.63,124.93,124.93,0,0,1,3.12,55.27A124.77,124.77,0,0,1,481.9,733,111.17,111.17,0,0,1,434.36,704.9Z"/><path class="cls-2" d="M436.48,702.77c-26-26.4-36.12-63.57-30.44-99.88l-2.1,2.09c36.1-5.64,73.75,4.3,99.89,30.44s36.09,63.79,30.44,99.89l2.1-2.09c-36.32,5.68-73.48-4.44-99.89-30.45-2.75-2.71-7,1.53-4.24,4.25,28,27.61,67.24,38,105.72,32a2.88,2.88,0,0,0,2.1-2.09c4.7-30-.23-61.3-16.89-87a115.17,115.17,0,0,0-67.5-48.52c-17.45-4.54-35.56-4.92-53.32-2.14a2.89,2.89,0,0,0-2.1,2.09c-6,38.48,4.37,77.69,32,105.73C435,709.77,439.2,705.53,436.48,702.77Z"/><path class="cls-1" d="M574.14,539.33a111.19,111.19,0,0,1,47.54-28.1A124.78,124.78,0,0,1,677,508.11a124.78,124.78,0,0,1-3.12,55.27A110.9,110.9,0,0,1,598.2,639a124.64,124.64,0,0,1-55.27,3.12,124.64,124.64,0,0,1,3.12-55.27A111.13,111.13,0,0,1,574.14,539.33Z"/><path class="cls-2" d="M576.26,541.45c26.41-26,63.58-36.13,99.89-30.45l-2.09-2.09c5.64,36.1-4.31,73.75-30.45,99.89s-63.79,36.09-99.88,30.44l2.09,2.09c-5.68-36.31,4.44-73.48,30.44-99.88,2.72-2.76-1.52-7-4.24-4.25-27.61,28-38,67.25-32,105.73a2.9,2.9,0,0,0,2.1,2.1c30,4.69,61.3-.23,87-16.9a115.11,115.11,0,0,0,48.53-67.5,131.1,131.1,0,0,0,2.14-53.32,2.88,2.88,0,0,0-2.09-2.09c-38.49-6-77.69,4.37-105.73,32C569.27,539.92,573.51,544.16,576.26,541.45Z"/><path class="cls-1" d="M566,374.56a83.12,83.12,0,0,1,35.56-21,93.32,93.32,0,0,1,41.36-2.33,93.43,93.43,0,0,1-2.34,41.35A83,83,0,0,1,584,449.15a93.26,93.26,0,0,1-41.35,2.33,93.28,93.28,0,0,1,2.34-41.35A83.09,83.09,0,0,1,566,374.56Z"/><path class="cls-2" d="M568.08,376.68c19.65-19.25,47-26.74,74-22.58L640,352c4.13,26.78-3.2,54.6-22.58,74s-47.26,26.7-74,22.58l2.09,2.09c-4.16-27,3.34-54.34,22.59-74,2.7-2.76-1.54-7-4.25-4.24-20.86,21.29-28.62,50.69-24.12,79.84a2.88,2.88,0,0,0,2.09,2.09c28.9,4.46,58.86-3.1,79.84-24.12s28.59-50.9,24.13-79.84a2.89,2.89,0,0,0-2.1-2.1c-29.15-4.49-58.54,3.27-79.84,24.13C561.07,375.15,565.32,379.39,568.08,376.68Z"/><path class="cls-1" d="M461.71,522.89a82.32,82.32,0,0,1-12.87-16.65,84.42,84.42,0,0,1-8.15-18.92A90.48,90.48,0,0,1,437.21,467a96.94,96.94,0,0,1,1.15-21,96.84,96.84,0,0,1,21-1.14,90.1,90.1,0,0,1,20.37,3.48,84.82,84.82,0,0,1,18.92,8.15A82.71,82.71,0,0,1,528.14,486a84.45,84.45,0,0,1,8.16,18.92,90.48,90.48,0,0,1,3.48,20.36,96.94,96.94,0,0,1-1.15,21,96.31,96.31,0,0,1-21,1.14,89.46,89.46,0,0,1-20.36-3.48,84.36,84.36,0,0,1-18.92-8.15A82.6,82.6,0,0,1,461.71,522.89Z"/><path class="cls-2" d="M463.83,520.77c-19.25-19.66-26.73-47-22.58-74l-2.1,2.1c26.79-4.12,54.59,3.2,74,22.58s26.69,47.26,22.58,74l2.09-2.09c-27,4.14-54.33-3.34-74-22.59-2.76-2.7-7,1.54-4.24,4.25,21.31,20.85,50.67,28.61,79.84,24.12a2.88,2.88,0,0,0,2.09-2.09c4.45-28.91-3.09-58.86-24.12-79.84s-50.89-28.58-79.84-24.13a2.89,2.89,0,0,0-2.1,2.1C431,474.35,438.73,503.7,459.59,525,462.3,527.78,466.54,523.54,463.83,520.77Z"/><path class="cls-1" d="M559.51,191.48a67.09,67.09,0,0,1,28.75-17,75.34,75.34,0,0,1,33.42-1.89A75.33,75.33,0,0,1,619.79,206a67,67,0,0,1-45.74,45.75,75.34,75.34,0,0,1-33.42,1.88,75.34,75.34,0,0,1,1.89-33.42A67.09,67.09,0,0,1,559.51,191.48Z"/><path class="cls-2" d="M561.63,193.6c15.78-15.41,37.6-21.39,59.25-18.11l-2.09-2.09c3.25,21.45-2.57,43.72-18.11,59.25S562.87,254,541.42,250.76l2.1,2.1c-3.28-21.66,2.7-43.47,18.11-59.26,2.7-2.77-1.54-7-4.25-4.24-17,17.44-23.26,41.24-19.65,65.09a2.9,2.9,0,0,0,2.1,2.1c23.63,3.58,47.91-2.5,65.1-19.65s23.22-41.5,19.65-65.1a2.88,2.88,0,0,0-2.1-2.09c-23.85-3.62-47.65,2.63-65.1,19.65C554.62,192.06,558.86,196.3,561.63,193.6Z"/><path class="cls-1" d="M496.82,160.45a45.71,45.71,0,0,1-11.57-19.58A51.38,51.38,0,0,1,484,118.12a51.28,51.28,0,0,1,22.76,1.28,45.68,45.68,0,0,1,31.14,31.14,51.44,51.44,0,0,1,1.29,22.76A51.43,51.43,0,0,1,516.39,172,45.69,45.69,0,0,1,496.82,160.45Z"/><path class="cls-2" d="M498.94,158.33c-10.22-10.61-14.21-24.93-12.08-39.42l-2.1,2.1c14.3-2.1,29,1.74,39.41,12.08s14.18,25.15,12.08,39.41l2.1-2.09c-14.49,2.12-28.81-1.86-39.41-12.08-2.78-2.69-7,1.55-4.24,4.24,12.29,11.85,28.53,16.08,45.24,13.62a2.88,2.88,0,0,0,2.1-2.09c2.42-16.46-1.64-33.27-13.62-45.25s-28.8-16-45.25-13.63a2.89,2.89,0,0,0-2.1,2.1c-2.45,16.71,1.78,33,13.63,45.25C497.38,165.35,501.62,161.11,498.94,158.33Z"/><path class="cls-1" d="M476.58,326.38a67.19,67.19,0,0,1-17-28.75,75.34,75.34,0,0,1-1.88-33.42,75.35,75.35,0,0,1,33.42,1.89,67.06,67.06,0,0,1,45.74,45.74,75.34,75.34,0,0,1,1.89,33.42,75.33,75.33,0,0,1-33.42-1.89A67.19,67.19,0,0,1,476.58,326.38Z"/><path class="cls-2" d="M478.71,324.26c-15.41-15.79-21.39-37.6-18.11-59.26l-2.1,2.1c21.45-3.25,43.72,2.57,59.26,18.11s21.36,37.81,18.11,59.26l2.09-2.1c-21.66,3.28-43.47-2.7-59.25-18.11-2.77-2.7-7,1.54-4.25,4.25,17.45,17,41.25,23.26,65.1,19.65a2.88,2.88,0,0,0,2.09-2.1c3.58-23.63-2.5-47.91-19.65-65.1s-41.5-23.22-65.09-19.65a2.9,2.9,0,0,0-2.1,2.1c-3.61,23.85,2.63,47.65,19.65,65.1C477.16,331.27,481.4,327,478.71,324.26Z"/><rect class="cls-2" x="537.28" y="89.44" width="9.48" height="722.6" rx="4.74" transform="translate(1084.04 901.48) rotate(180)"/><path class="cls-1" d="M702.33,164.58H381.71a14.54,14.54,0,0,0-14.5,14.5V750.39a14.54,14.54,0,0,0,14.5,14.51H702.33a14.55,14.55,0,0,0,14.51-14.51V179.08A14.55,14.55,0,0,0,702.33,164.58ZM672.84,654.93a14.54,14.54,0,0,1-14.5,14.51h-235a14.55,14.55,0,0,1-14.51-14.51V224.82a14.54,14.54,0,0,1,14.51-14.5h235a14.54,14.54,0,0,1,14.5,14.5Z"/><path d="M702.33,161.58H402.93c-7,0-14-.21-21,0a17.89,17.89,0,0,0-17.76,17.52c0,1,0,2.06,0,3.09V706.86c0,14.41-.5,28.92,0,43.32a17.89,17.89,0,0,0,17.51,17.72c1.6.06,3.23,0,4.84,0H695.9c2.07,0,4.16.07,6.23,0a17.9,17.9,0,0,0,17.71-17.54c.5-13.36,0-26.82,0-40.18v-527c0-1.28,0-2.57,0-3.84a17.91,17.91,0,0,0-17.51-17.74c-3.86-.19-3.85,5.81,0,6,11.38.54,11.51,10.17,11.51,18.38V739.28c0,3.67.14,7.38,0,11.06-.5,12.72-12.51,11.56-21.37,11.56H385.78a34.56,34.56,0,0,1-6-.16c-6.36-1.14-9.46-6.67-9.55-12.61-.09-5.44,0-10.88,0-16.32V182.19c0-1-.06-2.05,0-3.07.38-7.39,6-11.43,12.89-11.54,24.51-.39,49,0,73.57,0H702.33C706.19,167.58,706.2,161.58,702.33,161.58Z"/><path d="M669.84,654.93c-.56,11.8-11,11.51-19.47,11.51h-206c-6.57,0-13.15.11-19.72,0-8-.14-12.66-5.57-12.75-13.24-.42-38.87,0-77.77,0-116.64V343.2c0-38.87-.42-77.77,0-116.64.09-7.67,4.76-13.11,12.75-13.24,6.57-.11,13.15,0,19.72,0h206c8.53,0,18.8-.29,19.47,11.5.52,9,0,18.2,0,27.21v402.9c0,3.86,6,3.87,6,0V228.27c0-8.15-2.38-16-10.66-19.52-5.16-2.23-11.81-1.43-17.32-1.43H472.55c-16.34,0-32.82-.63-49.15,0-11.1.42-17.52,9.17-17.52,19.62V645c0,3.25-.11,6.52,0,9.77.39,11.3,9.2,17.68,19.8,17.68H654.56c1.25,0,2.51,0,3.76,0a17.9,17.9,0,0,0,17.52-17.51C676,651.07,670,651.08,669.84,654.93Z"/><circle class="cls-1" cx="542.02" cy="719.75" r="27.16"/><path d="M572.19,719.75c-.32-12.46-7.65-23.63-19.41-28.17a30.16,30.16,0,1,0-5.15,57.79c14.33-2.59,24.2-15.36,24.56-29.62.09-3.87-5.91-3.86-6,0-.34,13.19-10.74,24.13-24.17,24.16a24.17,24.17,0,0,1,0-48.33c13.43,0,23.83,11,24.17,24.17C566.28,723.6,572.28,723.62,572.19,719.75Z"/></svg>