<svg xmlns="http://www.w3.org/2000/svg" viewBox="0 0 232.16 90.58">
    <path d="M392.76 353.31a7.82 7.82 0 0 0-6.73-7.85 6.35 6.35 0 0 0-.73 0 6.13 6.13 0 0 0-6.12 6.24 7.82 7.82 0 0 0 6.72 7.85 7 7 0 0 0 .73 0 6.13 6.13 0 0 0 6.12-6.24m81.34 51.63c-4.65 12.21-17.4 12.83-19.9 12.83h-.48a5.1 5.1 0 0 1-3.91-1.77 5.59 5.59 0 0 1-1-3.86 9.64 9.64 0 0 1 2.53-5.66c3.13-3.29 9.11-4.74 20.61-5h.18c1 0 1.88.16 2.15.55.7 1-.1 2.79-.17 3M355.56 378c-.61 1.55-1.63 4.25-2.4 5.06-.19.19-.23.23-.36.23s-.13 0-.22-.41a42.62 42.62 0 0 1-.84-5.14 133 133 0 0 1-.84-13.94c0-1.05.19-5.14.19-5.14.29-8.78 4-9.94 5.61-9.94a3.13 3.13 0 0 1 .55 0 3.28 3.28 0 0 1 2 1.51c2 2.79 1.07 9.54 1 10.3a71.57 71.57 0 0 1-4.62 17.4m-60.73 17.89c-.6-.76.32-2.82.39-3 2-5.34 6.28-9.49 12.26-12a18.25 18.25 0 0 1 6.67-1.42 9.22 9.22 0 0 1 5.35 1.51 4.19 4.19 0 0 1 1.78 3c.34 3.17-2.63 6.65-2.74 6.77-3.44 4.36-11 5.4-21.26 5.62h-.11c-1 0-1.9 0-2.33-.5m204.29-2.17a5.23 5.23 0 0 0-3.38-2.41 36.83 36.83 0 0 0-6-.84c-.68 0-1.45-.16-2.44-.2-2-.08-2-.63-2.41-1.94a35.63 35.63 0 0 0-2.11-5.35c-1.16-2.4-8.64-14.44-41.93-14.46h-1.81a91.12 91.12 0 0 0-13.88 1.07c-12.18 2-20 6.39-23.18 13.2-.95 2-3.43 9.11 4.4 15.68l.36.31a48.93 48.93 0 0 0 8.09 5.21c6.46 3.37 6.48 6.51 6.39 7.21 0 4.89-4.29 7.79-11.4 7.79h-1.12c-11.93 0-13.64-15.12-13.66-15.27-.87-7.18-2.25-24.61-2.41-26.61 0-.55-.05-1.11-.1-1.66 0-.28-.61-6.9-6.21-6.9a4.59 4.59 0 0 0-3.72 1.49c-1.61 1.94-1.18 5.18-1.16 5.25a34.06 34.06 0 0 1 .12 5.82c-1.07 14.23-11.06 28.85-11.24 29.15 0 0-4.31 6.88-6.71 6.79-2.84-.1-4.19-4.08-4.23-4.23-1.23-3.49-2.3-7.45-3.18-10.85a4.42 4.42 0 0 1 .82-4 78.69 78.69 0 0 0 14-35.72c.77-5.58 1-12.8-4.42-19.08-2.4-2.79-6.2-4.3-10.43-4.4a12.31 12.31 0 0 0-4.29.59c-11.83 4.47-12 24-12 24.25a118 118 0 0 0 1.1 17.68c.1.84 1.78 11.43 1.89 12a8.34 8.34 0 0 1 .11 2.51 6.48 6.48 0 0 1-.47 1.8 5.42 5.42 0 0 1-1.1 1.65 95.05 95.05 0 0 1-10.24 9.61c-4.74 3.72-10.6 7.35-17.42 8.61a23.77 23.77 0 0 1-4.24.43 14 14 0 0 1-12.72-7.07c-.07-.11-1.05-1.49-.6-2.37.31-.61 1.35-.52 2.3-.53 7-.15 12.12-.79 16.43-2.07 14-4.15 16.69-14.4 17.2-18.61.45-3.72.37-10.62-5.21-15.36-3.22-2.73-8.46-3.41-12.33-3.41a32.32 32.32 0 0 0-10.77 1.71c-10.05 3.81-17.37 11.67-20 21.94-.07.3-.13.59-.2.83-.58 2.18-.6 2.35-2.4 2.26l-.49-.05c-.87-.12-3.43-.64-4.74-.93l-1.53-.34a5.42 5.42 0 0 0-1.14-.12 5.6 5.6 0 0 0-5.39 4.57 5.92 5.92 0 0 0 .78 4.33 5.52 5.52 0 0 0 3.49 2.49c3.43.78 5.61 1.1 8.55 1.7 2.45.5 2.72.08 3.6 3a36.86 36.86 0 0 0 6.7 12.72c3.7 4.46 9.65 6.77 17.7 6.77a49.52 49.52 0 0 0 6.3-.47c8.65-1.13 16.45-6.4 20.33-9.44 2.43-1.91 5.22-4.45 8.1-7.05s3.31-2.61 4.62 1.38c.32 1 .59 2 .93 3 1.24 3.52 2.78 7.91 8.06 10.78a13.57 13.57 0 0 0 6.49 1.8c8.21 0 13.64-9 15.71-12.42.39-.56 1.49-2.53 2.4-4.16.41-.77 1.73-3.48 2.54-3.39.5.06 1.05 2.23 1.28 3.19.05.22.42 1.37.48 1.55a19.28 19.28 0 0 0 7.45 9.73 28.52 28.52 0 0 0 17 5.51h.06c.81 0 19.88-.19 21.74-17a18.69 18.69 0 0 0-1.61-9.13c-2.41-5.4-7.74-8-10.6-9.36l-.49-.23a30.28 30.28 0 0 1-4.63-2.83h-.05c-.2-.16-1.91-1.61-1.74-3.45a3.64 3.64 0 0 1 2.09-2.66c5.35-3.22 15.53-4.59 23.27-4.59H441c18.18 0 26.36 3.86 29.69 6.14 1.11.74 2.83 2.15 2.56 3s-2.24.87-2.76.87c-4.28.1-10.61.43-16.15 2.07-12.16 3.61-15.69 12.12-16.52 18.61-.05.43-1.24 10.53 4.51 15.41 3.22 2.73 8.5 3.3 12.37 3.3a33.89 33.89 0 0 0 10.76-1.52 32 32 0 0 0 18.85-18.63 28.62 28.62 0 0 0 1.5-5.41c.25-1.53.43-1.93 2.4-1.91a2.61 2.61 0 0 1 .4 0l.92.09a35.41 35.41 0 0 1 3.76.53 6.14 6.14 0 0 0 1.09.1 5.61 5.61 0 0 0 5.53-4.44 6.06 6.06 0 0 0-.77-4.46" transform="translate(-267.92 -338.71)" style="fill:#00239d"/>
</svg>