<svg xmlns="http://www.w3.org/2000/svg"
    xmlns:xlink="http://www.w3.org/1999/xlink" viewBox="0 25.37 130.58 34.43">
    <defs>
        <path id="a" d="M0 .025h130.577v34.427H0z"/>
    </defs>
    <g transform="translate(0 25.35)" fill="none" fill-rule="evenodd">
        <mask id="b" fill="#fff">
            <use xlink:href="#a"/>
        </mask>
        <path d="M78.233 12.76v11.367h3.013V12.76h4.169V9.869H74.048v2.892h4.185Zm12.93 4.212c0 2.452 1.727 4.482 4.153 4.482 2.427 0 4.12-1.996 4.12-4.43v-.018c0-2.452-1.725-4.482-4.152-4.482s-4.12 1.996-4.12 4.43v.018Zm-3.159.051v-.034c0-4.06 3.078-7.374 7.312-7.374s7.28 3.281 7.28 7.34v.017c0 4.06-3.078 7.374-7.312 7.374s-7.28-3.264-7.28-7.323Zm-21.48 4.515c-1.563 0-2.866-.676-4.103-1.724l-1.792 2.215a8.575 8.575 0 0 0 5.83 2.284c2.964 0 5.032-1.59 5.032-4.415v-.034c.05-2.486-1.53-3.517-4.316-4.279-2.377-.625-2.963-.93-2.963-1.877v-.034c0-.694.603-1.234 1.758-1.234 1.157 0 2.346.523 3.567 1.403l1.564-2.368c-1.385-1.167-3.094-1.81-5.098-1.81-2.8 0-4.804 1.709-4.804 4.297v.033c0 2.825 1.791 3.62 4.543 4.364 2.297.61 2.769 1.015 2.769 1.81v.033c0 .83-.749 1.336-1.987 1.336Zm-36.918-4.566c0 2.452 1.727 4.482 4.153 4.482 2.427 0 4.12-1.996 4.12-4.43v-.018c0-2.452-1.726-4.482-4.153-4.482-2.426 0-4.12 1.996-4.12 4.43v.018Zm-3.143.051v-.034c0-4.06 3.078-7.374 7.312-7.374 4.235 0 7.263 3.281 7.28 7.34v.017c0 4.06-3.078 7.374-7.312 7.374-4.235 0-7.28-3.264-7.28-7.323Zm24.395 7.29c3.697 0 6.026-2.114 6.026-6.428V9.851h-3.03v8.17c0 2.266-1.123 3.416-2.963 3.416s-2.964-1.2-2.964-3.518V9.851h-3.013v8.136c0 4.195 2.248 6.326 5.944 6.326ZM2.98 31.365h124.601V3.12H2.981v28.245ZM0 34.46h130.577V.025H0V34.46Zm14.005-16.05h5.57v5.717h3.013V9.869h-3.013V15.5h-5.57V9.87h-3.013v14.258h3.013V18.41Zm95.463-3.349 6.644 9.066h2.573V9.869h-2.98v8.778l-6.432-8.778h-2.785v14.258h2.98V15.06Z" fill="#000105" mask="url(#b)"/>
    </g>
</svg>