<svg xmlns="http://www.w3.org/2000/svg"
    xmlns:xlink="http://www.w3.org/1999/xlink" viewBox="0.01 30.25 185.58 21.6">
    <defs>
        <path id="a" d="M.011.091h110.532v20.088H.011z"/>
    </defs>
    <g fill="none" fill-rule="evenodd">
        <path d="M183.395 32.38c.307 0 .58-.03.58-.392 0-.303-.295-.338-.543-.338h-.495v.73h.458Zm-.458 1.417h-.41V31.3h.946c.604 0 .911.21.911.718 0 .451-.276.639-.651.68l.7 1.099h-.465l-.644-1.068h-.387v1.068Zm.447-3.154c-.977 0-1.737.766-1.737 1.863 0 1.025.664 1.864 1.737 1.864.965 0 1.724-.76 1.724-1.864 0-1.097-.76-1.863-1.724-1.863Zm0 4.12c-1.297 0-2.22-.973-2.22-2.257 0-1.357 1.025-2.255 2.22-2.255 1.181 0 2.207.898 2.207 2.255 0 1.356-1.026 2.256-2.207 2.256ZM52.091 31.299v14.679l-10.97-14.68h-3.966v20.09h3.751v-14.92l11.159 14.92h3.779v-20.09h-3.753M58.042 31.299v20.089h13.542v-3.271h-9.79v-5.232h9.418v-3.272h-9.418v-5.044h9.79v-3.27H58.042M119.684 35.676l2.672 6.881h-5.373l2.701-6.88Zm1.623-4.377h-3.275l-8.918 20.088h3.977l2.551-5.8h8.023l2.552 5.8h4.008L121.307 31.3Z" fill="#DD4534"/>
        <path fill="#DD4534" d="M144.967 31.299v14.678l-10.97-14.678h-3.966v20.089h3.75v-14.92l11.16 14.92h3.78v-20.09h-3.754M150.88 31.299v20.089h13.542v-3.271h-9.79v-5.232h9.418v-3.272h-9.418v-5.044h9.79v-3.27H150.88M174.177 39.248l-.929-.264-.248-.071c-1.117-.32-2.989-.853-2.989-2.47 0-1.05 1.106-2.506 3.183-2.506 1.546 0 3.35.699 3.35 2.666v.199h4.074v-.2c0-3.362-3.053-5.71-7.424-5.71-5.006 0-7.258 3.262-7.258 5.577 0 1.578.667 3.029 1.785 3.88 1.223.933 2.12 1.26 5.417 2.256l.456.137c1.623.482 3.463 1.029 3.463 2.916 0 1.883-1.552 3.148-3.863 3.148-3.854 0-3.899-3.25-3.899-3.389v-.198h-4.074v.198c0 4.421 4.132 6.435 7.973 6.435 4.672 0 7.936-2.548 7.936-6.194 0-4.471-3.855-5.546-6.953-6.41M25.233 48.328c-3.736 0-6.763-3.114-6.763-6.955 0-3.842 3.027-6.956 6.763-6.956 3.736 0 6.764 3.114 6.764 6.956 0 3.841-3.028 6.955-6.764 6.955Zm0-17.438c-5.79 0-10.482 4.693-10.482 10.483 0 5.789 4.693 10.482 10.483 10.482 5.789 0 10.481-4.693 10.481-10.482 0-5.79-4.692-10.483-10.481-10.483ZM89.88 41.464c-.048 3.8-3.053 6.864-6.758 6.864-3.736 0-6.764-3.114-6.764-6.955 0-3.84 3.026-6.954 6.76-6.956V30.89c-5.788.003-10.478 4.695-10.478 10.483 0 5.789 4.692 10.482 10.482 10.482 5.758 0 10.43-4.644 10.479-10.39h-3.72"/>
        <g transform="translate(0 31.208)">
            <mask id="b" fill="#fff">
                <use xlink:href="#a"/>
            </mask>
            <path d="M98.448 3.117h3.352c3.624 0 4.91 1.873 4.91 3.476 0 2.397-1.949 3.66-4.863 3.664h-3.4v-7.14Zm11.664 16.481h.43l-5.998-6.84c1.832-.253 5.919-1.354 5.919-6.165 0-1.888-.818-3.686-2.188-4.808C106.811.597 104.94.091 102.02.091h-7.326v20.088h3.755v-9.446l7.858 9.446h4.237l-.51-.58h.079ZM.011 20.179h3.715V.091H.011z" fill="#DD4534" mask="url(#b)"/>
        </g>
        <path fill="#DD4534" d="m12.865 31.295-9.389 9.953L12.84 51.39h4.925L8.412 41.245l9.352-9.95h-4.899"/>
    </g>
</svg>