<?xml version="1.0" encoding="UTF-8"?>
<svg width="247px" height="82px" viewBox="0 0 247 82" version="1.1" xmlns="http://www.w3.org/2000/svg" xmlns:xlink="http://www.w3.org/1999/xlink">
    <!-- Generator: Sketch 53.2 (72643) - https://sketchapp.com -->
    <title>mukana/konecranes copy</title>
    <desc>Created with Sketch.</desc>
    <defs>
        <polygon id="path-1" points="0.0111603867 0.0909571514 110.542514 0.0909571514 110.542514 20.1794672 0.0111603867 20.1794672"></polygon>
    </defs>
    <g id="mukana/konecranes-copy" stroke="none" stroke-width="1" fill="none" fill-rule="evenodd">
        <g id="cmyk_vector_logo_Konecranes" transform="translate(0.000000, 30.091783)">
            <path d="M183.394914,2.28806527 C183.702197,2.28806527 183.974696,2.25756022 183.974696,1.89577768 C183.974696,1.59351721 183.67969,1.55798998 183.431929,1.55798998 L182.937152,1.55798998 L182.937152,2.28806527 L183.394914,2.28806527 Z M182.937152,3.70506237 L182.527194,3.70506237 L182.527194,1.20773984 L183.473223,1.20773984 C184.077,1.20773984 184.384468,1.41904317 184.384468,1.92628274 C184.384468,2.37753437 184.107691,2.56502887 183.732702,2.60706633 L184.432458,3.70506237 L183.968186,3.70506237 L183.324418,2.63682736 L182.937152,2.63682736 L182.937152,3.70506237 Z M183.38394,0.550765082 C182.406662,0.550765082 181.646639,1.31673962 181.646639,2.41454966 C181.646639,3.43907315 182.310683,4.27833423 183.38394,4.27833423 C184.348755,4.27833423 185.108033,3.51756787 185.108033,2.41454966 C185.108033,1.31673962 184.348755,0.550765082 183.38394,0.550765082 Z M183.38394,4.67062182 C182.086917,4.67062182 181.164139,3.69836614 181.164139,2.41454966 C181.164139,1.05726063 182.189406,0.159221517 183.38394,0.159221517 C184.565267,0.159221517 185.591278,1.05726063 185.591278,2.41454966 C185.591278,3.77035063 184.565267,4.67062182 183.38394,4.67062182 L183.38394,4.67062182 Z" id="Fill-1" fill="#DD4534"></path>
            <polyline id="Fill-2" fill="#DD4534" points="52.0914768 1.20699582 52.0914768 15.8862524 41.1210027 1.20699582 37.1547873 1.20699582 37.1547873 21.2955058 40.9056073 21.2955058 40.9056073 6.37741696 52.0650639 21.2955058 55.8435988 21.2955058 55.8435988 1.20699582 52.0914768 1.20699582"></polyline>
            <polyline id="Fill-3" fill="#DD4534" points="58.042009 1.20699582 58.042009 21.2955058 71.5842082 21.2955058 71.5842082 18.0251405 61.793759 18.0251405 61.793759 12.7931512 71.2121953 12.7931512 71.2121953 9.52055386 61.793759 9.52055386 61.793759 4.47736113 71.5842082 4.47736113 71.5842082 1.20699582 58.042009 1.20699582"></polyline>
            <path d="M119.683987,5.58465749 L122.356341,12.4654079 L116.983173,12.4654079 L119.683987,5.58465749 Z M121.306521,1.20699582 L118.032435,1.20699582 L109.114356,21.2955058 L113.090988,21.2955058 L115.642067,15.4952669 L123.664897,15.4952669 L126.217463,21.2955058 L130.2246,21.2955058 L121.306521,1.20699582 L121.306521,1.20699582 Z" id="Fill-4" fill="#DD4534"></path>
            <polyline id="Fill-5" fill="#DD4534" points="144.967099 1.20699582 144.967099 15.8847644 133.996997 1.20699582 130.031339 1.20699582 130.031339 21.2955058 133.781229 21.2955058 133.781229 6.37592891 144.940872 21.2955058 148.720523 21.2955058 148.720523 1.20699582 144.967099 1.20699582"></polyline>
            <polyline id="Fill-6" fill="#DD4534" points="150.879686 1.20699582 150.879686 21.2955058 164.422443 21.2955058 164.422443 18.0251405 154.631808 18.0251405 154.631808 12.7931512 164.05043 12.7931512 164.05043 9.52055386 154.631808 9.52055386 154.631808 4.47736113 164.422443 4.47736113 164.422443 1.20699582 150.879686 1.20699582"></polyline>
            <path d="M174.176621,9.15579522 L173.248077,8.89203808 L173.000316,8.82098362 C171.882789,8.50198257 170.011006,7.96795807 170.011006,6.35119005 C170.011006,5.30136968 171.117001,3.84531123 173.193577,3.84531123 C174.739662,3.84531123 176.544483,4.54413744 176.544483,6.51115559 L176.544483,6.71018249 L180.617838,6.71018249 L180.617838,6.51115559 C180.617838,3.14834508 177.564728,0.799269692 173.193577,0.799269692 C168.188143,0.799269692 165.936349,4.06182273 165.936349,6.37741696 C165.936349,7.95549563 166.603368,9.40578788 167.720895,10.2580694 C168.944445,11.1903337 169.840252,11.5180771 173.138333,12.5133976 C173.136845,12.5133976 173.593862,12.6506703 173.593862,12.6506703 C175.217141,13.132427 177.056744,13.6789139 177.056744,15.5665073 C177.056744,17.4490786 175.504893,18.7139224 173.193577,18.7139224 C169.339709,18.7139224 169.29544,15.4632738 169.29544,15.325257 L169.29544,15.1269741 L165.220596,15.1269741 L165.220596,15.325257 C165.220596,19.7464442 169.353474,21.7597779 173.193577,21.7597779 C177.866245,21.7597779 181.1301,19.2124197 181.1301,15.5665073 C181.1301,11.0950984 177.274744,10.0197952 174.176621,9.15579522" id="Fill-7" fill="#DD4534"></path>
            <path d="M25.2332623,18.2366298 C21.4971368,18.2366298 18.4696959,15.1225099 18.4696959,11.2811049 C18.4696959,7.43895574 21.4971368,4.32483584 25.2332623,4.32483584 C28.9690157,4.32483584 31.9966426,7.43895574 31.9966426,11.2811049 C31.9966426,15.1225099 28.9690157,18.2366298 25.2332623,18.2366298 Z M25.2336343,0.798711673 C19.4438117,0.798711673 14.7510551,5.49165427 14.7510551,11.2811049 C14.7510551,17.0698114 19.4438117,21.762754 25.2336343,21.762754 C31.0227128,21.762754 35.7152834,17.0698114 35.7152834,11.2811049 C35.7152834,5.49165427 31.0227128,0.798711673 25.2336343,0.798711673 L25.2336343,0.798711673 Z" id="Fill-8" fill="#DD4534"></path>
            <path d="M89.8801741,11.37262 C89.8321844,15.1719877 86.8270643,18.2366298 83.1216299,18.2366298 C79.3858765,18.2366298 76.3584356,15.1225099 76.3584356,11.2811049 C76.3584356,7.44044379 79.3836444,4.32762594 83.1171658,4.32557987 L83.1171658,0.798711673 C77.3295752,0.80150177 72.6397947,5.49314232 72.6397947,11.2811049 C72.6397947,17.0698114 77.3323653,21.762754 83.1221879,21.762754 C88.8803894,21.762754 93.5515693,17.1191031 93.600861,11.37262 L89.8801741,11.37262" id="Fill-9" fill="#DD4534"></path>
            <g id="Group-13" transform="translate(0.000000, 1.116039)">
                <mask id="mask-2" fill="white">
                    <use xlink:href="#path-1"></use>
                </mask>
                <g id="Clip-11"></g>
                <path d="M98.4476309,3.11653798 L101.800211,3.11653798 C105.424361,3.11653798 106.709665,4.98962288 106.709665,6.59318443 C106.709665,8.99024948 104.761248,10.2537913 101.846899,10.2565814 L98.4476309,10.2565814 L98.4476309,3.11653798 Z M110.111537,19.598197 L110.542514,19.598197 L104.543806,12.757624 C106.376156,12.5053993 110.462531,11.4038691 110.462531,6.59318443 C110.462531,4.70484701 109.645033,2.90728073 108.275467,1.78528985 C106.811411,0.597266693 104.940372,0.0909571514 102.018769,0.0909571514 L94.6927188,0.0909571514 L94.6927188,20.1794672 L98.4476309,20.1794672 L98.4476309,10.7333159 L106.306403,20.1794672 L110.542514,20.1794672 L110.033042,19.598197 L110.111537,19.598197 L110.111537,19.598197 Z" id="Fill-10" fill="#DD4534" mask="url(#mask-2)"></path>
                <polygon id="Fill-12" fill="#DD4534" mask="url(#mask-2)" points="0.0111603867 20.1794672 3.72552308 20.1794672 3.72552308 0.0909571514 0.0111603867 0.0909571514"></polygon>
            </g>
            <polyline id="Fill-14" fill="#DD4534" points="12.8653217 1.20253166 3.47646045 11.1561085 12.8402109 21.2977379 17.7654755 21.2977379 8.41176944 11.1525744 17.7636155 1.20253166 12.8653217 1.20253166"></polyline>
        </g>
    </g>
</svg>