<svg xmlns="http://www.w3.org/2000/svg"
    xmlns:xlink="http://www.w3.org/1999/xlink" viewBox="0.56 17.12 108.76 51.42">
    <defs>
        <path id="a" d="M17.252 11.524V.15H.281v11.374z"/>
    </defs>
    <g fill="none" fill-rule="evenodd">
        <path d="M11.669 49.176H7.777c-2.896-.423-5.281-.733-6.487-2.533-2.752-4.107 2.825-8.615 7.298-7.915.533 2.823-4.008 1.974-3.73 4.75.356 3.554 12.486 1.933 15.48 1.448 2.368-.383 5.306-.88 8.923-2.375 1.438-.594 4.578-2.248 4.137-4.771-.523-2.991-9.168-4.194-12.811-4.907-5.18-1.014-10.911-2.015-13.945-3.642-2.652-1.419-4.55-4.748-1.947-7.755 4.218-4.864 17.591-5.13 25.622-3.323 1.869.422 6.34 1.096 5.028 3.957-5.273-1.344-12.714-2.93-19.785-1.583-2.465.473-5.51 1.607-5.188 4.117.242 1.897 3.302 2.848 5.742 3.416 6.069 1.411 12.327 1.792 18.095 3.705 3.32 1.102 7.419 3.218 5.351 7.597-1.76 3.728-7.349 5.67-11.838 6.965-4.935 1.421-10.355 2.498-16.053 2.849M81.763 39.24c0-1.403.991-2.526 3.21-2.526 1.467 0 2.657 1.123 2.657 2.526 0 1.371-1.19 2.526-2.656 2.526-2.22 0-3.21-1.155-3.21-2.526M44.85 65.009c-14.3-9.275 3.736-16.818 5.42-17.992 0 4.111-2.043 20.182-5.42 17.992m46.505-26.377c0-3.134-2.853-5.687-6.381-5.687-1.308 0-2.537.426-3.567 1.122-.04-.464-.08-.735-.08-.735-.158-.464-1.228-.464-1.228-.464s-.991.039-1.11.464c-.032.03-.377 2.124-.527 7.156 0 .968-.972 1.394-1.377 1.394-2.298 0 .556-8.937-3.567-8.937 0 0-3.766 0-5.628 6.77.039-.541.079-1.006.079-1.47 0-5.3-2.775-5.3-2.775-5.3-2.537 0-4.36 3.056-5.39 5.494.04-1.045.118-2.09.118-2.94 0-.542-.119-2.128-.198-2.283-.118-.078-.674-.271-1.308-.271h-.08c-.396 0-1.505.193-1.743.348-.199.232-.436 2.863-.436 3.753 0 .966.095 2.31.067 2.733-.093 1.448-1.382 2.548-2.565 3.17 0-4.565-.08-9.308-.158-9.501-.199-.387-.793-.503-1.665-.503-.912 0-1.348.154-1.586.503-.198.31-.238 1.625-.238 4.526v.851c-1.07 1.664-2.259 3.057-3.131 3.057-.833 0-1.03-1.47-1.03-3.211 0-1.2.119-3.211.119-4.333 0-.464-.04-.813-.08-.89-.198-.387-.951-.503-1.863-.503-.872 0-1.348.154-1.585.503-.16.31-.317 3.52-.317 4.41 0 3.675 1.268 6.461 4.003 6.461 1.744 0 3.052-1.16 3.963-2.399l.08 2.902-.34.21c-2.476 1.422-11.517 5.64-13.13 10.765-1.817 5.77 7.052 12.745 9.6 12.745h.57c4.383-.485 6.7-16.447 6.7-21.5v-.001c.02-.658.038-1.163.048-1.851 1.134-.694 2.397-1.463 2.935-2.911.182 1.22.336 1.827.356 1.847.119.193 1.15.193 1.15.193s1.07 0 1.189-.193l.04-.04c.198-.657 2.576-5.487 4.478-5.487 1.824 0-.594 5.643 3.528 5.643.357 0 3.33-5.643 4.558-5.643 1.943 0-.202 6.107 4.479 5.72.849-.07 1.63-.606 2.143-1.599-.01.69-.08 2.391-.08 3.146 0 .89.04 1.818.04 2.786.038 3.637.355 7.699.593 8.202.238.27 1.348.734 1.744.734h.04c.634 0 1.228-.464 1.308-.657.08-.194.119-1.277.119-3.018V51.98c-.04-2.36-.159-5.455-.278-8.434.912.464 1.943.774 3.013.774 3.528 0 6.381-2.553 6.381-5.687" fill="#E30613" fill-rule="nonzero"/>
        <g transform="translate(92.065 32.794)">
            <mask id="b" fill="#fff">
                <use xlink:href="#a"/>
            </mask>
            <path d="M9.873 6.349v.094c0 1.405-.99 2.528-3.25 2.528-1.427 0-2.616-1.155-2.616-2.528 0-1.405 1.19-2.529 2.616-2.529 2.18 0 3.171 1.061 3.25 2.373v.062Zm7.055.612c-.12 0-.204.075-.317.31-.743 1.535-1.526 1.857-2.417 1.816-.831-.038-1.03-1.47-1.03-3.21 0-1.2.118-3.212.118-4.334 0-.464-.04-.812-.079-.89C13.005.267 12.41.15 11.538.15c-.911 0-1.11.156-1.347.503-.04.078-.08.233-.12.503A6.529 6.529 0 0 0 6.624.15C3.135.15.28 2.704.28 5.837c0 3.134 2.854 5.687 6.342 5.687 1.586 0 3.052-.619 4.162-1.547.555 1.006 1.427 1.547 2.656 1.547 1.958 0 3.123-1.428 3.575-2.635.19-.51.236-.868.236-1.373 0-.356-.047-.555-.324-.555Z" fill="#E30613" fill-rule="nonzero" mask="url(#b)"/>
        </g>
    </g>
</svg>