<?xml version="1.0" encoding="UTF-8"?>
<svg width="247px" height="82px" viewBox="0 0 247 82" version="1.1" xmlns="http://www.w3.org/2000/svg" xmlns:xlink="http://www.w3.org/1999/xlink">
    <!-- Generator: Sketch 53.2 (72643) - https://sketchapp.com -->
    <title>mukana/sympa copy</title>
    <desc>Created with Sketch.</desc>
    <defs>
        <polygon id="path-1" points="17.2515383 11.5244872 17.2515383 0.15039489 0.281366788 0.15039489 0.281366788 11.5244872"></polygon>
    </defs>
    <g id="mukana/sympa-copy" stroke="none" stroke-width="1" fill="none" fill-rule="evenodd">
        <g id="sympa-logo" transform="translate(0.500000, 16.505032)">
            <path d="M11.168731,32.6706088 L7.27720989,32.6706088 C4.38113336,32.2480221 1.99585982,31.9384232 0.790469319,30.1376422 C-1.96237311,26.0305084 3.61525583,21.5231301 8.08756199,22.22276 C8.62060225,25.0461751 4.07962222,24.1971717 4.35824205,26.9720724 C4.71403827,30.5270348 16.8444656,28.9056298 19.8379936,28.4211233 C22.2056082,28.0381142 25.1435432,27.5402025 28.7610227,26.0458288 C30.1992505,25.4515264 33.3386289,23.7975656 32.8978078,21.2748127 C32.3752321,18.2835119 23.7301688,17.0808635 20.0865278,16.3684666 C14.9078615,15.3541309 9.17587983,14.3532006 6.14245544,12.7260504 C3.49033474,11.3070019 1.59166485,7.97801485 4.1953868,4.97075539 C8.41327248,0.106540353 21.7863704,-0.159650942 29.8166387,1.64815181 C31.6858769,2.07010012 36.157529,2.74355771 34.8448764,5.60527373 C29.5720288,4.26091193 22.131048,2.67525444 15.0602522,4.02153127 C12.5951861,4.49454746 9.55064312,5.62889262 9.87177537,8.13887863 C10.1137691,10.0360502 13.174009,10.9871893 15.6135676,11.5546811 C21.6830325,12.9660695 27.9408601,13.3471635 33.7094679,15.2596554 C37.0293605,16.3620831 41.1275574,18.4782082 39.0601459,22.8572784 C37.3001319,26.5852332 31.7113844,28.5277275 27.2220733,29.8216598 C22.2873629,31.2432617 16.8673569,32.3195172 11.168731,32.6706088" id="Fill-1" fill="#E30613" fill-rule="nonzero"></path>
            <path d="M81.2631367,22.7346517 C81.2631367,21.3315618 82.2540032,20.2087069 84.4738049,20.2087069 C85.9401567,20.2087069 87.1298498,21.3315618 87.1298498,22.7346517 C87.1298498,24.1064624 85.9401567,25.2605964 84.4738049,25.2605964 C82.2540032,25.2605964 81.2631367,24.1064624 81.2631367,22.7346517 M44.3499332,48.5035011 C30.0507186,39.2289367 48.0857934,31.6862117 49.7699391,30.5122889 C49.7699391,34.6232528 47.726727,50.6943129 44.3499332,48.5035011 M90.8552454,22.1269439 C90.8552454,18.9932915 88.0016818,16.4398978 84.4738049,16.4398978 C83.165731,16.4398978 81.9367951,16.8656762 80.9066865,17.5621144 C80.86679,17.098035 80.8268942,16.8267369 80.8268942,16.8267369 C80.668617,16.3626576 79.5986119,16.3626576 79.5986119,16.3626576 C79.5986119,16.3626576 78.6077461,16.4015969 78.488711,16.8267369 C78.457317,16.8573777 78.1119857,18.9505221 77.9622109,23.9832612 C77.9622109,24.9509974 76.9903116,25.3767758 76.5854631,25.3767758 C74.2865221,25.3767758 77.1407407,16.4398978 73.018344,16.4398978 C73.018344,16.4398978 69.2523982,16.4398978 67.3897004,23.2102212 C67.4289426,22.6689017 67.4688388,22.2041841 67.4688388,21.7401048 C67.4688388,16.4398978 64.6944132,16.4398978 64.6944132,16.4398978 C62.157403,16.4398978 60.3339474,19.4963101 59.3031848,21.9335244 C59.3430811,20.8891863 59.4222196,19.84421 59.4222196,18.9932915 C59.4222196,18.4519721 59.3031848,16.8656762 59.2240463,16.7111958 C59.1056656,16.6333174 58.5503881,16.4398978 57.915972,16.4398978 L57.8368335,16.4398978 C57.440487,16.4398978 56.3305859,16.6333174 56.0931704,16.7884361 C55.8943432,17.0201565 55.6569276,19.6507904 55.6569276,20.5406481 C55.6569276,21.5064693 55.7517631,22.8501927 55.7242935,23.274056 C55.6314202,24.7218303 54.3416589,25.8217047 53.1591597,26.443456 C53.1591597,21.8786264 53.0793672,17.1363359 53.0008827,16.9429164 C52.8020554,16.5560772 52.2075356,16.4398978 51.3357041,16.4398978 C50.4239763,16.4398978 49.9877335,16.5943781 49.750318,16.9429164 C49.5521448,17.2525153 49.5122485,18.5681515 49.5122485,21.4694451 L49.5122485,22.3203635 C48.4422437,23.9838995 47.2532041,25.3767758 46.3807185,25.3767758 C45.5481292,25.3767758 45.35061,23.9066594 45.35061,22.1658832 C45.35061,20.9664265 45.4696447,18.9549906 45.4696447,17.8327741 C45.4696447,17.3686947 45.4297485,17.0201565 45.3898522,16.9429164 C45.192333,16.5560772 44.4388822,16.4398978 43.5271544,16.4398978 C42.6553229,16.4398978 42.1791838,16.5943781 41.9417683,16.9429164 C41.7828373,17.2525153 41.6245603,20.4634079 41.6245603,21.3532656 C41.6245603,25.0282376 42.8927383,27.8139901 45.6279218,27.8139901 C47.3722389,27.8139901 48.6796591,26.6534726 49.591387,25.4150767 L49.6711795,28.3170086 C49.557377,28.3878654 49.4448827,28.4574453 49.3317342,28.5276636 C46.8548955,29.9492656 37.8141398,34.167472 36.2012841,39.2914948 C34.3837148,45.0628031 43.2531128,52.0367596 45.8005876,52.0367596 L46.370908,52.0367596 C50.7542651,51.5522532 53.0708647,35.5903507 53.0708647,30.5378229 C53.0702107,30.5371845 53.0702107,30.5365461 53.0702107,30.5359078 C53.0917939,29.8777705 53.1087989,29.372837 53.1192635,28.6846974 C54.2527098,27.991451 55.5156556,27.2222411 56.0539282,25.7738286 C56.2364045,26.9937124 56.3901033,27.6014201 56.4097244,27.6205706 C56.5287592,27.8139901 57.5595217,27.8139901 57.5595217,27.8139901 C57.5595217,27.8139901 58.6295265,27.8139901 58.7485613,27.6205706 L58.7884576,27.5816313 C58.9866308,26.9241324 61.36471,22.0937498 63.2673041,22.0937498 C65.0907597,22.0937498 62.6727843,27.73675 66.7951805,27.73675 C67.1522848,27.73675 70.1248837,22.0937498 71.3531656,22.0937498 C73.2956556,22.0937498 71.1510681,28.2008292 75.8320118,27.8139901 C76.6809524,27.7437718 77.4612189,27.2081974 77.9746378,26.2149273 C77.9654811,26.9049819 77.8941913,28.6061805 77.8941913,29.3613467 C77.8941913,30.2512044 77.9340878,31.179363 77.9340878,32.1470993 C77.9733299,35.7837703 78.2898837,39.8455813 78.5279532,40.3485999 C78.7660227,40.6192596 79.8759235,41.0833389 80.2722702,41.0833389 L80.3121667,41.0833389 C80.9459286,41.0833389 81.5404483,40.6192596 81.6202413,40.42584 C81.6993792,40.2324205 81.7386214,39.1491431 81.7386214,37.408367 L81.7386214,35.4741713 C81.6993792,33.1141971 81.5803448,30.0188456 81.4613097,27.0403118 C82.3730376,27.5043912 83.4038005,27.8139901 84.4738049,27.8139901 C88.0016818,27.8139901 90.8552454,25.2605964 90.8552454,22.1269439" id="Fill-3" fill="#E30613" fill-rule="nonzero"></path>
            <g id="Group-7" transform="translate(91.565203, 16.289375)">
                <g id="Fill-5-Clipped">
                    <mask id="mask-2" fill="white">
                        <use xlink:href="#path-1"></use>
                    </mask>
                    <g id="path-1"></g>
                    <path d="M9.87347586,6.34875814 L9.87347586,6.44259536 C9.87347586,7.84760026 8.88260954,8.97109351 6.62291114,8.97109351 C5.19645608,8.97109351 4.00676248,7.8163212 4.00676248,6.44259536 C4.00676248,5.03759046 5.19645608,3.91409723 6.62291114,3.91409723 C8.80281703,3.91409723 9.79433738,4.97503232 9.87347586,6.28683835 L9.87347586,6.34875814 Z M16.9279207,6.96093429 C16.808886,6.96093429 16.7238611,7.03562105 16.6107127,7.27053327 C15.8683805,8.80576127 15.085498,9.12812722 14.1940454,9.08727292 C13.3627641,9.04897198 13.1632828,7.61715647 13.1632828,5.8763803 C13.1632828,4.67692361 13.2823175,2.6654877 13.2823175,1.54327117 C13.2823175,1.07919185 13.2424213,0.731291964 13.203179,0.653413452 C13.0050058,0.266574305 12.410486,0.15039489 11.5380004,0.15039489 C10.6269267,0.15039489 10.4280993,0.305513558 10.1906839,0.653413452 C10.1507876,0.731291964 10.1115454,0.885772281 10.0716491,1.15643202 C9.08078283,0.537872387 7.89174322,0.15039489 6.62291114,0.15039489 C3.13493094,0.15039489 0.281366788,2.70378861 0.281366788,5.83744105 C0.281366788,8.97109351 3.13493094,11.5244872 6.62291114,11.5244872 C8.20895125,11.5244872 9.67530257,10.9052892 10.7852036,9.97713063 C11.3398272,10.9831678 12.2123127,11.5244872 13.4405946,11.5244872 C15.3987818,11.5244872 16.563622,10.0958634 17.0155617,8.88938491 C17.2065405,8.3793445 17.2516691,8.02123102 17.2516691,7.51629739 C17.2516691,7.16009902 17.2052325,6.96093429 16.9279207,6.96093429 L16.9279207,6.96093429 Z" id="Fill-5" fill="#E30613" fill-rule="nonzero" mask="url(#mask-2)"></path>
                </g>
            </g>
        </g>
    </g>
</svg>