<svg xmlns="http://www.w3.org/2000/svg" viewBox="0 0 129 25" fill="none">
    <path fill-rule="evenodd" clip-rule="evenodd" d="M109.829 18.744h3.309c.179 0 .224-.071.224-.24V.344c0-.165-.09-.237-.248-.237l-3.285.238c-.158.047-.203.118-.203.263v17.896c0 .169.043.24.203.24Zm-15.757-.375c-.045.143-.134.19-.267.238-1.104.094-1.735.14-2.59.14-2.274 0-3.42-1.021-3.42-3.582V7.386c0-.166-.046-.237-.204-.237h-1.35c-.133 0-.224-.095-.224-.238v-1.66c0-.143.069-.214.248-.214h1.328c.158 0 .203-.095.203-.26l.022-3.13c0-.142.07-.213.227-.237l3.287-.213c.158 0 .2.047.2.237V4.8c0 .143.07.238.25.238h1.755c.18 0 .246.07.246.237v1.635c0 .142-.067.214-.225.214h-1.777c-.157 0-.248.095-.248.26v7.376c0 1.28.54 1.636 1.78 1.636h.764c.112 0 .203.095.203.213v.024l-.208 1.737ZM74.144 5.037H70.88a.224.224 0 0 0-.225.166L67.911 16.21c-.045.116-.112.19-.224.19h-.067c-.09 0-.203-.072-.249-.214l-3.15-10.98c-.048-.143-.113-.167-.27-.167h-3.398c-.112 0-.224.047-.224.142 0 0 .024.024.024.048L64.48 17.69c.203.492.611.89 1.163.89h1.1c.09 0 .202.072.202.216v.024a1.4 1.4 0 0 1-.045.185c-.521 1.762-2.664 4.08-3.214 4.675a2.869 2.869 0 0 0-.128.143c-.038.066-.043.095-.043.118 0 .095.09.167.179.167h3.022a.63.63 0 0 0 .406-.167c1.065-1.046 1.787-1.8 2.855-3.877.74-1.44 1.318-3.404 1.607-4.44l2.745-10.39v-.048c-.007-.08-.074-.15-.186-.15Zm-31.61 13.541c.586 0 .973-.593 1.09-1.03l3.619-12.27v-.07c0-.095-.067-.167-.18-.167h-3.217c-.136 0-.249.048-.294.167l-2.7 11.007c-.045.163-.136.187-.248.187-.112 0-.248-.047-.27-.166L37.656 5.23c-.045-.14-.136-.19-.294-.19h-3.42c-.158 0-.225.072-.225.167 0 .023 0 .047.024.07l3.64 12.275c.108.396.538 1.032 1.085 1.032l4.068-.007ZM53.877 7.054c-2.05 0-2.475 1.611-2.475 3.534 0 .213.045.26.203.26h4.479c.158 0 .246-.023.246-.237 0-1.967-.36-3.557-2.453-3.557Zm6.077 5.907h-8.237c-.134 0-.203.024-.203.213 0 2.516 1.304 3.297 3.937 3.297.834 0 1.823-.095 2.926-.211h.067c.09 0 .158.023.158.19v.047l-.225 1.827c-.04.169-.097.188-.205.223l-.043.015c-1.125.19-2.927.308-3.758.308-4.006 0-6.887-1.54-6.887-7.044 0-4.743 2.453-7.02 6.414-7.02 4.907 0 6.28 2.727 6.28 7.899 0 .185-.09.256-.224.256Zm15.234 5.596c.967.166 2.362.332 3.758.332 4.073 0 6.096-1.683 6.094-4.433 0-2.535-2.058-3.335-3.822-4.02-1.322-.513-2.478-.962-2.478-2.03 0-1.21 1.035-1.423 2.611-1.423.572 0 1.427.062 2.145.114.273.02.526.039.736.052h.046c.112 0 .157-.071.181-.19l.268-1.59c0-.143-.134-.214-.268-.237-1.082-.238-2.523-.451-3.85-.451-3.04 0-5.648 1.091-5.648 3.89 0 2.37 1.929 3.194 3.656 3.931 1.4.598 2.667 1.139 2.667 2.402 0 1.256-1.1 1.614-2.857 1.614-1.163 0-2.615-.117-3.21-.165l-.01-.001c-.2 0-.267.071-.267.214v1.73c0 .142.069.213.248.26Zm28.351-6.356c0-.142-.045-.19-.224-.19h-1.711c-1.777 0-2.723.451-2.723 2.089 0 1.754.967 2.3 2.723 2.3h1.689c.203 0 .249-.072.249-.238v-3.96h-.003Zm3.691 5.81c0 .166-.045.285-.27.332l-.688.088h-.002c-1.57.201-3.39.434-5.072.434-3.557 0-6.099-1.018-6.099-4.649 0-3.557 2.475-4.412 5.335-4.412.876 0 2.341.167 3.06.261 0-2.133-.786-2.987-3.376-2.987-.763 0-1.778.075-2.675.142l-.318.024h-.067c-.158 0-.203-.071-.248-.211l-.2-1.71v-.047c0-.095.066-.142.18-.19a43.198 43.198 0 0 1 4.568-.284c3.579 0 5.874 1.35 5.874 5.147v8.062h-.002Zm14.792-11.052c-2.138 0-2.902 1.327-2.902 4.958 0 3.438.831 4.718 2.902 4.718 2.114 0 2.883-1.327 2.883-4.718-.002-3.653-.769-4.958-2.883-4.958Zm0 11.883c-4.185 0-6.66-2.324-6.66-6.901 0-4.982 2.632-7.115 6.66-7.115 4.028 0 6.641 2.088 6.641 7.115-.002 4.554-2.456 6.9-6.641 6.9ZM15.329 10.588c0-1.923.428-3.534 2.475-3.534 2.093 0 2.454 1.59 2.456 3.557 0 .214-.09.238-.248.238h-4.48c-.16 0-.203-.048-.203-.261Zm.313 2.373h8.24c.133 0 .224-.071.224-.256 0-5.172-1.373-7.898-6.28-7.898-3.96 0-6.414 2.276-6.414 7.02 0 5.503 2.88 7.043 6.887 7.043.831 0 2.632-.119 3.758-.308l.027-.01.016-.005c.107-.035.165-.054.205-.223l.225-1.827v-.047c0-.167-.067-.19-.158-.19h-.067c-1.104.116-2.093.21-2.926.21-2.633 0-3.94-.78-3.94-3.295 0-.19.07-.214.203-.214Zm17.014-5.836c-.722.018-1.217.055-1.843.103l-.696.051c-.134.01-.363.1-.363.425v10.618c0 .187-.067.259-.225.259h-3.287c-.134 0-.225-.072-.225-.238V6.548c0-.536.108-1.082.846-1.16 1.567-.166 4.037-.396 5.839-.468.133 0 .203.095.203.238v1.754c0 .118-.091.213-.249.213ZM13.743 3.511c.165 0 .234-.074.258-.247l.21-2.126v-.05c0-.124-.117-.173-.21-.173H.258C.045.915 0 .965 0 1.16v2.08c0 .173.093.272.234.272h4.682v14.7c0 .197.07.296.234.296h3.557c.213 0 .282-.123.282-.296V3.51h4.754Z" fill="#0046AD"/>
</svg>