<svg xmlns="http://www.w3.org/2000/svg" style="enable-background:new 0 0 366.9 185.9" xml:space="preserve" viewBox="44.6 44.6 277.6 96.7">
	<path class="st0" d="M130.2 112.2v-45l-39-22.5V62l15.3 8.8c.6.3.6 1.2 0 1.5L88.3 82.8c-.5.3-1.2.3-1.7 0L68.4 72.2c-.6-.3-.6-1.2 0-1.5l15.3-8.8V44.6l-39 22.5v45.1-.2.2l15-8.6V85.9c0-.6.7-1.1 1.3-.7l18.2 10.5c.5.3.9.9.9 1.5v21c0 .6-.7 1.1-1.3.7l-15.3-8.8-15 8.6 39 22.5 39-22.5-15-8.6-15.3 8.8c-.5.3-1.3-.1-1.3-.7v-21c0-.6.3-1.2.9-1.5L114 85.2c.5-.3 1.3.1 1.3.7v17.7l14.9 8.6z"></path>
	<path d="m87.4 141.3 39-22.5-15-8.6-15.3 8.8c-.5.3-1.3-.1-1.3-.7v-21c0-.6.3-1.2.9-1.5l18.2-10.5c.5-.3 1.3.1 1.3.7v17.7l15 8.6V67.2L87.4 91.9v49.4z"></path>
	<path d="M91.1 44.6v17.3l15.3 8.8c.6.3.6 1.2 0 1.5L88.2 82.7c-.5.3-1.2.3-1.7 0L68.4 72.2c-.6-.3-.6-1.2 0-1.5l15.3-8.8V44.6l-39 22.5 42.8 24.7 42.8-24.7-39.2-22.5z" style="fill:gray"></path>
	<path class="st0" d="m78.6 118.9-15.3-8.8-15 8.6 39 22.5V91.8L44.6 67.2v45.1-.2.2l15-8.6V86c0-.6.7-1.1 1.3-.7l18.2 10.5c.5.3.9.9.9 1.5v21c-.1.5-.8.9-1.4.6z"></path>
	<g>
		<path d="M152.7 97.2V69.8h11.5v27.8c0 4.5 2.3 7.6 8 7.6 5.3 0 7.9-3.2 7.9-7.8V69.8h11.5v27.4c0 10.7-6.4 17.2-19.4 17.2-13 0-19.5-6.3-19.5-17.2zM196.9 80.3h10.2v4.5h.2c2.5-3.6 5.7-5.5 10.3-5.5 7.3 0 11.6 5.2 11.6 12.6v21.6h-10.6V94.1c0-3.5-1.8-5.9-5.2-5.9-3.5 0-5.8 2.9-5.8 7v18.4H197V80.3zM234.6 67.2h10.6v8.6h-10.6v-8.6zm0 13.1h10.6v33.3h-10.6V80.3zM253.5 104.8V88.9h-4.4v-8.6h4.4V69.8h10.3v10.5h6v8.6h-6v13.6c0 2.6 1.4 3.2 3.7 3.2.9 0 1.9-.1 2.3-.1v7.7c-.9.3-2.9.5-5.8.5-6.1.2-10.5-1.8-10.5-9zM276.4 116.3h3.6c3.1 0 4.4-1.2 4.4-3.5 0-1.4-.6-3.4-2-6.9l-9.8-25.6h11.2l4.5 14.2c1 3.2 2.1 7.7 2.1 7.7h.1s.9-4.4 1.9-7.7l4.4-14.2h10.6L295.9 114c-2.7 7.8-5.8 10.5-12.5 10.5h-6.9v-8.2zM321.9 82.9c-.2-.5-.5-1-.9-1.4-.4-.4-.8-.7-1.4-.9-.5-.2-1.1-.3-1.6-.3s-1.1.1-1.6.3c-.5.2-1 .5-1.4.9s-.7.8-.9 1.4c-.2.5-.3 1.1-.3 1.6 0 .6.1 1.1.3 1.6.2.5.5 1 .9 1.4s.8.7 1.4.9c.5.2 1.1.3 1.6.3s1.1-.1 1.6-.3c.5-.2 1-.5 1.4-.9.4-.4.7-.8.9-1.4.2-.5.3-1.1.3-1.6s-.1-1.1-.3-1.6zm-1.1 3.3c-.3.5-.7.9-1.2 1.2-.5.3-1 .4-1.6.4-.6 0-1.1-.1-1.6-.4-.5-.3-.9-.7-1.2-1.2-.3-.5-.4-1-.4-1.6 0-.6.1-1.1.4-1.6.3-.5.7-.9 1.2-1.2.5-.3 1-.4 1.6-.4.6 0 1.1.1 1.6.4.5.3.9.7 1.2 1.2.3.5.4 1 .4 1.6 0 .6-.1 1.1-.4 1.6z"></path>
		<path d="M319.5 84.6c.1-.2.2-.4.2-.7 0-.3-.1-.5-.2-.7-.1-.2-.3-.3-.5-.4-.2-.1-.4-.1-.5-.1h-2v3.9h.9v-1.3h.9l.7 1.3h.9l-.8-1.5c.1-.2.3-.4.4-.5zm-2.1-1.4h.8c.1 0 .2 0 .4.1.1.1.2.2.2.5 0 .2-.1.4-.2.5-.1.1-.3.2-.4.2h-.8v-1.3z"></path>
	</g>
</svg>