<?xml version="1.0" encoding="UTF-8"?>
<svg width="247px" height="82px" viewBox="0 0 247 82" version="1.1" xmlns="http://www.w3.org/2000/svg" xmlns:xlink="http://www.w3.org/1999/xlink">
    <!-- Generator: Sketch 53.2 (72643) - https://sketchapp.com -->
    <title>logo/appgyver</title>
    <desc>Created with Sketch.</desc>
    <defs>
        <polygon id="path-1" points="0.0252433847 0.246543724 35.6547877 0.246543724 35.6547877 37.8398337 0.0252433847 37.8398337"></polygon>
    </defs>
    <g id="logo/appgyver" stroke="none" stroke-width="1" fill="none" fill-rule="evenodd">
        <g id="appgyver_logo.eps" transform="translate(25.500000, 21.928327)">
            <path d="M60.9291162,13.3735245 C60.9291162,13.3735245 60.9345856,13.1770468 60.753254,13.1097311 C60.5723431,13.0411533 60.4335044,13.2317408 60.4335044,13.2317408 L56.4025566,18.9716658 L60.9291339,18.9716658 L60.9291162,13.3735245 Z M63.4463024,27.57966 C63.2931592,27.57966 61.5185493,27.5767149 61.287993,27.5767149 C61.0725828,27.5767149 60.9291162,27.3575182 60.9291162,27.2090029 C60.9291162,27.060067 60.9291162,21.819961 60.9291162,21.819961 L54.4533466,21.819961 C54.4533466,21.819961 50.5561887,27.3659326 50.520848,27.4130536 C50.4850865,27.4601746 50.4396484,27.5001433 50.3942103,27.5316975 C50.3571867,27.5565202 50.2663105,27.5754527 50.1867939,27.5754527 C50.1072772,27.5754527 47.8017147,27.5754527 47.6426814,27.5754527 C47.4836481,27.5754527 47.3477545,27.4660647 47.2993714,27.3465794 C47.2509882,27.2275147 47.2766523,27.0798409 47.3464924,26.9813917 C47.4045521,26.8921985 59.60468,9.54999316 59.91307,9.10949609 C60.2589044,8.61514648 61.026724,7.95040401 62.1580483,8.1998928 C63.3928706,8.51249005 63.8072828,9.54620665 63.8072828,10.337166 C63.8072828,10.9968598 63.8077035,27.0369272 63.8077035,27.2090029 C63.8077035,27.3924382 63.6251097,27.57966 63.4463024,27.57966 L63.4463024,27.57966 Z" id="Fill-1" fill="#00B5FF"></path>
            <path d="M148.054134,11.5513728 C148.235466,11.5513728 149.962113,11.5513728 150.16364,11.5513728 C150.364745,11.5513728 150.546077,11.7108269 150.546077,11.9266578 C150.546077,12.1424888 150.546077,12.7786221 150.546077,12.7786221 C150.546077,12.7786221 150.543132,22.468716 150.543132,22.6929614 C150.543132,22.9403466 150.891491,23.0939105 151.06567,22.8406352 C151.239429,22.5877806 158.743445,11.8029652 158.779207,11.756265 C158.814968,11.7087233 158.859986,11.6687546 158.905424,11.6376211 C158.942447,11.6123777 159.033324,11.5926037 159.11284,11.5926037 C159.192357,11.5926037 161.497919,11.5926037 161.656953,11.5926037 C161.815565,11.5926037 161.95188,11.7028332 162.000684,11.8218978 C162.048646,11.9413831 162.022982,12.0890569 161.953142,12.1875061 C161.895503,12.2766994 151.870513,26.550992 151.562123,26.9914891 C151.216289,27.4858387 150.44889,28.1510019 149.317145,27.9010924 C148.082743,27.5884951 147.66791,26.5547785 147.66791,25.7642399 C147.66791,25.1045461 147.66791,16.6034156 147.66791,12.7962924 C147.66791,12.4374156 147.66791,12.1387023 147.66791,11.9237128 C147.66791,11.686425 147.872382,11.5513728 148.054134,11.5513728" id="Fill-2" fill="#36383B"></path>
            <path d="M75.8832973,13.9802072 C72.8145432,13.9802072 70.5771379,16.6185616 70.5771379,19.6014882 C70.5771379,22.672346 72.8145432,25.2522199 75.9695456,25.2522199 C79.0959388,25.2522199 81.3333441,22.7001137 81.3333441,19.659548 C81.3333441,16.6471708 78.9524722,13.9802072 75.8832973,13.9802072 Z M76.2855086,27.9780847 C74.1625399,27.9780847 71.8393071,27.1745036 70.6915745,25.2812498 L70.6343562,25.2812498 C70.6343562,25.2812498 70.6343562,32.3662264 70.6343562,32.5113759 C70.6343562,32.6960733 70.4593354,32.8832951 70.2691686,32.8832951 C70.0705873,32.8832951 68.2021561,32.8832951 68.0149343,32.8832951 C67.8272918,32.8832951 67.6514296,32.7015427 67.6514296,32.5113759 C67.6514296,32.3325686 67.6514296,14.2801827 67.6514296,14.1127349 C67.6514296,13.9452872 67.7986826,13.7437608 68.0283974,13.7437608 C68.1849064,13.7437608 68.9405251,13.7437608 69.0482302,13.7437608 C69.464746,13.7437608 70.3116616,13.7012678 71.2915256,12.9342896 C71.9760421,12.3987091 73.8179677,11.2547631 76.0839822,11.2547631 C80.9896133,11.2547631 84.3166914,15.0412708 84.3166914,19.831203 C84.3166914,24.3337814 80.8461468,27.9780847 76.2855086,27.9780847 L76.2855086,27.9780847 Z" id="Fill-3" fill="#00B5FF"></path>
            <path d="M95.3265937,13.9802072 C92.2578395,13.9802072 90.0204342,16.6185616 90.0204342,19.6014882 C90.0204342,22.672346 92.2578395,25.2522199 95.4132626,25.2522199 C98.5392351,25.2522199 100.777061,22.7001137 100.777061,19.659548 C100.777061,16.6471708 98.3961893,13.9802072 95.3265937,13.9802072 Z M95.7283842,27.9780847 C93.606257,27.9780847 91.2826034,27.1745036 90.1348709,25.2812498 L90.0780733,25.2812498 C90.0780733,25.2812498 90.0780733,32.3662264 90.0780733,32.5113759 C90.0780733,32.6960733 89.9026317,32.8832951 89.7124649,32.8832951 C89.5138836,32.8832951 87.6458732,32.8832951 87.4582307,32.8832951 C87.2705882,32.8832951 87.0947259,32.7015427 87.0947259,32.5113759 C87.0947259,32.3325686 87.0947259,14.2801827 87.0947259,14.1127349 C87.0947259,13.9452872 87.2423997,13.7437608 87.4721145,13.7437608 C87.6282028,13.7437608 88.3842422,13.7437608 88.4915265,13.7437608 C88.9080424,13.7437608 89.7549579,13.7012678 90.7344013,12.9342896 C91.4197592,12.3987091 93.2616848,11.2547631 95.5276993,11.2547631 C100.43291,11.2547631 103.759988,15.0412708 103.759988,19.831203 C103.759988,24.3337814 100.289443,27.9780847 95.7283842,27.9780847 L95.7283842,27.9780847 Z" id="Fill-4" fill="#00B5FF"></path>
            <path d="M128.066001,19.6120063 C127.315852,22.8301171 125.229066,25.4857212 122.03704,26.9452096 C120.602795,27.6057448 118.996474,27.9780847 117.418342,27.9780847 C111.338052,27.9780847 106.547699,23.0720329 106.547699,17.0199314 C106.547699,10.9392208 111.251804,5.94860361 117.390153,5.94860361 C121.145948,5.94860361 124.596719,7.93399581 126.566965,11.0894189 C126.572435,11.0982541 126.577483,11.1066685 126.582953,11.115083 C126.72095,11.3389077 126.561496,11.6851628 126.254789,11.6851628 C126.158443,11.6851628 123.602971,11.6851628 123.466657,11.6851628 C123.330342,11.6851628 123.21254,11.5883965 123.169206,11.5408548 C121.62389,9.84660293 119.876627,8.78806366 117.505011,8.78806366 C113.029779,8.78806366 109.645483,12.6599782 109.645483,17.0199314 C109.645483,21.3230871 113.145478,25.1369418 117.534041,25.1369418 C120.784968,25.1369418 123.42795,23.152391 124.698534,20.2241584 C124.750283,20.1038316 124.723357,20.0251564 124.679181,19.9591028 C124.644681,19.9081953 124.565585,19.8593915 124.465874,19.8593915 C124.378784,19.8593915 115.573892,19.8593915 115.346701,19.8593915 C115.11909,19.8593915 114.952063,19.6751148 114.952063,19.4820029 C114.952063,19.288891 114.952063,17.5370001 114.952063,17.3838569 C114.952063,17.230293 115.089219,17.0199314 115.331976,17.0199314 C117.226492,17.0199314 125.566486,17.0199314 126.02297,17.0199314 C126.537935,17.0199314 127.109698,17.2227199 127.514434,17.6472295 C127.920011,18.0704769 128.259955,18.7823404 128.066001,19.6120063" id="Fill-5" fill="#36383B"></path>
            <path d="M175.338447,18.2863079 C175.336764,18.277052 175.335502,18.2677961 175.333819,18.2585402 C174.974942,15.8271815 172.697989,13.9802072 170.239283,13.9802072 C167.656885,13.9802072 165.276433,16.0160862 165.104358,18.6266729 C165.104358,18.6266729 174.872706,18.6266729 175.060349,18.6266729 C175.247991,18.6266729 175.370001,18.4625909 175.338447,18.2863079 Z M176.181996,20.9217172 C175.029215,20.9217172 165.104358,20.9217172 165.104358,20.9217172 C165.707254,23.3879959 167.714524,25.2522199 170.32469,25.2522199 C172.104348,25.2522199 173.831416,24.3384094 174.733447,22.8078188 C174.737233,22.8010872 174.740599,22.7943557 174.745227,22.7876241 C174.783513,22.7211499 174.892901,22.5844149 175.088958,22.5844149 C175.285015,22.5844149 177.022601,22.5844149 177.280504,22.5844149 C177.550609,22.582732 177.734885,22.8524155 177.629284,23.1014835 C177.625076,23.1111601 177.620869,23.1212575 177.616241,23.1309341 C176.29475,26.0654776 173.482216,27.9780847 170.209832,27.9780847 C165.677803,27.9780847 162.121431,24.0485312 162.121431,19.6014882 C162.121431,15.0126616 165.620164,11.2547631 170.267892,11.2547631 C174.462922,11.2547631 177.862364,14.4665631 178.306648,18.5244371 C178.309172,18.5463147 178.311697,18.5677716 178.3138,18.5892285 C178.461895,19.5442699 177.715111,20.9217172 176.181996,20.9217172 L176.181996,20.9217172 Z" id="Fill-6" fill="#36383B"></path>
            <path d="M189.312764,13.9919874 C189.299721,13.9928289 189.287941,13.994091 189.274899,13.9953532 C188.172183,14.0975889 186.934837,14.6133954 186.053001,15.5608638 C184.91747,16.7818022 184.534612,18.0877266 184.534612,18.8849968 C184.534612,18.8849968 184.534612,27.0142081 184.534612,27.1989056 C184.534612,27.383603 184.386096,27.5754527 184.156382,27.5754527 C183.968739,27.5754527 182.131862,27.5754527 181.918976,27.5754527 C181.70609,27.5754527 181.551264,27.4117915 181.551264,27.2018506 C181.551264,25.0582666 181.551264,14.4177592 181.551264,14.1245152 C181.551264,13.7976134 181.870593,13.7437608 181.936226,13.7437608 C182.001438,13.7437608 182.265231,13.7546996 182.895475,13.7546996 C184.224539,13.7546996 184.91747,13.1303466 185.530463,12.7045748 C186.090446,12.3158267 187.618933,11.431046 189.214314,11.2787443 C189.231985,11.2770614 189.221467,11.2762199 189.267326,11.2745371 C189.5084,11.256446 189.675848,11.4760634 189.675848,11.6502428 C189.675848,11.8240014 189.675848,13.436633 189.675848,13.6225926 C189.675848,13.8081314 189.525229,13.9680062 189.312764,13.9919874" id="Fill-7" fill="#36383B"></path>
            <path d="M133.882077,23.4313304 C133.882077,23.4313304 133.882077,12.0852704 133.882077,11.9068838 C133.882077,11.7272351 133.737769,11.5324403 133.50553,11.5324403 C133.27287,11.5324403 131.50962,11.5324403 131.27107,11.5324403 C131.032099,11.5324403 130.895364,11.7478505 130.895364,11.9178226 C130.895364,12.0882155 130.895364,27.6591766 130.895364,27.6591766 L130.7763,27.8169478 C130.7763,27.8169478 127.786641,32.0464769 127.616669,32.2829233 C127.446276,32.5197904 127.596895,32.8862402 127.914962,32.8862402 C128.247333,32.8862402 130.549951,32.8807708 130.651766,32.8807708 C130.754001,32.8807708 130.896626,32.8197659 130.977826,32.7049085 C132.38851,30.7115226 145.331635,12.4180624 145.519278,12.1530068 C145.717438,11.8728053 145.500766,11.5471656 145.216778,11.5471656 C144.932369,11.5471656 142.64658,11.5471656 142.490913,11.5471656 C142.335666,11.5471656 142.222912,11.6363589 142.161487,11.7247108 C142.100061,11.8130626 134.13956,23.0636184 134.13956,23.0636184 L133.882077,23.4313304" id="Fill-8" fill="#36383B"></path>
            <path d="M192.521619,25.2450676 L192.769424,25.2450676 C193.059303,25.2450676 193.293225,25.148722 193.293225,24.9139585 C193.293225,24.7073835 193.141764,24.5698071 192.811076,24.5698071 C192.673079,24.5698071 192.576733,24.5836909 192.521619,24.5971541 L192.521619,25.2450676 Z M192.507735,26.513127 L191.983934,26.513127 L191.983934,24.2664657 C192.19093,24.2248141 192.479967,24.1835833 192.851886,24.1835833 C193.279341,24.1835833 193.472873,24.2525819 193.637797,24.3628113 C193.76191,24.4595776 193.858676,24.6383849 193.858676,24.84496 C193.858676,25.1070704 193.665565,25.3001823 193.38957,25.3830648 L193.38957,25.4104118 C193.61045,25.4794104 193.734563,25.6582177 193.803141,25.9619797 C193.87214,26.3065519 193.91337,26.4441284 193.968906,26.513127 L193.403875,26.513127 C193.334456,26.4302445 193.293225,26.2375533 193.224647,25.9754429 C193.182995,25.7272162 193.044998,25.6174075 192.755541,25.6174075 L192.507735,25.6174075 L192.507735,26.513127 Z M192.851886,23.5360905 C191.859821,23.5360905 191.115562,24.3493482 191.115562,25.3414132 C191.115562,26.3477828 191.859821,27.1471566 192.879654,27.1471566 C193.87214,27.1610405 194.602936,26.3477828 194.602936,25.3414132 C194.602936,24.3493482 193.87214,23.5360905 192.866191,23.5360905 L192.851886,23.5360905 Z M192.879654,23.0812888 C194.175481,23.0812888 195.18143,24.0876584 195.18143,25.3414132 C195.18143,26.6233564 194.175481,27.6154214 192.866191,27.6154214 C191.570784,27.6154214 190.537068,26.6233564 190.537068,25.3414132 C190.537068,24.0876584 191.570784,23.0812888 192.866191,23.0812888 L192.879654,23.0812888 L192.879654,23.0812888 Z" id="Fill-9" fill="#36383B"></path>
            <g id="Group-17">
                <mask id="mask-2" fill="white">
                    <use xlink:href="#path-1"></use>
                </mask>
                <g id="Clip-11"></g>
                <path d="M32.4924433,19.5749827 L19.3318047,19.5749827 C19.0406644,19.5749827 18.8046387,19.8110083 18.8046387,20.1021487 L18.8046387,25.742783 C18.8046387,26.0339234 19.0406644,26.269949 19.3318047,26.269949 L32.3796896,26.269949 C32.6506352,26.269949 33.1302595,21.6575619 33.1946302,20.7879273 C33.200941,20.7058863 33.1874779,20.6246868 33.1559236,20.5489566 C33.0810349,20.3680457 32.9337819,20.0133761 32.8660454,19.8476112 C32.7726449,19.6204208 32.5972034,19.5749827 32.4924433,19.5749827" id="Fill-10" fill="#36373A" mask="url(#mask-2)"></path>
                <path d="M18.8778445,34.1959511 L3.66702235,18.9720865 L2.23530172,17.6909847 L1.00468671,20.3533204 L0,22.7775267 L0,23.7628602 C0,24.6236596 0.382858001,25.1571365 0.785069264,25.558927 C0.84733628,25.621194 12.1736223,36.9352791 12.3162474,37.0779042 C12.7180379,37.4796947 13.2519355,37.8629734 14.1123142,37.8629734 L15.072825,37.8629734 L17.4966107,36.857866 L20.1589463,35.627251 L18.8778445,34.1959511" id="Fill-12" fill="#36373A" mask="url(#mask-2)"></path>
                <path d="M35.5073449,11.1668319 C35.5073449,11.1668319 25.5484089,1.23902947 25.3405717,1.03161299 C24.9387812,0.629401725 24.4053043,0.246543724 23.5449256,0.246543724 L22.5844149,0.246543724 L20.1606292,1.25123044 L17.4982936,2.48184544 L18.7793953,3.91314535 L27.0112631,12.1702565 L27.0213604,12.1492203 L30.6930107,15.8208706 C30.7725274,15.8999666 31.4360077,15.4455857 32.2332779,14.8456345 C33.5042824,13.8889103 35.115231,12.5619497 35.2418687,12.435312 C35.2418687,12.435312 35.4833637,11.8500862 35.5784471,11.6233165 C35.6726891,11.3969675 35.5809715,11.2408792 35.5073449,11.1668319" id="Fill-13" fill="#36373A" mask="url(#mask-2)"></path>
                <path d="M35.6205194,26.5173342 C35.5506794,26.3494657 32.8710941,19.831203 32.8710941,19.831203 C32.8816122,19.8568671 32.887923,19.8842141 32.8917096,19.9119819 C32.8689905,19.8572879 32.8567895,19.8278372 32.8567895,19.8278372 C32.9119043,19.9599443 32.8753014,20.1370687 32.7532917,20.2594991 C32.4810838,20.5321277 16.1991007,36.8048549 15.8511627,37.1515307 C15.3239967,37.6778553 14.6411631,37.8650771 14.0879123,37.8650771 C14.0879123,37.8650771 22.8095017,37.8650771 23.5769006,37.8650771 C24.3447202,37.8650771 24.9829571,37.5162976 25.3595043,37.1397505 C25.3595043,37.1397505 35.413103,27.0869932 35.533009,26.9654043 C35.6676404,26.82909 35.6806828,26.6612215 35.6205194,26.5173342" id="Fill-14" fill="#00B6FF" mask="url(#mask-2)"></path>
                <path d="M18.7987486,12.3015221 L18.7987486,17.94426 C18.7987486,18.2358211 19.0347742,18.4722675 19.3263353,18.4722675 L26.5955887,18.4722675 C26.5955887,18.4722675 32.4819253,18.4701639 32.4966506,18.4701639 C32.6885003,18.4689017 32.8164001,18.359093 32.8761428,18.214785 C32.9455621,18.0464957 35.6184158,11.5433791 35.6184158,11.5433791 C35.5641425,11.6750654 35.4126822,11.7751975 35.2401858,11.7756182 C34.8543827,11.7756182 26.2270353,11.7743561 26.2270353,11.7743561 L19.3254939,11.7743561 C19.0347742,11.7743561 18.7987486,12.0103817 18.7987486,12.3015221" id="Fill-15" fill="#00B6FF" mask="url(#mask-2)"></path>
                <path d="M23.5234688,0.248647339 C23.5234688,0.248647339 14.8023001,0.248647339 14.0344805,0.248647339 C13.5893554,0.248647339 13.1900892,0.367711971 12.857718,0.53978771 C12.8514072,0.542732771 12.845517,0.545677833 12.8392062,0.548622894 C12.8063898,0.566293264 12.7735734,0.58354291 12.7424399,0.602054725 C12.5648947,0.698821033 0.727850926,12.432367 0.727850926,12.432367 C0.350883047,12.8093348 0.00252433847,13.447151 0.00252433847,14.2149707 C0.00252433847,14.2259095 0.00252433847,14.2385311 0.00252433847,14.252415 C0.00252433847,14.9903633 0.00252433847,23.0821303 0.00252433847,23.703959 C0.00252433847,23.7287816 0.00252433847,23.741824 0.00252433847,23.741824 C0.00252433847,23.1885732 0.189325385,22.5057396 0.71607068,21.9781529 C0.816623495,21.8771794 1.5768701,21.116512 2.73722435,19.9548956 L2.74227303,19.9628894 C2.74227303,19.9628894 21.2326316,1.48851825 21.7602183,0.96219368 C22.2873844,0.435869109 22.9706386,0.248647339 23.5234688,0.248647339" id="Fill-16" fill="#00B6FF" mask="url(#mask-2)"></path>
            </g>
        </g>
    </g>
</svg>