<?xml version="1.0" encoding="UTF-8"?>
<svg width="247px" height="82px" viewBox="0 0 247 82" version="1.1" xmlns="http://www.w3.org/2000/svg" xmlns:xlink="http://www.w3.org/1999/xlink">
    <!-- Generator: Sketch 53.2 (72643) - https://sketchapp.com -->
    <title>circles</title>
    <desc>Created with Sketch.</desc>
    <defs>
        <linearGradient x1="22.9860798%" y1="22.6360491%" x2="113.045622%" y2="116.054845%" id="linearGradient-1">
            <stop stop-color="#153974" offset="1.248265e-05%"></stop>
            <stop stop-color="#104780" offset="5.847645%"></stop>
            <stop stop-color="#006096" offset="16.99%"></stop>
            <stop stop-color="#0078AA" offset="28.67%"></stop>
            <stop stop-color="#008BBB" offset="40.76%"></stop>
            <stop stop-color="#009BC8" offset="53.38%"></stop>
            <stop stop-color="#00A6D2" offset="66.79%"></stop>
            <stop stop-color="#00ADD7" offset="81.5%"></stop>
            <stop stop-color="#00AFD9" offset="100%"></stop>
        </linearGradient>
    </defs>
    <g id="circles" stroke="none" stroke-width="1" fill="none" fill-rule="evenodd">
        <g id="Circles_Consulting_Logo_247x82px_noborders_SVG" transform="translate(30.987241, 6.201623)" fill-rule="nonzero">
            <g id="Group" transform="translate(78.084163, 16.126077)" fill="#000000">
                <path d="M7.72354223,2.37647453 C11.0336318,2.37647453 13.5798545,4.32857861 14.4285954,7.46891996 L10.6941354,7.46891996 C10.1000168,6.1958086 9.08152768,5.60168997 7.72354223,5.60168997 C5.60168997,5.60168997 4.15883043,7.21429769 4.15883043,9.7605204 C4.15883043,12.3067431 5.60168997,13.9193508 7.72354223,13.9193508 C8.99665359,13.9193508 10.1000168,13.3252322 10.6941354,12.0521208 L14.4285954,12.0521208 C13.6647286,15.1924622 11.1185059,17.1445663 7.72354223,17.1445663 C3.5647118,17.1445663 0.678992724,14.089099 0.678992724,9.7605204 C0.678992724,5.43194179 3.64958589,2.37647453 7.72354223,2.37647453 Z" id="Path"></path>
                <path d="M16.2109513,2.37647453 C16.2109513,1.27311136 17.0596922,0.424370452 18.2479295,0.424370452 C19.4361667,0.424370452 20.2849076,1.27311136 20.2849076,2.37647453 C20.2849076,3.39496362 19.4361667,4.24370452 18.2479295,4.24370452 C17.0596922,4.32857861 16.2109513,3.47983771 16.2109513,2.37647453 Z M16.5504476,5.51681588 L19.9454113,5.51681588 L19.9454113,16.9748181 L16.5504476,16.9748181 L16.5504476,5.51681588 Z" id="Shape"></path>
                <path d="M25.8865976,16.9748181 L22.491634,16.9748181 L22.491634,5.51681588 L25.8865976,5.51681588 L25.8865976,7.46891996 C26.6504644,6.28068269 27.9235758,5.43194179 29.3664353,5.43194179 L29.3664353,9.16640177 L28.4328203,9.16640177 C26.8202126,9.16640177 25.8865976,9.7605204 25.8865976,11.7126245 L25.8865976,16.9748181 Z" id="Path"></path>
                <path d="M35.9017403,5.3470677 C38.7025853,5.3470677 40.6546893,6.95967542 41.248808,9.67564631 L37.5992221,9.67564631 C37.3445998,8.9117795 36.7504812,8.31766087 35.8168662,8.31766087 C34.6286289,8.31766087 33.779888,9.33614995 33.779888,11.2033799 C33.779888,13.0706099 34.6286289,14.089099 35.8168662,14.089099 C36.7504812,14.089099 37.2597257,13.5798545 37.5992221,12.7311136 L41.248808,12.7311136 C40.6546893,15.3622104 38.7025853,17.0596922 35.9017403,17.0596922 C32.5916507,17.0596922 30.3000503,14.7680917 30.3000503,11.1185059 C30.3000503,7.63866814 32.6765248,5.3470677 35.9017403,5.3470677 Z" id="Path"></path>
                <polygon id="Path" points="43.116038 1.7823559 46.5110016 1.7823559 46.5110016 17.0596922 43.116038 17.0596922"></polygon>
                <path d="M53.9799215,17.1445663 C50.669832,17.1445663 48.2933575,14.8529658 48.2933575,11.2033799 C48.2933575,7.55379405 50.5849579,5.26219361 53.9799215,5.26219361 C57.205137,5.26219361 59.5816115,7.46891996 59.5816115,11.0336318 C59.5816115,11.3731281 59.5816115,11.7126245 59.4967374,12.0521208 L51.7731952,12.0521208 C51.8580693,13.5798545 52.7916843,14.2588472 53.8950474,14.2588472 C54.8286624,14.2588472 55.4227811,13.7496027 55.6774033,13.155484 L59.3269892,13.155484 C58.7328706,15.4470845 56.7807665,17.1445663 53.9799215,17.1445663 Z M51.7731952,10.1848909 L56.0168997,10.1848909 C56.0168997,8.9117795 55.0832847,8.23278678 53.8950474,8.23278678 C52.7916843,8.14791268 51.9429434,8.82690541 51.7731952,10.1848909 Z" id="Shape"></path>
                <path d="M65.8622942,17.1445663 C62.891701,17.1445663 60.8547229,15.4470845 60.6849747,13.2403581 L64.0799383,13.2403581 C64.1648124,14.0042249 64.8438051,14.5983436 65.7774201,14.5983436 C66.626161,14.5983436 67.1354056,14.1739731 67.1354056,13.6647286 C67.1354056,11.7974986 61.024471,13.155484 61.024471,8.9117795 C61.024471,6.95967542 62.6370788,5.3470677 65.6076719,5.3470677 C68.493391,5.3470677 70.1059987,6.95967542 70.2757469,9.25127586 L67.1354056,9.25127586 C67.0505315,8.48740905 66.4564128,7.9781645 65.5227978,7.9781645 C64.758931,7.9781645 64.2496865,8.31766087 64.2496865,8.82690541 C64.2496865,10.6941354 70.2757469,9.33614995 70.360621,13.6647286 C70.4454951,15.7017067 68.7480133,17.1445663 65.8622942,17.1445663 Z" id="Path"></path>
                <path d="M7.89329041,23.3403749 C10.9487577,23.3403749 13.3252322,24.8681085 14.3437213,27.6689535 L12.1369949,27.6689535 C11.3731281,25.9714717 9.93026858,24.9529826 7.89329041,24.9529826 C5.00757134,24.9529826 2.80084499,27.1597089 2.80084499,30.6395467 C2.80084499,34.1193844 5.00757134,36.3261107 7.89329041,36.3261107 C9.93026858,36.3261107 11.4580022,35.3924957 12.1369949,33.6101398 L14.3437213,33.6101398 C13.3252322,36.4109848 10.8638836,37.9387184 7.89329041,37.9387184 C3.98908225,37.9387184 0.933614995,34.9681253 0.933614995,30.6395467 C0.933614995,26.3958421 3.98908225,23.3403749 7.89329041,23.3403749 Z" id="Path"></path>
                <path d="M21.8126412,38.1084666 C18.6722999,38.1084666 16.3806995,35.8168662 16.3806995,32.2521544 C16.3806995,28.6874426 18.8420481,26.3958421 21.8975153,26.3958421 C25.0378567,26.3958421 27.4143312,28.6025685 27.4143312,32.2521544 C27.4143312,35.8168662 24.9529826,38.1084666 21.8126412,38.1084666 Z M21.8126412,36.4109848 C23.6798712,36.4109848 25.5471012,35.0529994 25.5471012,32.1672803 C25.5471012,29.2815612 23.7647453,28.0084499 21.8126412,28.0084499 C19.8605372,28.0084499 18.1630554,29.3664353 18.1630554,32.1672803 C18.2479295,35.1378735 19.9454113,36.4109848 21.8126412,36.4109848 Z" id="Shape"></path>
                <path d="M37.8538443,31.4882876 C37.8538443,29.1966871 36.6656071,28.0084499 34.7983771,28.0084499 C32.9311471,28.0084499 31.6580357,29.1966871 31.6580357,31.6580357 L31.6580357,37.9387184 L29.8756798,37.9387184 L29.8756798,26.5655903 L31.6580357,26.5655903 L31.6580357,28.178198 C32.3370285,26.9899608 33.6950139,26.3958421 35.2227475,26.3958421 C37.7689703,26.3958421 39.7210743,28.0084499 39.7210743,31.2336653 L39.7210743,37.9387184 L37.9387184,37.9387184 L37.9387184,31.4882876 L37.8538443,31.4882876 Z" id="Path"></path>
                <path d="M46.5110016,38.1084666 C43.9647789,38.1084666 42.182423,36.6656071 42.0126748,34.6286289 L43.8799048,34.6286289 C43.9647789,35.7319921 44.8983939,36.580733 46.4261275,36.580733 C47.868987,36.580733 48.6328538,35.8168662 48.6328538,34.8832512 C48.6328538,32.3370285 42.182423,33.8647621 42.182423,29.6210576 C42.182423,27.9235758 43.7950307,26.4807162 46.1715052,26.4807162 C48.6328538,26.4807162 50.1605875,27.8387017 50.3303356,30.045428 L48.5479797,30.045428 C48.4631057,28.9420648 47.6143648,28.0933239 46.1715052,28.0933239 C44.8135198,28.0933239 44.049653,28.7723167 44.049653,29.6210576 C44.049653,32.3370285 50.4152097,30.8092948 50.5000838,34.8832512 C50.5849579,36.6656071 48.9723502,38.1084666 46.5110016,38.1084666 Z" id="Path"></path>
                <path d="M62.8068269,37.9387184 L61.024471,37.9387184 L61.024471,36.2412366 C60.3454783,37.4294739 58.9874929,38.1084666 57.5446333,38.1084666 C54.9984106,38.1084666 53.0463065,36.4958589 53.0463065,33.2706435 L53.0463065,26.6504644 L54.8286624,26.6504644 L54.8286624,33.0160212 C54.8286624,35.3076216 56.0168997,36.4958589 57.8841297,36.4958589 C59.7513597,36.4958589 61.024471,35.3076216 61.024471,32.846273 L61.024471,26.6504644 L62.8068269,26.6504644 L62.8068269,37.9387184 L62.8068269,37.9387184 Z" id="Path"></path>
                <polygon id="Path" points="65.9471683 22.6613822 67.7295242 22.6613822 67.7295242 37.9387184 65.9471683 37.9387184"></polygon>
                <path d="M71.2093619,28.178198 L69.7665024,28.178198 L69.7665024,26.6504644 L71.2093619,26.6504644 L71.2093619,23.7647453 L72.9917178,23.7647453 L72.9917178,26.6504644 L75.8774369,26.6504644 L75.8774369,28.178198 L72.9917178,28.178198 L72.9917178,34.7983771 C72.9917178,35.9017403 73.4160883,36.3261107 74.5194514,36.3261107 L75.8774369,36.3261107 L75.8774369,37.9387184 L74.2648292,37.9387184 C72.3127251,37.9387184 71.2093619,37.0899775 71.2093619,34.8832512 L71.2093619,28.178198 Z" id="Path"></path>
                <path d="M77.829541,23.5101231 C77.829541,22.7462562 78.3387855,22.2370117 79.1026523,22.2370117 C79.781645,22.2370117 80.2908896,22.8311303 80.2908896,23.5101231 C80.2908896,24.2739899 79.781645,24.7832344 79.1026523,24.7832344 C78.3387855,24.7832344 77.829541,24.1891158 77.829541,23.5101231 Z M78.1690373,26.5655903 L79.9513932,26.5655903 L79.9513932,37.8538443 L78.1690373,37.8538443 L78.1690373,26.5655903 Z" id="Shape"></path>
                <path d="M91.0698991,31.4882876 C91.0698991,29.1966871 89.8816618,28.0084499 88.0144318,28.0084499 C86.1472018,28.0084499 84.8740905,29.1966871 84.8740905,31.6580357 L84.8740905,37.9387184 L83.0917346,37.9387184 L83.0917346,26.5655903 L84.8740905,26.5655903 L84.8740905,28.178198 C85.5530832,26.9899608 86.9110686,26.3958421 88.4388023,26.3958421 C90.985025,26.3958421 92.9371291,28.0084499 92.9371291,31.2336653 L92.9371291,37.9387184 L91.1547732,37.9387184 L91.1547732,31.4882876 L91.0698991,31.4882876 Z" id="Path"></path>
                <path d="M100.406049,26.3958421 C102.443027,26.3958421 103.885887,27.4143312 104.480005,28.6025685 L104.480005,26.5655903 L106.347235,26.5655903 L106.347235,38.1933407 C106.347235,41.3336821 104.310257,43.5404084 101.085042,43.5404084 C98.1993227,43.5404084 96.1623445,42.0126748 95.737974,39.6362002 L97.5203299,39.6362002 C97.9447004,40.9941857 99.2178118,41.9278007 101.000168,41.9278007 C102.952272,41.9278007 104.395131,40.6546893 104.395131,38.1933407 L104.395131,35.8168662 C103.716139,37.0051034 102.273279,38.1084666 100.321175,38.1084666 C97.3505818,38.1084666 95.1438554,35.7319921 95.1438554,32.2521544 C95.2287295,28.6874426 97.4354559,26.3958421 100.406049,26.3958421 Z M100.745545,28.0084499 C98.7085672,28.0084499 97.0110854,29.5361835 97.0110854,32.1672803 C97.0110854,34.7983771 98.7085672,36.4109848 100.745545,36.4109848 C102.782524,36.4109848 104.480005,34.8832512 104.480005,32.1672803 C104.480005,29.6210576 102.782524,28.0084499 100.745545,28.0084499 Z" id="Shape"></path>
            </g>
            <path d="M26.9050867,1.61260772 C31.5731617,0.424370452 36.1563625,0.509244543 40.8244375,1.35798545 C40.0605707,1.27311136 39.381578,1.27311136 38.6177112,1.18823727 C31.3185394,0.509244543 24.358864,1.7823559 17.9933072,5.60168997 C16.8050699,6.36555678 15.6168326,7.04454951 14.3437213,7.80841632 C15.1075881,6.36555678 22.5765081,2.71597089 26.9050867,1.61260772 M15.8714549,5.60168997 C12.5613654,7.72354223 9.67564631,10.354639 7.29917178,13.4949804 C2.97059317,19.1815444 0.424370452,25.5471012 0.169748181,32.6765248 C-0.169748181,40.9093116 2.20672635,48.2933575 7.04454951,54.8286624 C14.5983436,65.0984274 28.0084499,70.9547396 41.5034302,68.4085169 C52.6219361,66.2866647 60.8547229,60.090856 66.0320424,49.9908393 C66.0320424,49.9059652 66.1169165,49.8210911 66.1169165,49.736217 C66.1169165,49.6513429 66.1169165,49.5664688 66.2017906,49.4815947 C65.5227978,50.5849579 64.9286792,51.6883211 64.0799383,52.7068102 C63.9950642,52.7068102 63.9950642,52.6219361 63.9101901,52.6219361 C64.3345606,51.5185729 64.758931,50.4152097 65.2681756,49.3118466 C64.0799383,51.3488247 62.9765751,53.3009288 61.8732119,55.337907 C61.7883379,55.337907 61.7883379,55.2530329 61.7034638,55.2530329 C62.891701,53.0463065 64.0799383,50.8395802 64.8438051,48.5479797 C64.2496865,49.4815947 63.7404419,50.5000838 63.2311974,51.4336988 C61.6185897,54.7437884 59.2421151,57.5446333 56.4412702,59.8362338 C50.8395802,64.5891828 44.3891493,67.2202796 37.0051034,67.559776 C30.979043,67.8143983 25.292479,66.3715387 19.8605372,63.7404419 C18.757174,63.2311974 17.7386849,62.6370788 16.7201958,62.0429601 C16.7201958,61.958086 16.8050699,61.958086 16.8050699,61.8732119 C16.9748181,61.958086 17.1445663,62.0429601 17.3143145,62.1278342 C25.0378567,66.2866647 33.1857694,67.9841465 41.9278007,66.2017906 C50.1605875,64.5043088 56.7807665,60.2606042 61.6185897,53.3009288 C61.7883379,53.0463065 61.958086,52.7916843 62.1278342,52.537062 C61.8732119,52.7068102 61.7034638,52.9614325 61.5337156,53.2160547 C61.3639674,53.470677 61.1942192,53.6404252 61.024471,53.8950474 C65.5227978,47.1051202 67.8143983,39.8059484 67.2202796,31.6580357 C67.4749019,41.8429266 64.0799383,50.5000838 56.5261443,57.4597592 C47.868987,65.2681756 37.2597257,66.7110351 29.7908058,65.3530497 C29.9605539,65.3530497 30.045428,65.3530497 30.2151762,65.3530497 C33.1857694,65.8622942 36.1563625,65.8622942 39.1269557,65.3530497 C44.3042752,64.5043088 49.1420984,62.891701 53.3009288,59.4967374 C55.5925293,57.6295074 57.5446333,55.5925293 59.4118633,53.3009288 C59.4967374,53.2160547 59.4967374,53.1311806 59.5816115,53.0463065 C59.5816115,53.0463065 59.5816115,53.0463065 59.5816115,53.0463065 C58.9026188,53.8101734 58.138752,54.5740402 57.4597592,55.337907 C57.3748852,55.2530329 57.2900111,55.2530329 57.2900111,55.1681588 C57.6295074,54.6589143 57.9690038,54.1496697 58.3085001,53.6404252 C57.1202629,54.5740402 56.1017738,55.5076552 54.9984106,56.5261443 C53.8950474,57.4597592 52.7916843,58.3933742 51.4336988,58.9874929 C61.8732119,51.1790766 66.626161,40.8244375 64.9286792,27.8387017 C64.8438051,28.3479462 64.8438051,28.9420648 64.8438051,29.5361835 C64.8438051,30.1303021 64.8438051,30.7244207 64.758931,31.2336653 C64.758931,31.8277839 64.6740569,32.3370285 64.5891828,32.9311471 C64.5043088,33.4403916 64.4194347,34.0345103 64.3345606,34.5437548 C64.3345606,34.5437548 64.2496865,34.5437548 64.2496865,34.5437548 L64.2496865,32.0824062 C64.1648124,32.2521544 64.1648124,32.4219026 64.1648124,32.5916507 C63.9101901,34.3740066 63.7404419,36.2412366 63.4858197,38.0235925 C62.891701,41.5034302 61.7034638,44.8135198 59.7513597,47.6992388 C56.6958924,52.1975656 52.537062,55.2530329 47.6143648,57.4597592 C40.8244375,60.5152265 33.8647621,61.024471 26.7353385,58.7328706 C15.3622104,55.0832847 10.1848909,45.4076384 9.84539449,36.8353553 C9.67564631,33.2706435 10.2697649,29.8756798 11.6277504,26.6504644 C14.3437213,19.5210408 19.690789,15.2773363 26.8202126,13.0706099 C26.9899608,12.9857358 27.1597089,12.9857358 27.4143312,12.9857358 C27.3294571,13.2403581 27.244583,13.4101063 27.0748349,13.5798545 C26.310968,14.1739731 25.6319753,14.7680917 24.8681085,15.2773363 C22.491634,16.889944 20.3697817,18.6722999 18.6722999,21.0487744 C18.5025517,21.3033967 18.3328035,21.6428931 18.1630554,21.8975153 C18.1630554,21.8975153 18.2479295,21.9823894 18.2479295,21.9823894 C18.6722999,21.558019 19.0117963,21.1336485 19.4361667,20.7092781 C21.7277672,17.9933072 24.358864,15.7865808 27.5840794,14.3437213 C29.3664353,13.4949804 31.1487912,12.7311136 32.9311471,12.0521208 C35.7319921,10.9487577 38.6177112,10.6941354 41.5883043,10.7790095 C42.3521711,10.7790095 43.116038,10.8638836 43.8799048,10.8638836 C44.134527,10.8638836 44.4740234,10.7790095 44.7286457,10.6941354 C45.1530161,10.5243872 45.1530161,10.2697649 44.8135198,9.93026858 C44.5588975,9.67564631 44.3042752,9.50589813 43.9647789,9.33614995 C42.2672971,8.40253496 40.4849412,7.63866814 38.6177112,7.21429769 C31.6580357,5.68656406 25.1227308,6.78992724 19.0966704,10.5243872 C15.2773363,12.9008618 12.221869,15.956329 10.1000168,19.9454113 C9.08152768,21.8126412 8.40253496,23.8496194 7.80841632,25.8865976 C7.55379405,26.7353385 7.1294236,27.5840794 6.45043088,28.2630721 C6.36555678,28.3479462 6.1958086,28.4328203 5.85631224,28.6874426 C5.85631224,28.2630721 5.85631224,27.9235758 5.94118633,27.6689535 C6.11093451,26.9899608 6.28068269,26.310968 6.45043088,25.7168494 C7.9781645,21.0487744 10.6092613,17.0596922 14.0042249,13.4949804 C14.089099,13.4101063 14.1739731,13.2403581 14.3437213,13.155484 C14.3437213,13.155484 14.3437213,13.155484 14.2588472,13.0706099 C14.0042249,13.2403581 13.7496027,13.4949804 13.4101063,13.6647286 C14.4285954,12.4764913 15.6168326,11.6277504 16.889944,10.8638836 C18.1630554,10.1000168 19.4361667,9.25127586 20.7092781,8.57228314 C21.9823894,7.89329041 23.425249,7.38404587 24.7832344,6.78992724 C24.1042417,6.87480133 23.3403749,7.04454951 22.6613822,7.21429769 C21.9823894,7.38404587 21.3033967,7.55379405 20.624404,7.72354223 C26.226094,5.00757134 32.0824062,4.15883043 38.1084666,5.09244543 C44.134527,6.02606042 49.4815947,8.57228314 54.2345438,12.4764913 C52.2824397,10.2697649 49.6513429,8.99665359 47.3597425,7.21429769 C47.9538611,7.38404587 48.4631057,7.55379405 49.0572243,7.80841632 C49.0572243,7.72354223 49.1420984,7.63866814 49.1420984,7.63866814 C48.2084834,7.1294236 47.2748684,6.62017906 46.3412534,6.11093451 C46.935372,6.28068269 47.5294907,6.62017906 48.1236093,6.87480133 C50.8395802,7.9781645 53.2160547,9.7605204 55.5076552,11.4580022 C57.4597592,12.9008618 58.9874929,14.8529658 60.3454783,16.8050699 C60.4303524,16.9748181 60.5152265,17.0596922 60.6001006,17.2294404 C60.6001006,17.2294404 60.6849747,17.1445663 60.6849747,17.1445663 C56.8656406,11.2033799 51.603447,6.95967542 44.8983939,4.58320089 C38.1933407,2.12185226 31.4034135,2.12185226 24.6134862,3.98908225 C32.1672803,1.61260772 39.5513262,1.95210408 47.0202461,4.4134527 C46.5110016,4.24370452 46.0866311,4.07395634 45.5773866,3.90420816 C48.2084834,4.66807498 50.7547061,5.85631224 53.0463065,7.29917178 C52.1126915,6.53530497 51.2639506,5.77143815 50.2454616,5.17731952 C48.0387352,3.90420816 45.5773866,3.22521544 43.116038,2.71597089 C42.2672971,2.54622271 41.4185561,2.29160044 40.6546893,2.12185226 C40.6546893,2.03697817 40.6546893,2.03697817 40.6546893,1.95210408 C42.4370452,2.20672635 44.2194011,2.54622271 46.1715052,2.88571908 C46.001757,2.80084499 45.9168829,2.71597089 45.7471348,2.71597089 C44.3891493,2.37647453 43.0311639,2.03697817 41.6731784,1.61260772 C41.4185561,1.52773363 41.248808,1.44285954 40.9941857,1.35798545 C41.1639339,1.35798545 41.4185561,1.35798545 41.5883043,1.44285954 C41.7580525,1.44285954 42.0126748,1.52773363 42.182423,1.52773363 C40.2303189,0.848740905 38.1933407,0.509244543 36.0714884,0.339496362 C35.3076216,0.254622271 34.4588807,0.254622271 33.6950139,0.254622271 C27.244583,0.339496362 21.3882708,2.20672635 15.8714549,5.60168997" id="Shape" fill="url(#linearGradient-1)"></path>
        </g>
    </g>
</svg>