<svg id="Layer_1" data-name="Layer 1" xmlns="http://www.w3.org/2000/svg" viewBox="0 0 1280 1024"><defs><style>.cls-1{fill:#fff;}.cls-2{fill:#e1e1e1;}</style></defs><title>Artboard 10</title><path d="M358.35,661.73l-30.79.29,2.89,2.89V589.13L327.56,592H669.88c1.34,0,3.39.4,4.68,0a2.33,2.33,0,0,1,.59,0l-2.89-2.89v75.78l2.89-2.89-27.58-.29a3,3,0,0,0-2.79,2.12l-21.35,68.63-34,109.42-7.83,25.16,2.79-2.12H421.51l2.78,2.12L403,798.42,369,689l-7.82-25.15c-1.1-3.54-6.68-2-5.57,1.54L376.89,734l34,109.42,7.82,25.15a3,3,0,0,0,2.79,2.12H584.34a3,3,0,0,0,2.78-2.12L608.48,800l34-109.42,7.82-25.15-2.78,2.12,27.58.29a2.93,2.93,0,0,0,2.89-2.89V589.13a2.94,2.94,0,0,0-2.89-2.89H341.77c-4.47,0-9.16-.41-13.61,0-.2,0-.4,0-.6,0a2.93,2.93,0,0,0-2.88,2.89v75.78a2.92,2.92,0,0,0,2.88,2.89l30.79-.29C362.06,667.47,362.07,661.69,358.35,661.73Z"/><path d="M410.68,536.56c-22-22.41-30.59-53.82-25.81-84.63l-2,2c30.58-4.75,62.49,3.63,84.62,25.81s30.56,54,25.81,84.62l2-2c-30.81,4.78-62.22-3.78-84.63-25.81-2.66-2.61-6.74,1.47-4.09,4.08,24,23.58,57.35,32.41,90.25,27.3a2.8,2.8,0,0,0,2-2c5.07-32.68-3.57-66.53-27.29-90.25S414,443.3,381.32,448.38a2.8,2.8,0,0,0-2,2c-5.11,32.89,3.71,66.26,27.29,90.24C409.2,543.3,413.29,539.21,410.68,536.56Z"/><path d="M529.57,399.83c22.4-22,53.82-30.59,84.62-25.81l-2-2c4.74,30.58-3.64,62.5-25.81,84.63s-54,30.56-84.63,25.81l2,2c-4.78-30.8,3.78-62.21,25.81-84.62,2.6-2.66-1.48-6.75-4.09-4.09-23.58,24-32.4,57.35-27.29,90.25a2.8,2.8,0,0,0,2,2c32.67,5.07,66.53-3.58,90.25-27.29s32.36-57.58,27.29-90.25a2.8,2.8,0,0,0-2-2c-32.9-5.11-66.26,3.71-90.25,27.29C522.82,398.35,526.91,402.44,529.57,399.83Z"/><path class="cls-1" d="M442.83,196.63c-13.66-14-19-33.32-16.07-52.55l-2,2c19-2.87,38.76,2.28,52.54,16.07s18.94,33.52,16.07,52.55l2-2c-19.23,2.9-38.52-2.41-52.55-16.06-2.67-2.6-6.76,1.48-4.09,4.08,15.63,15.21,36.84,20.77,58.17,17.55a2.77,2.77,0,0,0,2-2c3.18-21.11-2.2-42.83-17.55-58.17s-37.06-20.74-58.17-17.56a2.78,2.78,0,0,0-2,2c-3.22,21.33,2.35,42.55,17.55,58.17C441.34,203.38,445.42,199.29,442.83,196.63Z"/><path d="M419.81,391.15c-15.61-.27-29.39-8.06-38.6-20.53v2.92c9.08-12.29,23.08-20.55,38.6-20.52s29.5,8.2,38.61,20.52v-2.92c-9.22,12.47-23,20.26-38.61,20.53-3.71.06-3.72,5.84,0,5.77,17.8-.3,33.13-9.23,43.59-23.38a2.79,2.79,0,0,0,0-2.92c-10.32-14-25.89-23.38-43.59-23.38s-33.26,9.41-43.59,23.38a2.79,2.79,0,0,0,0,2.92c10.46,14.15,25.8,23.08,43.59,23.38C423.53,397,423.53,391.21,419.81,391.15Z"/><path class="cls-1" d="M449.51,293.12c-.31-17.12-8.88-31.84-22.49-41.93a2.79,2.79,0,0,0-2.92,0c-13.44,9.95-22.49,24.9-22.49,41.93s9.05,32,22.49,41.93a2.79,2.79,0,0,0,2.92,0c13.61-10.08,22.18-24.8,22.49-41.93.07-3.72-5.71-3.72-5.78,0-.27,14.95-7.7,28.11-19.63,36.94H427c-11.76-8.7-19.66-22.08-19.64-36.94s7.85-28.21,19.64-36.94H424.1c11.93,8.83,19.36,22,19.63,36.94C443.8,296.84,449.58,296.85,449.51,293.12Z"/><path d="M353.79,307c-11-.26-20.52-5.62-27.07-14.36v2.91c13.94-18.62,40.19-18.62,54.13,0v-2.91c-6.54,8.74-16.08,14.1-27.06,14.36-3.71.08-3.73,5.86,0,5.78,13.17-.31,24.24-6.79,32-17.23a2.77,2.77,0,0,0,0-2.91c-7.66-10.24-19-17.25-32-17.22s-24.37,6.94-32.06,17.22a2.77,2.77,0,0,0,0,2.91c7.82,10.44,18.88,16.92,32.06,17.23C357.51,312.88,357.5,307.11,353.79,307Z"/><path d="M331.36,228.21c.31,13.17,6.79,24.24,17.22,32a2.79,2.79,0,0,0,2.92,0c10.24-7.67,17.25-19,17.22-32s-7-24.37-17.22-32.06a2.79,2.79,0,0,0-2.92,0C338.15,204,331.67,215,331.36,228.21c-.09,3.71,5.69,3.71,5.78,0,.26-11,5.61-20.52,14.36-27.07h-2.92c18.62,13.94,18.62,40.19,0,54.13h2.92c-8.75-6.55-14.1-16.08-14.36-27.06C337.05,224.49,331.27,224.48,331.36,228.21Z"/><path class="cls-1" d="M590.06,300.05c20-.3,37.43-10.42,49.18-26.37a2.77,2.77,0,0,0,0-2.91C627.62,255,610,244.39,590.06,244.39S552.5,255,540.88,270.77a2.77,2.77,0,0,0,0,2.91c11.75,15.95,29.15,26.07,49.18,26.37,3.72.06,3.72-5.72,0-5.78-17.87-.27-33.68-9.23-44.19-23.5v2.91c10.39-14.11,26.42-23.51,44.19-23.51s33.8,9.4,44.19,23.51v-2.91C623.74,285,607.93,294,590.06,294.27,586.35,294.33,586.34,300.11,590.06,300.05Z"/><path d="M601.93,190.79c-.3-20-10.41-37.43-26.37-49.18a2.77,2.77,0,0,0-2.91,0c-15.78,11.62-26.37,29.24-26.37,49.18s10.59,37.56,26.37,49.18a2.77,2.77,0,0,0,2.91,0c16-11.75,26.07-29.15,26.37-49.18.06-3.72-5.72-3.72-5.77,0-.28,17.87-9.24,33.68-23.51,44.19h2.91c-14.11-10.39-23.51-26.42-23.51-44.19s9.4-33.8,23.51-44.19h-2.91c14.27,10.51,23.23,26.32,23.51,44.19C596.21,194.5,602,194.52,601.93,190.79Z"/><path d="M643.93,227.12c15.34-.3,28.37-7.91,37.43-20.09a2.79,2.79,0,0,0,0-2.92c-8.92-12-22.19-20.09-37.43-20.09s-28.5,8.11-37.42,20.09a2.79,2.79,0,0,0,0,2.92c9.06,12.18,22.09,19.79,37.42,20.09,3.72.08,3.72-5.7,0-5.78-13.13-.26-24.64-6.75-32.43-17.23V207c7.68-10.33,19.38-17.21,32.43-17.23s24.78,6.93,32.44,17.23v-2.92c-7.79,10.48-19.3,17-32.44,17.23C640.22,221.42,640.21,227.2,643.93,227.12Z"/><path class="cls-1" d="M631,132.19c.26-13.14,6.75-24.65,17.23-32.44H645.3c10.33,7.68,17.21,19.38,17.23,32.44S655.61,157,645.3,164.63h2.92c-10.48-7.8-17-19.31-17.23-32.44-.08-3.72-5.85-3.73-5.78,0,.3,15.33,7.92,28.37,20.09,37.42a2.79,2.79,0,0,0,2.92,0c12-8.91,20.09-22.19,20.09-37.42s-8.1-28.51-20.09-37.43a2.79,2.79,0,0,0-2.92,0c-12.17,9.06-19.79,22.09-20.09,37.43C625.14,135.91,630.91,135.91,631,132.19Z"/><path class="cls-2" d="M1231.09,745.65h-173a62.08,62.08,0,0,1-37.77,12.81H797a25.87,25.87,0,0,1,0-51.74H897.56c0-.15-.06-.3-.08-.45H752.4a25.94,25.94,0,0,1-25.87-25.87h0a25.94,25.94,0,0,1,25.87-25.87H896.61v-.44h-165a25.87,25.87,0,1,1,0-51.74H897.32c.07-.46.16-.9.24-1.35H776.79a25.87,25.87,0,0,1,0-51.74h188.1l-25.13-34.58c-9.07-13.85-10.06-26.52,0-36.59h0a26,26,0,0,1,36.59,0l73.58,100.59h181.16"/><path d="M1231.09,743.4H1060.72a12.11,12.11,0,0,0-3.24.08c-1.94.61-4,2.73-5.77,3.83a60.85,60.85,0,0,1-7,3.73,59.39,59.39,0,0,1-17.64,4.81c-9.33,1-19,.36-28.39.36H801.28c-1.65,0-3.31,0-5,0a23.9,23.9,0,0,1-22.14-17.56c-4.27-16.06,8.72-29.6,24.35-29.66,8.38,0,16.76,0,25.14,0h73.89a2.29,2.29,0,0,0,2.17-2.85l-.08-.45a2.26,2.26,0,0,0-2.17-1.65H759c-2.14,0-4.28.05-6.42,0a23.6,23.6,0,0,1-11.67-44.21c4.31-2.43,8.94-3,13.76-3h142a2.28,2.28,0,0,0,2.25-2.25v-.44a2.28,2.28,0,0,0-2.25-2.25H740.28c-2.73,0-5.46,0-8.19,0-9.85-.17-18.87-5.7-22.53-15.08a23.88,23.88,0,0,1,15.35-31.19c3.43-1,6.82-1,10.33-1H819c25.63,0,51.33.53,77,0h1.41a2.28,2.28,0,0,0,2.17-1.65l.24-1.36a2.28,2.28,0,0,0-2.17-2.84H786.39c-3.07,0-6.15,0-9.22,0-9.8-.17-18.78-5.77-22.41-15.08a23.9,23.9,0,0,1,13.49-30.57c3.93-1.53,7.91-1.59,12-1.59H964.89c1.57,0,3-2,1.94-3.39L943,515.35c-6.81-9.37-11.83-22.07-4.36-32.54l.79-1c1-.53,1.07-1,.31-1.5.17-.17.65,0,.87-.19a33.28,33.28,0,0,1,3.58-2.91,24,24,0,0,1,9.66-4.08c7-1.28,15.48.83,20.54,6.08,1.81,1.87,3.22,4.4,4.76,6.5l11.58,15.83L1022.54,545l23.53,32.17c1.2,1.64,2,3.38,4.12,3.73,2.36.4,5.14,0,7.52,0h92.77c26.33,0,52.9,1.05,79.22,0,.46,0,.92,0,1.39,0,2.89,0,2.9-4.5,0-4.5H1049.93l1.94,1.12-54.94-75.11-13.57-18.55c-1.91-2.61-3.68-5.57-6-7.89-9.58-9.78-26.08-9.94-36.61-1.79-.54.42-1,.83-1.57,1.29,0,0,.55.07.23.38a36.78,36.78,0,0,0-2.91,2.39,26.21,26.21,0,0,0-5,8.55c-2.34,6.82-1.08,14.12,1.69,20.61,3.63,8.51,10,15.86,15.37,23.29l14.29,19.67,1.95-3.38H780.63c-3.74,0-7.43,0-11.09,1a28.45,28.45,0,0,0-20.35,21.86c-3.5,18.17,11.13,33.33,28.87,33.43,10.85.06,21.71,0,32.57,0H883c4.18,0,8.68.46,12.84,0a14.76,14.76,0,0,1,1.76,0l-2.17-2.85-.24,1.35,2.17-1.65H736.63c-2.57,0-5.2-.11-7.76.14A28.48,28.48,0,0,0,705,619.1c-6.6,18.88,8.49,37.11,27.61,37.24,26.66.17,53.32,0,80,0H884c3.55,0,7.56.52,11.08,0a9.64,9.64,0,0,1,1.52,0l-2.25-2.25v.44l2.25-2.25H755.21c-14.08,0-27.13,7.54-30.28,22.16-3.85,17.81,10.19,33.77,27.91,34.08,23,.41,46.08,0,69.11,0h75.53l-2.17-1.65.08.45,2.17-2.85H805.21c-9,0-17.56-.07-25.21,5.78-13.51,10.34-14.77,30.87-2.4,42.65,7.28,6.93,16.09,7.81,25.5,7.81h206.63c12.59,0,24.62-.27,36.47-5.46a66.34,66.34,0,0,0,6.41-3.24,25.41,25.41,0,0,0,4-2.55c-2.08,1.84,2.2-1.86,1.45-1.56.29-.12.75.06,1.06,0,2-.37,4.51,0,6.58,0h165.36c2.89,0,2.9-4.5,0-4.5Z"/><rect x="495.68" y="159.43" width="5.32" height="431.54" rx="1.56" transform="matrix(-1, 0, 0, -1, 996.68, 750.4)"/><rect x="399.56" y="173.61" width="5.3" height="273.59" rx="1.45" transform="translate(906.12 245.49) rotate(135)"/><rect x="574.45" y="124.96" width="5.44" height="222.31" rx="1.69" transform="translate(336.01 -338.96) rotate(45)"/><path class="cls-2" d="M49.59,745.65h183a62.1,62.1,0,0,0,37.77,12.81H493.67a25.87,25.87,0,0,0,0-51.74H393.11c0-.15.06-.3.08-.45H538.27a25.94,25.94,0,0,0,25.87-25.87h0a25.94,25.94,0,0,0-25.87-25.87H394.06v-.44h165a25.87,25.87,0,1,0,0-51.74H393.35c-.07-.46-.16-.9-.24-1.35H513.89a25.87,25.87,0,0,0,0-51.74H325.79l25.12-34.58c9.07-13.85,10.06-26.52,0-36.59h0a26,26,0,0,0-36.59,0L240.75,578.68H49.59"/><path class="cls-1" d="M49.59,747.9H229.27c.86,0,2.49-.33,3.32,0,.26.11,1.46,1.58,2.1,2,1.1.74,2.22,1.44,3.37,2.11a66.1,66.1,0,0,0,7.15,3.56,64.19,64.19,0,0,0,16.19,4.5c9.87,1.38,20.24.64,30.16.64H471.07c7.39,0,14.78.13,22.17,0,15-.27,27.7-11.49,28.51-26.75.86-16.19-12.49-29.16-28.29-29.49-7.36-.16-14.74,0-22.1,0H393.11l2.17,2.85.08-.45-2.17,1.65h142c13.73,0,26.5-6.74,30.28-20.87,4.83-18.06-9.32-35-27.5-35.37-22.74-.44-45.54,0-68.29,0H394.06l2.25,2.25v-.44l-2.25,2.25H554.39a60.67,60.67,0,0,0,8.74-.32,28.48,28.48,0,0,0,22.94-19.93c5.57-18.79-9.54-35.88-28.2-36-26.88-.16-53.77,0-80.65,0H405.91c-3.56,0-7.52-.49-11.05,0a12.68,12.68,0,0,1-1.51,0l2.17,1.65-.24-1.35-2.17,2.85h115c2.81,0,5.67.13,8.47-.15A28.4,28.4,0,0,0,540,585.47c7.46-18.75-7.07-38.16-26.61-38.46-9.52-.15-19.05,0-28.57,0h-159l1.94,3.38c8.34-11.48,17.06-22.75,25-34.48,7.59-11.14,11-25.78,1.85-37a34.23,34.23,0,0,0-3.12-2.95,8.85,8.85,0,0,0-1.63-1.71,28.06,28.06,0,0,0-28.2-3.7c-10.87,4.58-17.28,17.37-23.92,26.44l-35.19,48.11L238.8,577.55l1.95-1.12H49.59c-2.9,0-2.91,4.5,0,4.5H235.46c1.65,0,4,.45,5.59,0,2.23-.67,3.94-4.22,5.23-6l11.27-15.41,56.8-77.65a22.36,22.36,0,0,1,18.27-9,23.68,23.68,0,0,1,10.82,2.6,25.73,25.73,0,0,1,4.82,3.27c.63.54,2.21,1.21,2.65,1.66-.87-.89,1.13,2.94.31,1.5.56,1,1.41,1.84,2,2.84a19.46,19.46,0,0,1,2.14,5.34,23.15,23.15,0,0,1-.61,11.65c-2.34,8-7.64,14.45-12.45,21.08l-15.24,21-3.2,4.4c-1,1.42.37,3.39,2,3.39H504.48c3,0,6,0,9,0,9.51.15,18.14,5.32,22,14.16a23.8,23.8,0,0,1-12.15,31.07c-4.21,1.86-8.49,2-13,2H475c-26.73,0-53.5-.44-80.22,0h-1.64a2.28,2.28,0,0,0-2.17,2.84l.24,1.36a2.27,2.27,0,0,0,2.17,1.65H549.94c2.83,0,5.67,0,8.51,0,9.23.08,17.67,4.84,21.84,13.24,6.18,12.43-.26,28-13.28,32.62-3.73,1.33-7.42,1.38-11.28,1.38H472.58c-25.68,0-51.42-.53-77.1,0h-1.42a2.29,2.29,0,0,0-2.25,2.25v.44a2.28,2.28,0,0,0,2.25,2.25H532.13c2,0,4,0,6.06,0a23.62,23.62,0,0,1,10.46,44.83c-4.1,2-8.43,2.41-12.89,2.41H393.19a2.28,2.28,0,0,0-2.17,1.65l-.08.45a2.29,2.29,0,0,0,2.17,2.85h91.47c9.58,0,18.94-.34,26.21,7.4,14.24,15.15,2.9,39.42-17.32,39.84-6.51.13-13.05,0-19.57,0H302.42c-10.43,0-20.86,0-31.29,0A61.86,61.86,0,0,1,246,751a60.72,60.72,0,0,1-7-3.73c-1.71-1-3.87-3.23-5.78-3.83a7.21,7.21,0,0,0-1.31-.08c-5-.64-10.51,0-15.54,0H49.59c-2.9,0-2.91,4.5,0,4.5Z"/></svg>